<svg xmlns="http://www.w3.org/2000/svg" xmlns:xlink="http://www.w3.org/1999/xlink" viewBox="0 0 375 245"><defs><style>.cls-1{fill:#fff;}.cls-16,.cls-2,.cls-3{fill:#3c3c41;}.cls-2{opacity:0.05;}.cls-2,.cls-3{isolation:isolate;}.cls-3{opacity:0.18;}.cls-4{fill:#6ebcdb;}.cls-5{fill:#5db4d7;}.cls-6{fill:#e6e6e6;}.cls-7{fill:#86d633;}.cls-8{fill:url(#Degradado_sin_nombre);}.cls-9{fill:#003067;}.cls-10{fill:#50e6ff;}.cls-11{fill:url(#Degradado_sin_nombre_2);}.cls-12{fill:url(#Degradado_sin_nombre_3);}.cls-13,.cls-14,.cls-15,.cls-17,.cls-18,.cls-19,.cls-20{fill:none;stroke:#3c3c41;stroke-linecap:round;stroke-miterlimit:10;}.cls-14{stroke-dasharray:0.96 2.88 3.84 2.88;}.cls-15{stroke-dasharray:3.84 2.88 0.96 2.88 3.84 2.88;}.cls-17{stroke-dasharray:0.95 2.86 3.81 2.86;}.cls-18{stroke-dasharray:3.81 2.86 0.95 2.86 3.81 2.86;}.cls-19{stroke-dasharray:0.86 2.58 3.44 2.58;}.cls-20{stroke-dasharray:3.44 2.58 0.86 2.58 3.44 2.58;}.cls-21{fill:url(#Degradado_sin_nombre_4);}.cls-22{fill:#b4ec36;}.cls-23{fill:#5ea0ef;}.cls-24,.cls-27{font-size:12px;}.cls-24,.cls-27,.cls-29,.cls-30,.cls-31{fill:#1e1e1e;}.cls-24{font-family:SegoeUI-Bold, Segoe UI;font-weight:700;}.cls-25{letter-spacing:0em;}.cls-26{letter-spacing:-0.01em;}.cls-27{font-family:MalgunGothicBold, Malgun Gothic;}.cls-28{letter-spacing:-0.08em;}.cls-29,.cls-30,.cls-31{font-size:11px;font-family:MalgunGothic, Malgun Gothic;}.cls-29{letter-spacing:-0.02em;}.cls-30{letter-spacing:-0.02em;}.cls-31{letter-spacing:-0.02em;}</style><linearGradient id="Degradado_sin_nombre" x1="240.52" y1="344.72" x2="240.52" y2="376.72" gradientTransform="translate(0 -298)" gradientUnits="userSpaceOnUse"><stop offset="0" stop-color="#b3b2b3"/><stop offset="0.38" stop-color="#afaeaf"/><stop offset="0.76" stop-color="#a2a2a2"/><stop offset="1" stop-color="#979797"/></linearGradient><linearGradient id="Degradado_sin_nombre_2" x1="240.52" y1="423.22" x2="240.52" y2="455.22" xlink:href="#Degradado_sin_nombre"/><linearGradient id="Degradado_sin_nombre_3" x1="240.52" y1="503.4" x2="240.52" y2="535.4" xlink:href="#Degradado_sin_nombre"/><linearGradient id="Degradado_sin_nombre_4" x1="144.48" y1="457.63" x2="144.48" y2="422.85" gradientTransform="translate(0 -298)" gradientUnits="userSpaceOnUse"><stop offset="0" stop-color="#5e9624"/><stop offset="0.02" stop-color="#5f9724"/><stop offset="1" stop-color="#76bc2d"/></linearGradient></defs><title>OJ105690781</title><g id="bg"><rect class="cls-1" y="35" width="375" height="210"/><rect class="cls-2" y="35" width="375" height="210"/><rect class="cls-1" width="375" height="35"/><rect class="cls-3" width="375" height="35"/></g><g id="shapes"><g id="ad94e297-0e86-4eaf-aac0-d146ee9aea65"><path class="cls-4" d="M120.79,24.14l-3.63-3.75a1.77,1.77,0,0,1-.6.11,1.88,1.88,0,1,1,0-3.76,1.86,1.86,0,0,1,1.76,1.18h3.58v1.26h-3.52c-.06.15-.13.29-.2.44l3.34,3.45,1.82-2.76V11.65H120.9L124,8.53l3,3.12h-2.44v6.77l4.59-7-4.63-4.63a.8.8,0,0,0-1.13,0h0L112.18,18a.8.8,0,0,0,0,1.13h0l11.21,11.21-4-4Z"/><path class="cls-5" d="M123.31,24.3v-4l-1.82,2.77,1.34,1.43A1.2,1.2,0,0,1,123.31,24.3Z"/><path class="cls-5" d="M135.71,18l-6.56-6.57-4.59,7v5.89a1.27,1.27,0,0,1,.41.23l4.82-4.87a2.23,2.23,0,0,1-.24-.49h-3.61V17.92h3.66a1.87,1.87,0,1,1,1.74,2.58,3,3,0,0,1-.52-.08l-5.12,5.16a2.67,2.67,0,0,1,.08.48,1.88,1.88,0,0,1-3.76.15,1.83,1.83,0,0,1,.1-.7l-1.33-1.33-1.43,2.13,4,4a.79.79,0,0,0,1.12,0h0l11.21-11.2a.79.79,0,0,0,0-1.12h0Z"/><path class="cls-6" d="M129.6,17.92h-3.66v1.26h3.61a1.77,1.77,0,0,1-.09-.56A1.86,1.86,0,0,1,129.6,17.92Z"/><path class="cls-6" d="M118.35,19.18h3.52V17.92h-3.58a1.69,1.69,0,0,1,.15.7A1.77,1.77,0,0,1,118.35,19.18Z"/><path class="cls-6" d="M125.7,25.58l5.12-5.16a2,2,0,0,1-1-.75L125,24.54A1.74,1.74,0,0,1,125.7,25.58Z"/><path class="cls-6" d="M122.87,24.5l-1.34-1.43-3.38-3.45a2,2,0,0,1-1,.77l3.63,3.75,1.33,1.33A1.79,1.79,0,0,1,122.87,24.5Z"/><path class="cls-1" d="M127,11.65l-3-3.12-3.08,3.12h2.44V24.3a1.35,1.35,0,0,0-.44.2,1.88,1.88,0,0,0-.51,2.6,1.93,1.93,0,0,0,1,.74,1.87,1.87,0,0,0,2.33-1.25,2.34,2.34,0,0,0,.08-.53,2.67,2.67,0,0,0-.08-.48,1.72,1.72,0,0,0-.73-1,1.27,1.27,0,0,0-.41-.23V11.65ZM124,27.1a1,1,0,1,1,1-1h0A1,1,0,0,1,124,27.1Z"/><path class="cls-1" d="M118.15,19.62c.07-.15.14-.29.2-.44a1.77,1.77,0,0,0,.09-.56,1.69,1.69,0,0,0-.15-.7,1.87,1.87,0,1,0-1.73,2.58,1.77,1.77,0,0,0,.6-.11A1.94,1.94,0,0,0,118.15,19.62Zm-1.59,0a1,1,0,1,1,1-1h0a1.05,1.05,0,0,1-1,1.08h0Z"/><path class="cls-1" d="M130.82,20.42a3,3,0,0,0,.52.08,1.87,1.87,0,1,0-1.88-1.88,1.77,1.77,0,0,0,.09.56,2.23,2.23,0,0,0,.24.49A2,2,0,0,0,130.82,20.42Zm.52-2.83a1,1,0,0,1,.92,1.08s0,0,0,.07a1,1,0,0,1-2.06,0A1,1,0,0,1,131,17.6h.07a1,1,0,0,1,.24,0Z"/><path class="cls-7" d="M124,25a1,1,0,0,0,0,2.08,1,1,0,0,0,1-1h0a1,1,0,0,0-.92-1.08Z"/><circle class="cls-7" cx="116.56" cy="18.62" r="1.04"/><path class="cls-7" d="M131.34,19.66a1,1,0,0,0,0-2.08,1,1,0,0,0-1,1h0a1,1,0,0,0,.92,1.08Z"/></g><path class="cls-8" d="M250.91,77.63a1.16,1.16,0,0,1-1.2,1.09H231.33a1.16,1.16,0,0,1-1.2-1.09V47.81a1.16,1.16,0,0,1,1.2-1.09h18.38a1.16,1.16,0,0,1,1.2,1.09Z"/><path class="cls-9" d="M233.19,60.4a2.39,2.39,0,0,1,2.22-2.5h10.38A2.37,2.37,0,0,1,248,60.4h0a2.37,2.37,0,0,1-2.12,2.6H235.45a2.39,2.39,0,0,1-2.22-2.49Z"/><path class="cls-9" d="M233.19,53a2.38,2.38,0,0,1,2.22-2.49h10.38A2.38,2.38,0,0,1,248,53h0a2.4,2.4,0,0,1-2.21,2.5H235.45a2.4,2.4,0,0,1-2.22-2.5Z"/><circle class="cls-10" cx="236.1" cy="53" r="1.66"/><circle class="cls-10" cx="236.1" cy="60.4" r="1.66"/><path class="cls-11" d="M250.91,156.13a1.16,1.16,0,0,1-1.2,1.09H231.33a1.16,1.16,0,0,1-1.2-1.09V126.31a1.16,1.16,0,0,1,1.2-1.09h18.38a1.16,1.16,0,0,1,1.2,1.09Z"/><path class="cls-9" d="M233.19,138.9a2.39,2.39,0,0,1,2.22-2.5h10.38a2.37,2.37,0,0,1,2.21,2.5h0a2.37,2.37,0,0,1-2.13,2.59H235.45a2.39,2.39,0,0,1-2.22-2.49Z"/><path class="cls-9" d="M233.19,131.5a2.38,2.38,0,0,1,2.22-2.49h10.38A2.38,2.38,0,0,1,248,131.5h0a2.4,2.4,0,0,1-2.21,2.5H235.45a2.4,2.4,0,0,1-2.22-2.5Z"/><circle class="cls-10" cx="236.1" cy="131.5" r="1.66"/><circle class="cls-10" cx="236.1" cy="138.9" r="1.66"/><path class="cls-12" d="M250.91,236.31a1.16,1.16,0,0,1-1.2,1.09H231.33a1.16,1.16,0,0,1-1.2-1.09V206.48a1.15,1.15,0,0,1,1.2-1.08h18.38a1.15,1.15,0,0,1,1.2,1.08Z"/><path class="cls-9" d="M233.19,219.08a2.4,2.4,0,0,1,2.22-2.51h10.38a2.4,2.4,0,0,1,2.21,2.51h0a2.38,2.38,0,0,1-2.13,2.59H235.45a2.38,2.38,0,0,1-2.22-2.48Z"/><path class="cls-9" d="M233.19,211.67a2.38,2.38,0,0,1,2.22-2.48h10.38a2.36,2.36,0,0,1,2.21,2.48h0a2.4,2.4,0,0,1-2.21,2.51H235.45a2.4,2.4,0,0,1-2.22-2.51Z"/><circle class="cls-10" cx="236.1" cy="211.67" r="1.66"/><circle class="cls-10" cx="236.1" cy="219.08" r="1.66"/><line class="cls-13" x1="144.27" y1="160.45" x2="144.27" y2="158.45"/><line class="cls-14" x1="144.27" y1="155.57" x2="144.27" y2="146.44"/><path class="cls-15" d="M144.27,145V66.89a5,5,0,0,1,5-5h68.28"/><line class="cls-13" x1="218.99" y1="61.89" x2="220.99" y2="61.89"/><polygon class="cls-16" points="219.9 65.63 226.37 61.89 219.9 58.15 219.9 65.63"/><line class="cls-13" x1="143.77" y1="193.29" x2="143.77" y2="195.29"/><line class="cls-17" x1="143.77" y1="198.14" x2="143.77" y2="207.19"/><path class="cls-18" d="M143.77,208.62v7.62a5,5,0,0,0,5,5h68.79"/><line class="cls-13" x1="218.99" y1="221.24" x2="220.99" y2="221.24"/><polygon class="cls-16" points="219.9 224.98 226.37 221.24 219.9 217.5 219.9 224.98"/><line class="cls-13" x1="158.46" y1="142.11" x2="160.46" y2="142.11"/><line class="cls-19" x1="163.04" y1="142.11" x2="171.22" y2="142.11"/><line class="cls-20" x1="172.51" y1="142.11" x2="217.7" y2="142.11"/><line class="cls-13" x1="218.99" y1="142.11" x2="220.99" y2="142.11"/><polygon class="cls-16" points="219.9 145.85 226.37 142.11 219.9 138.37 219.9 145.85"/><path class="cls-21" d="M129.77,140.83l14-14a1,1,0,0,1,1.41,0h0l14,14a1,1,0,0,1,0,1.41h0l-14,14a1,1,0,0,1-1.4,0l-14-14a1,1,0,0,1,0-1.41Z"/><path class="cls-22" d="M148.13,133.22l-3.53-3.52a.2.2,0,0,0-.27,0l-3.53,3.52a.16.16,0,0,0,0,.21l0,0a.16.16,0,0,0,.17.07h2a.18.18,0,0,1,.18.18V137a.21.21,0,0,0,.19.19h2.2a.19.19,0,0,0,.18-.19v-3.3a.18.18,0,0,1,.18-.18H148a.17.17,0,0,0,.2-.13A.14.14,0,0,0,148.13,133.22Z"/><path class="cls-22" d="M136.13,137.57l-3.49,3.54a.17.17,0,0,0,0,.24h0l3.49,3.52a.19.19,0,0,0,.26,0,.2.2,0,0,0,.06-.14v-2a.19.19,0,0,1,.18-.19H140a.16.16,0,0,0,.16-.16h0v-2.22a.16.16,0,0,0,0-.23h-3.4a.17.17,0,0,1-.18-.15v-2a.2.2,0,0,0-.37-.13Z"/><path class="cls-22" d="M152.93,144.88l3.55-3.53a.18.18,0,0,0,0-.25l-3.55-3.53a.18.18,0,0,0-.25,0h0a.21.21,0,0,0,0,.11v2.08a.17.17,0,0,1-.16.17h-3.35a.16.16,0,0,0-.17.15h0v2.22a.17.17,0,0,0,.15.18h3.35a.19.19,0,0,1,.18.19v2.06a.18.18,0,0,0,.2.16h0Z"/><path class="cls-1" d="M149.12,141.55a4.65,4.65,0,1,0-5.9,4.45v1.58a2.86,2.86,0,1,0,2.61,0v-1.67A4.63,4.63,0,0,0,149.12,141.55Z"/><circle id="e99c3387-15c3-4f28-bd4b-cb209b430e06" class="cls-23" cx="144.48" cy="141.53" r="2.7"/></g><g id="txt"><text class="cls-24" transform="translate(112.87 172.94)">Azu<tspan class="cls-25" x="21.45" y="0">r</tspan><tspan x="26.17" y="0">e L</tspan><tspan class="cls-26" x="42.11" y="0">o</tspan><tspan x="49.33" y="0">ad </tspan><tspan x="7.46" y="13.2">Balancer</tspan></text><text class="cls-27" transform="translate(141.62 21.86)">인바운드 N<tspan class="cls-28" x="61.79" y="0">A</tspan><tspan x="69.33" y="0">T 규칙</tspan></text><text class="cls-29" transform="translate(257.56 67.33)">백 엔드: 포트 3389</text><text class="cls-29" transform="translate(257.56 144)">백 엔드: 포트 443</text><text class="cls-29" transform="translate(5.95 130.68)">프런트 엔드: 포트 3389</text><text class="cls-30" transform="translate(75.33 143.92)">포트 443</text><text class="cls-29" transform="translate(81.01 157.12)">포트 80</text><text class="cls-31" transform="translate(257.56 224.9)">백 엔드: 포트 80</text></g></svg>