<svg xmlns="http://www.w3.org/2000/svg" xmlns:xlink="http://www.w3.org/1999/xlink" viewBox="0 0 375 245"><defs><style>.cls-1{fill:#fff;}.cls-11,.cls-2,.cls-3{fill:#3c3c41;}.cls-2{opacity:0.05;}.cls-2,.cls-3{isolation:isolate;}.cls-3{opacity:0.18;}.cls-4{fill:url(#Degradado_sin_nombre);}.cls-5{fill:#003067;}.cls-6{fill:#50e6ff;}.cls-7{fill:url(#Degradado_sin_nombre_2);}.cls-8{fill:url(#Degradado_sin_nombre_3);}.cls-10,.cls-15,.cls-16,.cls-9{fill:none;stroke:#3c3c41;stroke-miterlimit:10;}.cls-10{stroke-dasharray:8.26 4.13;}.cls-12{fill:url(#Degradado_sin_nombre_4);}.cls-13{fill:#b4ec36;}.cls-14{fill:#5ea0ef;}.cls-15{stroke-dasharray:7.6 3.8;}.cls-16{stroke-dasharray:8.39 4.2;}.cls-17,.cls-20,.cls-21,.cls-22{font-size:12px;fill:#1e1e1e;}.cls-17{font-family:SegoeUI-Bold, Segoe UI;font-weight:700;}.cls-18{letter-spacing:0em;}.cls-19{letter-spacing:-0.01em;}.cls-20{font-family:MalgunGothicBold, Malgun Gothic;}.cls-21,.cls-22{font-family:MalgunGothic, Malgun Gothic;}.cls-21{letter-spacing:-0.02em;}.cls-22{letter-spacing:-0.02em;}</style><linearGradient id="Degradado_sin_nombre" x1="240.52" y1="304.5" x2="240.52" y2="336.5" gradientTransform="translate(0 -258)" gradientUnits="userSpaceOnUse"><stop offset="0" stop-color="#b3b2b3"/><stop offset="0.38" stop-color="#afaeaf"/><stop offset="0.76" stop-color="#a2a2a2"/><stop offset="1" stop-color="#979797"/></linearGradient><linearGradient id="Degradado_sin_nombre_2" x1="240.52" y1="383" x2="240.52" y2="415" xlink:href="#Degradado_sin_nombre"/><linearGradient id="Degradado_sin_nombre_3" x1="240.52" y1="463.18" x2="240.52" y2="495.18" xlink:href="#Degradado_sin_nombre"/><linearGradient id="Degradado_sin_nombre_4" x1="144.48" y1="417.41" x2="144.48" y2="382.63" gradientTransform="translate(0 -258)" gradientUnits="userSpaceOnUse"><stop offset="0" stop-color="#5e9624"/><stop offset="0.02" stop-color="#5f9724"/><stop offset="1" stop-color="#76bc2d"/></linearGradient></defs><title>OJ105690780</title><g id="bg"><rect class="cls-1" y="35" width="375" height="210"/><rect class="cls-2" y="35" width="375" height="210"/><rect class="cls-1" width="375" height="35"/><rect class="cls-3" width="375" height="35"/></g><g id="shapes"><path class="cls-4" d="M250.91,77.41a1.16,1.16,0,0,1-1.2,1.09H231.33a1.16,1.16,0,0,1-1.2-1.09V47.59a1.16,1.16,0,0,1,1.2-1.09h18.38a1.16,1.16,0,0,1,1.2,1.09Z"/><path class="cls-5" d="M233.19,60.18a2.38,2.38,0,0,1,2.22-2.5h10.37a2.39,2.39,0,0,1,2.22,2.5h0a2.36,2.36,0,0,1-2.11,2.59H235.45a2.39,2.39,0,0,1-2.22-2.49Z"/><path class="cls-5" d="M233.19,52.78a2.37,2.37,0,0,1,2.22-2.49h10.37A2.38,2.38,0,0,1,248,52.78h0a2.39,2.39,0,0,1-2.22,2.5H235.45a2.39,2.39,0,0,1-2.22-2.5Z"/><circle class="cls-6" cx="236.09" cy="52.78" r="1.66"/><circle class="cls-6" cx="236.09" cy="60.18" r="1.66"/><path class="cls-7" d="M250.91,155.91a1.16,1.16,0,0,1-1.2,1.09H231.33a1.16,1.16,0,0,1-1.2-1.09V126.09a1.16,1.16,0,0,1,1.2-1.09h18.38a1.16,1.16,0,0,1,1.2,1.09Z"/><path class="cls-5" d="M233.19,138.68a2.38,2.38,0,0,1,2.22-2.5h10.37a2.39,2.39,0,0,1,2.22,2.5h0a2.36,2.36,0,0,1-2.11,2.59H235.45a2.39,2.39,0,0,1-2.22-2.49Z"/><path class="cls-5" d="M233.19,131.28a2.37,2.37,0,0,1,2.22-2.49h10.37a2.38,2.38,0,0,1,2.22,2.49h0a2.39,2.39,0,0,1-2.22,2.5H235.45a2.39,2.39,0,0,1-2.22-2.5Z"/><circle class="cls-6" cx="236.09" cy="131.28" r="1.66"/><circle class="cls-6" cx="236.09" cy="138.68" r="1.66"/><path class="cls-8" d="M250.91,236.09a1.16,1.16,0,0,1-1.2,1.09H231.33a1.16,1.16,0,0,1-1.2-1.09V206.27a1.15,1.15,0,0,1,1.2-1.09h18.38a1.16,1.16,0,0,1,1.2,1.09Z"/><path class="cls-5" d="M233.19,218.86a2.4,2.4,0,0,1,2.22-2.51h10.37a2.4,2.4,0,0,1,2.22,2.51h0a2.37,2.37,0,0,1-2.13,2.59H235.45a2.39,2.39,0,0,1-2.22-2.49Z"/><path class="cls-5" d="M233.19,211.45a2.36,2.36,0,0,1,2.22-2.48h10.37a2.38,2.38,0,0,1,2.22,2.48h0a2.4,2.4,0,0,1-2.22,2.51H235.45a2.4,2.4,0,0,1-2.22-2.51Z"/><circle class="cls-6" cx="236.09" cy="211.45" r="1.66"/><circle class="cls-6" cx="236.09" cy="218.86" r="1.66"/><line class="cls-9" x1="144.98" y1="160.39" x2="144.98" y2="156.39"/><path class="cls-10" d="M145,152.26V66.83a5,5,0,0,1,5-5h65.65"/><line class="cls-9" x1="217.7" y1="61.83" x2="221.7" y2="61.83"/><polygon class="cls-11" points="220.6 65.57 227.08 61.83 220.6 58.09 220.6 65.57"/><path class="cls-12" d="M129.77,140.61l14-14a1,1,0,0,1,1.41,0h0l14,14a1,1,0,0,1,0,1.41h0l-14,14a1,1,0,0,1-1.4,0l-14-14a1,1,0,0,1,0-1.41h0Z"/><path class="cls-13" d="M148.13,133l-3.53-3.52a.2.2,0,0,0-.27,0L140.8,133a.16.16,0,0,0-.06.22h0a.18.18,0,0,0,.18.07H143a.18.18,0,0,1,.18.18v3.33a.19.19,0,0,0,.18.19h2.2a.2.2,0,0,0,.19-.19h0v-3.33a.18.18,0,0,1,.18-.18H148a.16.16,0,0,0,.2-.12A.16.16,0,0,0,148.13,133Z"/><path class="cls-13" d="M136.13,137.35l-3.5,3.55a.2.2,0,0,0,0,.25l3.5,3.51a.18.18,0,0,0,.25,0h0a.2.2,0,0,0,.06-.14v-2.05a.18.18,0,0,1,.18-.18H140a.17.17,0,0,0,.16-.17V139.9a.17.17,0,0,0-.06-.23h-3.34a.17.17,0,0,1-.18-.15h0v-2a.21.21,0,0,0-.12-.25.19.19,0,0,0-.27,0A.17.17,0,0,0,136.13,137.35Z"/><path class="cls-13" d="M152.93,144.66l3.55-3.53a.2.2,0,0,0,0-.25l-3.55-3.53a.18.18,0,0,0-.25,0h0a.21.21,0,0,0,0,.11v2.08a.18.18,0,0,1-.17.17h-3.35a.16.16,0,0,0-.16.16h0v2.22a.16.16,0,0,0,.14.18h3.35a.18.18,0,0,1,.18.18v2.06a.16.16,0,0,0,.18.16h.09Z"/><path class="cls-1" d="M149.11,141.33a4.65,4.65,0,1,0-5.9,4.45v1.58a2.85,2.85,0,1,0,3.84,1.22h0a2.87,2.87,0,0,0-1.22-1.22v-1.67A4.61,4.61,0,0,0,149.11,141.33Z"/><circle id="e99c3387-15c3-4f28-bd4b-cb209b430e06" class="cls-14" cx="144.48" cy="141.31" r="2.7"/><line class="cls-9" x1="144.48" y1="193.23" x2="144.48" y2="197.23"/><path class="cls-15" d="M144.48,201v15.15a5,5,0,0,0,5,5H215.8"/><line class="cls-9" x1="217.7" y1="221.18" x2="221.7" y2="221.18"/><polygon class="cls-11" points="220.6 224.92 227.08 221.18 220.6 217.44 220.6 224.92"/><line class="cls-9" x1="159.16" y1="142.05" x2="163.16" y2="142.05"/><line class="cls-16" x1="167.36" y1="142.05" x2="215.6" y2="142.05"/><line class="cls-9" x1="217.7" y1="142.05" x2="221.7" y2="142.05"/><polygon class="cls-11" points="220.6 145.78 227.08 142.04 220.6 138.31 220.6 145.78"/></g><g id="txt"><text class="cls-17" transform="translate(112.76 172.69)">Azu<tspan class="cls-18" x="21.45" y="0">r</tspan><tspan x="26.17" y="0">e L</tspan><tspan class="cls-19" x="42.11" y="0">o</tspan><tspan x="49.33" y="0">ad </tspan><tspan x="7.46" y="13.2">Balancer</tspan></text><text class="cls-20" transform="translate(133.17 21.88)">부하 분산 장치 규칙</text><text class="cls-21" transform="translate(257.29 67.27)">백 엔드: 포트 80</text><text class="cls-21" transform="translate(257.29 143.94)">백 엔드: 포트 80</text><text class="cls-22" transform="translate(8.06 143.94)">프런트 엔드: 포트 80</text><text class="cls-21" transform="translate(257.29 224.84)">백 엔드: 포트 80</text></g></svg>