<?xml version="1.0" encoding="utf-8"?>
<!-- Generator: Adobe Illustrator 22.1.0, SVG Export Plug-In . SVG Version: 6.00 Build 0)  -->
<svg version="1.1" xmlns="http://www.w3.org/2000/svg" xmlns:xlink="http://www.w3.org/1999/xlink" x="0px" y="0px"
	 viewBox="0 0 660 165.7" style="enable-background:new 0 0 660 165.7;" xml:space="preserve">
<style type="text/css">
	.st0{fill:#FFFFFF;}
	.st1{fill:#EBEBEB;}
	.st2{fill:#0072C6;}
	.st3{fill:#008575;}
	.st4{fill:none;stroke:#000000;stroke-miterlimit:10;}
	.st5{fill:#EBEBEB;stroke:#000000;stroke-width:0.75;stroke-miterlimit:10;}
	.st6{fill:#1E1E1E;}
	.st7{fill:#505050;}
	.st8{fill:none;}
	.st9{display:none;}
	.st10{display:inline;}
</style>
<symbol  id="New_Symbol_41" viewBox="-10 -10 20 20">
</symbol>
<symbol  id="New_Symbol_42" viewBox="-10 -10 20 20">
</symbol>
<symbol  id="New_Symbol_43" viewBox="-10 -10 20 20">
</symbol>
<symbol  id="New_Symbol_44" viewBox="-10 -10 20 20">
</symbol>
<symbol  id="New_Symbol_45" viewBox="-10 -10 20 20">
</symbol>
<symbol  id="New_Symbol_46" viewBox="-10 -10 20 20">
</symbol>
<symbol  id="New_Symbol_47" viewBox="-10 -10 20 20">
</symbol>
<g id="shapes">
	<rect y="0" class="st0" width="660" height="165.7"/>
	<rect y="6.7" class="st1" width="105" height="155"/>
	<rect x="555" y="5.7" class="st2" width="105" height="156"/>
	<rect x="330" y="6.2" class="st3" width="105" height="69.4"/>
	<g>
		<line class="st4" x1="104.6" y1="21.2" x2="324.6" y2="21.2"/>
		<polygon points="323.5,25 330,21.2 323.5,17.5 		"/>
	</g>
	<g>
		<line class="st4" x1="104.6" y1="70.7" x2="324.6" y2="70.7"/>
		<polygon points="323.5,74.4 330,70.7 323.5,66.9 		"/>
	</g>
	<g>
		<line class="st4" x1="435" y1="70.7" x2="549.6" y2="70.7"/>
		<polygon points="548.5,74.4 555,70.7 548.5,66.9 		"/>
	</g>
	<g>
		<line class="st4" x1="440.4" y1="21.2" x2="555" y2="21.2"/>
		<polygon points="441.5,25 435,21.2 441.5,17.5 		"/>
	</g>
	<g>
		<line class="st4" x1="110" y1="51.1" x2="330" y2="51.1"/>
		<polygon points="111.1,54.8 104.6,51.1 111.1,47.4 		"/>
	</g>
	<g>
		<line class="st4" x1="104.6" y1="121.7" x2="549.6" y2="121.7"/>
		<polygon points="548.5,125.4 555,121.7 548.5,118 		"/>
	</g>
	<g>
		<line class="st4" x1="110" y1="155.7" x2="555" y2="155.7"/>
		<polygon points="111.1,159.5 104.6,155.7 111.1,152 		"/>
	</g>
	<path d="M80.2,44.5c-6.6-8.6-16.9-13.7-27.7-13.7c-7.7,0-15.2,2.6-21.3,7.2c-15.3,11.7-18.2,33.7-6.5,49
		c6.6,8.6,16.9,13.7,27.7,13.7c7.7,0,15.2-2.5,21.3-7.2C89.1,81.9,92,60,80.4,44.7C80.3,44.6,80.3,44.6,80.2,44.5z M81.9,73.7
		c-1.2-0.9-3-2.3-5.3-4.1c0.8-2.1,0.5-4.5-0.8-6.4c-2.1-2.6-5.7-3.2-8.6-1.5c-3.1-2.7-6.4-5.9-10-9.4C68,46.3,75.9,47,76.4,47.1
		l0.3,0.4C82.4,54.9,84.3,64.6,81.9,73.7z M62.7,81.9c-0.2-0.9-0.6-1.7-1.1-2.4c-1.9-2.5-5.4-3.1-8-1.4c-2.9-1.6-5.6-3.4-8.2-5.4
		l-0.7-0.6c1.2-3,0.7-6.4-1.3-9c0-0.1-0.1-0.1-0.2-0.2c0.6-0.6,1.2-1.3,1.9-1.9c2.5-2.4,5.1-4.5,8-6.5l0,0h0.1l-0.1,0.1
		c3.8,3.5,7.8,6.8,11.6,9.8c-1,2.2-0.8,4.7,0.6,6.7c2.2,2.9,6.3,3.4,9.2,1.3c0.1-0.1,0.3-0.3,0.4-0.4c2.7,1.9,4.9,3.4,6.1,4.2
		c-0.9,2.4-2,4.6-3.4,6.7C75.6,83.4,70.1,84.1,62.7,81.9z M72.1,42.6c-7-1-14.1,0.4-20.3,3.8c-2.7-2.9-5.7-6.2-8.6-9.5
		C53.1,33.7,64.1,35.8,72.1,42.6z M34,41.7c1.6-1.2,3.3-2.3,5.1-3.2c2.4,3.8,5.1,7.2,8.2,10.4c-3.1,2.1-5.9,4.6-8.4,7.3
		c-1,1.1-1.9,2.2-2.8,3.3c-1.5,0-3,0.3-4.3,1c-2.4-4-3.6-8.7-3.4-13.4C30.1,45.1,31.9,43.3,34,41.7z M24.9,53c-0.1,4,1,8,3,11.4
		c-1.7,3.2-1.4,7.1,0.8,10l0,0c-0.7,2.8-1.2,5.7-1.4,8.6C21.3,74.2,20.3,62.7,24.9,53z M52.5,96.3c-7.1,0-14-2.5-19.5-7.1
		c0-3.8,0.5-7.6,1.5-11.3c2.4,0.4,4.9-0.1,6.9-1.5l0.8,0.6c2.7,2.1,5.6,4,8.7,5.5C50.6,84.1,51,85.7,52,87c2.1,2.6,5.9,3.1,8.5,1.1
		c0.6-0.5,1.1-1,1.5-1.6c3.9,0.8,7.8,1.2,11.7,1.2C72.9,88.5,72,89.3,71,90C65.7,94.1,59.2,96.3,52.5,96.3z"/>
	<polygon class="st5" points="482.2,0.5 474.6,5.9 477.5,14.7 486.9,14.7 489.8,5.9 	"/>
	<g>
		<path class="st6" d="M161,15.7h-1v-3.4c0-1.3-0.5-1.9-1.4-1.9c-0.5,0-0.9,0.2-1.2,0.5c-0.3,0.4-0.5,0.9-0.5,1.4v3.4h-1V6.8h1v3.9
			l0,0c0.4-0.7,1.2-1.2,2-1.1c1.4,0,2,0.8,2,2.4L161,15.7z"/>
		<path class="st6" d="M165.4,15.6c-0.3,0.1-0.6,0.2-0.9,0.2c-1.1,0-1.6-0.6-1.6-1.8v-3.6h-1V9.7h1V8.2l1-0.3v1.8h1.5v0.8H164v3.4
			c0,0.3,0,0.6,0.2,0.9c0.2,0.2,0.4,0.3,0.7,0.3c0.2,0,0.4-0.1,0.6-0.2L165.4,15.6z"/>
		<path class="st6" d="M169.8,15.6c-0.3,0.1-0.6,0.2-0.9,0.2c-1.1,0-1.6-0.6-1.6-1.8v-3.6h-1V9.7h1V8.2l1-0.3v1.8h1.5v0.8h-1.5v3.4
			c0,0.3,0,0.6,0.2,0.9c0.2,0.2,0.4,0.3,0.7,0.3c0.2,0,0.4-0.1,0.6-0.2L169.8,15.6z"/>
		<path class="st6" d="M172,14.8L172,14.8v3.6h-1V9.7h1v1.1l0,0c0.4-0.7,1.2-1.2,2-1.2c0.7,0,1.4,0.3,1.8,0.8
			c0.5,0.6,0.7,1.4,0.6,2.2c0,0.9-0.2,1.7-0.7,2.4c-0.5,0.6-1.2,0.9-2,0.9C173,15.8,172.4,15.4,172,14.8z M172,12.4v0.8
			c0,0.5,0.2,0.9,0.5,1.3c0.7,0.7,1.8,0.7,2.4,0c0.1-0.1,0.1-0.1,0.2-0.2c0.4-0.6,0.5-1.2,0.5-1.9c0-0.6-0.1-1.1-0.5-1.6
			c-0.3-0.4-0.8-0.6-1.3-0.6c-0.5,0-1,0.2-1.3,0.6C172.2,11.3,172,11.8,172,12.4z"/>
		<path class="st6" d="M177.6,15.5v-1c0.5,0.4,1.1,0.6,1.7,0.6c0.8,0,1.3-0.3,1.3-0.9c0-0.1,0-0.3-0.1-0.4c-0.1-0.1-0.2-0.2-0.3-0.3
			c-0.1-0.1-0.3-0.2-0.4-0.2l-0.5-0.2c-0.2-0.1-0.5-0.2-0.7-0.3c-0.2-0.1-0.4-0.2-0.5-0.4c-0.1-0.1-0.2-0.3-0.3-0.5
			c-0.1-0.2-0.1-0.4-0.1-0.6c0-0.3,0.1-0.5,0.2-0.8c0.1-0.2,0.3-0.4,0.5-0.5c0.2-0.2,0.5-0.3,0.7-0.3c0.7-0.2,1.5-0.1,2.2,0.2v1
			c-0.5-0.3-1-0.4-1.5-0.4c-0.2,0-0.3,0-0.5,0.1c-0.1,0-0.3,0.1-0.4,0.2c-0.1,0.1-0.2,0.2-0.2,0.3c-0.1,0.1-0.1,0.2-0.1,0.4
			c0,0.3,0.1,0.5,0.3,0.7c0.1,0.1,0.3,0.2,0.4,0.2l0.5,0.2c0.2,0.1,0.5,0.2,0.7,0.3c0.2,0.1,0.4,0.2,0.5,0.4
			c0.1,0.1,0.3,0.3,0.3,0.5c0.1,0.2,0.1,0.4,0.1,0.6c0,0.3-0.1,0.5-0.2,0.8c-0.1,0.2-0.3,0.4-0.5,0.6c-0.2,0.1-0.5,0.3-0.8,0.3
			c-0.3,0.1-0.6,0.1-0.9,0.1C178.7,15.9,178.1,15.7,177.6,15.5z"/>
		<path class="st6" d="M183.3,10.8c-0.2,0-0.3-0.1-0.5-0.2c-0.3-0.3-0.3-0.7,0-0.9c0,0,0,0,0,0c0.1-0.1,0.3-0.2,0.5-0.2
			c0.2,0,0.3,0.1,0.5,0.2c0.3,0.3,0.3,0.7,0,0.9c0,0,0,0,0,0C183.6,10.8,183.5,10.8,183.3,10.8z M183.3,15.8c-0.2,0-0.3-0.1-0.5-0.2
			c-0.1-0.1-0.2-0.3-0.2-0.5c0-0.2,0.1-0.3,0.2-0.5c0.1-0.1,0.3-0.2,0.5-0.2c0.2,0,0.3,0.1,0.5,0.2c0.1,0.1,0.2,0.3,0.2,0.5
			c0,0.2-0.1,0.3-0.2,0.5C183.6,15.7,183.5,15.8,183.3,15.8z"/>
		<path class="st6" d="M189.3,7.3l-4,9.8h-0.9l4-9.8L189.3,7.3z"/>
		<path class="st6" d="M193,7.3l-4,9.8h-0.9l4-9.8L193,7.3z"/>
		<path class="st6" d="M198.8,9.7l-2.8,7c-0.5,1.3-1.2,1.9-2.1,1.9c-0.2,0-0.4,0-0.6-0.1v-0.9c0.2,0.1,0.4,0.1,0.6,0.1
			c0.5,0,1-0.4,1.1-0.9l0.5-1.1l-2.4-6h1.1l1.6,4.6c0,0.1,0.1,0.2,0.1,0.5l0,0c0-0.1,0.1-0.2,0.1-0.4l1.7-4.6L198.8,9.7z"/>
		<path class="st6" d="M202.1,15.8c-0.8,0.1-1.6-0.2-2.1-0.8c-0.5-0.6-0.8-1.4-0.8-2.2c0-0.9,0.3-1.7,0.8-2.4
			c0.6-0.6,1.4-0.9,2.2-0.9c0.8,0,1.5,0.3,2.1,0.8c0.5,0.6,0.8,1.5,0.8,2.3c0,0.8-0.3,1.7-0.8,2.3C203.7,15.6,202.9,15.8,202.1,15.8
			z M202.2,10.3c-0.6,0-1.1,0.2-1.5,0.6c-0.4,0.5-0.6,1.1-0.5,1.7c0,0.6,0.2,1.2,0.6,1.7c0.4,0.4,0.9,0.6,1.5,0.6
			c0.5,0,1.1-0.2,1.4-0.6c0.4-0.5,0.5-1.1,0.5-1.7c0-0.6-0.1-1.2-0.5-1.7C203.3,10.5,202.8,10.3,202.2,10.3z"/>
		<path class="st6" d="M211.5,15.7h-1v-0.9l0,0c-0.4,0.7-1.1,1.1-1.9,1.1c-1.4,0-2.1-0.9-2.1-2.6V9.7h1v3.4c0,1.3,0.5,1.9,1.4,1.9
			c0.4,0,0.9-0.2,1.2-0.5c0.3-0.4,0.5-0.9,0.5-1.4V9.7h1L211.5,15.7z"/>
		<path class="st6" d="M216.4,10.6c-0.2-0.1-0.5-0.2-0.7-0.2c-0.4,0-0.8,0.2-1,0.6c-0.3,0.5-0.4,1-0.4,1.6v3.1h-1v-6h1v1.2l0,0
			c0.1-0.4,0.3-0.7,0.6-1c0.3-0.2,0.6-0.4,1-0.4c0.2,0,0.4,0,0.6,0.1L216.4,10.6z"/>
		<path class="st6" d="M217.3,15.5v-1c0.5,0.4,1.1,0.6,1.7,0.6c0.8,0,1.3-0.3,1.3-0.9c0-0.1,0-0.3-0.1-0.4c-0.1-0.1-0.2-0.2-0.3-0.3
			c-0.1-0.1-0.3-0.2-0.4-0.2l-0.5-0.2c-0.2-0.1-0.5-0.2-0.7-0.3c-0.2-0.1-0.4-0.2-0.5-0.4c-0.1-0.1-0.2-0.3-0.3-0.5
			c-0.1-0.2-0.1-0.4-0.1-0.6c0-0.3,0.1-0.5,0.2-0.8c0.1-0.2,0.3-0.4,0.5-0.5c0.2-0.2,0.5-0.3,0.7-0.3c0.3-0.1,0.6-0.1,0.9-0.1
			c0.5,0,1,0.1,1.4,0.3v1c-0.5-0.3-1-0.4-1.5-0.4c-0.2,0-0.3,0-0.5,0.1c-0.1,0-0.3,0.1-0.4,0.2c-0.1,0.1-0.2,0.2-0.2,0.3
			c-0.1,0.1-0.1,0.2-0.1,0.4c0,0.1,0,0.3,0.1,0.4c0.1,0.1,0.1,0.2,0.3,0.3c0.1,0.1,0.3,0.2,0.4,0.2l0.5,0.2c0.2,0.1,0.5,0.2,0.7,0.3
			c0.2,0.1,0.4,0.2,0.5,0.4c0.1,0.1,0.3,0.3,0.4,0.5c0.1,0.2,0.1,0.4,0.1,0.6c0,0.3-0.1,0.5-0.2,0.8c-0.1,0.2-0.3,0.4-0.5,0.6
			c-0.2,0.1-0.5,0.3-0.8,0.3c-0.3,0.1-0.6,0.1-0.9,0.1C218.3,15.9,217.8,15.7,217.3,15.5z"/>
		<path class="st6" d="M223.1,8.1c-0.2,0-0.3-0.1-0.4-0.2c-0.1-0.1-0.2-0.3-0.2-0.4c0-0.2,0.1-0.3,0.2-0.4c0.1-0.1,0.3-0.2,0.4-0.2
			c0.2,0,0.3,0.1,0.4,0.2c0.1,0.1,0.2,0.3,0.2,0.4c0,0.2-0.1,0.3-0.2,0.4C223.5,8.1,223.3,8.1,223.1,8.1z M223.6,15.7h-1v-6h1V15.7z
			"/>
		<path class="st6" d="M228.3,15.6c-0.3,0.1-0.6,0.2-0.9,0.2c-1,0-1.6-0.6-1.6-1.8v-3.6h-1V9.7h1V8.2l1-0.3v1.8h1.5v0.8h-1.5v3.4
			c0,0.3,0,0.6,0.2,0.9c0.2,0.2,0.4,0.3,0.7,0.3c0.2,0,0.4-0.1,0.6-0.2L228.3,15.6z"/>
		<path class="st6" d="M234.3,12.9H230c0,0.6,0.2,1.1,0.5,1.6c0.4,0.4,0.9,0.6,1.5,0.6c0.7,0,1.3-0.2,1.9-0.7v0.9
			c-0.6,0.4-1.4,0.6-2.1,0.6c-0.8,0-1.5-0.3-2-0.8c-0.5-0.7-0.8-1.5-0.7-2.3c0-0.8,0.2-1.7,0.8-2.3c0.5-0.6,1.2-0.9,2-0.9
			c0.7,0,1.4,0.2,1.8,0.8c0.5,0.6,0.7,1.4,0.6,2.1L234.3,12.9z M233.3,12.1c0-0.5-0.1-0.9-0.4-1.3c-0.3-0.3-0.7-0.5-1.1-0.5
			c-0.4,0-0.9,0.2-1.2,0.5c-0.3,0.3-0.5,0.8-0.6,1.3L233.3,12.1z"/>
		<path class="st6" d="M236,15.8c-0.2,0-0.3-0.1-0.5-0.2c-0.1-0.1-0.2-0.3-0.2-0.5c0-0.2,0.1-0.3,0.2-0.5c0.2-0.3,0.6-0.3,0.9,0
			c0,0,0,0,0,0c0.1,0.1,0.2,0.3,0.2,0.5C236.7,15.5,236.4,15.8,236,15.8L236,15.8z"/>
		<path class="st6" d="M242.2,15.4c-0.5,0.3-1.1,0.4-1.6,0.4c-0.8,0-1.5-0.3-2.1-0.8c-0.5-0.6-0.8-1.4-0.8-2.2
			c0-0.9,0.3-1.7,0.9-2.4c0.6-0.6,1.4-0.9,2.3-0.9c0.5,0,1,0.1,1.4,0.3v1c-0.4-0.3-0.9-0.5-1.4-0.5c-0.6,0-1.1,0.2-1.5,0.7
			c-0.4,0.5-0.6,1.1-0.6,1.7c0,0.6,0.2,1.2,0.6,1.7c0.4,0.4,0.9,0.6,1.5,0.6c0.5,0,1.1-0.2,1.5-0.5L242.2,15.4z"/>
		<path class="st6" d="M246,15.8c-0.8,0-1.6-0.3-2.1-0.8c-0.6-0.6-0.8-1.4-0.8-2.2c0-0.9,0.3-1.7,0.8-2.4c0.6-0.6,1.4-0.9,2.2-0.9
			c0.8,0,1.6,0.3,2.1,0.8c0.5,0.6,0.8,1.5,0.8,2.3c0,0.8-0.2,1.7-0.8,2.3C247.6,15.5,246.8,15.8,246,15.8z M246.1,10.3
			c-0.6,0-1.1,0.2-1.5,0.6c-0.4,0.5-0.6,1.1-0.5,1.7c0,0.6,0.2,1.2,0.5,1.7c0.4,0.4,0.9,0.6,1.5,0.6c0.5,0,1.1-0.2,1.4-0.6
			c0.4-0.5,0.5-1.1,0.5-1.7c0-0.6-0.1-1.2-0.5-1.7C247.1,10.5,246.6,10.3,246.1,10.3L246.1,10.3z"/>
		<path class="st6" d="M259,15.7h-1v-3.4c0-0.5-0.1-1-0.3-1.4c-0.2-0.3-0.6-0.5-1-0.4c-0.4,0-0.8,0.2-1,0.6
			c-0.3,0.4-0.4,0.9-0.4,1.4v3.4h-1v-3.6c0-1.2-0.5-1.8-1.4-1.8c-0.4,0-0.8,0.2-1,0.5c-0.3,0.4-0.4,0.9-0.4,1.4v3.4h-1v-6h1v0.9l0,0
			c0.4-0.7,1.1-1.1,1.9-1.1c0.8,0,1.5,0.5,1.7,1.2c0.4-0.8,1.1-1.3,2-1.2c1.3,0,2,0.8,2,2.4L259,15.7z"/>
	</g>
	<g>
		<circle class="st7" cx="138.6" cy="20.6" r="9.8"/>
		<g>
			<path class="st0" d="M140.2,16.3V25h-1.4v-7c-0.3,0.2-0.5,0.3-0.8,0.5c-0.3,0.1-0.6,0.2-1,0.3v-1.2c0.2-0.1,0.5-0.2,0.7-0.2
				c0.2-0.1,0.4-0.2,0.6-0.3c0.2-0.1,0.4-0.2,0.6-0.3c0.2-0.1,0.4-0.3,0.7-0.4H140.2z"/>
		</g>
	</g>
	<g>
		<circle class="st7" cx="139" cy="50.1" r="9.8"/>
		<g>
			<path class="st0" d="M141.7,54.5h-5.4v-0.7c0-0.3,0-0.5,0.1-0.8c0.1-0.2,0.2-0.5,0.3-0.7c0.1-0.2,0.3-0.4,0.4-0.6
				c0.2-0.2,0.4-0.4,0.5-0.5c0.2-0.2,0.4-0.3,0.6-0.5c0.2-0.2,0.4-0.3,0.6-0.5c0.2-0.2,0.3-0.3,0.5-0.5s0.3-0.3,0.4-0.5
				c0.1-0.2,0.2-0.3,0.3-0.5s0.1-0.4,0.1-0.6c0-0.2,0-0.4-0.1-0.6c-0.1-0.2-0.2-0.3-0.3-0.4s-0.3-0.2-0.4-0.3S139,47,138.7,47
				c-0.3,0-0.7,0.1-1.1,0.2c-0.4,0.2-0.7,0.4-1,0.7v-1.3c0.2-0.1,0.4-0.2,0.5-0.3s0.4-0.2,0.6-0.2c0.2-0.1,0.4-0.1,0.6-0.1
				s0.4,0,0.7,0c0.4,0,0.7,0.1,1,0.2c0.3,0.1,0.6,0.3,0.8,0.4c0.2,0.2,0.4,0.4,0.5,0.7s0.2,0.6,0.2,1c0,0.3,0,0.7-0.1,0.9
				c-0.1,0.3-0.2,0.5-0.4,0.8c-0.2,0.2-0.3,0.5-0.6,0.7c-0.2,0.2-0.5,0.4-0.7,0.7c-0.2,0.2-0.5,0.4-0.7,0.5
				c-0.2,0.2-0.4,0.3-0.6,0.5s-0.3,0.3-0.4,0.5s-0.2,0.3-0.2,0.5v0h3.9V54.5z"/>
		</g>
	</g>
	<g>
		<circle class="st7" cx="139" cy="155.9" r="9.8"/>
		<g>
			<path class="st0" d="M141,151.8v5.5h1.3v1.1H141v1.9h-1.3v-1.9h-3.9v-1.2c0.3-0.4,0.7-0.8,1.1-1.3c0.4-0.5,0.7-0.9,1.1-1.4
				c0.3-0.5,0.7-1,0.9-1.4c0.3-0.5,0.5-0.9,0.7-1.4H141z M139.6,157.3v-3.6c-0.4,0.8-0.9,1.5-1.3,2c-0.4,0.6-0.8,1.1-1.2,1.5H139.6z
				"/>
		</g>
	</g>
	<g>
		<circle class="st7" cx="227.6" cy="70.7" r="9.8"/>
		<g>
			<path class="st0" d="M225,74.9v-1.3c0.6,0.4,1.1,0.6,1.7,0.6c0.6,0,1-0.1,1.4-0.4s0.5-0.7,0.5-1.2c0-0.5-0.2-0.9-0.5-1.1
				s-0.9-0.4-1.5-0.4c-0.2,0-0.7,0-1.4,0.1l0.3-4.5h4.2v1.2h-3.1l-0.1,2.1c0.3,0,0.5,0,0.7,0c0.9,0,1.6,0.2,2.1,0.7
				c0.5,0.5,0.7,1.1,0.7,1.9c0,0.8-0.3,1.5-0.8,2c-0.6,0.5-1.3,0.8-2.3,0.8C226.1,75.2,225.4,75.1,225,74.9z"/>
		</g>
	</g>
	<g>
		<circle class="st7" cx="462.6" cy="70.7" r="9.8"/>
		<g>
			<path class="st0" d="M465.5,72.3c0,0.4-0.1,0.8-0.2,1.2s-0.3,0.7-0.6,0.9c-0.3,0.3-0.5,0.5-0.9,0.6c-0.3,0.1-0.7,0.2-1.1,0.2
				c-0.4,0-0.8-0.1-1.2-0.3c-0.4-0.2-0.7-0.4-0.9-0.7s-0.5-0.7-0.6-1.2c-0.1-0.5-0.2-1.1-0.2-1.7c0-0.8,0.1-1.5,0.3-2.1
				c0.2-0.6,0.4-1.1,0.8-1.5s0.7-0.7,1.2-0.9s0.9-0.3,1.4-0.3c0.3,0,0.6,0,0.9,0.1c0.3,0,0.5,0.1,0.6,0.2v1.2
				c-0.2-0.1-0.4-0.2-0.6-0.3c-0.2-0.1-0.5-0.1-0.8-0.1c-0.3,0-0.6,0.1-0.9,0.2c-0.3,0.1-0.5,0.3-0.7,0.6c-0.2,0.3-0.4,0.6-0.5,1
				s-0.2,0.8-0.2,1.3h0c0.2-0.3,0.4-0.5,0.7-0.7c0.3-0.2,0.7-0.2,1.1-0.2c0.4,0,0.7,0.1,1,0.2s0.6,0.3,0.8,0.5
				c0.2,0.2,0.4,0.5,0.5,0.8S465.5,71.9,465.5,72.3z M464.1,72.5c0-0.2,0-0.5-0.1-0.7s-0.1-0.4-0.3-0.5c-0.1-0.1-0.3-0.3-0.4-0.3
				c-0.2-0.1-0.4-0.1-0.6-0.1s-0.4,0-0.6,0.1c-0.2,0.1-0.3,0.2-0.5,0.3s-0.2,0.3-0.3,0.5s-0.1,0.4-0.1,0.5c0,0.2,0,0.4,0.1,0.6
				s0.1,0.4,0.3,0.6s0.3,0.3,0.5,0.4s0.4,0.2,0.7,0.2c0.2,0,0.4,0,0.6-0.1c0.2-0.1,0.3-0.2,0.4-0.3s0.2-0.3,0.3-0.5
				C464.1,72.9,464.1,72.7,464.1,72.5z"/>
		</g>
	</g>
	<g>
		<circle class="st7" cx="462.6" cy="20.6" r="9.8"/>
		<g>
			<path class="st0" d="M465.5,17.2c-0.4,0.7-0.7,1.3-1,1.9c-0.3,0.6-0.6,1.3-0.9,1.9c-0.3,0.6-0.5,1.3-0.7,2s-0.3,1.3-0.4,2h-1.4
				c0.1-0.6,0.2-1.2,0.4-1.8c0.2-0.6,0.4-1.2,0.6-1.8s0.5-1.2,0.8-1.8s0.6-1.2,0.9-1.9h-4v-1.2h5.7V17.2z"/>
		</g>
	</g>
	<g>
		<circle class="st7" cx="139" cy="121.1" r="9.8"/>
		<g>
			<path class="st0" d="M136.4,125.2v-1.3c0.6,0.4,1.2,0.7,1.9,0.7c0.6,0,1-0.1,1.4-0.4c0.3-0.3,0.5-0.6,0.5-1c0-1-0.7-1.5-2.2-1.5
				h-0.7v-1.1h0.6c1.3,0,2-0.5,2-1.4c0-0.8-0.5-1.3-1.5-1.3c-0.6,0-1.1,0.2-1.6,0.6v-1.2c0.6-0.3,1.3-0.5,2.1-0.5
				c0.8,0,1.4,0.2,1.8,0.6c0.5,0.4,0.7,0.9,0.7,1.5c0,1.1-0.6,1.8-1.7,2.2v0c0.6,0.1,1.1,0.3,1.5,0.6c0.4,0.4,0.5,0.8,0.5,1.4
				c0,0.8-0.3,1.4-0.9,1.9s-1.3,0.7-2.3,0.7C137.6,125.7,136.9,125.5,136.4,125.2z"/>
		</g>
	</g>
</g>
<g id="text">
	<g>
		<path class="st6" d="M156.7,45.5V41h4.3v-2.6h-4.3v-0.8h5.2v4.1h-4.3v2.9c2.8,0,4.6-0.1,5.4-0.2l0.1,0.8
			C162.2,45.4,160,45.5,156.7,45.5z M164.3,47.9V36.6h0.9v11.3H164.3z"/>
		<path class="st6" d="M175.1,44.7c-0.6,0.1-1.3,0.1-2.1,0.1s-2.1,0-4,0v-7.2h5.4v0.8h-4.6v5.7c2.8,0,4.5,0,5.1-0.1L175.1,44.7z
			 M176.4,47.9V36.6h0.9v11.3H176.4z"/>
		<path class="st6" d="M185.2,42.5c-0.6,0.1-1.2,0.1-1.6,0.1s-1.4,0-2.9,0v-3.2h3.1v-1.6h-3.1v-0.8h3.9v3.1h-3.1v1.7h0.9
			c1.2,0,2.1,0,2.7-0.1L185.2,42.5z M188.6,47.9v-3.3H182v-0.8h7.4v4.1H188.6z M186.7,43.2v-2.9h-1.5v-0.8h1.5v-2.7h0.9v6.4H186.7z
			 M188.6,43.2v-6.6h0.9v6.6H188.6z"/>
		<path class="st6" d="M198,43c-0.6-0.3-1.1-0.8-1.6-1.3s-0.9-1-1.1-1.5c-0.2,0.5-0.6,1.1-1.1,1.7s-1.1,1.1-1.6,1.4l-0.6-0.6
			c0.8-0.4,1.5-1,2-1.8s0.8-1.6,0.8-2.4V37h0.9v1.5c0,0.8,0.3,1.5,0.9,2.3s1.2,1.3,2,1.6L198,43z M194.2,47.5v-3.6h0.9v2.8h6.4v0.8
			H194.2z M198.1,41.1v-0.8h2.2v-1.3h-2.2v-0.8h2.2v-1.7h0.9v8.3h-0.9v-3.8H198.1z"/>
	</g>
	<g>
		<rect x="241.4" y="75.5" class="st8" width="73.2" height="26.3"/>
		<path class="st6" d="M246,81.9c-0.8,0-1.5-0.3-2.1-0.8s-0.8-1.2-0.8-2.1c0-0.9,0.3-1.5,0.8-2.1s1.3-0.8,2.1-0.8s1.6,0.3,2.1,0.8
			s0.8,1.2,0.8,2.1c0,0.8-0.3,1.5-0.8,2.1S246.9,81.9,246,81.9z M246,77c-0.6,0-1.1,0.2-1.5,0.6s-0.6,0.9-0.6,1.5s0.2,1.1,0.6,1.5
			s0.9,0.6,1.5,0.6s1.1-0.2,1.5-0.6s0.6-0.9,0.6-1.5s-0.2-1.1-0.6-1.5S246.6,77,246,77z M244.5,86.6V83h0.9v2.9h6.6v0.8H244.5z
			 M250.7,84v-8.3h0.9V84H250.7z"/>
		<path class="st6" d="M254.1,81.6v-0.8h10.5v0.8H254.1z M263.6,79.9c-0.9-0.1-1.8-0.4-2.6-0.8s-1.4-0.9-1.7-1.3
			c-0.3,0.4-0.9,0.9-1.7,1.3s-1.6,0.7-2.5,0.8l-0.5-0.7c1-0.1,1.9-0.3,2.7-0.8s1.3-1,1.5-1.5h-3.6v-0.8h8.2v0.8h-3.6
			c0.2,0.5,0.7,1,1.5,1.5s1.7,0.7,2.7,0.8L263.6,79.9z M259.4,86.9c-1.2,0-2.1-0.2-2.7-0.6s-0.9-0.9-0.9-1.6c0-0.6,0.3-1.2,0.9-1.5
			s1.5-0.6,2.7-0.6s2.1,0.2,2.7,0.6s0.9,0.9,0.9,1.5c0,0.7-0.3,1.2-0.9,1.6S260.6,86.9,259.4,86.9z M259.4,83.5
			c-0.9,0-1.6,0.1-2,0.4s-0.7,0.6-0.7,1c0,0.4,0.2,0.8,0.7,1s1.1,0.4,2,0.4c0.9,0,1.6-0.1,2-0.4s0.7-0.6,0.7-1c0-0.4-0.2-0.8-0.7-1
			S260.3,83.5,259.4,83.5z"/>
		<path class="st6" d="M270.3,85.2v-0.8h4.2v-2.8h0.9v2.8h5.4v0.8H270.3z M278.9,83.2l-0.8-0.1c0.1-1,0.2-2,0.2-2.8l-6.9,0.5
			l-0.2-0.8l7.1-0.4l0-2h-6.6v-0.8h7.5v2.6C279.1,80.9,279.1,82.1,278.9,83.2z"/>
		<path class="st6" d="M282.2,85.1v-0.8h10.5v0.8H282.2z M290.9,77.6h-6.1v3.5h6.2v0.8H284v-5.1h6.9V77.6z"/>
	</g>
	<g>
		<g>
			<path class="st6" d="M24.7,118.5v-1.8l-2.2,0.1l-0.2-1.1c2.8,0,4.7-0.1,5.8-0.2l0.1,1.1l-2.2,0.1v1.8H24.7z M25.3,115.1
				c-0.7,0-1.3-0.2-1.8-0.5s-0.7-0.7-0.7-1.3c0-0.5,0.2-0.9,0.7-1.2s1-0.5,1.7-0.5c0.7,0,1.3,0.2,1.8,0.5s0.7,0.7,0.7,1.3
				c0,0.5-0.2,0.9-0.7,1.2S26,115.1,25.3,115.1z M25.3,112.7c-0.3,0-0.6,0.1-0.8,0.2s-0.3,0.3-0.3,0.5c0,0.2,0.1,0.4,0.3,0.5
				s0.5,0.2,0.8,0.2s0.6-0.1,0.8-0.2s0.3-0.3,0.3-0.5C26.4,112.9,26,112.7,25.3,112.7z M24.6,122.5v-3.7h1.5v0.7h4.7v-0.7h1.5v3.7
				H24.6z M30.8,120.7h-4.7v0.6h4.7V120.7z M28.6,118.5v-0.4h-1.7v-1h1.7v-5.5h1.4v6.9H28.6z M30.8,118.5v-7.1h1.5v7.1H30.8z"/>
			<path class="st6" d="M38.7,121v-1.2h10.5v1.2H38.7z M40.3,117.8v-5.6h1.5v1.7h4.4v-1.7h1.5v5.6H40.3z M46.2,115.2h-4.4v1.5h4.4
				V115.2z"/>
			<path class="st6" d="M57.8,119.8c-1.1,0.2-3.3,0.3-6.5,0.3v-4.7h3.9v-1.9h-3.9v-1.2h5.3v4.4h-3.9v2.3c2.3,0,3.9-0.1,4.8-0.3
				L57.8,119.8z M59.8,116.9v5.7h-1.5v-11.3h1.5v4.3h1.8v1.2H59.8z"/>
			<path class="st6" d="M68.7,118.8v3.8h-1.5v-3.8h-4.5v-1.2h10.5v1.2H68.7z M68,116.7c-1.2,0-2.1-0.2-2.8-0.7s-1-1.1-1-1.9
				c0-0.8,0.3-1.4,1-1.8s1.6-0.7,2.7-0.7c1.2,0,2.1,0.2,2.8,0.7s1,1.1,1,1.9c0,0.8-0.3,1.4-1,1.9S69.2,116.7,68,116.7z M68,112.7
				c-0.7,0-1.3,0.1-1.7,0.4s-0.6,0.6-0.6,1c0,0.4,0.2,0.8,0.6,1s0.9,0.4,1.7,0.4c0.7,0,1.3-0.1,1.7-0.4s0.6-0.6,0.6-1
				s-0.2-0.8-0.6-1S68.7,112.7,68,112.7z"/>
			<path class="st6" d="M80.7,119.9c-1.1-0.8-2-1.7-2.5-2.7c-0.8,1.3-1.6,2.3-2.5,2.9l-1.1-0.9c0.7-0.4,1.4-1,2-1.8s0.9-1.7,0.9-2.5
				v-1.2h-2.4v-1.2h6.3v1.2h-2.4v1.2c0,0.8,0.3,1.6,0.9,2.4s1.2,1.3,1.9,1.7L80.7,119.9z M83,122.7v-6.3h-2.3v-1.2H83v-3.8h1.4v11.3
				H83z"/>
		</g>
	</g>
	<g>
		<rect x="347.5" y="27.2" class="st8" width="73" height="43.5"/>
		<path class="st0" d="M368.1,34.6c0,1.1-0.3,2-0.8,2.6s-1.3,0.9-2.3,0.9c-0.4,0-0.8-0.1-1.2-0.2V36c0.3,0.2,0.7,0.4,1.1,0.4
			c0.9,0,1.3-0.6,1.3-1.9v-5h1.9V34.6z"/>
		<path class="st0" d="M374.7,37.9h-1.8V37h0c-0.4,0.7-1,1-1.8,1c-0.6,0-1-0.2-1.4-0.5s-0.5-0.8-0.5-1.3c0-1.2,0.7-1.8,2.1-2
			l1.6-0.2c0-0.7-0.4-1-1.1-1c-0.7,0-1.4,0.2-2,0.6v-1.4c0.3-0.1,0.6-0.3,1.1-0.4c0.4-0.1,0.9-0.2,1.2-0.2c1.7,0,2.6,0.9,2.6,2.6
			V37.9z M372.9,35.5v-0.4l-1.1,0.1c-0.6,0.1-0.9,0.3-0.9,0.8c0,0.2,0.1,0.4,0.2,0.5s0.3,0.2,0.6,0.2c0.3,0,0.6-0.1,0.8-0.4
			S372.9,35.8,372.9,35.5z"/>
		<path class="st0" d="M381.8,31.9l-2.2,6h-2.1l-2.1-6h2l1,3.7c0.1,0.4,0.2,0.8,0.2,1.1h0c0-0.3,0.1-0.6,0.2-1l1.1-3.7H381.8z"/>
		<path class="st0" d="M387.4,37.9h-1.8V37h0c-0.4,0.7-1,1-1.8,1c-0.6,0-1-0.2-1.4-0.5s-0.5-0.8-0.5-1.3c0-1.2,0.7-1.8,2.1-2
			l1.6-0.2c0-0.7-0.4-1-1.1-1c-0.7,0-1.4,0.2-2,0.6v-1.4c0.3-0.1,0.6-0.3,1.1-0.4c0.4-0.1,0.9-0.2,1.2-0.2c1.7,0,2.6,0.9,2.6,2.6
			V37.9z M385.7,35.5v-0.4l-1.1,0.1c-0.6,0.1-0.9,0.3-0.9,0.8c0,0.2,0.1,0.4,0.2,0.5s0.3,0.2,0.6,0.2c0.3,0,0.6-0.1,0.8-0.4
			S385.7,35.8,385.7,35.5z"/>
		<path class="st0" d="M395.2,34.8v-1.8l-2.2,0.1l-0.2-1.1c2.8,0,4.7-0.1,5.8-0.2l0.1,1.1l-2.2,0.1v1.8H395.2z M395.9,31.4
			c-0.7,0-1.3-0.2-1.8-0.5s-0.7-0.7-0.7-1.3c0-0.5,0.2-0.9,0.7-1.2s1-0.5,1.7-0.5c0.7,0,1.3,0.2,1.8,0.5s0.7,0.7,0.7,1.3
			c0,0.5-0.2,0.9-0.7,1.2S396.6,31.4,395.9,31.4z M395.9,29c-0.3,0-0.6,0.1-0.8,0.2s-0.3,0.3-0.3,0.5c0,0.2,0.1,0.4,0.3,0.5
			s0.5,0.2,0.8,0.2s0.6-0.1,0.8-0.2s0.3-0.3,0.3-0.5C397,29.2,396.6,29,395.9,29z M395.2,38.8v-3.7h1.5v0.7h4.7v-0.7h1.5v3.7H395.2z
			 M401.4,37h-4.7v0.6h4.7V37z M399.2,34.7v-0.4h-1.7v-1h1.7v-5.5h1.4v6.9H399.2z M401.3,34.7v-7.1h1.5v7.1H401.3z"/>
		<path class="st0" d="M351.5,50.7c-0.8,0-1.4-0.3-1.9-1s-0.7-1.6-0.7-2.9c0-1.3,0.2-2.3,0.7-2.9s1.1-1,1.9-1c0.8,0,1.5,0.3,1.9,1
			s0.7,1.6,0.7,2.9c0,1.3-0.2,2.3-0.7,2.9S352.3,50.7,351.5,50.7z M351.5,44.1c-0.8,0-1.1,0.9-1.1,2.7c0,1.8,0.4,2.7,1.1,2.7
			c0.8,0,1.1-0.9,1.1-2.7C352.6,45,352.3,44.1,351.5,44.1z M357.2,53.5v-5.6h-0.9v5.3h-1.4V42.4h1.4v4.2h0.9v-4.5h1.4v11.3H357.2z"
			/>
		<path class="st0" d="M360.8,48.1v-1.2h10.5v1.2H360.8z M361.8,46.3v-1.2h1.5l-0.1-1.4h1.5l0.1,1.4h2.4l0.1-1.4h1.5l-0.1,1.4h1.5
			v1.2H361.8z M362,43.5v-1.2h8.1v1.2H362z M362.3,53.3v-2.9h5.9v-0.6h-5.9v-1.2h7.4v2.9h-5.9v0.5h6.2v1.2H362.3z"/>
		<path class="st0" d="M379.8,50.7c-0.7,0.1-1.3,0.2-1.9,0.2s-2.1,0-4.5,0v-4.8h4v-1.9h-4V43h5.4v4.4h-4v2.3c2.6,0,4.2,0,4.8-0.2
			L379.8,50.7z M380.8,53.5V42.2h1.5v11.3H380.8z"/>
		<path class="st0" d="M385.2,47.3l-0.5-1.2l3.3-0.3c0.2-0.5,0.3-1,0.3-1.4h-3v-1.2h4.6c-0.1,1.1-0.3,2.1-0.6,2.9h1.5v-3.6h1.5v10.7
			h-1.5v-5.9h-2c-0.8,1.6-1.8,2.8-2.9,3.7l-1.2-0.9c1-0.6,1.9-1.6,2.7-3.1L385.2,47.3z M393.1,53.5V42.2h1.5v11.3H393.1z"/>
		<path class="st0" d="M400.1,50.7c-0.9,0-1.6-0.4-2.2-1.1s-0.8-1.7-0.8-2.9c0-1.2,0.3-2.2,0.8-2.9s1.3-1,2.2-1
			c0.9,0,1.6,0.4,2.2,1.1s0.8,1.7,0.8,2.9c0,1.2-0.3,2.2-0.8,2.9S401,50.7,400.1,50.7z M400.1,44.1c-0.4,0-0.8,0.2-1.1,0.7
			s-0.4,1.1-0.4,2c0,0.8,0.1,1.5,0.4,1.9s0.7,0.7,1.1,0.7c0.4,0,0.8-0.2,1.1-0.7s0.4-1.1,0.4-2s-0.1-1.5-0.4-2
			S400.6,44.1,400.1,44.1z M404.8,53.5V42.2h1.5v11.3H404.8z"/>
		<path class="st0" d="M414.7,48.7c-1.1-0.5-1.9-1.3-2.6-2.3c-0.2,0.4-0.6,0.9-1.1,1.5s-1,0.9-1.4,1.1l-1.1-1.1
			c0.8-0.4,1.5-0.9,2-1.6s0.8-1.4,0.8-2.2v-1.6h1.5v1.6c0,0.7,0.3,1.4,0.8,2.1s1.2,1.1,2,1.3L414.7,48.7z M411.1,53.1v-3.9h1.5v2.6
			h6v1.2H411.1z M414.8,46.7v-1.2h2.2v-0.9h-2.2v-1.2h2.2v-1.3h1.4v8.1H417v-3.6H414.8z"/>
	</g>
	<g>
		<rect x="574.5" y="64" class="st8" width="66" height="75.3"/>
		<path class="st0" d="M590.6,74.2h-1.9v-5c0-0.5,0-1.1,0.1-1.8h0c-0.1,0.5-0.2,0.9-0.3,1.1l-2,5.7h-1.5l-2-5.7
			c-0.1-0.2-0.1-0.5-0.3-1.2h-0.1c0.1,0.8,0.1,1.6,0.1,2.2v4.6H581v-8.4h2.8l1.7,5c0.1,0.4,0.2,0.8,0.3,1.2h0
			c0.1-0.5,0.2-0.9,0.3-1.2l1.7-5h2.7V74.2z"/>
		<path class="st0" d="M593.3,67.3c-0.3,0-0.6-0.1-0.8-0.3s-0.3-0.4-0.3-0.7c0-0.3,0.1-0.5,0.3-0.7s0.5-0.3,0.8-0.3
			c0.3,0,0.6,0.1,0.8,0.3s0.3,0.4,0.3,0.7c0,0.3-0.1,0.5-0.3,0.7S593.6,67.3,593.3,67.3z M594.2,74.2h-1.9v-6h1.9V74.2z"/>
		<path class="st0" d="M600.3,74c-0.4,0.2-1,0.4-1.8,0.4c-0.9,0-1.7-0.3-2.2-0.8s-0.9-1.3-0.9-2.2c0-1,0.3-1.8,0.9-2.4
			s1.4-0.9,2.5-0.9c0.7,0,1.2,0.1,1.5,0.3v1.6c-0.4-0.3-0.8-0.4-1.3-0.4c-0.5,0-1,0.2-1.3,0.5s-0.5,0.7-0.5,1.3
			c0,0.5,0.1,0.9,0.4,1.3s0.7,0.5,1.2,0.5c0.5,0,0.9-0.1,1.4-0.4V74z"/>
		<path class="st0" d="M605.5,69.9c-0.2-0.1-0.5-0.2-0.8-0.2c-0.4,0-0.7,0.1-0.9,0.4s-0.3,0.7-0.3,1.2v2.9h-1.9v-6h1.9v1.1h0
			c0.3-0.8,0.8-1.2,1.6-1.2c0.2,0,0.3,0,0.5,0.1V69.9z"/>
		<path class="st0" d="M609.1,74.4c-1,0-1.8-0.3-2.4-0.8s-0.9-1.3-0.9-2.3c0-1,0.3-1.8,0.9-2.3s1.4-0.8,2.4-0.8c1,0,1.8,0.3,2.3,0.8
			s0.8,1.3,0.8,2.2c0,1-0.3,1.8-0.9,2.4S610.2,74.4,609.1,74.4z M609.2,69.5c-0.4,0-0.8,0.2-1,0.5s-0.4,0.7-0.4,1.3
			c0,1.2,0.5,1.7,1.4,1.7c0.9,0,1.3-0.6,1.3-1.8C610.5,70.1,610.1,69.5,609.2,69.5z"/>
		<path class="st0" d="M613.3,74.1v-1.5c0.3,0.2,0.6,0.3,0.9,0.4s0.6,0.1,0.9,0.1c0.3,0,0.6,0,0.8-0.1s0.3-0.2,0.3-0.4
			c0-0.1,0-0.2-0.1-0.3s-0.2-0.1-0.3-0.2s-0.3-0.1-0.4-0.2s-0.3-0.1-0.5-0.2c-0.2-0.1-0.4-0.2-0.6-0.3s-0.3-0.2-0.5-0.4
			s-0.2-0.3-0.3-0.5s-0.1-0.4-0.1-0.6c0-0.3,0.1-0.6,0.2-0.9s0.3-0.4,0.6-0.6s0.5-0.3,0.8-0.3s0.6-0.1,1-0.1c0.3,0,0.5,0,0.8,0.1
			s0.5,0.1,0.8,0.2v1.4c-0.2-0.1-0.5-0.2-0.8-0.3s-0.5-0.1-0.8-0.1c-0.1,0-0.2,0-0.3,0s-0.2,0.1-0.3,0.1s-0.1,0.1-0.2,0.2
			s-0.1,0.1-0.1,0.2c0,0.1,0,0.2,0.1,0.3s0.2,0.1,0.3,0.2s0.2,0.1,0.4,0.2s0.3,0.1,0.4,0.1c0.2,0.1,0.5,0.2,0.7,0.3s0.4,0.2,0.5,0.4
			s0.3,0.3,0.3,0.5s0.1,0.4,0.1,0.7c0,0.4-0.1,0.7-0.2,0.9s-0.4,0.5-0.6,0.6s-0.6,0.3-0.9,0.3s-0.7,0.1-1,0.1
			C614.4,74.4,613.8,74.3,613.3,74.1z"/>
		<path class="st0" d="M621.8,74.4c-1,0-1.8-0.3-2.4-0.8s-0.9-1.3-0.9-2.3c0-1,0.3-1.8,0.9-2.3s1.4-0.8,2.4-0.8c1,0,1.8,0.3,2.3,0.8
			s0.8,1.3,0.8,2.2c0,1-0.3,1.8-0.9,2.4S622.8,74.4,621.8,74.4z M621.9,69.5c-0.4,0-0.8,0.2-1,0.5s-0.4,0.7-0.4,1.3
			c0,1.2,0.5,1.7,1.4,1.7c0.9,0,1.3-0.6,1.3-1.8C623.2,70.1,622.8,69.5,621.9,69.5z"/>
		<path class="st0" d="M630,66.8c-0.2-0.1-0.5-0.1-0.7-0.1c-0.6,0-0.9,0.3-0.9,1v0.6h1.4v1.4h-1.4v4.6h-1.8v-4.6h-1v-1.4h1v-0.7
			c0-0.7,0.2-1.2,0.7-1.7s1.1-0.6,1.8-0.6c0.4,0,0.7,0,0.9,0.1V66.8z"/>
		<path class="st0" d="M634.6,74.2c-0.3,0.1-0.7,0.2-1.2,0.2c-1.3,0-2-0.7-2-2v-2.7h-1v-1.4h1v-1.3l1.8-0.5v1.8h1.3v1.4h-1.3V72
			c0,0.6,0.2,0.9,0.7,0.9c0.2,0,0.4-0.1,0.6-0.2V74.2z"/>
		<path class="st0" d="M584.3,88.6h-1.9v-8.4h1.9V88.6z"/>
		<path class="st0" d="M586.2,88.6v-8.4h3c3,0,4.5,1.4,4.5,4.1c0,1.3-0.4,2.4-1.2,3.1s-1.9,1.2-3.3,1.2H586.2z M588.1,81.8v5.3h0.9
			c0.8,0,1.5-0.2,1.9-0.7s0.7-1.2,0.7-2c0-0.8-0.2-1.4-0.7-1.9s-1.1-0.7-1.9-0.7H588.1z"/>
		<path class="st0" d="M598.2,84.3v-1.2h10.5v1.2H598.2z M599.3,82.6v-1.2h1.5l-0.1-1.4h1.5l0.1,1.4h2.4l0.1-1.4h1.5l-0.1,1.4h1.5
			v1.2H599.3z M599.4,79.7v-1.2h8.1v1.2H599.4z M599.7,89.6v-2.9h5.9v-0.6h-5.9v-1.2h7.4v2.9h-5.9v0.5h6.2v1.2H599.7z"/>
		<path class="st0" d="M615.9,84.6c-1,0.1-2.3,0.2-3.9,0.2h-1.4v-3.6h3.2v-1.1h-3.2v-1.2h4.6v3.5H612v1.2h1.1c1,0,1.9-0.1,2.6-0.2
			L615.9,84.6z M619.6,89.7c-0.7-0.1-1.4-0.4-2.2-0.9s-1.3-1-1.6-1.5c-0.3,0.5-0.8,0.9-1.5,1.4s-1.5,0.8-2.2,0.9l-0.9-1.2
			c1.1-0.1,2.1-0.5,2.8-1.1s1.1-1.2,1.1-1.8v-0.4h1.5v0.4c0,0.6,0.4,1.2,1.1,1.8s1.7,1,2.8,1.1L619.6,89.7z M618.6,85.6v-3.1h-0.9
			v2.4h-1.4v-6.3h1.4v2.7h0.9v-2.9h1.5v7.2H618.6z"/>
		<path class="st0" d="M622.2,85v-1.2h4.5v-0.8h-3.4v-1.2h1.5l-0.1-1.5h1.5l0.1,1.5h2.4l0.1-1.5h1.5l-0.1,1.5h1.5v1.2h-3.4v0.8h4.5
			V85H622.2z M623.5,79.9v-1.2h8.1v1.2H623.5z M623.8,89.4v-3.8h7.4v3.8H623.8z M629.7,86.8h-4.5v1.4h4.5V86.8z"/>
	</g>
	<g>
		<rect x="474.6" y="75.5" class="st8" width="73.2" height="26.3"/>
		<path class="st6" d="M479.2,81.9c-0.8,0-1.5-0.3-2.1-0.8s-0.8-1.2-0.8-2.1c0-0.9,0.3-1.5,0.8-2.1s1.3-0.8,2.1-0.8s1.6,0.3,2.1,0.8
			s0.8,1.2,0.8,2.1c0,0.8-0.3,1.5-0.8,2.1S480.1,81.9,479.2,81.9z M479.2,77c-0.6,0-1.1,0.2-1.5,0.6s-0.6,0.9-0.6,1.5
			s0.2,1.1,0.6,1.5s0.9,0.6,1.5,0.6s1.1-0.2,1.5-0.6s0.6-0.9,0.6-1.5s-0.2-1.1-0.6-1.5S479.8,77,479.2,77z M477.7,86.6V83h0.9v2.9
			h6.6v0.8H477.7z M483.9,84v-8.3h0.9V84H483.9z"/>
		<path class="st6" d="M487.4,81.6v-0.8h10.5v0.8H487.4z M496.8,79.9c-0.9-0.1-1.8-0.4-2.6-0.8s-1.4-0.9-1.7-1.3
			c-0.3,0.4-0.9,0.9-1.7,1.3s-1.6,0.7-2.5,0.8l-0.5-0.7c1-0.1,1.9-0.3,2.7-0.8s1.3-1,1.5-1.5h-3.6v-0.8h8.2v0.8h-3.6
			c0.2,0.5,0.7,1,1.5,1.5s1.7,0.7,2.7,0.8L496.8,79.9z M492.6,86.9c-1.2,0-2.1-0.2-2.7-0.6s-0.9-0.9-0.9-1.6c0-0.6,0.3-1.2,0.9-1.5
			s1.5-0.6,2.7-0.6s2.1,0.2,2.7,0.6s0.9,0.9,0.9,1.5c0,0.7-0.3,1.2-0.9,1.6S493.8,86.9,492.6,86.9z M492.6,83.5
			c-0.9,0-1.6,0.1-2,0.4s-0.7,0.6-0.7,1c0,0.4,0.2,0.8,0.7,1s1.1,0.4,2,0.4c0.9,0,1.6-0.1,2-0.4s0.7-0.6,0.7-1c0-0.4-0.2-0.8-0.7-1
			S493.5,83.5,492.6,83.5z"/>
		<path class="st6" d="M503.5,85.2v-0.8h4.2v-2.8h0.9v2.8h5.4v0.8H503.5z M512.1,83.2l-0.8-0.1c0.1-1,0.2-2,0.2-2.8l-6.9,0.5
			l-0.2-0.8l7.1-0.4l0-2h-6.6v-0.8h7.5v2.6C512.4,80.9,512.3,82.1,512.1,83.2z"/>
		<path class="st6" d="M515.4,85.1v-0.8h10.5v0.8H515.4z M524.1,77.6h-6.1v3.5h6.2v0.8h-7.1v-5.1h6.9V77.6z"/>
	</g>
	<g>
		<path class="st6" d="M494.9,12.5v-0.8h4.8V9.4h-3.1V4h7.2v0.8h-6.4v1.5h6.2V7h-6.2v1.6h6.6v0.8h-3.4v2.4h4.8v0.8H494.9z"/>
		<path class="st6" d="M506.9,9V8.2h8c0-0.3,0.1-0.9,0.1-1.9l-6.6,0.3l-0.2-0.8l6.8-0.3l0-0.8V4.2h-6.3V3.4h7.2c0,2.2,0,3.8-0.1,4.8
			h1.7V9H506.9z M508.7,13.8v-3.6h0.9V13h6.3v0.8H508.7z"/>
	</g>
	<g>
		<path class="st6" d="M162,114.1c-0.6-0.4-1.1-1-1.6-1.7s-0.9-1.3-1.1-1.9c-0.2,0.5-0.5,1.2-1,1.9s-1.1,1.3-1.7,1.8l-0.7-0.6
			c0.8-0.5,1.5-1.3,2.1-2.3s0.8-1.9,0.8-2.9v-1.2h-2.5v-0.8h5.8v0.8h-2.5v1.1c0,0.9,0.3,1.8,0.8,2.8s1.2,1.7,2,2.2L162,114.1z
			 M164.7,110.9v5.9h-0.9v-11.3h0.9v4.6h2v0.8H164.7z"/>
		<path class="st6" d="M173.8,106.2c0,1.2-0.5,2.4-1.4,3.5s-2.2,2-3.7,2.6l-0.6-0.7c1.3-0.4,2.3-1,3.2-1.9s1.4-1.8,1.5-2.7h-4v-0.8
			H173.8z M176.3,116.9v-3.6h-6.4v-0.8h7.3v4.4H176.3z M176.3,111.8v-1.3H174v-0.8h2.4v-1.6h-2.3v-0.8h2.3v-1.8h0.9v6.3H176.3z"/>
		<path class="st6" d="M183.9,111.4v-0.8h10.5v0.8H183.9z M193.4,109.7c-0.9-0.1-1.8-0.4-2.6-0.8s-1.4-0.9-1.7-1.3
			c-0.3,0.4-0.9,0.9-1.7,1.3s-1.6,0.7-2.5,0.8l-0.5-0.7c1-0.1,1.9-0.3,2.7-0.8s1.3-1,1.5-1.5h-3.6v-0.8h8.2v0.8h-3.6
			c0.2,0.5,0.7,1,1.5,1.5s1.7,0.7,2.7,0.8L193.4,109.7z M189.2,116.7c-1.2,0-2.1-0.2-2.7-0.6s-0.9-0.9-0.9-1.6
			c0-0.6,0.3-1.2,0.9-1.5s1.5-0.6,2.7-0.6s2.1,0.2,2.7,0.6s0.9,0.9,0.9,1.5c0,0.7-0.3,1.2-0.9,1.6S190.3,116.7,189.2,116.7z
			 M189.2,113.3c-0.9,0-1.6,0.1-2,0.4s-0.7,0.6-0.7,1c0,0.4,0.2,0.8,0.7,1s1.1,0.4,2,0.4c0.9,0,1.6-0.1,2-0.4s0.7-0.6,0.7-1
			c0-0.4-0.2-0.8-0.7-1S190.1,113.3,189.2,113.3z"/>
		<path class="st6" d="M197,111.5v-5.4h5.2v1.1h2.2v-1.6h0.9v6.9h-0.9v-2.1h-2.2v1.1H197z M201.3,106.9h-3.5v3.8h3.5V106.9z
			 M201.7,116.8c-1.2,0-2.1-0.2-2.7-0.6s-1-0.9-1-1.6s0.3-1.2,1-1.6s1.6-0.6,2.7-0.6s2.1,0.2,2.7,0.6s1,0.9,1,1.6s-0.3,1.2-1,1.6
			S202.9,116.8,201.7,116.8z M201.7,113.1c-0.9,0-1.6,0.1-2.1,0.4s-0.7,0.6-0.7,1s0.2,0.8,0.7,1s1.2,0.4,2,0.4c0.9,0,1.6-0.1,2-0.4
			s0.7-0.6,0.7-1s-0.2-0.8-0.7-1S202.6,113.1,201.7,113.1z M202.2,109.6h2.2V108h-2.2V109.6z"/>
		<path class="st6" d="M212,115.1v-0.8h10.5v0.8H212z M219.6,111.2h1.9v0.8h-8.5v-0.8h1.9l-0.1-3.2h0.9l0.1,3.2h3l0.2-3.2h0.9
			L219.6,111.2z M213.1,106.6h8.3v0.8h-8.3V106.6z"/>
		<path class="st6" d="M223.9,112.2v-0.8h4.8v-1.2h-3v-2.7h6.1v-1.1h-6.1v-0.8h7v2.6h-6.1v1.1h6.4v0.8h-3.3v1.2h4.8v0.8H223.9z
			 M225.6,116.6v-3.5h7v3.5H225.6z M231.8,113.9h-5.3v1.9h5.3V113.9z"/>
		<path class="st6" d="M235.8,115.1v-0.8h10.5v0.8H235.8z M243.4,111.2h1.9v0.8h-8.5v-0.8h1.9l-0.1-3.2h0.9l0.1,3.2h3l0.2-3.2h0.9
			L243.4,111.2z M237,106.6h8.3v0.8H237V106.6z"/>
		<path class="st6" d="M247.8,115.1v-0.8h10.5v0.8H247.8z M256.6,107.4h-6.3v1.6h6v0.8h-6v1.5h6.5v0.8h-7.4v-5.5h7.2V107.4z"/>
	</g>
	<g>
		<path class="st6" d="M159.7,145.5c-0.8,0-1.5-0.3-2.1-0.8s-0.8-1.2-0.8-2.1c0-0.9,0.3-1.5,0.8-2.1s1.3-0.8,2.1-0.8
			s1.6,0.3,2.1,0.8s0.8,1.2,0.8,2.1c0,0.8-0.3,1.5-0.8,2.1S160.5,145.5,159.7,145.5z M159.7,140.5c-0.6,0-1.1,0.2-1.5,0.6
			s-0.6,0.9-0.6,1.5s0.2,1.1,0.6,1.5s0.9,0.6,1.5,0.6s1.1-0.2,1.5-0.6s0.6-0.9,0.6-1.5s-0.2-1.1-0.6-1.5S160.3,140.5,159.7,140.5z
			 M158.2,150.2v-3.7h0.9v2.9h6.6v0.8H158.2z M164.4,147.5v-8.3h0.9v8.3H164.4z"/>
		<path class="st6" d="M167.9,145.2v-0.8h10.5v0.8H167.9z M177.3,143.4c-0.9-0.1-1.8-0.4-2.6-0.8s-1.4-0.9-1.7-1.3
			c-0.3,0.4-0.9,0.9-1.7,1.3s-1.6,0.7-2.5,0.8l-0.5-0.7c1-0.1,1.9-0.3,2.7-0.8s1.3-1,1.5-1.5H169v-0.8h8.2v0.8h-3.6
			c0.2,0.5,0.7,1,1.5,1.5s1.7,0.7,2.7,0.8L177.3,143.4z M173.1,150.5c-1.2,0-2.1-0.2-2.7-0.6s-0.9-0.9-0.9-1.6
			c0-0.6,0.3-1.2,0.9-1.5s1.5-0.6,2.7-0.6s2.1,0.2,2.7,0.6s0.9,0.9,0.9,1.5c0,0.7-0.3,1.2-0.9,1.6S174.3,150.5,173.1,150.5z
			 M173.1,147c-0.9,0-1.6,0.1-2,0.4s-0.7,0.6-0.7,1c0,0.4,0.2,0.8,0.7,1s1.1,0.4,2,0.4c0.9,0,1.6-0.1,2-0.4s0.7-0.6,0.7-1
			c0-0.4-0.2-0.8-0.7-1S174,147,173.1,147z"/>
		<path class="st6" d="M184,148.8V148h4.2v-2.8h0.9v2.8h5.4v0.8H184z M192.7,146.8l-0.8-0.1c0.1-1,0.2-2,0.2-2.8l-6.9,0.5l-0.2-0.8
			l7.1-0.4l0-2h-6.6v-0.8h7.5v2.6C192.9,144.4,192.8,145.6,192.7,146.8z"/>
		<path class="st6" d="M196,148.6v-0.8h10.5v0.8H196z M204.7,141.1h-6.1v3.5h6.2v0.8h-7.1v-5.1h6.9V141.1z"/>
		<path class="st6" d="M218.5,146.3H216v2.4h-0.8v-2.4h-2.4v-0.8h2.4v-2.4h0.8v2.4h2.4V146.3z"/>
		<path class="st6" d="M225.6,148.1v-4.5h4.3v-2.6h-4.3v-0.8h5.2v4.1h-4.3v2.9c2.8,0,4.6-0.1,5.4-0.2l0.1,0.8
			C231,148.1,228.9,148.1,225.6,148.1z M233.2,150.6v-11.3h0.9v11.3H233.2z"/>
		<path class="st6" d="M243.9,147.4c-0.6,0.1-1.3,0.1-2.1,0.1s-2.1,0-4,0v-7.2h5.4v0.8h-4.6v5.7c2.8,0,4.5,0,5.1-0.1L243.9,147.4z
			 M245.3,150.6v-11.3h0.9v11.3H245.3z"/>
		<path class="st6" d="M254.1,145.2c-0.6,0.1-1.2,0.1-1.6,0.1s-1.4,0-2.9,0v-3.2h3.1v-1.6h-3.1v-0.8h3.9v3.1h-3.1v1.7h0.9
			c1.2,0,2.1,0,2.7-0.1L254.1,145.2z M257.4,150.6v-3.3h-6.6v-0.8h7.4v4.1H257.4z M255.5,145.9V143H254v-0.8h1.5v-2.7h0.9v6.4H255.5
			z M257.4,145.9v-6.6h0.9v6.6H257.4z"/>
		<path class="st6" d="M266.8,145.7c-0.6-0.3-1.1-0.8-1.6-1.3s-0.9-1-1.1-1.5c-0.2,0.5-0.6,1.1-1.1,1.7s-1.1,1.1-1.6,1.4l-0.6-0.6
			c0.8-0.4,1.5-1,2-1.8s0.8-1.6,0.8-2.4v-1.5h0.9v1.5c0,0.8,0.3,1.5,0.9,2.3s1.2,1.3,2,1.6L266.8,145.7z M263,150.2v-3.6h0.9v2.8
			h6.4v0.8H263z M266.9,143.8V143h2.2v-1.3h-2.2V141h2.2v-1.7h0.9v8.3h-0.9v-3.8H266.9z"/>
		<path class="st6" d="M283.5,146.1c0,2.4-1.1,3.6-3.3,3.6c-2.1,0-3.1-1.2-3.1-3.5v-5.3h0.9v5.2c0,1.8,0.8,2.7,2.3,2.7
			c1.5,0,2.2-0.9,2.2-2.6v-5.3h0.9V146.1z"/>
		<path class="st6" d="M291.8,149.5h-1.1l-1.4-2.4c-0.3-0.5-0.6-0.9-0.8-1s-0.5-0.2-0.9-0.2h-0.9v3.7h-0.9v-8.6h2.5
			c0.8,0,1.4,0.2,1.9,0.6s0.7,1,0.7,1.7c0,1.2-0.6,2-1.9,2.3v0c0.2,0.1,0.4,0.2,0.6,0.4s0.4,0.5,0.7,1L291.8,149.5z M286.6,141.8
			v3.2h1.4c0.5,0,1-0.2,1.3-0.5s0.5-0.7,0.5-1.2c0-0.5-0.2-0.8-0.5-1.1s-0.7-0.4-1.3-0.4H286.6z"/>
		<path class="st6" d="M297.4,149.5h-4.4v-8.6h0.9v7.8h3.5V149.5z"/>
	</g>
</g>
<g id="src" class="st9">
	<title>java-quickstart</title>
	<g id="Shapes" class="st10">
		<rect y="0" class="st0" width="660" height="165.7"/>
		<rect y="6.7" class="st1" width="105" height="155"/>
		<rect x="555" y="5.7" class="st2" width="105" height="156"/>
		<rect x="330" y="6.2" class="st3" width="105" height="69.4"/>
		<g>
			<line class="st4" x1="104.6" y1="21.2" x2="324.6" y2="21.2"/>
			<polygon points="323.5,25 330,21.2 323.5,17.5 			"/>
		</g>
		<g>
			<line class="st4" x1="104.6" y1="70.7" x2="324.6" y2="70.7"/>
			<polygon points="323.5,74.4 330,70.7 323.5,66.9 			"/>
		</g>
		<g>
			<line class="st4" x1="435" y1="70.7" x2="549.6" y2="70.7"/>
			<polygon points="548.5,74.4 555,70.7 548.5,66.9 			"/>
		</g>
		<g>
			<line class="st4" x1="440.4" y1="21.2" x2="555" y2="21.2"/>
			<polygon points="441.5,25 435,21.2 441.5,17.5 			"/>
		</g>
		<g>
			<line class="st4" x1="110" y1="51.1" x2="330" y2="51.1"/>
			<polygon points="111.1,54.8 104.6,51.1 111.1,47.4 			"/>
		</g>
		<g>
			<line class="st4" x1="104.6" y1="121.7" x2="549.6" y2="121.7"/>
			<polygon points="548.5,125.4 555,121.7 548.5,118 			"/>
		</g>
		<g>
			<line class="st4" x1="110" y1="155.7" x2="555" y2="155.7"/>
			<polygon points="111.1,159.5 104.6,155.7 111.1,152 			"/>
		</g>
		<path d="M80.2,44.5c-6.6-8.6-16.9-13.7-27.7-13.7c-7.7,0-15.2,2.6-21.3,7.2c-15.3,11.7-18.2,33.7-6.5,49
			c6.6,8.6,16.9,13.7,27.7,13.7c7.7,0,15.2-2.5,21.3-7.2C89.1,81.9,92,60,80.4,44.7C80.3,44.6,80.3,44.6,80.2,44.5z M81.9,73.7
			c-1.2-0.9-3-2.3-5.3-4.1c0.8-2.1,0.5-4.5-0.8-6.4c-2.1-2.6-5.7-3.2-8.6-1.5c-3.1-2.7-6.4-5.9-10-9.4C68,46.3,75.9,47,76.4,47.1
			l0.3,0.4C82.4,54.9,84.3,64.6,81.9,73.7z M62.7,81.9c-0.2-0.9-0.6-1.7-1.1-2.4c-1.9-2.5-5.4-3.1-8-1.4c-2.9-1.6-5.6-3.4-8.2-5.4
			l-0.7-0.6c1.2-3,0.7-6.4-1.3-9c0-0.1-0.1-0.1-0.2-0.2c0.6-0.6,1.2-1.3,1.9-1.9c2.5-2.4,5.1-4.5,8-6.5l0,0h0.1l-0.1,0.1
			c3.8,3.5,7.8,6.8,11.6,9.8c-1,2.2-0.8,4.7,0.6,6.7c2.2,2.9,6.3,3.4,9.2,1.3c0.1-0.1,0.3-0.3,0.4-0.4c2.7,1.9,4.9,3.4,6.1,4.2
			c-0.9,2.4-2,4.6-3.4,6.7C75.6,83.4,70.1,84.1,62.7,81.9z M72.1,42.6c-7-1-14.1,0.4-20.3,3.8c-2.7-2.9-5.7-6.2-8.6-9.5
			C53.1,33.7,64.1,35.8,72.1,42.6z M34,41.7c1.6-1.2,3.3-2.3,5.1-3.2c2.4,3.8,5.1,7.2,8.2,10.4c-3.1,2.1-5.9,4.6-8.4,7.3
			c-1,1.1-1.9,2.2-2.8,3.3c-1.5,0-3,0.3-4.3,1c-2.4-4-3.6-8.7-3.4-13.4C30.1,45.1,31.9,43.3,34,41.7z M24.9,53c-0.1,4,1,8,3,11.4
			c-1.7,3.2-1.4,7.1,0.8,10l0,0c-0.7,2.8-1.2,5.7-1.4,8.6C21.3,74.2,20.3,62.7,24.9,53z M52.5,96.3c-7.1,0-14-2.5-19.5-7.1
			c0-3.8,0.5-7.6,1.5-11.3c2.4,0.4,4.9-0.1,6.9-1.5l0.8,0.6c2.7,2.1,5.6,4,8.7,5.5C50.6,84.1,51,85.7,52,87c2.1,2.6,5.9,3.1,8.5,1.1
			c0.6-0.5,1.1-1,1.5-1.6c3.9,0.8,7.8,1.2,11.7,1.2C72.9,88.5,72,89.3,71,90C65.7,94.1,59.2,96.3,52.5,96.3z"/>
		
			<use xlink:href="#New_Symbol_44"  width="20" height="20" x="-10" y="-10" transform="matrix(1 0 0 1 138.91 155.66)" style="overflow:visible;"/>
		
			<use xlink:href="#New_Symbol_43"  width="20" height="20" x="-10" y="-10" transform="matrix(1 0 0 1 138.91 121.16)" style="overflow:visible;"/>
		
			<use xlink:href="#New_Symbol_41"  width="20" height="20" x="-10" y="-10" transform="matrix(1 0 0 1 138.91 20.66)" style="overflow:visible;"/>
		
			<use xlink:href="#New_Symbol_42"  width="20" height="20" x="-10" y="-10" transform="matrix(1 0 0 1 138.91 50.55)" style="overflow:visible;"/>
		
			<use xlink:href="#New_Symbol_45"  width="20" height="20" x="-10" y="-10" transform="matrix(1 0 0 1 228.02 70.66)" style="overflow:visible;"/>
		
			<use xlink:href="#New_Symbol_46"  width="20" height="20" x="-10" y="-10" transform="matrix(1 0 0 1 462.5 70.66)" style="overflow:visible;"/>
		
			<use xlink:href="#New_Symbol_47"  width="20" height="20" x="-10" y="-10" transform="matrix(1 0 0 1 462.5 20.66)" style="overflow:visible;"/>
	</g>
	<g id="Text" class="st10">
		<g>
			<path class="st6" d="M162.6,149.6h-1.1l-0.9-2.4h-3.6l-0.8,2.4h-1.1l3.2-8.4h1L162.6,149.6z M160.3,146.3l-1.3-3.6
				c-0.1-0.2-0.1-0.4-0.1-0.6l0,0c0,0.2-0.1,0.4-0.1,0.6l-1.3,3.6H160.3z"/>
			<path class="st6" d="M168.4,149.6h-1v-0.9l0,0c-0.4,0.7-1.1,1.1-1.9,1.1c-1.4,0-2.1-0.9-2.1-2.6v-3.6h0.9v3.4
				c0,1.3,0.5,1.9,1.5,1.9c0.4,0,0.9-0.2,1.1-0.5c0.3-0.4,0.5-0.9,0.5-1.4v-3.4h1L168.4,149.6z"/>
			<path class="st6" d="M173.1,149.5c-0.3,0.1-0.6,0.2-0.9,0.2c-1.1,0-1.6-0.6-1.6-1.8v-3.6h-1v-0.8h1v-1.5l1-0.3v1.8h1.5v0.8h-1.5
				v3.4c0,0.3,0,0.6,0.2,0.9c0.2,0.2,0.4,0.3,0.7,0.3c0.2,0,0.4-0.1,0.6-0.2L173.1,149.5z"/>
			<path class="st6" d="M179.3,149.6h-1v-3.5c0-1.3-0.5-1.9-1.4-1.9c-0.5,0-0.9,0.2-1.2,0.5c-0.3,0.4-0.5,0.9-0.5,1.4v3.4h-1v-8.9h1
				v3.9l0,0c0.4-0.7,1.2-1.2,2-1.1c1.4,0,2,0.8,2,2.4L179.3,149.6z"/>
			<path class="st6" d="M183.6,149.7c-0.8,0-1.6-0.3-2.1-0.8c-0.5-0.6-0.8-1.4-0.8-2.2c-0.1-0.9,0.2-1.7,0.8-2.4
				c0.6-0.6,1.4-0.9,2.2-0.9c0.8,0,1.5,0.3,2.1,0.8c0.5,0.6,0.8,1.5,0.8,2.3c0,0.8-0.2,1.7-0.8,2.3
				C185.2,149.4,184.4,149.7,183.6,149.7z M183.6,144.2c-0.6,0-1.1,0.2-1.5,0.6c-0.4,0.5-0.6,1.1-0.5,1.7c0,0.6,0.2,1.2,0.6,1.7
				c0.4,0.4,0.9,0.6,1.5,0.6c0.5,0,1.1-0.2,1.4-0.6c0.4-0.5,0.5-1.1,0.5-1.7c0-0.6-0.1-1.2-0.5-1.7
				C184.7,144.4,184.2,144.2,183.6,144.2z"/>
			<path class="st6" d="M191.1,144.5c-0.2-0.1-0.5-0.2-0.7-0.2c-0.4,0-0.8,0.2-1,0.6c-0.3,0.5-0.4,1-0.4,1.6v3.1h-1v-6h1v1.2l0,0
				c0.1-0.4,0.3-0.7,0.6-1c0.3-0.2,0.6-0.4,0.9-0.4c0.2,0,0.4,0,0.6,0.1L191.1,144.5z"/>
			<path class="st6" d="M192.7,142c-0.2,0-0.3-0.1-0.4-0.2c-0.2-0.3-0.2-0.6,0-0.9c0.1-0.1,0.3-0.2,0.4-0.2c0.2,0,0.3,0.1,0.4,0.2
				c0.1,0.1,0.2,0.3,0.2,0.4c0,0.2-0.1,0.3-0.2,0.4C193.1,141.9,192.9,142,192.7,142z M193.2,149.5h-1v-6h1V149.5z"/>
			<path class="st6" d="M199.3,143.8l-3.6,4.9h3.5v0.8h-4.9v-0.3l3.6-4.9h-3.2v-0.8h4.6L199.3,143.8z"/>
			<path class="st6" d="M204.9,149.6h-1v-0.9l0,0c-0.4,0.7-1.1,1.1-1.9,1.1c-0.5,0-1-0.1-1.4-0.5c-0.3-0.3-0.5-0.8-0.5-1.3
				c0-1.1,0.7-1.8,2-1.9l1.8-0.3c0-1-0.4-1.5-1.2-1.5c-0.7,0-1.4,0.3-1.9,0.7v-1c0.6-0.4,1.3-0.6,2-0.6c1.4,0,2.1,0.7,2.1,2.2
				L204.9,149.6z M203.9,146.6l-1.4,0.2c-0.4,0-0.7,0.1-1,0.3c-0.2,0.2-0.4,0.5-0.3,0.8c0,0.3,0.1,0.5,0.3,0.7
				c0.2,0.2,0.5,0.3,0.8,0.3c0.4,0,0.9-0.2,1.2-0.5c0.3-0.3,0.5-0.8,0.5-1.3L203.9,146.6z"/>
			<path class="st6" d="M209.4,149.5c-0.3,0.1-0.6,0.2-0.9,0.2c-1,0-1.6-0.6-1.6-1.8v-3.6h-1v-0.8h1v-1.5l1-0.3v1.8h1.5v0.8H208v3.4
				c0,0.3,0,0.6,0.2,0.9c0.2,0.2,0.4,0.3,0.7,0.3c0.2,0,0.4-0.1,0.6-0.2L209.4,149.5z"/>
			<path class="st6" d="M211.1,142c-0.2,0-0.3-0.1-0.4-0.2c-0.2-0.3-0.2-0.6,0-0.9c0.1-0.1,0.3-0.2,0.4-0.2c0.2,0,0.3,0.1,0.4,0.2
				c0.1,0.1,0.2,0.3,0.2,0.4c0,0.2-0.1,0.3-0.2,0.4C211.5,141.9,211.3,142,211.1,142z M211.6,149.5h-1v-6h1V149.5z"/>
			<path class="st6" d="M216,149.7c-0.8,0-1.6-0.3-2.1-0.8c-0.5-0.6-0.8-1.4-0.8-2.2c-0.1-0.9,0.2-1.7,0.8-2.4
				c0.6-0.6,1.4-0.9,2.2-0.9c0.8,0,1.5,0.3,2.1,0.8c0.5,0.6,0.8,1.5,0.8,2.3c0,0.8-0.2,1.7-0.8,2.3
				C217.6,149.4,216.8,149.7,216,149.7z M216.1,144.2c-0.6,0-1.1,0.2-1.5,0.6c-0.4,0.5-0.6,1.1-0.5,1.7c0,0.6,0.2,1.2,0.6,1.7
				c0.4,0.4,0.9,0.6,1.5,0.6c0.5,0,1.1-0.2,1.4-0.6c0.4-0.5,0.5-1.1,0.5-1.7c0-0.6-0.1-1.2-0.5-1.7
				C217.1,144.4,216.6,144.2,216.1,144.2L216.1,144.2z"/>
			<path class="st6" d="M225.4,149.6h-1v-3.4c0-1.3-0.5-1.9-1.4-1.9c-0.5,0-0.9,0.2-1.2,0.5c-0.3,0.4-0.5,0.9-0.5,1.4v3.4h-1v-6h1v1
				l0,0c0.4-0.7,1.2-1.2,2-1.1c0.6,0,1.1,0.2,1.5,0.6c0.4,0.5,0.6,1.2,0.5,1.8L225.4,149.6z"/>
			<path class="st6" d="M234.6,149.3c-0.5,0.3-1.1,0.4-1.6,0.4c-0.8,0-1.5-0.3-2.1-0.8c-0.5-0.6-0.8-1.4-0.8-2.2
				c0-0.9,0.3-1.7,0.9-2.4c0.6-0.6,1.4-0.9,2.3-0.9c0.5,0,1,0.1,1.4,0.3v1c-0.4-0.3-0.9-0.5-1.4-0.5c-0.6,0-1.1,0.2-1.5,0.6
				c-0.4,0.5-0.6,1.1-0.6,1.7c0,0.6,0.2,1.2,0.6,1.7c0.4,0.4,0.9,0.6,1.5,0.6c0.5,0,1.1-0.2,1.5-0.5L234.6,149.3z"/>
			<path class="st6" d="M238.4,149.7c-0.8,0-1.6-0.3-2.1-0.8c-0.5-0.6-0.8-1.4-0.8-2.2c-0.1-0.9,0.2-1.7,0.8-2.4
				c0.6-0.6,1.4-0.9,2.2-0.9c0.8,0,1.6,0.3,2.1,0.8c0.5,0.6,0.8,1.5,0.8,2.3c0,0.8-0.2,1.7-0.8,2.3
				C240,149.4,239.2,149.7,238.4,149.7z M238.5,144.2c-0.6,0-1.1,0.2-1.5,0.6c-0.4,0.5-0.6,1.1-0.5,1.7c0,0.6,0.2,1.2,0.5,1.7
				c0.4,0.4,0.9,0.6,1.5,0.6c0.5,0,1.1-0.2,1.4-0.6c0.4-0.5,0.5-1.1,0.5-1.7c0-0.6-0.1-1.2-0.5-1.7
				C239.6,144.4,239,144.2,238.5,144.2z"/>
			<path class="st6" d="M248.1,149.6h-1v-1l0,0c-0.7,1.1-2.2,1.5-3.3,0.8c-0.2-0.1-0.4-0.3-0.5-0.5c-0.5-0.6-0.7-1.4-0.7-2.2
				c0-0.9,0.2-1.7,0.8-2.4c0.5-0.6,1.2-0.9,2-0.9c0.7,0,1.4,0.3,1.8,1l0,0v-3.7h1L248.1,149.6z M247.1,146.9V146
				c0-0.5-0.2-0.9-0.5-1.2c-0.3-0.3-0.8-0.5-1.2-0.5c-0.5,0-1.1,0.2-1.4,0.6c-0.4,0.5-0.5,1.1-0.5,1.8c0,0.6,0.1,1.2,0.5,1.6
				c0.3,0.4,0.8,0.6,1.3,0.6c0.5,0,1-0.2,1.3-0.6C246.9,147.9,247.1,147.4,247.1,146.9L247.1,146.9z"/>
			<path class="st6" d="M254.8,146.8h-4.2c0,0.6,0.2,1.1,0.5,1.5c0.4,0.4,0.9,0.6,1.4,0.6c0.7,0,1.3-0.2,1.9-0.7v0.9
				c-0.6,0.4-1.3,0.6-2.1,0.6c-0.8,0-1.5-0.3-2-0.8c-0.5-0.7-0.8-1.5-0.7-2.3c0-0.8,0.2-1.6,0.8-2.3c0.5-0.6,1.2-0.9,2-0.9
				c0.7,0,1.4,0.2,1.8,0.8c0.5,0.6,0.7,1.4,0.6,2.1L254.8,146.8z M253.8,146c0-0.5-0.1-0.9-0.4-1.3c-0.3-0.3-0.7-0.5-1.1-0.5
				c-0.4,0-0.8,0.2-1.1,0.5c-0.3,0.3-0.5,0.8-0.6,1.3H253.8z"/>
			<path class="st6" d="M265.4,146.5h-2.4v2.4h-0.8v-2.4h-2.4v-0.8h2.4v-2.4h0.8v2.4h2.4V146.5z"/>
			<path class="st6" d="M274.1,144.5c-0.2-0.1-0.5-0.2-0.7-0.2c-0.4,0-0.8,0.2-1,0.6c-0.3,0.5-0.4,1-0.4,1.6v3.1h-1v-6h1v1.2l0,0
				c0.1-0.4,0.3-0.7,0.6-1c0.3-0.2,0.6-0.4,0.9-0.4c0.2,0,0.4,0,0.6,0.1L274.1,144.5z"/>
			<path class="st6" d="M280,146.8h-4.2c0,0.6,0.2,1.1,0.5,1.5c0.4,0.4,0.9,0.6,1.4,0.6c0.7,0,1.3-0.2,1.9-0.7v0.9
				c-0.6,0.4-1.3,0.6-2.1,0.6c-0.8,0-1.5-0.3-2-0.8c-1-1.4-1-3.2,0.1-4.6c0.5-0.6,1.2-0.9,2-0.9c0.7,0,1.4,0.2,1.8,0.8
				c0.5,0.6,0.7,1.4,0.6,2.1L280,146.8z M279,146c0-0.5-0.1-0.9-0.4-1.3c-0.3-0.3-0.7-0.5-1.1-0.5c-0.4,0-0.9,0.2-1.2,0.5
				c-0.3,0.4-0.5,0.8-0.6,1.3H279z"/>
			<path class="st6" d="M286.7,149.6h-1v-1l0,0c-0.4,0.8-1.2,1.2-2.1,1.2c-0.7,0-1.4-0.3-1.8-0.8c-0.5-0.6-0.7-1.4-0.7-2.2
				c0-0.9,0.2-1.7,0.8-2.4c0.5-0.6,1.2-0.9,2-0.9c0.7,0,1.4,0.3,1.8,1l0,0v-3.7h1V149.6z M285.7,146.9V146c0-0.5-0.2-0.9-0.5-1.2
				c-0.3-0.3-0.8-0.5-1.2-0.5c-0.5,0-1.1,0.2-1.4,0.6c-0.4,0.5-0.5,1.1-0.5,1.8c0,0.6,0.1,1.2,0.5,1.6c0.3,0.4,0.8,0.6,1.3,0.6
				c0.5,0,1-0.2,1.3-0.6C285.5,147.9,285.7,147.4,285.7,146.9L285.7,146.9z"/>
			<path class="st6" d="M289,142c-0.3,0-0.6-0.3-0.6-0.6c0-0.2,0.1-0.3,0.2-0.4c0.1-0.1,0.3-0.2,0.4-0.2c0.2,0,0.3,0.1,0.5,0.2
				c0.2,0.2,0.3,0.6,0,0.9c0,0,0,0,0,0C289.3,141.9,289.2,142,289,142z M289.5,149.5h-1v-6h1V149.5z"/>
			<path class="st6" d="M294.4,144.5c-0.2-0.1-0.5-0.2-0.7-0.2c-0.4,0-0.8,0.2-1,0.6c-0.3,0.5-0.5,1-0.4,1.6v3.1h-1v-6h1v1.2l0,0
				c0.1-0.4,0.3-0.7,0.6-1c0.3-0.2,0.6-0.4,0.9-0.4c0.2,0,0.4,0,0.6,0.1V144.5z"/>
			<path class="st6" d="M300.3,146.8H296c0,0.6,0.2,1.1,0.5,1.5c0.4,0.4,0.9,0.6,1.4,0.6c0.7,0,1.3-0.2,1.9-0.7v0.9
				c-0.6,0.4-1.4,0.6-2.1,0.6c-0.8,0-1.5-0.3-2-0.8c-1-1.4-1-3.2,0.1-4.6c0.5-0.6,1.2-0.9,2-0.9c0.7,0,1.4,0.2,1.8,0.8
				c0.5,0.6,0.7,1.4,0.6,2.1L300.3,146.8z M299.3,146c0-0.5-0.1-0.9-0.4-1.3c-0.3-0.3-0.7-0.5-1.1-0.5c-0.4,0-0.9,0.2-1.2,0.5
				c-0.3,0.4-0.5,0.8-0.6,1.3H299.3z"/>
			<path class="st6" d="M305.9,149.3c-0.5,0.3-1.1,0.4-1.6,0.4c-0.8,0-1.5-0.3-2.1-0.8c-0.5-0.6-0.8-1.4-0.8-2.2
				c0-0.9,0.3-1.7,0.9-2.4c0.6-0.6,1.4-0.9,2.3-0.9c0.5,0,1,0.1,1.4,0.3v1c-0.4-0.3-0.9-0.5-1.4-0.5c-0.6,0-1.1,0.2-1.5,0.6
				c-0.4,0.5-0.6,1.1-0.6,1.7c0,0.6,0.2,1.2,0.6,1.7c0.4,0.4,0.9,0.6,1.5,0.6c0.5,0,1.1-0.2,1.5-0.5V149.3z"/>
			<path class="st6" d="M310.3,149.5c-0.3,0.1-0.6,0.2-0.9,0.2c-1,0-1.6-0.6-1.6-1.8v-3.6h-1v-0.8h1v-1.5l1-0.3v1.8h1.5v0.8h-1.5
				v3.4c0,0.3,0,0.6,0.2,0.9c0.2,0.2,0.4,0.3,0.7,0.3c0.2,0,0.4-0.1,0.6-0.2L310.3,149.5z"/>
			<path class="st6" d="M321.1,146.2c0,2.4-1.1,3.5-3.2,3.5s-3.1-1.1-3.1-3.4v-5.1h1v5.1c0,1.7,0.7,2.6,2.2,2.6s2.1-0.8,2.1-2.5
				v-5.2h1L321.1,146.2z"/>
			<path class="st6" d="M329.2,149.6H328l-1.4-2.4c-0.1-0.2-0.2-0.4-0.4-0.6c-0.1-0.1-0.2-0.3-0.4-0.4c-0.1-0.1-0.3-0.2-0.4-0.2
				c-0.2,0-0.3-0.1-0.5-0.1h-0.8v3.6h-1v-8.4h2.5c0.3,0,0.7,0,1,0.1c0.3,0.1,0.6,0.2,0.8,0.4c0.2,0.2,0.4,0.4,0.5,0.7
				c0.1,0.3,0.2,0.7,0.2,1c0,0.3,0,0.5-0.1,0.8c-0.1,0.2-0.2,0.5-0.4,0.6c-0.2,0.2-0.4,0.4-0.6,0.5c-0.2,0.1-0.5,0.2-0.8,0.3l0,0
				c0.1,0.1,0.3,0.1,0.4,0.2c0.1,0.1,0.2,0.2,0.3,0.3l0.3,0.4l0.3,0.5L329.2,149.6z M324.2,142.1v3h1.3c0.2,0,0.5,0,0.7-0.1
				c0.2-0.1,0.4-0.2,0.5-0.3c0.2-0.1,0.3-0.3,0.4-0.5c0.1-0.2,0.1-0.4,0.1-0.7c0-0.4-0.1-0.8-0.4-1.1c-0.4-0.3-0.8-0.4-1.3-0.4
				L324.2,142.1z"/>
			<path class="st6" d="M334.6,149.6h-4.4v-8.4h1v7.5h3.4L334.6,149.6z"/>
		</g>
		<polygon class="st5" points="482.2,0.5 474.6,5.9 477.5,14.7 486.9,14.7 489.8,5.9 		"/>
		<g>
			<path class="st6" d="M500,5.7h-2.4v7.5h-1V5.7h-2.4V4.8h5.9V5.7z"/>
			<path class="st6" d="M502.8,13.3c-0.8,0-1.6-0.3-2.1-0.8c-0.5-0.6-0.8-1.4-0.8-2.2c0-0.9,0.3-1.7,0.8-2.4
				c0.6-0.6,1.4-0.9,2.3-0.9c0.8,0,1.5,0.3,2.1,0.8c0.5,0.6,0.8,1.5,0.8,2.3c0,0.8-0.2,1.7-0.8,2.3C504.5,13,503.7,13.3,502.8,13.3z
				 M502.9,7.8c-0.6,0-1.1,0.2-1.5,0.6c-0.4,0.5-0.6,1.1-0.5,1.7c0,0.6,0.2,1.2,0.5,1.7c0.4,0.4,0.9,0.6,1.5,0.6
				c0.5,0,1.1-0.2,1.4-0.6c0.4-0.5,0.5-1.1,0.5-1.7c0-0.6-0.1-1.2-0.5-1.7C504,8,503.5,7.8,502.9,7.8z"/>
			<path class="st6" d="M512.3,13.2h-1.4l-2.6-2.9l0,0v2.9h-1V4.3h1v5.6l0,0l2.5-2.8h1.3l-2.8,2.9L512.3,13.2z"/>
			<path class="st6" d="M517.8,10.4h-4.2c0,0.6,0.2,1.1,0.5,1.6c0.4,0.4,0.9,0.6,1.4,0.6c0.7,0,1.3-0.2,1.9-0.7v0.9
				c-0.6,0.4-1.4,0.6-2.1,0.6c-0.8,0-1.5-0.3-2-0.8c-0.5-0.7-0.8-1.5-0.7-2.3c0-0.8,0.3-1.7,0.8-2.3c0.5-0.6,1.2-0.9,2-0.9
				c0.7,0,1.4,0.2,1.8,0.8c0.5,0.6,0.7,1.4,0.7,2.1L517.8,10.4z M516.8,9.6c0-0.5-0.1-0.9-0.4-1.3c-0.3-0.3-0.7-0.5-1.1-0.5
				c-0.4,0-0.9,0.2-1.2,0.5c-0.3,0.3-0.5,0.8-0.6,1.3L516.8,9.6z"/>
			<path class="st6" d="M524.2,13.2h-1V9.7c0-1.3-0.5-1.9-1.4-1.9c-0.5,0-0.9,0.2-1.2,0.5c-0.3,0.4-0.5,0.9-0.5,1.4v3.4h-1v-6h1v1
				l0,0c0.4-0.7,1.2-1.2,2-1.1c0.6,0,1.1,0.2,1.5,0.6c0.4,0.5,0.6,1.2,0.5,1.8L524.2,13.2z"/>
			<path class="st6" d="M525.7,13v-1c0.5,0.4,1.1,0.6,1.7,0.6c0.8,0,1.3-0.3,1.3-0.9c0-0.1,0-0.3-0.1-0.4c-0.1-0.1-0.2-0.2-0.3-0.3
				c-0.1-0.1-0.3-0.2-0.4-0.2l-0.5-0.2c-0.2-0.1-0.5-0.2-0.7-0.3c-0.2-0.1-0.4-0.2-0.5-0.4c-0.1-0.1-0.2-0.3-0.3-0.5
				c-0.1-0.2-0.1-0.4-0.1-0.6c0-0.3,0.1-0.5,0.2-0.8c0.1-0.2,0.3-0.4,0.5-0.5c0.2-0.2,0.5-0.3,0.7-0.3c0.3-0.1,0.6-0.2,0.9-0.2
				c0.5,0,1,0.1,1.4,0.3v1c-0.5-0.3-1-0.4-1.5-0.4c-0.2,0-0.3,0-0.5,0.1c-0.1,0-0.3,0.1-0.4,0.2c-0.1,0.1-0.2,0.2-0.2,0.3
				c-0.1,0.1-0.1,0.2-0.1,0.4c0,0.1,0,0.3,0.1,0.4c0.1,0.1,0.1,0.2,0.3,0.3c0.1,0.1,0.3,0.2,0.4,0.2l0.5,0.2
				c0.2,0.1,0.5,0.2,0.7,0.3c0.2,0.1,0.4,0.2,0.5,0.4c0.1,0.1,0.3,0.3,0.3,0.5c0.1,0.2,0.1,0.4,0.1,0.6c0,0.3-0.1,0.5-0.2,0.8
				c-0.1,0.2-0.3,0.4-0.5,0.6c-0.2,0.1-0.5,0.3-0.8,0.3c-0.3,0.1-0.6,0.1-0.9,0.1C526.7,13.3,526.2,13.2,525.7,13z"/>
		</g>
		<g>
			<path class="st6" d="M161,15.7h-1v-3.4c0-1.3-0.5-1.9-1.4-1.9c-0.5,0-0.9,0.2-1.2,0.5c-0.3,0.4-0.5,0.9-0.5,1.4v3.4h-1V6.8h1v3.9
				l0,0c0.4-0.7,1.2-1.2,2-1.1c1.4,0,2,0.8,2,2.4L161,15.7z"/>
			<path class="st6" d="M165.4,15.6c-0.3,0.1-0.6,0.2-0.9,0.2c-1.1,0-1.6-0.6-1.6-1.8v-3.6h-1V9.7h1V8.2l1-0.3v1.8h1.5v0.8H164v3.4
				c0,0.3,0,0.6,0.2,0.9c0.2,0.2,0.4,0.3,0.7,0.3c0.2,0,0.4-0.1,0.6-0.2L165.4,15.6z"/>
			<path class="st6" d="M169.8,15.6c-0.3,0.1-0.6,0.2-0.9,0.2c-1.1,0-1.6-0.6-1.6-1.8v-3.6h-1V9.7h1V8.2l1-0.3v1.8h1.5v0.8h-1.5v3.4
				c0,0.3,0,0.6,0.2,0.9c0.2,0.2,0.4,0.3,0.7,0.3c0.2,0,0.4-0.1,0.6-0.2L169.8,15.6z"/>
			<path class="st6" d="M172,14.8L172,14.8v3.6h-1V9.7h1v1.1l0,0c0.4-0.7,1.2-1.2,2-1.2c0.7,0,1.4,0.3,1.8,0.8
				c0.5,0.6,0.7,1.4,0.6,2.2c0,0.9-0.2,1.7-0.7,2.4c-0.5,0.6-1.2,0.9-2,0.9C173,15.8,172.4,15.4,172,14.8z M172,12.4v0.8
				c0,0.5,0.2,0.9,0.5,1.3c0.7,0.7,1.8,0.7,2.4,0c0.1-0.1,0.1-0.1,0.2-0.2c0.4-0.6,0.5-1.2,0.5-1.9c0-0.6-0.1-1.1-0.5-1.6
				c-0.3-0.4-0.8-0.6-1.3-0.6c-0.5,0-1,0.2-1.3,0.6C172.2,11.3,172,11.8,172,12.4z"/>
			<path class="st6" d="M177.6,15.5v-1c0.5,0.4,1.1,0.6,1.7,0.6c0.8,0,1.3-0.3,1.3-0.9c0-0.1,0-0.3-0.1-0.4
				c-0.1-0.1-0.2-0.2-0.3-0.3c-0.1-0.1-0.3-0.2-0.4-0.2l-0.5-0.2c-0.2-0.1-0.5-0.2-0.7-0.3c-0.2-0.1-0.4-0.2-0.5-0.4
				c-0.1-0.1-0.2-0.3-0.3-0.5c-0.1-0.2-0.1-0.4-0.1-0.6c0-0.3,0.1-0.5,0.2-0.8c0.1-0.2,0.3-0.4,0.5-0.5c0.2-0.2,0.5-0.3,0.7-0.3
				c0.7-0.2,1.5-0.1,2.2,0.2v1c-0.5-0.3-1-0.4-1.5-0.4c-0.2,0-0.3,0-0.5,0.1c-0.1,0-0.3,0.1-0.4,0.2c-0.1,0.1-0.2,0.2-0.2,0.3
				c-0.1,0.1-0.1,0.2-0.1,0.4c0,0.3,0.1,0.5,0.3,0.7c0.1,0.1,0.3,0.2,0.4,0.2l0.5,0.2c0.2,0.1,0.5,0.2,0.7,0.3
				c0.2,0.1,0.4,0.2,0.5,0.4c0.1,0.1,0.3,0.3,0.3,0.5c0.1,0.2,0.1,0.4,0.1,0.6c0,0.3-0.1,0.5-0.2,0.8c-0.1,0.2-0.3,0.4-0.5,0.6
				c-0.2,0.1-0.5,0.3-0.8,0.3c-0.3,0.1-0.6,0.1-0.9,0.1C178.7,15.9,178.1,15.7,177.6,15.5z"/>
			<path class="st6" d="M183.3,10.8c-0.2,0-0.3-0.1-0.5-0.2c-0.3-0.3-0.3-0.7,0-0.9c0,0,0,0,0,0c0.1-0.1,0.3-0.2,0.5-0.2
				c0.2,0,0.3,0.1,0.5,0.2c0.3,0.3,0.3,0.7,0,0.9c0,0,0,0,0,0C183.6,10.8,183.5,10.8,183.3,10.8z M183.3,15.8
				c-0.2,0-0.3-0.1-0.5-0.2c-0.1-0.1-0.2-0.3-0.2-0.5c0-0.2,0.1-0.3,0.2-0.5c0.1-0.1,0.3-0.2,0.5-0.2c0.2,0,0.3,0.1,0.5,0.2
				c0.1,0.1,0.2,0.3,0.2,0.5c0,0.2-0.1,0.3-0.2,0.5C183.6,15.7,183.5,15.8,183.3,15.8z"/>
			<path class="st6" d="M189.3,7.3l-4,9.8h-0.9l4-9.8L189.3,7.3z"/>
			<path class="st6" d="M193,7.3l-4,9.8h-0.9l4-9.8L193,7.3z"/>
			<path class="st6" d="M198.8,9.7l-2.8,7c-0.5,1.3-1.2,1.9-2.1,1.9c-0.2,0-0.4,0-0.6-0.1v-0.9c0.2,0.1,0.4,0.1,0.6,0.1
				c0.5,0,1-0.4,1.1-0.9l0.5-1.1l-2.4-6h1.1l1.6,4.6c0,0.1,0.1,0.2,0.1,0.5l0,0c0-0.1,0.1-0.2,0.1-0.4l1.7-4.6L198.8,9.7z"/>
			<path class="st6" d="M202.1,15.8c-0.8,0.1-1.6-0.2-2.1-0.8c-0.5-0.6-0.8-1.4-0.8-2.2c0-0.9,0.3-1.7,0.8-2.4
				c0.6-0.6,1.4-0.9,2.2-0.9c0.8,0,1.5,0.3,2.1,0.8c0.5,0.6,0.8,1.5,0.8,2.3c0,0.8-0.3,1.7-0.8,2.3
				C203.7,15.6,202.9,15.8,202.1,15.8z M202.2,10.3c-0.6,0-1.1,0.2-1.5,0.6c-0.4,0.5-0.6,1.1-0.5,1.7c0,0.6,0.2,1.2,0.6,1.7
				c0.4,0.4,0.9,0.6,1.5,0.6c0.5,0,1.1-0.2,1.4-0.6c0.4-0.5,0.5-1.1,0.5-1.7c0-0.6-0.1-1.2-0.5-1.7
				C203.3,10.5,202.8,10.3,202.2,10.3z"/>
			<path class="st6" d="M211.5,15.7h-1v-0.9l0,0c-0.4,0.7-1.1,1.1-1.9,1.1c-1.4,0-2.1-0.9-2.1-2.6V9.7h1v3.4c0,1.3,0.5,1.9,1.4,1.9
				c0.4,0,0.9-0.2,1.2-0.5c0.3-0.4,0.5-0.9,0.5-1.4V9.7h1L211.5,15.7z"/>
			<path class="st6" d="M216.4,10.6c-0.2-0.1-0.5-0.2-0.7-0.2c-0.4,0-0.8,0.2-1,0.6c-0.3,0.5-0.4,1-0.4,1.6v3.1h-1v-6h1v1.2l0,0
				c0.1-0.4,0.3-0.7,0.6-1c0.3-0.2,0.6-0.4,1-0.4c0.2,0,0.4,0,0.6,0.1L216.4,10.6z"/>
			<path class="st6" d="M217.3,15.5v-1c0.5,0.4,1.1,0.6,1.7,0.6c0.8,0,1.3-0.3,1.3-0.9c0-0.1,0-0.3-0.1-0.4
				c-0.1-0.1-0.2-0.2-0.3-0.3c-0.1-0.1-0.3-0.2-0.4-0.2l-0.5-0.2c-0.2-0.1-0.5-0.2-0.7-0.3c-0.2-0.1-0.4-0.2-0.5-0.4
				c-0.1-0.1-0.2-0.3-0.3-0.5c-0.1-0.2-0.1-0.4-0.1-0.6c0-0.3,0.1-0.5,0.2-0.8c0.1-0.2,0.3-0.4,0.5-0.5c0.2-0.2,0.5-0.3,0.7-0.3
				c0.3-0.1,0.6-0.1,0.9-0.1c0.5,0,1,0.1,1.4,0.3v1c-0.5-0.3-1-0.4-1.5-0.4c-0.2,0-0.3,0-0.5,0.1c-0.1,0-0.3,0.1-0.4,0.2
				c-0.1,0.1-0.2,0.2-0.2,0.3c-0.1,0.1-0.1,0.2-0.1,0.4c0,0.1,0,0.3,0.1,0.4c0.1,0.1,0.1,0.2,0.3,0.3c0.1,0.1,0.3,0.2,0.4,0.2
				l0.5,0.2c0.2,0.1,0.5,0.2,0.7,0.3c0.2,0.1,0.4,0.2,0.5,0.4c0.1,0.1,0.3,0.3,0.4,0.5c0.1,0.2,0.1,0.4,0.1,0.6
				c0,0.3-0.1,0.5-0.2,0.8c-0.1,0.2-0.3,0.4-0.5,0.6c-0.2,0.1-0.5,0.3-0.8,0.3c-0.3,0.1-0.6,0.1-0.9,0.1
				C218.3,15.9,217.8,15.7,217.3,15.5z"/>
			<path class="st6" d="M223.1,8.1c-0.2,0-0.3-0.1-0.4-0.2c-0.1-0.1-0.2-0.3-0.2-0.4c0-0.2,0.1-0.3,0.2-0.4c0.1-0.1,0.3-0.2,0.4-0.2
				c0.2,0,0.3,0.1,0.4,0.2c0.1,0.1,0.2,0.3,0.2,0.4c0,0.2-0.1,0.3-0.2,0.4C223.5,8.1,223.3,8.1,223.1,8.1z M223.6,15.7h-1v-6h1V15.7
				z"/>
			<path class="st6" d="M228.3,15.6c-0.3,0.1-0.6,0.2-0.9,0.2c-1,0-1.6-0.6-1.6-1.8v-3.6h-1V9.7h1V8.2l1-0.3v1.8h1.5v0.8h-1.5v3.4
				c0,0.3,0,0.6,0.2,0.9c0.2,0.2,0.4,0.3,0.7,0.3c0.2,0,0.4-0.1,0.6-0.2L228.3,15.6z"/>
			<path class="st6" d="M234.3,12.9H230c0,0.6,0.2,1.1,0.5,1.6c0.4,0.4,0.9,0.6,1.5,0.6c0.7,0,1.3-0.2,1.9-0.7v0.9
				c-0.6,0.4-1.4,0.6-2.1,0.6c-0.8,0-1.5-0.3-2-0.8c-0.5-0.7-0.8-1.5-0.7-2.3c0-0.8,0.2-1.7,0.8-2.3c0.5-0.6,1.2-0.9,2-0.9
				c0.7,0,1.4,0.2,1.8,0.8c0.5,0.6,0.7,1.4,0.6,2.1L234.3,12.9z M233.3,12.1c0-0.5-0.1-0.9-0.4-1.3c-0.3-0.3-0.7-0.5-1.1-0.5
				c-0.4,0-0.9,0.2-1.2,0.5c-0.3,0.3-0.5,0.8-0.6,1.3L233.3,12.1z"/>
			<path class="st6" d="M236,15.8c-0.2,0-0.3-0.1-0.5-0.2c-0.1-0.1-0.2-0.3-0.2-0.5c0-0.2,0.1-0.3,0.2-0.5c0.2-0.3,0.6-0.3,0.9,0
				c0,0,0,0,0,0c0.1,0.1,0.2,0.3,0.2,0.5C236.7,15.5,236.4,15.8,236,15.8L236,15.8z"/>
			<path class="st6" d="M242.2,15.4c-0.5,0.3-1.1,0.4-1.6,0.4c-0.8,0-1.5-0.3-2.1-0.8c-0.5-0.6-0.8-1.4-0.8-2.2
				c0-0.9,0.3-1.7,0.9-2.4c0.6-0.6,1.4-0.9,2.3-0.9c0.5,0,1,0.1,1.4,0.3v1c-0.4-0.3-0.9-0.5-1.4-0.5c-0.6,0-1.1,0.2-1.5,0.7
				c-0.4,0.5-0.6,1.1-0.6,1.7c0,0.6,0.2,1.2,0.6,1.7c0.4,0.4,0.9,0.6,1.5,0.6c0.5,0,1.1-0.2,1.5-0.5L242.2,15.4z"/>
			<path class="st6" d="M246,15.8c-0.8,0-1.6-0.3-2.1-0.8c-0.6-0.6-0.8-1.4-0.8-2.2c0-0.9,0.3-1.7,0.8-2.4c0.6-0.6,1.4-0.9,2.2-0.9
				c0.8,0,1.6,0.3,2.1,0.8c0.5,0.6,0.8,1.5,0.8,2.3c0,0.8-0.2,1.7-0.8,2.3C247.6,15.5,246.8,15.8,246,15.8z M246.1,10.3
				c-0.6,0-1.1,0.2-1.5,0.6c-0.4,0.5-0.6,1.1-0.5,1.7c0,0.6,0.2,1.2,0.5,1.7c0.4,0.4,0.9,0.6,1.5,0.6c0.5,0,1.1-0.2,1.4-0.6
				c0.4-0.5,0.5-1.1,0.5-1.7c0-0.6-0.1-1.2-0.5-1.7C247.1,10.5,246.6,10.3,246.1,10.3L246.1,10.3z"/>
			<path class="st6" d="M259,15.7h-1v-3.4c0-0.5-0.1-1-0.3-1.4c-0.2-0.3-0.6-0.5-1-0.4c-0.4,0-0.8,0.2-1,0.6
				c-0.3,0.4-0.4,0.9-0.4,1.4v3.4h-1v-3.6c0-1.2-0.5-1.8-1.4-1.8c-0.4,0-0.8,0.2-1,0.5c-0.3,0.4-0.4,0.9-0.4,1.4v3.4h-1v-6h1v0.9
				l0,0c0.4-0.7,1.1-1.1,1.9-1.1c0.8,0,1.5,0.5,1.7,1.2c0.4-0.8,1.1-1.3,2-1.2c1.3,0,2,0.8,2,2.4L259,15.7z"/>
		</g>
		<g>
			<path class="st6" d="M482.3,85.7h-1.1l-0.9-2.3h-3.6l-0.8,2.3h-1.1l3.2-8.4h1L482.3,85.7z M480,82.4l-1.3-3.6
				c-0.1-0.2-0.1-0.4-0.1-0.6l0,0c0,0.2-0.1,0.4-0.1,0.6l-1.4,3.6H480z"/>
			<path class="st6" d="M488,85.7h-1v-1l0,0c-0.4,0.7-1.1,1.1-1.9,1.1c-1.4,0-2.1-0.8-2.1-2.6v-3.5h1v3.4c0,1.3,0.5,1.9,1.5,1.9
				c0.4,0,0.9-0.2,1.2-0.5c0.3-0.4,0.5-0.9,0.5-1.4v-3.5h1L488,85.7z"/>
			<path class="st6" d="M492.7,85.6c-0.3,0.1-0.6,0.2-0.9,0.2c-1,0-1.6-0.6-1.6-1.8v-3.5h-1v-0.8h1v-1.5l1-0.3v1.8h1.5v0.8h-1.5v3.4
				c0,0.3,0,0.6,0.2,0.9c0.2,0.2,0.4,0.3,0.7,0.3c0.2,0,0.4-0.1,0.6-0.2L492.7,85.6z"/>
			<path class="st6" d="M498.9,85.7h-1v-3.5c0-1.3-0.5-1.9-1.4-1.9c-0.5,0-0.9,0.2-1.2,0.5c-0.3,0.4-0.5,0.9-0.5,1.4v3.4h-1v-8.9h1
				v3.9l0,0c0.4-0.7,1.2-1.2,2-1.1c1.4,0,2,0.8,2,2.4L498.9,85.7z"/>
			<path class="st6" d="M503.2,85.8c-0.8,0-1.6-0.3-2.1-0.8c-0.6-0.6-0.8-1.4-0.8-2.2c0-0.9,0.3-1.7,0.8-2.4
				c0.6-0.6,1.4-0.9,2.2-0.8c0.8,0,1.6,0.3,2.1,0.8c0.5,0.6,0.8,1.5,0.8,2.3c0,0.8-0.2,1.7-0.8,2.3C504.8,85.5,504,85.8,503.2,85.8z
				 M503.3,80.3c-0.6,0-1.1,0.2-1.5,0.6c-0.4,0.5-0.6,1.1-0.5,1.7c0,0.6,0.2,1.2,0.5,1.7c0.4,0.4,0.9,0.6,1.5,0.6
				c0.5,0,1.1-0.2,1.4-0.6c0.4-0.5,0.5-1.1,0.5-1.7c0-0.6-0.1-1.2-0.5-1.7C504.3,80.5,503.8,80.3,503.3,80.3L503.3,80.3z"/>
			<path class="st6" d="M510.8,80.6c-0.2-0.1-0.5-0.2-0.7-0.2c-0.4,0-0.8,0.2-1,0.6c-0.3,0.5-0.4,1-0.4,1.6v3.1h-1v-6h1v1.2l0,0
				c0.1-0.4,0.3-0.7,0.6-1c0.3-0.2,0.6-0.3,0.9-0.3c0.2,0,0.4,0,0.6,0.1L510.8,80.6z"/>
			<path class="st6" d="M512.4,78.1c-0.2,0-0.3-0.1-0.4-0.2c-0.1-0.1-0.2-0.3-0.2-0.4c0-0.3,0.3-0.6,0.6-0.6l0,0
				c0.2,0,0.3,0.1,0.4,0.2c0.1,0.1,0.2,0.3,0.2,0.4c0,0.2-0.1,0.3-0.2,0.4C512.7,78.1,512.5,78.1,512.4,78.1z M512.8,85.7h-1v-6h1
				V85.7z"/>
			<path class="st6" d="M518.9,79.9l-3.5,4.9h3.5v0.8H514v-0.3l3.6-4.9h-3.2v-0.8h4.6L518.9,79.9z"/>
			<path class="st6" d="M524.6,85.7h-1v-0.9l0,0c-0.4,0.7-1.1,1.1-1.8,1.1c-0.5,0-1-0.1-1.4-0.5c-0.3-0.3-0.5-0.8-0.5-1.3
				c0-1.1,0.7-1.8,2-2l1.8-0.3c0-1-0.4-1.5-1.2-1.5c-0.7,0-1.4,0.3-2,0.7v-1c0.6-0.4,1.3-0.6,2-0.6c1.4,0,2.1,0.8,2.1,2.2
				L524.6,85.7z M523.6,82.7l-1.4,0.2c-0.4,0-0.7,0.1-1,0.3c-0.2,0.2-0.4,0.5-0.3,0.8c0,0.3,0.1,0.5,0.3,0.7
				c0.3,0.2,0.6,0.3,0.9,0.3c0.4,0,0.9-0.2,1.2-0.5c0.3-0.3,0.5-0.8,0.5-1.3L523.6,82.7z"/>
			<path class="st6" d="M529.1,85.6c-0.3,0.1-0.6,0.2-0.9,0.2c-1,0-1.6-0.6-1.6-1.8v-3.5h-1v-0.8h1v-1.5l1-0.3v1.8h1.5v0.8h-1.5v3.4
				c0,0.3,0,0.6,0.2,0.9c0.2,0.2,0.4,0.3,0.7,0.3c0.2,0,0.4-0.1,0.6-0.2L529.1,85.6z"/>
			<path class="st6" d="M530.8,78.1c-0.2,0-0.3-0.1-0.4-0.2c-0.1-0.1-0.2-0.3-0.2-0.4c0-0.2,0.1-0.3,0.2-0.4
				c0.1-0.1,0.3-0.2,0.4-0.2c0.2,0,0.3,0.1,0.4,0.2c0.1,0.1,0.2,0.3,0.2,0.4c0,0.2-0.1,0.3-0.2,0.4
				C531.1,78.1,530.9,78.1,530.8,78.1z M531.2,85.7h-1v-6h1V85.7z"/>
			<path class="st6" d="M535.6,85.8c-0.8,0-1.6-0.3-2.1-0.8c-0.6-0.6-0.8-1.4-0.8-2.2c0-0.9,0.3-1.7,0.8-2.4
				c0.6-0.6,1.4-0.9,2.2-0.8c0.8,0,1.6,0.3,2.1,0.8c0.5,0.6,0.8,1.5,0.8,2.3c0,0.8-0.2,1.7-0.8,2.3
				C537.2,85.5,536.4,85.8,535.6,85.8z M535.7,80.3c-0.6,0-1.1,0.2-1.5,0.6c-0.4,0.5-0.6,1.1-0.5,1.7c0,0.6,0.2,1.2,0.5,1.7
				c0.4,0.4,0.9,0.6,1.5,0.6c0.5,0,1.1-0.2,1.4-0.6c0.4-0.5,0.5-1.1,0.5-1.7c0-0.6-0.1-1.2-0.5-1.7
				C536.8,80.5,536.2,80.3,535.7,80.3z"/>
			<path class="st6" d="M545.1,85.7h-1v-3.4c0-1.3-0.5-1.9-1.4-1.9c-0.5,0-0.9,0.2-1.2,0.5c-0.3,0.4-0.5,0.9-0.5,1.4v3.4h-1v-6h1v1
				l0,0c0.4-0.7,1.2-1.2,2-1.1c0.6,0,1.1,0.2,1.5,0.6c0.4,0.5,0.6,1.2,0.5,1.8L545.1,85.7z"/>
			<path class="st6" d="M479.7,98.4c-0.5,0.3-1.1,0.4-1.6,0.4c-0.8,0-1.5-0.2-2.1-0.8c-0.5-0.6-0.8-1.4-0.8-2.2
				c0-0.9,0.3-1.7,0.9-2.4c0.6-0.6,1.4-0.9,2.3-0.9c0.5,0,1,0.1,1.4,0.3v1c-0.4-0.3-0.9-0.5-1.4-0.5c-0.6,0-1.1,0.2-1.5,0.7
				c-0.4,0.5-0.6,1.1-0.6,1.7c0,0.6,0.2,1.2,0.6,1.7c0.4,0.4,0.9,0.6,1.5,0.6c0.5,0,1.1-0.2,1.5-0.5L479.7,98.4z"/>
			<path class="st6" d="M483.5,98.8c-0.8,0-1.6-0.2-2.1-0.8c-0.5-0.6-0.8-1.4-0.8-2.2c-0.1-0.9,0.2-1.7,0.8-2.4
				c0.6-0.6,1.4-0.9,2.2-0.8c0.8,0,1.6,0.3,2.1,0.8c0.5,0.6,0.8,1.5,0.8,2.3c0,0.8-0.2,1.7-0.8,2.3
				C485.1,98.6,484.3,98.9,483.5,98.8z M483.6,93.3c-0.6,0-1.1,0.2-1.5,0.6c-0.4,0.5-0.6,1.1-0.5,1.7c0,0.6,0.2,1.2,0.5,1.7
				c0.4,0.4,0.9,0.6,1.5,0.6c0.5,0,1.1-0.2,1.4-0.6c0.4-0.5,0.5-1.1,0.5-1.7c0-0.6-0.1-1.2-0.5-1.7
				C484.7,93.5,484.1,93.3,483.6,93.3z"/>
			<path class="st6" d="M493.2,98.7h-1v-1l0,0c-0.4,0.8-1.2,1.2-2.1,1.2c-0.7,0-1.4-0.3-1.8-0.8c-0.5-0.6-0.7-1.4-0.7-2.2
				c0-0.9,0.2-1.7,0.8-2.4c0.5-0.6,1.2-0.9,2-0.9c0.7,0,1.4,0.3,1.8,1l0,0v-3.8h1L493.2,98.7z M492.2,96v-0.9c0-0.5-0.2-0.9-0.5-1.2
				c-0.3-0.3-0.8-0.5-1.2-0.5c-0.5,0-1.1,0.2-1.4,0.7c-0.4,0.5-0.5,1.1-0.5,1.8c0,0.6,0.1,1.2,0.5,1.6c0.3,0.4,0.8,0.6,1.3,0.6
				c0.5,0,1-0.2,1.3-0.6C492,97,492.2,96.5,492.2,96L492.2,96z"/>
			<path class="st6" d="M499.9,95.9h-4.2c0,0.6,0.2,1.1,0.5,1.6c0.4,0.4,0.9,0.6,1.4,0.6c0.7,0,1.3-0.2,1.9-0.7v0.9
				c-0.6,0.4-1.4,0.6-2.1,0.6c-0.8,0-1.5-0.3-2-0.8c-0.5-0.6-0.8-1.5-0.7-2.3c0-0.8,0.2-1.7,0.8-2.3c0.5-0.6,1.2-0.9,2-0.9
				c0.7,0,1.4,0.2,1.8,0.8c0.5,0.6,0.7,1.4,0.6,2.1L499.9,95.9z M498.9,95.1c0-0.5-0.1-0.9-0.4-1.3c-0.3-0.3-0.7-0.5-1.1-0.5
				c-0.4,0-0.9,0.2-1.2,0.5c-0.3,0.3-0.5,0.8-0.6,1.3L498.9,95.1z"/>
		</g>
		<g>
			<path class="st6" d="M249,85.7h-1.1l-0.9-2.4h-3.6l-0.8,2.3h-1.1l3.2-8.4h1L249,85.7z M246.7,82.4l-1.3-3.6
				c-0.1-0.2-0.1-0.4-0.1-0.6l0,0c0,0.2-0.1,0.4-0.1,0.6l-1.3,3.6H246.7z"/>
			<path class="st6" d="M254.8,85.7h-1v-1l0,0c-0.4,0.7-1.1,1.1-1.9,1.1c-1.4,0-2.1-0.8-2.1-2.6v-3.5h1v3.4c0,1.3,0.5,1.9,1.4,1.9
				c0.4,0,0.9-0.2,1.2-0.5c0.3-0.4,0.5-0.9,0.4-1.4v-3.5h1L254.8,85.7z"/>
			<path class="st6" d="M259.4,85.6c-0.3,0.1-0.6,0.2-0.9,0.2c-1,0-1.6-0.6-1.6-1.8v-3.5h-1v-0.8h1v-1.5l1-0.3v1.8h1.5v0.8H258v3.4
				c0,0.3,0,0.6,0.2,0.9c0.2,0.2,0.4,0.3,0.7,0.3c0.2,0,0.4-0.1,0.6-0.2L259.4,85.6z"/>
			<path class="st6" d="M265.6,85.7h-1v-3.5c0-1.3-0.5-1.9-1.4-1.9c-0.5,0-0.9,0.2-1.2,0.5c-0.3,0.4-0.5,0.9-0.5,1.4v3.4h-1v-8.9h1
				v3.9l0,0c0.4-0.7,1.2-1.2,2-1.1c1.4,0,2,0.8,2,2.4L265.6,85.7z"/>
			<path class="st6" d="M269.9,85.8c-0.8,0-1.6-0.3-2.1-0.8c-0.6-0.6-0.8-1.4-0.8-2.2c0-0.9,0.3-1.7,0.8-2.4
				c0.6-0.6,1.4-0.9,2.2-0.8c0.8,0,1.6,0.3,2.1,0.8c0.5,0.6,0.8,1.5,0.8,2.3c0,0.8-0.2,1.7-0.8,2.3
				C271.5,85.5,270.7,85.8,269.9,85.8z M270,80.3c-0.6,0-1.1,0.2-1.5,0.6c-0.4,0.5-0.6,1.1-0.5,1.7c0,0.6,0.2,1.2,0.5,1.7
				c0.4,0.4,0.9,0.6,1.5,0.6c0.5,0,1.1-0.2,1.4-0.6c0.4-0.5,0.5-1.1,0.5-1.7c0-0.6-0.1-1.2-0.5-1.7C271.1,80.5,270.5,80.3,270,80.3
				L270,80.3z"/>
			<path class="st6" d="M277.5,80.6c-0.2-0.1-0.5-0.2-0.7-0.2c-0.4,0-0.8,0.2-1,0.6c-0.3,0.5-0.4,1-0.4,1.6v3.1h-1v-6h1v1.2l0,0
				c0.1-0.4,0.3-0.7,0.6-1c0.3-0.2,0.6-0.3,1-0.3c0.2,0,0.4,0,0.6,0.1V80.6z"/>
			<path class="st6" d="M279.1,78.1c-0.2,0-0.3-0.1-0.4-0.2c-0.1-0.1-0.2-0.3-0.2-0.4c0-0.2,0.1-0.3,0.2-0.4
				c0.1-0.1,0.3-0.2,0.4-0.2c0.2,0,0.3,0.1,0.4,0.2c0.1,0.1,0.2,0.3,0.2,0.4c0,0.2-0.1,0.3-0.2,0.4
				C279.4,78.1,279.2,78.1,279.1,78.1z M279.5,85.7h-1v-6h1V85.7z"/>
			<path class="st6" d="M285.6,79.9l-3.5,4.9h3.5v0.8h-4.9v-0.3l3.5-4.9H281v-0.8h4.6L285.6,79.9z"/>
			<path class="st6" d="M291.3,85.7h-1v-0.9l0,0c-0.4,0.7-1.1,1.1-1.9,1.1c-0.5,0-1-0.1-1.4-0.5c-0.3-0.3-0.5-0.8-0.5-1.3
				c0-1.1,0.7-1.8,2-2l1.8-0.3c0-1-0.4-1.5-1.2-1.5c-0.7,0-1.4,0.3-2,0.7v-1c0.6-0.4,1.3-0.6,2-0.6c1.4,0,2.1,0.8,2.1,2.2
				L291.3,85.7z M290.3,82.7l-1.4,0.2c-0.4,0-0.7,0.1-1,0.3c-0.2,0.2-0.4,0.5-0.3,0.8c0,0.3,0.1,0.5,0.3,0.7
				c0.2,0.2,0.5,0.3,0.8,0.3c0.4,0,0.9-0.2,1.2-0.5c0.3-0.3,0.5-0.8,0.5-1.3L290.3,82.7z"/>
			<path class="st6" d="M295.8,85.6c-0.3,0.1-0.6,0.2-0.9,0.2c-1,0-1.6-0.6-1.6-1.8v-3.5h-1v-0.8h1v-1.5l1-0.3v1.8h1.5v0.8h-1.5v3.4
				c0,0.3,0,0.6,0.2,0.9c0.2,0.2,0.4,0.3,0.7,0.3c0.2,0,0.4-0.1,0.6-0.2L295.8,85.6z"/>
			<path class="st6" d="M297.5,78.1c-0.2,0-0.3,0-0.5-0.1c-0.1-0.1-0.2-0.3-0.2-0.4c0-0.2,0.1-0.3,0.2-0.4c0.1-0.1,0.3-0.2,0.4-0.2
				c0.2,0,0.3,0.1,0.4,0.2c0.1,0.1,0.2,0.3,0.2,0.4c0,0.2-0.1,0.3-0.2,0.4C297.8,78.1,297.6,78.1,297.5,78.1z M298,85.7h-1v-6h1
				V85.7z"/>
			<path class="st6" d="M302.3,85.8c-0.8,0-1.6-0.2-2.1-0.8c-0.6-0.6-0.8-1.4-0.8-2.2c0-0.9,0.3-1.7,0.8-2.4
				c0.6-0.6,1.4-0.9,2.2-0.8c0.8,0,1.6,0.3,2.1,0.8c0.5,0.6,0.8,1.5,0.8,2.3c0,0.8-0.2,1.7-0.8,2.3
				C303.9,85.6,303.1,85.9,302.3,85.8z M302.4,80.3c-0.6,0-1.1,0.2-1.5,0.6c-0.4,0.5-0.6,1.1-0.5,1.7c0,0.6,0.2,1.2,0.5,1.7
				c0.4,0.4,0.9,0.6,1.5,0.6c0.5,0,1.1-0.2,1.4-0.6c0.4-0.5,0.5-1.1,0.5-1.7c0-0.6-0.1-1.2-0.5-1.7
				C303.5,80.5,302.9,80.3,302.4,80.3z"/>
			<path class="st6" d="M311.8,85.7h-1v-3.4c0-1.3-0.5-1.9-1.4-1.9c-0.5,0-0.9,0.2-1.2,0.5c-0.3,0.4-0.5,0.9-0.5,1.4v3.4h-1v-6h1v1
				l0,0c0.4-0.7,1.2-1.2,2-1.1c0.6,0,1.1,0.2,1.5,0.6c0.4,0.5,0.6,1.2,0.5,1.8L311.8,85.7z"/>
			<path class="st6" d="M246.4,98.4c-0.5,0.3-1.1,0.4-1.6,0.4c-0.8,0-1.5-0.3-2.1-0.8c-0.5-0.6-0.8-1.4-0.8-2.2
				c0-0.9,0.3-1.7,0.9-2.4c0.6-0.6,1.4-0.9,2.3-0.9c0.5,0,1,0.1,1.4,0.3v1c-0.4-0.3-0.9-0.5-1.4-0.5c-0.6,0-1.1,0.2-1.5,0.7
				c-0.4,0.5-0.6,1.1-0.6,1.7c0,0.6,0.2,1.2,0.6,1.7c0.4,0.4,0.9,0.6,1.5,0.6c0.5,0,1.1-0.2,1.5-0.5L246.4,98.4z"/>
			<path class="st6" d="M250.2,98.8c-0.8,0-1.6-0.3-2.1-0.8c-0.5-0.6-0.8-1.4-0.8-2.2c-0.1-0.9,0.2-1.7,0.8-2.4
				c0.6-0.6,1.4-0.9,2.2-0.8c0.8,0,1.5,0.3,2.1,0.8c0.5,0.6,0.8,1.5,0.8,2.3c0,0.8-0.2,1.7-0.8,2.3C251.8,98.5,251,98.8,250.2,98.8z
				 M250.3,93.3c-0.6,0-1.1,0.2-1.5,0.6c-0.4,0.5-0.6,1.1-0.5,1.7c0,0.6,0.2,1.2,0.6,1.7c0.4,0.4,0.9,0.6,1.4,0.6
				c0.5,0,1.1-0.2,1.4-0.6c0.4-0.5,0.5-1.1,0.5-1.7c0-0.6-0.1-1.2-0.5-1.7C251.4,93.5,250.8,93.3,250.3,93.3z"/>
			<path class="st6" d="M259.9,98.7h-1v-1l0,0c-0.4,0.8-1.2,1.2-2.1,1.2c-0.7,0-1.4-0.3-1.8-0.8c-0.5-0.6-0.7-1.4-0.7-2.2
				c0-0.9,0.2-1.7,0.8-2.4c0.5-0.6,1.2-0.9,2-0.9c0.7,0,1.4,0.3,1.8,1l0,0v-3.7h1L259.9,98.7z M258.9,96v-0.9c0-0.5-0.2-0.9-0.5-1.2
				c-0.3-0.3-0.8-0.5-1.2-0.5c-0.5,0-1.1,0.2-1.4,0.7c-0.4,0.5-0.5,1.1-0.5,1.8c0,0.6,0.1,1.2,0.5,1.6c0.3,0.4,0.8,0.6,1.3,0.6
				c0.5,0,1-0.2,1.3-0.6C258.7,97,258.9,96.5,258.9,96L258.9,96z"/>
			<path class="st6" d="M266.6,95.9h-4.2c0,0.6,0.2,1.1,0.5,1.6c0.4,0.4,0.9,0.6,1.4,0.6c0.7,0,1.3-0.2,1.9-0.7v0.9
				c-0.6,0.4-1.4,0.6-2.1,0.6c-0.8,0-1.5-0.3-2-0.8c-1-1.4-1-3.2,0.1-4.6c0.5-0.6,1.2-0.9,2-0.9c0.7,0,1.4,0.2,1.8,0.8
				c0.5,0.6,0.7,1.4,0.6,2.1L266.6,95.9z M265.6,95.1c0-0.5-0.1-0.9-0.4-1.3c-0.3-0.3-0.7-0.5-1.1-0.5c-0.4,0-0.9,0.2-1.2,0.5
				c-0.3,0.3-0.5,0.8-0.6,1.3L265.6,95.1z"/>
		</g>
		<g>
			<path class="st6" d="M162.1,46.7H161l-1.4-2.3c-0.1-0.2-0.2-0.4-0.4-0.6c-0.1-0.1-0.2-0.3-0.4-0.4c-0.1-0.1-0.3-0.2-0.4-0.2
				c-0.2-0.1-0.3-0.1-0.5-0.1h-0.8v3.6h-1v-8.4h2.5c0.3,0,0.7,0,1,0.1c0.3,0.1,0.6,0.2,0.8,0.4c0.2,0.2,0.4,0.4,0.5,0.7
				c0.1,0.3,0.2,0.7,0.2,1c0,0.3,0,0.5-0.1,0.8c-0.1,0.2-0.2,0.5-0.4,0.7c-0.2,0.2-0.4,0.4-0.6,0.5c-0.2,0.1-0.5,0.2-0.8,0.3l0,0
				c0.1,0.1,0.3,0.1,0.4,0.2c0.1,0.1,0.2,0.2,0.3,0.3c0.1,0.1,0.2,0.2,0.3,0.4c0.1,0.1,0.2,0.3,0.3,0.5L162.1,46.7z M157.1,39.2v3
				h1.3c0.2,0,0.5,0,0.7-0.1c0.2-0.1,0.4-0.2,0.6-0.3c0.2-0.1,0.3-0.3,0.4-0.5c0.1-0.2,0.1-0.4,0.1-0.7c0-0.4-0.1-0.7-0.4-1
				c-0.4-0.3-0.8-0.4-1.3-0.4H157.1z"/>
			<path class="st6" d="M167.8,43.9h-4.2c0,0.6,0.2,1.1,0.5,1.5c0.4,0.4,0.9,0.6,1.4,0.5c0.7,0,1.3-0.2,1.9-0.7v0.9
				c-0.6,0.4-1.4,0.6-2.1,0.6c-0.8,0-1.5-0.3-2-0.8c-0.5-0.6-0.8-1.5-0.7-2.3c0-0.8,0.2-1.7,0.8-2.3c0.5-0.6,1.2-0.9,2-0.9
				c0.7,0,1.4,0.2,1.8,0.8c0.5,0.6,0.7,1.4,0.6,2.1L167.8,43.9z M166.8,43.1c0-0.5-0.1-0.9-0.4-1.3c-0.3-0.3-0.7-0.5-1.1-0.5
				c-0.4,0-0.9,0.2-1.2,0.5c-0.3,0.3-0.5,0.8-0.6,1.3L166.8,43.1z"/>
			<path class="st6" d="M174.4,46.7h-1v-1l0,0c-0.4,0.8-1.2,1.2-2.1,1.2c-0.7,0-1.4-0.3-1.8-0.8c-0.5-0.6-0.7-1.4-0.7-2.2
				c0-0.9,0.2-1.7,0.8-2.4c0.5-0.6,1.2-0.9,2-0.9c0.7,0,1.4,0.3,1.8,1l0,0v-3.8h1V46.7z M173.4,44v-0.9c0-0.5-0.2-0.9-0.5-1.2
				c-0.3-0.3-0.8-0.5-1.2-0.5c-0.5,0-1.1,0.2-1.4,0.7c-0.4,0.5-0.5,1.1-0.5,1.8c0,0.6,0.1,1.2,0.5,1.6c0.3,0.4,0.8,0.6,1.3,0.6
				c0.5,0,1-0.2,1.3-0.6C173.3,45,173.5,44.5,173.4,44L173.4,44z"/>
			<path class="st6" d="M176.8,39.2c-0.2,0-0.3-0.1-0.4-0.2c-0.1-0.1-0.2-0.3-0.2-0.4c0-0.2,0.1-0.3,0.2-0.5
				c0.1-0.1,0.3-0.2,0.4-0.2c0.2,0,0.3,0.1,0.4,0.2c0.2,0.2,0.3,0.6,0,0.9c0,0,0,0,0,0C177.1,39.1,176.9,39.2,176.8,39.2z
				 M177.2,46.7h-1v-6h1V46.7z"/>
			<path class="st6" d="M182.2,41.7c-0.2-0.1-0.5-0.2-0.7-0.2c-0.4,0-0.8,0.2-1,0.6c-0.3,0.5-0.4,1-0.4,1.6v3.1h-1v-6h1v1.2l0,0
				c0.1-0.4,0.3-0.7,0.6-1c0.3-0.2,0.6-0.3,0.9-0.3c0.2,0,0.4,0,0.6,0.1V41.7z"/>
			<path class="st6" d="M188.1,43.9h-4.2c0,0.6,0.2,1.1,0.5,1.5c0.4,0.4,0.9,0.6,1.4,0.5c0.7,0,1.3-0.2,1.9-0.7v0.9
				c-0.6,0.4-1.4,0.6-2.1,0.6c-0.8,0-1.5-0.3-2-0.8c-0.5-0.7-0.8-1.5-0.7-2.3c0-0.8,0.2-1.7,0.8-2.3c0.5-0.6,1.2-0.9,2-0.9
				c0.7,0,1.4,0.2,1.8,0.8c0.5,0.6,0.7,1.4,0.6,2.1L188.1,43.9z M187.1,43.1c0-0.5-0.1-0.9-0.4-1.3c-0.3-0.3-0.7-0.5-1.1-0.5
				c-0.4,0-0.9,0.2-1.2,0.5c-0.3,0.3-0.5,0.8-0.6,1.3L187.1,43.1z"/>
			<path class="st6" d="M193.6,46.4c-0.5,0.3-1.1,0.4-1.6,0.4c-0.8,0-1.5-0.3-2.1-0.8c-0.5-0.6-0.8-1.4-0.8-2.2
				c0-0.9,0.3-1.7,0.9-2.4c0.6-0.6,1.4-0.9,2.3-0.9c0.5,0,1,0.1,1.4,0.3v1c-0.4-0.3-0.9-0.5-1.4-0.5c-0.6,0-1.1,0.2-1.5,0.7
				c-0.4,0.5-0.6,1.1-0.6,1.7c0,0.6,0.2,1.2,0.6,1.7c0.4,0.4,0.9,0.6,1.5,0.6c0.5,0,1.1-0.2,1.5-0.5L193.6,46.4z"/>
			<path class="st6" d="M198.1,46.6c-0.3,0.1-0.6,0.2-0.9,0.2c-1,0-1.6-0.6-1.6-1.8v-3.6h-1v-0.8h1v-1.5l1-0.3v1.8h1.5v0.8h-1.5v3.4
				c0,0.3,0,0.6,0.2,0.9c0.2,0.2,0.4,0.3,0.7,0.3c0.2,0,0.4-0.1,0.6-0.2L198.1,46.6z"/>
		</g>
		<g>
			<path class="st6" d="M157.1,112.7v3.2h-1v-8.4h2.3c0.8-0.1,1.5,0.2,2.1,0.7c0.5,0.5,0.8,1.2,0.7,1.8c0,0.8-0.3,1.5-0.8,2
				c-0.6,0.5-1.4,0.8-2.2,0.8L157.1,112.7z M157.1,108.4v3.4h1c0.6,0,1.1-0.1,1.6-0.5c0.4-0.3,0.6-0.8,0.5-1.3c0-1.1-0.7-1.7-2-1.7
				H157.1z"/>
			<path class="st6" d="M165.6,110.8c-0.2-0.1-0.5-0.2-0.7-0.2c-0.4,0-0.8,0.2-1,0.6c-0.3,0.5-0.4,1-0.4,1.6v3h-1v-6h1v1.2l0,0
				c0.1-0.4,0.3-0.7,0.6-1c0.3-0.2,0.6-0.3,0.9-0.3c0.2,0,0.4,0,0.6,0.1L165.6,110.8z"/>
			<path class="st6" d="M169.2,116c-0.8,0-1.6-0.3-2.1-0.8c-0.6-0.6-0.8-1.4-0.8-2.2c0-0.9,0.3-1.7,0.8-2.4c0.6-0.6,1.4-0.9,2.2-0.8
				c0.8,0,1.6,0.3,2.1,0.8c0.5,0.6,0.8,1.5,0.8,2.3c0,0.8-0.2,1.7-0.8,2.3C170.8,115.7,170,116,169.2,116z M169.3,110.5
				c-0.6,0-1.1,0.2-1.5,0.6c-0.4,0.5-0.6,1.1-0.5,1.7c0,0.6,0.2,1.2,0.5,1.7c0.4,0.4,0.9,0.6,1.5,0.6c0.5,0,1.1-0.2,1.4-0.6
				c0.4-0.5,0.5-1.1,0.5-1.7c0-0.6-0.1-1.2-0.5-1.7C170.4,110.7,169.8,110.5,169.3,110.5L169.3,110.5z"/>
			<path class="st6" d="M182.2,115.9h-1v-3.4c0-0.5-0.1-1-0.3-1.4c-0.2-0.3-0.6-0.5-1-0.4c-0.4,0-0.8,0.2-1.1,0.6
				c-0.3,0.4-0.4,0.9-0.4,1.3v3.4h-1v-3.6c0-1.2-0.5-1.8-1.4-1.8c-0.4,0-0.8,0.2-1,0.5c-0.3,0.4-0.4,0.9-0.4,1.4v3.4h-1v-6h1v1l0,0
				c0.4-0.7,1.1-1.1,1.9-1.1c0.8,0,1.5,0.5,1.7,1.3c0.4-0.8,1.1-1.3,2-1.3c1.3,0,2,0.8,2,2.4L182.2,115.9z"/>
			<path class="st6" d="M184.9,115L184.9,115v3.6h-1v-8.8h1v1.1l0,0c0.4-0.8,1.2-1.2,2.1-1.2c0.7,0,1.4,0.3,1.8,0.8
				c0.5,0.6,0.7,1.4,0.6,2.2c0,0.9-0.2,1.7-0.7,2.4c-0.5,0.6-1.2,0.9-2,0.9C186,116,185.3,115.6,184.9,115z M184.9,112.6v0.8
				c0,0.5,0.2,0.9,0.5,1.3c0.7,0.7,1.8,0.7,2.4,0c0.1-0.1,0.1-0.1,0.2-0.2c0.4-0.6,0.5-1.2,0.5-1.9c0-0.6-0.1-1.1-0.5-1.6
				c-0.3-0.4-0.8-0.6-1.3-0.6c-0.5,0-1,0.2-1.4,0.6C185.1,111.5,184.9,112,184.9,112.6L184.9,112.6z"/>
			<path class="st6" d="M193.7,115.8c-0.3,0.1-0.6,0.2-0.9,0.2c-1,0-1.6-0.6-1.6-1.8v-3.6h-1v-0.8h1v-1.5l1-0.3v1.8h1.5v0.8h-1.6
				v3.4c0,0.3,0,0.6,0.2,0.9c0.2,0.2,0.4,0.3,0.7,0.3c0.2,0,0.4-0.1,0.6-0.2V115.8z"/>
			<path class="st6" d="M202.4,115.6c-0.5,0.3-1.1,0.4-1.6,0.4c-0.8,0-1.5-0.3-2.1-0.8c-0.5-0.6-0.8-1.4-0.8-2.2
				c0-0.9,0.3-1.7,0.9-2.4c0.6-0.6,1.4-0.9,2.3-0.9c0.5,0,1,0.1,1.4,0.3v1c-0.4-0.3-0.9-0.5-1.4-0.5c-0.6,0-1.1,0.2-1.5,0.7
				c-0.4,0.5-0.6,1.1-0.6,1.7c0,0.6,0.2,1.2,0.6,1.7c0.4,0.4,0.9,0.6,1.5,0.6c0.5,0,1.1-0.2,1.5-0.5L202.4,115.6z"/>
			<path class="st6" d="M206.8,110.8c-0.2-0.1-0.5-0.2-0.7-0.2c-0.4,0-0.8,0.2-1,0.6c-0.3,0.5-0.4,1-0.4,1.6v3h-1v-6h1v1.2l0,0
				c0.1-0.4,0.3-0.7,0.6-1c0.3-0.2,0.6-0.3,0.9-0.3c0.2,0,0.4,0,0.6,0.1L206.8,110.8z"/>
			<path class="st6" d="M212.7,113.1h-4.2c0,0.6,0.2,1.1,0.5,1.6c0.4,0.4,0.9,0.6,1.4,0.6c0.7,0,1.3-0.2,1.9-0.7v0.9
				c-0.6,0.4-1.3,0.6-2.1,0.6c-0.8,0-1.5-0.3-2-0.8c-0.5-0.7-0.8-1.5-0.7-2.3c0-0.8,0.2-1.6,0.8-2.3c0.5-0.6,1.2-0.9,2-0.9
				c0.7,0,1.4,0.2,1.8,0.8c0.5,0.6,0.7,1.4,0.6,2.1L212.7,113.1z M211.7,112.3c0-0.5-0.1-0.9-0.4-1.3c-0.3-0.3-0.7-0.5-1.1-0.5
				c-0.4,0-0.9,0.2-1.2,0.5c-0.3,0.3-0.5,0.8-0.6,1.3L211.7,112.3z"/>
			<path class="st6" d="M219.3,115.9h-1v-1l0,0c-0.7,1.1-2.2,1.5-3.3,0.8c-0.2-0.1-0.4-0.3-0.6-0.5c-0.5-0.6-0.7-1.4-0.7-2.2
				c0-0.9,0.2-1.7,0.8-2.4c0.5-0.6,1.2-0.9,2-0.9c0.7,0,1.4,0.3,1.8,1l0,0V107h1L219.3,115.9z M218.3,113.2v-0.9
				c0-0.5-0.2-0.9-0.5-1.2c-0.3-0.3-0.8-0.5-1.2-0.5c-0.5,0-1.1,0.2-1.4,0.7c-0.4,0.5-0.5,1.1-0.5,1.8c0,0.6,0.1,1.2,0.5,1.6
				c0.3,0.4,0.8,0.6,1.3,0.6c0.5,0,1-0.2,1.3-0.6C218.2,114.2,218.4,113.7,218.3,113.2L218.3,113.2z"/>
			<path class="st6" d="M226,113.1h-4.2c0,0.6,0.2,1.1,0.5,1.6c0.4,0.4,0.9,0.6,1.4,0.6c0.7,0,1.3-0.2,1.9-0.7v0.9
				c-0.6,0.4-1.3,0.6-2.1,0.6c-0.8,0-1.5-0.3-2-0.8c-0.5-0.7-0.8-1.5-0.7-2.3c0-0.8,0.3-1.7,0.8-2.3c0.5-0.6,1.2-0.9,2-0.9
				c0.7,0,1.4,0.2,1.8,0.8c0.5,0.6,0.7,1.4,0.6,2.1L226,113.1z M225,112.3c0-0.5-0.1-0.9-0.4-1.3c-0.3-0.3-0.7-0.5-1.1-0.5
				c-0.4,0-0.9,0.2-1.1,0.5c-0.3,0.3-0.5,0.8-0.6,1.3L225,112.3z"/>
			<path class="st6" d="M232.4,115.9h-1v-3.4c0-1.3-0.5-1.9-1.4-1.9c-0.5,0-0.9,0.2-1.2,0.5c-0.3,0.4-0.5,0.9-0.5,1.4v3.4h-1v-6h1v1
				l0,0c0.4-0.7,1.2-1.2,2-1.1c0.6,0,1.1,0.2,1.5,0.6c0.4,0.5,0.6,1.2,0.5,1.8L232.4,115.9z"/>
			<path class="st6" d="M236.9,115.8c-0.3,0.1-0.6,0.2-0.9,0.2c-1.1,0-1.6-0.6-1.6-1.8v-3.6h-1v-0.8h1v-1.5l1-0.3v1.8h1.5v0.8h-1.5
				v3.4c0,0.3,0,0.6,0.2,0.9c0.2,0.2,0.4,0.3,0.7,0.3c0.2,0,0.4-0.1,0.6-0.2L236.9,115.8z"/>
			<path class="st6" d="M238.6,108.3c-0.2,0-0.3-0.1-0.4-0.2c-0.2-0.3-0.2-0.6,0-0.9c0.1-0.1,0.3-0.2,0.4-0.2c0.2,0,0.3,0.1,0.4,0.2
				c0.1,0.1,0.2,0.3,0.2,0.4c0,0.2-0.1,0.3-0.2,0.4C239,108.3,238.8,108.3,238.6,108.3z M239.1,115.9h-1v-6h1V115.9z"/>
			<path class="st6" d="M245.2,115.9h-1v-0.9l0,0c-0.4,0.7-1.1,1.1-1.8,1.1c-0.5,0-1-0.1-1.4-0.5c-0.3-0.3-0.5-0.8-0.5-1.3
				c0-1.1,0.7-1.8,2-2l1.8-0.3c0-1-0.4-1.5-1.2-1.5c-0.7,0-1.4,0.3-2,0.7v-1c0.6-0.4,1.3-0.6,2-0.6c1.4,0,2.1,0.8,2.1,2.2
				L245.2,115.9z M244.2,112.9l-1.4,0.2c-0.4,0-0.7,0.1-1,0.3c-0.2,0.2-0.4,0.5-0.3,0.8c0,0.3,0.1,0.5,0.3,0.7
				c0.2,0.2,0.5,0.3,0.8,0.3c0.4,0,0.9-0.2,1.2-0.5c0.3-0.3,0.5-0.8,0.5-1.3L244.2,112.9z"/>
			<path class="st6" d="M247.9,115.9h-1V107h1V115.9z"/>
			<path class="st6" d="M249.5,115.7v-1c0.5,0.4,1.1,0.6,1.7,0.6c0.8,0,1.3-0.3,1.3-0.8c0-0.1,0-0.3-0.1-0.4
				c-0.1-0.1-0.2-0.2-0.3-0.3c-0.1-0.1-0.3-0.2-0.4-0.2l-0.5-0.2c-0.2-0.1-0.5-0.2-0.7-0.3c-0.2-0.1-0.4-0.2-0.5-0.4
				c-0.1-0.1-0.2-0.3-0.3-0.5c-0.1-0.2-0.1-0.4-0.1-0.6c0-0.3,0.1-0.5,0.2-0.8c0.1-0.2,0.3-0.4,0.5-0.5c0.2-0.2,0.5-0.3,0.7-0.3
				c0.3-0.1,0.6-0.1,0.9-0.1c0.5,0,1,0.1,1.4,0.3v1c-0.5-0.3-1-0.4-1.5-0.4c-0.2,0-0.3,0-0.5,0.1c-0.1,0-0.3,0.1-0.4,0.2
				c-0.1,0.1-0.2,0.2-0.2,0.3c-0.1,0.1-0.1,0.2-0.1,0.3c0,0.1,0,0.3,0.1,0.4c0.1,0.1,0.1,0.2,0.3,0.3c0.1,0.1,0.3,0.2,0.4,0.2
				l0.5,0.2c0.3,0.1,0.5,0.2,0.7,0.3c0.2,0.1,0.4,0.2,0.5,0.4c0.1,0.1,0.3,0.3,0.4,0.5c0.1,0.2,0.1,0.4,0.1,0.6
				c0,0.3-0.1,0.5-0.2,0.8c-0.1,0.2-0.3,0.4-0.5,0.6c-0.2,0.1-0.5,0.3-0.8,0.3c-0.3,0.1-0.6,0.1-0.9,0.1
				C250.5,116.1,250,115.9,249.5,115.7z"/>
		</g>
		<g>
			<path class="st0" d="M590.5,74.2h-1.9v-5c0-0.5,0-1.1,0.1-1.8h0c-0.1,0.4-0.1,0.7-0.3,1.1l-2,5.7h-1.5l-2-5.7
				c-0.1-0.4-0.2-0.8-0.3-1.2h-0.1c0,0.8,0.1,1.6,0.1,2.2v4.7h-1.7v-8.4h2.8l1.7,5c0.1,0.4,0.2,0.8,0.3,1.2l0,0
				c0.1-0.4,0.2-0.8,0.3-1.2l1.7-5h2.7L590.5,74.2z"/>
			<path class="st0" d="M593.1,67.3c-0.3,0-0.6-0.1-0.8-0.3c-0.2-0.2-0.3-0.4-0.3-0.7c0-0.3,0.1-0.5,0.3-0.7
				c0.2-0.2,0.5-0.3,0.8-0.3c0.3,0,0.6,0.1,0.8,0.3c0.2,0.2,0.3,0.4,0.3,0.7c0,0.3-0.1,0.5-0.3,0.7
				C593.7,67.2,593.4,67.3,593.1,67.3z M594,74.2h-1.8v-6h1.8L594,74.2z"/>
			<path class="st0" d="M600.1,74c-0.6,0.3-1.2,0.4-1.8,0.4c-0.8,0-1.6-0.3-2.2-0.8c-0.6-0.6-0.9-1.4-0.9-2.2c0-0.9,0.3-1.8,0.9-2.4
				c0.7-0.6,1.5-0.9,2.5-0.9c0.5,0,1.1,0.1,1.5,0.3v1.6c-0.4-0.3-0.8-0.4-1.3-0.4c-0.5,0-0.9,0.1-1.3,0.5c-0.3,0.3-0.5,0.8-0.5,1.3
				c0,0.5,0.1,0.9,0.4,1.3c0.3,0.3,0.8,0.5,1.2,0.4c0.5,0,1-0.2,1.3-0.4L600.1,74z"/>
			<path class="st0" d="M605.3,69.9c-0.2-0.1-0.5-0.2-0.8-0.2c-0.4,0-0.7,0.2-0.9,0.4c-0.2,0.3-0.4,0.8-0.3,1.2v2.9h-1.8v-6h1.8v1.1
				l0,0c0.2-0.7,0.8-1.2,1.6-1.2c0.2,0,0.3,0,0.5,0.1L605.3,69.9z"/>
			<path class="st0" d="M609.2,74.4c-0.9,0-1.7-0.3-2.4-0.8c-0.6-0.6-0.9-1.4-0.9-2.3c0-0.9,0.3-1.7,0.9-2.3
				c0.7-0.6,1.5-0.9,2.4-0.8c0.9,0,1.7,0.3,2.3,0.8c0.6,0.6,0.9,1.4,0.8,2.2c0,0.9-0.3,1.7-0.9,2.4C610.9,74.1,610,74.4,609.2,74.4z
				 M609.2,69.5c-0.4,0-0.8,0.2-1,0.4c-0.3,0.4-0.4,0.8-0.4,1.3c0,1.2,0.5,1.7,1.4,1.7s1.3-0.6,1.3-1.8S610.1,69.5,609.2,69.5
				L609.2,69.5z"/>
			<path class="st0" d="M613.3,74.1v-1.5c0.3,0.2,0.6,0.3,0.9,0.4c0.3,0.1,0.6,0.1,0.9,0.1c0.3,0,0.5,0,0.8-0.1
				c0.2-0.1,0.3-0.2,0.3-0.4c0-0.1,0-0.2-0.1-0.3c-0.1-0.1-0.2-0.1-0.3-0.2c-0.1-0.1-0.3-0.1-0.5-0.2l-0.5-0.2
				c-0.2-0.1-0.4-0.2-0.6-0.3c-0.2-0.1-0.3-0.2-0.5-0.4c-0.1-0.1-0.2-0.3-0.3-0.5c-0.1-0.2-0.1-0.4-0.1-0.6c0-0.3,0.1-0.6,0.2-0.9
				c0.1-0.2,0.3-0.4,0.6-0.6c0.3-0.2,0.5-0.3,0.8-0.3c0.3-0.1,0.7-0.1,1-0.1c0.3,0,0.5,0,0.8,0.1c0.3,0,0.5,0.1,0.8,0.2v1.4
				c-0.2-0.1-0.5-0.2-0.8-0.3c-0.3-0.1-0.5-0.1-0.8-0.1c-0.1,0-0.2,0-0.3,0c-0.1,0-0.2,0.1-0.3,0.1c-0.1,0-0.1,0.1-0.2,0.2
				c0,0.1-0.1,0.1-0.1,0.2c0,0.1,0,0.2,0.1,0.3c0.1,0.1,0.2,0.2,0.3,0.2l0.4,0.2l0.4,0.1c0.2,0.1,0.5,0.2,0.7,0.3
				c0.2,0.1,0.4,0.2,0.5,0.4c0.1,0.1,0.3,0.3,0.3,0.5c0.1,0.2,0.1,0.4,0.1,0.7c0,0.3-0.1,0.6-0.2,0.9c-0.2,0.3-0.4,0.5-0.6,0.6
				c-0.3,0.2-0.6,0.3-0.9,0.3c-0.3,0.1-0.7,0.1-1,0.1C614.5,74.3,613.9,74.3,613.3,74.1z"/>
			<path class="st0" d="M621.8,74.4c-0.9,0-1.7-0.3-2.4-0.8c-1.2-1.3-1.2-3.3,0-4.6c0.7-0.6,1.5-0.9,2.4-0.8
				c0.9-0.1,1.7,0.3,2.3,0.8c0.6,0.6,0.9,1.4,0.8,2.2c0,0.9-0.3,1.7-0.9,2.4C623.6,74.1,622.7,74.4,621.8,74.4z M621.8,69.5
				c-0.4,0-0.8,0.2-1,0.4c-0.3,0.4-0.4,0.8-0.4,1.3c0,1.2,0.5,1.7,1.4,1.7s1.3-0.6,1.3-1.8S622.8,69.5,621.8,69.5L621.8,69.5z"/>
			<path class="st0" d="M630.2,66.7c-0.2-0.1-0.4-0.1-0.7-0.1c-0.6,0-0.9,0.3-0.9,1v0.6h1.4v1.4h-1.4v4.6h-1.8v-4.7h-1v-1.4h1v-0.8
				c0-0.6,0.2-1.2,0.7-1.7c0.5-0.4,1.1-0.7,1.8-0.6c0.3,0,0.6,0,0.9,0.1L630.2,66.7z"/>
			<path class="st0" d="M634.8,74.1c-0.4,0.2-0.8,0.2-1.2,0.2c-1,0.1-1.9-0.5-2-1.5c0-0.2,0-0.3,0-0.5v-2.8h-1v-1.4h1v-1.3l1.8-0.5
				v1.8h1.3v1.4h-1.3V72c0,0.6,0.3,0.9,0.8,0.9c0.2,0,0.4-0.1,0.6-0.2V74.1z"/>
			<path class="st0" d="M587.2,81.7c-0.3,0-0.6-0.1-0.8-0.3c-0.2-0.2-0.3-0.4-0.3-0.7c0-0.3,0.1-0.5,0.3-0.7
				c0.2-0.2,0.5-0.3,0.8-0.3c0.3,0,0.6,0.1,0.8,0.3c0.2,0.2,0.3,0.4,0.3,0.7c0,0.3-0.1,0.5-0.3,0.7
				C587.7,81.6,587.5,81.7,587.2,81.7z M588.1,88.7h-1.9v-6h1.9V88.7z"/>
			<path class="st0" d="M595.5,88.6h-1.9v-0.8l0,0c-0.4,0.6-1.1,1-1.9,1c-0.7,0-1.3-0.3-1.8-0.8c-0.5-0.6-0.7-1.4-0.7-2.2
				c0-0.9,0.2-1.7,0.8-2.4c0.5-0.6,1.2-0.9,2-0.9c0.7-0.1,1.3,0.3,1.6,0.8l0,0v-3.6h1.9L595.5,88.6z M593.7,85.7v-0.4
				c0-0.4-0.1-0.7-0.3-1c-0.2-0.3-0.6-0.4-0.9-0.4c-0.4,0-0.8,0.2-1,0.5c-0.2,0.4-0.4,0.9-0.3,1.3c0,0.4,0.1,0.9,0.3,1.2
				c0.2,0.3,0.6,0.4,0.9,0.4c0.4,0,0.7-0.2,0.9-0.4C593.6,86.5,593.7,86.1,593.7,85.7z"/>
			<path class="st0" d="M602.5,86.1h-3.9c0.1,0.9,0.6,1.3,1.7,1.3c0.6,0,1.2-0.2,1.7-0.5v1.3c-0.7,0.3-1.4,0.5-2.2,0.4
				c-0.8,0.1-1.6-0.2-2.3-0.8c-0.6-0.6-0.9-1.4-0.8-2.3c0-0.9,0.3-1.7,0.9-2.4c0.6-0.6,1.3-0.9,2.1-0.9c0.7,0,1.5,0.2,2,0.8
				c0.5,0.6,0.8,1.3,0.7,2.1L602.5,86.1z M600.8,85c0-0.9-0.3-1.3-1-1.3c-0.3,0-0.6,0.1-0.8,0.4c-0.2,0.3-0.4,0.6-0.4,0.9H600.8z"/>
			<path class="st0" d="M609.4,88.6h-1.8v-3.3c0-0.9-0.3-1.4-1-1.4c-0.3,0-0.6,0.1-0.8,0.4c-0.2,0.3-0.3,0.6-0.3,0.9v3.4h-1.9v-6
				h1.9v0.9l0,0c0.4-0.7,1.1-1.1,1.9-1.1c1.3,0,2,0.8,2,2.5L609.4,88.6z"/>
			<path class="st0" d="M614.5,88.5c-0.4,0.2-0.8,0.2-1.2,0.2c-1,0.1-1.9-0.5-2-1.5c0-0.2,0-0.3,0-0.5V84h-1v-1.4h1v-1.3l1.8-0.5
				v1.8h1.3V84h-1.3v2.4c0,0.6,0.3,0.9,0.8,0.9c0.2,0,0.4-0.1,0.6-0.2L614.5,88.5z"/>
			<path class="st0" d="M616.5,81.7c-0.3,0-0.6-0.1-0.8-0.3c-0.2-0.2-0.3-0.4-0.3-0.7c0-0.3,0.1-0.5,0.3-0.7
				c0.2-0.2,0.5-0.3,0.8-0.3c0.3,0,0.6,0.1,0.8,0.3c0.2,0.2,0.3,0.4,0.3,0.7c0,0.3-0.1,0.5-0.3,0.7
				C617.1,81.6,616.8,81.7,616.5,81.7z M617.4,88.7h-1.8v-6h1.8V88.7z"/>
			<path class="st0" d="M622.5,88.5c-0.4,0.2-0.8,0.2-1.2,0.2c-1,0.1-1.9-0.5-2-1.5c0-0.2,0-0.3,0-0.5V84h-1v-1.4h1v-1.3l1.8-0.5
				v1.8h1.3V84h-1.3v2.4c0,0.6,0.3,0.9,0.8,0.9c0.2,0,0.4-0.1,0.6-0.2L622.5,88.5z"/>
			<path class="st0" d="M629.6,82.6l-2.4,6.5c-0.6,1.6-1.5,2.3-2.7,2.3c-0.4,0-0.7,0-1.1-0.2v-1.5c0.2,0.1,0.5,0.2,0.8,0.2
				c0.4,0,0.9-0.2,1-0.7l0.3-0.8l-2.4-6h2l1.1,3.7c0.1,0.3,0.1,0.5,0.2,0.8l0,0c0-0.3,0.1-0.5,0.2-0.8l1.1-3.7L629.6,82.6z"/>
			<path class="st0" d="M585.2,102.3L585.2,102.3v3.5h-1.8V97h1.8v0.9l0,0c0.4-0.7,1.1-1,1.9-1c0.7,0,1.4,0.3,1.8,0.8
				c0.5,0.6,0.7,1.4,0.6,2.2c0,0.9-0.2,1.7-0.7,2.4c-0.5,0.6-1.2,0.9-2,0.9C586.2,103.2,585.6,102.9,585.2,102.3z M585.2,99.9v0.5
				c0,0.4,0.1,0.7,0.3,1c0.2,0.3,0.5,0.4,0.9,0.4c0.4,0,0.8-0.2,1-0.5c0.3-0.4,0.4-0.9,0.3-1.4c0-1.1-0.4-1.6-1.2-1.6
				c-0.4,0-0.7,0.1-0.9,0.4C585.3,99,585.2,99.4,585.2,99.9z"/>
			<path class="st0" d="M592.7,103h-1.9v-8.9h1.9V103z"/>
			<path class="st0" d="M599.3,103h-1.8v-0.9l0,0c-0.4,0.6-1,1-1.8,1c-0.5,0-1-0.1-1.4-0.5c-0.3-0.4-0.5-0.8-0.5-1.3
				c0-1.2,0.7-1.8,2.1-2l1.6-0.2c0-0.7-0.4-1-1.1-1c-0.7,0-1.4,0.2-2,0.6v-1.4c0.3-0.2,0.7-0.3,1.1-0.3c0.4-0.1,0.8-0.1,1.2-0.2
				c1.2-0.2,2.4,0.7,2.6,1.9c0,0.2,0,0.4,0,0.6L599.3,103z M597.5,100.6v-0.4l-1.1,0.1c-0.6,0.1-0.9,0.3-0.9,0.8
				c0,0.2,0.1,0.4,0.2,0.5c0.2,0.1,0.4,0.2,0.6,0.2c0.3,0,0.6-0.1,0.8-0.4C597.4,101.2,597.5,100.9,597.5,100.6L597.5,100.6z"/>
			<path class="st0" d="M604.3,102.9c-0.4,0.2-0.8,0.2-1.2,0.2c-1,0.1-1.9-0.5-2-1.5c0-0.2,0-0.3,0-0.5v-2.8h-1V97h1v-1.3l1.8-0.5
				V97h1.3v1.4h-1.3v2.4c0,0.6,0.2,0.9,0.7,0.9c0.2,0,0.4-0.1,0.6-0.2L604.3,102.9z"/>
			<path class="st0" d="M609.4,95.5c-0.2-0.1-0.5-0.1-0.7-0.1c-0.6,0-0.9,0.3-0.9,1V97h1.4v1.4h-1.4v4.6H606v-4.6h-1V97h1v-0.8
				c0-0.6,0.2-1.2,0.7-1.7c0.5-0.4,1.2-0.7,1.8-0.6c0.3,0,0.6,0,0.9,0.1L609.4,95.5z"/>
			<path class="st0" d="M613,103.2c-0.9,0-1.7-0.3-2.4-0.8c-1.2-1.3-1.2-3.3,0-4.6c0.7-0.6,1.5-0.9,2.4-0.8c0.9,0,1.7,0.3,2.3,0.8
				c0.6,0.6,0.9,1.4,0.8,2.2c0,0.9-0.3,1.7-0.9,2.4C614.7,102.9,613.9,103.2,613,103.2z M613,98.3c-0.4,0-0.8,0.2-1,0.4
				c-0.3,0.4-0.4,0.8-0.4,1.3c0,1.2,0.5,1.7,1.4,1.7s1.3-0.6,1.3-1.8S613.9,98.3,613,98.3z"/>
			<path class="st0" d="M621.3,98.7c-0.2-0.1-0.5-0.2-0.8-0.2c-0.4,0-0.7,0.2-0.9,0.4c-0.2,0.3-0.4,0.8-0.3,1.2v2.9h-1.8v-6h1.8v1.1
				l0,0c0.2-0.7,0.8-1.2,1.6-1.2c0.2,0,0.3,0,0.5,0.1L621.3,98.7z"/>
			<path class="st0" d="M631.7,103h-1.8v-3.4c0-0.9-0.3-1.3-1-1.3c-0.3,0-0.6,0.1-0.7,0.4c-0.2,0.3-0.3,0.6-0.3,1v3.3H626v-3.4
				c0-0.8-0.3-1.3-0.9-1.3c-0.3,0-0.6,0.1-0.8,0.4c-0.2,0.3-0.3,0.6-0.3,1v3.3h-1.8v-6h1.8v0.9l0,0c0.2-0.3,0.5-0.6,0.8-0.8
				c0.3-0.2,0.7-0.3,1.1-0.3c0.8-0.1,1.5,0.4,1.8,1.2c0.4-0.7,1.2-1.2,2-1.1c1.3,0,2,0.8,2,2.4L631.7,103z"/>
		</g>
		<g>
			<path class="st0" d="M360.2,34.1c0.1,0.9-0.2,1.8-0.8,2.6c-0.6,0.6-1.4,1-2.3,0.9c-0.4,0-0.8-0.1-1.2-0.2v-1.8
				c0.3,0.2,0.7,0.4,1.1,0.4c0.9,0,1.3-0.7,1.3-1.9V29h1.9L360.2,34.1z"/>
			<path class="st0" d="M366.8,37.4H365v-0.9l0,0c-0.4,0.6-1.1,1-1.8,1c-0.5,0-1-0.1-1.4-0.5c-0.3-0.4-0.5-0.8-0.5-1.3
				c0-1.2,0.7-1.8,2.1-2l1.6-0.2c0-0.7-0.4-1-1.1-1c-0.7,0-1.4,0.2-2,0.6v-1.4c0.3-0.2,0.7-0.3,1.1-0.4c0.4-0.1,0.8-0.1,1.2-0.1
				c1.2-0.2,2.4,0.7,2.6,1.9c0,0.2,0,0.4,0,0.6L366.8,37.4z M365,35v-0.4l-1.1,0.1c-0.6,0.1-0.9,0.3-0.9,0.8c0,0.2,0.1,0.4,0.2,0.5
				c0.2,0.1,0.4,0.2,0.6,0.2c0.3,0,0.6-0.1,0.9-0.4C364.9,35.7,365,35.3,365,35z"/>
			<path class="st0" d="M373.8,31.4l-2.2,6h-2.1l-2.1-6h2l1,3.7c0.1,0.3,0.2,0.7,0.2,1.1l0,0c0-0.3,0.1-0.7,0.2-1l1.1-3.7
				L373.8,31.4z"/>
			<path class="st0" d="M379.5,37.4h-1.8v-0.9l0,0c-0.4,0.6-1.1,1-1.8,1c-0.5,0-1-0.1-1.4-0.5c-0.3-0.4-0.5-0.8-0.5-1.3
				c0-1.2,0.7-1.8,2.1-2l1.6-0.2c0-0.7-0.4-1-1.1-1c-0.7,0-1.4,0.2-2,0.6v-1.4c0.3-0.2,0.7-0.3,1-0.4c0.4-0.1,0.8-0.1,1.2-0.1
				c1.2-0.2,2.4,0.7,2.6,1.9c0,0.2,0,0.4,0,0.6L379.5,37.4z M377.8,35v-0.4l-1.1,0.1c-0.6,0.1-0.9,0.3-0.9,0.8
				c0,0.2,0.1,0.4,0.2,0.5c0.2,0.1,0.4,0.2,0.6,0.2c0.3,0,0.6-0.1,0.9-0.4C377.7,35.7,377.8,35.3,377.8,35z"/>
			<path class="st0" d="M395.5,29l-2.2,8.4h-2.1l-1.4-5.4c-0.1-0.3-0.1-0.6-0.1-0.9l0,0c0,0.3-0.1,0.6-0.1,0.9l-1.5,5.4h-2.2
				l-2.2-8.4h2.1l1.2,5.6c0.1,0.3,0.1,0.7,0.1,1l0,0c0-0.3,0.1-0.7,0.2-1l1.6-5.6h2l1.4,5.6c0.1,0.3,0.1,0.6,0.1,0.9l0,0
				c0-0.3,0.1-0.6,0.1-0.9l1.2-5.6H395.5z"/>
			<path class="st0" d="M401.4,35h-3.9c0.1,0.9,0.6,1.3,1.6,1.3c0.6,0,1.2-0.2,1.7-0.5v1.3c-0.7,0.3-1.4,0.5-2.2,0.5
				c-1.5,0.2-2.9-1-3-2.5c0-0.2,0-0.4,0-0.5c0-0.9,0.3-1.7,0.9-2.4c0.6-0.6,1.3-0.9,2.1-0.9c0.7,0,1.5,0.2,2,0.8
				c0.5,0.6,0.8,1.3,0.7,2.1L401.4,35z M399.7,33.9c0-0.9-0.4-1.3-1-1.3c-0.3,0-0.6,0.1-0.8,0.4c-0.2,0.3-0.4,0.6-0.4,0.9H399.7z"/>
			<path class="st0" d="M404.5,36.8L404.5,36.8v0.7h-1.9v-8.9h1.9v3.8l0,0c0.4-0.7,1.2-1.1,2-1c0.7,0,1.4,0.3,1.8,0.8
				c0.4,0.6,0.7,1.4,0.6,2.2c0,0.9-0.2,1.7-0.7,2.4c-0.5,0.6-1.2,1-2,0.9C405.4,37.6,404.8,37.3,404.5,36.8z M404.4,34.2v0.6
				c0,0.4,0.1,0.7,0.3,1c0.2,0.3,0.5,0.4,0.9,0.4c0.4,0,0.8-0.2,1-0.5c0.3-0.4,0.4-0.9,0.4-1.4c0-0.4-0.1-0.8-0.3-1.2
				c-0.2-0.3-0.6-0.4-0.9-0.4c-0.4,0-0.7,0.1-0.9,0.4C404.5,33.5,404.4,33.8,404.4,34.2z"/>
			<path class="st0" d="M358.3,51.8h-2.1l-0.6-1.8h-3l-0.6,1.9H350l3-8.4h2.3L358.3,51.8z M355.2,48.5l-0.9-2.8
				c-0.1-0.2-0.1-0.5-0.1-0.8h0c0,0.2-0.1,0.5-0.1,0.7l-0.9,2.8H355.2z"/>
			<path class="st0" d="M361.1,51.2L361.1,51.2v3.4h-1.9v-8.8h1.8v0.9l0,0c0.7-1.1,2.2-1.4,3.3-0.6c0.2,0.1,0.3,0.2,0.5,0.4
				c0.4,0.6,0.7,1.4,0.6,2.2c0,0.9-0.2,1.7-0.7,2.4c-0.5,0.6-1.2,0.9-2,0.9C362,52,361.4,51.7,361.1,51.2z M361,48.7v0.5
				c0,0.4,0.1,0.7,0.3,1c0.2,0.3,0.5,0.4,0.9,0.4c0.4,0,0.8-0.2,1-0.5c0.3-0.4,0.4-0.9,0.4-1.4c0-1.1-0.4-1.6-1.2-1.6
				c-0.4,0-0.7,0.2-0.9,0.4C361.1,47.9,361,48.3,361,48.7z"/>
			<path class="st0" d="M368.5,51.2L368.5,51.2v3.4h-1.9v-8.8h1.9v0.9l0,0c0.4-0.7,1.2-1,1.9-1c0.7,0,1.4,0.3,1.8,0.8
				c0.5,0.6,0.7,1.4,0.6,2.2c0,0.9-0.2,1.7-0.7,2.4c-0.5,0.6-1.2,0.9-2,0.9C369.5,52.1,368.9,51.7,368.5,51.2z M368.5,48.7v0.5
				c0,0.4,0.1,0.7,0.3,1c0.2,0.3,0.5,0.4,0.9,0.4c0.4,0,0.8-0.2,1-0.5c0.2-0.4,0.3-0.9,0.3-1.4c0-1.1-0.4-1.6-1.2-1.6
				c-0.4,0-0.7,0.2-0.9,0.4C368.6,47.9,368.4,48.3,368.5,48.7L368.5,48.7z"/>
			<path class="st0" d="M376,51.8h-1.9V43h1.9V51.8z"/>
			<path class="st0" d="M378.4,44.9c-0.3,0-0.6-0.1-0.8-0.3c-0.2-0.2-0.3-0.4-0.3-0.7c0-0.3,0.1-0.5,0.3-0.7
				c0.2-0.2,0.5-0.3,0.8-0.3c0.3,0,0.6,0.1,0.8,0.3c0.4,0.3,0.4,0.9,0.1,1.3c0,0,0,0-0.1,0.1C379,44.8,378.7,44.9,378.4,44.9z
				 M379.4,51.9h-1.9v-6h1.9V51.9z"/>
			<path class="st0" d="M385.4,51.6c-0.6,0.3-1.2,0.4-1.8,0.4c-0.8,0-1.6-0.3-2.2-0.8c-0.6-0.6-0.9-1.4-0.9-2.2
				c0-0.9,0.3-1.8,0.9-2.4c0.7-0.6,1.6-0.9,2.5-0.9c0.5,0,1.1,0.1,1.5,0.3v1.6c-0.4-0.3-0.8-0.4-1.3-0.4c-1,0.1-1.8,0.9-1.7,1.9
				c0,0.4,0.2,0.8,0.4,1.1c0.3,0.3,0.8,0.5,1.2,0.5c0.5,0,1-0.2,1.4-0.4V51.6z"/>
			<path class="st0" d="M391.7,51.8H390V51l0,0c-0.4,0.6-1,1-1.8,1c-0.5,0-1-0.2-1.4-0.5c-0.3-0.4-0.5-0.8-0.5-1.3
				c0-1.2,0.7-1.8,2.1-2L390,48c0-0.7-0.4-1-1.1-1c-0.7,0-1.4,0.2-2,0.6v-1.4c0.3-0.2,0.7-0.3,1.1-0.3c0.4-0.1,0.8-0.1,1.2-0.2
				c1.2-0.2,2.4,0.7,2.6,1.9c0,0.2,0,0.4,0,0.6L391.7,51.8z M390,49.4V49l-1.1,0.1c-0.6,0.1-0.9,0.3-0.9,0.8c0,0.2,0.1,0.4,0.2,0.5
				c0.2,0.1,0.4,0.2,0.6,0.2c0.3,0,0.6-0.1,0.9-0.4C389.9,50.1,390,49.7,390,49.4z"/>
			<path class="st0" d="M396.7,51.8c-0.4,0.2-0.8,0.2-1.2,0.2c-1,0.1-1.9-0.5-2-1.5c0-0.2,0-0.3,0-0.5v-2.8h-1v-1.4h1v-1.3l1.8-0.5
				v1.8h1.4v1.4h-1.4v2.4c0,0.6,0.3,0.9,0.8,0.9c0.2,0,0.4-0.1,0.6-0.2L396.7,51.8z"/>
			<path class="st0" d="M398.8,44.9c-0.3,0-0.6-0.1-0.8-0.3c-0.2-0.2-0.3-0.4-0.3-0.7c0-0.3,0.1-0.5,0.3-0.7
				c0.2-0.2,0.5-0.3,0.8-0.3c0.3,0,0.6,0.1,0.8,0.3c0.4,0.3,0.4,0.9,0.1,1.3c0,0,0,0-0.1,0.1C399.3,44.8,399.1,44.9,398.8,44.9z
				 M399.7,51.9h-1.9v-6h1.9V51.9z"/>
			<path class="st0" d="M404.1,52c-0.9,0-1.7-0.3-2.4-0.8c-0.6-0.6-0.9-1.4-0.9-2.3c0-0.9,0.3-1.7,0.9-2.3c0.7-0.6,1.5-0.9,2.4-0.8
				c0.9,0,1.7,0.3,2.3,0.8c0.6,0.6,0.9,1.4,0.9,2.2c0,0.9-0.3,1.7-0.9,2.4C405.8,51.7,405,52.1,404.1,52z M404.1,47.1
				c-0.4,0-0.8,0.2-1,0.5c-0.3,0.4-0.4,0.8-0.4,1.3c0,1.2,0.5,1.7,1.4,1.7s1.3-0.6,1.3-1.8S405,47.1,404.1,47.1L404.1,47.1z"/>
			<path class="st0" d="M414.4,51.8h-1.9v-3.3c0-0.9-0.3-1.4-1-1.4c-0.3,0-0.6,0.1-0.8,0.4c-0.2,0.3-0.3,0.6-0.3,0.9v3.4h-1.9v-6
				h1.9v1l0,0c0.4-0.7,1.1-1.1,1.9-1.1c1.3,0,2,0.8,2,2.5L414.4,51.8z"/>
		</g>
		<g>
			<path class="st6" d="M51.6,112.6l-2.2,8.4h-2.1l-1.4-5.4c-0.1-0.3-0.1-0.6-0.1-0.9l0,0c0,0.3-0.1,0.6-0.2,0.9l-1.5,5.4h-2.2
				l-2.2-8.4h2.1l1.2,5.6c0.1,0.3,0.1,0.7,0.1,1l0,0c0-0.3,0.1-0.7,0.2-1l1.5-5.6h2l1.4,5.7c0.1,0.3,0.1,0.6,0.1,0.9l0,0
				c0-0.3,0.1-0.6,0.1-0.9l1.2-5.6L51.6,112.6z"/>
			<path class="st6" d="M57.5,118.5h-3.9c0.1,0.9,0.6,1.3,1.6,1.3c0.6,0,1.2-0.2,1.7-0.5v1.3c-0.7,0.3-1.4,0.5-2.2,0.4
				c-1.5,0.2-2.9-1-3.1-2.5c0-0.2,0-0.3,0-0.5c0-0.9,0.3-1.7,0.9-2.4c0.6-0.6,1.3-0.9,2.1-0.9c0.7,0,1.5,0.2,2,0.8
				c0.5,0.6,0.8,1.3,0.7,2.1L57.5,118.5z M55.8,117.4c0-0.9-0.3-1.3-1-1.3c-0.3,0-0.6,0.1-0.8,0.4c-0.2,0.3-0.4,0.6-0.4,0.9H55.8z"
				/>
			<path class="st6" d="M60.6,120.3L60.6,120.3v0.7h-1.9v-8.9h1.8v3.8l0,0c0.4-0.7,1.2-1,2-1c0.7,0,1.4,0.3,1.8,0.8
				c0.5,0.6,0.7,1.4,0.6,2.2c0,0.9-0.2,1.7-0.7,2.4c-0.5,0.6-1.2,0.9-2,0.9C61.5,121.2,60.9,120.8,60.6,120.3z M60.5,117.7v0.6
				c0,0.4,0.1,0.7,0.3,1c0.2,0.3,0.5,0.4,0.8,0.4c0.4,0,0.8-0.2,1-0.5c0.3-0.4,0.4-0.9,0.3-1.4c0-0.4-0.1-0.8-0.3-1.2
				c-0.2-0.3-0.6-0.4-0.9-0.4c-0.4,0-0.7,0.1-0.9,0.4C60.7,117,60.5,117.3,60.5,117.7z"/>
			<path class="st6" d="M32.3,134.7L32.3,134.7v0.7h-1.9v-8.9h1.9v3.8l0,0c0.4-0.7,1.2-1,2-1c0.7-0.1,1.4,0.2,1.8,0.7
				c0.5,0.6,0.7,1.4,0.6,2.2c0,0.9-0.2,1.7-0.7,2.4c-0.5,0.6-1.2,0.9-2,0.9C33.3,135.5,32.6,135.2,32.3,134.7z M32.2,132.1v0.6
				c0,0.4,0.1,0.7,0.3,1c0.2,0.3,0.5,0.4,0.9,0.4c0.4,0,0.8-0.2,1-0.5c0.3-0.4,0.4-0.9,0.3-1.4c0-0.4-0.1-0.8-0.3-1.2
				c-0.2-0.3-0.6-0.4-0.9-0.4c-0.4,0-0.7,0.1-0.9,0.4C32.4,131.4,32.2,131.7,32.2,132.1z"/>
			<path class="st6" d="M41.8,131c-0.2-0.1-0.5-0.2-0.8-0.2c-0.4,0-0.8,0.1-1,0.4c-0.2,0.4-0.4,0.8-0.3,1.2v2.9h-1.8v-6h1.8v1.1l0,0
				c0.2-0.7,0.8-1.2,1.6-1.2c0.2,0,0.3,0,0.5,0.1L41.8,131z"/>
			<path class="st6" d="M45.6,135.5c-0.9,0-1.7-0.3-2.4-0.8c-1.2-1.3-1.2-3.3,0-4.6c0.7-0.6,1.5-0.9,2.4-0.8c0.9,0,1.7,0.3,2.3,0.8
				c0.6,0.6,0.9,1.4,0.8,2.2c0,0.9-0.3,1.7-0.9,2.4C47.3,135.2,46.5,135.5,45.6,135.5z M45.6,130.6c-0.4,0-0.8,0.2-1,0.4
				c-0.3,0.4-0.4,0.8-0.4,1.3c0,1.1,0.5,1.7,1.4,1.7s1.3-0.6,1.3-1.8S46.5,130.6,45.6,130.6L45.6,130.6z"/>
			<path class="st6" d="M58.6,129.4l-1.7,6h-2l-0.9-3.5c-0.1-0.3-0.1-0.5-0.1-0.8l0,0c0,0.3-0.1,0.5-0.1,0.8l-1,3.5h-1.9l-1.7-6h1.9
				l0.8,3.9c0,0.2,0.1,0.4,0.1,0.7l0,0c0-0.2,0-0.5,0.1-0.7l1-3.9H55l0.9,3.9c0,0.1,0,0.3,0.1,0.7l0,0c0-0.2,0.1-0.4,0.1-0.7
				l0.8-3.9L58.6,129.4z"/>
			<path class="st6" d="M59.1,135.2v-1.5c0.3,0.2,0.6,0.3,0.9,0.4c0.3,0.1,0.6,0.1,0.9,0.1c0.3,0,0.5,0,0.8-0.1
				c0.2-0.1,0.3-0.2,0.3-0.4c0-0.1,0-0.2-0.1-0.3c-0.1-0.1-0.2-0.2-0.3-0.2c-0.2-0.1-0.3-0.1-0.5-0.2c-0.2,0-0.3-0.1-0.5-0.2
				c-0.2-0.1-0.4-0.2-0.6-0.3c-0.2-0.1-0.3-0.2-0.5-0.4c-0.1-0.1-0.2-0.3-0.3-0.5c-0.1-0.2-0.1-0.4-0.1-0.6c0-0.3,0.1-0.6,0.2-0.9
				c0.1-0.2,0.3-0.4,0.6-0.6c0.3-0.2,0.5-0.3,0.8-0.3c0.3-0.1,0.7-0.1,1-0.1c0.3,0,0.5,0,0.8,0.1c0.3,0,0.5,0.1,0.8,0.2v1.4
				c-0.2-0.1-0.5-0.2-0.8-0.3c-0.3-0.1-0.5-0.1-0.8-0.1c-0.1,0-0.2,0-0.3,0c-0.1,0-0.2,0.1-0.3,0.1c-0.1,0-0.1,0.1-0.2,0.1
				c0,0.1-0.1,0.1-0.1,0.2c0,0.1,0,0.2,0.1,0.3c0.1,0.1,0.2,0.1,0.3,0.2c0.1,0.1,0.3,0.1,0.4,0.1l0.4,0.1c0.2,0.1,0.5,0.2,0.7,0.3
				c0.2,0.1,0.4,0.2,0.5,0.4c0.1,0.1,0.3,0.3,0.3,0.5c0.1,0.2,0.1,0.4,0.1,0.6c0,0.3-0.1,0.6-0.2,0.9c-0.1,0.3-0.4,0.5-0.6,0.6
				c-0.3,0.2-0.6,0.3-0.9,0.4c-0.3,0.1-0.7,0.1-1,0.1C60.3,135.5,59.7,135.4,59.1,135.2z"/>
			<path class="st6" d="M70.2,132.9h-3.9c0.1,0.9,0.6,1.3,1.7,1.3c0.6,0,1.2-0.2,1.7-0.5v1.3c-0.7,0.3-1.4,0.5-2.2,0.4
				c-0.8,0.1-1.7-0.2-2.3-0.8c-0.6-0.6-0.8-1.4-0.8-2.3c0-0.9,0.3-1.7,0.9-2.4c0.6-0.6,1.3-0.9,2.1-0.9c0.7,0,1.5,0.2,2,0.8
				c0.5,0.6,0.8,1.3,0.7,2.1L70.2,132.9z M68.5,131.8c0-0.9-0.3-1.3-1-1.3c-0.3,0-0.6,0.1-0.8,0.4c-0.2,0.3-0.4,0.6-0.4,0.9H68.5z"
				/>
			<path class="st6" d="M75.3,131c-0.2-0.1-0.5-0.2-0.8-0.2c-0.4,0-0.7,0.1-0.9,0.4c-0.2,0.3-0.4,0.8-0.3,1.2v2.9h-1.9v-6h1.8v1.1
				l0,0c0.2-0.7,0.8-1.2,1.6-1.2c0.2,0,0.3,0,0.5,0.1L75.3,131z"/>
		</g>
	</g>
</g>
</svg>
