<?xml version="1.0" encoding="utf-8"?>
<!-- Generator: Adobe Illustrator 23.0.3, SVG Export Plug-In . SVG Version: 6.00 Build 0)  -->
<svg version="1.1" xmlns="http://www.w3.org/2000/svg" xmlns:xlink="http://www.w3.org/1999/xlink" x="0px" y="0px"
	 viewBox="0 0 266.8 200.3" style="enable-background:new 0 0 266.8 200.3;" xml:space="preserve">
<style type="text/css">
	.st0{fill-rule:evenodd;clip-rule:evenodd;fill:#008BFD;}
	.st1{fill-rule:evenodd;clip-rule:evenodd;fill:#0078D7;}
	.st2{fill-rule:evenodd;clip-rule:evenodd;fill:#808080;}
	.st3{fill-rule:evenodd;clip-rule:evenodd;fill:#505050;}
	.st4{fill:none;}
	.st5{enable-background:new    ;}
	.st6{fill:#00B0F0;}
	.st7{fill:#505050;}
</style>
<g id="shapes" xmlns:ev="http://www.w3.org/2001/xml-events" xmlns:v="http://schemas.microsoft.com/visio/2003/SVGExtensions/">
	<g id="group1278-2">
		<g id="shape1279-3">
			<path class="st0" d="M79.6,24.4c-2.2,1.7-4.8,2.5-7.3,2.5c-3.6,0-7.2-1.7-9.6-4.8c-4-5.4-3-13.1,2.2-17.3
				c2.2-1.7,4.8-2.5,7.3-2.5c3.6,0,7.2,1.7,9.6,4.8C85.9,12.5,84.9,20.3,79.6,24.4z M83.2,6c-2.7-3.6-6.8-5.6-11-5.6
				c-2.9,0-5.9,1-8.4,2.9c-6,4.8-7.2,13.7-2.5,19.9c2.7,3.6,6.8,5.6,11,5.6c2.9,0,5.9-0.9,8.4-2.9C86.7,21.1,87.9,12.2,83.2,6z"/>
		</g>
	</g>
	<g id="group1280-5" transform="translate(4.95554,-4.39536)">
		<g id="group1281-6" transform="translate(0.341805,-0.176482)">
			<g id="group1282-7" transform="translate(0.437248,3.12639E-13)">
				<g id="shape1283-8">
					<path class="st0" d="M60.3,21.8c-0.8-0.8-1.4-1.6-2-2.4c-1.2,2.4-1.6,4.9-1.7,6.9c0.1,0.2,0.1,0.3,0.2,0.4
						c0.6,0.8,1.3,1.5,2,2.1C58.8,27.2,59,24.5,60.3,21.8z"/>
				</g>
			</g>
			<g id="shape1284-10" transform="translate(3.29213,-8.97695)">
				<path class="st0" d="M61.6,21.3c-1.1,0.8-2.2,1.7-3.3,3c-0.6,0.7-1.2,1.4-1.6,2.1c0.5,0.8,1.1,1.6,1.9,2.5
					c0.6-0.9,1.3-1.7,2.2-2.6c1.1-1.1,2.2-1.9,3.1-2.6C63.1,22.9,62.3,22.1,61.6,21.3z"/>
			</g>
			<g id="group1285-12" transform="translate(9.93516,-15.1958)">
				<g id="shape1286-13">
					<path class="st0" d="M66.5,26.7c-0.5-0.7-1.1-1.3-1.7-1.8c-1.9-0.3-4.7-0.3-8,1.5c0.8,0.8,1.5,1.6,2.2,2.4
						C63.3,26.4,66.5,26.7,66.5,26.7z"/>
				</g>
			</g>
			<g id="group1287-15" transform="translate(1.10162E-13,-9.38012)">
				<g id="shape1288-16">
					<path class="st0" d="M58.8,28.8c0.3-0.7,0.7-1.4,1.2-2.1c-1.9-3.1-1.8-5.6-1.6-6.8c-0.5,0.5-0.9,1-1.3,1.6
						C56.7,23.1,56.7,25.7,58.8,28.8z"/>
				</g>
			</g>
			<g id="group1289-18" transform="translate(4.05148,-0.740211)">
				<g id="shape1290-19">
					<path class="st0" d="M60.1,22.7c-0.9-0.7-1.6-1.4-2.3-2.1c-0.5,0.7-0.8,1.3-1.1,1.9c0.6,0.6,1.3,1.3,2.1,1.9
						c4.9,4,9.8,4.4,12.6,4.4c0.2,0,1-1.2,1.5-1.9C71.7,27.1,66.4,27.8,60.1,22.7z"/>
				</g>
			</g>
			<g id="group1291-21" transform="translate(2.10339,-7.03041)">
				<g id="shape1292-22">
					<path class="st0" d="M56.7,26.4c0.5,0.8,1.2,1.5,2,2.4c0.3-0.6,0.7-1.3,1.1-1.9c-0.8-0.9-1.4-1.7-1.9-2.5
						C57.4,25.1,57,25.8,56.7,26.4z"/>
				</g>
			</g>
			<g id="group1293-24" transform="translate(10.5195,-5.3233)">
				<g id="shape1294-25">
					<path class="st0" d="M56.7,20c4.5,4.3,9.8,7.9,11.1,8.8c0.1-0.4,0.2-0.7,0.3-1.1c-1.4-1.1-5.3-4.2-9.8-8.8
						C57.8,19.2,57.3,19.6,56.7,20z"/>
				</g>
			</g>
			<g id="group1295-27" transform="translate(4.98729,-16.4714)">
				<g id="shape1296-28">
					<path class="st0" d="M61.6,27.7c-1.1-1.2-2.2-2.4-3.4-3.8c-0.5,0.2-1.1,0.4-1.6,0.7c0.8,1.4,2,2.8,3.2,4.2
						C60.5,28.4,61.1,28,61.6,27.7z"/>
				</g>
			</g>
			<g id="shape1297-30" transform="translate(8.13763,-14.0503)">
				<path class="st0" d="M58.6,25.2c-0.6,0.3-1.3,0.8-1.9,1.2c0.7,0.8,1.5,1.6,2.3,2.4c0.6-0.4,1.3-0.9,1.9-1.2
					C60.1,26.9,59.3,26.1,58.6,25.2z"/>
			</g>
			<g id="shape1298-32" transform="translate(8.1369,-14.0039)">
				<path class="st0" d="M58.4,25.1c-0.6,0.3-1.1,0.7-1.7,1.1c0.7,0.8,1.7,1.8,2.5,2.6c0.6-0.4,1-0.8,1.6-1.1
					C60.1,26.9,59.1,25.9,58.4,25.1z"/>
			</g>
		</g>
		<g id="group1299-34" transform="translate(14.8617,-6.23662)">
			<g id="shape1300-35">
				<path class="st0" d="M58,23.7c-1.1,0.9-1.3,2.6-0.5,3.7c0.9,1.2,2.5,1.4,3.6,0.5c1.1-0.9,1.3-2.6,0.5-3.7
					C60.8,23,59.2,22.8,58,23.7z"/>
			</g>
		</g>
		<g id="group1301-37" transform="translate(9.65099,-2.27374E-13)">
			<g id="shape1302-38">
				<path class="st0" d="M57.9,24.1c-1,0.8-1.2,2.4-0.5,3.4c0.8,1.1,2.3,1.3,3.4,0.4c1-0.8,1.2-2.4,0.4-3.4
					C60.5,23.5,59,23.3,57.9,24.1z"/>
			</g>
		</g>
		<g id="group1303-40" transform="translate(0,-5.36433)">
			<g id="shape1304-41">
				<path class="st0" d="M58.6,21.6c-1.6,1.3-1.9,3.6-0.7,5.2c1.2,1.6,3.5,1.9,5.1,0.7c1.6-1.3,1.9-3.6,0.7-5.2
					C62.5,20.7,60.2,20.4,58.6,21.6z"/>
			</g>
		</g>
	</g>
	<path class="st0" d="M254.7,79h-20.5c-0.6,0-1.1,0.5-1.1,1.1v16.8c0,0.6,0.5,1.1,1.1,1.1h5.3c0.4,1.3,1.7,2.3,3.2,2.3
		c1.8,0,3.3-1.5,3.3-3.4s-1.5-3.4-3.3-3.4c-1.5,0-2.8,0.9-3.2,2.3h-4.2v-12h18.3v12h-3.5c-0.5-3.7-3.7-6.6-7.5-6.6
		c-1.3,0-2.6,0.4-3.6,0.9l1,2c0.7-0.4,1.7-0.7,2.6-0.7c2.9,0,5.4,2.5,5.4,5.5c0,3-2.4,5.4-5.4,5.4c-0.9,0-1.8-0.2-2.6-0.7l-1,2
		c1.1,0.6,2.4,0.9,3.6,0.9c3.8,0,7-2.9,7.5-6.6h4.6c0.6,0,1.1-0.5,1.1-1.1V80.1C255.7,79.6,255.3,79,254.7,79z"/>
	<g id="shape1318-51">
		<path class="st1" d="M72.6,106H58.4V77.6h14.2v7.7h0.8v-8.4H57.6v29.9h15.7v-2.3h-0.8V106z"/>
	</g>
	<g id="shape1319-53" transform="translate(1.5606,-23.7593)">
		<path class="st1" d="M70.3,102.1H57.6v4.6h12.6V102.1z M60.7,104.1h6.5v0.8h-6.5V104.1z M67.3,105.9L67.3,105.9h-6.5h-0.1v-0.8
			h0.1h6.4h0.1V105.9z"/>
	</g>
	<g id="shape1320-55" transform="translate(1.52875,-19.9374)">
		<path class="st1" d="M57.6,103.7v3.1h8.6v-1.5h4.1v-1.5H57.6z"/>
	</g>
	<g id="shape1321-57" transform="translate(1.52875,-16.4978)">
		<rect x="57.6" y="104.1" class="st1" width="8.6" height="2.7"/>
	</g>
	<g id="shape1322-59" transform="translate(1.4969,-1.52875)">
		<path class="st1" d="M57.7,106.7h12.6v-0.8h-4.1V92.6h-8.6L57.7,106.7L57.7,106.7z M59.2,104h2.3v1.2h-2.3V104z"/>
	</g>
	<g id="shape1323-61" transform="translate(16.02,-3.43969)">
		<path class="st1" d="M66.4,105.6h-2.5v-1.9h-2.5v1.9h-2.5c-0.7,0-1.3,0.6-1.3,1.2h10C67.7,106.2,67,105.6,66.4,105.6z"/>
	</g>
	<g id="shape1324-63" transform="translate(11.816,-7.22971)">
		<path class="st1" d="M75.4,95.4H58.3c-0.3,0-0.7,0.3-0.7,0.6v10.1c0,0.3,0.3,0.6,0.7,0.6h17.1c0.3,0,0.7-0.3,0.7-0.6V96
			C76.1,95.7,75.8,95.4,75.4,95.4z M74.4,105.2H59.3v-8.3h15.1V105.2z"/>
	</g>
	<g id="shape1325-65" transform="translate(17.931,-9.36359)">
		<path class="st1" d="M64.6,104.9v-3.4l-3.5-1.8l-3.5,1.8v3.5l3.5,1.8L64.6,104.9z M60.2,102.6l0.9-0.4l0.9,0.4l-0.9,0.5
			L60.2,102.6z M60.3,101.4l0.9-0.4l0.9,0.4l-0.9,0.5L60.3,101.4z M62.2,106l-1,0.5v-0.9l1-0.5V106z M62.2,104.8l-1,0.5v-0.9l1-0.5
			V104.8z M62.2,103.7l-1,0.5v-0.9l1-0.5V103.7z M61.4,102l0.9-0.4l0.9,0.4l-0.9,0.4L61.4,102z M63.4,105.4l-1,0.5V105l1-0.5V105.4z
			 M63.4,104.2l-1,0.5v-0.9l1-0.5V104.2z M63.4,103l-1,0.5v-0.9l1-0.5V103z M64.4,104.8l-0.9,0.4v-0.9l0.9-0.5V104.8z M64.4,103.6
			l-0.9,0.4v-0.9l0.9-0.4V103.6z M64.4,102.5l-0.9,0.4V102l0.9-0.4V102.5z M64.2,101.4l-0.9,0.5l-0.9-0.5l0.9-0.4L64.2,101.4z
			 M63.1,100.9l-0.9,0.4l-0.9-0.4l0.9-0.4L63.1,100.9z M61.1,99.8l0.9,0.4l-0.9,0.4l-0.9-0.4L61.1,99.8z M60,100.4l0.9,0.4l-0.9,0.4
			l-0.9-0.4L60,100.4z M58.9,101l0.9,0.4l-0.9,0.5l-0.9-0.5L58.9,101z M58.7,105.3l-0.9-0.4v-0.9l0.9,0.4V105.3z M58.7,104.1
			l-0.9-0.4v-0.9l0.9,0.4V104.1z M58.7,102.9l-0.9-0.4v-0.9l0.9,0.4V102.9z M59.9,105.9l-1-0.5v-0.9l1,0.5V105.9z M59.9,104.7
			l-1-0.5v-0.9l1,0.5V104.7z M59.9,103.6l-1-0.5v-0.9l1,0.5V103.6z M59.2,102l0.9-0.4l0.9,0.4l-0.9,0.5L59.2,102z M61,106.5l-1-0.5
			v-0.9l1,0.5V106.5z M61,105.3l-1-0.5v-0.9l1,0.5V105.3z M61,104.2l-1-0.5v-0.9l1,0.5V104.2z"/>
	</g>
	<g id="shape1338-71" transform="translate(-9.29257E-14,-5.02924)">
		<path class="st2" d="M16.3,21.5H9.6c-0.3,0-0.6-0.3-0.6-0.6v-6.4h1.9v-1.8h12.4c0.3,0,0.6,0.3,0.6,0.6v0.1c0.3,0.1,0.6,0.2,1,0.3
			v-0.4c0-0.8-0.7-1.5-1.6-1.5h-13L8,14v6.9c0,0.8,0.7,1.5,1.6,1.5h7.3C16.7,22.1,16.5,21.8,16.3,21.5z"/>
	</g>
	<g id="group1339-73" transform="translate(8.44762,0)">
		<g id="group1340-74" transform="translate(0.737786,0)">
			<g id="shape1341-75">
				<path class="st2" d="M15.5,18l2.3,3.3l-2.2-0.5l-0.6,1.6l-2.3-2.9L11,22.4l-0.8-1.7L8,21.2l2.1-3.4c0,0,0.6,0.9,2.7,0.9
					C14.9,18.7,15.5,18,15.5,18z"/>
			</g>
		</g>
		<g id="group1342-77" transform="translate(1.9839,-4.95422)">
			<g id="shape1343-78">
				<path class="st2" d="M11.7,22.4c-2,0-3.7-1.5-3.7-3.4c0-1.9,1.7-3.4,3.7-3.4c2.1,0,3.7,1.5,3.7,3.4
					C15.4,20.9,13.8,22.4,11.7,22.4z M11.7,16.3c-1.6,0-2.9,1.2-2.9,2.6s1.3,2.6,2.9,2.6c1.6,0,2.9-1.2,2.9-2.6S13.3,16.3,11.7,16.3
					z"/>
			</g>
		</g>
		<g id="group1344-80" transform="translate(0,-3.14179)">
			<g id="shape1345-81">
				<path class="st2" d="M13.7,22.4c-3.1,0-5.7-2.3-5.7-5.2c0-2.9,2.6-5.2,5.7-5.2s5.7,2.3,5.7,5.2C19.4,20.1,16.9,22.4,13.7,22.4z
					 M13.7,12.7c-2.7,0-4.9,2-4.9,4.5c0,2.5,2.2,4.5,4.9,4.5s4.9-2,4.9-4.5C18.6,14.7,16.4,12.7,13.7,12.7z"/>
			</g>
		</g>
	</g>
	<path class="st0" d="M83,154.8H62.5c-0.6,0-1.1,0.5-1.1,1.1v16.8c0,0.6,0.5,1.1,1.1,1.1h5.3c0.4,1.3,1.7,2.3,3.2,2.3
		c1.8,0,3.3-1.5,3.3-3.4s-1.5-3.4-3.3-3.4c-1.5,0-2.8,0.9-3.2,2.3h-4.2v-12h18.3v12h-3.4c-0.5-3.7-3.7-6.6-7.5-6.6
		c-1.3,0-2.6,0.4-3.6,0.9l1,2c0.7-0.4,1.7-0.7,2.5-0.7c2.9,0,5.4,2.5,5.4,5.5c0,3-2.4,5.4-5.4,5.4c-0.9,0-1.8-0.2-2.5-0.7l-1,2
		c1.1,0.6,2.4,0.9,3.6,0.9c3.8,0,7-2.9,7.5-6.6H83c0.6,0,1.1-0.5,1.1-1.1v-16.8C84.1,155.3,83.6,154.8,83,154.8z"/>
	<g id="shape1386-100" transform="translate(-9.29257E-14,-5.02924)">
		<path class="st2" d="M16.3,98.7H9.6c-0.3,0-0.6-0.3-0.6-0.6v-6.4h1.9v-1.8h12.4c0.3,0,0.6,0.3,0.6,0.6v0.1c0.3,0.1,0.6,0.2,1,0.3
			v-0.4c0-0.8-0.7-1.5-1.6-1.5h-13L8,91.2v6.9c0,0.8,0.7,1.5,1.6,1.5h7.3C16.7,99.3,16.5,99,16.3,98.7z"/>
	</g>
	<g id="group1387-102" transform="translate(8.44762,0)">
		<g id="group1388-103" transform="translate(0.737786,0)">
			<g id="shape1389-104">
				<path class="st2" d="M15.5,95.2l2.3,3.3l-2.2-0.5l-0.6,1.6l-2.3-2.9L11,99.6l-0.8-1.7L8,98.4l2.1-3.4c0,0,0.6,0.9,2.7,0.9
					C14.9,95.9,15.5,95.2,15.5,95.2z"/>
			</g>
		</g>
		<g id="group1390-106" transform="translate(1.9839,-4.95422)">
			<g id="shape1391-107">
				<path class="st2" d="M11.7,99.6c-2,0-3.7-1.5-3.7-3.4c0-1.9,1.7-3.4,3.7-3.4c2.1,0,3.7,1.5,3.7,3.4
					C15.4,98.1,13.8,99.6,11.7,99.6z M11.7,93.5c-1.6,0-2.9,1.2-2.9,2.6s1.3,2.6,2.9,2.6c1.6,0,2.9-1.2,2.9-2.6S13.3,93.5,11.7,93.5
					z"/>
			</g>
		</g>
		<g id="group1392-109" transform="translate(0,-3.14179)">
			<g id="shape1393-110">
				<path class="st2" d="M13.7,99.6c-3.1,0-5.7-2.3-5.7-5.2c0-2.9,2.6-5.2,5.7-5.2s5.7,2.3,5.7,5.2C19.4,97.2,16.9,99.6,13.7,99.6z
					 M13.7,89.9c-2.7,0-4.9,2-4.9,4.5c0,2.5,2.2,4.5,4.9,4.5s4.9-2,4.9-4.5C18.6,91.9,16.4,89.9,13.7,89.9z"/>
			</g>
		</g>
	</g>
	<g id="shape1417-115" transform="translate(-9.29257E-14,-5.02924)">
		<path class="st2" d="M16.3,169.5H9.6c-0.3,0-0.6-0.3-0.6-0.6v-6.4h1.9v-1.8h12.4c0.3,0,0.6,0.3,0.6,0.6v0.1c0.3,0.1,0.6,0.2,1,0.3
			v-0.4c0-0.8-0.7-1.5-1.6-1.5h-13L8,162v6.9c0,0.8,0.7,1.5,1.6,1.5h7.3C16.7,170.1,16.5,169.8,16.3,169.5z"/>
	</g>
	<g id="group1418-117" transform="translate(8.44762,0)">
		<g id="group1419-118" transform="translate(0.737786,0)">
			<g id="shape1420-119">
				<path class="st2" d="M15.5,166l2.3,3.3l-2.2-0.5l-0.6,1.6l-2.3-2.9l-1.8,2.9l-0.8-1.7L8,169.2l2.1-3.4c0,0,0.6,0.9,2.7,0.9
					C14.9,166.7,15.5,166,15.5,166z"/>
			</g>
		</g>
		<g id="group1421-121" transform="translate(1.9839,-4.95422)">
			<g id="shape1422-122">
				<path class="st2" d="M11.7,170.4c-2,0-3.7-1.5-3.7-3.4c0-1.9,1.7-3.4,3.7-3.4c2.1,0,3.7,1.5,3.7,3.4
					C15.4,168.8,13.8,170.4,11.7,170.4z M11.7,164.3c-1.6,0-2.9,1.2-2.9,2.6s1.3,2.6,2.9,2.6c1.6,0,2.9-1.2,2.9-2.6
					S13.3,164.3,11.7,164.3z"/>
			</g>
		</g>
		<g id="group1423-124" transform="translate(0,-3.14179)">
			<g id="shape1424-125">
				<path class="st2" d="M13.7,170.4c-3.1,0-5.7-2.3-5.7-5.2c0-2.9,2.6-5.2,5.7-5.2s5.7,2.3,5.7,5.2C19.4,168,16.9,170.4,13.7,170.4
					z M13.7,160.7c-2.7,0-4.9,2-4.9,4.5c0,2.5,2.2,4.5,4.9,4.5s4.9-2,4.9-4.5C18.6,162.7,16.4,160.7,13.7,160.7z"/>
			</g>
		</g>
	</g>
	<rect x="151" y="63" class="st4" width="80.5" height="20"/>
</g>
<g id="txt" xmlns:ev="http://www.w3.org/2001/xml-events" xmlns:v="http://schemas.microsoft.com/visio/2003/SVGExtensions/">
	<g class="st5">
		<path d="M68.9,40c-0.5,0.1-1.1,0.1-1.7,0.1s-1.7,0-3.3,0v-6h4.5v0.6h-3.8v4.7c2.3,0,3.8,0,4.3-0.1L68.9,40z M70,42.7v-9.4h0.7v9.4
			H70z"/>
		<path d="M73.7,38.4v-4.5H78v1.9h2v-2.6h0.7v6.7h-0.7v-3.5h-2v1.9H73.7z M77.2,34.5h-2.9v3.2h2.9V34.5z M74.8,42.4v-3h0.7v2.4h5.3
			v0.6H74.8z"/>
		<path d="M60.3,46.6l-2,7.2h-0.9l-1.5-5.3c-0.1-0.2-0.1-0.5-0.1-0.7h0c0,0.3-0.1,0.5-0.1,0.7l-1.5,5.3h-0.9l-2.1-7.2h0.9l1.6,5.6
			c0.1,0.2,0.1,0.5,0.1,0.7h0c0-0.2,0.1-0.4,0.2-0.7l1.6-5.6h0.7l1.5,5.6c0,0.2,0.1,0.4,0.1,0.7h0c0-0.2,0.1-0.4,0.1-0.7l1.5-5.6
			H60.3z"/>
		<path d="M65.1,51.4h-3.6c0,0.6,0.2,1,0.5,1.4c0.3,0.3,0.7,0.5,1.2,0.5c0.6,0,1.1-0.2,1.6-0.6v0.7c-0.5,0.3-1.1,0.5-1.8,0.5
			c-0.7,0-1.3-0.2-1.7-0.7s-0.6-1.1-0.6-2c0-0.8,0.2-1.4,0.7-1.9c0.4-0.5,1-0.8,1.7-0.8s1.2,0.2,1.5,0.7s0.5,1,0.5,1.8V51.4z
			 M64.3,50.7c0-0.5-0.1-0.9-0.3-1.1s-0.5-0.4-1-0.4c-0.4,0-0.7,0.1-1,0.4s-0.5,0.6-0.5,1.1H64.3z"/>
		<path d="M67.2,53v0.8h-0.8v-7.6h0.8v3.4h0c0.4-0.7,1-1,1.8-1c0.7,0,1.2,0.2,1.5,0.7c0.4,0.5,0.6,1.1,0.6,1.8
			c0,0.9-0.2,1.6-0.6,2.1s-1,0.8-1.7,0.8C68,53.9,67.5,53.6,67.2,53L67.2,53z M67.2,51.7c0,0.4,0.1,0.8,0.4,1.1
			c0.3,0.3,0.6,0.5,1.1,0.5c0.5,0,0.9-0.2,1.2-0.6s0.4-0.9,0.4-1.6c0-0.6-0.1-1-0.4-1.4s-0.6-0.5-1.1-0.5c-0.5,0-0.9,0.2-1.2,0.5
			s-0.5,0.8-0.5,1.3V51.7z"/>
		<path d="M81.5,53.8h-0.9l-0.8-2h-3.1l-0.7,2h-0.9l2.8-7.2h0.8L81.5,53.8z M79.6,51l-1.1-3.1c0-0.1-0.1-0.3-0.1-0.5h0
			c0,0.2-0.1,0.4-0.1,0.5L77.1,51H79.6z"/>
		<path d="M83.3,53v3.1h-0.8v-7.5h0.8v0.9h0c0.4-0.7,1-1,1.8-1c0.7,0,1.2,0.2,1.5,0.7c0.4,0.5,0.6,1.1,0.6,1.8
			c0,0.9-0.2,1.6-0.6,2.1s-1,0.8-1.7,0.8C84.2,53.9,83.6,53.6,83.3,53L83.3,53z M83.3,51.7c0,0.4,0.1,0.8,0.4,1.1
			c0.3,0.3,0.6,0.5,1.1,0.5c0.5,0,0.9-0.2,1.2-0.6s0.4-0.9,0.4-1.6c0-0.6-0.1-1-0.4-1.4c-0.3-0.3-0.6-0.5-1.1-0.5
			c-0.5,0-0.9,0.2-1.2,0.5s-0.5,0.8-0.5,1.3V51.7z"/>
		<path d="M89.3,53v3.1h-0.8v-7.5h0.8v0.9h0c0.4-0.7,1-1,1.8-1c0.7,0,1.2,0.2,1.5,0.7c0.4,0.5,0.6,1.1,0.6,1.8
			c0,0.9-0.2,1.6-0.6,2.1s-1,0.8-1.7,0.8C90.2,53.9,89.7,53.6,89.3,53L89.3,53z M89.3,51.7c0,0.4,0.1,0.8,0.4,1.1
			c0.3,0.3,0.6,0.5,1.1,0.5c0.5,0,0.9-0.2,1.2-0.6s0.4-0.9,0.4-1.6c0-0.6-0.1-1-0.4-1.4c-0.3-0.3-0.6-0.5-1.1-0.5
			c-0.5,0-0.9,0.2-1.2,0.5s-0.5,0.8-0.5,1.3V51.7z"/>
	</g>
	<g class="st5">
		<path d="M241,115.7c-0.5,0.1-1.1,0.1-1.7,0.1c-0.6,0-1.7,0-3.3,0v-6h4.5v0.6h-3.8v4.7c2.3,0,3.8,0,4.3-0.1L241,115.7z
			 M242.1,118.4V109h0.7v9.4H242.1z"/>
		<path d="M245.8,114.1v-4.5h4.3v1.9h2V109h0.7v6.7H252v-3.5h-2v1.9H245.8z M249.4,110.3h-2.9v3.2h2.9V110.3z M247,118.1v-3h0.7v2.4
			h5.3v0.6H247z"/>
		<path d="M236.6,129.5h-0.9l-0.8-2h-3.1l-0.7,2h-0.9l2.8-7.2h0.8L236.6,129.5z M234.7,126.8l-1.1-3.1c0-0.1-0.1-0.3-0.1-0.5h0
			c0,0.2-0.1,0.4-0.1,0.5l-1.1,3.1H234.7z"/>
		<path d="M238.5,126.8v2.7h-0.8v-7.2h1.9c0.8,0,1.3,0.2,1.8,0.6c0.4,0.4,0.6,0.9,0.6,1.6c0,0.7-0.2,1.3-0.7,1.7
			c-0.5,0.4-1.1,0.6-1.8,0.6H238.5z M238.5,123.1v3h0.9c0.6,0,1-0.1,1.4-0.4c0.3-0.3,0.5-0.6,0.5-1.1c0-1-0.6-1.4-1.7-1.4H238.5z"/>
		<path d="M244.2,129.5h-0.8v-7.2h0.8V129.5z"/>
		<path d="M251.7,125.7c-0.6,0-1.1-0.2-1.5-0.6c-0.4-0.4-0.6-0.9-0.6-1.6c0-0.7,0.2-1.2,0.6-1.6c0.4-0.4,0.9-0.6,1.5-0.6
			s1.1,0.2,1.5,0.6c0.4,0.4,0.6,0.9,0.6,1.6c0,0.7-0.2,1.2-0.6,1.6C252.8,125.5,252.3,125.7,251.7,125.7z M251.7,121.9
			c-0.4,0-0.7,0.1-1,0.4c-0.3,0.3-0.4,0.7-0.4,1.2c0,0.5,0.1,0.9,0.4,1.2c0.3,0.3,0.6,0.4,1,0.4c0.4,0,0.7-0.1,1-0.4
			c0.3-0.3,0.4-0.7,0.4-1.2c0-0.5-0.1-0.9-0.4-1.2C252.5,122,252.1,121.9,251.7,121.9z M251.4,130.2v-3.8h0.7v1.4h4.5v-1.4h0.7v3.8
			H251.4z M256.6,128.4h-4.5v1.1h4.5V128.4z M256.6,125.9v-2h-1.1v2h-0.7v-4.7h0.7v2.1h1.1V121h0.7v4.9H256.6z"/>
	</g>
	<g id="shape1317-67">
		<g class="st5">
			<path d="M69.2,115.3c-0.5,0.1-1.1,0.1-1.7,0.1c-0.6,0-1.7,0-3.3,0v-6h4.5v0.6h-3.8v4.7c2.3,0,3.8,0,4.3-0.1L69.2,115.3z
				 M70.2,118v-9.4H71v9.4H70.2z"/>
			<path d="M73.9,113.7v-4.5h4.3v1.9h2v-2.6h0.7v6.7h-0.7v-3.5h-2v1.9H73.9z M77.5,109.8h-2.9v3.2h2.9V109.8z M75.1,117.7v-3h0.7
				v2.4h5.3v0.6H75.1z"/>
			<path d="M51,127.4c-0.6,0.1-1.9,0.1-3.8,0.1v-6.2h3.5v0.6h-2.8v4.9c1.6,0,2.6,0,3.1-0.1L51,127.4z M51.8,129.7v-5h-1.9V124h1.9
				v-3.2h0.7v8.9H51.8z M53.6,130v-9.4h0.7v9.4H53.6z"/>
			<path d="M65.1,128.4h-8.7v-0.6h8.7V128.4z M60.8,123c-0.2,0.5-0.7,1-1.4,1.5c-0.7,0.5-1.4,0.9-2.1,1.1l-0.5-0.6
				c1.1-0.2,2-0.7,2.6-1.3c0.7-0.7,1-1.3,1-1.9v-0.5h0.8v0.5c0,0.6,0.3,1.2,1,1.8c0.7,0.6,1.5,1.1,2.6,1.3l-0.5,0.6
				c-0.8-0.2-1.5-0.6-2.1-1.1C61.4,124,61,123.5,60.8,123z"/>
			<path d="M66.4,128.2v-0.6h6.4c0.1-1,0.2-2,0.2-2.9l-5.7,0.3l-0.2-0.7l5.8-0.2v-2h-5.4v-0.6h6.1v2.7c0,0.8-0.1,2-0.2,3.4h1.6v0.6
				H66.4z"/>
			<path d="M76.4,125.8v-0.6h4v-1h-2.6v-3.4h5.9v0.6h-5.1v0.7h5v0.6h-5v0.8h5.3v0.6h-2.7v1h4v0.6H76.4z M77.8,129.8v-3.3h0.7v1.1H83
				v-1.1h0.7v3.3H77.8z M83,128.2h-4.4v1H83V128.2z"/>
			<path d="M92.4,125.3c-0.6,0-1.1-0.2-1.5-0.6c-0.4-0.4-0.6-0.9-0.6-1.6c0-0.7,0.2-1.2,0.6-1.6c0.4-0.4,0.9-0.6,1.5-0.6
				s1.1,0.2,1.5,0.6c0.4,0.4,0.6,0.9,0.6,1.6c0,0.7-0.2,1.2-0.6,1.6C93.4,125,92.9,125.3,92.4,125.3z M92.4,121.4
				c-0.4,0-0.7,0.1-1,0.4c-0.3,0.3-0.4,0.7-0.4,1.2c0,0.5,0.1,0.9,0.4,1.2c0.3,0.3,0.6,0.4,1,0.4c0.4,0,0.7-0.1,1-0.4
				c0.3-0.3,0.4-0.7,0.4-1.2c0-0.5-0.1-0.9-0.4-1.2C93.1,121.6,92.8,121.4,92.4,121.4z M92,129.7V126h0.7v1.4h4.5V126h0.7v3.8H92z
				 M97.2,128h-4.5v1.1h4.5V128z M97.2,125.4v-2h-1.1v2h-0.7v-4.7h0.7v2.1h1.1v-2.3h0.7v4.9H97.2z"/>
		</g>
	</g>
	<g id="shape1337-83">
		<g class="st5">
			<path d="M7.4,33.7v-6.1h0.7V30h3v-2.4h0.7v6.1H7.4z M11.2,30.6h-3v2.4h3V30.6z M13.8,36.3v-9.4h0.7v9.4H13.8z"/>
			<path d="M17.8,31.1v-3.9h4.4v3.9H17.8z M21.4,27.9h-2.9v2.6h2.9V27.9z M18.8,36.1v-2.3h5.1v-1h-5.1v-0.6h5.8v2.2h-5.1v1h5.3v0.6
				H18.8z M23.9,31.6v-4.8h0.7v4.8H23.9z"/>
			<v:paragraph  v:horizAlign="1"></v:paragraph>
			<v:tabList></v:tabList>
		</g>
	</g>
	<g class="st5">
		<path d="M43.6,191.5c-0.5,0.1-1.1,0.1-1.7,0.1s-1.7,0-3.3,0v-6h4.5v0.6h-3.8v4.7c2.3,0,3.8,0,4.3-0.1L43.6,191.5z M44.7,194.2
			v-9.4h0.7v9.4H44.7z"/>
		<path d="M48.4,189.9v-4.5h4.3v1.9h2v-2.6h0.7v6.7h-0.7V188h-2v1.9H48.4z M51.9,186h-2.9v3.2h2.9V186z M49.5,193.9v-3h0.7v2.4h5.3
			v0.6H49.5z"/>
		<path d="M69.9,186.1l-2,7.2h-0.9l-1.5-5.3c-0.1-0.2-0.1-0.5-0.1-0.7h0c0,0.3-0.1,0.5-0.1,0.7l-1.5,5.3h-0.9l-2.1-7.2h0.9l1.6,5.6
			c0.1,0.2,0.1,0.5,0.1,0.7h0c0-0.2,0.1-0.4,0.2-0.7l1.6-5.6h0.7l1.5,5.6c0,0.2,0.1,0.4,0.1,0.7h0c0-0.2,0.1-0.4,0.1-0.7l1.5-5.6
			H69.9z"/>
		<path d="M74.7,190.9h-3.6c0,0.6,0.2,1,0.5,1.4c0.3,0.3,0.7,0.5,1.2,0.5c0.6,0,1.1-0.2,1.6-0.6v0.7c-0.5,0.3-1.1,0.5-1.8,0.5
			c-0.7,0-1.3-0.2-1.7-0.7s-0.6-1.1-0.6-2c0-0.8,0.2-1.4,0.7-1.9c0.4-0.5,1-0.8,1.7-0.8s1.2,0.2,1.5,0.7s0.5,1,0.5,1.8V190.9z
			 M73.9,190.2c0-0.5-0.1-0.9-0.3-1.1s-0.5-0.4-1-0.4c-0.4,0-0.7,0.1-1,0.4s-0.5,0.6-0.5,1.1H73.9z"/>
		<path d="M76.7,192.5v0.8H76v-7.6h0.8v3.4h0c0.4-0.7,1-1,1.8-1c0.7,0,1.2,0.2,1.5,0.7c0.4,0.5,0.6,1.1,0.6,1.8
			c0,0.9-0.2,1.6-0.6,2.1s-1,0.8-1.7,0.8C77.6,193.4,77.1,193.1,76.7,192.5L76.7,192.5z M76.7,191.2c0,0.4,0.1,0.8,0.4,1.1
			c0.3,0.3,0.6,0.5,1.1,0.5c0.5,0,0.9-0.2,1.2-0.6s0.4-0.9,0.4-1.6c0-0.6-0.1-1-0.4-1.4s-0.6-0.5-1.1-0.5c-0.5,0-0.9,0.2-1.2,0.5
			s-0.5,0.8-0.5,1.3V191.2z"/>
		<path d="M91.1,193.3h-0.9l-0.8-2h-3.1l-0.7,2h-0.9l2.8-7.2h0.8L91.1,193.3z M89.2,190.5l-1.1-3.1c0-0.1-0.1-0.3-0.1-0.5h0
			c0,0.2-0.1,0.4-0.1,0.5l-1.1,3.1H89.2z"/>
		<path d="M93,190.6v2.7h-0.8v-7.2h1.9c0.8,0,1.3,0.2,1.8,0.6s0.6,0.9,0.6,1.6c0,0.7-0.2,1.3-0.7,1.7s-1.1,0.6-1.8,0.6H93z
			 M93,186.8v3h0.9c0.6,0,1-0.1,1.4-0.4s0.5-0.6,0.5-1.1c0-1-0.6-1.4-1.7-1.4H93z"/>
		<path d="M98.7,193.3h-0.8v-7.2h0.8V193.3z"/>
		<v:paragraph  v:horizAlign="1"></v:paragraph>
		<v:tabList></v:tabList>
	</g>
	<g id="shape1385-112">
		<g class="st5">
			<path d="M7.4,110.9v-6.1h0.7v2.4h3v-2.4h0.7v6.1H7.4z M11.2,107.8h-3v2.4h3V107.8z M13.8,113.5V104h0.7v9.4H13.8z"/>
			<path d="M17.8,108.3v-3.9h4.4v3.9H17.8z M21.4,105h-2.9v2.6h2.9V105z M18.8,113.2v-2.3h5.1v-1h-5.1v-0.6h5.8v2.2h-5.1v1h5.3v0.6
				H18.8z M23.9,108.8V104h0.7v4.8H23.9z"/>
			<v:paragraph  v:horizAlign="1"></v:paragraph>
			<v:tabList></v:tabList>
		</g>
	</g>
	<g id="shape1416-127">
		<g class="st5">
			<path d="M7.4,181.7v-6.1h0.7v2.4h3v-2.4h0.7v6.1H7.4z M11.2,178.6h-3v2.4h3V178.6z M13.8,184.3v-9.4h0.7v9.4H13.8z"/>
			<path d="M17.8,179.1v-3.9h4.4v3.9H17.8z M21.4,175.8h-2.9v2.6h2.9V175.8z M18.8,184v-2.3h5.1v-1h-5.1v-0.6h5.8v2.2h-5.1v1h5.3
				v0.6H18.8z M23.9,179.6v-4.8h0.7v4.8H23.9z"/>
			<v:paragraph  v:horizAlign="1"></v:paragraph>
			<v:tabList></v:tabList>
		</g>
	</g>
	<g class="st5">
		<rect x="157.4" y="49" class="st4" width="64.3" height="40.2"/>
		<path class="st6" d="M165.2,53.6V53h6.7c0,0,0-0.4,0.1-1.3l-5.4,0.3l-0.2-0.7l5.7-0.2l0-0.6v-0.4h-5.3v-0.6h6c0,1.6,0,2.7-0.1,3.5
			h1.4v0.6H165.2z M166.6,58.4v-2.3h5.2v-0.9h-5.2v-0.7h5.9v2.2h-5.2v1h5.4v0.6H166.6z"/>
		<path class="st6" d="M175.8,56.5v-3.7h3.4v-2.1h-3.4v-0.6h4.2v3.4h-3.4v2.4c2.2,0,3.7-0.1,4.4-0.2l0.1,0.6
			C180.1,56.5,178.4,56.5,175.8,56.5z M182.5,53.9v4.8h-0.7v-9.4h0.7v4h1.6v0.7H182.5z"/>
		<path class="st6" d="M188.1,56.3c-0.7,0-1.3-0.3-1.7-0.9c-0.4-0.6-0.7-1.4-0.7-2.3c0-1,0.2-1.8,0.7-2.4c0.4-0.6,1-0.9,1.7-0.9
			c0.7,0,1.3,0.3,1.7,0.9c0.4,0.6,0.7,1.4,0.7,2.4c0,1-0.2,1.8-0.7,2.4C189.4,56,188.8,56.3,188.1,56.3z M188.1,50.5
			c-0.5,0-0.9,0.2-1.2,0.7c-0.3,0.5-0.5,1.1-0.5,1.9c0,0.8,0.2,1.4,0.5,1.9c0.3,0.5,0.7,0.7,1.2,0.7c0.5,0,0.9-0.2,1.2-0.7
			s0.5-1.1,0.5-1.9c0-0.8-0.2-1.4-0.5-1.9C189,50.7,188.6,50.5,188.1,50.5z M192.3,58.7v-9.4h0.7v9.4H192.3z"/>
		<path class="st6" d="M200.7,52.4c-0.1,0.6-0.4,1.2-0.8,1.5c-0.5,0.4-1,0.6-1.6,0.6c-0.7,0-1.3-0.2-1.8-0.7c-0.5-0.5-0.7-1-0.7-1.8
			c0-0.7,0.2-1.3,0.7-1.8c0.5-0.5,1.1-0.7,1.8-0.7c0.6,0,1.2,0.2,1.6,0.6c0.5,0.4,0.7,0.9,0.8,1.5h1.5v-2.5h0.7v6.9h-0.7v-3.7H200.7
			z M198.3,50.3c-0.5,0-0.9,0.2-1.3,0.5c-0.3,0.3-0.5,0.8-0.5,1.3c0,0.5,0.2,1,0.5,1.3c0.3,0.3,0.7,0.5,1.2,0.5
			c0.5,0,0.9-0.2,1.2-0.5s0.5-0.8,0.5-1.3c0-0.5-0.2-1-0.5-1.3C199.2,50.4,198.8,50.3,198.3,50.3z M197.1,58.4v-3.1h0.7v2.4h5.4v0.6
			H197.1z"/>
		<path class="st6" d="M205.2,57.2v-0.6h8.7v0.6H205.2z M212.6,50.8h-5.3v1.4h5v0.6h-5v1.3h5.4v0.6h-6.1v-4.6h6V50.8z"/>
		<path class="st6" d="M173.5,68.4c-0.5-0.4-0.9-0.8-1.4-1.4c-0.4-0.6-0.7-1.1-0.9-1.6c-0.1,0.4-0.4,1-0.8,1.6s-0.9,1.1-1.4,1.5
			l-0.6-0.5c0.7-0.5,1.3-1.1,1.7-1.9c0.5-0.8,0.7-1.6,0.7-2.4v-1h-2.1v-0.6h4.9v0.6h-2.1v0.9c0,0.8,0.2,1.5,0.7,2.3
			c0.5,0.8,1,1.4,1.7,1.8L173.5,68.4z M175.7,65.7v4.9H175v-9.4h0.7v3.8h1.6v0.6H175.7z"/>
		<path class="st6" d="M183.4,61.7c0,1-0.4,2-1.2,2.9c-0.8,0.9-1.8,1.6-3.1,2.1l-0.5-0.6c1.1-0.3,1.9-0.9,2.7-1.6
			c0.7-0.7,1.2-1.5,1.3-2.3h-3.3v-0.7H183.4z M185.5,70.7v-3h-5.4V67h6.1v3.7H185.5z M185.5,66.5v-1.1h-2v-0.6h2v-1.4h-1.9v-0.6h1.9
			v-1.5h0.7v5.2H185.5z"/>
		<path class="st6" d="M191.9,66.1v-0.7h8.7v0.7H191.9z M199.8,64.7c-0.8-0.1-1.5-0.3-2.1-0.7c-0.7-0.4-1.1-0.7-1.4-1.1
			c-0.3,0.4-0.8,0.7-1.4,1.1c-0.7,0.4-1.4,0.6-2.1,0.7l-0.4-0.6c0.8-0.1,1.6-0.3,2.3-0.7c0.7-0.4,1.1-0.8,1.3-1.2h-3v-0.7h6.8v0.7
			h-3c0.1,0.4,0.6,0.8,1.3,1.2s1.4,0.6,2.2,0.7L199.8,64.7z M196.3,70.6c-1,0-1.7-0.2-2.2-0.5s-0.8-0.7-0.8-1.3c0-0.5,0.3-1,0.8-1.3
			c0.5-0.3,1.3-0.5,2.2-0.5c1,0,1.7,0.2,2.2,0.5c0.5,0.3,0.8,0.7,0.8,1.3c0,0.5-0.3,1-0.8,1.3S197.3,70.6,196.3,70.6z M196.3,67.7
			c-0.7,0-1.3,0.1-1.7,0.3c-0.4,0.2-0.6,0.5-0.6,0.8c0,0.4,0.2,0.6,0.6,0.8s0.9,0.3,1.7,0.3c0.7,0,1.3-0.1,1.7-0.3
			c0.4-0.2,0.6-0.5,0.6-0.8c0-0.4-0.2-0.6-0.6-0.8C197.6,67.8,197,67.7,196.3,67.7z"/>
		<path class="st6" d="M202.8,66.2v-4.5h4.3v0.9h1.9v-1.4h0.7V67H209v-1.8h-1.9v0.9H202.8z M206.5,62.3h-2.9v3.2h2.9V62.3z
			 M206.8,70.6c-1,0-1.7-0.2-2.3-0.5c-0.5-0.3-0.8-0.8-0.8-1.3s0.3-1,0.8-1.3c0.5-0.3,1.3-0.5,2.3-0.5c1,0,1.7,0.2,2.3,0.5
			c0.5,0.3,0.8,0.8,0.8,1.3s-0.3,1-0.8,1.3C208.5,70.4,207.8,70.6,206.8,70.6z M206.8,67.5c-0.7,0-1.3,0.1-1.7,0.3
			c-0.4,0.2-0.6,0.5-0.6,0.9s0.2,0.6,0.6,0.9s1,0.3,1.7,0.3c0.7,0,1.3-0.1,1.7-0.3c0.4-0.2,0.6-0.5,0.6-0.9s-0.2-0.6-0.6-0.9
			C208.1,67.6,207.5,67.5,206.8,67.5z M207.2,64.6h1.9v-1.4h-1.9V64.6z"/>
		<path class="st6" d="M180.2,81.2v-0.6h8.7v0.6H180.2z M180.9,75.1v-0.6h3.2v-1.2h0.7v1.2h3.2v0.6H180.9z M184.5,79.3
			c-1,0-1.7-0.2-2.3-0.5c-0.5-0.3-0.8-0.8-0.8-1.3s0.3-0.9,0.8-1.3s1.3-0.5,2.3-0.5c1,0,1.7,0.2,2.3,0.5s0.8,0.8,0.8,1.3
			s-0.3,1-0.8,1.3C186.3,79.1,185.5,79.3,184.5,79.3z M184.5,76.3c-0.7,0-1.3,0.1-1.7,0.3c-0.4,0.2-0.6,0.5-0.6,0.8s0.2,0.6,0.6,0.9
			c0.4,0.2,1,0.3,1.7,0.3c0.7,0,1.3-0.1,1.7-0.3c0.4-0.2,0.6-0.5,0.6-0.9s-0.2-0.6-0.6-0.8S185.3,76.3,184.5,76.3z"/>
		<path class="st6" d="M190.2,78.7v-0.6h8.7v0.6H190.2z M191.6,82.5v-2.9h5.9v2.9H191.6z M191.6,77.2V75h5.1v-1h-5.1v-0.6h5.8v2.2
			h-5.1v1h5.3v0.6H191.6z M196.8,80.3h-4.4v1.7h4.4V80.3z"/>
	</g>
	<g id="Arrow_1_">
		<path class="st7" d="M227.4,92.5c-0.7,0-3,0-3.4,0c-18.4,0-36.9,0.2-55.3-0.1c-11.8-0.2-23.8,8.4-26.2,21.7
			c-0.3,1.7-0.4,3.5-0.4,5.2c0,6.8,0,13.6,0,20.4c0,14.1-8.6,24.9-22.4,27.9c-1.8,0.4-3.8,0.5-5.7,0.5c-9.4,0-7.9,0-17.3,0
			c-0.2,0,0,0-0.3,0c-0.4,0-0.9-0.2-0.9-0.6c0-0.6,0.6-0.7,1.1-0.7c0.9,0,0.4,0,0.9,0c9.8,0,8.6,0.1,18.4-0.1
			c12.1-0.2,22.9-10.1,24.6-22.1c0.3-2,0.3-4,0.4-6c0.1-7.2-0.2-14.4,0.2-21.6c0.6-11.2,6.6-19.1,16.7-23.8c0.5-0.2,0.9-0.4,1.4-0.9
			c-0.5,0-1,0-1.6,0c-22.2,0-35.2,0-57.5-0.1c0,0-0.7,0-0.7-0.5c0-0.6,0.8-0.6,0.8-0.6c22.2,0,35.1-0.1,57.3-0.1c0.5,0,1.1,0,1.9,0
			c-0.4-0.3-0.6-0.5-0.8-0.6c-11.8-5-17.5-14.2-17.7-26.8c-0.1-7.8,0-15.7-0.1-23.5c-0.2-12.3-10.8-23.8-23.2-24.6
			c-7.8-0.5-4.7-0.3-12.5-0.3c-2,0-4,0-6,0c-0.4,0-1.5,0-1.5-0.6c-0.1-0.7,1.2-0.7,1.7-0.7c6.5,0,2,0,8.5,0c4.7,0,9.4-0.2,14,1
			c10.5,2.7,19,12.2,20.1,22.9c0.4,4.3,0.3,8.7,0.3,13c0,4.5,0,9,0,13.5c0.1,13.5,9.1,24.1,22.3,26.4c0.7,0.1,1.5,0.1,2.2,0.1
			c19.1,0,38.3,0,57.4,0c0.4,0,3.1,0,3.8-0.1"/>
		<g id="shape1579-52_2_" transform="translate(73.5133,-41.2635)">
			<g transform="scale(-2.68,-2.68) ">
				<g id="lend5_3_">
					<path class="st3" d="M151.1,129l8,4l-8,4C152.4,134.5,152.4,131.5,151.1,129"/>
				</g>
			</g>
		</g>
	</g>
</g>
<g id="source" xmlns:ev="http://www.w3.org/2001/xml-events" xmlns:v="http://schemas.microsoft.com/visio/2003/SVGExtensions/">
	<g>
		<path class="st7" d="M225.8,91.8c0-2-0.8-3.1-1.4-4.3c2.8,1.5,5.5,2.9,8.2,4.3c-2.7,1.4-5.4,2.8-8.2,4.3
			C225,94.6,225.8,93.6,225.8,91.8z"/>
	</g>
</g>
</svg>
