<svg xmlns="http://www.w3.org/2000/svg" width="224.94" height="200.3" viewBox="0 0 224.94 200.3"><title>OJ104440668</title><path d="M211.09,79h-20.5a1.09,1.09,0,0,0-1.09,1.1V96.88a1.09,1.09,0,0,0,1.09,1.1h5.28a3.29,3.29,0,0,0,3.21,2.27,3.38,3.38,0,0,0,0-6.75,3.29,3.29,0,0,0-3.21,2.27h-4.19v-12H210v12h-3.45a7.61,7.61,0,0,0-7.46-6.56,8.25,8.25,0,0,0-3.64.92l1,2a5.27,5.27,0,0,1,2.55-.67,5.46,5.46,0,0,1,0,10.91,5.27,5.27,0,0,1-2.55-.67l-1,2a7.51,7.51,0,0,0,3.64.92A7.61,7.61,0,0,0,206.54,98h4.55a1.09,1.09,0,0,0,1.09-1.1V80.13A1.14,1.14,0,0,0,211.09,79Z" fill="#008bfd" fill-rule="evenodd"/><path d="M73.65,106H59.44V77.6H73.65v7.67h.76V76.83H58.68v29.91H74.41v-2.32h-.76Z" fill="#0078d7" fill-rule="evenodd"/><path d="M72.88,78.39H60.24V83H72.88ZM63.3,80.31h6.53v.76H63.3Zm6.59,1.84H63.27v-.76h6.62Z" fill="#0078d7" fill-rule="evenodd"/><path d="M60.21,83.74V86.8h8.6V85.27h4.08V83.74Z" fill="#0078d7" fill-rule="evenodd"/><rect x="60.21" y="87.57" width="8.6" height="2.68" fill="#0078d7"/><path d="M60.21,105.21H72.86v-.8H68.78V91h-8.6v14.17Zm1.53-2.74H64v1.21H61.74Z" fill="#0078d7" fill-rule="evenodd"/><path d="M83.43,102.15H81v-1.87H78.46v1.87H76a1.32,1.32,0,0,0-1.31,1.15h10A1.29,1.29,0,0,0,83.43,102.15Z" fill="#0078d7" fill-rule="evenodd"/><path d="M88.27,88.17H71.17a.65.65,0,0,0-.67.61V98.91a.65.65,0,0,0,.67.6h17.1a.64.64,0,0,0,.67-.6V88.78A.63.63,0,0,0,88.27,88.17Zm-1,9.84H72.19V89.7H87.25Z" fill="#0078d7" fill-rule="evenodd"/><path d="M83.63,95.52V92.08l-3.51-1.84L76.62,92v3.54l3.5,1.81Zm-4.4-2.29.89-.45.86.45-.86.48Zm0-1.15.86-.44.86.44-.86.48Zm1.91,4.53-1,.51v-.93l1-.51Zm0-1.18-1,.51V95l1-.51Zm0-1.12-1,.51V93.9l1-.51Zm-.82-1.65.86-.45.89.45-.86.44Zm2,3.34-.95.51v-.92l.95-.51Zm0-1.18-.95.51v-.92l.95-.51Zm0-1.14-.95.51v-.9l.95-.51Zm1.05,1.75-.86.44V95l.86-.45Zm0-1.15-.86.45V93.8l.86-.44Zm0-1.14-.86.44v-.92l.86-.45Zm-.19-1.06-.89.45-.89-.45.86-.44Zm-1.11-.57-.89.45-.86-.45.86-.44Zm-2-1.05.86.45-.86.44-.89-.44ZM79,91.07l.86.44L79,92l-.86-.45Zm-1.08.57.89.44-.89.45-.9-.45Zm-.26,4.27-.86-.45v-.92l.86.44Zm0-1.18-.86-.45v-.92l.86.44Zm0-1.15-.86-.44v-.9l.86.45Zm1.18,2.93-1-.51v-.92l1,.51Zm0-1.18-1-.51V93.9l1,.51Zm0-1.14-1-.51v-.9l1,.51Zm-.7-1.53.89-.45.86.45-.89.48ZM80,97.12l-1-.51v-.89l1,.5ZM80,96l-1-.51v-.92l1,.51Zm0-1.15-1-.51v-.92l1,.51Z" fill="#0078d7" fill-rule="evenodd"/><path d="M84.06,154.79H63.56a1.09,1.09,0,0,0-1.09,1.1v16.75a1.09,1.09,0,0,0,1.09,1.1h5.28A3.29,3.29,0,0,0,72.05,176a3.38,3.38,0,0,0,0-6.75,3.29,3.29,0,0,0-3.21,2.27H64.65v-12H83v12H79.51A7.61,7.61,0,0,0,72.05,165a8.25,8.25,0,0,0-3.64.92l1,2a5.27,5.27,0,0,1,2.55-.67,5.46,5.46,0,0,1,0,10.91,5.27,5.27,0,0,1-2.55-.67l-1,2a7.51,7.51,0,0,0,3.64.92,7.61,7.61,0,0,0,7.46-6.56h4.55a1.09,1.09,0,0,0,1.09-1.1V155.89A1.14,1.14,0,0,0,84.06,154.79Z" fill="#008bfd" fill-rule="evenodd"/><path d="M181.12,88c0,.08,0,.15.08.22a9.46,9.46,0,0,1,.7,2.77h-1.26c-.36,0-.81,0-1.31,0q-23.16,0-46.31,0c-16.48,0-27.75-11.24-27.75-27.68,0-13.52,0-27,0-40.55,0-4.62-3.18-8.5-7.48-8.85a50.47,50.47,0,0,0-10.28.1.7.7,0,0,0,0,1c2.54.56,5.1.21,7.64.24,5.83.08,8.66,2.88,8.66,8.73,0,13.6-.13,27.19,0,40.78.14,11.42,5.6,19.71,15.68,25,.62.33,1.36.49,1.83,1.21-9.81,0-19.57,0-29.32,0-.91,0-2-.38-2.64.65l0,.17c.69,1,1.73.66,2.65.67q14.13,0,28.27,0h2.52c-.74.48-.91.62-1.11.72-11.32,5.41-16.81,14.45-16.79,26.94,0,12.3,0,24.6,0,36.9,0,5.82-3.78,9.57-9.58,9.68-3.28.06-6.55.07-9.82.1-.83.15-.8.71-.63,1.33a.41.41,0,0,0,.56.19c3,0,5.92-.05,8.88-.06,7.94,0,12.24-4.33,12.25-12.35V119.42c0-15.62,11.3-27,26.88-27h48.54a9.57,9.57,0,0,1-.68,3.19v0l8.08-4C186.4,90.43,184.24,88.85,181.12,88Z" fill="#505050"/><path d="M80.65,24.41a11.81,11.81,0,0,1-16.84-2.29A12.55,12.55,0,0,1,66.05,4.83a11.72,11.72,0,0,1,7.29-2.54,11.89,11.89,0,0,1,9.55,4.84A12.54,12.54,0,0,1,80.65,24.41ZM84.31,6A13.57,13.57,0,0,0,65,3.36,14.45,14.45,0,0,0,62.4,23.24a13.65,13.65,0,0,0,11,5.55,13.45,13.45,0,0,0,8.39-2.92A14.44,14.44,0,0,0,84.31,6Z" fill="#008bfd" fill-rule="evenodd"/><path d="M66.68,17.18a16.47,16.47,0,0,1-2-2.35,18.32,18.32,0,0,0-1.66,6.89c.11.16.11.28.23.44a13.4,13.4,0,0,0,2,2.05A14.18,14.18,0,0,1,66.68,17.18Z" fill="#008bfd" fill-rule="evenodd"/><path d="M71.29,7.75a21,21,0,0,0-3.33,3,16.41,16.41,0,0,0-1.61,2,15,15,0,0,0,1.9,2.47,16.84,16.84,0,0,1,2.2-2.57,27.32,27.32,0,0,1,3.13-2.6C72.78,9.31,72,8.54,71.29,7.75Z" fill="#008bfd" fill-rule="evenodd"/><path d="M82.76,7A12.55,12.55,0,0,0,81,5.12a12.55,12.55,0,0,0-8,1.54c.76.84,1.51,1.62,2.24,2.36C79.63,6.59,82.76,7,82.76,7Z" fill="#008bfd" fill-rule="evenodd"/><path d="M70.52,17.36a21.57,21.57,0,0,1-2.27-2.13,13.68,13.68,0,0,0-1.14,1.95,23.54,23.54,0,0,0,2.09,1.91,19.18,19.18,0,0,0,12.56,4.38,9,9,0,0,0,1.54-1.94C82.07,21.79,76.81,22.47,70.52,17.36Z" fill="#008bfd" fill-rule="evenodd"/><path d="M65.16,14.83a16.24,16.24,0,0,0,2,2.35,14.7,14.7,0,0,1,1.14-1.95,15,15,0,0,1-1.9-2.47A16.34,16.34,0,0,0,65.16,14.83Z" fill="#008bfd" fill-rule="evenodd"/><path d="M73.58,10.07a98.21,98.21,0,0,0,11.15,8.82,9.82,9.82,0,0,0,.33-1.05A96.8,96.8,0,0,1,75.23,9,16,16,0,0,0,73.58,10.07Z" fill="#008bfd" fill-rule="evenodd"/><path d="M73,6.65q-1.65-1.77-3.36-3.79A10.05,10.05,0,0,0,68,3.52a26.74,26.74,0,0,0,3.24,4.22A15.69,15.69,0,0,1,73,6.65Z" fill="#008bfd" fill-rule="evenodd"/><path d="M66.9,13.55Q65,11.24,63,8.59a11.77,11.77,0,0,0-1.83.87A34.39,34.39,0,0,0,64.93,15,17,17,0,0,1,66.9,13.55Z" fill="#008bfd" fill-rule="evenodd"/><path d="M73.06,6.62a18.74,18.74,0,0,0-1.87,1.19c.72.78,1.45,1.59,2.25,2.35.57-.4,1.34-.89,1.87-1.19C74.57,8.24,73.82,7.46,73.06,6.62Z" fill="#008bfd" fill-rule="evenodd"/><path d="M72.86,6.51a14.89,14.89,0,0,0-1.67,1.13c.72.79,1.74,1.81,2.54,2.57.57-.4,1-.81,1.58-1.11C74.57,8.37,73.61,7.35,72.86,6.51Z" fill="#008bfd" fill-rule="evenodd"/><path d="M78.92,13.07a2.7,2.7,0,0,0-.48,3.7,2.55,2.55,0,0,0,3.63.5,2.71,2.71,0,0,0,.48-3.71A2.54,2.54,0,0,0,78.92,13.07Z" fill="#008bfd" fill-rule="evenodd"/><path d="M64.61,11.87a3.79,3.79,0,0,0-.68,5.21,3.58,3.58,0,0,0,5.1.7,3.8,3.8,0,0,0,.67-5.23A3.58,3.58,0,0,0,64.61,11.87Z" fill="#008bfd" fill-rule="evenodd"/><path d="M14.91,21.09H8.19a.59.59,0,0,1-.61-.57V14.08H9.52V12.31H21.94a.59.59,0,0,1,.62.57V13a6.4,6.4,0,0,1,1,.33v-.42a1.53,1.53,0,0,0-1.58-1.46H9l-2.34,2.2v6.9A1.51,1.51,0,0,0,8.19,22h7.28A5.8,5.8,0,0,1,14.91,21.09Z" fill="gray" fill-rule="evenodd"/><path d="M22.57,23.19l2.34,3.26-2.17-.54-.61,1.64-2.34-2.88L18,27.55l-.8-1.74-2.17.54,2.14-3.42s.58.92,2.69.92S22.57,23.19,22.57,23.19Z" fill="gray" fill-rule="evenodd"/><path d="M20.77,22.59a3.58,3.58,0,0,1-3.71-3.41,3.58,3.58,0,0,1,3.71-3.42,3.58,3.58,0,0,1,3.72,3.42A3.58,3.58,0,0,1,20.77,22.59Zm0-6.06a2.78,2.78,0,0,0-2.89,2.65,2.78,2.78,0,0,0,2.89,2.65,2.79,2.79,0,0,0,2.9-2.65A2.79,2.79,0,0,0,20.77,16.53Z" fill="gray" fill-rule="evenodd"/><path d="M20.77,24.4a5.48,5.48,0,0,1-5.7-5.22A5.48,5.48,0,0,1,20.77,14a5.48,5.48,0,0,1,5.69,5.23A5.47,5.47,0,0,1,20.77,24.4Zm0-9.69a4.7,4.7,0,0,0-4.88,4.47,4.69,4.69,0,0,0,4.88,4.46,4.68,4.68,0,0,0,4.87-4.46A4.69,4.69,0,0,0,20.77,14.71Z" fill="gray" fill-rule="evenodd"/><path d="M15,97.68H8.25a.59.59,0,0,1-.61-.57V90.67H9.58V88.9H22a.59.59,0,0,1,.62.57v.09a6.4,6.4,0,0,1,1,.33v-.42A1.53,1.53,0,0,0,22,88H9l-2.34,2.2v6.9a1.51,1.51,0,0,0,1.57,1.46h7.28A5.8,5.8,0,0,1,15,97.68Z" fill="gray" fill-rule="evenodd"/><path d="M22.64,99.78,25,103l-2.17-.54-.61,1.64-2.34-2.88-1.75,2.88-.8-1.74-2.17.54,2.14-3.42s.58.92,2.69.92S22.64,99.78,22.64,99.78Z" fill="gray" fill-rule="evenodd"/><path d="M20.83,99.18a3.43,3.43,0,1,1,0-6.83,3.43,3.43,0,1,1,0,6.83Zm0-6.06a2.66,2.66,0,1,0,0,5.3,2.66,2.66,0,1,0,0-5.3Z" fill="gray" fill-rule="evenodd"/><path d="M20.84,101a5.24,5.24,0,1,1,0-10.45,5.24,5.24,0,1,1,0,10.45Zm0-9.69a4.48,4.48,0,1,0,0,8.93,4.48,4.48,0,1,0,0-8.93Z" fill="gray" fill-rule="evenodd"/><path d="M14.9,168.84H8.18a.59.59,0,0,1-.61-.57v-6.44H9.51v-1.77H21.93a.59.59,0,0,1,.62.57v.09a6.4,6.4,0,0,1,1,.33v-.42a1.53,1.53,0,0,0-1.58-1.46H9l-2.34,2.2v6.9a1.51,1.51,0,0,0,1.57,1.46h7.28A5.8,5.8,0,0,1,14.9,168.84Z" fill="gray" fill-rule="evenodd"/><path d="M22.56,170.94l2.34,3.26-2.17-.54-.61,1.64-2.34-2.88L18,175.3l-.8-1.74-2.17.54,2.14-3.42s.58.92,2.69.92S22.56,170.94,22.56,170.94Z" fill="gray" fill-rule="evenodd"/><path d="M20.76,170.34a3.43,3.43,0,1,1,0-6.83,3.43,3.43,0,1,1,0,6.83Zm0-6.06a2.66,2.66,0,1,0,0,5.3,2.66,2.66,0,1,0,0-5.3Z" fill="gray" fill-rule="evenodd"/><path d="M20.76,172.16a5.24,5.24,0,1,1,0-10.45,5.24,5.24,0,1,1,0,10.45Zm0-9.69a4.48,4.48,0,1,0,0,8.93,4.48,4.48,0,1,0,0-8.93Z" fill="gray" fill-rule="evenodd"/><path d="M7.24,34.72V28.58H8V31H11V28.58h.73v6.14ZM11,31.64H8v2.43H11Zm2.56,5.65V27.87h.73v9.42Z"/><path d="M17.57,32.13V28.22h4.36v3.91Zm3.64-3.26H18.29v2.62h2.92Zm-2.6,8.2V34.74h5.08v-1H18.61v-.65h5.8v2.23H19.33v1.05h5.34v.65Zm5.07-4.44V27.87h.73v4.76Z"/><path d="M7.24,111.89v-6.14H8v2.41H11v-2.41h.73v6.14ZM11,108.81H8v2.43H11Zm2.56,5.65V105h.73v9.42Z"/><path d="M17.57,109.31v-3.92h4.36v3.92ZM21.21,106H18.29v2.62h2.92Zm-2.6,8.2v-2.33h5.08v-1H18.61v-.65h5.8v2.23H19.33v1h5.34v.65Zm5.07-4.44V105h.73v4.76Z"/><path d="M7.24,182.69v-6.15H8V179H11v-2.42h.73v6.15ZM11,179.6H8V182H11Zm2.56,5.65v-9.42h.73v9.42Z"/><path d="M17.57,180.1v-3.91h4.36v3.91Zm3.64-3.26H18.29v2.61h2.92ZM18.61,185v-2.32h5.08v-1H18.61v-.65h5.8v2.23H19.33v1h5.34V185Zm5.07-4.43v-4.77h.73v4.77Z"/><path d="M49.13,191.5c-.52.06-1.09.1-1.71.11s-1.74,0-3.35,0v-6H48.6v.65H44.8V191a42.1,42.1,0,0,0,4.28-.12Zm1.09,2.68v-9.42H51v9.42Z"/><path d="M53.88,189.9v-4.52h4.29v2h1.95v-2.57h.73v6.7h-.73V188H58.17v1.93ZM57.45,186H54.6v3.22h2.85ZM55,193.87v-3h.75v2.35h5.3v.64Z"/><path d="M75.41,186.11l-2,7.19h-.94l-1.5-5.3a3.38,3.38,0,0,1-.11-.72h0a4.11,4.11,0,0,1-.13.71l-1.51,5.31h-.91l-2.12-7.19H67l1.56,5.56a4.33,4.33,0,0,1,.12.72h0a3.08,3.08,0,0,1,.15-.72l1.6-5.56h.75l1.55,5.6a4.91,4.91,0,0,1,.12.67h0a3.35,3.35,0,0,1,.14-.69l1.49-5.58Z"/><path d="M80.21,190.92H76.57a2,2,0,0,0,.48,1.36,1.57,1.57,0,0,0,1.21.47,2.46,2.46,0,0,0,1.6-.58v.75a3,3,0,0,1-1.78.5,2.11,2.11,0,0,1-1.69-.71,2.92,2.92,0,0,1-.62-2,2.81,2.81,0,0,1,.68-1.93,2.12,2.12,0,0,1,1.67-.76,1.88,1.88,0,0,1,1.54.65,2.69,2.69,0,0,1,.55,1.8Zm-.8-.68a1.67,1.67,0,0,0-.34-1.12,1.2,1.2,0,0,0-1-.41,1.36,1.36,0,0,0-1,.42,1.94,1.94,0,0,0-.53,1.11Z"/><path d="M82.25,192.54v.76h-.78v-7.6h.78v3.37h0a1.94,1.94,0,0,1,1.77-1,1.9,1.9,0,0,1,1.55.69,2.79,2.79,0,0,1,.56,1.84,3.16,3.16,0,0,1-.63,2.07,2.13,2.13,0,0,1-1.71.77,1.68,1.68,0,0,1-1.54-.88Zm0-1.33a1.56,1.56,0,0,0,.42,1.1,1.42,1.42,0,0,0,1.07.45,1.39,1.39,0,0,0,1.19-.58,2.66,2.66,0,0,0,.43-1.62A2,2,0,0,0,85,189.2a1.33,1.33,0,0,0-1.08-.5,1.49,1.49,0,0,0-1.17.51,1.84,1.84,0,0,0-.45,1.27Z"/><path d="M96.61,193.3h-.87l-.78-2H91.88l-.73,2h-.88L93,186.11h.8Zm-1.92-2.77-1.15-3.1a2.67,2.67,0,0,1-.11-.48h0a2.31,2.31,0,0,1-.12.48l-1.14,3.1Z"/><path d="M98.47,190.57v2.73h-.78v-7.19h1.94a2.58,2.58,0,0,1,1.76.56,2,2,0,0,1,.63,1.58,2.16,2.16,0,0,1-.74,1.7,2.56,2.56,0,0,1-1.85.62Zm0-3.73v3h.91a2,2,0,0,0,1.35-.4,1.43,1.43,0,0,0,.46-1.14c0-1-.57-1.45-1.71-1.45Z"/><path d="M104.19,193.3h-.79v-7.19h.79Z"/><path d="M196,116c-.52.06-1.09.1-1.72.12l-3.34,0v-6h4.53v.65h-3.81v4.74a42.22,42.22,0,0,0,4.29-.12Zm1.08,2.68v-9.42h.74v9.42Z"/><path d="M200.77,114.4v-4.52h4.28v2h2v-2.57h.72V116H207v-3.48h-2v1.92Zm3.57-3.87h-2.86v3.22h2.86Zm-2.41,7.84v-3h.75v2.35H208v.64Z"/><path d="M191.58,129.8h-.87l-.78-2h-3.08l-.73,2h-.88l2.76-7.19h.8ZM189.66,127l-1.15-3.11a2.53,2.53,0,0,1-.11-.47h0a2.35,2.35,0,0,1-.12.47L187.12,127Z"/><path d="M193.44,127.07v2.73h-.78v-7.19h1.93a2.59,2.59,0,0,1,1.77.56,2,2,0,0,1,.63,1.58,2.2,2.2,0,0,1-.74,1.71,2.55,2.55,0,0,1-1.85.61Zm0-3.72v3h.91a2,2,0,0,0,1.35-.4,1.4,1.4,0,0,0,.46-1.14q0-1.44-1.71-1.44Z"/><path d="M199.16,129.8h-.79v-7.19h.79Z"/><path d="M206.71,126a2.22,2.22,0,1,1,1.5-3.83,2.36,2.36,0,0,1,0,3.23A2.1,2.1,0,0,1,206.71,126Zm0-3.8a1.43,1.43,0,0,0-1,.42,1.58,1.58,0,0,0-.42,1.17,1.52,1.52,0,0,0,.43,1.16,1.45,1.45,0,0,0,2,0,1.52,1.52,0,0,0,.43-1.16,1.55,1.55,0,0,0-.43-1.17A1.39,1.39,0,0,0,206.71,122.15Zm-.35,8.27v-3.76h.72V128h4.46v-1.37h.72v3.76Zm5.18-1.75h-4.46v1.11h4.46Zm0-2.53v-2h-1.1v2h-.72v-4.69h.72v2.08h1.1v-2.27h.73v4.88Z"/><path d="M131.87,57.33v-.64h6.65s0-.44.06-1.26l-5.45.28-.2-.67,5.66-.2v-1h-5.26v-.63h6c0,1.57,0,2.73-.11,3.5h1.39v.64Zm1.45,4.78v-2.3h5.16v-.9h-5.16v-.65h5.88v2.19H134v1h5.42v.64Z" fill="#00b0f0"/><path d="M142.5,60.27V56.56h3.43V54.47H142.5v-.65h4.16V57.2h-3.43v2.43a27.41,27.41,0,0,0,4.36-.21l.1.64A40.58,40.58,0,0,1,142.5,60.27Zm6.7-2.67v4.79h-.73V53h.73v4h1.63v.66Z" fill="#00b0f0"/><path d="M154.81,60a2.06,2.06,0,0,1-1.73-.87,3.72,3.72,0,0,1-.67-2.34,3.78,3.78,0,0,1,.66-2.36,2.06,2.06,0,0,1,1.74-.85,2.11,2.11,0,0,1,1.75.85,4.53,4.53,0,0,1,0,4.71A2.13,2.13,0,0,1,154.81,60Zm0-5.77a1.41,1.41,0,0,0-1.22.7,3.31,3.31,0,0,0-.47,1.86,3.24,3.24,0,0,0,.48,1.85,1.39,1.39,0,0,0,2.42,0,3.86,3.86,0,0,0,0-3.71A1.39,1.39,0,0,0,154.81,54.24ZM159,62.39V53h.73v9.42Z" fill="#00b0f0"/><path d="M167.44,56.14a2.31,2.31,0,0,1-.81,1.54,2.46,2.46,0,0,1-1.63.58,2.4,2.4,0,0,1-1.75-.69,2.37,2.37,0,0,1-.71-1.76,2.34,2.34,0,0,1,.71-1.76,2.43,2.43,0,0,1,1.75-.68,2.46,2.46,0,0,1,1.64.57,2.32,2.32,0,0,1,.8,1.55H169V53h.73v6.85H169V56.14ZM165,54a1.69,1.69,0,0,0-1.25.5,1.81,1.81,0,0,0-.49,1.3,1.76,1.76,0,0,0,.5,1.3,1.67,1.67,0,0,0,1.24.5,1.72,1.72,0,0,0,1.25-.49,1.77,1.77,0,0,0,.49-1.31,1.75,1.75,0,0,0-.49-1.3A1.64,1.64,0,0,0,165,54Zm-1.2,8.07V59h.74v2.44H170v.64Z" fill="#00b0f0"/><path d="M171.87,60.91v-.65h8.74v.65Zm7.39-6.38H174v1.36h5v.65h-5v1.29h5.41v.65h-6.13V53.89h6Z" fill="#00b0f0"/><path d="M190.5,60.09a7.35,7.35,0,0,1-1.36-1.41,5.91,5.91,0,0,1-.87-1.58,5.72,5.72,0,0,1-.84,1.58A7.53,7.53,0,0,1,186,60.22l-.56-.48a5.62,5.62,0,0,0,1.73-1.93,4.81,4.81,0,0,0,.71-2.38v-1H185.8v-.65h4.86v.65h-2v.94a4.45,4.45,0,0,0,.7,2.32,5.72,5.72,0,0,0,1.7,1.84Zm2.22-2.64v4.94H192V53h.73V56.8h1.63v.65Z" fill="#00b0f0"/><path d="M200.39,53.47a4.52,4.52,0,0,1-1.16,2.9,7.45,7.45,0,0,1-3.11,2.15L195.6,58a6.73,6.73,0,0,0,2.67-1.57,4.21,4.21,0,0,0,1.29-2.26h-3.33v-.65Zm2.1,8.92v-3h-5.35v-.66h6.08v3.66Zm0-4.18V57.15h-2v-.64h2V55.15h-1.88v-.64h1.88V53h.73v5.24Z" fill="#00b0f0"/><path d="M146.87,69.87v-.65h8.74v.65Zm7.9-1.47a6.67,6.67,0,0,1-2.13-.7,3.86,3.86,0,0,1-1.39-1.09,4.2,4.2,0,0,1-1.42,1.09,6.82,6.82,0,0,1-2.07.69l-.43-.59a5.36,5.36,0,0,0,2.27-.68,2.42,2.42,0,0,0,1.25-1.23h-3v-.66h6.8v.66h-3a2.61,2.61,0,0,0,1.27,1.24,5.39,5.39,0,0,0,2.24.67Zm-3.53,5.89a4.42,4.42,0,0,1-2.24-.47,1.45,1.45,0,0,1,0-2.57,5.68,5.68,0,0,1,4.48,0,1.45,1.45,0,0,1,0,2.57A4.37,4.37,0,0,1,151.24,74.29Zm0-2.88a3.89,3.89,0,0,0-1.69.29.89.89,0,0,0,0,1.67,4.85,4.85,0,0,0,3.36,0,.89.89,0,0,0,0-1.67A3.89,3.89,0,0,0,151.24,71.41Z" fill="#00b0f0"/><path d="M157.78,69.88V65.4h4.33v.94H164V65h.73v5.75H164V69h-1.87v.92Zm3.61-3.83h-2.88v3.18h2.88Zm.32,8.25a4.28,4.28,0,0,1-2.28-.51,1.49,1.49,0,0,1,0-2.64,5.35,5.35,0,0,1,4.56,0,1.49,1.49,0,0,1,0,2.64A4.28,4.28,0,0,1,161.71,74.3Zm0-3a3.42,3.42,0,0,0-1.71.34,1,1,0,0,0-.59.87,1,1,0,0,0,.59.86,4.47,4.47,0,0,0,3.42,0,.93.93,0,0,0,0-1.73A3.42,3.42,0,0,0,161.71,71.26Zm.4-2.93H164V67h-1.87Z" fill="#00b0f0"/><path d="M170.39,73v-.64h8.74V73Zm.77-6.09v-.64h3.24V65.07h.72v1.15h3.24v.64Zm3.6,4.13a4.19,4.19,0,0,1-2.27-.51,1.43,1.43,0,0,1,0-2.56,4.34,4.34,0,0,1,2.27-.5,4.27,4.27,0,0,1,2.25.49,1.48,1.48,0,0,1,.8,1.29,1.52,1.52,0,0,1-.79,1.29A4.3,4.3,0,0,1,174.76,71Zm0-2.95a3.68,3.68,0,0,0-1.7.31.94.94,0,0,0-.59.85,1,1,0,0,0,.58.85,4.7,4.7,0,0,0,3.41,0,1,1,0,0,0,.58-.85,1,1,0,0,0-.59-.85A3.64,3.64,0,0,0,174.76,68Z" fill="#00b0f0"/><path d="M180.39,70.47v-.62h8.74v.62Zm1.44,3.79V71.37h5.86v2.89Zm0-5.3V66.75h5.08v-1h-5.08v-.62h5.8v2.16h-5.08v1h5.3V69ZM187,72h-4.42v1.65H187Z" fill="#00b0f0"/><path d="M70.45,115.43a16.77,16.77,0,0,1-1.71.12c-.62,0-1.74,0-3.34,0v-6h4.53v.64H66.12v4.75a40.9,40.9,0,0,0,4.29-.13Zm1.09,2.68V108.7h.74v9.41Z"/><path d="M75.21,113.84v-4.52h4.28v1.94h2V108.7h.72v6.69h-.72v-3.48h-2v1.93ZM78.77,110H75.92v3.23h2.85Zm-2.4,7.85v-3h.74v2.36h5.31v.64Z"/><path d="M52.31,127.53c-.62.07-1.9.11-3.83.11v-6.16H52v.65H49.19V127c1.6,0,2.62,0,3.07-.09Zm.84,2.28v-5H51.2v-.65h1.95v-3.23h.72v8.92Zm1.79.3V120.7h.72v9.41Z"/><path d="M66.43,128.54H57.69v-.65h8.74Zm-4.38-5.39a4.41,4.41,0,0,1-1.36,1.51,6.17,6.17,0,0,1-2.13,1.06l-.5-.58a5.1,5.1,0,0,0,2.64-1.33,2.8,2.8,0,0,0,1-1.85v-.5h.75v.5a2.69,2.69,0,0,0,1,1.84,5.26,5.26,0,0,0,2.64,1.33l-.52.58a6.88,6.88,0,0,1-2.14-1.09A4.28,4.28,0,0,1,62.05,123.15Z"/><path d="M67.69,128.38v-.65h6.39q.14-1.58.18-2.85l-5.69.29-.15-.71,5.85-.21v-2H68.9v-.65H75v2.74c0,.83-.07,2-.2,3.4h1.64v.65Z"/><path d="M77.69,125.93v-.64h4v-1H79.14v-3.43H85v.64H79.86v.74h5v.64h-5v.78h5.27v.63h-2.7v1h4v.64Zm1.44,4v-3.31h.71v1.06h4.43v-1.06H85v3.31Zm5.14-1.61H79.84v1h4.43Z"/><path d="M93.65,125.39a2.14,2.14,0,0,1-2.14-2.21A2.14,2.14,0,0,1,93.65,121a2.14,2.14,0,0,1,2.14,2.23,2.14,2.14,0,0,1-2.14,2.21Zm0-3.81a1.36,1.36,0,0,0-1,.43,1.78,1.78,0,0,0,0,2.32,1.4,1.4,0,0,0,1,.42,1.43,1.43,0,0,0,1-.42,1.53,1.53,0,0,0,.42-1.15,1.58,1.58,0,0,0-.42-1.17A1.38,1.38,0,0,0,93.65,121.58Zm-.35,8.28V126.1H94v1.36h4.46V126.1h.72v3.76Zm5.18-1.75H94v1.11h4.46Zm0-2.54v-1.95h-1.1v1.95h-.72v-4.68h.72V123h1.1V120.7h.73v4.87Z"/><path d="M70,40.24q-.78.09-1.71.12c-.62,0-1.74,0-3.35,0v-6h4.54V35H65.66v4.74a42,42,0,0,0,4.28-.12Zm1.09,2.68V33.5h.73v9.42Z"/><path d="M74.74,38.65V34.12H79v2h2V33.5h.73v6.7H81V36.72H79v1.93Zm3.57-3.88H75.46V38h2.85Zm-2.4,7.84v-3h.74V42H82v.63Z"/><path d="M66.39,51.18V49.74l-2.33.07L64,49.18c2,0,3.65,0,5.08-.16l0,.6c-.13,0-.8.05-2,.1v1.46Zm.22-2.56a2.57,2.57,0,0,1-1.52-.39,1.22,1.22,0,0,1-.55-1.06,1.25,1.25,0,0,1,.56-1.07,2.58,2.58,0,0,1,1.51-.39,2.54,2.54,0,0,1,1.52.4,1.22,1.22,0,0,1,.55,1.06,1.26,1.26,0,0,1-.54,1.06A2.62,2.62,0,0,1,66.61,48.62Zm0-2.31a1.86,1.86,0,0,0-1,.24.7.7,0,0,0-.38.62.71.71,0,0,0,.38.62,2,2,0,0,0,1,.23,1.91,1.91,0,0,0,1-.23.7.7,0,0,0,0-1.24A1.81,1.81,0,0,0,66.61,46.31Zm-1.09,8.42v-3.2h.72v1h4.91v-1h.72v3.2Zm5.63-1.56H66.24v.92h4.91Zm-1.6-2.08v-.43H68v-.58h1.55V45.69h.72v5.4Zm1.59,0V45.5h.73v5.59Z"/><path d="M76.43,50.2a2.26,2.26,0,0,1-1.5-3.83,2.2,2.2,0,0,1,3,3.22A2.11,2.11,0,0,1,76.43,50.2Zm0-3.81a1.39,1.39,0,0,0-1,.42A1.58,1.58,0,0,0,75,48a1.51,1.51,0,0,0,.43,1.16,1.45,1.45,0,0,0,2,0A1.51,1.51,0,0,0,77.88,48a1.61,1.61,0,0,0-.42-1.17A1.43,1.43,0,0,0,76.43,46.39Zm-.35,8.27V50.9h.72v1.37h4.46V50.9H82v3.76Zm5.18-1.74H76.8V54h4.46Zm0-2.54v-2h-1.1v2h-.72V45.69h.72v2.08h1.1V45.5H82v4.88Z"/></svg>