<svg xmlns="http://www.w3.org/2000/svg" viewBox="0 0 224.94 200.3"><title>OJ104440668</title><path d="M211.09,79h-20.5a1.09,1.09,0,0,0-1.09,1.1V96.88a1.09,1.09,0,0,0,1.09,1.1h5.28a3.29,3.29,0,0,0,3.21,2.27,3.38,3.38,0,0,0,0-6.75,3.29,3.29,0,0,0-3.21,2.27h-4.19v-12H210v12h-3.45a7.61,7.61,0,0,0-7.46-6.56,8.25,8.25,0,0,0-3.64.92l1,2a5.27,5.27,0,0,1,2.55-.67,5.46,5.46,0,0,1,0,10.91,5.27,5.27,0,0,1-2.55-.67l-1,2a7.51,7.51,0,0,0,3.64.92A7.61,7.61,0,0,0,206.54,98h4.55a1.09,1.09,0,0,0,1.09-1.1V80.13A1.14,1.14,0,0,0,211.09,79Z" fill="#008bfd" fill-rule="evenodd"/><path d="M73.65,106H59.44V77.6H73.65v7.67h.76V76.83H58.68v29.91H74.41v-2.32h-.76Z" fill="#0078d7" fill-rule="evenodd"/><path d="M72.88,78.39H60.24V83H72.88ZM63.3,80.31h6.53v.76H63.3Zm6.59,1.84H63.27v-.76h6.62Z" fill="#0078d7" fill-rule="evenodd"/><path d="M60.21,83.74V86.8h8.6V85.27h4.08V83.74Z" fill="#0078d7" fill-rule="evenodd"/><rect x="60.21" y="87.57" width="8.6" height="2.68" fill="#0078d7"/><path d="M60.21,105.21H72.86v-.8H68.78V91h-8.6v14.17Zm1.53-2.74H64v1.21H61.74Z" fill="#0078d7" fill-rule="evenodd"/><path d="M83.43,102.15H81v-1.87H78.46v1.87H76a1.32,1.32,0,0,0-1.31,1.15h10A1.29,1.29,0,0,0,83.43,102.15Z" fill="#0078d7" fill-rule="evenodd"/><path d="M88.27,88.17H71.17a.65.65,0,0,0-.67.61V98.91a.65.65,0,0,0,.67.6h17.1a.64.64,0,0,0,.67-.6V88.78A.63.63,0,0,0,88.27,88.17Zm-1,9.84H72.19V89.7H87.25Z" fill="#0078d7" fill-rule="evenodd"/><path d="M83.63,95.52V92.08l-3.51-1.84L76.62,92v3.54l3.5,1.81Zm-4.4-2.29.89-.45.86.45-.86.48Zm0-1.15.86-.44.86.44-.86.48Zm1.91,4.53-1,.51v-.93l1-.51Zm0-1.18-1,.51V95l1-.51Zm0-1.12-1,.51V93.9l1-.51Zm-.82-1.65.86-.45.89.45-.86.44Zm2,3.34-.95.51v-.92l.95-.51Zm0-1.18-.95.51v-.92l.95-.51Zm0-1.14-.95.51v-.9l.95-.51Zm1.05,1.75-.86.44V95l.86-.45Zm0-1.15-.86.45V93.8l.86-.44Zm0-1.14-.86.44v-.92l.86-.45Zm-.19-1.06-.89.45-.89-.45.86-.44Zm-1.11-.57-.89.45-.86-.45.86-.44Zm-2-1.05.86.45-.86.44-.89-.44ZM79,91.07l.86.44L79,92l-.86-.45Zm-1.08.57.89.44-.89.45-.9-.45Zm-.26,4.27-.86-.45v-.92l.86.44Zm0-1.18-.86-.45v-.92l.86.44Zm0-1.15-.86-.44v-.9l.86.45Zm1.18,2.93-1-.51v-.92l1,.51Zm0-1.18-1-.51V93.9l1,.51Zm0-1.14-1-.51v-.9l1,.51Zm-.7-1.53.89-.45.86.45-.89.48ZM80,97.12l-1-.51v-.89l1,.5ZM80,96l-1-.51v-.92l1,.51Zm0-1.15-1-.51v-.92l1,.51Z" fill="#0078d7" fill-rule="evenodd"/><path d="M84.06,154.79H63.56a1.09,1.09,0,0,0-1.09,1.1v16.75a1.09,1.09,0,0,0,1.09,1.1h5.28A3.29,3.29,0,0,0,72.05,176a3.38,3.38,0,0,0,0-6.75,3.29,3.29,0,0,0-3.21,2.27H64.65v-12H83v12H79.51A7.61,7.61,0,0,0,72.05,165a8.25,8.25,0,0,0-3.64.92l1,2a5.27,5.27,0,0,1,2.55-.67,5.46,5.46,0,0,1,0,10.91,5.27,5.27,0,0,1-2.55-.67l-1,2a7.51,7.51,0,0,0,3.64.92,7.61,7.61,0,0,0,7.46-6.56h4.55a1.09,1.09,0,0,0,1.09-1.1V155.89A1.14,1.14,0,0,0,84.06,154.79Z" fill="#008bfd" fill-rule="evenodd"/><g style="isolation:isolate"><path d="M49,192.5c-.52.06-1.09.1-1.71.11s-1.74,0-3.35,0v-6h4.53v.65h-3.8V192a42.1,42.1,0,0,0,4.28-.12Zm1.09,2.68v-9.42h.73v9.42Z" fill="#008bfd"/><path d="M53.75,190.9v-4.52H58v2h2v-2.57h.73v6.7H60V189H58v1.93ZM57.32,187H54.47v3.22h2.85Zm-2.4,7.84v-3h.74v2.35H61v.64Z" fill="#008bfd"/><path d="M75.28,187.11l-2,7.19h-.94l-1.5-5.3a3.38,3.38,0,0,1-.11-.72h0a4.11,4.11,0,0,1-.13.71L69,194.3h-.91L66,187.11h.87l1.56,5.56a4.33,4.33,0,0,1,.12.72h0a3.08,3.08,0,0,1,.15-.72l1.6-5.56h.75l1.55,5.6a3.73,3.73,0,0,1,.12.67h0a3.35,3.35,0,0,1,.14-.69l1.49-5.58Z" fill="#008bfd"/><path d="M80.08,191.92H76.44a2,2,0,0,0,.48,1.36,1.58,1.58,0,0,0,1.21.47,2.46,2.46,0,0,0,1.6-.58v.75a3,3,0,0,1-1.78.5,2.11,2.11,0,0,1-1.69-.71,2.92,2.92,0,0,1-.62-2,2.81,2.81,0,0,1,.68-1.93,2.12,2.12,0,0,1,1.67-.76,1.88,1.88,0,0,1,1.54.65,2.69,2.69,0,0,1,.55,1.8Zm-.8-.68a1.67,1.67,0,0,0-.34-1.12,1.2,1.2,0,0,0-1-.41,1.36,1.36,0,0,0-1,.42,1.94,1.94,0,0,0-.53,1.11Z" fill="#008bfd"/><path d="M82.12,193.54v.76h-.78v-7.6h.78v3.37h0a1.94,1.94,0,0,1,1.77-1,1.9,1.9,0,0,1,1.55.69,2.79,2.79,0,0,1,.56,1.84,3.16,3.16,0,0,1-.63,2.07,2.13,2.13,0,0,1-1.71.77,1.68,1.68,0,0,1-1.54-.88Zm0-1.33a1.56,1.56,0,0,0,.42,1.1,1.44,1.44,0,0,0,1.07.45,1.39,1.39,0,0,0,1.19-.58,2.66,2.66,0,0,0,.43-1.62,2,2,0,0,0-.41-1.36,1.33,1.33,0,0,0-1.08-.5,1.49,1.49,0,0,0-1.17.51,1.84,1.84,0,0,0-.45,1.27Z" fill="#008bfd"/><path d="M96.48,194.3h-.87l-.78-2H91.75l-.73,2h-.88l2.76-7.19h.8Zm-1.92-2.77-1.15-3.1a2.67,2.67,0,0,1-.11-.48h0a2.31,2.31,0,0,1-.12.48L92,191.53Z" fill="#008bfd"/><path d="M98.34,191.57v2.73h-.78v-7.19H99.5a2.58,2.58,0,0,1,1.76.56,2,2,0,0,1,.63,1.58,2.13,2.13,0,0,1-.74,1.7,2.56,2.56,0,0,1-1.85.62Zm0-3.73v3h.91a2,2,0,0,0,1.35-.4,1.43,1.43,0,0,0,.46-1.14c0-1-.57-1.45-1.71-1.45Z" fill="#008bfd"/><path d="M104.06,194.3h-.79v-7.19h.79Z" fill="#008bfd"/></g><path d="M17.37,169.49H10.65a.59.59,0,0,1-.61-.57v-6.44H12v-1.77H24.4a.59.59,0,0,1,.62.57v.09a6.4,6.4,0,0,1,1,.33v-.42a1.53,1.53,0,0,0-1.58-1.46h-13L9.08,162v6.9a1.51,1.51,0,0,0,1.57,1.46h7.28A5.8,5.8,0,0,1,17.37,169.49Z" fill="gray" fill-rule="evenodd"/><path d="M26,171l2.34,3.26-2.17-.54-.61,1.64-2.34-2.88-1.75,2.88-.8-1.74-2.17.54,2.14-3.42s.58.92,2.69.92S26,171,26,171Z" fill="gray" fill-rule="evenodd"/><path d="M23.43,170.42a3.43,3.43,0,1,1,0-6.83,3.43,3.43,0,1,1,0,6.83Zm0-6.06a2.66,2.66,0,1,0,2.9,2.65A2.78,2.78,0,0,0,23.43,164.36Z" fill="gray" fill-rule="evenodd"/><path d="M23.43,172.23a5.24,5.24,0,1,1,0-10.45,5.24,5.24,0,1,1,0,10.45Zm0-9.69a4.48,4.48,0,1,0,0,8.93,4.48,4.48,0,1,0,0-8.93Z" fill="gray" fill-rule="evenodd"/><rect x="104.46" y="61.11" width="114.21" height="20" fill="none"/><g style="isolation:isolate"><path d="M113.41,61.86v-.64h6.65s0-.43.06-1.26l-5.45.28-.2-.67,5.66-.2v-1h-5.26v-.63h6c0,1.57,0,2.74-.11,3.5h1.39v.64Zm1.45,4.78v-2.3H120v-.9h-5.16v-.65h5.88V65h-5.16v1H121v.64Z" fill="#00b0f0"/><path d="M124.29,64.8V61.09h3.43V59h-3.43v-.65h4.16v3.38H125v2.43a27.41,27.41,0,0,0,4.36-.21l.1.64A40.58,40.58,0,0,1,124.29,64.8Zm6.7-2.67v4.79h-.73V57.5H131v4h1.63v.66Z" fill="#00b0f0"/><path d="M136.85,64.54a2.1,2.1,0,0,1-1.74-.86,3.79,3.79,0,0,1-.66-2.35,3.75,3.75,0,0,1,.66-2.35,2.07,2.07,0,0,1,1.74-.86,2.11,2.11,0,0,1,1.75.86,4.51,4.51,0,0,1,0,4.7A2.1,2.1,0,0,1,136.85,64.54Zm0-5.77a1.41,1.41,0,0,0-1.22.7,3.92,3.92,0,0,0,0,3.72,1.43,1.43,0,0,0,1.22.7,1.4,1.4,0,0,0,1.21-.7,3.29,3.29,0,0,0,.48-1.86,3.33,3.33,0,0,0-.47-1.86A1.41,1.41,0,0,0,136.85,58.77ZM141,66.92V57.5h.73v9.42Z" fill="#00b0f0"/><path d="M149.73,60.67a2.31,2.31,0,0,1-.81,1.54,2.41,2.41,0,0,1-1.63.58,2.38,2.38,0,0,1-1.75-.69,2.31,2.31,0,0,1-.71-1.76,2.35,2.35,0,0,1,.71-1.76,2.6,2.6,0,0,1,3.39-.1,2.3,2.3,0,0,1,.8,1.54h1.53V57.5H152v6.85h-.73V60.67Zm-2.44-2.13A1.69,1.69,0,0,0,146,59a2,2,0,0,0,0,2.6,1.67,1.67,0,0,0,1.25.5,1.7,1.7,0,0,0,1.25-.49,2,2,0,0,0,0-2.61A1.69,1.69,0,0,0,147.29,58.54Zm-1.2,8.07V63.53h.74V66h5.41v.64Z" fill="#00b0f0"/><path d="M154.41,65.44v-.65h8.74v.65Zm7.39-6.38h-5.26v1.36h5v.65h-5v1.29H162V63h-6.13V58.42h6Z" fill="#00b0f0"/><path d="M173.54,64.62a6.81,6.81,0,0,1-1.36-1.41,5.51,5.51,0,0,1-.87-1.58,5.45,5.45,0,0,1-.84,1.58,7.28,7.28,0,0,1-1.42,1.54l-.57-.48a5.42,5.42,0,0,0,1.74-1.92,4.88,4.88,0,0,0,.71-2.39V59h-2.09v-.65h4.85V59h-2.05v.94a4.53,4.53,0,0,0,.71,2.33,5.67,5.67,0,0,0,1.7,1.83ZM175.75,62v4.94H175V57.5h.72v3.83h1.64V62Z" fill="#00b0f0"/><path d="M183.68,58a4.46,4.46,0,0,1-1.17,2.9,7.33,7.33,0,0,1-3.1,2.15l-.52-.57a6.73,6.73,0,0,0,2.67-1.57,4.21,4.21,0,0,0,1.29-2.26h-3.33V58Zm2.1,8.92v-3h-5.36v-.66h6.09v3.66Zm0-4.18V61.68h-2V61h2V59.68H183.9V59h1.88V57.5h.73v5.24Z" fill="#00b0f0"/><path d="M128.79,74.4v-.65h8.74v.65Zm7.9-1.47a6.41,6.41,0,0,1-2.14-.7,3.7,3.7,0,0,1-1.38-1.09,4.13,4.13,0,0,1-1.43,1.09,6.4,6.4,0,0,1-2.07.69l-.43-.59a5.5,5.5,0,0,0,2.27-.67,2.47,2.47,0,0,0,1.25-1.24h-3v-.66h6.79v.66h-3a2.53,2.53,0,0,0,1.27,1.24,5.35,5.35,0,0,0,2.24.67Zm-3.53,5.89a4.33,4.33,0,0,1-2.25-.47,1.45,1.45,0,0,1-.77-1.29,1.42,1.42,0,0,1,.78-1.27,5.55,5.55,0,0,1,4.47,0,1.42,1.42,0,0,1,.78,1.27,1.45,1.45,0,0,1-.77,1.29A4.32,4.32,0,0,1,133.16,78.82Zm0-2.88a3.78,3.78,0,0,0-1.7.3.9.9,0,0,0-.57.82.93.93,0,0,0,.58.84,3.79,3.79,0,0,0,1.69.3,3.69,3.69,0,0,0,1.67-.3.93.93,0,0,0,.59-.84.89.89,0,0,0-.58-.82A3.71,3.71,0,0,0,133.16,75.94Z" fill="#00b0f0"/><path d="M139.94,74.41V69.93h4.33v.94h1.87V69.5h.74v5.75h-.74V73.49h-1.87v.92Zm3.62-3.83h-2.88v3.18h2.88Zm.31,8.25a4.22,4.22,0,0,1-2.27-.51,1.48,1.48,0,0,1,0-2.64,5.33,5.33,0,0,1,4.55,0,1.48,1.48,0,0,1,0,2.64A4.23,4.23,0,0,1,143.87,78.83Zm0-3a3.45,3.45,0,0,0-1.71.34.93.93,0,0,0,0,1.74,3.53,3.53,0,0,0,1.7.33,3.6,3.6,0,0,0,1.71-.33,1,1,0,0,0,.59-.87,1,1,0,0,0-.58-.87A3.49,3.49,0,0,0,143.87,75.79Zm.4-2.93h1.87V71.5h-1.87Z" fill="#00b0f0"/><path d="M153.05,77.48v-.64h8.74v.64Zm.77-6.09v-.64h3.24V69.6h.72v1.15H161v.64Zm3.6,4.13a4.32,4.32,0,0,1-2.27-.5,1.49,1.49,0,0,1-.79-1.29,1.48,1.48,0,0,1,.8-1.28,5.34,5.34,0,0,1,4.51,0,1.44,1.44,0,0,1,.8,1.28,1.47,1.47,0,0,1-.79,1.29A4.28,4.28,0,0,1,157.42,75.52Zm0-3a3.7,3.7,0,0,0-1.7.32.94.94,0,0,0-.59.84,1,1,0,0,0,.59.85,4.68,4.68,0,0,0,3.4,0,1,1,0,0,0,.58-.85.93.93,0,0,0-.58-.84A3.7,3.7,0,0,0,157.42,72.57Z" fill="#00b0f0"/><path d="M163.3,75v-.62H172V75Zm1.44,3.79V75.9h5.86v2.89Zm0-5.3V71.28h5.08v-1h-5.08v-.62h5.8v2.16h-5.08v1h5.3v.62Zm5.11,3h-4.42v1.65h4.42Z" fill="#00b0f0"/></g><path d="M58,40.7c-.52.06-1.09.1-1.71.11s-1.74,0-3.35,0v-6h4.53v.65h-3.8v4.74a42.1,42.1,0,0,0,4.28-.12Zm1.09,2.68V34h.73v9.42Z" fill="#008bfd"/><path d="M62.88,39.1V34.58h4.29v2h2V34h.73v6.7h-.73V37.18h-2V39.1Zm3.57-3.87H63.6v3.22h2.85ZM64,43.07v-3h.75v2.35h5.3v.64Z" fill="#008bfd"/><path d="M78.38,39.64V38.2l-2.33.06L76,37.63c2,0,3.65-.05,5.08-.15l0,.6-2,.1v1.46Zm.22-2.56a2.57,2.57,0,0,1-1.52-.39,1.27,1.27,0,0,1-.55-1.06,1.25,1.25,0,0,1,.56-1.07,3.14,3.14,0,0,1,3,0,1.3,1.3,0,0,1,0,2.12A2.55,2.55,0,0,1,78.6,37.08Zm0-2.31a2,2,0,0,0-1,.23.73.73,0,0,0-.38.63.7.7,0,0,0,.38.61,1.86,1.86,0,0,0,1,.24,1.81,1.81,0,0,0,1-.24.7.7,0,0,0,.37-.61.69.69,0,0,0-.37-.62A1.81,1.81,0,0,0,78.6,34.77Zm-1.09,8.42V40h.72v1h4.91V40h.72v3.2Zm5.63-1.56H78.23v.92h4.91Zm-1.6-2.08v-.43H80v-.58h1.55V34.15h.72v5.4Zm1.59,0V34h.73v5.59Z" fill="#008bfd"/><path d="M88.59,38.65a2.22,2.22,0,0,1,0-4.43,2.22,2.22,0,0,1,0,4.43Zm0-3.8a1.39,1.39,0,0,0-1,.42,1.55,1.55,0,0,0-.43,1.17,1.58,1.58,0,0,0,.43,1.16,1.4,1.4,0,0,0,1,.42,1.43,1.43,0,0,0,1-.42,1.83,1.83,0,0,0,0-2.33A1.43,1.43,0,0,0,88.59,34.85Zm-.35,8.27V39.36H89v1.37h4.46V39.36h.72v3.76Zm5.18-1.75H89v1.11h4.46Zm0-2.53v-2h-1.1v2h-.72V34.15h.72v2.08h1.1V34h.73v4.88Z" fill="#008bfd"/><path d="M197.4,115.78q-.78.09-1.71.12c-.63,0-1.74,0-3.35,0v-6h4.54v.65h-3.81v4.74a42.1,42.1,0,0,0,4.28-.12Zm1.09,2.68V109h.73v9.42Z" fill="#008bfd"/><path d="M202.32,114.19v-4.53h4.29v2h1.95V109h.73v6.7h-.73v-3.48h-1.95v1.93Zm3.57-3.88H203v3.23h2.85Zm-2.4,7.85v-3h.74v2.36h5.31v.64Z" fill="#008bfd"/><path d="M192.71,129.58h-.87l-.79-2H188l-.72,2h-.88l2.76-7.18h.8Zm-1.92-2.76-1.15-3.11a2.53,2.53,0,0,1-.11-.47h0a2.17,2.17,0,0,1-.12.47l-1.14,3.11Z" fill="#008bfd"/><path d="M194.74,126.85v2.73H194V122.4h1.94a2.54,2.54,0,0,1,1.77.56,2,2,0,0,1,.63,1.58,2.19,2.19,0,0,1-.74,1.7,2.56,2.56,0,0,1-1.85.61Zm0-3.72v3h.9a2.05,2.05,0,0,0,1.35-.4,1.44,1.44,0,0,0,.47-1.15q0-1.44-1.71-1.44Z" fill="#008bfd"/><path d="M200.62,129.58h-.78V122.4h.78Z" fill="#008bfd"/><path d="M208.52,125.74a2.07,2.07,0,0,1-1.5-.61,2.35,2.35,0,0,1,0-3.22,2.07,2.07,0,0,1,1.5-.61,2.1,2.1,0,0,1,1.5.61,2.35,2.35,0,0,1,0,3.22A2.1,2.1,0,0,1,208.52,125.74Zm0-3.81a1.41,1.41,0,0,0-1,.42,1.61,1.61,0,0,0-.42,1.17,1.54,1.54,0,0,0,.42,1.16,1.46,1.46,0,0,0,2,0,1.55,1.55,0,0,0,.43-1.16,1.58,1.58,0,0,0-.43-1.17A1.39,1.39,0,0,0,208.52,121.93Zm-.35,8.27v-3.76h.72v1.37h4.46v-1.37h.71v3.76Zm5.18-1.74h-4.46v1.1h4.46Zm0-2.54v-2h-1.1v2h-.73v-4.69h.73v2.08h1.1V121h.72v4.88Z" fill="#008bfd"/><path d="M70.13,115.78q-.78.09-1.71.12c-.62,0-1.74,0-3.35,0v-6h4.54v.65H65.8v4.74a41.82,41.82,0,0,0,4.28-.12Zm1.09,2.68V109H72v9.42Z" fill="#0078d7"/><path d="M75.05,114.19v-4.53h4.29v2h2V109H82v6.7h-.73v-3.48h-2v1.93Zm3.57-3.88H75.77v3.23h2.85Zm-2.4,7.85v-3H77v2.36h5.31v.64Z" fill="#0078d7"/><path d="M51.64,127.88c-.62.07-1.89.11-3.83.11v-6.16H51.3v.64H48.53v4.88a26.79,26.79,0,0,0,3.06-.1Zm.84,2.28v-5H50.53v-.65h1.95v-3.24h.73v8.93Zm1.79.3V121H55v9.42Z" fill="#0078d7"/><path d="M65.93,128.89H57.19v-.65h8.74Zm-4.38-5.39A4.26,4.26,0,0,1,60.2,125a6.21,6.21,0,0,1-2.14,1.06l-.5-.58a5,5,0,0,0,2.64-1.33,2.75,2.75,0,0,0,1-1.86v-.49h.75v.49a2.71,2.71,0,0,0,1,1.85,5.34,5.34,0,0,0,2.63,1.33l-.51.58A6.85,6.85,0,0,1,62.9,125,4.38,4.38,0,0,1,61.55,123.5Z" fill="#0078d7"/><path d="M67.36,128.72v-.64h6.39c.1-1.05.16-2,.19-2.86l-5.69.3-.15-.72,5.85-.2v-2H68.57v-.65h6.09v2.74c0,.83-.06,2-.2,3.4H76.1v.64Z" fill="#0078d7"/><path d="M77.53,126.28v-.64h4v-1H79v-3.44h5.87v.64H79.71v.75h5v.64h-5V124H85v.63h-2.7v1h4v.64Zm1.44,4v-3.31h.72V128h4.43v-1.06h.71v3.31Zm5.15-1.61H79.69v1h4.43Z" fill="#0078d7"/><path d="M93.84,125.74a2.14,2.14,0,0,1-2.14-2.22,2.09,2.09,0,0,1,.64-1.61,2.15,2.15,0,0,1,3,0,2.35,2.35,0,0,1,0,3.22A2.07,2.07,0,0,1,93.84,125.74Zm0-3.81a1.4,1.4,0,0,0-1,.43,1.57,1.57,0,0,0-.42,1.16,1.51,1.51,0,0,0,.43,1.16,1.45,1.45,0,0,0,2,0,1.51,1.51,0,0,0,.43-1.16,1.57,1.57,0,0,0-.42-1.16A1.4,1.4,0,0,0,93.84,121.93Zm-.35,8.27v-3.76h.72v1.37h4.46v-1.37h.72v3.76Zm5.18-1.74H94.21v1.1h4.46Zm0-2.54v-2h-1.1v2h-.72v-4.69h.72v2.08h1.1V121h.73v4.88Z" fill="#0078d7"/><path d="M10.12,114.11V108h.73v2.41H13.9V108h.73v6.14ZM13.9,111H10.85v2.43H13.9Zm2.56,5.65v-9.42h.73v9.42Z" fill="#008bfd"/><path d="M20.62,111.53v-3.92H25v3.92Zm3.64-3.27H21.34v2.62h2.92Zm-2.6,8.2v-2.33h5.08v-.95H21.66v-.65h5.8v2.23H22.38v1h5.34v.65ZM26.73,112v-4.76h.73V112Z" fill="#008bfd"/><path d="M10.85,185.24v-6.15h.73v2.42h3.05v-2.42h.73v6.15Zm3.78-3.08H11.58v2.43h3.05Zm2.56,5.64v-9.41h.73v9.41Z" fill="#008bfd"/><path d="M21.35,182.65v-3.91h4.36v3.91ZM25,179.39H22.07V182H25Zm-2.6,8.19v-2.32h5.08v-1H22.39v-.65h5.8v2.24H23.11v1.05h5.34v.64Zm5.07-4.43v-4.76h.73v4.76Z" fill="#008bfd"/><path d="M10.85,36.92V30.78h.73v2.41h3.05V30.78h.73v6.14Zm3.78-3.08H11.58v2.43h3.05Zm2.56,5.65V30.07h.73v9.42Z" fill="#008bfd"/><path d="M21.35,34.34V30.42h4.36v3.92ZM25,31.07H22.07v2.62H25Zm-2.6,8.2V36.94h5.08V36H22.39v-.65h5.8v2.23H23.11v1h5.34v.65Zm5.07-4.44V30.07h.73v4.76Z" fill="#008bfd"/><path d="M17.37,98.69H10.65a.59.59,0,0,1-.61-.57V91.68H12V89.91H24.4a.59.59,0,0,1,.62.57v.09a6.4,6.4,0,0,1,1,.33v-.42A1.53,1.53,0,0,0,24.4,89h-13l-2.34,2.2v6.9a1.51,1.51,0,0,0,1.57,1.46h7.28A5.8,5.8,0,0,1,17.37,98.69Z" fill="gray" fill-rule="evenodd"/><path d="M26,100.22l2.34,3.26-2.17-.54-.61,1.64-2.34-2.88-1.75,2.88-.8-1.74-2.17.54L20.65,100s.58.92,2.69.92S26,100.22,26,100.22Z" fill="gray" fill-rule="evenodd"/><path d="M23.43,99.63a3.43,3.43,0,1,1,0-6.83,3.43,3.43,0,1,1,0,6.83Zm0-6.06a2.66,2.66,0,1,0,2.9,2.65A2.78,2.78,0,0,0,23.43,93.57Z" fill="gray" fill-rule="evenodd"/><path d="M23.43,101.44a5.24,5.24,0,1,1,0-10.45,5.24,5.24,0,1,1,0,10.45Zm0-9.69a4.48,4.48,0,1,0,0,8.93,4.48,4.48,0,1,0,0-8.93Z" fill="gray" fill-rule="evenodd"/><path d="M17.37,21.52H10.65A.59.59,0,0,1,10,21V14.51H12V12.74H24.4a.59.59,0,0,1,.62.57v.09a6.4,6.4,0,0,1,1,.33v-.42a1.53,1.53,0,0,0-1.58-1.46h-13l-2.34,2.2V21a1.51,1.51,0,0,0,1.57,1.46h7.28A5.8,5.8,0,0,1,17.37,21.52Z" fill="gray" fill-rule="evenodd"/><path d="M26,23.05l2.34,3.26-2.17-.54-.61,1.64-2.34-2.88-1.75,2.88-.8-1.74-2.17.54,2.14-3.42s.58.92,2.69.92S26,23.05,26,23.05Z" fill="gray" fill-rule="evenodd"/><path d="M23.43,22.45A3.58,3.58,0,0,1,19.72,19a3.58,3.58,0,0,1,3.71-3.42A3.58,3.58,0,0,1,27.15,19,3.58,3.58,0,0,1,23.43,22.45Zm0-6.06A2.78,2.78,0,0,0,20.54,19a2.91,2.91,0,0,0,5.79,0A2.79,2.79,0,0,0,23.43,16.39Z" fill="gray" fill-rule="evenodd"/><path d="M23.43,24.27a5.48,5.48,0,0,1-5.7-5.22,5.48,5.48,0,0,1,5.7-5.23,5.48,5.48,0,0,1,5.69,5.23A5.47,5.47,0,0,1,23.43,24.27Zm0-9.69a4.7,4.7,0,0,0-4.88,4.47,4.69,4.69,0,0,0,4.88,4.46,4.68,4.68,0,0,0,4.87-4.46A4.69,4.69,0,0,0,23.43,14.58Z" fill="gray" fill-rule="evenodd"/><path d="M80.65,24.41a11.81,11.81,0,0,1-16.84-2.29A12.56,12.56,0,0,1,66.05,4.83a11.82,11.82,0,0,1,16.84,2.3A12.54,12.54,0,0,1,80.65,24.41ZM84.31,6A13.57,13.57,0,0,0,65,3.37,14.43,14.43,0,0,0,62.4,23.24a13.62,13.62,0,0,0,11,5.55,13.45,13.45,0,0,0,8.39-2.92A14.44,14.44,0,0,0,84.31,6Z" fill="#008bfd"/><path d="M66.68,17.19a17,17,0,0,1-2-2.35,18.28,18.28,0,0,0-1.66,6.88c.11.16.11.29.23.44a12.55,12.55,0,0,0,2,2.05A14.13,14.13,0,0,1,66.68,17.19Z" fill="#008bfd"/><path d="M71.29,7.75a21,21,0,0,0-3.33,3,15.71,15.71,0,0,0-1.61,2,15.42,15.42,0,0,0,1.9,2.46,16.32,16.32,0,0,1,2.2-2.56,26.47,26.47,0,0,1,3.13-2.61C72.78,9.31,72,8.54,71.29,7.75Z" fill="#008bfd"/><path d="M82.76,7A12,12,0,0,0,81,5.13a12.53,12.53,0,0,0-8,1.53c.76.84,1.51,1.63,2.24,2.36C79.63,6.59,82.76,7,82.76,7Z" fill="#008bfd"/><path d="M65,15a19.82,19.82,0,0,1,1.19-2.06,9.84,9.84,0,0,1-1.6-6.79,13.09,13.09,0,0,0-1.29,1.6C62.87,9.34,62.85,11.9,65,15Z" fill="#008bfd"/><path d="M70.52,17.37a21.6,21.6,0,0,1-2.27-2.14,14.25,14.25,0,0,0-1.14,1.95,23.54,23.54,0,0,0,2.09,1.91,19.12,19.12,0,0,0,12.56,4.38,9,9,0,0,0,1.54-1.94C82.07,21.79,76.81,22.48,70.52,17.37Z" fill="#008bfd"/><path d="M65.16,14.83a15.72,15.72,0,0,0,2,2.35,15.36,15.36,0,0,1,1.14-1.95,15.42,15.42,0,0,1-1.9-2.46A15.58,15.58,0,0,0,65.16,14.83Z" fill="#008bfd"/><path d="M73.58,10.07a97,97,0,0,0,11.15,8.82,9.82,9.82,0,0,0,.33-1.05A95.51,95.51,0,0,1,75.23,9Q74.44,9.47,73.58,10.07Z" fill="#008bfd"/><path d="M73,6.66q-1.65-1.77-3.36-3.8A10.05,10.05,0,0,0,68,3.52a26.3,26.3,0,0,0,3.24,4.22A17.22,17.22,0,0,1,73,6.66Z" fill="#008bfd"/><path d="M73.06,6.62a18.74,18.74,0,0,0-1.87,1.19c.72.78,1.45,1.59,2.25,2.35.57-.4,1.34-.88,1.87-1.18C74.57,8.25,73.82,7.46,73.06,6.62Z" fill="#008bfd"/><path d="M72.86,6.52a16.24,16.24,0,0,0-1.67,1.12c.72.79,1.74,1.81,2.54,2.57.57-.4,1-.8,1.58-1.11C74.57,8.38,73.61,7.35,72.86,6.52Z" fill="#008bfd"/><path d="M78.92,13.07a2.7,2.7,0,0,0-.48,3.7,2.56,2.56,0,0,0,3.63.51,2.72,2.72,0,0,0,.48-3.72A2.55,2.55,0,0,0,78.92,13.07Z" fill="#008bfd"/><path d="M73.75,19.2a2.52,2.52,0,0,0-.45,3.44,2.37,2.37,0,0,0,3.36.45,2.49,2.49,0,0,0,.44-3.43A2.36,2.36,0,0,0,73.75,19.2Z" fill="#008bfd"/><path d="M64.6,11.87a3.79,3.79,0,0,0-.68,5.21,3.58,3.58,0,0,0,5.1.7,3.8,3.8,0,0,0,.67-5.23A3.59,3.59,0,0,0,64.6,11.87Z" fill="#008bfd"/><path d="M107,154V131.82C107,113.88,106,92,144,92" fill="none" stroke="#505050" stroke-miterlimit="10"/><path d="M87.59,165.63h8.24c6.36,0,11.15-3.46,11.15-9.41v-16.7" fill="none" stroke="#505050" stroke-miterlimit="10"/><path d="M106.19,29.55V51.92c0,18.06-1,40.08,37,40.08" fill="none" stroke="#505050" stroke-miterlimit="10"/><path d="M89.12,16.36h7.26c5.59,0,9.81,3.67,9.81,10V44.08" fill="none" stroke="#505050" stroke-miterlimit="10"/><path d="M181,87.78l8,4-8,4a9,9,0,0,0,0-8" fill="#505050" fill-rule="evenodd"/><path d="M181,87.79l8,4-8,4a9,9,0,0,0,0-8" fill="#505050" fill-rule="evenodd"/><path d="M181,87.79l8,4-8,4a9.06,9.06,0,0,0,0-8" fill="#505050" fill-rule="evenodd"/><rect x="91.55" y="91.49" width="91.09" height="1" rx="0.42" fill="#505050"/></svg>