<svg xmlns="http://www.w3.org/2000/svg" viewBox="0 0 224.4 98.83"><title>OJ104544462</title><path d="M60.23,66.79H46V38.41H60.23v7.68H61V37.65H45.26v29.9H61V65.23h-.76Z" fill="#0078d7"/><path d="M59.47,39.21H46.83v4.58H59.47Zm-9.58,1.91h6.53v.76H49.89ZM56.48,43H49.86V42.2h6.62Z" fill="#0078d7"/><path d="M46.79,44.57v3h8.6V46.1h4.08V44.57Z" fill="#0078d7"/><rect x="46.79" y="48.38" width="8.6" height="2.68" fill="#0078d7"/><path d="M46.79,66H59.44v-.79H55.36V51.85h-8.6V66Zm1.53-2.73h2.29V64.5H48.32Z" fill="#0078d7"/><path d="M70,63H67.55V61.09H65V63H62.59a1.32,1.32,0,0,0-1.31,1.14h10C71.35,63.54,70.68,63,70,63Z" fill="#0078d7"/><path d="M74.85,49H57.75a.64.64,0,0,0-.67.6V59.72a.64.64,0,0,0,.67.6h17.1a.64.64,0,0,0,.67-.6V49.59A.62.62,0,0,0,74.85,49Zm-1,9.84H58.77V50.52H73.83Z" fill="#0078d7"/><path d="M70.21,56.35V52.91L66.7,51.06l-3.5,1.78v3.54l3.5,1.81Zm-4.4-2.3.89-.44.86.44-.86.48Zm0-1.14.86-.45.86.45-.86.48Zm1.91,4.52-1,.51V57l1-.51Zm0-1.18-1,.51v-.92l1-.51Zm0-1.11-1,.51v-.93l1-.51Zm-.82-1.66.86-.44.89.44-.86.45Zm2,3.35-1,.5v-.92l1-.51Zm0-1.18-1,.51v-.93l1-.51Zm0-1.15L68,55v-.89l1-.51Zm1,1.75-.86.45v-.93l.86-.44Zm0-1.14-.86.44v-.92l.86-.45ZM70,54l-.86.44v-.92L70,53Zm-.19-1.05-.89.44L68,52.91l.86-.45Zm-1.11-.58-.89.45-.86-.45.86-.44Zm-2-1,.86.45-.86.45-.89-.45Zm-1.11.61.86.44-.86.45-.86-.45Zm-1.08.57.89.45-.89.44-.9-.44Zm-.26,4.27-.86-.45v-.92l.86.45Zm0-1.18-.86-.44v-.93l.86.45Zm0-1.15L63.39,54v-.89l.86.44Zm1.18,2.93-1-.5V55.9l1,.51Zm0-1.17-1-.51v-.93l1,.51Zm0-1.15-1-.51v-.89l1,.51Zm-.7-1.53.89-.44.86.44-.89.48Zm1.88,4.46-1-.51v-.89l1,.51Zm0-1.15-1-.51v-.92l1,.51Zm0-1.14-1-.51v-.93l1,.51Z" fill="#0078d7"/><g style="isolation:isolate"><path d="M37.26,76.21a37.7,37.7,0,0,1-3.83.12V70.16h3.49v.65H34.15v4.88a26.91,26.91,0,0,0,3.06-.1Zm.84,2.28v-5h-2v-.65h2V69.57h.72v8.92Zm1.79.31V69.38h.73V78.8Z" fill="#008bfd"/><path d="M51.38,77.23H42.64v-.66h8.74ZM47,71.83a4.18,4.18,0,0,1-1.35,1.51,6.07,6.07,0,0,1-2.14,1.07l-.5-.58a5.1,5.1,0,0,0,2.64-1.33,2.75,2.75,0,0,0,1-1.86v-.49h.75v.49a2.71,2.71,0,0,0,1,1.85A5.34,5.34,0,0,0,51,73.82l-.52.58a7.14,7.14,0,0,1-2.14-1.1A4.3,4.3,0,0,1,47,71.83Z" fill="#008bfd"/><path d="M52.64,77.06v-.65H59c.1-1,.16-2,.19-2.85l-5.69.3-.15-.72,5.85-.2v-2H53.85v-.65h6.09V73c0,.82-.06,2-.2,3.39h1.64v.65Z" fill="#008bfd"/><path d="M62.64,74.62V74h4V73H64.09V69.55H70v.64H64.82v.75h5v.63h-5v.79h5.26V73h-2.7v1h4v.64Zm1.44,4V75.28h.72v1.06h4.43V75.28h.71v3.31ZM69.23,77H64.8v1h4.43Z" fill="#008bfd"/><path d="M78.61,74.07a2.12,2.12,0,0,1-2.14-2.21,2.13,2.13,0,0,1,.64-1.62,2.18,2.18,0,0,1,3,0,2.13,2.13,0,0,1,.64,1.62,2.12,2.12,0,0,1-2.14,2.21Zm0-3.8a1.43,1.43,0,0,0-1,.42,1.61,1.61,0,0,0-.42,1.17A1.52,1.52,0,0,0,77.59,73a1.45,1.45,0,0,0,2,0,1.52,1.52,0,0,0,.43-1.16,1.61,1.61,0,0,0-.42-1.17A1.43,1.43,0,0,0,78.61,70.27Zm-.35,8.27V74.78H79v1.37h4.46V74.78h.72v3.76Zm5.18-1.74H79v1.1h4.46Zm0-2.54v-2h-1.1v2h-.72V69.57h.72v2.08h1.1V69.38h.73v4.88Z" fill="#008bfd"/></g><path d="M7.85,44.76a4.5,4.5,0,0,0-3,5.67c.66,2.55,3,4.21,5.27,3.66a4.49,4.49,0,0,0,3-5.66C12.57,45.76,10.16,44.1,7.85,44.76Z" fill="#008bfd"/><path d="M12.78,54.78c-.43,0-.88.77-1.54,1.11s-1.31.89-3.17,0S6,54.22,4.43,54.22s-4,2.78-4,6.88H16a12.15,12.15,0,0,0-1.11-4.21C13.77,54.78,13.23,54.78,12.78,54.78Z" fill="#008bfd"/><path d="M14.19,49.84H10.07a.7.7,0,0,0-.65.65v2.85a.73.73,0,0,0,.76.66h.76v5.15a1,1,0,0,0,1,1.09,1,1,0,0,0,1-1h.21V58.6c0-.22.33-.33.33-.33v-.33c-.33-.11-.54-.32-.54-.43v-.33L13.1,57a3.53,3.53,0,0,0,.33-.55,2.4,2.4,0,0,1-.33-.55c-.1-.11-.1-.33-.21-.44V55.2a2.52,2.52,0,0,1,.76-1.09h.54a.71.71,0,0,0,.65-.66v-3A.62.62,0,0,0,14.19,49.84ZM11.8,59.37c0,.22,0,.33-.21.33s-.22-.22-.22-.33V54.55c0-.22.11-.33.22-.33s.21.22.21.33Zm.33-7.78a.66.66,0,0,1,0-1.32.71.71,0,0,1,.65.66A.63.63,0,0,1,12.13,51.59Z" fill="#008bfd" stroke="gray" stroke-linecap="round" stroke-linejoin="round" stroke-width="0.75"/><path d="M11.57,59.67a.24.24,0,0,1-.22-.22v-5a.22.22,0,0,1,.44,0v5.1C11.79,59.67,11.68,59.67,11.57,59.67Z" fill="#fff"/><ellipse cx="12.14" cy="50.92" rx="0.66" ry="0.67" fill="#fff"/><path d="M191.76,41.68h-20.5a1.1,1.1,0,0,0-1.09,1.11V59.53a1.09,1.09,0,0,0,1.09,1.1h5.28a3.29,3.29,0,0,0,3.21,2.27,3.37,3.37,0,0,0,0-6.74,3.29,3.29,0,0,0-3.21,2.27h-4.19v-12h18.31v12h-3.45a7.61,7.61,0,0,0-7.46-6.57,8.25,8.25,0,0,0-3.64.92l1,2a5.28,5.28,0,0,1,2.55-.68,5.46,5.46,0,0,1,0,10.92,5.28,5.28,0,0,1-2.55-.68l-1,2a7.4,7.4,0,0,0,3.64.92,7.61,7.61,0,0,0,7.46-6.56h4.55a1.09,1.09,0,0,0,1.09-1.1V42.79A1.14,1.14,0,0,0,191.76,41.68Z" fill="#008bfd"/><g style="isolation:isolate"><path d="M173.72,77.92h-.88l-.78-2H169l-.73,2h-.87l2.76-7.18h.8Zm-1.93-2.76-1.14-3.11a1.92,1.92,0,0,1-.11-.47h0a1.79,1.79,0,0,1-.11.47l-1.14,3.11Z" fill="#008bfd"/><path d="M175.58,75.19v2.73h-.79V70.74h1.94a2.56,2.56,0,0,1,1.77.56,2,2,0,0,1,.63,1.57,2.2,2.2,0,0,1-.74,1.71,2.52,2.52,0,0,1-1.85.61Zm0-3.72v3h.9a2.05,2.05,0,0,0,1.35-.4,1.44,1.44,0,0,0,.47-1.15q0-1.44-1.71-1.44Z" fill="#008bfd"/><path d="M181.29,77.92h-.79V70.74h.79Z" fill="#008bfd"/><path d="M188.84,74.08a2.12,2.12,0,1,1,1.51-.61A2.14,2.14,0,0,1,188.84,74.08Zm0-3.81a1.39,1.39,0,0,0-1,.42,1.62,1.62,0,0,0-.43,1.17,1.56,1.56,0,0,0,.43,1.16,1.46,1.46,0,0,0,2.05,0,1.56,1.56,0,0,0,.42-1.16,1.61,1.61,0,0,0-.42-1.17A1.4,1.4,0,0,0,188.84,70.27Zm-.35,8.27V74.78h.73v1.37h4.45V74.78h.72v3.76Zm5.18-1.74h-4.45v1.1h4.45Zm0-2.54v-2h-1.09v2h-.73V69.57h.73v2.08h1.09V69.38h.73v4.88Z" fill="#008bfd"/></g><path d="M161.69,50.43l8.05,4-3.46,1.74-4.5,2.27a9,9,0,0,0,0-8" fill="#505050"/><rect x="36.94" y="8" width="187.09" height="20" fill="none"/><g style="isolation:isolate"><path d="M44.4,6.44H41.66V5.82H44.4Z" fill="#00b0f0"/><path d="M52.37,5.6a2.51,2.51,0,0,1-1.77-.67,2.26,2.26,0,0,1-.7-1.73,2.24,2.24,0,0,1,.7-1.72,2.69,2.69,0,0,1,3.53,0,2.24,2.24,0,0,1,.7,1.72,2.3,2.3,0,0,1-.7,1.73A2.49,2.49,0,0,1,52.37,5.6Zm0-4.13a1.71,1.71,0,0,0-1.26.47,1.69,1.69,0,0,0-.48,1.26,1.74,1.74,0,1,0,3.48,0,1.69,1.69,0,0,0-.48-1.26A1.7,1.7,0,0,0,52.37,1.47Zm-1.29,8v-3h.73V8.85h5.46v.66Zm5.21-2.17V.46H57V7.34Z" fill="#00b0f0"/><path d="M59.19,5.36V4.7h8.74v.66Zm7.9-1.48A6.65,6.65,0,0,1,65,3.19,4,4,0,0,1,63.57,2.1a4.28,4.28,0,0,1-1.43,1.09,6.4,6.4,0,0,1-2.06.68l-.43-.58a5.55,5.55,0,0,0,2.27-.68,2.47,2.47,0,0,0,1.25-1.24h-3V.71H67v.66H64a2.53,2.53,0,0,0,1.27,1.24,5.41,5.41,0,0,0,2.24.68Zm-3.53,5.9a4.4,4.4,0,0,1-2.24-.47A1.45,1.45,0,0,1,60.54,8a1.43,1.43,0,0,1,.78-1.27,5.68,5.68,0,0,1,4.48,0A1.43,1.43,0,0,1,66.58,8a1.45,1.45,0,0,1-.78,1.3A4.4,4.4,0,0,1,63.56,9.78Zm0-2.88a3.75,3.75,0,0,0-1.69.29A.91.91,0,0,0,61.3,8a.92.92,0,0,0,.58.84,3.56,3.56,0,0,0,1.68.31,3.62,3.62,0,0,0,1.68-.31A.92.92,0,0,0,65.82,8a.91.91,0,0,0-.57-.82A3.77,3.77,0,0,0,63.56,6.9Z" fill="#00b0f0"/><path d="M72.7,8.35V7.69h3.53V5.39H77v2.3h4.49v.66Zm7.2-1.66-.7-.08a23,23,0,0,0,.16-2.38l-5.79.4-.15-.7,5.94-.31V2h-5.5V1.35h6.24V3.56A21.32,21.32,0,0,1,79.9,6.69Z" fill="#00b0f0"/><path d="M82.7,8.24V7.59h8.74v.65ZM90,2h-5V4.91h5.2v.66H84.18V1.33H90Z" fill="#00b0f0"/><path d="M96.22,8.43V7.79H105v.64ZM97,2.34V1.71h3.24V.55H101V1.71h3.24v.63Zm3.6,4.14A4.22,4.22,0,0,1,98.32,6a1.49,1.49,0,0,1-.79-1.29,1.47,1.47,0,0,1,.8-1.28,5.43,5.43,0,0,1,4.51,0,1.44,1.44,0,0,1,0,2.57A4.18,4.18,0,0,1,100.59,6.48Zm0-3a3.71,3.71,0,0,0-1.7.31,1,1,0,0,0-.59.84,1,1,0,0,0,.59.86,4.68,4.68,0,0,0,3.4,0,1,1,0,0,0,.58-.86.93.93,0,0,0-.59-.84A3.64,3.64,0,0,0,100.59,3.53Z" fill="#00b0f0"/><path d="M106.22,6V5.33H115V6Zm1.44,3.8V6.86h5.86V9.75Zm0-5.31V2.24h5.08v-1h-5.08V.67h5.8V2.82h-5.08v1h5.3v.62Zm5.11,3h-4.42V9.13h4.42Z" fill="#00b0f0"/><path d="M117.84,10.63a6.37,6.37,0,0,1-1.55-4.37,6.61,6.61,0,0,1,1.55-4.45h.7A6.8,6.8,0,0,0,117,6.25a6.6,6.6,0,0,0,1.57,4.38Z" fill="#00b0f0"/><path d="M120.38,6.27V9h-.79V1.81h1.94a2.58,2.58,0,0,1,1.76.56A2,2,0,0,1,123.93,4a2.15,2.15,0,0,1-.75,1.7,2.55,2.55,0,0,1-1.84.62Zm0-3.73v3h.9a2.05,2.05,0,0,0,1.35-.4A1.43,1.43,0,0,0,123.1,4c0-1-.57-1.45-1.71-1.45Z" fill="#00b0f0"/><path d="M130.23,9h-1.11L126.3,5.7a1.37,1.37,0,0,1-.19-.24h0V9h-.78V1.81h.78V5.19h0A1.33,1.33,0,0,1,126.3,5L129,1.81h1L126.9,5.25Z" fill="#00b0f0"/><path d="M135.6,8.69a4.23,4.23,0,0,1-2,.43,3.18,3.18,0,0,1-2.44-1,3.65,3.65,0,0,1-.93-2.58,3.86,3.86,0,0,1,1-2.76,3.45,3.45,0,0,1,2.64-1.09,4.16,4.16,0,0,1,1.69.3v.85a3.42,3.42,0,0,0-1.71-.43,2.57,2.57,0,0,0-2,.87,3.2,3.2,0,0,0-.77,2.21,3,3,0,0,0,.72,2.1,2.44,2.44,0,0,0,1.92.81,3.6,3.6,0,0,0,1.88-.48Z" fill="#00b0f0"/><path d="M140.85,9h-3.77V1.81h3.61v.73h-2.83V5h2.61V5.7h-2.61V8.27h3Z" fill="#00b0f0"/><path d="M150.66,7.49A8.24,8.24,0,0,1,149.18,6a5.47,5.47,0,0,1-.88-1.58,5.87,5.87,0,0,1-.88,1.66A7.23,7.23,0,0,1,146,7.6l-.56-.48a6,6,0,0,0,1.84-2,4.94,4.94,0,0,0,.69-2.47V1.1h.73V2.61a4.66,4.66,0,0,0,.68,2.4,5.66,5.66,0,0,0,1.83,1.91Zm2.11-2.56V9.87H152V.46h.73V4.28h1.63v.65Z" fill="#00b0f0"/><path d="M157.78,3.72a1.5,1.5,0,0,1-1-1.39A1.44,1.44,0,0,1,157.6,1,5.65,5.65,0,0,1,162,1a1.44,1.44,0,0,1,.78,1.3,1.48,1.48,0,0,1-1,1.39V5.05h2.35V5.7h-8.74V5.05h2.34Zm2,6.11a4.37,4.37,0,0,1-2.24-.47,1.42,1.42,0,0,1-.78-1.27,1.44,1.44,0,0,1,.78-1.29,5.57,5.57,0,0,1,4.48,0,1.44,1.44,0,0,1,.78,1.29,1.42,1.42,0,0,1-.78,1.27A4.37,4.37,0,0,1,159.81,9.83Zm0-2.88a3.58,3.58,0,0,0-1.69.31.92.92,0,0,0-.57.83.91.91,0,0,0,.57.82,4.91,4.91,0,0,0,3.38,0,.91.91,0,0,0,.57-.82.92.92,0,0,0-.57-.84A3.79,3.79,0,0,0,159.81,7Zm0-5.75c-1.49,0-2.23.37-2.23,1.13a.92.92,0,0,0,.55.83,3.81,3.81,0,0,0,1.68.29,3.81,3.81,0,0,0,1.68-.29.92.92,0,0,0,.55-.83C162,1.57,161.3,1.2,159.81,1.2Zm-1.3,3.85h2.59V4a6.82,6.82,0,0,1-1.29.11,6.68,6.68,0,0,1-1.3-.12Z" fill="#00b0f0"/><path d="M164.94,10.63a6.64,6.64,0,0,0,1.56-4.38,6.76,6.76,0,0,0-1.58-4.44h.71a6.62,6.62,0,0,1,1.56,4.45,6.38,6.38,0,0,1-1.56,4.37Z" fill="#00b0f0"/><path d="M44.4,18.44H41.66v-.62H44.4Z" fill="#00b0f0"/><path d="M58,13.81l-2,7.19H55l-1.5-5.3a4.12,4.12,0,0,1-.12-.73h0a3.37,3.37,0,0,1-.12.72L51.73,21h-.92L48.7,13.81h.86l1.56,5.56a2.85,2.85,0,0,1,.12.72h0a3.68,3.68,0,0,1,.16-.72L53,13.81h.75l1.55,5.6a6.61,6.61,0,0,1,.12.67h0a3.23,3.23,0,0,1,.13-.69l1.5-5.58Z" fill="#00b0f0"/><path d="M58.83,14a.5.5,0,0,1,.15-.37.51.51,0,0,1,.72,0,.5.5,0,0,1,.15.37.48.48,0,0,1-.15.36.49.49,0,0,1-.36.15.52.52,0,0,1-.36-.14A.5.5,0,0,1,58.83,14Zm.11,7V15.86h.77V21Z" fill="#00b0f0"/><path d="M65.61,21h-.77V18.07c0-1.11-.41-1.67-1.22-1.67a1.36,1.36,0,0,0-1,.47,1.8,1.8,0,0,0-.41,1.2V21H61.4V15.86h.77v.86h0a1.85,1.85,0,0,1,1.69-1,1.58,1.58,0,0,1,1.29.54,2.39,2.39,0,0,1,.44,1.57Z" fill="#00b0f0"/><path d="M71.51,21h-.76v-.89h0a2.07,2.07,0,0,1-3.32.32,2.82,2.82,0,0,1-.58-1.88,3.1,3.1,0,0,1,.65-2,2.08,2.08,0,0,1,1.69-.76,1.68,1.68,0,0,1,1.56.84h0V13.4h.76Zm-.76-3.1a1.49,1.49,0,0,0-.43-1.06,1.41,1.41,0,0,0-1.06-.44,1.43,1.43,0,0,0-1.2.57,2.41,2.41,0,0,0-.44,1.54A2.3,2.3,0,0,0,68,19.93a1.39,1.39,0,0,0,1.14.53A1.46,1.46,0,0,0,70.3,20a1.84,1.84,0,0,0,.45-1.27Z" fill="#00b0f0"/><path d="M72.85,18.5a2.79,2.79,0,0,1,.7-2,2.47,2.47,0,0,1,1.9-.73,2.28,2.28,0,0,1,1.77.7,2.82,2.82,0,0,1,.65,2,2.78,2.78,0,0,1-.7,2,2.43,2.43,0,0,1-1.84.74,2.32,2.32,0,0,1-1.8-.73A2.65,2.65,0,0,1,72.85,18.5Zm.79,0a2.14,2.14,0,0,0,.47,1.45,1.59,1.59,0,0,0,1.27.55,1.55,1.55,0,0,0,1.26-.53,2.26,2.26,0,0,0,.43-1.49,2.34,2.34,0,0,0-.43-1.51,1.75,1.75,0,0,0-2.53,0A2.22,2.22,0,0,0,73.64,18.46Z" fill="#00b0f0"/><path d="M85.59,15.86,84.05,21h-.8l-1.08-3.72a2.73,2.73,0,0,1-.08-.46h0a2.06,2.06,0,0,1-.1.45L80.81,21H80l-1.55-5.14h.81l1.08,3.89a2.36,2.36,0,0,1,.07.46h0a2.21,2.21,0,0,1,.09-.46l1.2-3.89h.71l1.08,3.9a4.23,4.23,0,0,1,.07.46h.05a1.65,1.65,0,0,1,.08-.46l1.06-3.9Z" fill="#00b0f0"/><path d="M86.23,20a2.45,2.45,0,0,0,1.48.5c.73,0,1.09-.25,1.09-.74a.64.64,0,0,0-.24-.52,3.39,3.39,0,0,0-.94-.48,2.81,2.81,0,0,1-1.09-.65,1.19,1.19,0,0,1-.29-.84,1.24,1.24,0,0,1,.57-1.06,2.22,2.22,0,0,1,1.38-.41,2.83,2.83,0,0,1,1.18.23v.8a2.32,2.32,0,0,0-1.3-.37,1.25,1.25,0,0,0-.76.21.65.65,0,0,0-.27.53.67.67,0,0,0,.2.52,3,3,0,0,0,.88.45,2.93,2.93,0,0,1,1.2.7,1.24,1.24,0,0,1,.28.82A1.28,1.28,0,0,1,89,20.72a2.51,2.51,0,0,1-1.45.4,2.76,2.76,0,0,1-1.36-.32Z" fill="#00b0f0"/><path d="M94.19,17.9v-.65h4v-1H95.64V12.67h5.87v.64H96.37v.84h5v.64h-5v.85h5.26v.64h-2.7v1h4v.65Zm4.37,4a4.72,4.72,0,0,1-2.29-.44,1.37,1.37,0,0,1,0-2.47,4.71,4.71,0,0,1,2.29-.45,4.64,4.64,0,0,1,2.28.45,1.36,1.36,0,0,1,0,2.47A4.65,4.65,0,0,1,98.56,21.86Zm0-2.73c-1.53,0-2.3.35-2.3,1.05s.77,1.06,2.3,1.06,2.3-.35,2.3-1.06S100.09,19.13,98.56,19.13Z" fill="#00b0f0"/><path d="M106.68,12.32h.73v1.12h2.42v.64h-5.57v-.64h2.42Zm.38,5.56a2.7,2.7,0,0,1-1.7-.47,1.45,1.45,0,0,1,0-2.39,3.31,3.31,0,0,1,3.4,0,1.45,1.45,0,0,1,0,2.39A2.76,2.76,0,0,1,107.06,17.88Zm0-2.71a2,2,0,0,0-1.18.29.91.91,0,0,0-.43.75.87.87,0,0,0,.43.76,2.55,2.55,0,0,0,2.36,0,.87.87,0,0,0,.43-.76.91.91,0,0,0-.43-.75A2,2,0,0,0,107.07,15.17Zm-1.3,6.61V18.49h.72v1.07h4.36V18.49h.72v3.29Zm5.08-1.59h-4.36v.95h4.36Zm.72-4.36V18h-.73v-5.5h.73v2.72h1.32v.65Z" fill="#00b0f0"/><path d="M120.88,17.6a2.49,2.49,0,0,1-1.76-.67,2.27,2.27,0,0,1-.71-1.73,2.25,2.25,0,0,1,.71-1.72,2.48,2.48,0,0,1,1.76-.66,2.45,2.45,0,0,1,1.76.66,2.24,2.24,0,0,1,.7,1.72,2.26,2.26,0,0,1-.7,1.73A2.47,2.47,0,0,1,120.88,17.6Zm0-4.13a1.74,1.74,0,1,0,1.26,3,1.72,1.72,0,0,0,.49-1.27,1.65,1.65,0,0,0-1.75-1.73Zm-1.29,8V18.46h.74v2.39h5.46v.66Zm5.21-2.17V12.46h.74v6.88Z" fill="#00b0f0"/><path d="M127.71,17.36V16.7h8.74v.66Zm7.9-1.48a6.63,6.63,0,0,1-2.14-.69,4,4,0,0,1-1.39-1.09,4.22,4.22,0,0,1-1.42,1.09,6.38,6.38,0,0,1-2.07.68l-.43-.58a5.51,5.51,0,0,0,2.27-.68,2.47,2.47,0,0,0,1.25-1.24h-3v-.66h6.79v.66h-3a2.53,2.53,0,0,0,1.27,1.24,5.36,5.36,0,0,0,2.24.68Zm-3.53,5.9a4.44,4.44,0,0,1-2.25-.47,1.46,1.46,0,0,1-.77-1.3,1.43,1.43,0,0,1,.78-1.27,5.66,5.66,0,0,1,4.47,0,1.43,1.43,0,0,1,.78,1.27,1.46,1.46,0,0,1-.77,1.3A4.42,4.42,0,0,1,132.08,21.78Zm0-2.88a3.79,3.79,0,0,0-1.7.29.91.91,0,0,0-.57.82.93.93,0,0,0,.58.84,3.64,3.64,0,0,0,1.69.31,3.54,3.54,0,0,0,1.67-.31.93.93,0,0,0,.59-.84.9.9,0,0,0-.58-.82A3.73,3.73,0,0,0,132.08,18.9Z" fill="#00b0f0"/><path d="M44.4,30.44H41.66v-.62H44.4Z" fill="#00b0f0"/><path d="M54.41,31.49A8.24,8.24,0,0,1,52.93,30a5.47,5.47,0,0,1-.88-1.58,5.87,5.87,0,0,1-.88,1.66,7.23,7.23,0,0,1-1.46,1.55l-.56-.48a6,6,0,0,0,1.84-2,4.94,4.94,0,0,0,.69-2.47V25.1h.73v1.51a4.66,4.66,0,0,0,.68,2.4,5.66,5.66,0,0,0,1.83,1.91Zm2.11-2.56v4.94h-.73V24.46h.73v3.82h1.63v.65Z" fill="#00b0f0"/><path d="M61.53,27.72a1.5,1.5,0,0,1-1-1.39,1.44,1.44,0,0,1,.78-1.3,5.65,5.65,0,0,1,4.42,0,1.44,1.44,0,0,1,.78,1.3,1.48,1.48,0,0,1-1,1.39v1.33h2.35v.65H59.19v-.65h2.34Zm2,6.11a4.37,4.37,0,0,1-2.24-.47,1.42,1.42,0,0,1-.78-1.27,1.44,1.44,0,0,1,.78-1.29,5.57,5.57,0,0,1,4.48,0,1.44,1.44,0,0,1,.78,1.29,1.42,1.42,0,0,1-.78,1.27A4.37,4.37,0,0,1,63.56,33.83Zm0-2.88a3.58,3.58,0,0,0-1.69.31.92.92,0,0,0-.57.83.91.91,0,0,0,.57.82,4.91,4.91,0,0,0,3.38,0,.91.91,0,0,0,.57-.82.92.92,0,0,0-.57-.84A3.79,3.79,0,0,0,63.56,31Zm0-5.75c-1.49,0-2.23.37-2.23,1.13a.92.92,0,0,0,.55.83,5,5,0,0,0,3.36,0,.92.92,0,0,0,.55-.83C65.79,25.57,65.05,25.2,63.56,25.2Zm-1.3,3.85h2.59V28a6.82,6.82,0,0,1-1.29.11,6.68,6.68,0,0,1-1.3-.12Z" fill="#00b0f0"/><path d="M74.3,31.57A6.78,6.78,0,0,1,73,30.16a5.54,5.54,0,0,1-.88-1.57,5.72,5.72,0,0,1-.84,1.58,7.26,7.26,0,0,1-1.42,1.54l-.56-.49A5.49,5.49,0,0,0,71,29.3a4.84,4.84,0,0,0,.71-2.38v-1H69.6v-.64h4.86v.64h-2v.95a4.48,4.48,0,0,0,.7,2.32A5.72,5.72,0,0,0,74.81,31Zm2.22-2.64v4.94h-.73V24.46h.73v3.82h1.63v.65Z" fill="#00b0f0"/><path d="M85.64,31.5a2.07,2.07,0,0,1-1.73-.87,3.79,3.79,0,0,1-.66-2.35,3.75,3.75,0,0,1,.65-2.35,2.22,2.22,0,0,1,3.49,0,3.75,3.75,0,0,1,.67,2.35,3.75,3.75,0,0,1-.67,2.35A2.1,2.1,0,0,1,85.64,31.5Zm0-5.78a1.44,1.44,0,0,0-1.22.7A3.33,3.33,0,0,0,84,28.28a3.25,3.25,0,0,0,.48,1.86,1.41,1.41,0,0,0,1.21.71,1.43,1.43,0,0,0,1.22-.71,3.33,3.33,0,0,0,.47-1.86,3.33,3.33,0,0,0-.46-1.86A1.43,1.43,0,0,0,85.64,25.72Zm4.16,8.15V24.46h.74v9.41Z" fill="#00b0f0"/><path d="M92.7,30v-.62h8.74V30Zm1.45,3.8V30.86H100v2.89Zm0-5.31v-2.2h5.08v-.95H94.17v-.62H100v2.15H94.9v1h5.29v.62Zm5.12,3H94.86v1.65h4.43Z" fill="#00b0f0"/><path d="M106.11,25.81l-3.44,8.38h-.73l3.44-8.38Z" fill="#00b0f0"/><path d="M109.39,29.25a2.39,2.39,0,0,1-1.72-.65,2.31,2.31,0,0,1,0-3.23,2.39,2.39,0,0,1,1.72-.64,2.45,2.45,0,0,1,1.74.64A2.16,2.16,0,0,1,111.8,27a2.19,2.19,0,0,1-.67,1.63A2.45,2.45,0,0,1,109.39,29.25Zm0-3.9a1.66,1.66,0,0,0-1.2.46,1.61,1.61,0,0,0-.46,1.17,1.64,1.64,0,0,0,.46,1.19,1.81,1.81,0,0,0,2.41,0,1.74,1.74,0,0,0,0-2.36A1.67,1.67,0,0,0,109.39,25.35Zm-1.09,8.27V30.17H114v3.45Zm5-2.8H109V33h4.31Zm.72-3.24v2.08h-.73v-5.2H114v2.47h1.42v.65Z" fill="#00b0f0"/><path d="M116.66,32.43v-.64h4V30.41a3.86,3.86,0,0,1-2-.55,1.42,1.42,0,0,1,.09-2.51,4.17,4.17,0,0,1,2.27-.51,4.26,4.26,0,0,1,2.25.5,1.43,1.43,0,0,1,.09,2.52,3.82,3.82,0,0,1-2,.55v1.38h4v.64Zm.78-6.09v-.63h3.23V24.55h.73v1.16h3.23v.63Zm3.6,1.12a3.68,3.68,0,0,0-1.71.32,1,1,0,0,0-.59.85,1,1,0,0,0,.59.85,3.68,3.68,0,0,0,1.71.32,3.59,3.59,0,0,0,1.69-.32,1,1,0,0,0,.58-.85.94.94,0,0,0-.58-.85A3.62,3.62,0,0,0,121,27.46Z" fill="#00b0f0"/></g><line x1="75.52" y1="54.53" x2="162.7" y2="54.53" fill="none" stroke="#505050" stroke-miterlimit="10"/></svg>