<svg xmlns="http://www.w3.org/2000/svg" viewBox="0 0 194 79.4"><title>OJ104544462</title><path d="M60.2,66.8H46V38.4H60.2v7.7H61V37.7H45.3V67.6H61V65.2h-.8Z" transform="translate(-0.4 -1.5)" fill="#0078d7"/><path d="M59.5,39.2H46.8v4.6H59.5Zm-9.6,1.9h6.5v.8H49.9ZM56.5,43H49.9v-.8h6.6Z" transform="translate(-0.4 -1.5)" fill="#0078d7"/><path d="M46.8,44.6v3h8.6V46.1h4.1V44.6Z" transform="translate(-0.4 -1.5)" fill="#0078d7"/><rect x="46.4" y="46.9" width="8.6" height="2.68" fill="#0078d7"/><path d="M46.8,66H59.4v-.8h-4V51.9H46.8V66Zm1.5-2.7h2.3v1.2H48.3Z" transform="translate(-0.4 -1.5)" fill="#0078d7"/><path d="M70,63H67.6V61.1H65V63H62.6a1.2,1.2,0,0,0-1.3,1.1h10A1.2,1.2,0,0,0,70,63Z" transform="translate(-0.4 -1.5)" fill="#0078d7"/><path d="M74.9,49H57.8c-.4,0-.7.2-.7.6V59.7a.7.7,0,0,0,.7.6H74.9a.6.6,0,0,0,.6-.6V49.6A.6.6,0,0,0,74.9,49Zm-1.1,9.8h-15V50.5h15Z" transform="translate(-0.4 -1.5)" fill="#0078d7"/><path d="M70.2,56.3V52.9l-3.5-1.8-3.5,1.7v3.6l3.5,1.8ZM65.8,54l.9-.4.9.4-.9.5Zm0-1.1.9-.4.9.4-.9.5Zm1.9,4.5-.9.5V57l.9-.5Zm0-1.2-.9.6v-1l.9-.5Zm0-1.1-.9.5v-.9l.9-.5Zm-.8-1.6.9-.5.9.5-.9.4Zm2,3.3-.9.5v-.9l.9-.5Zm0-1.2-.9.6v-1l.9-.5Zm0-1.1L68,55v-.9l.9-.5ZM70,56.2l-.9.5v-.9l.9-.5Zm0-1.1-.9.4v-.9l.9-.4ZM70,54l-.9.4v-.9L70,53Zm-.2-1.1-.9.4-.9-.4.9-.4Zm-1.1-.6-.9.5-.9-.5.9-.4Zm-2-1,.9.4-.9.5-.9-.5Zm-1.1.6.8.4-.8.5-.9-.5Zm-1.1.6.9.4-.9.4-.9-.4Zm-.3,4.2-.8-.4v-.9l.8.4Zm0-1.2-.8-.4v-.9l.8.4Zm0-1.1-.8-.4v-.9l.8.4Zm1.2,2.9-.9-.5v-.9l.9.5Zm0-1.1-.9-.6v-.9l.9.5Zm0-1.2-.9-.5v-.9l.9.5Zm-.7-1.5.9-.5.9.5-.9.5Zm1.9,4.4-1-.5v-.9l1,.5Zm0-1.1-1-.5v-.9l1,.5Zm0-1.2-1-.5v-.9l1,.5Z" transform="translate(-0.4 -1.5)" fill="#0078d7"/><path d="M7.8,44.8c-2.3.5-3.6,3.1-2.9,5.6a4.6,4.6,0,0,0,5.3,3.7,4.5,4.5,0,0,0,2.9-5.7A4.3,4.3,0,0,0,7.8,44.8Z" transform="translate(-0.4 -1.5)" fill="#008bfd"/><path d="M12.8,54.8c-.5,0-.9.8-1.6,1.1a2.7,2.7,0,0,1-3.1,0C6.2,55,6,54.2,4.4,54.2s-4,2.8-4,6.9H16a14,14,0,0,0-1.1-4.2C13.8,54.8,13.2,54.8,12.8,54.8Z" transform="translate(-0.4 -1.5)" fill="#008bfd"/><path d="M14.2,49.8H10.1a.8.8,0,0,0-.7.7v2.8a.8.8,0,0,0,.8.7h.7v5.2a1,1,0,0,0,1,1,.9.9,0,0,0,1-.9h.2v-.7c0-.2.3-.3.3-.3v-.4c-.3-.1-.5-.3-.5-.4v-.3l.2-.2a3.3,3.3,0,0,0,.3-.6,2.2,2.2,0,0,1-.3-.5c-.1-.1-.1-.4-.2-.5v-.2a2.7,2.7,0,0,1,.8-1.1h.5a.6.6,0,0,0,.6-.6v-3A.7.7,0,0,0,14.2,49.8Zm-2.4,9.6c0,.2,0,.3-.2.3s-.2-.2-.2-.3V54.6c0-.3.1-.4.2-.4s.2.2.2.4Zm.3-7.8a.7.7,0,0,1-.6-.7.6.6,0,0,1,.6-.6.7.7,0,0,1,.7.6A.6.6,0,0,1,12.1,51.6Z" transform="translate(-0.4 -1.5)" fill="#008bfd" stroke="gray" stroke-linecap="round" stroke-linejoin="round" stroke-width="0.75"/><path d="M11.6,59.7c-.1,0-.3-.1-.3-.2v-5a.5.5,0,0,1,.3-.3c.1,0,.2.2.2.3v5.1C11.8,59.7,11.7,59.7,11.6,59.7Z" transform="translate(-0.4 -1.5)" fill="#fff"/><ellipse cx="11.8" cy="49.5" rx="0.7" ry="0.7" fill="#fff"/><path d="M191.8,41.7H171.3a1.1,1.1,0,0,0-1.1,1.1V59.5a1.1,1.1,0,0,0,1.1,1.1h5.2a3.3,3.3,0,0,0,3.2,2.3,3.4,3.4,0,1,0-3.2-4.5h-4.2V46.5h18.4V58.4h-3.5a7.6,7.6,0,0,0-11.1-5.6l1,2a4.8,4.8,0,0,1,2.6-.7,5.5,5.5,0,0,1,0,10.9,5.9,5.9,0,0,1-2.6-.7l-1,2a7.6,7.6,0,0,0,11.1-5.7h4.6a1,1,0,0,0,1-1.1V42.8A1,1,0,0,0,191.8,41.7Z" transform="translate(-0.4 -1.5)" fill="#008bfd"/><path d="M161.7,50.4l8,4-7.9,4a9,9,0,0,0-.1-8" transform="translate(-0.4 -1.5)" fill="#505050"/><path d="M162.7,54.5" transform="translate(-0.4 -1.5)" fill="#505050"/><path d="M173.7,80.2h-.9l-.7-2H169l-.7,2h-.9l2.7-7.2h.8Zm-1.9-2.8-1.2-3.1a.8.8,0,0,0-.1-.4h0c0,.2-.1.3-.1.4l-1.1,3.1Z" transform="translate(-0.4 -1.5)"/><path d="M175.6,77.5v2.7h-.8V73h1.9a2.4,2.4,0,0,1,1.8.6,2.1,2.1,0,0,1,.6,1.6,2.2,2.2,0,0,1-.7,1.7,2.9,2.9,0,0,1-1.9.6Zm0-3.8v3h.9a1.7,1.7,0,0,0,1.3-.4,1.3,1.3,0,0,0,.5-1.1c0-1-.6-1.5-1.7-1.5Z" transform="translate(-0.4 -1.5)"/><path d="M181.3,80.2h-.8V73h.8Z" transform="translate(-0.4 -1.5)"/><path d="M188.8,76.4a2.4,2.4,0,0,1-1.5-.6,2.5,2.5,0,0,1-.6-1.7,2.3,2.3,0,0,1,.6-1.6,2.4,2.4,0,0,1,1.5-.6,2,2,0,0,1,1.5.6,2,2,0,0,1,.7,1.6,2.2,2.2,0,0,1-.7,1.7A2,2,0,0,1,188.8,76.4Zm0-3.8a1.3,1.3,0,0,0-1,.4,1.4,1.4,0,0,0-.4,1.1,1.6,1.6,0,0,0,.4,1.2,1.3,1.3,0,0,0,1,.4,1.5,1.5,0,0,0,1.1-.4,1.6,1.6,0,0,0,.4-1.2,1.4,1.4,0,0,0-.4-1.1A1.5,1.5,0,0,0,188.8,72.6Zm-.3,8.2V77.1h.7v1.3h4.5V77.1h.7v3.7Zm5.2-1.7h-4.5v1.1h4.5Zm0-2.6V74.6h-1.1v1.9h-.8V71.9h.8v2h1.1V71.7h.7v4.8Z" transform="translate(-0.4 -1.5)"/><path d="M38.7,76.2H34.8V70.1h3.5v.7H35.5v4.9h3.1Zm.8,2.3V73.4h-2v-.6h2V69.5h.7v9Zm1.8.3V69.4H42v9.4Z" transform="translate(-0.4 -1.5)"/><path d="M52.8,77.2H44.1v-.7h8.7Zm-4.4-5.4a4.4,4.4,0,0,1-1.3,1.5,6.5,6.5,0,0,1-2.2,1.1l-.5-.6a5.7,5.7,0,0,0,2.7-1.3,3,3,0,0,0,.9-1.9v-.5h.8v.5a2.7,2.7,0,0,0,1,1.9,6.4,6.4,0,0,0,2.6,1.3l-.5.6a7,7,0,0,1-2.1-1.1A4.8,4.8,0,0,1,48.4,71.8Z" transform="translate(-0.4 -1.5)"/><path d="M54.1,77v-.6h6.4c.1-1.1.1-2,.1-2.9l-5.6.3-.2-.7,5.9-.2v-2H55.3v-.6h6.1V73c0,.8-.1,1.9-.2,3.4h1.6V77Z" transform="translate(-0.4 -1.5)"/><path d="M64.1,74.6V74h4V73H65.5V69.5h5.9v.7H66.3v.7h5v.6h-5v.8h5.2V73H68.8v1h4v.6Zm1.4,4V75.3h.8v1h4.4v-1h.7v3.3Zm5.2-1.7H66.3v1h4.4Z" transform="translate(-0.4 -1.5)"/><path d="M80.1,74a2,2,0,0,1-1.5-.6,2.1,2.1,0,0,1-.6-1.6,2.3,2.3,0,0,1,.6-1.6,2.2,2.2,0,0,1,3,0,2.3,2.3,0,0,1,.6,1.6,2.1,2.1,0,0,1-.6,1.6A2,2,0,0,1,80.1,74Zm0-3.8a1.4,1.4,0,0,0-1,.5,1.2,1.2,0,0,0-.4,1.1,1.6,1.6,0,0,0,.4,1.2,1.4,1.4,0,0,0,2,0,1.7,1.7,0,0,0,.5-1.2,1.3,1.3,0,0,0-.5-1.1A1.4,1.4,0,0,0,80.1,70.2Zm-.4,8.3V74.8h.8v1.3h4.4V74.8h.7v3.7Zm5.2-1.7H80.5v1.1h4.4Zm0-2.6V72.3H83.8v1.9h-.7V69.5h.7v2.1h1.1V69.4h.7v4.8Z" transform="translate(-0.4 -1.5)"/><path d="M44.4,7.4H41.7V6.8h2.7Z" transform="translate(-0.4 -1.5)" fill="#00b0f0"/><path d="M52.4,6.6a2.4,2.4,0,0,1-1.8-.7,2.1,2.1,0,0,1-.7-1.7,2.1,2.1,0,0,1,.7-1.7,2.4,2.4,0,0,1,1.8-.7,2.1,2.1,0,0,1,1.7.7,2.1,2.1,0,0,1,.7,1.7,2.1,2.1,0,0,1-.7,1.7A2.1,2.1,0,0,1,52.4,6.6Zm0-4.1a1.8,1.8,0,0,0-1.3.4,2.1,2.1,0,0,0-.5,1.3,1.9,1.9,0,0,0,.5,1.3,1.8,1.8,0,0,0,1.3.4,1.6,1.6,0,0,0,1.2-.4,1.5,1.5,0,0,0,.5-1.3,1.7,1.7,0,0,0-.5-1.3A1.6,1.6,0,0,0,52.4,2.5Zm-1.3,8v-3h.7V9.9h5.5v.6Zm5.2-2.2V1.5H57V8.3Z" transform="translate(-0.4 -1.5)" fill="#00b0f0"/><path d="M59.2,6.4V5.7h8.7v.7Zm7.9-1.5A6.5,6.5,0,0,1,65,4.2a3.4,3.4,0,0,1-1.4-1.1,4.8,4.8,0,0,1-1.5,1.1,6.8,6.8,0,0,1-2,.7l-.5-.6a5.6,5.6,0,0,0,2.3-.7,3.1,3.1,0,0,0,1.3-1.2h-3V1.7H67v.7H64q.1.6,1.2,1.2a6.2,6.2,0,0,0,2.3.7Zm-3.5,5.9a4.6,4.6,0,0,1-2.3-.5A1.4,1.4,0,0,1,60.5,9a1.7,1.7,0,0,1,.8-1.3,4.7,4.7,0,0,1,2.3-.4,4.6,4.6,0,0,1,2.2.4A1.7,1.7,0,0,1,66.6,9a1.4,1.4,0,0,1-.8,1.3A4.5,4.5,0,0,1,63.6,10.8Zm0-2.9a3.4,3.4,0,0,0-1.7.3.9.9,0,0,0-.6.8,1,1,0,0,0,.6.9,3.7,3.7,0,0,0,1.7.3,3.2,3.2,0,0,0,1.6-.3,1,1,0,0,0,.6-.9.9.9,0,0,0-.6-.8A3.2,3.2,0,0,0,63.6,7.9Z" transform="translate(-0.4 -1.5)" fill="#00b0f0"/><path d="M72.7,9.3V8.7h3.5V6.4H77V8.7h4.4v.6Zm7.2-1.6h-.7a19.4,19.4,0,0,0,.2-2.4l-5.8.4-.2-.7,6-.3V3H73.9V2.4h6.2V4.6A28.5,28.5,0,0,1,79.9,7.7Z" transform="translate(-0.4 -1.5)" fill="#00b0f0"/><path d="M82.7,9.2V8.6h8.7v.6ZM90,3H84.9V5.9h5.2v.7H84.2V2.3H90Z" transform="translate(-0.4 -1.5)" fill="#00b0f0"/><path d="M96.2,9.4V8.8H105v.6ZM97,3.3V2.7h3.2V1.6h.8V2.7h3.2v.6Zm3.6,4.2A4.9,4.9,0,0,1,98.3,7a1.7,1.7,0,0,1-.8-1.3,1.6,1.6,0,0,1,.8-1.3,4.9,4.9,0,0,1,2.3-.5,4.2,4.2,0,0,1,2.2.5,1.4,1.4,0,0,1,.8,1.3,1.5,1.5,0,0,1-.8,1.3A4.2,4.2,0,0,1,100.6,7.5Zm0-3a4,4,0,0,0-1.7.3,1,1,0,0,0-.6.9.9.9,0,0,0,.6.8,3.5,3.5,0,0,0,1.7.4,3.9,3.9,0,0,0,1.7-.4.9.9,0,0,0,.6-.8,1,1,0,0,0-.6-.9A4,4,0,0,0,100.6,4.5Z" transform="translate(-0.4 -1.5)" fill="#00b0f0"/><path d="M106.2,7V6.3H115V7Zm1.5,3.7V7.9h5.8v2.8Zm0-5.3V3.2h5.1V2.3h-5.1V1.7h5.8V3.8h-5.1v1h5.3v.6Zm5.1,3.1h-4.4v1.6h4.4Z" transform="translate(-0.4 -1.5)" fill="#00b0f0"/><path d="M117.8,11.6a6.4,6.4,0,0,1-1.5-4.3,6.8,6.8,0,0,1,1.5-4.5h.7A7.1,7.1,0,0,0,117,7.2a6.7,6.7,0,0,0,1.5,4.4Z" transform="translate(-0.4 -1.5)" fill="#00b0f0"/><path d="M120.4,7.3V10h-.8V2.8h1.9a2.4,2.4,0,0,1,1.8.6,1.9,1.9,0,0,1,.6,1.5,2.4,2.4,0,0,1-.7,1.8,2.9,2.9,0,0,1-1.9.6Zm0-3.8v3h.9a1.7,1.7,0,0,0,1.3-.4,1.3,1.3,0,0,0,.5-1.1c0-1-.6-1.5-1.7-1.5Z" transform="translate(-0.4 -1.5)" fill="#00b0f0"/><path d="M130.2,10h-1.1l-2.8-3.3-.2-.2h0V10h-.8V2.8h.8V6.2h0l.2-.2L129,2.8h1l-3.1,3.5Z" transform="translate(-0.4 -1.5)" fill="#00b0f0"/><path d="M135.6,9.7a4,4,0,0,1-2,.4,3,3,0,0,1-2.4-1,3.6,3.6,0,0,1-.9-2.6,3.6,3.6,0,0,1,1-2.7,3.5,3.5,0,0,1,2.6-1.1,4.3,4.3,0,0,1,1.7.3v.8a4.7,4.7,0,0,0-1.7-.4,2.7,2.7,0,0,0-2.1.9,3.2,3.2,0,0,0-.7,2.2,2.8,2.8,0,0,0,.7,2.1,2.6,2.6,0,0,0,1.9.8,3.8,3.8,0,0,0,1.9-.5Z" transform="translate(-0.4 -1.5)" fill="#00b0f0"/><path d="M140.8,10h-3.7V2.8h3.6v.7h-2.8V6h2.6v.7h-2.6V9.3h2.9Z" transform="translate(-0.4 -1.5)" fill="#00b0f0"/><path d="M150.7,8.5A5.4,5.4,0,0,1,149.2,7a4.4,4.4,0,0,1-.9-1.6,4.7,4.7,0,0,1-.9,1.7A6.7,6.7,0,0,1,146,8.6l-.6-.5a4.9,4.9,0,0,0,1.8-2,4.5,4.5,0,0,0,.7-2.5V2.1h.8V3.6a5.3,5.3,0,0,0,.6,2.4,5.8,5.8,0,0,0,1.9,1.9Zm2.1-2.6v5H152V1.5h.8V5.3h1.6v.6Z" transform="translate(-0.4 -1.5)" fill="#00b0f0"/><path d="M157.8,4.7a1.5,1.5,0,0,1-1-1.4,1.6,1.6,0,0,1,.8-1.3,4.6,4.6,0,0,1,2.2-.4A4.3,4.3,0,0,1,162,2a1.6,1.6,0,0,1,.8,1.3,1.4,1.4,0,0,1-1,1.4V6.1h2.4v.6h-8.8V6.1h2.4Zm2,6.1a4.3,4.3,0,0,1-2.2-.4,1.4,1.4,0,0,1-.8-1.3,1.4,1.4,0,0,1,.8-1.3,5.1,5.1,0,0,1,4.4,0,1.3,1.3,0,0,1,.8,1.3,1.5,1.5,0,0,1-.7,1.3A5,5,0,0,1,159.8,10.8Zm0-2.8a4,4,0,0,0-1.7.3c-.4.2-.6.4-.6.8a.9.9,0,0,0,.6.8,4,4,0,0,0,1.7.3,3.7,3.7,0,0,0,1.7-.3.9.9,0,0,0,.6-.8c0-.4-.2-.6-.6-.8A3.7,3.7,0,0,0,159.8,8Zm0-5.8c-1.5,0-2.2.4-2.2,1.1a1.1,1.1,0,0,0,.5.9,4,4,0,0,0,1.7.3,3.7,3.7,0,0,0,1.7-.3.9.9,0,0,0,.5-.9C162,2.6,161.3,2.2,159.8,2.2Zm-1.3,3.9h2.6V5h-1.3l-1.3-.2Z" transform="translate(-0.4 -1.5)" fill="#00b0f0"/><path d="M164.9,11.6a6.3,6.3,0,0,0,1.6-4.4,6.6,6.6,0,0,0-1.6-4.4h.7a6.4,6.4,0,0,1,1.6,4.5,6,6,0,0,1-1.6,4.3Z" transform="translate(-0.4 -1.5)" fill="#00b0f0"/><path d="M44.4,19.4H41.7v-.6h2.7Z" transform="translate(-0.4 -1.5)" fill="#00b0f0"/><path d="M58,14.8,55.9,22H55l-1.5-5.3a1.7,1.7,0,0,1-.1-.7h0c-.1.2-.1.5-.2.7L51.7,22h-.9l-2.1-7.2h.9l1.5,5.6a1.5,1.5,0,0,1,.1.7h.1a2,2,0,0,1,.1-.7L53,14.8h.8l1.5,5.6a1.5,1.5,0,0,1,.1.7h.1a2,2,0,0,1,.1-.7l1.5-5.6Z" transform="translate(-0.4 -1.5)" fill="#00b0f0"/><path d="M58.8,15a.8.8,0,0,1,.2-.4h.3l.4.2.2.3a.5.5,0,0,1-.2.4H59A.5.5,0,0,1,58.8,15Zm.1,7V16.9h.8V22Z" transform="translate(-0.4 -1.5)" fill="#00b0f0"/><path d="M65.6,22h-.8V19.1c0-1.1-.4-1.7-1.2-1.7a1.4,1.4,0,0,0-1,.5,1.6,1.6,0,0,0-.4,1.2V22h-.8V16.9h.8v.8h0a1.9,1.9,0,0,1,1.7-1,1.6,1.6,0,0,1,1.3.6,2.4,2.4,0,0,1,.4,1.6Z" transform="translate(-0.4 -1.5)" fill="#00b0f0"/><path d="M71.5,22h-.8v-.9h0a1.8,1.8,0,0,1-1.7,1,1.9,1.9,0,0,1-1.6-.7,2.7,2.7,0,0,1-.6-1.9,2.7,2.7,0,0,1,.7-2,2.1,2.1,0,0,1,1.7-.8,1.6,1.6,0,0,1,1.5.9h0V14.4h.8Zm-.8-3.1a1.5,1.5,0,0,0-.4-1.1,1.3,1.3,0,0,0-1-.4,1.4,1.4,0,0,0-1.2.6,2.3,2.3,0,0,0-.5,1.5,2.6,2.6,0,0,0,.4,1.4,1.4,1.4,0,0,0,1.2.6,1.6,1.6,0,0,0,1.1-.5,2,2,0,0,0,.4-1.3Z" transform="translate(-0.4 -1.5)" fill="#00b0f0"/><path d="M72.9,19.5a3,3,0,0,1,.6-2,2.6,2.6,0,0,1,1.9-.8,2.2,2.2,0,0,1,1.8.8,2.4,2.4,0,0,1,.7,1.9,3.2,3.2,0,0,1-.7,2,2.5,2.5,0,0,1-1.9.7,2.4,2.4,0,0,1-1.8-.7A2.9,2.9,0,0,1,72.9,19.5Zm.7,0a2,2,0,0,0,.5,1.4,1.6,1.6,0,0,0,1.3.6,1.4,1.4,0,0,0,1.2-.6,2.1,2.1,0,0,0,.5-1.5,2.5,2.5,0,0,0-.5-1.5,1.7,1.7,0,0,0-1.2-.5,1.6,1.6,0,0,0-1.3.6A2.1,2.1,0,0,0,73.6,19.5Z" transform="translate(-0.4 -1.5)" fill="#00b0f0"/><path d="M85.6,16.9,84.1,22h-.9l-1-3.7a.9.9,0,0,1-.1-.5h0a2,2,0,0,0-.1.5L80.8,22H80l-1.5-5.1h.8l1.1,3.9v.4h.1a.9.9,0,0,1,.1-.5l1.2-3.8h.7l1.1,3.9v.4h.1a.6.6,0,0,1,.1-.4l1-3.9Z" transform="translate(-0.4 -1.5)" fill="#00b0f0"/><path d="M86.2,21a2.8,2.8,0,0,0,1.5.4c.7,0,1.1-.2,1.1-.7a.8.8,0,0,0-.2-.5,3,3,0,0,0-1-.5l-1.1-.6a1.4,1.4,0,0,1-.3-.9,1.1,1.1,0,0,1,.6-1,2.2,2.2,0,0,1,1.4-.5l1.2.3v.8a2,2,0,0,0-1.3-.4,1.5,1.5,0,0,0-.8.2.7.7,0,0,0-.3.6.8.8,0,0,0,.2.5l.9.4,1.2.7a1.3,1.3,0,0,1,.3.8,1.1,1.1,0,0,1-.6,1.1,2,2,0,0,1-1.4.4,3.2,3.2,0,0,1-1.4-.3Z" transform="translate(-0.4 -1.5)" fill="#00b0f0"/><path d="M94.2,18.9v-.6h4v-1H95.6V13.7h5.9v.6H96.4v.9h4.9v.6H96.4v.8h5.2v.7H98.9v1h4v.6Zm4.4,4a4.6,4.6,0,0,1-2.3-.5,1.4,1.4,0,0,1-.8-1.2,1.6,1.6,0,0,1,.8-1.3,6.3,6.3,0,0,1,2.3-.4,5.7,5.7,0,0,1,2.2.4,1.4,1.4,0,0,1,.8,1.3,1.2,1.2,0,0,1-.8,1.2A4.2,4.2,0,0,1,98.6,22.9Zm0-2.8c-1.6,0-2.3.4-2.3,1.1s.7,1,2.3,1,2.3-.3,2.3-1S100.1,20.1,98.6,20.1Z" transform="translate(-0.4 -1.5)" fill="#00b0f0"/><path d="M106.7,13.3h.7v1.1h2.4v.7h-5.5v-.7h2.4Zm.4,5.6a2.6,2.6,0,0,1-1.7-.5,1.3,1.3,0,0,1-.7-1.2,1.5,1.5,0,0,1,.7-1.2,3.1,3.1,0,0,1,3.4,0,1.5,1.5,0,0,1,0,2.4A2.9,2.9,0,0,1,107.1,18.9Zm0-2.7a2.1,2.1,0,0,0-1.2.3.8.8,0,0,0-.4.7.9.9,0,0,0,.4.8,2.1,2.1,0,0,0,1.2.3,1.6,1.6,0,0,0,1.1-.3,1,1,0,0,0,.5-.8,1,1,0,0,0-.4-.7A2.1,2.1,0,0,0,107.1,16.2Zm-1.3,6.6V19.5h.7v1.1h4.3V19.5h.8v3.3Zm5-1.6h-4.3v.9h4.3Zm.8-4.4V19h-.8V13.5h.8v2.7h1.3v.6Z" transform="translate(-0.4 -1.5)" fill="#00b0f0"/><path d="M120.9,18.6a2.4,2.4,0,0,1-1.8-.7,2.1,2.1,0,0,1-.7-1.7,2.1,2.1,0,0,1,.7-1.7,2.4,2.4,0,0,1,1.8-.7,2.1,2.1,0,0,1,1.7.7,2.1,2.1,0,0,1,.7,1.7,2.1,2.1,0,0,1-.7,1.7A2.1,2.1,0,0,1,120.9,18.6Zm0-4.1a2,2,0,0,0-1.3.4,2.1,2.1,0,0,0-.5,1.3,1.9,1.9,0,0,0,.5,1.3,1.8,1.8,0,0,0,1.3.4,1.6,1.6,0,0,0,1.2-.4,1.5,1.5,0,0,0,.5-1.3,1.7,1.7,0,0,0-.5-1.3A1.6,1.6,0,0,0,120.9,14.5Zm-1.3,8v-3h.7v2.4h5.5v.6Zm5.2-2.2V13.5h.7v6.8Z" transform="translate(-0.4 -1.5)" fill="#00b0f0"/><path d="M127.7,18.4v-.7h8.7v.7Zm7.9-1.5a7.4,7.4,0,0,1-2.1-.7,3.4,3.4,0,0,1-1.4-1.1,5.7,5.7,0,0,1-1.4,1.1,8.6,8.6,0,0,1-2.1.7l-.4-.6a5.7,5.7,0,0,0,2.2-.7,3.1,3.1,0,0,0,1.3-1.2h-3v-.7h6.8v.7h-3q.1.6,1.2,1.2a6.2,6.2,0,0,0,2.3.7Zm-3.5,5.9a4.9,4.9,0,0,1-2.3-.5,1.4,1.4,0,0,1-.7-1.3,1.6,1.6,0,0,1,.7-1.3,5,5,0,0,1,2.3-.4,4.6,4.6,0,0,1,2.2.4,1.7,1.7,0,0,1,.8,1.3,1.4,1.4,0,0,1-.8,1.3A4.2,4.2,0,0,1,132.1,22.8Zm0-2.9a3.7,3.7,0,0,0-1.7.3.9.9,0,0,0-.6.8,1,1,0,0,0,.6.9,3.7,3.7,0,0,0,1.7.3,4,4,0,0,0,1.7-.3,1.1,1.1,0,0,0,.5-.9,1,1,0,0,0-.5-.8A4,4,0,0,0,132.1,19.9Z" transform="translate(-0.4 -1.5)" fill="#00b0f0"/><path d="M44.4,31.4H41.7v-.6h2.7Z" transform="translate(-0.4 -1.5)" fill="#00b0f0"/><path d="M54.4,32.5A10.6,10.6,0,0,1,52.9,31a14.6,14.6,0,0,1-.9-1.6,6.3,6.3,0,0,1-.8,1.7,10.6,10.6,0,0,1-1.5,1.5l-.6-.5a6.1,6.1,0,0,0,1.9-2,4.5,4.5,0,0,0,.7-2.5V26.1h.7v1.5a4.4,4.4,0,0,0,.7,2.4,5.5,5.5,0,0,0,1.8,1.9Zm2.1-2.6v5h-.7V25.5h.7v3.8h1.6v.6Z" transform="translate(-0.4 -1.5)" fill="#00b0f0"/><path d="M61.5,28.7a1.5,1.5,0,0,1-.9-1.4,1.5,1.5,0,0,1,.7-1.3,5,5,0,0,1,2.3-.4,4.6,4.6,0,0,1,2.2.4,1.5,1.5,0,0,1,.7,1.3,1.4,1.4,0,0,1-.9,1.4v1.4h2.3v.6H59.2v-.6h2.3Zm2.1,6.1a4.7,4.7,0,0,1-2.3-.4,1.6,1.6,0,0,1-.8-1.3,1.4,1.4,0,0,1,.8-1.3,4.6,4.6,0,0,1,2.3-.5,4.5,4.5,0,0,1,2.2.5,1.4,1.4,0,0,1,.8,1.3,1.6,1.6,0,0,1-.8,1.3A4.6,4.6,0,0,1,63.6,34.8Zm0-2.8a3.7,3.7,0,0,0-1.7.3c-.4.2-.6.4-.6.8a.9.9,0,0,0,.6.8,3.4,3.4,0,0,0,1.7.3,3.2,3.2,0,0,0,1.6-.3.9.9,0,0,0,.6-.8c0-.4-.2-.6-.6-.8A3.2,3.2,0,0,0,63.6,32Zm0-5.8c-1.5,0-2.3.4-2.3,1.1a1,1,0,0,0,.6.9,3.7,3.7,0,0,0,1.7.3,3.2,3.2,0,0,0,1.6-.3,1,1,0,0,0,.6-.9C65.8,26.6,65,26.2,63.6,26.2Zm-1.3,3.9h2.5V29H63.6l-1.3-.2Z" transform="translate(-0.4 -1.5)" fill="#00b0f0"/><path d="M74.3,32.6a18.5,18.5,0,0,1-1.4-1.4,4.8,4.8,0,0,1-.8-1.6,6.8,6.8,0,0,1-.9,1.6,6.7,6.7,0,0,1-1.4,1.5l-.6-.5A5.5,5.5,0,0,0,71,30.3a4.4,4.4,0,0,0,.7-2.4v-1H69.6v-.6h4.9v.6H72.4v1a4.3,4.3,0,0,0,.7,2.3A5.9,5.9,0,0,0,74.8,32Zm2.2-2.7v5h-.7V25.5h.7v3.8h1.6v.6Z" transform="translate(-0.4 -1.5)" fill="#00b0f0"/><path d="M85.6,32.5a2,2,0,0,1-1.7-.9,3.7,3.7,0,0,1-.7-2.3,4.3,4.3,0,0,1,.7-2.4,2.1,2.1,0,0,1,1.7-.8,2.2,2.2,0,0,1,1.8.8,4.3,4.3,0,0,1,.7,2.4,3.7,3.7,0,0,1-.7,2.3A2.1,2.1,0,0,1,85.6,32.5Zm0-5.8a1.5,1.5,0,0,0-1.2.7,3.6,3.6,0,0,0-.4,1.9,3,3,0,0,0,.4,1.8,1.3,1.3,0,0,0,1.2.7,1.6,1.6,0,0,0,1.3-.7,3.2,3.2,0,0,0,.4-1.8,3.6,3.6,0,0,0-.4-1.9A1.7,1.7,0,0,0,85.6,26.7Zm4.2,8.2V25.5h.7v9.4Z" transform="translate(-0.4 -1.5)" fill="#00b0f0"/><path d="M92.7,31v-.7h8.7V31Zm1.4,3.7V31.9H100v2.8Zm.1-5.3V27.2h5.1v-.9H94.2v-.6H100v2.1H94.9v1h5.3v.6Zm5.1,3.1H94.9v1.6h4.4Z" transform="translate(-0.4 -1.5)" fill="#00b0f0"/><path d="M106.1,26.8l-3.4,8.4h-.8l3.5-8.4Z" transform="translate(-0.4 -1.5)" fill="#00b0f0"/><path d="M109.4,30.2a2.4,2.4,0,0,1-1.7-.6A2,2,0,0,1,107,28a1.9,1.9,0,0,1,.7-1.6,2.4,2.4,0,0,1,3.4,0,1.9,1.9,0,0,1,.7,1.6,2,2,0,0,1-.7,1.6A2.4,2.4,0,0,1,109.4,30.2Zm0-3.8a1.6,1.6,0,0,0-1.2.4,1.7,1.7,0,0,0,0,2.4,2,2,0,0,0,2.4,0,1.7,1.7,0,0,0,0-2.4A1.6,1.6,0,0,0,109.4,26.4Zm-1.1,8.2V31.2H114v3.4Zm5-2.8H109V34h4.3Zm.7-3.2v2.1h-.7V25.5h.7v2.4h1.5v.7Z" transform="translate(-0.4 -1.5)" fill="#00b0f0"/><path d="M116.7,33.4v-.6h4V31.4a3.7,3.7,0,0,1-2-.5,1.6,1.6,0,0,1-.7-1.3,1.5,1.5,0,0,1,.8-1.3,4.5,4.5,0,0,1,2.2-.5,4.6,4.6,0,0,1,2.3.5,1.7,1.7,0,0,1,.8,1.3,1.6,1.6,0,0,1-.7,1.3,3.9,3.9,0,0,1-2,.5v1.4h4v.6Zm.7-6.1v-.6h3.3V25.6h.7v1.1h3.2v.6Zm3.6,1.2a4,4,0,0,0-1.7.3.9.9,0,0,0-.6.8,1,1,0,0,0,.6.9,4,4,0,0,0,1.7.3,3.7,3.7,0,0,0,1.7-.3,1,1,0,0,0,.6-.9.9.9,0,0,0-.6-.8A3.7,3.7,0,0,0,121,28.5Z" transform="translate(-0.4 -1.5)" fill="#00b0f0"/><path d="M165.9,54h-8.3l-53,.2H75.3a.9.9,0,0,0-.4.5.8.8,0,0,0,.4.7c.2.1.5,0,.8,0l41.9-.2h47.9Z" transform="translate(-0.4 -1.5)" fill="#505050"/></svg>