<svg xmlns="http://www.w3.org/2000/svg" viewBox="0 0 204.71 66.15"><title>OJ104546516</title><line x1="62.13" y1="20.99" x2="163.68" y2="20.99" fill="none" stroke="#505050" stroke-miterlimit="10"/><path d="M69.66,9.34H63.58c-.23,0-.38.15-.38.46V12a.35.35,0,0,0,.38.37H67v3.39c0,.23.15.38.45.38h2.18a.35.35,0,0,0,.37-.38v-6A.35.35,0,0,0,69.66,9.34Zm-17.19,21H49V27c0-.22-.15-.37-.45-.37H46.4A.35.35,0,0,0,46,27v6a.36.36,0,0,0,.38.39h6.07c.23,0,.38-.15.38-.46V30.72A.36.36,0,0,0,52.47,30.34Zm13.58-3.69a.9.9,0,0,0-.45.08l-2.32-4.07a2.77,2.77,0,0,0-1.88-4.81,3,3,0,0,0-1.12.22L57.8,14.61a2,2,0,0,0,.53-1.5A2.33,2.33,0,1,0,56,15.44a2.38,2.38,0,0,0,.75-.15l2.48,3.54a2.82,2.82,0,0,0-.68,1.43l-7.2.6a1.78,1.78,0,0,0-1.65-1,1.88,1.88,0,0,0,0,3.76,1.92,1.92,0,0,0,1.87-1.58l7.06-.6a3.74,3.74,0,0,0,.67,1.2L57.5,25.6h-.22a1.88,1.88,0,1,0,1.87,1.88,2.13,2.13,0,0,0-.52-1.35l1.72-2.86a4,4,0,0,0,1,.15,3.38,3.38,0,0,0,.82-.15l2.33,4.06a2.34,2.34,0,0,0-.68,1.58,2.18,2.18,0,1,0,2.25-2.26Z" fill="#007efd"/><g style="isolation:isolate"><path d="M34.53,46.3v-.67h8.74v.67ZM36,43.66V39.27h.73v1.51h4.36V39.27h.73v4.39Zm5.09-2.22H36.72V43h4.36Z" fill="#007efd"/><path d="M45.16,45.75V42h3.43V40H45.16V39.3h4.16v3.38H45.89v2.43a27.41,27.41,0,0,0,4.36-.21l.1.64A40.58,40.58,0,0,1,45.16,45.75Zm6.7-2.67v4.79h-.73V38.45h.73v4h1.63v.66Z" fill="#007efd"/><path d="M59.27,44.33v3.54h-.73V44.33h-4v-.65h8.74v.65Zm-.37-1.69a4,4,0,0,1-2.25-.54,1.68,1.68,0,0,1-.79-1.47,1.74,1.74,0,0,1,.8-1.47,3.88,3.88,0,0,1,2.24-.55,3.93,3.93,0,0,1,2.26.55,1.69,1.69,0,0,1,.8,1.47,1.67,1.67,0,0,1-.8,1.47A4,4,0,0,1,58.9,42.64Zm0-3.41a3.2,3.2,0,0,0-1.68.37,1.17,1.17,0,0,0-.6,1,1.15,1.15,0,0,0,.6,1,3.9,3.9,0,0,0,3.36,0,1.15,1.15,0,0,0,.6-1,1.17,1.17,0,0,0-.6-1A3.17,3.17,0,0,0,58.9,39.23Z" fill="#007efd"/><path d="M69.75,45.57a6.35,6.35,0,0,1-2.26-3,5.16,5.16,0,0,1-.83,1.64,7.53,7.53,0,0,1-1.42,1.54l-.55-.51a5.54,5.54,0,0,0,1.78-2,5.28,5.28,0,0,0,.65-2.48v-.8H65.07v-.65h4.85v.65H67.85v.77a5,5,0,0,0,.67,2.48A4.88,4.88,0,0,0,70.25,45Zm1.86,2.3V42.39H69.43v-.65h2.18V38.45h.73v9.42Z" fill="#007efd"/><path d="M79.54,39.29c-.07,2.68-1.48,4.79-4.24,6.36l-.56-.59a7,7,0,0,0,2.65-2,5.69,5.69,0,0,0,1.37-3.14H75.14v-.65ZM81.86,43v4.88h-.73V38.45h.73v3.89h1.69V43Z" fill="#007efd"/><path d="M48.23,52.5h1.66v-2h.73v4.87h-.73V53.15H48.23a2.1,2.1,0,0,1-.79,1.4,2.42,2.42,0,0,1-1.59.53,2.34,2.34,0,0,1-1.71-.65,2.14,2.14,0,0,1-.68-1.61,2.17,2.17,0,0,1,.67-1.6,2.35,2.35,0,0,1,1.72-.65,2.42,2.42,0,0,1,1.59.53A2.14,2.14,0,0,1,48.23,52.5Zm-2.38-1.3a1.58,1.58,0,0,0-1.19.46,1.55,1.55,0,0,0-.47,1.16A1.71,1.71,0,0,0,47.06,54a1.72,1.72,0,0,0,0-2.34A1.63,1.63,0,0,0,45.85,51.2Zm-1.63,8.48V55.89h.69v1.36h1.93V55.89h.67v3.79Zm2.62-1.84H44.91v1.24h1.93Zm4.27,2a4.57,4.57,0,0,1-.92-.9,3.12,3.12,0,0,1-.57-.94A3.33,3.33,0,0,1,49,59a3.9,3.9,0,0,1-.92.81l-.45-.54a2.89,2.89,0,0,0,1.22-1.08,3,3,0,0,0,.45-1.61v-.72H50v.72a2.94,2.94,0,0,0,.45,1.59,2.82,2.82,0,0,0,1.2,1.1Z" fill="#007efd"/><path d="M52.77,55.91v-.66h8.74v.66Zm1.53,3.6v-2.8H55v2.14h5.21v.66ZM54.35,54V50.8h.72v2.51h5.15V54Z" fill="#007efd"/><path d="M68.74,55.15a2.14,2.14,0,0,1-2.14-2.21,2.1,2.1,0,0,1,.64-1.62,2.15,2.15,0,0,1,3,0,2.1,2.1,0,0,1,.64,1.62,2.14,2.14,0,0,1-2.14,2.21Zm0-3.81a1.4,1.4,0,0,0-1,.43,1.58,1.58,0,0,0-.42,1.17,1.5,1.5,0,0,0,.43,1.15,1.45,1.45,0,0,0,2,0,1.5,1.5,0,0,0,.43-1.15,1.58,1.58,0,0,0-.42-1.17A1.4,1.4,0,0,0,68.74,51.34Zm-.35,8.27V55.86h.72v1.36h4.46V55.86h.72v3.75Zm5.18-1.74H69.11V59h4.46Zm0-2.54v-2h-1.1v2h-.72V50.65h.72v2.08h1.1V50.45h.73v4.88Z" fill="#007efd"/></g><path d="M7.85,13.61a4.49,4.49,0,0,0-3,5.66c.66,2.56,3,4.22,5.27,3.67a4.5,4.5,0,0,0,3-5.67C12.57,14.61,10.16,12.94,7.85,13.61Z" fill="#008bfd"/><path d="M12.79,23.63c-.44,0-.88.78-1.54,1.11s-1.32.89-3.18,0S6,23.08,4.44,23.08.38,25.85.38,30H16a12.14,12.14,0,0,0-1.1-4.22C13.77,23.63,13.23,23.63,12.79,23.63Z" fill="#008bfd"/><path d="M14.19,18.69H10.07a.71.71,0,0,0-.65.66V22.2a.73.73,0,0,0,.76.66h.76V28a1,1,0,0,0,1,1.1,1,1,0,0,0,1-1h.21v-.65c0-.22.33-.33.33-.33V26.8c-.33-.11-.54-.33-.54-.44V26l.21-.22a3.55,3.55,0,0,0,.33-.54,2.4,2.4,0,0,1-.33-.55c-.1-.11-.1-.33-.21-.44v-.22a2.51,2.51,0,0,1,.76-1.1h.54a.7.7,0,0,0,.65-.65v-3A.63.63,0,0,0,14.19,18.69ZM11.8,28.22c0,.22,0,.33-.21.33s-.22-.22-.22-.33V23.4c0-.22.11-.33.22-.33s.21.22.21.33Zm.33-7.78a.69.69,0,0,1-.65-.65.7.7,0,0,1,.65-.66.71.71,0,0,1,.65.66A.62.62,0,0,1,12.13,20.44Z" fill="#008bfd" stroke="gray" stroke-linecap="round" stroke-linejoin="round" stroke-width="0.75"/><path d="M11.57,28.53a.24.24,0,0,1-.22-.22v-5a.22.22,0,1,1,.44,0v5.11C11.79,28.53,11.68,28.53,11.57,28.53Z" fill="#fff"/><ellipse cx="12.14" cy="19.77" rx="0.66" ry="0.67" fill="#fff"/><path d="M191.76,8.21h-20.5a1.09,1.09,0,0,0-1.09,1.1V26.05a1.1,1.1,0,0,0,1.09,1.11h5.28a3.29,3.29,0,0,0,3.21,2.27,3.38,3.38,0,0,0,0-6.75A3.29,3.29,0,0,0,176.54,25h-4.19V13h18.31V25h-3.45a7.61,7.61,0,0,0-7.46-6.56,8.25,8.25,0,0,0-3.64.92l1,2a5.27,5.27,0,0,1,2.55-.67,5.46,5.46,0,0,1,0,10.91,5.27,5.27,0,0,1-2.55-.67l-1,2a7.51,7.51,0,0,0,3.64.92,7.61,7.61,0,0,0,7.46-6.56h4.55a1.1,1.1,0,0,0,1.09-1.11V9.31A1.14,1.14,0,0,0,191.76,8.21Z" fill="#008bfd"/><g style="isolation:isolate"><path d="M173.72,46.72h-.88l-.78-2H169l-.73,2h-.88l2.77-7.19h.8ZM171.79,44l-1.14-3.1a2,2,0,0,1-.11-.48h0a1.9,1.9,0,0,1-.11.48L169.26,44Z" fill="#008bfd"/><path d="M175.58,44v2.73h-.79V39.53h1.94a2.61,2.61,0,0,1,1.77.56,2,2,0,0,1,.63,1.58,2.14,2.14,0,0,1-.75,1.7,2.53,2.53,0,0,1-1.84.62Zm0-3.73v3h.9a2,2,0,0,0,1.35-.4,1.43,1.43,0,0,0,.47-1.14c0-1-.57-1.45-1.71-1.45Z" fill="#008bfd"/><path d="M181.29,46.72h-.79V39.53h.79Z" fill="#008bfd"/><path d="M188.84,42.87a2.1,2.1,0,1,1,1.51-.6A2.13,2.13,0,0,1,188.84,42.87Zm0-3.8a1.39,1.39,0,0,0-1,.42,1.79,1.79,0,0,0,0,2.33,1.49,1.49,0,0,0,2.05,0,1.83,1.83,0,0,0,0-2.33A1.41,1.41,0,0,0,188.84,39.07Zm-.35,8.27V43.58h.72v1.36h4.46V43.58h.72v3.76Zm5.18-1.75h-4.46V46.7h4.46Zm0-2.54V41.1h-1.1v1.95h-.72V38.37h.72v2.08h1.1V38.18h.73v4.87Z" fill="#008bfd"/></g><path d="M161.69,17l8.05,4-8,4a9,9,0,0,0,0-8" fill="#505050"/><rect x="73.89" y="0.37" width="90.38" height="20" fill="none"/><g style="isolation:isolate"><path d="M82.2,11.57q-.77.09-1.71.12c-.62,0-1.74,0-3.34,0v-6h4.53v.65H77.87v4.75a40.9,40.9,0,0,0,4.29-.13Zm1.09,2.68V4.83H84v9.42Z" fill="#00b0f0"/><path d="M86.79,11.69V5.54h.72V8.06h3.06V5.54h.73v6.15Zm3.78-3H87.51V11h3.06Zm3,.55v5H92.8V4.83h.72V8.61h1.63v.65Z" fill="#00b0f0"/><path d="M99.13,11.88A2.07,2.07,0,0,1,97.4,11a3.79,3.79,0,0,1-.66-2.35,3.75,3.75,0,0,1,.65-2.35,2.2,2.2,0,0,1,3.49,0,3.75,3.75,0,0,1,.67,2.35,3.75,3.75,0,0,1-.67,2.35A2.11,2.11,0,0,1,99.13,11.88Zm0-5.78a1.44,1.44,0,0,0-1.22.7,3.33,3.33,0,0,0-.47,1.86,3.25,3.25,0,0,0,.48,1.86,1.41,1.41,0,0,0,1.21.71,1.43,1.43,0,0,0,1.22-.71,3.33,3.33,0,0,0,.47-1.86,3.33,3.33,0,0,0-.46-1.86A1.43,1.43,0,0,0,99.13,6.1Zm4.16,8.15V4.83H104v9.42Z" fill="#00b0f0"/><path d="M114.93,12.68h-8.74V12h8.74Zm-4.38-5.39A4.26,4.26,0,0,1,109.2,8.8a6.21,6.21,0,0,1-2.14,1.06l-.49-.58A5,5,0,0,0,109.2,8a2.75,2.75,0,0,0,1-1.86V5.6h.76v.49a2.69,2.69,0,0,0,1,1.85,5.26,5.26,0,0,0,2.63,1.33l-.51.58a7,7,0,0,1-2.15-1.09A4.49,4.49,0,0,1,110.55,7.29Z" fill="#00b0f0"/><path d="M119.71,12.73v-.66h3.52V9.77H124v2.3h4.49v.66Zm7.19-1.66-.69-.08a23,23,0,0,0,.16-2.38L120.58,9l-.15-.69L126.37,8V6.37h-5.51V5.73h6.24V7.94A21.32,21.32,0,0,1,126.9,11.07Z" fill="#00b0f0"/><path d="M129.71,12.62V12h8.74v.65ZM137,6.36h-5.05V9.29h5.2V10h-5.93V5.71H137Z" fill="#00b0f0"/><path d="M143.23,12.81v-.64H152v.64ZM144,6.72V6.08h3.23V4.93H148V6.08h3.23v.64Zm3.6,4.14a4.19,4.19,0,0,1-2.27-.51,1.43,1.43,0,0,1,0-2.57,4.32,4.32,0,0,1,2.27-.49,4.27,4.27,0,0,1,2.25.49,1.43,1.43,0,0,1,0,2.57A4.14,4.14,0,0,1,147.6,10.86Zm0-2.95a3.68,3.68,0,0,0-1.7.31.9.9,0,0,0,0,1.69,3.56,3.56,0,0,0,1.71.32,3.47,3.47,0,0,0,1.69-.32.9.9,0,0,0,0-1.69A3.66,3.66,0,0,0,147.6,7.91Z" fill="#00b0f0"/><path d="M153.23,10.33V9.71H162v.62Zm1.44,3.8V11.24h5.86v2.89Zm0-5.31V6.62h5.07v-1H154.7V5h5.8V7.2h-5.08v1h5.3v.62Zm5.11,3h-4.43v1.65h4.43Z" fill="#00b0f0"/></g></svg>