<svg xmlns="http://www.w3.org/2000/svg" viewBox="0 0 194 55.1"><title>OJ104546516</title><path d="M69.7,9.3H63.6c-.3,0-.4.2-.4.5V12c0,.2.1.3.4.3H67v3.4c0,.3.2.4.5.4h2.2c.2,0,.3-.1.3-.4v-6C70,9.5,69.9,9.3,69.7,9.3Zm-17.2,21H49V26.9c0-.2-.1-.3-.4-.3H46.4c-.2,0-.4.1-.4.3V33c0,.2.2.3.4.3h6.1c.2,0,.3-.1.3-.4V30.7C52.8,30.5,52.7,30.3,52.5,30.3ZM66,26.6h-.4l-2.3-4a3.1,3.1,0,0,0,.9-2.1,2.9,2.9,0,0,0-2.8-2.8,2,2,0,0,0-1.1.3l-2.5-3.5a2,2,0,0,0,.5-1.5A2.3,2.3,0,1,0,56,15.4h.7l2.5,3.5a3,3,0,0,0-.7,1.5l-7.2.6a1.8,1.8,0,0,0-1.6-1,1.8,1.8,0,0,0-1.9,1.9,1.8,1.8,0,0,0,1.9,1.8,1.9,1.9,0,0,0,1.9-1.5l7-.6a7.5,7.5,0,0,0,.7,1.2l-1.8,2.9h-.2a1.8,1.8,0,0,0-1.9,1.9,1.9,1.9,0,1,0,3.7,0,2.2,2.2,0,0,0-.5-1.4l1.7-2.8h1.8l2.4,4a2.4,2.4,0,0,0-.7,1.6,2.2,2.2,0,1,0,4.4,0A2.3,2.3,0,0,0,66,26.6Z" transform="translate(-0.4 -4.9)" fill="#007efd"/><path d="M7.8,13.6a4.5,4.5,0,0,0-2.9,5.7,4.5,4.5,0,0,0,5.3,3.6c2.3-.5,3.6-3.1,2.9-5.6S10.2,12.9,7.8,13.6Z" transform="translate(-0.4 -4.9)" fill="#008bfd"/><path d="M12.8,23.6c-.5,0-.9.8-1.6,1.1s-1.3.9-3.1,0S6,23.1,4.4,23.1.4,25.8.4,30H16a15.1,15.1,0,0,0-1.1-4.3C13.8,23.6,13.2,23.6,12.8,23.6Z" transform="translate(-0.4 -4.9)" fill="#008bfd"/><path d="M14.2,18.7H10.1c-.3,0-.7.3-.7.6v2.9a.9.9,0,0,0,.8.7h.7V28a1,1,0,0,0,1,1.1.9.9,0,0,0,1-1h.2v-.6a.4.4,0,0,1,.3-.4v-.3c-.3-.1-.5-.3-.5-.4V26l.2-.2.3-.5a3.3,3.3,0,0,1-.3-.6c-.1-.1-.1-.3-.2-.4v-.2a2.1,2.1,0,0,1,.8-1.1h.5c.3,0,.6-.4.6-.7v-3A.6.6,0,0,0,14.2,18.7Zm-2.4,9.5c0,.2,0,.3-.2.3s-.2-.2-.2-.3V23.4c0-.2.1-.3.2-.3s.2.2.2.3Zm.3-7.8a.6.6,0,0,1-.6-.6c0-.3.3-.7.6-.7a.8.8,0,0,1,.7.7C12.8,20.1,12.6,20.4,12.1,20.4Z" transform="translate(-0.4 -4.9)" fill="#008bfd" stroke="gray" stroke-linecap="round" stroke-linejoin="round" stroke-width="0.75"/><path d="M11.6,28.5l-.3-.2v-5c0-.1.2-.2.3-.2a.2.2,0,0,1,.2.2v5.1C11.8,28.5,11.7,28.5,11.6,28.5Z" transform="translate(-0.4 -4.9)" fill="#fff"/><ellipse cx="11.8" cy="14.8" rx="0.7" ry="0.7" fill="#fff"/><path d="M191.8,8.2H171.3a1.1,1.1,0,0,0-1.1,1.1V26a1.1,1.1,0,0,0,1.1,1.2h5.2a3.4,3.4,0,0,0,3.3,2.2,3.4,3.4,0,0,0,0-6.7,3.4,3.4,0,0,0-3.3,2.2h-4.1V13h18.3V24.9h-3.5a7.6,7.6,0,0,0-7.4-6.5,9.2,9.2,0,0,0-3.7.9l1,2a4.8,4.8,0,0,1,2.6-.7,5.5,5.5,0,0,1,0,10.9,4.8,4.8,0,0,1-2.6-.7l-1,2a7.8,7.8,0,0,0,3.7.9,7.6,7.6,0,0,0,7.4-6.5h4.6a1.1,1.1,0,0,0,1.1-1.2V9.3A1.2,1.2,0,0,0,191.8,8.2Z" transform="translate(-0.4 -4.9)" fill="#008bfd"/><path d="M161.7,17l8,4-7.9,4a9,9,0,0,0-.1-8" transform="translate(-0.4 -4.9)" fill="#505050"/><path d="M162.7,21" transform="translate(-0.4 -4.9)" fill="#505050"/><path d="M83.3,11.7H78.2v-6h4.5v.6H78.9v4.8a29.3,29.3,0,0,0,4.3-.2Zm1,2.6V4.9h.8v9.4Z" transform="translate(-0.4 -4.9)" fill="#00b0f0"/><path d="M87.6,11.8V5.6h.7V8.2h3.1V5.6h.7v6.2Zm3.8-3H88.3v2.3h3.1Zm2.9.6v4.9h-.7V4.9h.7V8.7H96v.7Z" transform="translate(-0.4 -4.9)" fill="#00b0f0"/><path d="M99.7,12a2.3,2.3,0,0,1-1.8-.9,4.1,4.1,0,0,1-.6-2.3,4.3,4.3,0,0,1,.6-2.4,2.3,2.3,0,0,1,1.8-.9,2,2,0,0,1,1.7.9,3.6,3.6,0,0,1,.7,2.4,3.5,3.5,0,0,1-.7,2.3A2,2,0,0,1,99.7,12Zm0-5.8a1.3,1.3,0,0,0-1.2.7A3.6,3.6,0,0,0,98,8.8a3.5,3.5,0,0,0,.5,1.8,1.4,1.4,0,0,0,2.4,0,3.5,3.5,0,0,0,.5-1.8,3.6,3.6,0,0,0-.5-1.9A1.3,1.3,0,0,0,99.7,6.2Zm4.1,8.1V4.9h.8v9.4Z" transform="translate(-0.4 -4.9)" fill="#00b0f0"/><path d="M115.2,12.8h-8.7v-.7h8.7Zm-4.3-5.4a4.8,4.8,0,0,1-1.4,1.5,7.1,7.1,0,0,1-2.1,1.1l-.5-.6A5,5,0,0,0,109.5,8a2.4,2.4,0,0,0,1-1.8V5.7h.7v.5a2.8,2.8,0,0,0,1,1.8,5.8,5.8,0,0,0,2.7,1.4l-.6.5a7.1,7.1,0,0,1-2.1-1.1A2.9,2.9,0,0,1,110.9,7.4Z" transform="translate(-0.4 -4.9)" fill="#00b0f0"/><path d="M119.5,12.8v-.6H123V9.9h.8v2.3h4.5v.6Zm7.2-1.6H126a23.2,23.2,0,0,0,.2-2.4l-5.8.4-.2-.7,6-.3V6.5h-5.5V5.8h6.2V8A30.5,30.5,0,0,1,126.7,11.2Z" transform="translate(-0.4 -4.9)" fill="#00b0f0"/><path d="M129.3,12.7v-.6H138v.6Zm7.2-6.2h-5V9.4h5.2V10h-6V5.8h5.8Z" transform="translate(-0.4 -4.9)" fill="#00b0f0"/><path d="M142.3,12.9v-.6H151v.6Zm.7-6.1V6.2h3.3V5h.7V6.2h3.2v.6Zm3.6,4.1a3.6,3.6,0,0,1-2.2-.5,1.2,1.2,0,0,1-.8-1.2,1.4,1.4,0,0,1,.8-1.3,3.6,3.6,0,0,1,2.2-.5,3.7,3.7,0,0,1,2.3.5,1.4,1.4,0,0,1,.8,1.3,1.4,1.4,0,0,1-.8,1.2A3.7,3.7,0,0,1,146.6,10.9Zm0-2.9a4,4,0,0,0-1.7.3,1.1,1.1,0,0,0-.5.9,1,1,0,0,0,.5.8,4,4,0,0,0,1.7.3,3.4,3.4,0,0,0,1.7-.3.9.9,0,0,0,.6-.8,1,1,0,0,0-.6-.9A3.4,3.4,0,0,0,146.6,8Z" transform="translate(-0.4 -4.9)" fill="#00b0f0"/><path d="M152,10.4V9.8h8.8v.6Zm1.5,3.8V11.3h5.8v2.9Zm0-5.3V6.7h5.1V5.8h-5.1V5.1h5.8V7.3h-5.1v1h5.3v.6Zm5.1,3h-4.4v1.7h4.4Z" transform="translate(-0.4 -4.9)" fill="#00b0f0"/><path d="M32.8,47.4V40.2h2a2,2,0,0,1,1.4.5,1.4,1.4,0,0,1,.6,1.2,1.7,1.7,0,0,1-.3,1,1.3,1.3,0,0,1-.9.7h0a2.4,2.4,0,0,1,1.1.6,1.7,1.7,0,0,1,.5,1.2,2.1,2.1,0,0,1-.7,1.5,2.9,2.9,0,0,1-1.7.5Zm.8-6.4v2.3h.9a2,2,0,0,0,1.1-.3,1.5,1.5,0,0,0,.4-1c0-.7-.5-1-1.4-1Zm0,3.1v2.6h1.2a1.5,1.5,0,0,0,1.1-.4,1,1,0,0,0,.4-.9c0-.9-.6-1.3-1.7-1.3Z" transform="translate(-0.4 -4.9)"/><path d="M41.2,43.1l-.7-.2a1,1,0,0,0-.8.5,2.1,2.1,0,0,0-.4,1.4v2.6h-.8V42.3h.8v1.1h0a1.5,1.5,0,0,1,.6-.9,1.1,1.1,0,0,1,.8-.3h.5Z" transform="translate(-0.4 -4.9)"/><path d="M41.6,44.9a2.7,2.7,0,0,1,.7-2,2.4,2.4,0,0,1,1.9-.7,2.1,2.1,0,0,1,1.7.7,2.6,2.6,0,0,1,.7,2,2.5,2.5,0,0,1-.7,1.9,2.6,2.6,0,0,1-1.9.8,2.5,2.5,0,0,1-1.8-.8A2.9,2.9,0,0,1,41.6,44.9Zm.8,0a2,2,0,0,0,.4,1.4,1.6,1.6,0,0,0,1.3.6,1.9,1.9,0,0,0,1.3-.5,3.3,3.3,0,0,0,.4-1.5,2.7,2.7,0,0,0-.4-1.5,1.7,1.7,0,0,0-2.6,0A2.4,2.4,0,0,0,42.4,44.9Z" transform="translate(-0.4 -4.9)"/><path d="M54.3,42.3l-1.5,5.1H52l-1.1-3.7c0-.1-.1-.3-.1-.4h0a1,1,0,0,1-.1.4l-1.2,3.7h-.7l-1.6-5.1H48l1.1,3.9a.6.6,0,0,0,.1.4h0a.6.6,0,0,1,.1-.4l1.2-3.9h.7l1.1,3.9a1.3,1.3,0,0,0,.1.5h0a.9.9,0,0,1,.1-.5l1-3.9Z" transform="translate(-0.4 -4.9)"/><path d="M54.9,46.4a3,3,0,0,0,1.5.5c.8,0,1.1-.3,1.1-.8s-.1-.3-.2-.5l-1-.5-1.1-.6a1.9,1.9,0,0,1-.2-.8,1.2,1.2,0,0,1,.5-1.1,2.3,2.3,0,0,1,1.4-.4l1.2.2v.8a2.8,2.8,0,0,0-1.3-.4,1.1,1.1,0,0,0-.8.3.8.8,0,0,0-.2.5c0,.2,0,.4.2.5l.8.5c.7.2,1.1.4,1.2.7a1.1,1.1,0,0,1,.3.8,1.6,1.6,0,0,1-.5,1.1,3.3,3.3,0,0,1-1.5.4,3.3,3.3,0,0,1-1.4-.4Z" transform="translate(-0.4 -4.9)"/><path d="M63.7,45.1H60.1a1.8,1.8,0,0,0,.4,1.3,1.7,1.7,0,0,0,1.2.5,2.3,2.3,0,0,0,1.6-.6V47a2.4,2.4,0,0,1-1.7.6,2,2,0,0,1-1.7-.8,2.7,2.7,0,0,1-.6-1.9,3.4,3.4,0,0,1,.6-2,2.2,2.2,0,0,1,1.7-.7,1.8,1.8,0,0,1,1.5.6,2.8,2.8,0,0,1,.6,1.8Zm-.8-.7a1.2,1.2,0,0,0-.4-1.1,1.1,1.1,0,0,0-.9-.5,1.4,1.4,0,0,0-1,.5,1.3,1.3,0,0,0-.5,1.1Z" transform="translate(-0.4 -4.9)"/><path d="M67.6,43.1l-.6-.2a1.1,1.1,0,0,0-.9.5,2.1,2.1,0,0,0-.4,1.4v2.6H65V42.3h.7v1.1h0a2,2,0,0,1,.6-.9,1.1,1.1,0,0,1,.8-.3h.5Z" transform="translate(-0.4 -4.9)"/><path d="M68.5,47.4V39.8h.8v7.6Z" transform="translate(-0.4 -4.9)"/><path d="M75,45.1H71.4a1.9,1.9,0,0,0,.5,1.3,1.7,1.7,0,0,0,1.2.5,2.5,2.5,0,0,0,1.6-.6V47a2.8,2.8,0,0,1-1.8.6,2.1,2.1,0,0,1-1.7-.8,2.7,2.7,0,0,1-.6-1.9,2.9,2.9,0,0,1,.7-2,2,2,0,0,1,1.6-.7,2.1,2.1,0,0,1,1.6.6,2.7,2.7,0,0,1,.5,1.8Zm-.8-.7a1.6,1.6,0,0,0-.3-1.1,1.2,1.2,0,0,0-1-.5,1.4,1.4,0,0,0-1,.5,2.3,2.3,0,0,0-.5,1.1Z" transform="translate(-0.4 -4.9)"/><path d="M76,46.4a2.5,2.5,0,0,0,1.5.5c.7,0,1.1-.3,1.1-.8s-.1-.3-.3-.5l-.9-.5a2.7,2.7,0,0,1-1.1-.6,1.1,1.1,0,0,1-.3-.8,1.3,1.3,0,0,1,.6-1.1,1.8,1.8,0,0,1,1.3-.4l1.2.2v.8a2.8,2.8,0,0,0-1.3-.4.8.8,0,0,0-.7.3.5.5,0,0,0-.3.5.8.8,0,0,0,.2.5l.9.5a2.2,2.2,0,0,1,1.2.7,1.1,1.1,0,0,1,.2.8,1.3,1.3,0,0,1-.5,1.1,3.3,3.3,0,0,1-1.5.4,2.8,2.8,0,0,1-1.3-.4Z" transform="translate(-0.4 -4.9)"/><path d="M80.3,46.4a3,3,0,0,0,1.5.5c.7,0,1.1-.3,1.1-.8s-.1-.3-.3-.5l-.9-.5-1.1-.6a1.1,1.1,0,0,1-.3-.8,1.3,1.3,0,0,1,.6-1.1,2.1,2.1,0,0,1,1.4-.4l1.1.2v.8a2.5,2.5,0,0,0-1.3-.4.9.9,0,0,0-.7.3.5.5,0,0,0-.3.5.8.8,0,0,0,.2.5l.9.5a2.2,2.2,0,0,1,1.2.7,1.1,1.1,0,0,1,.3.8,1.4,1.4,0,0,1-.6,1.1,2.6,2.6,0,0,1-2.8,0Z" transform="translate(-0.4 -4.9)"/><path d="M56.1,55.6a2,2,0,0,1-1.5-.6,2,2,0,0,1-.7-1.6,1.9,1.9,0,0,1,.7-1.6,1.8,1.8,0,0,1,1.5-.7,2.1,2.1,0,0,1,1.5.7,2.1,2.1,0,0,1,.6,1.6,2.3,2.3,0,0,1-.6,1.6A2.4,2.4,0,0,1,56.1,55.6Zm0-3.8a1.5,1.5,0,0,0-1.1.4,2.1,2.1,0,0,0-.4,1.2,1.6,1.6,0,0,0,.4,1.1,1.5,1.5,0,0,0,1.1.4,1.3,1.3,0,0,0,1-.4,1.2,1.2,0,0,0,.4-1.1,1.6,1.6,0,0,0-.4-1.2A1.3,1.3,0,0,0,56.1,51.8Zm-.4,8.3V56.3h.7v1.4h4.5V56.3h.7v3.8Zm5.2-1.8H56.4v1.1h4.5Zm0-2.5v-2H59.8v2h-.7V51.1h.7v2.1h1.1V50.9h.7v4.9Z" transform="translate(-0.4 -4.9)"/><path d="M173.7,46.7h-.9l-.7-2H169l-.7,2h-.9l2.7-7.2h.8ZM171.8,44l-1.2-3.2a.8.8,0,0,0-.1-.4h0a1,1,0,0,1-.1.4L169.3,44Z" transform="translate(-0.4 -4.9)"/><path d="M175.6,44v2.7h-.8V39.5h1.9a2.4,2.4,0,0,1,1.8.6,2.1,2.1,0,0,1,.6,1.6,2.2,2.2,0,0,1-.7,1.7,2.9,2.9,0,0,1-1.9.6Zm0-3.7v2.9h.9a1.7,1.7,0,0,0,1.3-.4,1.3,1.3,0,0,0,.5-1.1c0-1-.6-1.4-1.7-1.4Z" transform="translate(-0.4 -4.9)"/><path d="M181.3,46.7h-.8V39.5h.8Z" transform="translate(-0.4 -4.9)"/><path d="M188.8,42.9a2.4,2.4,0,0,1-1.5-.6,2.3,2.3,0,0,1-.6-1.6,2.4,2.4,0,0,1,.6-1.7,2.4,2.4,0,0,1,1.5-.6,2,2,0,0,1,1.5.6,2.1,2.1,0,0,1,.7,1.7,2,2,0,0,1-.7,1.6A2,2,0,0,1,188.8,42.9Zm0-3.8a1.3,1.3,0,0,0-1,.4,1.6,1.6,0,0,0-.4,1.2,1.4,1.4,0,0,0,.4,1.1,1.3,1.3,0,0,0,1,.4,1.5,1.5,0,0,0,1.1-.4,1.4,1.4,0,0,0,.4-1.1,1.6,1.6,0,0,0-.4-1.2A1.5,1.5,0,0,0,188.8,39.1Zm-.3,8.2V43.6h.7v1.3h4.5V43.6h.7v3.7Zm5.2-1.7h-4.5v1.1h4.5Zm0-2.5v-2h-1.1v2h-.8V38.4h.8v2h1.1V38.2h.7v4.9Z" transform="translate(-0.4 -4.9)"/><path d="M163.6,20.4h-8.4l-52.8.2H74.5l-1.3.2c-.2,0-.5.3-.4.5a.8.8,0,0,0,.4.6h.7l41.9-.2h47.8Z" transform="translate(-0.4 -4.9)" fill="#505050"/></svg>