<svg xmlns="http://www.w3.org/2000/svg" viewBox="0 0 424.04 484"><title>OJ104440672</title><path d="M70,24.4a11.81,11.81,0,0,1-16.84-2.29A12.56,12.56,0,0,1,55.43,4.82a11.82,11.82,0,0,1,16.84,2.3A12.54,12.54,0,0,1,70,24.4ZM73.69,6A13.57,13.57,0,0,0,54.33,3.36a14.43,14.43,0,0,0-2.55,19.87,13.62,13.62,0,0,0,11,5.55,13.45,13.45,0,0,0,8.39-2.92A14.44,14.44,0,0,0,73.69,6Z" fill="#008bfd"/><path d="M56.06,17.19a17,17,0,0,1-2-2.35,18.28,18.28,0,0,0-1.66,6.88c.11.16.11.29.23.44a12.55,12.55,0,0,0,2,2.05A14.13,14.13,0,0,1,56.06,17.19Z" fill="#008bfd"/><path d="M60.67,7.74a21,21,0,0,0-3.33,3,15.71,15.71,0,0,0-1.61,2,15.42,15.42,0,0,0,1.9,2.46,16.32,16.32,0,0,1,2.2-2.56A26.47,26.47,0,0,1,63,10.06C62.16,9.3,61.38,8.53,60.67,7.74Z" fill="#008bfd"/><path d="M72.15,7a12,12,0,0,0-1.73-1.82,12.53,12.53,0,0,0-8,1.53c.76.84,1.51,1.63,2.24,2.36C69,6.59,72.15,7,72.15,7Z" fill="#008bfd"/><path d="M54.34,15a19.82,19.82,0,0,1,1.19-2.06,9.84,9.84,0,0,1-1.6-6.79,13.09,13.09,0,0,0-1.29,1.6C52.26,9.34,52.24,11.9,54.34,15Z" fill="#008bfd"/><path d="M59.9,17.37a21.6,21.6,0,0,1-2.27-2.14,14.25,14.25,0,0,0-1.14,1.95,23.54,23.54,0,0,0,2.09,1.91,19.12,19.12,0,0,0,12.56,4.38,9,9,0,0,0,1.54-1.94C71.45,21.79,66.19,22.48,59.9,17.37Z" fill="#008bfd"/><path d="M54.55,14.83a15.72,15.72,0,0,0,2,2.35,15.36,15.36,0,0,1,1.14-1.95,15.42,15.42,0,0,1-1.9-2.46A15.58,15.58,0,0,0,54.55,14.83Z" fill="#008bfd"/><path d="M63,10.07a97,97,0,0,0,11.15,8.82,9.82,9.82,0,0,0,.33-1.05A95.51,95.51,0,0,1,64.61,9Q63.82,9.47,63,10.07Z" fill="#008bfd"/><path d="M62.38,6.66Q60.73,4.89,59,2.86a10.05,10.05,0,0,0-1.59.66,26.3,26.3,0,0,0,3.24,4.22A17.22,17.22,0,0,1,62.38,6.66Z" fill="#008bfd"/><path d="M62.45,6.62a18.74,18.74,0,0,0-1.87,1.19c.72.78,1.45,1.59,2.25,2.35.57-.4,1.34-.88,1.87-1.18C64,8.25,63.21,7.46,62.45,6.62Z" fill="#008bfd"/><path d="M62.25,6.52a16.24,16.24,0,0,0-1.67,1.12c.72.79,1.74,1.81,2.54,2.57.57-.4,1.05-.8,1.58-1.11C64,8.38,63,7.35,62.25,6.52Z" fill="#008bfd"/><path d="M68.3,13.07a2.7,2.7,0,0,0-.48,3.7,2.56,2.56,0,0,0,3.63.51,2.72,2.72,0,0,0,.48-3.72A2.55,2.55,0,0,0,68.3,13.07Z" fill="#008bfd"/><path d="M63.13,19.19a2.52,2.52,0,0,0-.45,3.44,2.37,2.37,0,0,0,3.36.45,2.49,2.49,0,0,0,.44-3.43A2.36,2.36,0,0,0,63.13,19.19Z" fill="#008bfd"/><path d="M54,11.86a3.79,3.79,0,0,0-.68,5.21,3.58,3.58,0,0,0,5.1.7,3.8,3.8,0,0,0,.67-5.23A3.59,3.59,0,0,0,54,11.86Z" fill="#008bfd"/><path d="M70,164a11.81,11.81,0,0,1-16.84-2.29,12.56,12.56,0,0,1,2.24-17.29,11.82,11.82,0,0,1,16.84,2.3A12.54,12.54,0,0,1,70,164Zm3.66-18.41A13.57,13.57,0,0,0,54.33,143a14.43,14.43,0,0,0-2.55,19.87,13.62,13.62,0,0,0,11,5.55,13.45,13.45,0,0,0,8.39-2.92A14.44,14.44,0,0,0,73.69,145.6Z" fill="#008bfd"/><path d="M56.06,156.8a17,17,0,0,1-2-2.35,18.28,18.28,0,0,0-1.66,6.88c.11.16.11.29.23.44a12.55,12.55,0,0,0,2,2A14.13,14.13,0,0,1,56.06,156.8Z" fill="#008bfd"/><path d="M60.67,147.35a21,21,0,0,0-3.33,3,15.71,15.71,0,0,0-1.61,2,15.42,15.42,0,0,0,1.9,2.46,16.32,16.32,0,0,1,2.2-2.56A26.47,26.47,0,0,1,63,149.67C62.16,148.91,61.38,148.14,60.67,147.35Z" fill="#008bfd"/><path d="M72.15,146.55a12,12,0,0,0-1.73-1.82,12.53,12.53,0,0,0-8,1.53c.76.84,1.51,1.63,2.24,2.36C69,146.19,72.15,146.55,72.15,146.55Z" fill="#008bfd"/><path d="M54.34,154.58a19.82,19.82,0,0,1,1.19-2.06,9.84,9.84,0,0,1-1.6-6.79,13.09,13.09,0,0,0-1.29,1.6C52.26,148.94,52.24,151.5,54.34,154.58Z" fill="#008bfd"/><path d="M59.9,157a21.6,21.6,0,0,1-2.27-2.14,14.25,14.25,0,0,0-1.14,1.95,23.54,23.54,0,0,0,2.09,1.91,19.12,19.12,0,0,0,12.56,4.38,9,9,0,0,0,1.54-1.94C71.45,161.4,66.19,162.09,59.9,157Z" fill="#008bfd"/><path d="M54.55,154.44a15.72,15.72,0,0,0,2,2.35,15.36,15.36,0,0,1,1.14-1.95,15.42,15.42,0,0,1-1.9-2.46A15.58,15.58,0,0,0,54.55,154.44Z" fill="#008bfd"/><path d="M63,149.67a97,97,0,0,0,11.15,8.82,9.82,9.82,0,0,0,.33-1.05,95.51,95.51,0,0,1-9.83-8.82Q63.82,149.07,63,149.67Z" fill="#008bfd"/><path d="M62.38,146.27q-1.65-1.77-3.36-3.8a10.05,10.05,0,0,0-1.59.66,26.3,26.3,0,0,0,3.24,4.22A17.22,17.22,0,0,1,62.38,146.27Z" fill="#008bfd"/><path d="M62.45,146.23a18.74,18.74,0,0,0-1.87,1.19c.72.78,1.45,1.59,2.25,2.35.57-.4,1.34-.88,1.87-1.18C64,147.86,63.21,147.07,62.45,146.23Z" fill="#008bfd"/><path d="M62.25,146.12a16.24,16.24,0,0,0-1.67,1.12c.72.79,1.74,1.81,2.54,2.57.57-.4,1.05-.8,1.58-1.11C64,148,63,147,62.25,146.12Z" fill="#008bfd"/><path d="M68.3,152.68a2.7,2.7,0,0,0-.48,3.7,2.56,2.56,0,0,0,3.63.51,2.72,2.72,0,0,0,.48-3.72A2.55,2.55,0,0,0,68.3,152.68Z" fill="#008bfd"/><path d="M63.13,158.8a2.52,2.52,0,0,0-.45,3.44,2.37,2.37,0,0,0,3.36.45,2.49,2.49,0,0,0,.44-3.43A2.36,2.36,0,0,0,63.13,158.8Z" fill="#008bfd"/><path d="M54,151.47a3.79,3.79,0,0,0-.68,5.21,3.58,3.58,0,0,0,5.1.7,3.8,3.8,0,0,0,.67-5.23A3.59,3.59,0,0,0,54,151.47Z" fill="#008bfd"/><path d="M70,94.28A11.81,11.81,0,0,1,53.19,92,12.56,12.56,0,0,1,55.43,74.7,11.82,11.82,0,0,1,72.27,77,12.54,12.54,0,0,1,70,94.28Zm3.66-18.41a13.57,13.57,0,0,0-19.36-2.63,14.43,14.43,0,0,0-2.55,19.87,13.62,13.62,0,0,0,11,5.55,13.45,13.45,0,0,0,8.39-2.92A14.44,14.44,0,0,0,73.69,75.87Z" fill="#008bfd"/><path d="M56.06,87.07a17,17,0,0,1-2-2.35,18.28,18.28,0,0,0-1.66,6.88c.11.16.11.29.23.44a12.55,12.55,0,0,0,2,2A14.13,14.13,0,0,1,56.06,87.07Z" fill="#008bfd"/><path d="M60.67,77.62a21,21,0,0,0-3.33,3,15.71,15.71,0,0,0-1.61,2.05,15.42,15.42,0,0,0,1.9,2.46,16.32,16.32,0,0,1,2.2-2.56A26.47,26.47,0,0,1,63,79.94C62.16,79.18,61.38,78.41,60.67,77.62Z" fill="#008bfd"/><path d="M72.15,76.83A12,12,0,0,0,70.42,75a12.53,12.53,0,0,0-8,1.53c.76.84,1.51,1.63,2.24,2.36C69,76.47,72.15,76.83,72.15,76.83Z" fill="#008bfd"/><path d="M54.34,84.86a19.82,19.82,0,0,1,1.19-2.06A9.84,9.84,0,0,1,53.93,76a13.09,13.09,0,0,0-1.29,1.6C52.26,79.22,52.24,81.78,54.34,84.86Z" fill="#008bfd"/><path d="M59.9,87.25a21.6,21.6,0,0,1-2.27-2.14,14.25,14.25,0,0,0-1.14,2A23.54,23.54,0,0,0,58.58,89a19.12,19.12,0,0,0,12.56,4.38,9,9,0,0,0,1.54-1.94C71.45,91.67,66.19,92.36,59.9,87.25Z" fill="#008bfd"/><path d="M54.55,84.71a15.72,15.72,0,0,0,2,2.35,15.36,15.36,0,0,1,1.14-2,15.42,15.42,0,0,1-1.9-2.46A15.58,15.58,0,0,0,54.55,84.71Z" fill="#008bfd"/><path d="M63,80a97,97,0,0,0,11.15,8.82,9.82,9.82,0,0,0,.33-1,95.51,95.51,0,0,1-9.83-8.82Q63.82,79.35,63,80Z" fill="#008bfd"/><path d="M62.38,76.54q-1.65-1.77-3.36-3.8a10.05,10.05,0,0,0-1.59.66,26.3,26.3,0,0,0,3.24,4.22A17.22,17.22,0,0,1,62.38,76.54Z" fill="#008bfd"/><path d="M62.45,76.5a18.74,18.74,0,0,0-1.87,1.19c.72.78,1.45,1.59,2.25,2.35.57-.4,1.34-.88,1.87-1.18C64,78.13,63.21,77.34,62.45,76.5Z" fill="#008bfd"/><path d="M62.25,76.4a16.24,16.24,0,0,0-1.67,1.12c.72.79,1.74,1.81,2.54,2.57.57-.4,1.05-.8,1.58-1.11C64,78.26,63,77.23,62.25,76.4Z" fill="#008bfd"/><path d="M68.3,83a2.7,2.7,0,0,0-.48,3.7,2.56,2.56,0,0,0,3.63.51,2.72,2.72,0,0,0,.48-3.72A2.55,2.55,0,0,0,68.3,83Z" fill="#008bfd"/><path d="M63.13,89.07a2.52,2.52,0,0,0-.45,3.44A2.37,2.37,0,0,0,66,93a2.49,2.49,0,0,0,.44-3.43A2.36,2.36,0,0,0,63.13,89.07Z" fill="#008bfd"/><path d="M54,81.74A3.79,3.79,0,0,0,53.31,87a3.58,3.58,0,0,0,5.1.7,3.8,3.8,0,0,0,.67-5.23A3.59,3.59,0,0,0,54,81.74Z" fill="#008bfd"/><g style="isolation:isolate"><path d="M55.42,249v-1.44l-2.33.06L53,247c2,0,3.65,0,5.08-.15l0,.6c-.14,0-.8,0-2,.1V249Zm.22-2.56a2.57,2.57,0,0,1-1.52-.39,1.3,1.3,0,0,1,0-2.13,3.1,3.1,0,0,1,3,0,1.22,1.22,0,0,1,.55,1.06,1.24,1.24,0,0,1-.55,1.06A2.57,2.57,0,0,1,55.64,246.4Zm0-2.31a1.81,1.81,0,0,0-1,.24.7.7,0,0,0-.38.62.71.71,0,0,0,.38.62,2.25,2.25,0,0,0,2,0,.7.7,0,0,0,0-1.24A1.81,1.81,0,0,0,55.64,244.09Zm-1.09,8.42v-3.2h.72v1h4.91v-1h.72v3.2ZM60.18,251H55.27v.92h4.91Zm-1.6-2.08v-.43H57v-.58h1.55v-4.39h.72v5.4Zm1.59,0v-5.59h.73v5.59Z" fill="#008bfd"/><path d="M65.46,248a2.14,2.14,0,0,1-2.14-2.22,2.13,2.13,0,0,1,.64-1.62,2.18,2.18,0,0,1,3,0,2.13,2.13,0,0,1,.64,1.62A2.14,2.14,0,0,1,65.46,248Zm0-3.81a1.43,1.43,0,0,0-1,.42,1.61,1.61,0,0,0-.42,1.17,1.52,1.52,0,0,0,.43,1.16,1.45,1.45,0,0,0,2,0,1.52,1.52,0,0,0,.43-1.16,1.61,1.61,0,0,0-.42-1.17A1.43,1.43,0,0,0,65.46,244.17Zm-.35,8.27v-3.76h.72v1.37h4.46v-1.37H71v3.76Zm5.18-1.75H65.83v1.11h4.46Zm0-2.53v-2h-1.1v2h-.72v-4.69h.72v2.08h1.1v-2.27H71v4.88Z" fill="#008bfd"/></g><path d="M305.43,284h-20.5a1.1,1.1,0,0,0-1.09,1.11v16.74a1.09,1.09,0,0,0,1.09,1.1h5.28a3.29,3.29,0,0,0,3.21,2.27,3.38,3.38,0,0,0,0-6.75,3.29,3.29,0,0,0-3.21,2.27H286v-12h18.31v12h-3.45a7.61,7.61,0,0,0-7.46-6.56,8.25,8.25,0,0,0-3.64.92l1,2a5.27,5.27,0,0,1,2.55-.67,5.46,5.46,0,0,1,0,10.92,5.28,5.28,0,0,1-2.55-.68l-1,2a7.4,7.4,0,0,0,3.64.92,7.61,7.61,0,0,0,7.46-6.56h4.55a1.09,1.09,0,0,0,1.09-1.1V285.08A1.14,1.14,0,0,0,305.43,284Z" fill="#008bfd"/><g style="isolation:isolate"><path d="M287.39,323.11h-.88l-.78-2h-3.08l-.73,2H281l2.77-7.18h.8Zm-1.93-2.76-1.14-3.11a1.92,1.92,0,0,1-.11-.47h0a1.79,1.79,0,0,1-.11.47l-1.14,3.11Z" fill="#008bfd"/><path d="M289.25,320.38v2.73h-.79v-7.18h1.94a2.56,2.56,0,0,1,1.77.56,2,2,0,0,1,.63,1.58,2.15,2.15,0,0,1-.75,1.7,2.48,2.48,0,0,1-1.84.61Zm0-3.72v3h.9a2.05,2.05,0,0,0,1.35-.4,1.44,1.44,0,0,0,.47-1.15q0-1.44-1.71-1.44Z" fill="#008bfd"/><path d="M295,323.11h-.79v-7.18H295Z" fill="#008bfd"/><path d="M302.51,319.27a2.12,2.12,0,0,1-2.13-2.22,2.12,2.12,0,0,1,.63-1.61,2.16,2.16,0,0,1,3,0,2.22,2.22,0,0,1-1.51,3.83Zm0-3.81a1.39,1.39,0,0,0-1,.42,1.62,1.62,0,0,0-.43,1.17,1.55,1.55,0,0,0,.43,1.16,1.46,1.46,0,0,0,2.05,0,1.54,1.54,0,0,0,.42-1.16,1.61,1.61,0,0,0-.42-1.17A1.41,1.41,0,0,0,302.51,315.46Zm-.35,8.27V320h.72v1.37h4.46V320h.72v3.76Zm5.18-1.74h-4.46v1.1h4.46Zm0-2.54v-2h-1.1v2h-.72v-4.69h.72v2.08h1.1v-2.27h.73v4.88Z" fill="#008bfd"/></g><path d="M77.21,427.2H71.13c-.23,0-.38.14-.38.45v2.18a.36.36,0,0,0,.38.38h3.45v3.38c0,.22.15.37.45.37h2.18a.35.35,0,0,0,.37-.37v-6A.34.34,0,0,0,77.21,427.2ZM60,448.18H56.57V444.8c0-.22-.15-.37-.45-.37H54a.35.35,0,0,0-.38.37v6a.35.35,0,0,0,.38.37H60c.23,0,.38-.15.38-.46v-2.18A.36.36,0,0,0,60,448.18ZM73.6,444.5a.9.9,0,0,0-.45.08l-2.32-4.06a2.9,2.9,0,0,0,.9-2,2.79,2.79,0,0,0-3.9-2.56l-2.48-3.47a2,2,0,0,0,.53-1.5,2.33,2.33,0,1,0-2.33,2.32,2.38,2.38,0,0,0,.75-.14l2.48,3.54a2.82,2.82,0,0,0-.68,1.43l-7.2.6a1.78,1.78,0,0,0-1.65-1,1.88,1.88,0,0,0,0,3.76,1.92,1.92,0,0,0,1.87-1.59l7.06-.6a3.94,3.94,0,0,0,.67,1.22l-1.8,2.93h-.22a1.88,1.88,0,1,0,1.87,1.88,2.11,2.11,0,0,0-.52-1.35l1.72-2.86a4.59,4.59,0,0,0,1,.15,3.94,3.94,0,0,0,.82-.15L72,445.18a2.3,2.3,0,0,0-.68,1.57,2.18,2.18,0,1,0,2.25-2.25Z" fill="#007efd"/><g style="isolation:isolate"><path d="M39.66,464.93v-.67H48.4v.67Zm1.46-2.63v-4.39h.73v1.51H46.2v-1.51h.74v4.39Zm5.08-2.23H41.85v1.57H46.2Z" fill="#007efd"/><path d="M50.29,464.39v-3.71h3.43v-2.09H50.29v-.65h4.16v3.38H51v2.43a27.35,27.35,0,0,0,4.35-.21l.11.64A40.58,40.58,0,0,1,50.29,464.39Zm6.7-2.67v4.79h-.73v-9.42H57v4h1.63v.66Z" fill="#007efd"/><path d="M64.4,463v3.54h-.73V463h-4v-.65H68.4V463ZM64,461.28a4,4,0,0,1-2.25-.55,1.74,1.74,0,0,1,0-2.93,3.81,3.81,0,0,1,2.24-.56,4,4,0,0,1,2.26.55,1.72,1.72,0,0,1,.8,1.47,1.69,1.69,0,0,1-.8,1.47A4,4,0,0,1,64,461.28Zm0-3.42a3.17,3.17,0,0,0-1.68.37,1.18,1.18,0,0,0,0,2.06,3.88,3.88,0,0,0,3.35,0,1.17,1.17,0,0,0,0-2.06A3.16,3.16,0,0,0,64,457.86Z" fill="#007efd"/><path d="M74.88,464.21a6.29,6.29,0,0,1-2.26-3,5.53,5.53,0,0,1-.83,1.65,7.49,7.49,0,0,1-1.43,1.53l-.54-.51a5.43,5.43,0,0,0,1.77-2,5.14,5.14,0,0,0,.65-2.48v-.79h-2v-.65h4.85v.65H73v.76a5,5,0,0,0,.67,2.48,4.86,4.86,0,0,0,1.72,1.84Zm1.86,2.3V461H74.56v-.65h2.18v-3.28h.73v9.42Z" fill="#007efd"/><path d="M84.67,457.93q-.12,4-4.24,6.35l-.56-.59a7.1,7.1,0,0,0,2.65-2,5.68,5.68,0,0,0,1.36-3.13H80.27v-.65ZM87,461.62v4.89h-.73v-9.42H87V461h1.68v.65Z" fill="#007efd"/><path d="M53.36,471.13H55v-2h.73V474H55v-2.18H53.36a2.19,2.19,0,0,1-.79,1.41,2.52,2.52,0,0,1-1.59.53,2.38,2.38,0,0,1-1.71-.65,2.26,2.26,0,0,1,0-3.22A2.39,2.39,0,0,1,51,469.2a2.47,2.47,0,0,1,1.58.53A2.15,2.15,0,0,1,53.36,471.13ZM51,469.83a1.62,1.62,0,0,0-1.2.46,1.54,1.54,0,0,0-.46,1.16,1.6,1.6,0,0,0,.46,1.19,1.79,1.79,0,0,0,2.41,0,1.72,1.72,0,0,0,0-2.34A1.63,1.63,0,0,0,51,469.83Zm-1.63,8.49v-3.79H50v1.35H52v-1.35h.68v3.79ZM52,476.47H50v1.24H52Zm4.28,2a4.68,4.68,0,0,1-.93-.91,3,3,0,0,1-.56-.93,3.46,3.46,0,0,1-.64,1,4.18,4.18,0,0,1-.91.82l-.45-.55A2.87,2.87,0,0,0,54,476.83a2.91,2.91,0,0,0,.46-1.61v-.71h.66v.71a3,3,0,0,0,.45,1.6,2.81,2.81,0,0,0,1.2,1.09Z" fill="#007efd"/><path d="M57.9,474.55v-.66h8.74v.66Zm1.53,3.59v-2.79h.73v2.13h5.21v.66Zm0-5.55v-3.16h.73v2.51h5.15v.65Z" fill="#007efd"/><path d="M73.87,473.78a2.1,2.1,0,1,1,1.5-.6A2.14,2.14,0,0,1,73.87,473.78Zm0-3.8a1.4,1.4,0,0,0-1,.42,1.83,1.83,0,0,0,0,2.33,1.49,1.49,0,0,0,2,0,1.79,1.79,0,0,0,0-2.33A1.39,1.39,0,0,0,73.87,470Zm-.36,8.27v-3.76h.73v1.36h4.45v-1.36h.72v3.76Zm5.18-1.75H74.24v1.11h4.45Zm0-2.54V472H77.59V474h-.73v-4.68h.73v2.08h1.09v-2.27h.73V474Z" fill="#007efd"/></g><path d="M71.17,279.66H54.32c-1.48,0-1.5.4-1.5,2.23v29.55c0,1.83,0,2.17,1.49,2.22H71.17c1.47-.05,1.49-.39,1.49-2.22V281.89C72.66,280.06,72.64,279.71,71.17,279.66Zm-10.76,1.15h4.67a.18.18,0,0,1,0,.36H60.41a.18.18,0,0,1,0-.36Zm.12,31.09H59.39c-.19,0-.34-.07-.34-.27s.15-.26.34-.26h1.14c.19,0,.35.07.35.26S60.72,311.9,60.53,311.9Zm3,.2H62c-.26,0-.47-.11-.47-.37s.21-.36.47-.36h1.55c.26,0,.47.1.47.37S63.78,312.1,63.52,312.1Zm2.59-.2H65c-.18,0-.34-.08-.34-.27s.16-.27.34-.27h1.14c.19,0,.34.08.34.27S66.3,311.9,66.11,311.9Zm5.12-3.45c0,1.56-.14,1.9-1.56,1.92H55.81c-1.41,0-1.56-.36-1.56-1.92V283.87c0-1.63.16-1.63,1.74-1.63h13.5c1.59,0,1.75,0,1.75,1.63Z" fill="#008bfd"/><path d="M70.26,284.87c0-1.57-.19-1.58-1.73-1.58H56.9c-1.54,0-1.69,0-1.69,1.58v22.54c0,1.57.16,1.85,1.69,1.85H68.53c1.54,0,1.73-.28,1.73-1.86Zm-8,16.65-4.77-2.83V293l4.77,2.82ZM58,292.25l4.76-2.81,4.78,2.83-4.75,2.81Zm10,6.44-4.77,2.83v-5.63L68,293.07Z" fill="#008bfd"/><g style="isolation:isolate"><g style="isolation:isolate"><path d="M49.33,319.63v4.27H46.79v2.19h4v.66H42.05v-.66h4V323.9H43.5v-4.27Zm-.73,3.6v-2.94H44.25v2.94Z" fill="#008bfd"/><path d="M52.65,325.61v-6.15h.72V322h3.06v-2.52h.73v6.15Zm3.78-3H53.37V325h3.06Zm3,.55v5h-.73v-9.41h.73v3.77H61v.65Z" fill="#008bfd"/><path d="M65.2,323.27a2.42,2.42,0,0,1-1.72-.62,2,2,0,0,1-.67-1.56,2,2,0,0,1,.67-1.55,2.76,2.76,0,0,1,3.45,0,2,2,0,0,1,.66,1.54,2,2,0,0,1-.66,1.56A2.46,2.46,0,0,1,65.2,323.27Zm0-3.7A1.69,1.69,0,0,0,64,320a1.45,1.45,0,0,0-.45,1.11,1.48,1.48,0,0,0,.45,1.13,1.92,1.92,0,0,0,2.42,0,1.48,1.48,0,0,0,.45-1.13,1.45,1.45,0,0,0-.45-1.11A1.69,1.69,0,0,0,65.2,319.57ZM64.08,328v-2.28h5.09v-.89H64.08v-.65h5.81v2.17H64.8v1h5.35V328Zm5.07-4.35v-4.84h.74v4.84Z" fill="#008bfd"/><path d="M78,323.45a2.14,2.14,0,0,1-2.14-2.21,2.14,2.14,0,1,1,4.28,0A2.14,2.14,0,0,1,78,323.45Zm0-3.81a1.4,1.4,0,0,0-1,.43,1.58,1.58,0,0,0-.42,1.17A1.54,1.54,0,0,0,77,322.4a1.47,1.47,0,0,0,2,0,1.79,1.79,0,0,0,0-2.33A1.36,1.36,0,0,0,78,319.64Zm-.35,8.28v-3.76h.72v1.36h4.46v-1.36h.72v3.76Zm5.18-1.75H78.39v1.11h4.46Zm0-2.54v-1.95h-1.1v1.95H81V319h.72V321h1.1v-2.27h.73v4.87Z" fill="#008bfd"/></g></g><path d="M275.36,292.72l8,4-8,4a9.08,9.08,0,0,0,0-8" fill="#505050"/><path d="M67.79,384.27H53.58V355.89H67.79v7.68h.76v-8.44H52.82V385H68.55v-2.32h-.76Z" fill="#0078d7"/><path d="M67,356.69H54.38v4.58H67Zm-9.58,1.91H64v.76H57.44ZM64,360.45H57.41v-.77H64Z" fill="#0078d7"/><path d="M54.34,362v3h8.6v-1.53H67V362Z" fill="#0078d7"/><rect x="54.34" y="365.86" width="8.6" height="2.68" fill="#0078d7"/><path d="M54.34,383.5H67v-.79H62.91V369.33h-8.6V383.5Zm1.53-2.74h2.29V382H55.87Z" fill="#0078d7"/><path d="M77.57,380.45H75.11v-1.88H72.6v1.88H70.15a1.32,1.32,0,0,0-1.31,1.14h10A1.28,1.28,0,0,0,77.57,380.45Z" fill="#0078d7"/><path d="M82.4,366.47H65.3a.64.64,0,0,0-.67.6V377.2a.64.64,0,0,0,.67.6H82.4a.64.64,0,0,0,.67-.6V367.07A.62.62,0,0,0,82.4,366.47Zm-1,9.84H66.32V368H81.38Z" fill="#0078d7"/><path d="M77.76,373.82v-3.44l-3.51-1.85-3.5,1.78v3.54l3.5,1.81Zm-4.4-2.3.89-.44.86.44-.86.48Zm0-1.14.86-.45.86.45-.86.47Zm1.91,4.52-1,.51v-.93l1-.5Zm0-1.18-1,.51v-.92l1-.51Zm0-1.11-1,.51v-.93l1-.51ZM74.48,371l.86-.45.89.45-.86.45Zm2,3.34-1,.51v-.92l1-.51Zm0-1.17-1,.5v-.92l1-.51Zm0-1.15-1,.51v-.89l1-.51Zm1,1.75-.86.45v-.93l.86-.44Zm0-1.15-.86.45v-.92l.86-.45Zm0-1.14-.86.44V371l.86-.45Zm-.19-1.05-.89.44-.89-.44.86-.45Zm-1.11-.58-.89.45-.86-.45.86-.44Zm-2-1.05.86.45-.86.44-.89-.44Zm-1.11.61.86.44-.86.45-.86-.45Zm-1.08.57.89.45-.89.44-.9-.44Zm-.26,4.27-.86-.45v-.92l.86.44Zm0-1.18-.86-.45v-.92l.86.45Zm0-1.15-.86-.44v-.89l.86.44ZM73,374.8l-1-.51v-.92l1,.51Zm0-1.18-1-.5v-.93l1,.51Zm0-1.14L72,372v-.89l1,.51Zm-.7-1.53.89-.45L74,371l-.89.48Zm1.88,4.46-1-.51V374l1,.51Zm0-1.15-1-.51v-.92l1,.51Zm0-1.14-1-.51v-.93l1,.51Z" fill="#0078d7"/><g style="isolation:isolate"><path d="M45,394.3a37.7,37.7,0,0,1-3.83.12v-6.17h3.49v.65H41.9v4.88a29.67,29.67,0,0,0,3.06-.1Zm.84,2.28v-5h-2v-.64h2v-3.24h.72v8.92Zm1.79.31v-9.42h.73v9.42Z" fill="#0078d7"/><path d="M59.13,395.31H50.39v-.65h8.74Zm-4.38-5.39a4.26,4.26,0,0,1-1.35,1.51,6.24,6.24,0,0,1-2.14,1.07l-.5-.58a5,5,0,0,0,2.64-1.34,2.71,2.71,0,0,0,1-1.85v-.5h.75v.5a2.73,2.73,0,0,0,1,1.85,5.43,5.43,0,0,0,2.63,1.33l-.52.58a7.14,7.14,0,0,1-2.14-1.1A4.39,4.39,0,0,1,54.75,389.92Z" fill="#0078d7"/><path d="M60.39,395.15v-.65h6.39c.1-1,.16-2,.19-2.85l-5.69.3-.15-.72L67,391v-2H61.6v-.65h6.09v2.74c0,.82-.06,1.95-.2,3.39h1.64v.65Z" fill="#0078d7"/><path d="M70.39,392.71v-.64h4v-1H71.84v-3.44h5.87v.64H72.57V389h5v.63h-5v.79h5.26v.63h-2.7v1h4v.64Zm1.44,4v-3.31h.72v1.06H77v-1.06h.71v3.31ZM77,395.07H72.55v1H77Z" fill="#0078d7"/><path d="M86.36,392.16a2.12,2.12,0,1,1,1.5-.6A2.1,2.1,0,0,1,86.36,392.16Zm0-3.8a1.43,1.43,0,0,0-1,.42,1.58,1.58,0,0,0-.42,1.17,1.54,1.54,0,0,0,.43,1.16,1.45,1.45,0,0,0,2,0,1.54,1.54,0,0,0,.43-1.16,1.58,1.58,0,0,0-.42-1.17A1.43,1.43,0,0,0,86.36,388.36ZM86,396.63v-3.76h.72v1.37h4.46v-1.37h.72v3.76Zm5.18-1.75H86.73V396h4.46Zm0-2.53v-2h-1.1v2h-.72v-4.69h.72v2.08h1.1v-2.27h.73v4.88Z" fill="#0078d7"/></g><path d="M7.85,152.05a4.49,4.49,0,0,0-3,5.66c.66,2.56,3,4.22,5.27,3.67a4.49,4.49,0,0,0,3-5.66C12.57,153.05,10.16,151.39,7.85,152.05Z" fill="#008bfd"/><path d="M12.78,162.07c-.43,0-.88.77-1.54,1.11s-1.31.88-3.17,0-2.1-1.67-3.64-1.67-4,2.78-4,6.88H16a12.24,12.24,0,0,0-1.11-4.22C13.77,162.07,13.23,162.07,12.78,162.07Z" fill="#008bfd"/><path d="M14.19,157.12H10.07a.71.71,0,0,0-.65.66v2.85a.73.73,0,0,0,.76.66h.76v5.15a1,1,0,0,0,1,1.09,1,1,0,0,0,1-1h.21v-.66c0-.22.33-.33.33-.33v-.33c-.33-.11-.54-.33-.54-.44v-.32l.21-.22a3.53,3.53,0,0,0,.33-.55,2.4,2.4,0,0,1-.33-.55c-.1-.11-.1-.33-.21-.44v-.22a2.52,2.52,0,0,1,.76-1.09h.54a.71.71,0,0,0,.65-.66v-3A.63.63,0,0,0,14.19,157.12Zm-2.39,9.54c0,.22,0,.33-.21.33s-.22-.22-.22-.33v-4.82c0-.22.11-.33.22-.33s.21.22.21.33Zm.33-7.78a.66.66,0,0,1,0-1.32.71.71,0,0,1,.65.66A.63.63,0,0,1,12.13,158.88Z" fill="#008bfd" stroke="gray" stroke-linecap="round" stroke-linejoin="round" stroke-width="0.75"/><path d="M11.57,167a.24.24,0,0,1-.22-.22v-5a.22.22,0,1,1,.44,0v5.1C11.79,167,11.68,167,11.57,167Z" fill="#fff"/><ellipse cx="12.14" cy="158.2" rx="0.66" ry="0.67" fill="#fff"/><path d="M275.36,292.71l8,4-8,4a9.06,9.06,0,0,0,0-8" fill="#505050"/><path d="M275.37,292.71l8,4-8,4a9,9,0,0,0,0-8" fill="#505050"/><path d="M275.37,292.71l8,4-8,4a9,9,0,0,0,0-8" fill="#505050"/><path d="M275.37,292.71l8,4-8,4a9,9,0,0,0,0-8" fill="#505050"/><path d="M413.15,284h-20.5a1.1,1.1,0,0,0-1.09,1.11v16.74a1.09,1.09,0,0,0,1.09,1.1h5.28a3.29,3.29,0,0,0,3.21,2.27,3.38,3.38,0,0,0,0-6.75,3.29,3.29,0,0,0-3.21,2.27h-4.19v-12h18.31v12H408.6a7.61,7.61,0,0,0-7.46-6.56,8.25,8.25,0,0,0-3.64.92l1,2a5.27,5.27,0,0,1,2.55-.67,5.46,5.46,0,0,1,0,10.92,5.28,5.28,0,0,1-2.55-.68l-1,2a7.4,7.4,0,0,0,3.64.92,7.61,7.61,0,0,0,7.46-6.56h4.55a1.09,1.09,0,0,0,1.09-1.1V285.08A1.14,1.14,0,0,0,413.15,284Z" fill="#008bfd"/><g style="isolation:isolate"><path d="M395.1,323.11h-.87l-.78-2h-3.08l-.73,2h-.88l2.76-7.18h.8Zm-1.92-2.76L392,317.24a2.53,2.53,0,0,1-.11-.47h0a1.7,1.7,0,0,1-.12.47l-1.14,3.11Z" fill="#008bfd"/><path d="M397,320.38v2.73h-.78v-7.18h1.94a2.53,2.53,0,0,1,1.76.56,2,2,0,0,1,.63,1.58,2.14,2.14,0,0,1-.74,1.7,2.51,2.51,0,0,1-1.85.61Zm0-3.72v3h.91a2.05,2.05,0,0,0,1.35-.4,1.44,1.44,0,0,0,.46-1.15q0-1.44-1.71-1.44Z" fill="#008bfd"/><path d="M402.68,323.11h-.79v-7.18h.79Z" fill="#008bfd"/><path d="M410.23,319.27a2.14,2.14,0,0,1-2.14-2.22,2.09,2.09,0,0,1,.64-1.61,2.15,2.15,0,0,1,3,0,2.35,2.35,0,0,1,0,3.22A2.07,2.07,0,0,1,410.23,319.27Zm0-3.81a1.43,1.43,0,0,0-1,.42,1.61,1.61,0,0,0-.42,1.17,1.51,1.51,0,0,0,.43,1.16,1.45,1.45,0,0,0,2,0,1.51,1.51,0,0,0,.43-1.16,1.58,1.58,0,0,0-.43-1.17A1.39,1.39,0,0,0,410.23,315.46Zm-.35,8.27V320h.72v1.37h4.46V320h.72v3.76Zm5.18-1.74H410.6v1.1h4.46Zm0-2.54v-2H414v2h-.72v-4.69H414v2.08h1.1v-2.27h.73v4.88Z" fill="#008bfd"/></g><path d="M383.08,292.71l8,4-8,4a9,9,0,0,0,0-8" fill="#505050"/><path d="M10.33,216.18a4.49,4.49,0,0,0-3,5.66c.66,2.56,3,4.22,5.27,3.67a4.49,4.49,0,0,0,3-5.66C15.05,217.18,12.64,215.52,10.33,216.18Z" fill="#008bfd"/><path d="M15.27,226.2c-.44,0-.88.77-1.54,1.11s-1.32.88-3.18,0-2.09-1.67-3.63-1.67-4.06,2.78-4.06,6.88H18.45a12.14,12.14,0,0,0-1.1-4.22C16.25,226.2,15.71,226.2,15.27,226.2Z" fill="#008bfd"/><path d="M16.67,221.25H12.55a.71.71,0,0,0-.65.66v2.85a.73.73,0,0,0,.76.66h.76v5.15a1,1,0,0,0,1,1.09,1,1,0,0,0,1-1h.21V230c0-.22.33-.33.33-.33v-.33c-.33-.11-.54-.33-.54-.44v-.32l.21-.22a3.53,3.53,0,0,0,.33-.55,2.4,2.4,0,0,1-.33-.55c-.1-.11-.1-.33-.21-.44v-.22a2.52,2.52,0,0,1,.76-1.09h.54a.71.71,0,0,0,.65-.66v-3A.63.63,0,0,0,16.67,221.25Zm-2.39,9.54c0,.22,0,.33-.21.33s-.22-.22-.22-.33V226c0-.22.11-.33.22-.33s.21.22.21.33Zm.33-7.78a.66.66,0,0,1,0-1.32.71.71,0,0,1,.65.66A.63.63,0,0,1,14.61,223Z" fill="#008bfd" stroke="gray" stroke-linecap="round" stroke-linejoin="round" stroke-width="0.75"/><path d="M14.05,231.09a.24.24,0,0,1-.22-.22v-5a.22.22,0,1,1,.44,0V231C14.27,231.09,14.16,231.09,14.05,231.09Z" fill="#fff"/><ellipse cx="14.62" cy="222.34" rx="0.66" ry="0.67" fill="#fff"/><path d="M7.85,76.58a4.49,4.49,0,0,0-3,5.66c.66,2.56,3,4.22,5.27,3.67a4.49,4.49,0,0,0,3-5.66C12.57,77.58,10.16,75.92,7.85,76.58Z" fill="#008bfd"/><path d="M12.78,86.6c-.43,0-.88.77-1.54,1.11s-1.31.88-3.17,0S6,86,4.43,86s-4,2.78-4,6.88H16a12.24,12.24,0,0,0-1.11-4.22C13.77,86.6,13.23,86.6,12.78,86.6Z" fill="#008bfd"/><path d="M14.19,81.65H10.07a.71.71,0,0,0-.65.66v2.85a.73.73,0,0,0,.76.66h.76V91a1,1,0,0,0,1,1.09,1,1,0,0,0,1-1h.21v-.66c0-.22.33-.33.33-.33v-.33c-.33-.11-.54-.33-.54-.44V89l.21-.22a3.53,3.53,0,0,0,.33-.55,2.4,2.4,0,0,1-.33-.55c-.1-.11-.1-.33-.21-.44V87a2.52,2.52,0,0,1,.76-1.09h.54a.71.71,0,0,0,.65-.66v-3A.63.63,0,0,0,14.19,81.65ZM11.8,91.19c0,.22,0,.33-.21.33s-.22-.22-.22-.33V86.37c0-.22.11-.33.22-.33s.21.22.21.33Zm.33-7.78a.66.66,0,0,1,0-1.32.71.71,0,0,1,.65.66A.63.63,0,0,1,12.13,83.41Z" fill="#008bfd" stroke="gray" stroke-linecap="round" stroke-linejoin="round" stroke-width="0.75"/><path d="M11.57,91.49a.24.24,0,0,1-.22-.22v-5a.22.22,0,1,1,.44,0v5.1C11.79,91.49,11.68,91.49,11.57,91.49Z" fill="#fff"/><ellipse cx="12.14" cy="82.73" rx="0.66" ry="0.67" fill="#fff"/><path d="M10.33,368.69a4.49,4.49,0,0,0-3,5.66c.66,2.56,3,4.22,5.27,3.67a4.49,4.49,0,0,0,3-5.66C15.05,369.69,12.64,368,10.33,368.69Z" fill="#008bfd"/><path d="M15.27,378.71c-.44,0-.88.77-1.54,1.11s-1.32.88-3.18,0-2.09-1.67-3.63-1.67S2.86,380.93,2.86,385H18.45a12.14,12.14,0,0,0-1.1-4.22C16.25,378.71,15.71,378.71,15.27,378.71Z" fill="#008bfd"/><path d="M16.67,373.76H12.55a.71.71,0,0,0-.65.66v2.85a.73.73,0,0,0,.76.66h.76v5.15a1,1,0,0,0,1,1.09,1,1,0,0,0,1-1h.21v-.66c0-.22.33-.33.33-.33v-.33c-.33-.11-.54-.33-.54-.44v-.32l.21-.22a3.53,3.53,0,0,0,.33-.55,2.4,2.4,0,0,1-.33-.55c-.1-.11-.1-.33-.21-.44v-.22a2.52,2.52,0,0,1,.76-1.09h.54a.71.71,0,0,0,.65-.66v-3A.63.63,0,0,0,16.67,373.76Zm-2.39,9.54c0,.22,0,.33-.21.33s-.22-.22-.22-.33v-4.82c0-.22.11-.33.22-.33s.21.22.21.33Zm.33-7.78a.66.66,0,0,1,0-1.32.71.71,0,0,1,.65.66A.63.63,0,0,1,14.61,375.52Z" fill="#008bfd" stroke="gray" stroke-linecap="round" stroke-linejoin="round" stroke-width="0.75"/><path d="M14.05,383.6a.24.24,0,0,1-.22-.22v-5a.22.22,0,1,1,.44,0v5.1C14.27,383.6,14.16,383.6,14.05,383.6Z" fill="#fff"/><ellipse cx="14.62" cy="374.84" rx="0.66" ry="0.67" fill="#fff"/><path d="M10.33,431.4a4.49,4.49,0,0,0-3,5.66c.66,2.56,3,4.22,5.27,3.67a4.49,4.49,0,0,0,3-5.66C15.05,432.4,12.64,430.74,10.33,431.4Z" fill="#008bfd"/><path d="M15.27,441.42c-.44,0-.88.77-1.54,1.11s-1.32.88-3.18,0-2.09-1.67-3.63-1.67-4.06,2.78-4.06,6.88H18.45a12.14,12.14,0,0,0-1.1-4.22C16.25,441.42,15.71,441.42,15.27,441.42Z" fill="#008bfd"/><path d="M16.67,436.47H12.55a.71.71,0,0,0-.65.66V440a.73.73,0,0,0,.76.66h.76v5.15a1,1,0,0,0,1,1.09,1,1,0,0,0,1-1h.21v-.66c0-.22.33-.33.33-.33v-.33c-.33-.11-.54-.33-.54-.44v-.32l.21-.22a3.53,3.53,0,0,0,.33-.55,2.4,2.4,0,0,1-.33-.55c-.1-.11-.1-.33-.21-.44v-.22a2.52,2.52,0,0,1,.76-1.09h.54a.71.71,0,0,0,.65-.66v-3A.63.63,0,0,0,16.67,436.47ZM14.28,446c0,.22,0,.33-.21.33s-.22-.22-.22-.33v-4.82c0-.22.11-.33.22-.33s.21.22.21.33Zm.33-7.78a.66.66,0,0,1,0-1.32.71.71,0,0,1,.65.66A.63.63,0,0,1,14.61,438.23Z" fill="#008bfd" stroke="gray" stroke-linecap="round" stroke-linejoin="round" stroke-width="0.75"/><path d="M14.05,446.31a.24.24,0,0,1-.22-.22v-5a.22.22,0,1,1,.44,0v5.1C14.27,446.31,14.16,446.31,14.05,446.31Z" fill="#fff"/><ellipse cx="14.62" cy="437.56" rx="0.66" ry="0.67" fill="#fff"/><g style="isolation:isolate"><path d="M41.72,38.72c-.62.08-2.21.11-4.77.11V34.47h4.44v.65H37.68v3.06q3,0,4-.09ZM37.9,43V39.94h.73v2.41H43.9V43Zm5.73-5.54v3.29H42.9V33.87h.73v2.94h1.42v.65Z" fill="#008bfd"/><path d="M49.4,38.38a2.41,2.41,0,0,1-1.72-.61A2,2,0,0,1,47,36.21a2,2,0,0,1,.66-1.55,2.46,2.46,0,0,1,1.72-.61,2.5,2.5,0,0,1,1.73.61,2.14,2.14,0,0,1,0,3.11A2.46,2.46,0,0,1,49.4,38.38Zm0-3.7a1.71,1.71,0,0,0-1.21.42,1.45,1.45,0,0,0-.45,1.11,1.49,1.49,0,0,0,.45,1.13,2,2,0,0,0,2.42,0,1.49,1.49,0,0,0,.45-1.13,1.45,1.45,0,0,0-.45-1.11A1.7,1.7,0,0,0,49.4,34.68Zm-1.12,8.39V40.79h5.09v-.9H48.28v-.65H54.1v2.18H49v1h5.35v.65Zm5.07-4.35V33.87h.75v4.85Z" fill="#008bfd"/><path d="M64.7,40.78a7.69,7.69,0,0,1-1.45.1H59.66v-.64h1.17L60.7,36h.73l.08,4.24H62.7L62.78,36h.74l-.13,4.24a6.63,6.63,0,0,0,1.25-.08Zm-4.78-5.47v-.65h4.45v.65ZM65.42,43V38.11H64.07v-.65h1.35v-3.4h.72V43Zm1.7.31V33.87h.73v9.42Z" fill="#008bfd"/><path d="M72.71,40.91A2.07,2.07,0,0,1,71,40.05a3.79,3.79,0,0,1-.66-2.35A3.75,3.75,0,0,1,71,35.35a2.07,2.07,0,0,1,1.74-.86,2.13,2.13,0,0,1,1.75.86,3.75,3.75,0,0,1,.66,2.35,3.71,3.71,0,0,1-.67,2.35A2.07,2.07,0,0,1,72.71,40.91Zm0-5.77a1.43,1.43,0,0,0-1.22.7,3.92,3.92,0,0,0,0,3.72,1.4,1.4,0,0,0,2.43,0,3.25,3.25,0,0,0,.48-1.86,3.33,3.33,0,0,0-.47-1.86A1.43,1.43,0,0,0,72.71,35.14Zm4.16,8.15V33.87h.73v9.42Z" fill="#008bfd"/><path d="M85,41a7.66,7.66,0,0,1-1.49-1.52A4.68,4.68,0,0,1,82.73,38a5.23,5.23,0,0,1-.85,1.63,7.65,7.65,0,0,1-1.45,1.54l-.55-.5a5.69,5.69,0,0,0,1.8-2,5.13,5.13,0,0,0,.68-2.49v-.79h-2.1v-.65h4.95v.65H83.09v.76a5.33,5.33,0,0,0,2.45,4.33Zm1.73,2.3V33.87h.73v9.42Z" fill="#008bfd"/><path d="M35.42,52.91a1.68,1.68,0,0,1-1.49-.81,4.55,4.55,0,0,1-.52-2.4,4.53,4.53,0,0,1,.52-2.39,1.78,1.78,0,0,1,3,0,4.42,4.42,0,0,1,.52,2.39,4.46,4.46,0,0,1-.52,2.4A1.68,1.68,0,0,1,35.42,52.91Zm0-5.75c-.87,0-1.31.85-1.31,2.54s.44,2.55,1.31,2.55,1.3-.85,1.3-2.55S36.29,47.16,35.42,47.16Zm4.88,8.13V50.42H39.12V55H38.4V46.06h.72v3.71H40.3v-3.9H41v9.42Z" fill="#008bfd"/><path d="M43,50.64V50h8.74v.65Zm1-1.49v-.63h1.41l-.09-1.47H46l.1,1.47h2.56l.1-1.47h.72l-.09,1.47H50.8v.63Zm.12-2.44v-.63h6.6v.63Zm.37,8.35V52.93h5.14V52.1H44.45v-.64h5.86v2.1H45.17v.85h5.39v.65Z" fill="#008bfd"/><path d="M53.72,53.26V49.53H57.3V47.35H53.72V46.7H58v3.46H54.45v2.45a28.45,28.45,0,0,0,4.49-.2L59,53A37.44,37.44,0,0,1,53.72,53.26Zm6.29,2V45.87h.73v9.42Z" fill="#008bfd"/><path d="M67.19,46.69a7.8,7.8,0,0,1-3.54,6.36l-.58-.51a6,6,0,0,0,1.72-1.43,6.51,6.51,0,0,0,1.11-1.75l-2.39.31L63.25,49l2.89-.22a5.11,5.11,0,0,0,.28-1.43H63.63v-.64ZM68.53,55V50.19H66.76v-.64h1.77V46.06h.72V55Zm1.73.31V45.87H71v9.42Z" fill="#008bfd"/><path d="M76,52.91a2.08,2.08,0,0,1-1.74-.86,3.79,3.79,0,0,1-.66-2.35,3.75,3.75,0,0,1,.66-2.35A2.07,2.07,0,0,1,76,46.49a2.11,2.11,0,0,1,1.75.86,4.51,4.51,0,0,1,0,4.7A2.1,2.1,0,0,1,76,52.91Zm0-5.77a1.43,1.43,0,0,0-1.22.7,3.92,3.92,0,0,0,0,3.72,1.43,1.43,0,0,0,1.22.7,1.4,1.4,0,0,0,1.21-.7,3.25,3.25,0,0,0,.48-1.86,3.33,3.33,0,0,0-.47-1.86A1.42,1.42,0,0,0,76,47.14Zm4.16,8.15V45.87h.73v9.42Z" fill="#008bfd"/><path d="M88.12,51.18a6.38,6.38,0,0,1-1.32-1.11,5.1,5.1,0,0,1-.88-1.23A5.8,5.8,0,0,1,85,50.27a5,5,0,0,1-1.32,1.15l-.53-.5a4.7,4.7,0,0,0,1.71-1.5,3.49,3.49,0,0,0,.7-2V46.18h.71v1.21A3.13,3.13,0,0,0,87,49.28a4.51,4.51,0,0,0,1.63,1.37ZM84.93,55V52h.73v2.35H91V55Zm3.25-5.36V49H90V47.92H88.18v-.63H90V45.87h.73v6.88H90V49.62Z" fill="#008bfd"/></g><path d="M7.85,6.77a4.49,4.49,0,0,0-3,5.66c.66,2.56,3,4.22,5.27,3.67a4.49,4.49,0,0,0,3-5.66C12.57,7.77,10.16,6.11,7.85,6.77Z" fill="#008bfd"/><path d="M12.78,16.79c-.43,0-.88.77-1.54,1.11s-1.31.88-3.17,0S6,16.23,4.43,16.23s-4,2.78-4,6.88H16a12.24,12.24,0,0,0-1.11-4.22C13.77,16.79,13.23,16.79,12.78,16.79Z" fill="#008bfd"/><path d="M14.19,11.84H10.07a.71.71,0,0,0-.65.66v2.85a.73.73,0,0,0,.76.66h.76v5.15a1,1,0,0,0,1,1.09,1,1,0,0,0,1-1h.21v-.66c0-.22.33-.33.33-.33V20c-.33-.11-.54-.33-.54-.44v-.32L13.1,19a3.53,3.53,0,0,0,.33-.55,2.4,2.4,0,0,1-.33-.55c-.1-.11-.1-.33-.21-.44v-.22a2.52,2.52,0,0,1,.76-1.09h.54a.71.71,0,0,0,.65-.66v-3A.63.63,0,0,0,14.19,11.84ZM11.8,21.38c0,.22,0,.33-.21.33s-.22-.22-.22-.33V16.56c0-.22.11-.33.22-.33s.21.22.21.33Zm.33-7.78a.66.66,0,0,1,0-1.32.71.71,0,0,1,.65.66A.63.63,0,0,1,12.13,13.6Z" fill="#008bfd" stroke="gray" stroke-linecap="round" stroke-linejoin="round" stroke-width="0.75"/><path d="M11.57,21.68a.24.24,0,0,1-.22-.22v-5a.22.22,0,1,1,.44,0v5.1C11.79,21.68,11.68,21.68,11.57,21.68Z" fill="#fff"/><ellipse cx="12.14" cy="12.93" rx="0.66" ry="0.67" fill="#fff"/><g style="isolation:isolate"><path d="M56,109.36v-1.45c-.49,0-1.27,0-2.34.07l-.07-.63q2.94,0,5.07-.15l.06.6-2,.1v1.46Zm.22-2.56a2.55,2.55,0,0,1-1.53-.4,1.3,1.3,0,0,1,0-2.12,2.61,2.61,0,0,1,1.52-.39,2.58,2.58,0,0,1,1.51.39,1.25,1.25,0,0,1,.56,1.07,1.22,1.22,0,0,1-.55,1.05A2.57,2.57,0,0,1,56.23,106.8Zm0-2.31a1.91,1.91,0,0,0-1,.23.71.71,0,0,0-.38.63.68.68,0,0,0,.38.61,1.81,1.81,0,0,0,1,.24,1.75,1.75,0,0,0,1-.24.71.71,0,0,0,.38-.61.73.73,0,0,0-.38-.63A1.84,1.84,0,0,0,56.23,104.49Zm-1.1,8.41v-3.19h.73v1h4.9v-1h.73v3.19Zm5.63-1.55h-4.9v.92h4.9Zm-1.59-2.08v-.43H57.61v-.58h1.56v-4.39h.72v5.4Zm1.58,0v-5.59h.74v5.59Z" fill="#008bfd"/><path d="M66.05,108.37a2.22,2.22,0,0,1,0-4.43,2.22,2.22,0,0,1,0,4.43Zm0-3.8a1.43,1.43,0,0,0-1,.42,1.83,1.83,0,0,0,0,2.33,1.46,1.46,0,0,0,1,.41,1.44,1.44,0,0,0,1-.41,1.58,1.58,0,0,0,.43-1.16,1.55,1.55,0,0,0-.43-1.17A1.39,1.39,0,0,0,66.05,104.57Zm-.35,8.27v-3.76h.72v1.36h4.46v-1.36h.71v3.76Zm5.18-1.75H66.42v1.11h4.46Zm0-2.54v-2h-1.1v2h-.72v-4.68h.72V106h1.1v-2.27h.72v4.87Z" fill="#008bfd"/></g><path d="M10.33,288.82a4.49,4.49,0,0,0-3,5.66c.66,2.56,3,4.22,5.27,3.67a4.49,4.49,0,0,0,3-5.66C15.05,289.82,12.64,288.16,10.33,288.82Z" fill="#008bfd"/><path d="M15.27,298.84c-.44,0-.88.77-1.54,1.11s-1.32.88-3.18,0-2.09-1.67-3.63-1.67-4.06,2.78-4.06,6.88H18.45a12.14,12.14,0,0,0-1.1-4.22C16.25,298.84,15.71,298.84,15.27,298.84Z" fill="#008bfd"/><path d="M16.67,293.89H12.55a.71.71,0,0,0-.65.66v2.85a.73.73,0,0,0,.76.66h.76v5.15a1,1,0,0,0,1,1.09,1,1,0,0,0,1-1h.21v-.66c0-.22.33-.33.33-.33V302c-.33-.11-.54-.33-.54-.44v-.32l.21-.22a3.53,3.53,0,0,0,.33-.55,2.4,2.4,0,0,1-.33-.55c-.1-.11-.1-.33-.21-.44v-.22a2.52,2.52,0,0,1,.76-1.09h.54a.71.71,0,0,0,.65-.66v-3A.63.63,0,0,0,16.67,293.89Zm-2.39,9.54c0,.22,0,.33-.21.33s-.22-.22-.22-.33v-4.82c0-.22.11-.33.22-.33s.21.22.21.33Zm.33-7.78a.66.66,0,0,1,0-1.32.71.71,0,0,1,.65.66A.63.63,0,0,1,14.61,295.65Z" fill="#008bfd" stroke="gray" stroke-linecap="round" stroke-linejoin="round" stroke-width="0.75"/><path d="M14.05,303.73a.24.24,0,0,1-.22-.22v-5a.22.22,0,1,1,.44,0v5.1C14.27,303.73,14.16,303.73,14.05,303.73Z" fill="#fff"/><ellipse cx="14.62" cy="294.98" rx="0.66" ry="0.67" fill="#fff"/><path d="M264.46,263.21l-15.91,11.42,6.08,18.48h19.66l6.08-18.48Z" fill="#fff" stroke="#000" stroke-linecap="round" stroke-linejoin="round" stroke-width="0.24"/><path d="M264.14,270.32a4.49,4.49,0,0,0-3,5.66c.66,2.56,3,4.22,5.27,3.67a4.49,4.49,0,0,0,3-5.66C268.86,271.32,266.45,269.66,264.14,270.32Z" fill="#008bfd"/><path d="M269.07,280.34c-.44,0-.88.77-1.54,1.11s-1.32.88-3.18,0-2.09-1.67-3.63-1.67-4.06,2.78-4.06,6.88h15.59a12.14,12.14,0,0,0-1.1-4.22C270.05,280.34,269.51,280.34,269.07,280.34Z" fill="#008bfd"/><path d="M270.48,275.4h-4.12a.71.71,0,0,0-.65.66v2.85a.73.73,0,0,0,.76.66h.76v5.15a1,1,0,0,0,1,1.09,1,1,0,0,0,1-1h.21v-.66c0-.22.33-.33.33-.33v-.33c-.33-.11-.54-.33-.54-.44v-.32l.21-.22a3.53,3.53,0,0,0,.33-.55,2.4,2.4,0,0,1-.33-.55c-.1-.11-.1-.33-.21-.44v-.22a2.52,2.52,0,0,1,.76-1.09h.54a.71.71,0,0,0,.65-.66v-3A.63.63,0,0,0,270.48,275.4Zm-2.39,9.54c0,.22,0,.33-.21.33s-.22-.22-.22-.33v-4.82c0-.22.11-.33.22-.33s.21.22.21.33Zm.33-7.78a.66.66,0,0,1,0-1.32.71.71,0,0,1,.65.66A.63.63,0,0,1,268.42,277.16Z" fill="#008bfd" stroke="gray" stroke-linecap="round" stroke-linejoin="round" stroke-width="0.75"/><path d="M267.86,285.23a.24.24,0,0,1-.22-.22v-5a.22.22,0,1,1,.44,0v5.1C268.08,285.23,268,285.23,267.86,285.23Z" fill="#fff"/><ellipse cx="268.43" cy="276.48" rx="0.66" ry="0.67" fill="#fff"/><line x1="276.38" y1="296.73" x2="73.36" y2="296.73" fill="none" stroke="#505050" stroke-miterlimit="10"/><line x1="386.63" y1="296.73" x2="307.18" y2="296.73" fill="none" stroke="#505050" stroke-miterlimit="10"/><path d="M77.1,154h75.16C167.5,154,179,164.68,179,183v73.78c0,18-1,40,37,40" fill="none" stroke="#505050" stroke-miterlimit="10"/><path d="M77.1,224.92h75.16c15.24,0,26.74,10.66,26.74,29" fill="none" stroke="#505050" stroke-miterlimit="10"/><path d="M77.1,439.45h75.16c15.24,0,26.74-10.66,26.74-29V336.69c0-18-1-39.95,37-39.95" fill="none" stroke="#505050" stroke-miterlimit="10"/><path d="M83.32,368.55h70.57c14.31,0,25.11-10.65,25.11-29" fill="none" stroke="#505050" stroke-miterlimit="10"/><g style="isolation:isolate"><path d="M44,178.39c-.62.07-2.21.11-4.77.11v-4.36H43.7v.65H40v3.06q3,0,4-.09Zm-3.82,4.28v-3.06H41V182h5.26v.65ZM46,177.13v3.29h-.73v-6.88H46v2.94h1.42v.65Z" fill="#008bfd"/><path d="M51.72,178.05a2.41,2.41,0,0,1-1.72-.61,2,2,0,0,1-.67-1.56,2,2,0,0,1,.67-1.55,2.41,2.41,0,0,1,1.72-.61,2.46,2.46,0,0,1,1.73.61,2.15,2.15,0,0,1,0,3.11A2.43,2.43,0,0,1,51.72,178.05Zm0-3.7a1.7,1.7,0,0,0-1.21.42,1.45,1.45,0,0,0-.45,1.11,1.47,1.47,0,0,0,.45,1.12,1.92,1.92,0,0,0,2.42,0,1.47,1.47,0,0,0,.45-1.12,1.45,1.45,0,0,0-.45-1.11A1.7,1.7,0,0,0,51.72,174.35Zm-1.12,8.39v-2.28h5.09v-.9H50.6v-.65h5.81v2.18H51.32v1h5.35v.65Zm5.07-4.35v-4.85h.74v4.85Z" fill="#008bfd"/><path d="M67,180.45a7.69,7.69,0,0,1-1.45.1H62v-.65h1.17L63,175.67h.73l.08,4.23H65l.08-4.23h.74l-.13,4.23a6.91,6.91,0,0,0,1.25-.07ZM62.24,175v-.65h4.45V175Zm5.5,7.67v-4.87H66.39v-.65h1.35v-3.4h.72v8.92Zm1.7.31v-9.42h.73V183Z" fill="#008bfd"/><path d="M75,180.58a2.08,2.08,0,0,1-1.74-.87,3.76,3.76,0,0,1-.66-2.34,3.85,3.85,0,0,1,.65-2.36,2.22,2.22,0,0,1,3.49,0,4.47,4.47,0,0,1,0,4.71A2.1,2.1,0,0,1,75,180.58Zm0-5.77a1.41,1.41,0,0,0-1.22.7,3.25,3.25,0,0,0-.47,1.86,3.33,3.33,0,0,0,.47,1.86,1.4,1.4,0,0,0,2.43,0,3.24,3.24,0,0,0,.48-1.85,3.28,3.28,0,0,0-.47-1.86A1.41,1.41,0,0,0,75,174.81ZM79.19,183v-9.42h.73V183Z" fill="#008bfd"/><path d="M87.36,180.66a7.94,7.94,0,0,1-1.49-1.52,4.62,4.62,0,0,1-.82-1.53,5.12,5.12,0,0,1-.85,1.63,7.71,7.71,0,0,1-1.45,1.55l-.55-.5a5.78,5.78,0,0,0,1.8-2,5.13,5.13,0,0,0,.68-2.49V175h-2.1v-.65h5V175H85.41v.76a5.33,5.33,0,0,0,2.45,4.33Zm1.73,2.3v-9.42h.73V183Z" fill="#008bfd"/><path d="M37.74,192.58a1.68,1.68,0,0,1-1.49-.81,5.78,5.78,0,0,1,0-4.79,1.77,1.77,0,0,1,3,0,4.39,4.39,0,0,1,.53,2.39,4.45,4.45,0,0,1-.53,2.4A1.66,1.66,0,0,1,37.74,192.58Zm0-5.75c-.87,0-1.31.85-1.31,2.54s.44,2.55,1.31,2.55,1.3-.85,1.3-2.55S38.61,186.83,37.74,186.83ZM42.62,195v-4.87H41.44v4.58h-.72v-8.94h.72v3.71h1.18v-3.9h.73V195Z" fill="#008bfd"/><path d="M45.33,190.31v-.65h8.74v.65Zm1-1.49v-.63h1.41l-.09-1.47h.72l.1,1.47H51l.1-1.47h.72l-.09,1.47h1.41v.63Zm.12-2.44v-.63H53v.63Zm.37,8.35V192.6h5.14v-.83H46.77v-.64h5.86v2.1H47.49v.85h5.39v.65Z" fill="#008bfd"/><path d="M56,192.93v-3.74h3.58V187H56v-.65h4.31v3.45H56.77v2.46a29.81,29.81,0,0,0,4.49-.2l.08.63A39.12,39.12,0,0,1,56,192.93Zm6.29,2v-9.42h.73V195Z" fill="#008bfd"/><path d="M69.51,186.36A7.83,7.83,0,0,1,66,192.72l-.58-.51a6,6,0,0,0,1.72-1.43A6.51,6.51,0,0,0,68.22,189l-2.39.31-.26-.69,2.89-.22a5.18,5.18,0,0,0,.28-1.43H66v-.64Zm1.34,8.29v-4.79H69.08v-.65h1.77v-3.48h.72v8.92Zm1.73.31v-9.42h.73V195Z" fill="#008bfd"/><path d="M78.27,192.58a2.08,2.08,0,0,1-1.74-.87,4.51,4.51,0,0,1,0-4.7,2.06,2.06,0,0,1,1.74-.85A2.12,2.12,0,0,1,80,187a3.78,3.78,0,0,1,.66,2.36,3.73,3.73,0,0,1-.67,2.35A2.1,2.1,0,0,1,78.27,192.58Zm0-5.77a1.41,1.41,0,0,0-1.22.7,3.92,3.92,0,0,0,0,3.72,1.4,1.4,0,0,0,2.43,0,3.24,3.24,0,0,0,.48-1.85,3.28,3.28,0,0,0-.47-1.86A1.41,1.41,0,0,0,78.27,186.81ZM82.43,195v-9.42h.73V195Z" fill="#008bfd"/><path d="M90.44,190.85a6.71,6.71,0,0,1-1.32-1.11,5.1,5.1,0,0,1-.88-1.23,5.8,5.8,0,0,1-.94,1.43A5.16,5.16,0,0,1,86,191.09l-.53-.5a4.64,4.64,0,0,0,1.71-1.51,3.46,3.46,0,0,0,.7-2v-1.21h.71v1.21a3.06,3.06,0,0,0,.73,1.88,4.37,4.37,0,0,0,1.63,1.38Zm-3.19,3.8v-3H88V194H93.3v.64Zm3.25-5.36v-.63h1.82v-1.07H90.5V187h1.82v-1.42h.73v6.88h-.73v-3.13Z" fill="#008bfd"/></g><path d="M70,233.73a11.81,11.81,0,0,1-16.84-2.29,12.56,12.56,0,0,1,2.24-17.29,11.82,11.82,0,0,1,16.84,2.3A12.54,12.54,0,0,1,70,233.73Zm3.66-18.41a13.57,13.57,0,0,0-19.36-2.63,14.43,14.43,0,0,0-2.55,19.87,13.62,13.62,0,0,0,11,5.55,13.45,13.45,0,0,0,8.39-2.92A14.44,14.44,0,0,0,73.69,215.32Z" fill="#008bfd"/><path d="M56.06,226.52a17,17,0,0,1-2-2.35,18.28,18.28,0,0,0-1.66,6.88c.11.16.11.29.23.44a12.55,12.55,0,0,0,2,2A14.13,14.13,0,0,1,56.06,226.52Z" fill="#008bfd"/><path d="M60.67,217.08a21,21,0,0,0-3.33,3,15.71,15.71,0,0,0-1.61,2.05,15.42,15.42,0,0,0,1.9,2.46,16.32,16.32,0,0,1,2.2-2.56A26.47,26.47,0,0,1,63,219.4C62.16,218.64,61.38,217.87,60.67,217.08Z" fill="#008bfd"/><path d="M72.15,216.28a12,12,0,0,0-1.73-1.82,12.53,12.53,0,0,0-8,1.53c.76.84,1.51,1.63,2.24,2.36C69,215.92,72.15,216.28,72.15,216.28Z" fill="#008bfd"/><path d="M54.34,224.31a19.82,19.82,0,0,1,1.19-2.06,9.84,9.84,0,0,1-1.6-6.79,13.09,13.09,0,0,0-1.29,1.6C52.26,218.67,52.24,221.23,54.34,224.31Z" fill="#008bfd"/><path d="M59.9,226.7a21.6,21.6,0,0,1-2.27-2.14,14.25,14.25,0,0,0-1.14,1.95,23.54,23.54,0,0,0,2.09,1.91,19.12,19.12,0,0,0,12.56,4.38,9,9,0,0,0,1.54-1.94C71.45,231.12,66.19,231.81,59.9,226.7Z" fill="#008bfd"/><path d="M54.55,224.16a15.72,15.72,0,0,0,2,2.35,15.36,15.36,0,0,1,1.14-1.95,15.42,15.42,0,0,1-1.9-2.46A15.58,15.58,0,0,0,54.55,224.16Z" fill="#008bfd"/><path d="M63,219.4a97,97,0,0,0,11.15,8.82,9.82,9.82,0,0,0,.33-1.05,95.51,95.51,0,0,1-9.83-8.82Q63.82,218.8,63,219.4Z" fill="#008bfd"/><path d="M62.38,216q-1.65-1.77-3.36-3.8a10.05,10.05,0,0,0-1.59.66,26.3,26.3,0,0,0,3.24,4.22A17.22,17.22,0,0,1,62.38,216Z" fill="#008bfd"/><path d="M62.45,216a18.74,18.74,0,0,0-1.87,1.19c.72.78,1.45,1.59,2.25,2.35.57-.4,1.34-.88,1.87-1.18C64,217.58,63.21,216.79,62.45,216Z" fill="#008bfd"/><path d="M62.25,215.85A16.24,16.24,0,0,0,60.58,217c.72.79,1.74,1.81,2.54,2.57.57-.4,1.05-.8,1.58-1.11C64,217.71,63,216.68,62.25,215.85Z" fill="#008bfd"/><path d="M68.3,222.4a2.7,2.7,0,0,0-.48,3.7,2.56,2.56,0,0,0,3.63.51,2.72,2.72,0,0,0,.48-3.72A2.55,2.55,0,0,0,68.3,222.4Z" fill="#008bfd"/><path d="M63.13,228.53a2.52,2.52,0,0,0-.45,3.44,2.37,2.37,0,0,0,3.36.45,2.49,2.49,0,0,0,.44-3.43A2.36,2.36,0,0,0,63.13,228.53Z" fill="#008bfd"/><path d="M54,221.2a3.79,3.79,0,0,0-.68,5.21,3.58,3.58,0,0,0,5.1.7,3.8,3.8,0,0,0,.67-5.23A3.59,3.59,0,0,0,54,221.2Z" fill="#008bfd"/></svg>