<svg xmlns="http://www.w3.org/2000/svg" viewBox="0 0 194 58.7"><title>OJ104546510</title><path d="M66,32.8a11.6,11.6,0,0,1-7.3,2.6,11.9,11.9,0,0,1-9.5-4.9,12.7,12.7,0,0,1,2.2-17.3,11.9,11.9,0,0,1,7.3-2.5,12.2,12.2,0,0,1,9.6,4.8A12.6,12.6,0,0,1,66,32.8Zm3.7-18.4a13.7,13.7,0,0,0-11-5.5,13.4,13.4,0,0,0-8.4,2.9,14.4,14.4,0,0,0-2.5,19.9,13.6,13.6,0,0,0,10.9,5.5,13.2,13.2,0,0,0,8.4-2.9A14.5,14.5,0,0,0,69.7,14.4Z" transform="translate(-0.4 -4.8)" fill="#008bfd"/><path d="M52.1,25.6a19.2,19.2,0,0,1-2-2.3,17.4,17.4,0,0,0-1.7,6.8,1.3,1.3,0,0,0,.3.5,9.5,9.5,0,0,0,2,2A13.7,13.7,0,0,1,52.1,25.6Z" transform="translate(-0.4 -4.8)" fill="#008bfd"/><path d="M56.7,16.2a21.1,21.1,0,0,0-3.4,2.9l-1.6,2.1a18.4,18.4,0,0,0,1.9,2.5,17.8,17.8,0,0,1,2.2-2.6A22.9,22.9,0,0,1,59,18.5C58.2,17.7,57.4,17,56.7,16.2Z" transform="translate(-0.4 -4.8)" fill="#008bfd"/><path d="M68.1,15.4a15.4,15.4,0,0,0-1.7-1.9,13.3,13.3,0,0,0-8,1.6l2.2,2.3C65,15,68.1,15.4,68.1,15.4Z" transform="translate(-0.4 -4.8)" fill="#008bfd"/><path d="M50.5,32.6l1.2-2a9.8,9.8,0,0,1-1.6-6.8c-.4.5-.9,1-1.3,1.6A9.1,9.1,0,0,0,50.5,32.6Z" transform="translate(-0.4 -4.8)" fill="#008bfd"/><path d="M55.9,25.8a24,24,0,0,1-2.3-2.1l-1.1,1.9a19.9,19.9,0,0,0,2.1,1.9,19.1,19.1,0,0,0,12.5,4.4A8.9,8.9,0,0,0,68.7,30C67.4,30.2,62.2,30.9,55.9,25.8Z" transform="translate(-0.4 -4.8)" fill="#008bfd"/><path d="M50.5,23.3c.6.7,1.2,1.5,2,2.3l1.1-1.9a18.4,18.4,0,0,1-1.9-2.5Z" transform="translate(-0.4 -4.8)" fill="#008bfd"/><path d="M59,18.5a85.5,85.5,0,0,0,11.1,8.8l.3-1a115.2,115.2,0,0,1-9.8-8.8A7,7,0,0,0,59,18.5Z" transform="translate(-0.4 -4.8)" fill="#008bfd"/><path d="M58.4,15.1,55,11.3l-1.6.6a26,26,0,0,0,3.3,4.3Z" transform="translate(-0.4 -4.8)" fill="#008bfd"/><path d="M58.4,15l-1.8,1.2,2.2,2.4,1.9-1.2Z" transform="translate(-0.4 -4.8)" fill="#008bfd"/><path d="M58.2,14.9l-1.6,1.2a29.5,29.5,0,0,0,2.5,2.5l1.6-1.1Z" transform="translate(-0.4 -4.8)" fill="#008bfd"/><path d="M64.3,21.5a2.8,2.8,0,0,0-.5,3.7,2.5,2.5,0,0,0,3.6.5,2.6,2.6,0,0,0,.5-3.7A2.5,2.5,0,0,0,64.3,21.5Z" transform="translate(-0.4 -4.8)" fill="#008bfd"/><path d="M49.3,28.1a2.5,2.5,0,0,0-.4,3.4,2.3,2.3,0,0,0,3.3.5,2.4,2.4,0,0,0-2.9-3.9Z" transform="translate(-0.4 -4.8)" fill="#008bfd"/><path d="M50,20.3a3.8,3.8,0,0,0-.7,5.2,3.6,3.6,0,0,0,5.1.7,3.8,3.8,0,0,0,.7-5.2A3.6,3.6,0,0,0,50,20.3Z" transform="translate(-0.4 -4.8)" fill="#008bfd"/><path d="M191.8,10.1H171.3a1.1,1.1,0,0,0-1.1,1.1V28a1.1,1.1,0,0,0,1.1,1.1h5.2a3.4,3.4,0,0,0,3.3,2.2,3.4,3.4,0,0,0,0-6.7,3.4,3.4,0,0,0-3.3,2.3h-4.1v-12h18.3v12h-3.5a7.6,7.6,0,0,0-7.4-6.6,9.2,9.2,0,0,0-3.7.9l1,2a4.8,4.8,0,0,1,2.6-.7,5.5,5.5,0,0,1,5.4,5.5,5.4,5.4,0,0,1-5.4,5.4,4.8,4.8,0,0,1-2.6-.7l-1,2a7.8,7.8,0,0,0,3.7.9,7.6,7.6,0,0,0,7.4-6.5h4.6a1.1,1.1,0,0,0,1.1-1.1V11.2A1.2,1.2,0,0,0,191.8,10.1Z" transform="translate(-0.4 -4.8)" fill="#008bfd"/><path d="M161.7,18.9l8,4-7.9,4a9.3,9.3,0,0,0,0-8" transform="translate(-0.4 -4.8)" fill="#505050"/><path d="M162.7,22.9" transform="translate(-0.4 -4.8)" fill="#505050"/><path d="M7.8,15.2a4.5,4.5,0,0,0-2.9,5.7,4.5,4.5,0,0,0,5.3,3.6c2.3-.5,3.6-3.1,2.9-5.6S10.2,14.5,7.8,15.2Z" transform="translate(-0.4 -4.8)" fill="#008bfd"/><path d="M12.8,25.2c-.5,0-.9.8-1.6,1.1s-1.3.9-3.1,0S6,24.7,4.4,24.7s-4,2.7-4,6.8H16a14.7,14.7,0,0,0-1.1-4.2C13.8,25.2,13.2,25.2,12.8,25.2Z" transform="translate(-0.4 -4.8)" fill="#008bfd"/><path d="M14.2,20.3H10.1c-.3,0-.7.3-.7.6v2.9c0,.3.4.6.8.6h.7v5.2a1.1,1.1,0,0,0,1,1.1,1,1,0,0,0,1-1h.2V29c0-.2.3-.3.3-.3v-.3c-.3-.1-.5-.3-.5-.5v-.3l.2-.2a3.3,3.3,0,0,0,.3-.6l-.3-.5c-.1-.1-.1-.3-.2-.4v-.3a2.7,2.7,0,0,1,.8-1.1h.5a.6.6,0,0,0,.6-.6v-3A.6.6,0,0,0,14.2,20.3Zm-2.4,9.5c0,.2,0,.3-.2.3s-.2-.2-.2-.3V25c0-.2.1-.3.2-.3s.2.2.2.3Zm.3-7.8a.6.6,0,0,1-.6-.6.7.7,0,0,1,.6-.7.7.7,0,0,1,.7.7C12.8,21.7,12.6,22,12.1,22Z" transform="translate(-0.4 -4.8)" fill="#008bfd" stroke="gray" stroke-linecap="round" stroke-linejoin="round" stroke-width="0.75"/><path d="M11.6,30.1c-.1,0-.3-.1-.3-.2v-5l.3-.2.2.2V30C11.8,30.1,11.7,30.1,11.6,30.1Z" transform="translate(-0.4 -4.8)" fill="#fff"/><ellipse cx="11.8" cy="16.5" rx="0.7" ry="0.7" fill="#fff"/><path d="M173.7,48.6h-.9l-.7-2H169l-.7,2h-.9l2.7-7.2h.8Zm-1.9-2.7-1.2-3.1a.9.9,0,0,0-.1-.5h0a4.3,4.3,0,0,1-.1.5l-1.1,3.1Z" transform="translate(-0.4 -4.8)"/><path d="M175.6,45.9v2.7h-.8V41.4h1.9a2.4,2.4,0,0,1,1.8.6,2.1,2.1,0,0,1,.6,1.6,2.2,2.2,0,0,1-.7,1.7,2.9,2.9,0,0,1-1.9.6Zm0-3.7v3h.9a2.2,2.2,0,0,0,1.3-.4,1.7,1.7,0,0,0,.5-1.2c0-.9-.6-1.4-1.7-1.4Z" transform="translate(-0.4 -4.8)"/><path d="M181.3,48.6h-.8V41.4h.8Z" transform="translate(-0.4 -4.8)"/><path d="M188.8,44.8a2.4,2.4,0,0,1-1.5-.6,2.3,2.3,0,0,1-.6-1.6,2.5,2.5,0,0,1,.6-1.7,2.4,2.4,0,0,1,1.5-.6,2,2,0,0,1,1.5.6,2.2,2.2,0,0,1,.7,1.7,2,2,0,0,1-.7,1.6A2,2,0,0,1,188.8,44.8Zm0-3.8a1.3,1.3,0,0,0-1,.4,1.6,1.6,0,0,0-.4,1.2,1.4,1.4,0,0,0,.4,1.1,1.3,1.3,0,0,0,1,.4,1.5,1.5,0,0,0,1.1-.4,1.4,1.4,0,0,0,.4-1.1,1.6,1.6,0,0,0-.4-1.2A1.5,1.5,0,0,0,188.8,41Zm-.3,8.2V45.5h.7v1.4h4.5V45.5h.7v3.7Zm5.2-1.7h-4.5v1.1h4.5Zm0-2.5V43h-1.1v2h-.8V40.3h.8v2.1h1.1V40.1h.7V45Z" transform="translate(-0.4 -4.8)"/><path d="M38,47H33.2V42.7h4.4v.7H33.9v3h4Zm-3.8,4.2v-3h.7v2.4h5.2v.6Zm5.7-5.5V49h-.7V42.1h.7v3h1.4v.6Z" transform="translate(-0.4 -4.8)"/><path d="M45.7,46.6a2.6,2.6,0,0,1-1.8-.6,2,2,0,0,1-.6-1.5,2.1,2.1,0,0,1,.6-1.6,2.6,2.6,0,0,1,1.8-.6,2.5,2.5,0,0,1,1.7.6,2.1,2.1,0,0,1,.6,1.6,2,2,0,0,1-.6,1.5A2.5,2.5,0,0,1,45.7,46.6Zm0-3.7a2.2,2.2,0,0,0-1.3.4,1.6,1.6,0,0,0-.4,1.2,1.5,1.5,0,0,0,.4,1.1,1.7,1.7,0,0,0,1.3.4,1.6,1.6,0,0,0,1.2-.4,1.5,1.5,0,0,0,.4-1.1,1.6,1.6,0,0,0-.4-1.2A2.1,2.1,0,0,0,45.7,42.9Zm-1.2,8.4V49h5.1v-.9H44.5v-.6h5.8v2.2h-5v1h5.3v.6ZM49.6,47V42.1h.7V47Z" transform="translate(-0.4 -4.8)"/><path d="M61,49H55.9v-.6h1.2V44.2h.7v4.3H59V44.2h.8l-.2,4.3h1.3Zm-4.8-5.4v-.7h4.4v.7Zm5.5,7.6V46.4H60.3v-.7h1.4V42.3h.7v8.9Zm1.7.3V42.1h.7v9.4Z" transform="translate(-0.4 -4.8)"/><path d="M69,49.2a2.1,2.1,0,0,1-1.8-.9,4.3,4.3,0,0,1-.6-2.4,3.9,3.9,0,0,1,.6-2.3,2.1,2.1,0,0,1,1.8-.9,2,2,0,0,1,1.7.9,3.3,3.3,0,0,1,.7,2.3,3.6,3.6,0,0,1-.7,2.4A2,2,0,0,1,69,49.2Zm0-5.8a1.6,1.6,0,0,0-1.3.7,3.4,3.4,0,0,0-.4,1.8,3.6,3.6,0,0,0,.4,1.9,1.6,1.6,0,0,0,1.3.7,1.3,1.3,0,0,0,1.2-.7,3.6,3.6,0,0,0,.5-1.9,3.2,3.2,0,0,0-.5-1.8A1.3,1.3,0,0,0,69,43.4Zm4.1,8.1V42.1h.8v9.4Z" transform="translate(-0.4 -4.8)"/><path d="M81.3,49.2a5.4,5.4,0,0,1-1.5-1.5,4.4,4.4,0,0,1-.8-1.5,3.8,3.8,0,0,1-.9,1.6,10.7,10.7,0,0,1-1.4,1.6l-.6-.5a4.9,4.9,0,0,0,1.8-2,5,5,0,0,0,.7-2.5v-.8H76.5v-.7h5v.7H79.3v.7a5.5,5.5,0,0,0,.7,2.5,6.6,6.6,0,0,0,1.8,1.9ZM83,51.5V42.1h.8v9.4Z" transform="translate(-0.4 -4.8)"/><path d="M31.7,61.2a1.6,1.6,0,0,1-1.5-.9,3.9,3.9,0,0,1-.5-2.4,3.7,3.7,0,0,1,.5-2.3,1.6,1.6,0,0,1,1.5-.9,1.8,1.8,0,0,1,1.5.9,4.6,4.6,0,0,1,.5,2.3,4.8,4.8,0,0,1-.5,2.4A1.8,1.8,0,0,1,31.7,61.2Zm0-5.8c-.9,0-1.3.9-1.3,2.5s.4,2.6,1.3,2.6,1.3-.9,1.3-2.6S32.5,55.4,31.7,55.4Zm4.9,8.1V58.7H35.4v4.5h-.7V54.3h.7V58h1.2V54.1h.7v9.4Z" transform="translate(-0.4 -4.8)"/><path d="M39.3,58.9v-.7H48v.7Zm.9-1.5v-.6h1.4V55.3h.8v1.5h2.5V55.3h.7v1.5h1.5v.6Zm.1-2.4v-.7h6.6V55Zm.4,8.3V61.2h5.1v-.9H40.7v-.6h5.9v2.1H41.4v.9h5.4v.6Z" transform="translate(-0.4 -4.8)"/><path d="M50,61.5V57.8h3.6V55.6H50v-.7h4.3v3.5H50.7v2.5a34.3,34.3,0,0,0,4.5-.2v.6A50.8,50.8,0,0,1,50,61.5Zm6.3,2V54.1H57v9.4Z" transform="translate(-0.4 -4.8)"/><path d="M63.4,54.9a7.7,7.7,0,0,1-3.5,6.4l-.6-.5A5.8,5.8,0,0,0,61,59.4a6.3,6.3,0,0,0,1.2-1.8l-2.4.3-.3-.7,2.9-.2a5.8,5.8,0,0,0,.3-1.4H59.9v-.7Zm1.4,8.3V58.4H63v-.6h1.8V54.3h.7v8.9Zm1.7.3V54.1h.7v9.4Z" transform="translate(-0.4 -4.8)"/><path d="M72.2,61.2a2,2,0,0,1-1.7-.9,3.6,3.6,0,0,1-.7-2.4,3.3,3.3,0,0,1,.7-2.3,2,2,0,0,1,1.7-.9,2.3,2.3,0,0,1,1.8.9,3.9,3.9,0,0,1,.6,2.3,4.3,4.3,0,0,1-.6,2.4A2.3,2.3,0,0,1,72.2,61.2Zm0-5.8a1.3,1.3,0,0,0-1.2.7,3.5,3.5,0,0,0-.5,1.8,3.6,3.6,0,0,0,.5,1.9,1.4,1.4,0,0,0,2.4,0,3.6,3.6,0,0,0,.5-1.9,3.2,3.2,0,0,0-.5-1.8A1.3,1.3,0,0,0,72.2,55.4Zm4.2,8.1V54.1h.7v9.4Z" transform="translate(-0.4 -4.8)"/><path d="M84.4,59.4a4.5,4.5,0,0,1-1.3-1.1,2.4,2.4,0,0,1-.9-1.2,5.3,5.3,0,0,1-1,1.4,7.1,7.1,0,0,1-1.3,1.2l-.5-.5a6.1,6.1,0,0,0,1.7-1.5,3.5,3.5,0,0,0,.7-2.1V54.4h.7v1.2a3.4,3.4,0,0,0,.7,1.9,4.4,4.4,0,0,0,1.7,1.4Zm-3.2,3.8v-3h.7v2.4h5.3v.6Zm3.2-5.3v-.7h1.9v-1H84.4v-.7h1.9V54.1H87V61h-.7V57.9Z" transform="translate(-0.4 -4.8)"/><path d="M95.2,9.6A2.4,2.4,0,0,1,93.5,9a2,2,0,0,1-.7-1.6,1.9,1.9,0,0,1,.7-1.6,2.4,2.4,0,0,1,3.4,0,1.9,1.9,0,0,1,.7,1.6A2,2,0,0,1,96.9,9,2.4,2.4,0,0,1,95.2,9.6Zm0-3.9a1.7,1.7,0,0,0-1.7,1.7A1.8,1.8,0,0,0,94,8.6a2,2,0,0,0,2.4,0,1.8,1.8,0,0,0,.5-1.2,1.7,1.7,0,0,0-1.7-1.7ZM94.1,14V10.6h5.7V14Zm5-2.8H94.8v2.2h4.3ZM99.8,8v2h-.7V4.8h.7V7.3h1.5V8Z" transform="translate(-0.4 -4.8)" fill="#00b0f0"/><path d="M107.7,11.9a7.8,7.8,0,0,1-1.5-1.6,5.6,5.6,0,0,1-.8-1.5,14.7,14.7,0,0,1-.9,1.7L103,12l-.5-.5a7,7,0,0,0,1.8-2A4.5,4.5,0,0,0,105,7V5.5h.7V7a4.4,4.4,0,0,0,.7,2.4,5.5,5.5,0,0,0,1.8,1.9Zm1.9,2.4V4.8h.7v9.5Z" transform="translate(-0.4 -4.8)" fill="#00b0f0"/><path d="M117.5,9.8a5.3,5.3,0,0,1-1.2-1,2.7,2.7,0,0,1-.9-1.1,5,5,0,0,1-1,1.3,4.1,4.1,0,0,1-1.3,1l-.5-.5a4.6,4.6,0,0,0,1.7-1.4,3.4,3.4,0,0,0,.7-1.9V5.9h-2.1V5.3h4.9v.6h-2.1v.3a2.7,2.7,0,0,0,.7,1.8A4,4,0,0,0,118,9.3Zm2,4.5V11.5h-5.4v-.7h6.1v3.5Zm0-4V7.6h-2.3V7h2.3V4.8h.7v5.5Z" transform="translate(-0.4 -4.8)" fill="#00b0f0"/><path d="M126,12.8v-.6h8.7v.6Zm.7-6.1V6.1H130V4.9h.7V6.1h3.2v.6Zm3.6,4.2a4.5,4.5,0,0,1-2.2-.5,1.7,1.7,0,0,1-.8-1.3,1.4,1.4,0,0,1,.8-1.3,4.5,4.5,0,0,1,2.2-.5,4.6,4.6,0,0,1,2.3.5,1.4,1.4,0,0,1,.8,1.3,1.7,1.7,0,0,1-.8,1.3A4.6,4.6,0,0,1,130.3,10.9Zm0-3a4,4,0,0,0-1.7.3,1.1,1.1,0,0,0-.5.9,1,1,0,0,0,.5.8,4,4,0,0,0,1.7.3,3.4,3.4,0,0,0,1.7-.3.9.9,0,0,0,.6-.8,1,1,0,0,0-.6-.9A3.4,3.4,0,0,0,130.3,7.9Z" transform="translate(-0.4 -4.8)" fill="#00b0f0"/><path d="M136,10.3V9.7h8.7v.6Zm1.4,3.8V11.2h5.9v2.9Zm0-5.3V6.6h5.1V5.7h-5.1V5h5.8V7.2h-5v1h5.3v.6Zm5.2,3.1h-4.5v1.6h4.5Z" transform="translate(-0.4 -4.8)" fill="#00b0f0"/><path d="M165.7,22.2H75.6a3.4,3.4,0,0,0-1.4.2c-.2,0-.5.3-.4.5a.8.8,0,0,0,.4.6H75l42.3-.2,48.4-.2Z" transform="translate(-0.4 -4.8)" fill="#505050"/></svg>