<svg xmlns="http://www.w3.org/2000/svg" viewBox="0 0 204.71 69.22"><title>OJ104546510</title><g style="isolation:isolate"><path d="M94.22,9.63A2.36,2.36,0,0,1,92.5,9a2.14,2.14,0,0,1-.67-1.62,2.13,2.13,0,0,1,.66-1.61,2.37,2.37,0,0,1,1.73-.64A2.41,2.41,0,0,1,96,5.75a2.14,2.14,0,0,1,.67,1.62A2.11,2.11,0,0,1,96,9,2.39,2.39,0,0,1,94.22,9.63Zm0-3.89a1.64,1.64,0,0,0-1.2.45,1.59,1.59,0,0,0-.46,1.18A1.57,1.57,0,0,0,93,8.55a1.6,1.6,0,0,0,1.2.46,1.63,1.63,0,0,0,1.21-.46,1.59,1.59,0,0,0,.46-1.18,1.58,1.58,0,0,0-.46-1.17A1.63,1.63,0,0,0,94.22,5.74ZM93.12,14V10.56h5.75V14Zm5-2.8H93.84v2.16h4.31ZM98.87,8V10h-.73V4.84h.73V7.31h1.42V8Z" fill="#00b0f0"/><path d="M106.75,11.87a7.66,7.66,0,0,1-1.48-1.52,5,5,0,0,1-.88-1.58,5.75,5.75,0,0,1-.89,1.68A7.44,7.44,0,0,1,102,12l-.56-.49a5.81,5.81,0,0,0,1.85-2A4.91,4.91,0,0,0,104,7V5.49h.72V7a4.68,4.68,0,0,0,.68,2.38,5.72,5.72,0,0,0,1.84,1.92Zm1.84,2.39V4.84h.73v9.42Z" fill="#00b0f0"/><path d="M116.57,9.79a6,6,0,0,1-1.29-1,4.08,4.08,0,0,1-.9-1.15A4.52,4.52,0,0,1,113.46,9,5,5,0,0,1,112.14,10l-.52-.5a4.58,4.58,0,0,0,1.71-1.4,3.15,3.15,0,0,0,.67-1.9V5.91h-2.07V5.26h4.85v.65h-2.07v.32a2.76,2.76,0,0,0,.7,1.78,4.22,4.22,0,0,0,1.65,1.25Zm1.92,4.47V11.45h-5.4V10.8h6.13v3.46Zm0-4V7.62h-2.25V7h2.25V4.84h.73v5.43Z" fill="#00b0f0"/><path d="M125,12.82v-.64h8.74v.64Zm.77-6.09V6.09H129V4.94h.73V6.09H133v.64Zm3.6,4.13a4.19,4.19,0,0,1-2.27-.51,1.42,1.42,0,0,1,0-2.56,4.34,4.34,0,0,1,2.27-.5,4.27,4.27,0,0,1,2.25.49,1.44,1.44,0,0,1,0,2.58A4.24,4.24,0,0,1,129.38,10.86Zm0-2.95a3.68,3.68,0,0,0-1.7.31.94.94,0,0,0-.59.85,1,1,0,0,0,.58.85,4.7,4.7,0,0,0,3.41,0,1,1,0,0,0,.58-.85,1,1,0,0,0-.59-.85A3.64,3.64,0,0,0,129.38,7.91Z" fill="#00b0f0"/><path d="M135,10.34V9.72h8.74v.62Zm1.44,3.79V11.24h5.86v2.89Zm0-5.3V6.62h5.07v-1h-5.07V5.05h5.8V7.21H137.2v1h5.3v.62Zm5.11,3h-4.43v1.65h4.43Z" fill="#00b0f0"/></g><path d="M66,32.83a11.78,11.78,0,0,1-16.84-2.29,12.56,12.56,0,0,1,2.24-17.29,11.82,11.82,0,0,1,16.84,2.3A12.54,12.54,0,0,1,66,32.83Zm3.66-18.41a13.57,13.57,0,0,0-19.36-2.63,14.43,14.43,0,0,0-2.55,19.87A13.55,13.55,0,0,0,67.13,34.3,14.45,14.45,0,0,0,69.69,14.42Z" fill="#008bfd"/><path d="M52.06,25.61a17,17,0,0,1-2-2.35,18.28,18.28,0,0,0-1.66,6.88c.11.16.11.29.23.45a13.4,13.4,0,0,0,2,2.05A14.14,14.14,0,0,1,52.06,25.61Z" fill="#008bfd"/><path d="M56.67,16.17a21,21,0,0,0-3.33,3,15.71,15.71,0,0,0-1.61,2.05,15.93,15.93,0,0,0,1.9,2.47,15.93,15.93,0,0,1,2.2-2.57A26.31,26.31,0,0,1,59,18.5C58.16,17.73,57.38,17,56.67,16.17Z" fill="#008bfd"/><path d="M68.14,15.37a12.47,12.47,0,0,0-1.73-1.82,12.55,12.55,0,0,0-8,1.54c.76.83,1.51,1.62,2.24,2.36C65,15,68.14,15.37,68.14,15.37Z" fill="#008bfd"/><path d="M55.9,25.79a22.67,22.67,0,0,1-2.27-2.13,13.15,13.15,0,0,0-1.14,1.95,25.16,25.16,0,0,0,2.09,1.9A19.15,19.15,0,0,0,67.14,31.9,9.13,9.13,0,0,0,68.68,30C67.45,30.21,62.19,30.9,55.9,25.79Z" fill="#008bfd"/><path d="M50.54,23.26a16.8,16.8,0,0,0,2,2.35,14.09,14.09,0,0,1,1.14-1.95,15.93,15.93,0,0,1-1.9-2.47A15.67,15.67,0,0,0,50.54,23.26Z" fill="#008bfd"/><path d="M59,18.49a98.68,98.68,0,0,0,11.15,8.83,10.76,10.76,0,0,0,.33-1.06,95,95,0,0,1-9.83-8.81A17.67,17.67,0,0,0,59,18.49Z" fill="#008bfd"/><path d="M58.38,15.08c-1.1-1.18-2.22-2.44-3.36-3.8a11.09,11.09,0,0,0-1.59.66,26.8,26.8,0,0,0,3.24,4.23A15.69,15.69,0,0,1,58.38,15.08Z" fill="#008bfd"/><path d="M58.45,15a18.74,18.74,0,0,0-1.87,1.19c.72.79,1.45,1.59,2.25,2.36.57-.41,1.34-.89,1.87-1.19C60,16.67,59.21,15.88,58.45,15Z" fill="#008bfd"/><path d="M58.25,14.94a14.89,14.89,0,0,0-1.67,1.13c.72.78,1.74,1.8,2.54,2.57a18.53,18.53,0,0,1,1.58-1.11C60,16.8,59,15.78,58.25,14.94Z" fill="#008bfd"/><path d="M64.3,21.49a2.71,2.71,0,0,0-.48,3.71,2.55,2.55,0,0,0,3.63.5A2.72,2.72,0,0,0,67.93,22,2.55,2.55,0,0,0,64.3,21.49Z" fill="#008bfd"/><path d="M59.24,27.83a2.51,2.51,0,0,0-.45,3.43,2.37,2.37,0,0,0,3.36.46,2.49,2.49,0,0,0,.44-3.43A2.35,2.35,0,0,0,59.24,27.83Z" fill="#008bfd"/><path d="M50,20.3a3.79,3.79,0,0,0-.68,5.21,3.57,3.57,0,0,0,5.1.69A3.8,3.8,0,0,0,55.08,21,3.58,3.58,0,0,0,50,20.3Z" fill="#008bfd"/><path d="M50.6,23.07A19.94,19.94,0,0,1,51.79,21a9.83,9.83,0,0,1-1.6-6.79,13.9,13.9,0,0,0-1.29,1.6C48.52,17.42,48.5,20,50.6,23.07Z" fill="#008bfd" fill-rule="evenodd"/><g style="isolation:isolate"><path d="M37.71,45.22c-.62.07-2.21.11-4.77.11V41h4.44v.65h-3.7v3.06q3,0,4-.09ZM33.9,49.5V46.44h.72v2.41h5.27v.65ZM39.62,44v3.29H38.9V40.37h.72v2.94H41V44Z" fill="#008bfd"/><path d="M45.4,44.88a2.48,2.48,0,0,1-1.73-.61,2.17,2.17,0,0,1,0-3.12,2.48,2.48,0,0,1,1.73-.6,2.43,2.43,0,0,1,1.72.61,2,2,0,0,1,.67,1.55,2,2,0,0,1-.67,1.55A2.45,2.45,0,0,1,45.4,44.88Zm0-3.7a1.76,1.76,0,0,0-1.22.41,1.45,1.45,0,0,0-.45,1.12,1.47,1.47,0,0,0,.45,1.12,1.93,1.93,0,0,0,2.43,0,1.47,1.47,0,0,0,.45-1.12,1.45,1.45,0,0,0-.45-1.12A1.75,1.75,0,0,0,45.4,41.18Zm-1.12,8.39V47.29h5.08v-.9H44.28v-.65h5.81v2.18H45v1h5.36v.65Zm5.07-4.35V40.37h.74v4.85Z" fill="#008bfd"/><path d="M60.69,47.28a8.65,8.65,0,0,1-1.45.1H55.65v-.65h1.17l-.13-4.23h.73l.08,4.23h1.19l.08-4.23h.74l-.13,4.23a8,8,0,0,0,1.25-.07Zm-4.78-5.47v-.65h4.45v.65Zm5.5,7.67V44.61H60.06V44h1.35v-3.4h.72v8.92Zm1.7.31V40.37h.73v9.42Z" fill="#008bfd"/><path d="M68.7,47.41A2.09,2.09,0,0,1,67,46.54a4.51,4.51,0,0,1,0-4.7A2.06,2.06,0,0,1,68.7,41a2.11,2.11,0,0,1,1.75.85,4.53,4.53,0,0,1,0,4.71A2.13,2.13,0,0,1,68.7,47.41Zm0-5.77a1.41,1.41,0,0,0-1.22.7A3.27,3.27,0,0,0,67,44.19a3.33,3.33,0,0,0,.47,1.86,1.44,1.44,0,0,0,1.22.71,1.41,1.41,0,0,0,1.21-.71,3.25,3.25,0,0,0,.48-1.86,3.33,3.33,0,0,0-.47-1.86A1.41,1.41,0,0,0,68.7,41.64Zm4.16,8.15V40.37h.73v9.42Z" fill="#008bfd"/><path d="M81,47.49A8.24,8.24,0,0,1,79.54,46a4.82,4.82,0,0,1-.82-1.53,5.07,5.07,0,0,1-.84,1.63,8,8,0,0,1-1.46,1.55l-.55-.51a5.66,5.66,0,0,0,1.8-2,5.13,5.13,0,0,0,.68-2.49v-.79h-2.1v-.65h5v.65H79.08v.76a4.93,4.93,0,0,0,.69,2.46,5,5,0,0,0,1.76,1.86Zm1.73,2.3V40.37h.73v9.42Z" fill="#008bfd"/><path d="M31.42,59.41a1.65,1.65,0,0,1-1.49-.82,5.68,5.68,0,0,1,0-4.79,1.67,1.67,0,0,1,1.49-.8,1.69,1.69,0,0,1,1.48.8,4.44,4.44,0,0,1,.52,2.39,4.47,4.47,0,0,1-.52,2.41A1.67,1.67,0,0,1,31.42,59.41Zm0-5.75c-.88,0-1.32.84-1.32,2.53s.44,2.56,1.32,2.56,1.29-.85,1.29-2.56S32.28,53.66,31.42,53.66Zm4.87,8.13V56.92H35.11V61.5h-.72V52.56h.72v3.71h1.18v-3.9H37v9.42Z" fill="#008bfd"/><path d="M39,57.14v-.65h8.74v.65Zm1-1.49V55h1.4l-.09-1.47H42l.1,1.47h2.56l.11-1.47h.71L45.39,55h1.4v.63Zm.11-2.44v-.63h6.6v.63Zm.37,8.35V59.43h5.15V58.6H40.44V58H46.3v2.1H41.16v.85h5.39v.65Z" fill="#008bfd"/><path d="M49.71,59.75V56H53.3V53.85H49.71V53.2H54v3.45H50.44v2.46a27.87,27.87,0,0,0,4.49-.21l.08.63A37.34,37.34,0,0,1,49.71,59.75Zm6.3,2V52.37h.72v9.42Z" fill="#008bfd"/><path d="M63.18,53.19a7.8,7.8,0,0,1-3.54,6.35l-.58-.5a6.35,6.35,0,0,0,1.73-1.43,6.88,6.88,0,0,0,1.1-1.75l-2.39.31-.26-.69,2.89-.22a5.18,5.18,0,0,0,.28-1.43H59.62v-.64Zm1.35,8.28V56.69H62.75V56h1.78V52.56h.71v8.91Zm1.72.32V52.37H67v9.42Z" fill="#008bfd"/><path d="M71.94,59.41a2.07,2.07,0,0,1-1.73-.87,4.54,4.54,0,0,1,0-4.7,2.22,2.22,0,0,1,3.49,0,4.53,4.53,0,0,1,0,4.71A2.13,2.13,0,0,1,71.94,59.41Zm0-5.77a1.41,1.41,0,0,0-1.22.7,3.86,3.86,0,0,0,0,3.71,1.41,1.41,0,0,0,1.21.71,1.44,1.44,0,0,0,1.22-.71,4,4,0,0,0,0-3.72A1.43,1.43,0,0,0,71.94,53.64Zm4.16,8.15V52.37h.74v9.42Z" fill="#008bfd"/><path d="M84.12,57.67a6.12,6.12,0,0,1-1.33-1.1,5.4,5.4,0,0,1-.88-1.23A5.52,5.52,0,0,1,81,56.77a5,5,0,0,1-1.32,1.15l-.52-.5a4.7,4.7,0,0,0,1.7-1.51,3.48,3.48,0,0,0,.7-2V52.67h.72v1.22A3.11,3.11,0,0,0,83,55.77a4.55,4.55,0,0,0,1.63,1.38Zm-3.2,3.81v-3h.73v2.36H87v.64Zm3.25-5.36v-.63H86V54.42H84.17v-.63H86V52.37h.72v6.88H86V56.12Z" fill="#008bfd"/></g><path d="M191.76,10.11h-20.5a1.1,1.1,0,0,0-1.09,1.11V28a1.09,1.09,0,0,0,1.09,1.1h5.28a3.29,3.29,0,0,0,3.21,2.27,3.37,3.37,0,0,0,0-6.74,3.29,3.29,0,0,0-3.21,2.27h-4.19v-12h18.31v12h-3.45a7.61,7.61,0,0,0-7.46-6.57,8.25,8.25,0,0,0-3.64.92l1,2a5.28,5.28,0,0,1,2.55-.68,5.46,5.46,0,0,1,0,10.92,5.28,5.28,0,0,1-2.55-.68l-1,2a7.51,7.51,0,0,0,3.64.92,7.61,7.61,0,0,0,7.46-6.57h4.55a1.09,1.09,0,0,0,1.09-1.1V11.22A1.14,1.14,0,0,0,191.76,10.11Z" fill="#008bfd"/><g style="isolation:isolate"><path d="M173.72,48.63h-.88l-.78-2H169l-.73,2h-.87l2.76-7.19h.8Zm-1.93-2.77-1.14-3.1a1.92,1.92,0,0,1-.11-.47h0a1.91,1.91,0,0,1-.11.47l-1.14,3.1Z" fill="#008bfd"/><path d="M175.58,45.9v2.73h-.79V41.44h1.94a2.61,2.61,0,0,1,1.77.56,2,2,0,0,1,.63,1.58,2.16,2.16,0,0,1-.74,1.7,2.53,2.53,0,0,1-1.85.62Zm0-3.73v3h.9a2,2,0,0,0,1.35-.4,1.43,1.43,0,0,0,.47-1.14c0-1-.57-1.45-1.71-1.45Z" fill="#008bfd"/><path d="M181.29,48.63h-.79V41.44h.79Z" fill="#008bfd"/><path d="M188.84,44.78a2.1,2.1,0,1,1,1.51-.6A2.13,2.13,0,0,1,188.84,44.78Zm0-3.8a1.39,1.39,0,0,0-1,.42,1.79,1.79,0,0,0,0,2.33,1.46,1.46,0,0,0,2.05,0,1.83,1.83,0,0,0,0-2.33A1.4,1.4,0,0,0,188.84,41Zm-.35,8.27V45.49h.73v1.37h4.45V45.49h.72v3.76Zm5.18-1.75h-4.45v1.11h4.45Zm0-2.53V43h-1.09v2h-.73V40.28h.73v2.08h1.09V40.09h.73V45Z" fill="#008bfd"/></g><path d="M161.69,18.87l8.05,4-8,4a9,9,0,0,0,0-8" fill="#505050"/><path d="M7.85,15.21a4.49,4.49,0,0,0-3,5.66c.66,2.55,3,4.22,5.27,3.66a4.49,4.49,0,0,0,3-5.66C12.57,16.2,10.16,14.54,7.85,15.21Z" fill="#008bfd"/><path d="M12.79,25.22c-.44,0-.88.78-1.54,1.11s-1.32.89-3.18,0S6,24.66,4.44,24.66.38,27.44.38,31.55H16a12.09,12.09,0,0,0-1.1-4.22C13.77,25.22,13.23,25.22,12.79,25.22Z" fill="#008bfd"/><path d="M14.19,20.28H10.07a.71.71,0,0,0-.65.65v2.85a.73.73,0,0,0,.76.66h.76v5.15a1,1,0,0,0,1,1.1,1,1,0,0,0,1-1h.21V29c0-.22.33-.33.33-.33v-.33c-.33-.1-.54-.32-.54-.43v-.33l.21-.22a3.53,3.53,0,0,0,.33-.55,2.4,2.4,0,0,1-.33-.55c-.1-.11-.1-.33-.21-.44v-.21a2.51,2.51,0,0,1,.76-1.1h.54a.71.71,0,0,0,.65-.66v-3A.63.63,0,0,0,14.19,20.28ZM11.8,29.81c0,.22,0,.33-.21.33s-.22-.22-.22-.33V25c0-.22.11-.33.22-.33s.21.22.21.33ZM12.13,22a.66.66,0,0,1,0-1.32.71.71,0,0,1,.65.66A.63.63,0,0,1,12.13,22Z" fill="#008bfd" stroke="gray" stroke-linecap="round" stroke-linejoin="round" stroke-width="0.75"/><path d="M11.57,30.12a.25.25,0,0,1-.22-.23v-5a.22.22,0,1,1,.44,0V30C11.79,30.12,11.68,30.12,11.57,30.12Z" fill="#fff"/><ellipse cx="12.14" cy="21.35" rx="0.66" ry="0.67" fill="#fff"/><line x1="72.53" y1="22.87" x2="162.7" y2="22.87" fill="none" stroke="#505050" stroke-miterlimit="10"/></svg>