<svg xmlns="http://www.w3.org/2000/svg" viewBox="0 0 205.6 55.7"><title>OJ104546506</title><path d="M16,9.8.1,21.2,6.2,39.7H25.9l6-18.5Z" fill="#fff" stroke="#000" stroke-linecap="round" stroke-linejoin="round" stroke-width="0.24"/><path d="M15.7,16.9a4.6,4.6,0,0,0-3,5.7c.7,2.5,3,4.2,5.3,3.7a4.6,4.6,0,0,0,3-5.7A4.5,4.5,0,0,0,15.7,16.9Z" fill="#008bfd"/><path d="M20.6,27c-.4,0-.8.7-1.5,1.1a2.9,2.9,0,0,1-3.2,0c-1.8-.9-2.1-1.7-3.6-1.7s-4.1,2.8-4.1,6.9H23.8a11.4,11.4,0,0,0-1.1-4.2C21.6,27,21.1,27,20.6,27Z" fill="#008bfd"/><path d="M22.1,22H17.9a.7.7,0,0,0-.6.7v2.8a.7.7,0,0,0,.7.7h.8v5.1a1,1,0,0,0,1,1.1,1,1,0,0,0,1-1H21v-.6c0-.2.3-.3.3-.3v-.4c-.3-.1-.5-.3-.5-.4v-.3l.2-.3.3-.5A1.6,1.6,0,0,1,21,28c-.1-.1-.1-.3-.2-.4v-.2a2.2,2.2,0,0,1,.7-1.1h.6a.7.7,0,0,0,.6-.7V22.7C22.7,22.3,22.5,22,22.1,22Zm-2.4,9.5c0,.3,0,.4-.2.4s-.3-.2-.3-.4V26.7a.3.3,0,0,1,.3-.3c.2,0,.2.2.2.3Zm.3-7.7a.8.8,0,0,1-.7-.7c0-.3.4-.6.7-.6a.6.6,0,0,1,.6.6A.7.7,0,0,1,20,23.8Z" fill="#008bfd" stroke="gray" stroke-linecap="round" stroke-linejoin="round" stroke-width="0.75"/><path d="M19.4,31.8l-.2-.2v-5a.2.2,0,1,1,.4,0v5.1C19.6,31.8,19.5,31.8,19.4,31.8Z" fill="#fff"/><ellipse cx="20" cy="23.1" rx="0.7" ry="0.7" fill="#fff"/><path d="M77.2,9.3H56.7a1.1,1.1,0,0,0-1.1,1.1V27.1a1,1,0,0,0,1.1,1.1H62a3.2,3.2,0,0,0,3.2,2.3,3.4,3.4,0,1,0,0-6.7A3.3,3.3,0,0,0,62,26H57.8V14.1H76.1V26H72.7a7.6,7.6,0,0,0-7.5-6.5,7.4,7.4,0,0,0-3.6.9l1,2a4.6,4.6,0,0,1,2.6-.7,5.4,5.4,0,0,1,5.4,5.4,5.5,5.5,0,0,1-5.4,5.5,4.6,4.6,0,0,1-2.6-.7l-1,2a7.4,7.4,0,0,0,3.6.9,7.6,7.6,0,0,0,7.5-6.6h4.5a1,1,0,0,0,1.1-1.1V10.4A1.1,1.1,0,0,0,77.2,9.3Z" fill="#008bfd"/><path d="M192.6,8.8H172.1A1.1,1.1,0,0,0,171,9.9V26.6a1.1,1.1,0,0,0,1.1,1.2h5.3a3.3,3.3,0,0,0,3.2,2.2,3.4,3.4,0,0,0,0-6.7,3.3,3.3,0,0,0-3.2,2.2h-4.2V13.6h18.3V25.5h-3.4a7.6,7.6,0,0,0-7.5-6.5,8.3,8.3,0,0,0-3.6.9l1,2a4.5,4.5,0,0,1,2.5-.7,5.5,5.5,0,0,1,0,10.9,4.5,4.5,0,0,1-2.5-.7l-1,2a7.1,7.1,0,0,0,3.6.9,7.6,7.6,0,0,0,7.5-6.5h4.5a1.1,1.1,0,0,0,1.1-1.2V9.9A1.2,1.2,0,0,0,192.6,8.8Z" fill="#008bfd"/><path d="M162.5,17.6l8.1,4-8,4a9,9,0,0,0,0-8" fill="#505050"/><path d="M174.6,47.3h-.9l-.8-2h-3.1l-.7,2h-.9l2.8-7.2h.8Zm-2-2.7-1.1-3.2c-.1-.1-.1-.2-.1-.4h0c-.1.2-.1.4-.2.4l-1.1,3.2Z"/><path d="M176.4,44.6v2.7h-.8V40.1h2a2.4,2.4,0,0,1,1.7.6,1.9,1.9,0,0,1,.7,1.6,2.3,2.3,0,0,1-.8,1.7,2.8,2.8,0,0,1-1.8.6Zm0-3.7v2.9h.9a2,2,0,0,0,1.4-.4,1.2,1.2,0,0,0,.4-1.1c0-1-.5-1.4-1.7-1.4Z"/><path d="M182.1,47.3h-.8V40.1h.8Z"/><path d="M189.7,43.5a2,2,0,0,1-1.5-.6,2.4,2.4,0,0,1-.7-1.6,2.4,2.4,0,0,1,.7-1.7,2.2,2.2,0,0,1,3,0,2.4,2.4,0,0,1,.6,1.7,2.3,2.3,0,0,1-.6,1.6A2,2,0,0,1,189.7,43.5Zm0-3.8a1.2,1.2,0,0,0-1,.4,1.7,1.7,0,0,0-.5,1.2,1.4,1.4,0,0,0,.5,1.1,1.2,1.2,0,0,0,1,.4,1.3,1.3,0,0,0,1-.4,1.4,1.4,0,0,0,.4-1.1,1.6,1.6,0,0,0-.4-1.2A1.3,1.3,0,0,0,189.7,39.7Zm-.4,8.2V44.2h.8v1.3h4.4V44.2h.7v3.7Zm5.2-1.7h-4.4v1.1h4.4Zm0-2.5v-2h-1.1v2h-.7V39h.7v2h1.1V38.8h.7v4.9Z"/><path d="M59.2,47.8h-.9l-.8-2H54.4l-.7,2h-.9l2.8-7.2h.8ZM57.3,45l-1.2-3.1c0-.1-.1-.2-.1-.4h0a.8.8,0,0,0-.1.4L54.7,45Z"/><path d="M61,45.1v2.7h-.7V40.6h1.9a2.6,2.6,0,0,1,1.8.6,2.1,2.1,0,0,1,.6,1.6,2.6,2.6,0,0,1-.7,1.7,3.1,3.1,0,0,1-1.9.6Zm0-3.7v2.9h.9a2,2,0,0,0,1.4-.4,1.3,1.3,0,0,0,.5-1.1c0-1-.6-1.4-1.7-1.4Z"/><path d="M66.8,47.8H66V40.6h.8Z"/><path d="M74.3,44a2,2,0,0,1-1.5-.6,2.4,2.4,0,0,1-.6-1.7,2.3,2.3,0,0,1,.6-1.6,2.2,2.2,0,0,1,3,0,2.3,2.3,0,0,1,.6,1.6,2.4,2.4,0,0,1-.6,1.7A2,2,0,0,1,74.3,44Zm0-3.8a1.3,1.3,0,0,0-1,.4,1.4,1.4,0,0,0-.4,1.1,1.6,1.6,0,0,0,.4,1.2,1.5,1.5,0,0,0,2,0,1.7,1.7,0,0,0,.5-1.2,1.4,1.4,0,0,0-.5-1.1A1.2,1.2,0,0,0,74.3,40.2ZM74,48.4V44.7h.7V46h4.4V44.7h.8v3.7Zm5.1-1.7H74.7v1.1h4.4Zm0-2.6V42.2H78v1.9h-.7V39.5H78v2h1.1V39.3h.8v4.8Z"/><path d="M84.4,9.9a4.1,4.1,0,0,1,.9-2.8,3.2,3.2,0,0,1,2.5-1,3,3,0,0,1,2.4,1,3.7,3.7,0,0,1,.9,2.6,4.3,4.3,0,0,1-.9,2.8,3.4,3.4,0,0,1-2.5,1,3,3,0,0,1-2.4-1A3.9,3.9,0,0,1,84.4,9.9Zm.8-.1a2.8,2.8,0,0,0,.7,2.1,2.1,2.1,0,0,0,1.8.9,2.4,2.4,0,0,0,1.9-.8,3.1,3.1,0,0,0,.7-2.2,3.6,3.6,0,0,0-.6-2.2,2.7,2.7,0,0,0-3.8,0A3.2,3.2,0,0,0,85.2,9.8Z" fill="#00b0f0"/><path d="M96.4,13.4h-.7v-3c0-1.1-.5-1.6-1.3-1.6a1.1,1.1,0,0,0-1,.5,1.6,1.6,0,0,0-.4,1.2v2.9h-.8V8.2H93v.9h0a2.1,2.1,0,0,1,1.7-1,1.5,1.5,0,0,1,1.3.6,2.2,2.2,0,0,1,.4,1.5Z" fill="#00b0f0"/><path d="M100.4,10.8H97.6v-.6h2.8Z" fill="#00b0f0"/><path d="M101.7,13.4V6.2h2a2.4,2.4,0,0,1,1.5.4,1.7,1.7,0,0,1,.5,1.2,2,2,0,0,1-.3,1.1,1.5,1.5,0,0,1-.9.6h0a1.4,1.4,0,0,1,1.1.5,1.7,1.7,0,0,1,.5,1.2,2.1,2.1,0,0,1-.7,1.5,2.3,2.3,0,0,1-1.6.6Zm.8-6.5V9.3h.9a1.5,1.5,0,0,0,1.1-.4,1.3,1.3,0,0,0,.4-.9c0-.7-.5-1.1-1.4-1.1Zm0,3.1v2.6h1.2a1.8,1.8,0,0,0,1.1-.3,1.3,1.3,0,0,0,.4-1c0-.9-.5-1.3-1.7-1.3Z" fill="#00b0f0"/><path d="M111.3,11h-3.7a2.2,2.2,0,0,0,.5,1.4,1.6,1.6,0,0,0,1.2.4,3,3,0,0,0,1.6-.5V13a3,3,0,0,1-1.8.5,2.2,2.2,0,0,1-1.7-.7,3,3,0,0,1-.6-2,2.9,2.9,0,0,1,.7-1.9,2.3,2.3,0,0,1,1.7-.8,1.7,1.7,0,0,1,1.5.7,2.4,2.4,0,0,1,.6,1.8Zm-.8-.7a1.4,1.4,0,0,0-.4-1.1,1,1,0,0,0-.9-.4,1.2,1.2,0,0,0-1,.4,2.4,2.4,0,0,0-.6,1.1Z" fill="#00b0f0"/><path d="M116.5,13.4h-.8v-3c0-1.1-.4-1.6-1.2-1.6a1.1,1.1,0,0,0-1,.5,1.6,1.6,0,0,0-.4,1.2v2.9h-.8V5.8h.8V9.1h0a1.9,1.9,0,0,1,1.7-1c1.1,0,1.7.7,1.7,2.1Z" fill="#00b0f0"/><path d="M117.9,8.6a3.5,3.5,0,0,1,1.8-.5,1.7,1.7,0,0,1,1.8,1.9v3.4h-.8v-.8h-.1a1.6,1.6,0,0,1-1.5.9,1.6,1.6,0,0,1-1.2-.4,1.4,1.4,0,0,1-.5-1.1c0-.9.6-1.5,1.7-1.6l1.6-.3c0-.9-.4-1.3-1.1-1.3a2.7,2.7,0,0,0-1.7.6Zm1.5,2.3-.9.3a1,1,0,0,0-.3.8.9.9,0,0,0,.3.6.8.8,0,0,0,.7.2,1.4,1.4,0,0,0,1.1-.4,2.1,2.1,0,0,0,.4-1.1v-.5Z" fill="#00b0f0"/><path d="M122.8,13.4V5.8h.7v7.6Z" fill="#00b0f0"/><path d="M127.5,6.5l-.6-.2c-.6,0-.9.4-.9,1.1v.8h1.2v.7H126v4.5h-.7V8.9h-.9V8.2h.9V7.4a1.8,1.8,0,0,1,.4-1.3,1.6,1.6,0,0,1,1.2-.4h.6Z" fill="#00b0f0"/><path d="M130,10.8h-2.8v-.6H130Z" fill="#00b0f0"/><path d="M130.8,9.9a4.1,4.1,0,0,1,1-2.8,3,3,0,0,1,2.5-1,3,3,0,0,1,2.4,1,3.7,3.7,0,0,1,.9,2.6,4.3,4.3,0,0,1-.9,2.8,3.4,3.4,0,0,1-2.5,1,3,3,0,0,1-2.4-1A4,4,0,0,1,130.8,9.9Zm.9-.1a2.8,2.8,0,0,0,.7,2.1,2,2,0,0,0,1.8.9,2.4,2.4,0,0,0,1.9-.8,3.1,3.1,0,0,0,.7-2.2,3.1,3.1,0,0,0-.7-2.2,2.2,2.2,0,0,0-1.8-.8,2.6,2.6,0,0,0-1.9.8A3.2,3.2,0,0,0,131.7,9.8Z" fill="#00b0f0"/><path d="M141.2,6.5l-.6-.2c-.6,0-.8.4-.8,1.1v.8H141v.7h-1.2v4.5H139V8.9h-.9V8.2h.9V7.4a1.9,1.9,0,0,1,.5-1.3,1.4,1.4,0,0,1,1.1-.4h.6Z" fill="#00b0f0"/><path d="M144.7,12.8v-.6h8.7v.6Zm.7-6.1V6.1h3.3V4.9h.7V6.1h3.2v.6Zm3.6,4.2a4.2,4.2,0,0,1-2.2-.5,1.5,1.5,0,0,1-.8-1.3,1.3,1.3,0,0,1,.8-1.3,4.5,4.5,0,0,1,2.2-.5,4.6,4.6,0,0,1,2.3.5,1.4,1.4,0,0,1,.8,1.3,1.7,1.7,0,0,1-.8,1.3A4.6,4.6,0,0,1,149,10.9Zm0-3a4,4,0,0,0-1.7.3,1,1,0,0,0-.6.9.9.9,0,0,0,.6.8,4,4,0,0,0,1.7.3,3.7,3.7,0,0,0,1.7-.3.9.9,0,0,0,.6-.8,1,1,0,0,0-.6-.9A3.7,3.7,0,0,0,149,7.9Z" fill="#00b0f0"/><path d="M154.4,10.3V9.7h8.8v.6Zm1.5,3.8V11.2h5.8v2.9Zm0-5.3V6.6H161V5.7h-5.1V5h5.8V7.2h-5.1v1h5.3v.6Zm5.1,3.1h-4.4v1.6H161Z" fill="#00b0f0"/><path d="M167,21h-8.2l-51.5.2H78.8c-.2.1-.5.4-.5.5a.9.9,0,0,0,.5.7h.7l40.9-.2H167Z" fill="#505050"/></svg>