<?xml version="1.0" encoding="utf-8"?>
<!-- Generator: Adobe Illustrator 23.0.3, SVG Export Plug-In . SVG Version: 6.00 Build 0)  -->
<svg version="1.1" xmlns="http://www.w3.org/2000/svg" xmlns:xlink="http://www.w3.org/1999/xlink" x="0px" y="0px"
	 viewBox="0 0 247.3 64.5" style="enable-background:new 0 0 247.3 64.5;" xml:space="preserve">
<style type="text/css">
	.st0{fill-rule:evenodd;clip-rule:evenodd;fill:#008BFD;}
	
		.st1{fill-rule:evenodd;clip-rule:evenodd;fill:#008BFD;stroke:#808080;stroke-width:0.75;stroke-linecap:round;stroke-linejoin:round;stroke-miterlimit:3;}
	.st2{fill-rule:evenodd;clip-rule:evenodd;fill:#FFFFFF;}
	.st3{enable-background:new    ;}
	.st4{fill:none;}
	.st5{fill:#00B0F0;}
	.st6{fill-rule:evenodd;clip-rule:evenodd;fill:#505050;}
	.st7{fill:#505050;}
</style>
<g id="shapes" xmlns:ev="http://www.w3.org/2001/xml-events" xmlns:v="http://schemas.microsoft.com/visio/2003/SVGExtensions/">
	<g id="group1549-1_1_" transform="translate(43.141,-20.0036)">
		<g id="group1550-2_1_">
			<g id="shape1551-3_1_">
				<path class="st0" d="M22.9,60.1c-2.2,1.7-4.8,2.5-7.3,2.5c-3.6,0-7.2-1.7-9.6-4.8c-4-5.4-3-13.1,2.2-17.3
					c2.2-1.7,4.8-2.5,7.3-2.5c3.6,0,7.2,1.7,9.5,4.8C29.2,48.3,28.2,56,22.9,60.1z M26.5,41.7c-2.7-3.6-6.8-5.5-11-5.5
					c-2.9,0-5.9,1-8.4,2.9C1.1,43.9,0,52.8,4.6,59c2.7,3.6,6.8,5.5,11,5.5c2.9,0,5.9-0.9,8.4-2.9C30,56.8,31.2,48,26.5,41.7z"/>
			</g>
		</g>
		<g id="group1552-5_1_" transform="translate(4.95554,-4.39536)">
			<g id="group1553-6_1_" transform="translate(0.341805,-0.176482)">
				<g id="group1554-7_1_" transform="translate(0.437248,3.2685E-13)">
					<g id="shape1555-8_1_">
						<path class="st0" d="M3.6,57.5c-0.8-0.8-1.4-1.6-2-2.3C0.5,57.6,0.1,60.1,0,62c0.1,0.2,0.1,0.3,0.2,0.4c0.6,0.8,1.3,1.5,2,2
							C2.1,62.9,2.3,60.3,3.6,57.5z"/>
					</g>
				</g>
				<g id="shape1556-10_1_" transform="translate(3.29213,-8.97695)">
					<path class="st0" d="M4.9,57c-1.1,0.8-2.2,1.8-3.3,3C1,60.7,0.5,61.4,0,62.1c0.5,0.8,1.1,1.6,1.9,2.5c0.6-0.9,1.3-1.7,2.2-2.6
						c1.1-1.1,2.2-1.9,3.1-2.6C6.4,58.6,5.7,57.8,4.9,57z"/>
				</g>
				<g id="group1557-12_1_" transform="translate(9.93516,-15.1958)">
					<g id="shape1558-13_1_">
						<path class="st0" d="M9.8,62.5c-0.5-0.7-1.1-1.3-1.7-1.8c-1.9-0.3-4.7-0.3-8,1.5c0.8,0.8,1.5,1.6,2.2,2.4
							C6.6,62.1,9.8,62.5,9.8,62.5z"/>
					</g>
				</g>
				<g id="group1559-15_1_" transform="translate(1.10162E-13,-9.38012)">
					<g id="shape1560-16_1_">
						<path class="st0" d="M2.1,64.5c0.3-0.7,0.7-1.4,1.2-2.1c-1.9-3.1-1.8-5.6-1.6-6.8c-0.5,0.5-0.9,1-1.3,1.6
							C0,58.9,0,61.4,2.1,64.5z"/>
					</g>
				</g>
				<g id="group1561-18_1_" transform="translate(4.05148,-0.740211)">
					<g id="shape1562-19_1_">
						<path class="st0" d="M3.4,58.4c-0.9-0.7-1.6-1.4-2.3-2.1c-0.5,0.7-0.8,1.3-1.1,2c0.6,0.6,1.3,1.3,2.1,1.9
							c4.9,4,9.8,4.4,12.6,4.4c0.2,0,1-1.2,1.5-1.9C15,62.8,9.7,63.5,3.4,58.4z"/>
					</g>
				</g>
				<g id="group1563-21_1_" transform="translate(2.10339,-7.03041)">
					<g id="shape1564-22_1_">
						<path class="st0" d="M0,62.2c0.5,0.8,1.1,1.5,2,2.4c0.3-0.6,0.7-1.3,1.1-2c-0.8-0.8-1.4-1.7-1.9-2.5C0.7,60.8,0.3,61.5,0,62.2
							z"/>
					</g>
				</g>
				<g id="group1565-24_1_" transform="translate(10.5195,-5.3233)">
					<g id="shape1566-25_1_">
						<path class="st0" d="M0,55.7c4.5,4.3,9.8,7.9,11.1,8.8c0.1-0.3,0.2-0.7,0.3-1c-1.4-1.1-5.3-4.2-9.8-8.8
							C1.1,55,0.6,55.3,0,55.7z"/>
					</g>
				</g>
				<g id="group1567-27_1_" transform="translate(4.98729,-16.4714)">
					<g id="shape1568-28_1_">
						<path class="st0" d="M4.9,63.4c-1.1-1.2-2.2-2.4-3.4-3.8C1,59.8,0.5,60,0,60.3c0.8,1.4,2,2.8,3.2,4.2
							C3.8,64.1,4.4,63.7,4.9,63.4z"/>
					</g>
				</g>
				<g id="shape1569-30_1_" transform="translate(8.13763,-14.0503)">
					<path class="st0" d="M1.9,61c-0.6,0.3-1.3,0.8-1.9,1.2c0.7,0.8,1.5,1.6,2.3,2.4c0.6-0.4,1.3-0.9,1.9-1.2
						C3.4,62.6,2.6,61.8,1.9,61z"/>
				</g>
				<g id="shape1570-32_1_" transform="translate(8.1369,-14.0039)">
					<path class="st0" d="M1.7,60.8C1.1,61.1,0.6,61.5,0,62c0.7,0.8,1.7,1.8,2.5,2.6c0.6-0.4,1-0.8,1.6-1.1
						C3.4,62.7,2.4,61.7,1.7,60.8z"/>
				</g>
			</g>
			<g id="group1571-34_1_" transform="translate(14.8617,-6.23662)">
				<g id="shape1572-35_1_">
					<path class="st0" d="M1.3,59.4C0.2,60.3,0,62,0.9,63.1c0.9,1.2,2.5,1.4,3.6,0.5c1.1-0.9,1.3-2.5,0.5-3.7
						C4.1,58.8,2.5,58.5,1.3,59.4z"/>
				</g>
			</g>
			<g id="group1573-37_1_" transform="translate(9.65099,-2.13163E-13)">
				<g id="shape1574-38_1_">
					<path class="st0" d="M1.2,59.8c-1,0.8-1.2,2.4-0.4,3.4c0.8,1.1,2.3,1.3,3.4,0.5c1-0.8,1.2-2.4,0.4-3.4
						C3.8,59.2,2.3,59,1.2,59.8z"/>
				</g>
			</g>
			<g id="group1575-40_1_" transform="translate(0,-5.36433)">
				<g id="shape1576-41_1_">
					<path class="st0" d="M1.9,57.4c-1.6,1.3-1.9,3.6-0.7,5.2c1.2,1.6,3.5,2,5.1,0.7S8.2,59.7,7,58C5.8,56.4,3.5,56.1,1.9,57.4z"/>
				</g>
			</g>
		</g>
	</g>
	<g id="shape1578-49_1_" transform="translate(214.796,-21.421)">
		<path class="st0" d="M21.6,39H1.1C0.5,39,0,39.5,0,40.1v16.7C0,57.5,0.5,58,1.1,58h5.3c0.4,1.4,1.7,2.3,3.2,2.3
			c1.8,0,3.3-1.5,3.3-3.4s-1.5-3.4-3.3-3.4c-1.5,0-2.8,0.9-3.2,2.3H2.2v-12h18.3v12H17c-0.5-3.7-3.7-6.6-7.5-6.6
			c-1.3,0-2.5,0.4-3.6,0.9l1,2c0.7-0.4,1.7-0.7,2.6-0.7c2.9,0,5.4,2.4,5.4,5.5c0,3-2.4,5.5-5.4,5.5c-0.9,0-1.8-0.3-2.6-0.7l-1,2
			c1.1,0.6,2.4,0.9,3.6,0.9c3.8,0,7-2.9,7.5-6.6h4.5c0.6,0,1.1-0.5,1.1-1.1V40.1C22.7,39.6,22.2,39,21.6,39z"/>
	</g>
	<g id="group1580-58_1_" transform="translate(0.375,-25.6729)">
		<g id="group1581-59_1_">
			<g id="group1582-60_1_">
				<g id="group1583-61_1_" transform="translate(3.8518,-6.4617)">
					<g id="shape1584-62_1_">
						<path class="st0" d="M3.6,54.6c-2.3,0.6-3.6,3.1-3,5.7c0.7,2.6,3,4.2,5.3,3.7c2.3-0.6,3.6-3.1,3-5.7C8.3,55.6,5.9,54,3.6,54.6
							z"/>
					</g>
				</g>
				<g id="group1585-64_1_">
					<g id="shape1586-65_1_">
						<path class="st0" d="M12.4,58.2c-0.4,0-0.9,0.8-1.5,1.1c-0.7,0.3-1.3,0.9-3.2,0c-1.9-0.9-2.1-1.7-3.6-1.7
							c-1.5,0-4.1,2.8-4.1,6.9h15.6c0,0-0.2-2.8-1.1-4.2C13.4,58.2,12.9,58.2,12.4,58.2z"/>
					</g>
				</g>
			</g>
		</g>
		<g id="group1587-67_1_" transform="translate(9.0485,-0.85947)">
			<g id="shape1588-68_1_">
				<path class="st1" d="M4.8,54.1H0.7c-0.3,0-0.6,0.3-0.6,0.7v2.8c0,0.3,0.3,0.7,0.8,0.7h0.8v5.2c0,0.6,0.4,1.1,1,1.1s1-0.4,1-1
					c0.1,0,0.2,0,0.2,0s0-0.5,0-0.7c0-0.2,0.3-0.3,0.3-0.3v-0.3c-0.3-0.1-0.5-0.3-0.5-0.4v-0.3c0.1-0.1,0.2-0.2,0.2-0.2
					C3.8,61.1,4,60.7,4,60.7s-0.3-0.4-0.3-0.5c-0.1-0.1-0.1-0.3-0.2-0.4v-0.2c0.1-0.5,0.8-1.1,0.8-1.1h0.5c0.3,0,0.7-0.3,0.7-0.7v-3
					C5.4,54.4,5.2,54.1,4.8,54.1z M2.4,63.7c0,0.2,0,0.3-0.2,0.3C2,64,2,63.8,2,63.7v-4.8c0-0.2,0.1-0.3,0.2-0.3
					c0.2,0,0.2,0.2,0.2,0.3V63.7z M2.7,55.9c-0.3,0-0.7-0.3-0.7-0.7c0-0.3,0.3-0.7,0.7-0.7c0.3,0,0.6,0.3,0.6,0.7
					C3.4,55.5,3.1,55.9,2.7,55.9z"/>
			</g>
			<g id="shape1589-70_1_" transform="translate(1.92482,-0.570755)">
				<path class="st2" d="M0.2,64.5c-0.1,0-0.2-0.1-0.2-0.2v-5c0-0.1,0.1-0.2,0.2-0.2s0.2,0.1,0.2,0.2v5.1
					C0.4,64.5,0.3,64.5,0.2,64.5z"/>
			</g>
			<g id="shape1590-72_1_" transform="translate(2.05993,-8.66317)">
				<ellipse class="st2" cx="0.7" cy="63.9" rx="0.7" ry="0.7"/>
			</g>
		</g>
	</g>
</g>
<g id="txt" xmlns:ev="http://www.w3.org/2001/xml-events" xmlns:v="http://schemas.microsoft.com/visio/2003/SVGExtensions/">
	<g id="group1549-1_2_" transform="translate(43.141,-20.0036)">
		<g id="shape1549-43_2_">
			<g class="st3">
				<path d="M6.2,70.3l-2,7.2H3.2l-1.5-5.3c-0.1-0.2-0.1-0.5-0.1-0.7h0c0,0.3-0.1,0.5-0.1,0.7l-1.5,5.3H-1l-2.1-7.2h0.9l1.6,5.6
					c0.1,0.2,0.1,0.5,0.1,0.7h0c0-0.2,0.1-0.4,0.2-0.7l1.6-5.6H2l1.5,5.6c0,0.2,0.1,0.4,0.1,0.7h0c0-0.2,0.1-0.4,0.1-0.7l1.5-5.6
					H6.2z"/>
				<path d="M11,75.2H7.3c0,0.6,0.2,1,0.5,1.4C8.1,76.8,8.5,77,9,77c0.6,0,1.1-0.2,1.6-0.6v0.7c-0.5,0.3-1.1,0.5-1.8,0.5
					c-0.7,0-1.3-0.2-1.7-0.7s-0.6-1.1-0.6-2c0-0.8,0.2-1.4,0.7-1.9c0.4-0.5,1-0.8,1.7-0.8s1.2,0.2,1.5,0.7s0.5,1,0.5,1.8V75.2z
					 M10.2,74.5c0-0.5-0.1-0.9-0.3-1.1s-0.5-0.4-1-0.4c-0.4,0-0.7,0.1-1,0.4S7.4,74,7.3,74.5H10.2z"/>
				<path d="M13,76.8v0.8h-0.8v-7.6H13v3.4h0c0.4-0.7,1-1,1.8-1c0.7,0,1.2,0.2,1.5,0.7c0.4,0.5,0.6,1.1,0.6,1.8
					c0,0.9-0.2,1.6-0.6,2.1s-1,0.8-1.7,0.8C13.9,77.7,13.4,77.4,13,76.8L13,76.8z M13,75.4c0,0.4,0.1,0.8,0.4,1.1
					c0.3,0.3,0.6,0.5,1.1,0.5c0.5,0,0.9-0.2,1.2-0.6s0.4-0.9,0.4-1.6c0-0.6-0.1-1-0.4-1.4s-0.6-0.5-1.1-0.5c-0.5,0-0.9,0.2-1.2,0.5
					S13,74.2,13,74.7V75.4z"/>
				<path d="M27.4,77.5h-0.9l-0.8-2h-3.1l-0.7,2H21l2.8-7.2h0.8L27.4,77.5z M25.4,74.8l-1.1-3.1c0-0.1-0.1-0.3-0.1-0.5h0
					c0,0.2-0.1,0.4-0.1,0.5l-1.1,3.1H25.4z"/>
				<path d="M29.1,76.8v3.1h-0.8v-7.5h0.8v0.9h0c0.4-0.7,1-1,1.8-1c0.7,0,1.2,0.2,1.5,0.7c0.4,0.5,0.6,1.1,0.6,1.8
					c0,0.9-0.2,1.6-0.6,2.1s-1,0.8-1.7,0.8C30,77.7,29.5,77.4,29.1,76.8L29.1,76.8z M29.1,75.4c0,0.4,0.1,0.8,0.4,1.1
					c0.3,0.3,0.6,0.5,1.1,0.5c0.5,0,0.9-0.2,1.2-0.6s0.4-0.9,0.4-1.6c0-0.6-0.1-1-0.4-1.4c-0.3-0.3-0.6-0.5-1.1-0.5
					c-0.5,0-0.9,0.2-1.2,0.5s-0.5,0.8-0.5,1.3V75.4z"/>
				<path d="M35.1,76.8v3.1h-0.8v-7.5h0.8v0.9h0c0.4-0.7,1-1,1.8-1c0.7,0,1.2,0.2,1.5,0.7c0.4,0.5,0.6,1.1,0.6,1.8
					c0,0.9-0.2,1.6-0.6,2.1s-1,0.8-1.7,0.8C36,77.7,35.5,77.4,35.1,76.8L35.1,76.8z M35.1,75.4c0,0.4,0.1,0.8,0.4,1.1
					c0.3,0.3,0.6,0.5,1.1,0.5c0.5,0,0.9-0.2,1.2-0.6s0.4-0.9,0.4-1.6c0-0.6-0.1-1-0.4-1.4c-0.3-0.3-0.6-0.5-1.1-0.5
					c-0.5,0-0.9,0.2-1.2,0.5s-0.5,0.8-0.5,1.3V75.4z"/>
				<v:paragraph  v:horizAlign="1"></v:paragraph>
				<v:tabList></v:tabList>
			</g>
		</g>
	</g>
	<g id="shape1578-49_2_" transform="translate(214.796,-21.421)">
		<g class="st3">
			<path d="M1.8,77.5H0.9l-0.8-2h-3.1l-0.7,2h-0.9l2.8-7.2H-1L1.8,77.5z M-0.1,74.8l-1.1-3.1c0-0.1-0.1-0.3-0.1-0.5h0
				c0,0.2-0.1,0.4-0.1,0.5l-1.1,3.1H-0.1z"/>
			<path d="M3.7,74.8v2.7H2.9v-7.2h1.9c0.8,0,1.3,0.2,1.8,0.6c0.4,0.4,0.6,0.9,0.6,1.6c0,0.7-0.2,1.3-0.7,1.7s-1.1,0.6-1.8,0.6H3.7z
				 M3.7,71.1v3h0.9c0.6,0,1-0.1,1.3-0.4c0.3-0.3,0.5-0.6,0.5-1.1c0-1-0.6-1.4-1.7-1.4H3.7z"/>
			<path d="M9.4,77.5H8.6v-7.2h0.8V77.5z"/>
			<path d="M16.9,73.7c-0.6,0-1.1-0.2-1.5-0.6c-0.4-0.4-0.6-0.9-0.6-1.6c0-0.7,0.2-1.2,0.6-1.6c0.4-0.4,0.9-0.6,1.5-0.6
				s1.1,0.2,1.5,0.6c0.4,0.4,0.6,0.9,0.6,1.6c0,0.7-0.2,1.2-0.6,1.6C18,73.5,17.5,73.7,16.9,73.7z M16.9,69.9c-0.4,0-0.7,0.1-1,0.4
				c-0.3,0.3-0.4,0.7-0.4,1.2c0,0.5,0.1,0.9,0.4,1.2c0.3,0.3,0.6,0.4,1,0.4s0.7-0.1,1-0.4c0.3-0.3,0.4-0.7,0.4-1.2
				c0-0.5-0.1-0.9-0.4-1.2C17.7,70,17.3,69.9,16.9,69.9z M16.6,78.2v-3.8h0.7v1.4h4.5v-1.4h0.7v3.8H16.6z M21.7,76.4h-4.5v1.1h4.5
				V76.4z M21.7,73.9v-2h-1.1v2h-0.7v-4.7h0.7v2.1h1.1V69h0.7v4.9H21.7z"/>
			<v:paragraph  v:horizAlign="1"></v:paragraph>
			<v:tabList></v:tabList>
		</g>
	</g>
	<g>
		<rect x="137.4" y="1.9" class="st4" width="73.6" height="21.6"/>
		<path class="st5" d="M159.5,5.1c-0.4,0-1.3,0.1-2.6,0.1v2.5h-0.7V5.3c-1.2,0-2.1,0.1-2.7,0.1l-0.1-0.7c1.7,0,3.2,0,4.6-0.1
			c0-0.6,0.1-1.5,0.1-2.5h-3.7V1.4h4.5c0,1.3,0,2.4-0.1,3.1c0.4,0,0.7,0,0.9,0L159.5,5.1z M154.8,10.1V7.3h0.7v2.2h5.7v0.6H154.8z
			 M160.2,8.3V6.7h-2V6.1h2V0.9h0.7v7.3H160.2z"/>
		<path class="st5" d="M163.1,2.9V2.2h2.4V1h0.7v1.2h2.4v0.6H163.1z M165.9,6.9c-0.7,0-1.3-0.2-1.7-0.5c-0.4-0.3-0.6-0.8-0.6-1.3
			c0-0.5,0.2-0.9,0.6-1.3s1-0.5,1.7-0.5c0.7,0,1.3,0.2,1.7,0.5s0.6,0.8,0.6,1.3c0,0.5-0.2,0.9-0.6,1.3
			C167.2,6.7,166.7,6.9,165.9,6.9z M166,4c-0.5,0-0.9,0.1-1.2,0.3s-0.4,0.5-0.4,0.8c0,0.3,0.1,0.6,0.4,0.8s0.7,0.3,1.2,0.3
			s0.9-0.1,1.2-0.3s0.4-0.5,0.4-0.8c0-0.3-0.1-0.6-0.4-0.8S166.4,4,166,4z M164.7,10.2V7.6h0.7v2h5.3v0.6H164.7z M170.4,5.3V8h-0.7
			v-7h0.7v3.6h1.4v0.7H170.4z"/>
		<path class="st5" d="M181.3,7v3.4h-0.7V7h-4V6.3h8.7V7H181.3z M178,5.1V1.2h0.7v1.3h4.5V1.2h0.7v3.9H178z M183.2,3.2h-4.5v1.2h4.5
			V3.2z"/>
		<path class="st5" d="M191.6,6.7c-0.4,0.9-1.1,1.3-2,1.3c-0.7,0-1.3-0.3-1.7-0.9s-0.7-1.4-0.7-2.3c0-1,0.2-1.8,0.6-2.3
			c0.4-0.6,1-0.8,1.7-0.8c0.9,0,1.6,0.4,2,1.3h2V0.9h0.7v9.4h-0.7V6.7H191.6z M189.6,2.2c-0.5,0-0.9,0.2-1.2,0.7s-0.5,1.1-0.5,1.9
			c0,0.8,0.2,1.4,0.5,1.9c0.3,0.5,0.7,0.7,1.2,0.7c0.5,0,0.9-0.2,1.2-0.7s0.5-1.1,0.5-1.9c0-0.8-0.2-1.4-0.5-1.9
			S190.1,2.2,189.6,2.2z M191.8,6h1.8V3.5h-1.8c0.1,0.4,0.2,0.8,0.2,1.3C192,5.3,191.9,5.7,191.8,6z"/>
		<path class="st5" d="M153.1,20.8v-0.7h3.5v-2.3h0.7v2.3h4.5v0.7H153.1z M160.3,19.2l-0.7-0.1c0.1-0.8,0.2-1.6,0.2-2.4l-5.8,0.4
			l-0.2-0.7l5.9-0.3l0-1.6h-5.5v-0.6h6.2V16C160.5,17.2,160.4,18.2,160.3,19.2z"/>
		<path class="st5" d="M163.1,20.7v-0.6h8.7v0.6H163.1z M170.3,14.5h-5v2.9h5.2v0.7h-5.9v-4.2h5.8V14.5z"/>
		<path class="st5" d="M176.6,20.9v-0.6h8.7v0.6H176.6z M177.4,14.8v-0.6h3.2V13h0.7v1.2h3.2v0.6H177.4z M181,19
			c-1,0-1.7-0.2-2.3-0.5c-0.5-0.3-0.8-0.8-0.8-1.3s0.3-0.9,0.8-1.3s1.3-0.5,2.3-0.5c1,0,1.7,0.2,2.3,0.5s0.8,0.8,0.8,1.3
			s-0.3,1-0.8,1.3C182.7,18.8,181.9,19,181,19z M181,16c-0.7,0-1.3,0.1-1.7,0.3s-0.6,0.5-0.6,0.8s0.2,0.6,0.6,0.9
			c0.4,0.2,1,0.3,1.7,0.3s1.3-0.1,1.7-0.3c0.4-0.2,0.6-0.5,0.6-0.9s-0.2-0.6-0.6-0.8S181.7,16,181,16z"/>
		<path class="st5" d="M186.6,18.4v-0.6h8.7v0.6H186.6z M188,22.2v-2.9h5.9v2.9H188z M188.1,16.9v-2.2h5.1v-1h-5.1v-0.6h5.8v2.2
			h-5.1v1h5.3v0.6H188.1z M193.2,20h-4.4v1.7h4.4V20z"/>
	</g>
</g>
<g id="source" xmlns:ev="http://www.w3.org/2001/xml-events" xmlns:v="http://schemas.microsoft.com/visio/2003/SVGExtensions/">
	<g id="group1549-1" transform="translate(43.141,-20.0036)">
		<g id="group1550-2">
			<g id="shape1551-3">
				<path class="st0" d="M22.9,60.1c-2.2,1.7-4.8,2.5-7.3,2.5c-3.6,0-7.2-1.7-9.6-4.8c-4-5.4-3-13.1,2.2-17.3
					c2.2-1.7,4.8-2.5,7.3-2.5c3.6,0,7.2,1.7,9.5,4.8C29.2,48.3,28.2,56,22.9,60.1z M26.5,41.7c-2.7-3.6-6.8-5.5-11-5.5
					c-2.9,0-5.9,1-8.4,2.9C1.1,43.9,0,52.8,4.6,59c2.7,3.6,6.8,5.5,11,5.5c2.9,0,5.9-0.9,8.4-2.9C30,56.8,31.2,48,26.5,41.7z"/>
			</g>
		</g>
		<g id="group1552-5" transform="translate(4.95554,-4.39536)">
			<g id="group1553-6" transform="translate(0.341805,-0.176482)">
				<g id="group1554-7" transform="translate(0.437248,3.2685E-13)">
					<g id="shape1555-8">
						<path class="st0" d="M3.6,57.5c-0.8-0.8-1.4-1.6-2-2.3C0.5,57.6,0.1,60.1,0,62c0.1,0.2,0.1,0.3,0.2,0.4c0.6,0.8,1.3,1.5,2,2
							C2.1,62.9,2.3,60.3,3.6,57.5z"/>
					</g>
				</g>
				<g id="shape1556-10" transform="translate(3.29213,-8.97695)">
					<path class="st0" d="M4.9,57c-1.1,0.8-2.2,1.8-3.3,3C1,60.7,0.5,61.4,0,62.1c0.5,0.8,1.1,1.6,1.9,2.5c0.6-0.9,1.3-1.7,2.2-2.6
						c1.1-1.1,2.2-1.9,3.1-2.6C6.4,58.6,5.7,57.8,4.9,57z"/>
				</g>
				<g id="group1557-12" transform="translate(9.93516,-15.1958)">
					<g id="shape1558-13">
						<path class="st0" d="M9.8,62.5c-0.5-0.7-1.1-1.3-1.7-1.8c-1.9-0.3-4.7-0.3-8,1.5c0.8,0.8,1.5,1.6,2.2,2.4
							C6.6,62.1,9.8,62.5,9.8,62.5z"/>
					</g>
				</g>
				<g id="group1559-15" transform="translate(1.10162E-13,-9.38012)">
					<g id="shape1560-16">
						<path class="st0" d="M2.1,64.5c0.3-0.7,0.7-1.4,1.2-2.1c-1.9-3.1-1.8-5.6-1.6-6.8c-0.5,0.5-0.9,1-1.3,1.6
							C0,58.9,0,61.4,2.1,64.5z"/>
					</g>
				</g>
				<g id="group1561-18" transform="translate(4.05148,-0.740211)">
					<g id="shape1562-19">
						<path class="st0" d="M3.4,58.4c-0.9-0.7-1.6-1.4-2.3-2.1c-0.5,0.7-0.8,1.3-1.1,2c0.6,0.6,1.3,1.3,2.1,1.9
							c4.9,4,9.8,4.4,12.6,4.4c0.2,0,1-1.2,1.5-1.9C15,62.8,9.7,63.5,3.4,58.4z"/>
					</g>
				</g>
				<g id="group1563-21" transform="translate(2.10339,-7.03041)">
					<g id="shape1564-22">
						<path class="st0" d="M0,62.2c0.5,0.8,1.1,1.5,2,2.4c0.3-0.6,0.7-1.3,1.1-2c-0.8-0.8-1.4-1.7-1.9-2.5C0.7,60.8,0.3,61.5,0,62.2
							z"/>
					</g>
				</g>
				<g id="group1565-24" transform="translate(10.5195,-5.3233)">
					<g id="shape1566-25">
						<path class="st0" d="M0,55.7c4.5,4.3,9.8,7.9,11.1,8.8c0.1-0.3,0.2-0.7,0.3-1c-1.4-1.1-5.3-4.2-9.8-8.8
							C1.1,55,0.6,55.3,0,55.7z"/>
					</g>
				</g>
				<g id="group1567-27" transform="translate(4.98729,-16.4714)">
					<g id="shape1568-28">
						<path class="st0" d="M4.9,63.4c-1.1-1.2-2.2-2.4-3.4-3.8C1,59.8,0.5,60,0,60.3c0.8,1.4,2,2.8,3.2,4.2
							C3.8,64.1,4.4,63.7,4.9,63.4z"/>
					</g>
				</g>
				<g id="shape1569-30" transform="translate(8.13763,-14.0503)">
					<path class="st0" d="M1.9,61c-0.6,0.3-1.3,0.8-1.9,1.2c0.7,0.8,1.5,1.6,2.3,2.4c0.6-0.4,1.3-0.9,1.9-1.2
						C3.4,62.6,2.6,61.8,1.9,61z"/>
				</g>
				<g id="shape1570-32" transform="translate(8.1369,-14.0039)">
					<path class="st0" d="M1.7,60.8C1.1,61.1,0.6,61.5,0,62c0.7,0.8,1.7,1.8,2.5,2.6c0.6-0.4,1-0.8,1.6-1.1
						C3.4,62.7,2.4,61.7,1.7,60.8z"/>
				</g>
			</g>
			<g id="group1571-34" transform="translate(14.8617,-6.23662)">
				<g id="shape1572-35">
					<path class="st0" d="M1.3,59.4C0.2,60.3,0,62,0.9,63.1c0.9,1.2,2.5,1.4,3.6,0.5c1.1-0.9,1.3-2.5,0.5-3.7
						C4.1,58.8,2.5,58.5,1.3,59.4z"/>
				</g>
			</g>
			<g id="group1573-37" transform="translate(9.65099,-2.13163E-13)">
				<g id="shape1574-38">
					<path class="st0" d="M1.2,59.8c-1,0.8-1.2,2.4-0.4,3.4c0.8,1.1,2.3,1.3,3.4,0.5c1-0.8,1.2-2.4,0.4-3.4
						C3.8,59.2,2.3,59,1.2,59.8z"/>
				</g>
			</g>
			<g id="group1575-40" transform="translate(0,-5.36433)">
				<g id="shape1576-41">
					<path class="st0" d="M1.9,57.4c-1.6,1.3-1.9,3.6-0.7,5.2c1.2,1.6,3.5,2,5.1,0.7S8.2,59.7,7,58C5.8,56.4,3.5,56.1,1.9,57.4z"/>
				</g>
			</g>
		</g>
	</g>
	<g id="shape1578-49" transform="translate(214.796,-21.421)">
		<path class="st0" d="M21.6,39H1.1C0.5,39,0,39.5,0,40.1v16.7C0,57.5,0.5,58,1.1,58h5.3c0.4,1.4,1.7,2.3,3.2,2.3
			c1.8,0,3.3-1.5,3.3-3.4s-1.5-3.4-3.3-3.4c-1.5,0-2.8,0.9-3.2,2.3H2.2v-12h18.3v12H17c-0.5-3.7-3.7-6.6-7.5-6.6
			c-1.3,0-2.5,0.4-3.6,0.9l1,2c0.7-0.4,1.7-0.7,2.6-0.7c2.9,0,5.4,2.4,5.4,5.5c0,3-2.4,5.5-5.4,5.5c-0.9,0-1.8-0.3-2.6-0.7l-1,2
			c1.1,0.6,2.4,0.9,3.6,0.9c3.8,0,7-2.9,7.5-6.6h4.5c0.6,0,1.1-0.5,1.1-1.1V40.1C22.7,39.6,22.2,39,21.6,39z"/>
	</g>
	<g id="group1580-58" transform="translate(0.375,-25.6729)">
		<g id="group1581-59">
			<g id="group1582-60">
				<g id="group1583-61" transform="translate(3.8518,-6.4617)">
					<g id="shape1584-62">
						<path class="st0" d="M3.6,54.6c-2.3,0.6-3.6,3.1-3,5.7c0.7,2.6,3,4.2,5.3,3.7c2.3-0.6,3.6-3.1,3-5.7C8.3,55.6,5.9,54,3.6,54.6
							z"/>
					</g>
				</g>
				<g id="group1585-64">
					<g id="shape1586-65">
						<path class="st0" d="M12.4,58.2c-0.4,0-0.9,0.8-1.5,1.1c-0.7,0.3-1.3,0.9-3.2,0c-1.9-0.9-2.1-1.7-3.6-1.7
							c-1.5,0-4.1,2.8-4.1,6.9h15.6c0,0-0.2-2.8-1.1-4.2C13.4,58.2,12.9,58.2,12.4,58.2z"/>
					</g>
				</g>
			</g>
		</g>
		<g id="group1587-67" transform="translate(9.0485,-0.85947)">
			<g id="shape1588-68">
				<path class="st1" d="M4.8,54.1H0.7c-0.3,0-0.6,0.3-0.6,0.7v2.8c0,0.3,0.3,0.7,0.8,0.7h0.8v5.2c0,0.6,0.4,1.1,1,1.1s1-0.4,1-1
					c0.1,0,0.2,0,0.2,0s0-0.5,0-0.7c0-0.2,0.3-0.3,0.3-0.3v-0.3c-0.3-0.1-0.5-0.3-0.5-0.4v-0.3c0.1-0.1,0.2-0.2,0.2-0.2
					C3.8,61.1,4,60.7,4,60.7s-0.3-0.4-0.3-0.5c-0.1-0.1-0.1-0.3-0.2-0.4v-0.2c0.1-0.5,0.8-1.1,0.8-1.1h0.5c0.3,0,0.7-0.3,0.7-0.7v-3
					C5.4,54.4,5.2,54.1,4.8,54.1z M2.4,63.7c0,0.2,0,0.3-0.2,0.3C2,64,2,63.8,2,63.7v-4.8c0-0.2,0.1-0.3,0.2-0.3
					c0.2,0,0.2,0.2,0.2,0.3V63.7z M2.7,55.9c-0.3,0-0.7-0.3-0.7-0.7c0-0.3,0.3-0.7,0.7-0.7c0.3,0,0.6,0.3,0.6,0.7
					C3.4,55.5,3.1,55.9,2.7,55.9z"/>
			</g>
			<g id="shape1589-70" transform="translate(1.92482,-0.570755)">
				<path class="st2" d="M0.2,64.5c-0.1,0-0.2-0.1-0.2-0.2v-5c0-0.1,0.1-0.2,0.2-0.2s0.2,0.1,0.2,0.2v5.1
					C0.4,64.5,0.3,64.5,0.2,64.5z"/>
			</g>
			<g id="shape1590-72" transform="translate(2.05993,-8.66317)">
				<ellipse class="st2" cx="0.7" cy="63.9" rx="0.7" ry="0.7"/>
			</g>
		</g>
	</g>
	<g id="Arrow">
		<g id="shape1579-52_2_" transform="translate(73.5133,-41.2635)">
			<g transform="scale(-2.68,-2.68) ">
				<g id="lend5_2_">
					<path class="st6" d="M132.8,67.6l8,4l-8,4C134.1,73.1,134.1,70.1,132.8,67.6"/>
				</g>
			</g>
		</g>
		<path class="st7" d="M207.6,31.1c-6.8,0-12.9,0-19.3,0c-6.5,0-13.4,0-19.9,0c-6.4,0-11.3,0-19.1,0c-6.5,0-13.1,0-19.6,0
			c-6.4,0-12.5,0-18.9,0c-6.5,0-13.4,0-19.9,0c-6.2,0-8.8,0-15.6,0c-0.2,0-1.5-0.2-1.5-0.8c0-0.6,1.4-0.8,1.7-0.8
			c3,0,86.7,0,132.2,0"/>
	</g>
	<g>
		<path class="st7" d="M207.4,30.4c0-2-0.8-3.1-1.4-4.3c2.8,1.5,5.5,2.9,8.2,4.3c-2.7,1.4-5.4,2.8-8.2,4.3
			C206.6,33.2,207.4,32.1,207.4,30.4z"/>
	</g>
</g>
</svg>
