<svg xmlns="http://www.w3.org/2000/svg" width="204.71" height="64.78" viewBox="0 0 204.71 64.78"><title>OJ104440671</title><path d="M191.76,17.85h-20.5A1.1,1.1,0,0,0,170.17,19V35.7a1.09,1.09,0,0,0,1.09,1.1h5.28a3.29,3.29,0,0,0,3.21,2.27,3.37,3.37,0,0,0,0-6.74,3.29,3.29,0,0,0-3.21,2.26h-4.19v-12h18.31v12h-3.45A7.61,7.61,0,0,0,179.75,28a8.25,8.25,0,0,0-3.64.92l1,2a5.39,5.39,0,0,1,2.55-.67,5.46,5.46,0,0,1,0,10.92,5.28,5.28,0,0,1-2.55-.68l-1,2a7.4,7.4,0,0,0,3.64.92,7.61,7.61,0,0,0,7.46-6.56h4.55a1.09,1.09,0,0,0,1.09-1.1V19A1.14,1.14,0,0,0,191.76,17.85Z" fill="#008bfd" fill-rule="evenodd"/><path d="M161.7,26.59l8,4-8,4a9,9,0,0,0,0-8" fill="#505050" fill-rule="evenodd"/><path d="M7.85,22.77a4.5,4.5,0,0,0-3,5.67c.66,2.55,3,4.21,5.27,3.66a4.49,4.49,0,0,0,3-5.66C12.57,23.77,10.16,22.11,7.85,22.77Z" fill="#008bfd" fill-rule="evenodd"/><path d="M12.79,32.79c-.44,0-.88.77-1.54,1.11s-1.32.88-3.18,0S6,32.23,4.44,32.23.38,35,.38,39.11H16a12.05,12.05,0,0,0-1.1-4.21C13.77,32.79,13.23,32.79,12.79,32.79Z" fill="#008bfd" fill-rule="evenodd"/><path d="M14.19,27.84H10.07a.71.71,0,0,0-.65.66v2.85a.73.73,0,0,0,.76.66h.76v5.15a1,1,0,0,0,1,1.09,1,1,0,0,0,1-1h.21v-.66c0-.22.33-.33.33-.33V36c-.33-.11-.54-.33-.54-.44v-.32L13.1,35a3.53,3.53,0,0,0,.33-.55,2.4,2.4,0,0,1-.33-.55c-.1-.11-.1-.33-.21-.44v-.22a2.52,2.52,0,0,1,.76-1.09h.54a.71.71,0,0,0,.65-.66v-3A.63.63,0,0,0,14.19,27.84ZM11.8,37.38c0,.22,0,.33-.21.33s-.22-.22-.22-.33V32.56c0-.22.11-.33.22-.33s.21.22.21.33Zm.33-7.78a.66.66,0,0,1,0-1.32.71.71,0,0,1,.65.66A.63.63,0,0,1,12.13,29.6Z" fill="#008bfd" stroke="gray" stroke-linecap="round" stroke-linejoin="round" stroke-width="0.75" fill-rule="evenodd"/><path d="M11.57,37.68a.24.24,0,0,1-.22-.22v-5a.22.22,0,1,1,.44,0v5.1C11.79,37.68,11.68,37.68,11.57,37.68Z" fill="#fff" fill-rule="evenodd"/><ellipse cx="12.14" cy="28.92" rx="0.66" ry="0.67" fill="#fff"/><rect x="72.98" y="29.74" width="91.04" height="1.75" rx="0.76" ry="0.76" fill="#505050"/><path d="M66,40.4a11.81,11.81,0,0,1-16.84-2.29,12.56,12.56,0,0,1,2.24-17.29,11.82,11.82,0,0,1,16.84,2.3A12.54,12.54,0,0,1,66,40.4ZM69.69,22a13.57,13.57,0,0,0-19.36-2.63,14.43,14.43,0,0,0-2.55,19.87,13.62,13.62,0,0,0,11,5.55,13.45,13.45,0,0,0,8.39-2.92A14.44,14.44,0,0,0,69.69,22Z" fill="#008bfd" fill-rule="evenodd"/><path d="M52.06,33.18a17,17,0,0,1-2-2.35,18.28,18.28,0,0,0-1.66,6.88c.11.16.11.29.23.44a12.55,12.55,0,0,0,2,2.05A14.13,14.13,0,0,1,52.06,33.18Z" fill="#008bfd" fill-rule="evenodd"/><path d="M56.67,23.74a21,21,0,0,0-3.33,3,15.71,15.71,0,0,0-1.61,2.05,15.42,15.42,0,0,0,1.9,2.46,16.32,16.32,0,0,1,2.2-2.56A26.47,26.47,0,0,1,59,26.06C58.16,25.3,57.38,24.53,56.67,23.74Z" fill="#008bfd" fill-rule="evenodd"/><path d="M68.14,22.94a12,12,0,0,0-1.73-1.82,12.53,12.53,0,0,0-8,1.53c.76.84,1.51,1.63,2.24,2.36C65,22.58,68.14,22.94,68.14,22.94Z" fill="#008bfd" fill-rule="evenodd"/><path d="M50.54,30.58a19.82,19.82,0,0,1,1.19-2.06,9.84,9.84,0,0,1-1.6-6.79,13.09,13.09,0,0,0-1.29,1.6C48.46,24.94,48.44,27.5,50.54,30.58Z" fill="#008bfd" fill-rule="evenodd"/><path d="M55.9,33.36a21.6,21.6,0,0,1-2.27-2.14,14.25,14.25,0,0,0-1.14,2,23.54,23.54,0,0,0,2.09,1.91,19.12,19.12,0,0,0,12.56,4.38,9,9,0,0,0,1.54-1.94C67.45,37.78,62.19,38.47,55.9,33.36Z" fill="#008bfd" fill-rule="evenodd"/><path d="M50.54,30.82a15.72,15.72,0,0,0,2,2.35,15.36,15.36,0,0,1,1.14-2,15.42,15.42,0,0,1-1.9-2.46A15.58,15.58,0,0,0,50.54,30.82Z" fill="#008bfd" fill-rule="evenodd"/><path d="M59,26.06a97,97,0,0,0,11.15,8.82,9.82,9.82,0,0,0,.33-1.05A95.51,95.51,0,0,1,60.61,25Q59.82,25.46,59,26.06Z" fill="#008bfd" fill-rule="evenodd"/><path d="M58.38,22.65q-1.65-1.77-3.36-3.8a10.05,10.05,0,0,0-1.59.66,26.3,26.3,0,0,0,3.24,4.22A17.22,17.22,0,0,1,58.38,22.65Z" fill="#008bfd" fill-rule="evenodd"/><path d="M58.45,22.61a18.74,18.74,0,0,0-1.87,1.19c.72.78,1.45,1.59,2.25,2.35.57-.4,1.34-.88,1.87-1.18C60,24.24,59.21,23.45,58.45,22.61Z" fill="#008bfd" fill-rule="evenodd"/><path d="M58.25,22.51a16.24,16.24,0,0,0-1.67,1.12c.72.79,1.74,1.81,2.54,2.57.57-.4,1.05-.8,1.58-1.11C60,24.37,59,23.34,58.25,22.51Z" fill="#008bfd" fill-rule="evenodd"/><path d="M64.3,29.06a2.7,2.7,0,0,0-.48,3.7,2.56,2.56,0,0,0,3.63.51,2.72,2.72,0,0,0,.48-3.72A2.55,2.55,0,0,0,64.3,29.06Z" fill="#008bfd" fill-rule="evenodd"/><path d="M49.34,35.67a2.52,2.52,0,0,0-.45,3.44,2.37,2.37,0,0,0,3.36.45,2.49,2.49,0,0,0,.44-3.43A2.36,2.36,0,0,0,49.34,35.67Z" fill="#008bfd" fill-rule="evenodd"/><path d="M50,27.86a3.79,3.79,0,0,0-.68,5.21,3.58,3.58,0,0,0,5.1.7,3.8,3.8,0,0,0,.67-5.23A3.59,3.59,0,0,0,50,27.86Z" fill="#008bfd" fill-rule="evenodd"/><rect x="65.1" y="0.38" width="114.21" height="20" fill="none"/><path d="M51.42,54.92V53.48c-.5,0-1.27.05-2.34.07L49,52.92c2,0,3.66-.05,5.08-.15l.06.6-2,.09v1.46Zm.22-2.55a2.53,2.53,0,0,1-1.53-.4,1.3,1.3,0,0,1,0-2.12,3.14,3.14,0,0,1,3,0,1.29,1.29,0,0,1,0,2.12A2.59,2.59,0,0,1,51.64,52.37Zm0-2.31a1.88,1.88,0,0,0-1,.23.73.73,0,0,0-.38.63.7.7,0,0,0,.38.61,1.87,1.87,0,0,0,1,.24,1.75,1.75,0,0,0,1-.24.7.7,0,0,0,.37-.61.72.72,0,0,0-.37-.63A1.84,1.84,0,0,0,51.64,50.06Zm-1.1,8.41V55.28h.72v1h4.91v-1h.72v3.19Zm5.63-1.55H51.26v.91h4.91Zm-1.59-2.08v-.43H53v-.58h1.56V49.44h.71v5.4Zm1.58,0V49.25h.73v5.59Z"/><path d="M61.46,53.94a2.12,2.12,0,0,1-2.14-2.21,2.14,2.14,0,1,1,4.27,0,2.12,2.12,0,0,1-2.13,2.21Zm0-3.81a1.4,1.4,0,0,0-1,.43,1.79,1.79,0,0,0,0,2.33,1.49,1.49,0,0,0,2,0,1.79,1.79,0,0,0,0-2.33A1.4,1.4,0,0,0,61.46,50.13Zm-.36,8.28V54.65h.73V56h4.45V54.65H67v3.76Zm5.18-1.75H61.83v1.11h4.45Zm0-2.54V52.17H65.18v1.95h-.73V49.44h.73v2.08h1.09V49.25H67v4.87Z"/><path d="M173.72,56.37h-.88l-.78-2H169l-.73,2h-.88l2.77-7.19h.8Zm-1.93-2.76-1.14-3.11a1.92,1.92,0,0,1-.11-.47h0a1.91,1.91,0,0,1-.11.47l-1.14,3.11Z"/><path d="M175.58,53.64v2.73h-.79V49.18h1.94a2.63,2.63,0,0,1,1.77.56,2,2,0,0,1,.63,1.58,2.14,2.14,0,0,1-.75,1.7,2.5,2.5,0,0,1-1.84.62Zm0-3.73v3h.9a2,2,0,0,0,1.35-.4,1.42,1.42,0,0,0,.47-1.14c0-1-.57-1.45-1.71-1.45Z"/><path d="M181.29,56.37h-.79V49.18h.79Z"/><path d="M188.84,52.52a2.1,2.1,0,1,1,1.51-.6A2.13,2.13,0,0,1,188.84,52.52Zm0-3.8a1.39,1.39,0,0,0-1,.42,1.79,1.79,0,0,0,0,2.33,1.46,1.46,0,0,0,2.05,0,1.83,1.83,0,0,0,0-2.33A1.41,1.41,0,0,0,188.84,48.72ZM188.49,57V53.23h.72V54.6h4.46V53.23h.72V57Zm5.18-1.75h-4.46v1.11h4.46Zm0-2.53v-2h-1.1v2h-.72V48h.72V50.1h1.1V47.83h.73v4.88Z"/><path d="M92.5,10a2.51,2.51,0,0,1-1.77-.66A2.28,2.28,0,0,1,90,7.58a2.26,2.26,0,0,1,.7-1.73,2.69,2.69,0,0,1,3.53,0A2.3,2.3,0,0,1,95,7.58a2.28,2.28,0,0,1-.71,1.73A2.44,2.44,0,0,1,92.5,10Zm0-4.13a1.7,1.7,0,0,0-1.26.48,1.67,1.67,0,0,0-.48,1.26,1.71,1.71,0,0,0,.48,1.27,1.74,1.74,0,0,0,1.26.47,1.77,1.77,0,0,0,1.26-.47,1.71,1.71,0,0,0,.48-1.27,1.67,1.67,0,0,0-.48-1.26A1.74,1.74,0,0,0,92.5,5.84Zm-1.29,8.05V10.83h.73v2.4H97.4v.66Zm5.21-2.18V4.83h.73v6.88Z" fill="#00b0f0"/><path d="M99.32,9.73V9.08h8.74v.65Zm7.9-1.47a6.43,6.43,0,0,1-2.13-.7,3.67,3.67,0,0,1-1.39-1.09,4,4,0,0,1-1.43,1.09,6.42,6.42,0,0,1-2.06.69l-.43-.59A5.45,5.45,0,0,0,102,7a2.5,2.5,0,0,0,1.26-1.24h-3V5.09h6.8v.66h-3A2.53,2.53,0,0,0,105.36,7a5.35,5.35,0,0,0,2.24.67Zm-3.53,5.89a4.27,4.27,0,0,1-2.24-.47,1.44,1.44,0,0,1-.78-1.29,1.42,1.42,0,0,1,.78-1.27,5.57,5.57,0,0,1,4.48,0,1.42,1.42,0,0,1,.78,1.27,1.44,1.44,0,0,1-.78,1.29A4.32,4.32,0,0,1,103.69,14.15Zm0-2.88a3.73,3.73,0,0,0-1.69.3.9.9,0,0,0-.57.82.92.92,0,0,0,.58.84,3.71,3.71,0,0,0,1.68.3,3.77,3.77,0,0,0,1.68-.3.93.93,0,0,0,.58-.84.9.9,0,0,0-.57-.82A3.76,3.76,0,0,0,103.69,11.27Z" fill="#00b0f0"/><path d="M112.83,12.72v-.66h3.52V9.76h.73v2.3h4.49v.66Zm7.2-1.66-.7-.08a23,23,0,0,0,.16-2.37L113.7,9l-.15-.7,5.94-.3V6.37H114V5.73h6.24v2.2A21.22,21.22,0,0,1,120,11.06Z" fill="#00b0f0"/><path d="M122.83,12.62V12h8.74v.65Zm7.26-6.26h-5V9.29h5.21v.65h-5.94V5.71h5.78Z" fill="#00b0f0"/><path d="M136.35,12.81v-.64h8.74v.64Zm.77-6.09V6.08h3.24V4.93h.72V6.08h3.24v.64Zm3.6,4.13a4.32,4.32,0,0,1-2.27-.5,1.49,1.49,0,0,1-.79-1.29,1.46,1.46,0,0,1,.8-1.28,5.34,5.34,0,0,1,4.51,0,1.46,1.46,0,0,1,.8,1.28,1.47,1.47,0,0,1-.79,1.29A4.28,4.28,0,0,1,140.72,10.85Zm0-2.95a3.82,3.82,0,0,0-1.7.31,1,1,0,0,0-.59.85,1,1,0,0,0,.58.85,3.59,3.59,0,0,0,1.71.32,3.54,3.54,0,0,0,1.7-.32,1,1,0,0,0,.58-.85,1,1,0,0,0-.59-.85A3.77,3.77,0,0,0,140.72,7.9Z" fill="#00b0f0"/><path d="M146.35,10.33V9.71h8.74v.62Zm1.44,3.79V11.23h5.86v2.89Zm0-5.3V6.61h5.08v-1h-5.08V5h5.8V7.2h-5.08v1h5.3v.62Zm5.11,3h-4.42V13.5h4.42Z" fill="#00b0f0"/></svg>