<svg id="svg198" xmlns="http://www.w3.org/2000/svg" viewBox="0 0 204.71 64.78">
  <defs>
    <style>
      .cls-1, .cls-6 {
        fill: #008bfd;
      }

      .cls-2 {
        isolation: isolate;
      }

      .cls-3, .cls-8 {
        fill: none;
      }

      .cls-4 {
        fill: #00b0f0;
      }

      .cls-5 {
        fill: #505050;
      }

      .cls-6 {
        stroke: gray;
        stroke-linecap: round;
        stroke-linejoin: round;
        stroke-width: 0.75px;
      }

      .cls-7 {
        fill: #fff;
      }

      .cls-8 {
        stroke: #505050;
        stroke-miterlimit: 10;
      }
    </style>
  </defs>
  <title>OJ104440671</title>
  <g id="group1113-2">
    <g id="shape1114-3">
      <path id="path21" class="cls-1" d="M66,40.4a11.81,11.81,0,0,1-16.84-2.29,12.56,12.56,0,0,1,2.24-17.29,11.82,11.82,0,0,1,16.84,2.3A12.54,12.54,0,0,1,66,40.4ZM69.69,22a13.57,13.57,0,0,0-19.36-2.63,14.43,14.43,0,0,0-2.55,19.87,13.62,13.62,0,0,0,11,5.55,13.45,13.45,0,0,0,8.39-2.92A14.44,14.44,0,0,0,69.69,22Z"/>
    </g>
  </g>
  <g id="group1115-5">
    <g id="group1116-6">
      <g id="group1117-7">
        <g id="shape1118-8">
          <path id="path33" class="cls-1" d="M52.06,33.18a17,17,0,0,1-2-2.35,18.28,18.28,0,0,0-1.66,6.88c.11.16.11.29.23.44a12.55,12.55,0,0,0,2,2.05A14.13,14.13,0,0,1,52.06,33.18Z"/>
        </g>
      </g>
      <g id="shape1119-10">
        <path id="path39" class="cls-1" d="M56.67,23.74a21,21,0,0,0-3.33,3,15.71,15.71,0,0,0-1.61,2.05,15.42,15.42,0,0,0,1.9,2.46,16.32,16.32,0,0,1,2.2-2.56A26.47,26.47,0,0,1,59,26.06C58.16,25.3,57.38,24.53,56.67,23.74Z"/>
      </g>
      <g id="group1120-12">
        <g id="shape1121-13">
          <path id="path46" class="cls-1" d="M68.14,22.94a12,12,0,0,0-1.73-1.82,12.53,12.53,0,0,0-8,1.53c.76.84,1.51,1.63,2.24,2.36C65,22.58,68.14,22.94,68.14,22.94Z"/>
        </g>
      </g>
      <g id="group1122-15">
        <g id="shape1123-16">
          <path id="path54" class="cls-1" d="M50.34,31a19.82,19.82,0,0,1,1.19-2.06,9.84,9.84,0,0,1-1.6-6.79,13.09,13.09,0,0,0-1.29,1.6C48.26,25.33,48.24,27.89,50.34,31Z"/>
        </g>
      </g>
      <g id="group1124-18">
        <g id="shape1125-19">
          <path id="path62" class="cls-1" d="M55.9,33.36a21.6,21.6,0,0,1-2.27-2.14,14.25,14.25,0,0,0-1.14,2,23.54,23.54,0,0,0,2.09,1.91,19.12,19.12,0,0,0,12.56,4.38,9,9,0,0,0,1.54-1.94C67.45,37.78,62.19,38.47,55.9,33.36Z"/>
        </g>
      </g>
      <g id="group1126-21">
        <g id="shape1127-22">
          <path id="path70" class="cls-1" d="M50.54,30.82a15.72,15.72,0,0,0,2,2.35,15.36,15.36,0,0,1,1.14-2,15.42,15.42,0,0,1-1.9-2.46A15.58,15.58,0,0,0,50.54,30.82Z"/>
        </g>
      </g>
      <g id="group1128-24">
        <g id="shape1129-25">
          <path id="path78" class="cls-1" d="M59,26.06a97,97,0,0,0,11.15,8.82,9.82,9.82,0,0,0,.33-1.05A95.51,95.51,0,0,1,60.61,25Q59.82,25.46,59,26.06Z"/>
        </g>
      </g>
      <g id="group1130-27">
        <g id="shape1131-28">
          <path id="path86" class="cls-1" d="M58.38,22.65q-1.65-1.77-3.36-3.8a10.05,10.05,0,0,0-1.59.66,26.3,26.3,0,0,0,3.24,4.22A17.22,17.22,0,0,1,58.38,22.65Z"/>
        </g>
      </g>
      <g id="shape1132-30">
        <path id="path92" class="cls-1" d="M58.45,22.61a18.74,18.74,0,0,0-1.87,1.19c.72.78,1.45,1.59,2.25,2.35.57-.4,1.34-.88,1.87-1.18C60,24.24,59.21,23.45,58.45,22.61Z"/>
      </g>
      <g id="shape1133-32">
        <path id="path97" class="cls-1" d="M58.25,22.51a16.24,16.24,0,0,0-1.67,1.12c.72.79,1.74,1.81,2.54,2.57.57-.4,1.05-.8,1.58-1.11C60,24.37,59,23.34,58.25,22.51Z"/>
      </g>
    </g>
    <g id="group1134-34">
      <g id="shape1135-35">
        <path id="path105" class="cls-1" d="M64.3,29.06a2.7,2.7,0,0,0-.48,3.7,2.56,2.56,0,0,0,3.63.51,2.72,2.72,0,0,0,.48-3.72A2.55,2.55,0,0,0,64.3,29.06Z"/>
      </g>
    </g>
    <g id="group1136-37">
      <g id="shape1137-38">
        <path id="path113" class="cls-1" d="M59.13,35.19a2.52,2.52,0,0,0-.45,3.44,2.37,2.37,0,0,0,3.36.45,2.49,2.49,0,0,0,.44-3.43A2.36,2.36,0,0,0,59.13,35.19Z"/>
      </g>
    </g>
    <g id="group1138-40">
      <g id="shape1139-41">
        <path id="path121" class="cls-1" d="M50,27.86a3.79,3.79,0,0,0-.68,5.21,3.58,3.58,0,0,0,5.1.7,3.8,3.8,0,0,0,.67-5.23A3.59,3.59,0,0,0,50,27.86Z"/>
      </g>
    </g>
  </g>
  <g id="shape1112-43">
    <g id="text126" class="cls-2">
      <path class="cls-1" d="M51.68,54.93V53.48c-.49,0-1.27.05-2.34.07l-.07-.63c1.95,0,3.65-.05,5.07-.15l.06.6-2,.1v1.46Zm.22-2.56a2.55,2.55,0,0,1-1.53-.4,1.3,1.3,0,0,1,0-2.12,2.61,2.61,0,0,1,1.52-.39,2.58,2.58,0,0,1,1.51.39A1.25,1.25,0,0,1,54,50.92a1.22,1.22,0,0,1-.55,1A2.57,2.57,0,0,1,51.9,52.37Zm0-2.31a1.91,1.91,0,0,0-1,.23.72.72,0,0,0-.39.63.69.69,0,0,0,.39.61,1.81,1.81,0,0,0,1,.24,1.75,1.75,0,0,0,1-.24.7.7,0,0,0,.37-.61.72.72,0,0,0-.37-.63A1.84,1.84,0,0,0,51.9,50.06Zm-1.1,8.42v-3.2h.73v1h4.9v-1h.73v3.2Zm5.63-1.56h-4.9v.92h4.9Zm-1.59-2.08v-.43H53.28v-.58h1.56V49.44h.71v5.4Zm1.58,0V49.25h.74v5.59Z"/>
      <path class="cls-1" d="M61.72,53.94a2.1,2.1,0,1,1,1.5-.6A2.14,2.14,0,0,1,61.72,53.94Zm0-3.8a1.41,1.41,0,0,0-1,.42,1.83,1.83,0,0,0,0,2.33,1.49,1.49,0,0,0,2.05,0,1.79,1.79,0,0,0,0-2.33A1.39,1.39,0,0,0,61.72,50.14Zm-.36,8.27V54.65h.73V56h4.46V54.65h.71v3.76Zm5.19-1.75H62.09v1.11h4.46Zm0-2.54V52.17h-1.1v1.95h-.73V49.44h.73v2.08h1.1V49.25h.72v4.87Z"/>
    </g>
  </g>
  <rect id="rect134" class="cls-3" x="65.1" y="0.37" width="114.21" height="20"/>
  <g id="text136" class="cls-2">
    <path class="cls-4" d="M89.21,10a2.48,2.48,0,0,1-1.76-.66,2.28,2.28,0,0,1-.71-1.73,2.27,2.27,0,0,1,.71-1.73,2.48,2.48,0,0,1,1.76-.66A2.45,2.45,0,0,1,91,5.85a2.26,2.26,0,0,1,.7,1.73A2.28,2.28,0,0,1,91,9.31,2.46,2.46,0,0,1,89.21,10Zm0-4.13A1.7,1.7,0,0,0,88,6.32a1.68,1.68,0,0,0-.49,1.26A1.68,1.68,0,0,0,88,8.85a1.71,1.71,0,0,0,1.25.47,1.74,1.74,0,0,0,1.26-.47A1.72,1.72,0,0,0,91,7.58a1.68,1.68,0,0,0-.49-1.26A1.7,1.7,0,0,0,89.21,5.84Zm-1.29,8.05V10.83h.74v2.4h5.45v.66Zm5.21-2.18V4.83h.74v6.88Z"/>
    <path class="cls-4" d="M96,9.73V9.08h8.74v.65Zm7.9-1.47a6.43,6.43,0,0,1-2.13-.7,3.75,3.75,0,0,1-1.39-1.09A4,4,0,0,1,99,7.56a6.48,6.48,0,0,1-2.07.69l-.43-.59A5.5,5.5,0,0,0,98.76,7,2.47,2.47,0,0,0,100,5.75H97V5.09h6.79v.66h-3A2.55,2.55,0,0,0,102.08,7a5.31,5.31,0,0,0,2.24.67Zm-3.53,5.89a4.32,4.32,0,0,1-2.24-.47,1.45,1.45,0,0,1-.77-1.29,1.42,1.42,0,0,1,.78-1.27,5.55,5.55,0,0,1,4.47,0,1.42,1.42,0,0,1,.78,1.27,1.45,1.45,0,0,1-.77,1.29A4.33,4.33,0,0,1,100.4,14.15Zm0-2.88a3.76,3.76,0,0,0-1.69.3.9.9,0,0,0-.57.82.93.93,0,0,0,.58.84,3.77,3.77,0,0,0,1.68.3,3.71,3.71,0,0,0,1.68-.3.92.92,0,0,0,.58-.84.9.9,0,0,0-.57-.82A3.73,3.73,0,0,0,100.4,11.27Z"/>
    <path class="cls-4" d="M109.55,12.72v-.66h3.52V9.76h.73v2.3h4.49v.66Zm7.19-1.66-.69-.08a23,23,0,0,0,.16-2.37L110.42,9l-.15-.7,5.94-.3V6.37h-5.51V5.73H117v2.2A21.22,21.22,0,0,1,116.74,11.06Z"/>
    <path class="cls-4" d="M119.55,12.62V12h8.74v.65Zm7.26-6.26h-5V9.29H127v.65H121V5.71h5.78Z"/>
    <path class="cls-4" d="M133.07,12.81v-.64h8.74v.64Zm.77-6.09V6.08h3.23V4.93h.73V6.08H141v.64Zm3.6,4.13a4.29,4.29,0,0,1-2.27-.5,1.51,1.51,0,0,1-.8-1.29,1.48,1.48,0,0,1,.8-1.28,4.32,4.32,0,0,1,2.27-.5,4.37,4.37,0,0,1,2.25.49,1.44,1.44,0,0,1,0,2.58A4.24,4.24,0,0,1,137.44,10.85Zm0-2.95a3.82,3.82,0,0,0-1.7.31.94.94,0,0,0-.59.85,1,1,0,0,0,.58.85,3.68,3.68,0,0,0,1.71.32,3.59,3.59,0,0,0,1.69-.32,1,1,0,0,0,.59-.85,1,1,0,0,0-.59-.85A3.8,3.8,0,0,0,137.44,7.9Z"/>
    <path class="cls-4" d="M143.07,10.33V9.71h8.74v.62Zm1.44,3.79V11.23h5.86v2.89Zm0-5.3V6.61h5.07v-1h-5.07V5h5.8V7.2h-5.08v1h5.3v.62Zm5.11,3h-4.43V13.5h4.43Z"/>
  </g>
  <path id="path143" class="cls-1" d="M191.76,17.85h-20.5A1.1,1.1,0,0,0,170.17,19V35.7a1.09,1.09,0,0,0,1.09,1.1h5.28a3.29,3.29,0,0,0,3.21,2.27,3.37,3.37,0,0,0,0-6.74,3.29,3.29,0,0,0-3.21,2.26h-4.19v-12h18.31v12h-3.45A7.61,7.61,0,0,0,179.75,28a8.25,8.25,0,0,0-3.64.92l1,2a5.39,5.39,0,0,1,2.55-.67,5.46,5.46,0,0,1,0,10.92,5.28,5.28,0,0,1-2.55-.68l-1,2a7.4,7.4,0,0,0,3.64.92,7.61,7.61,0,0,0,7.46-6.56h4.55a1.09,1.09,0,0,0,1.09-1.1V19A1.14,1.14,0,0,0,191.76,17.85Z"/>
  <g id="text145" class="cls-2">
    <path class="cls-1" d="M174.26,56.37h-.87l-.78-2h-3.08l-.73,2h-.88l2.76-7.19h.8Zm-1.92-2.76-1.15-3.11a2.53,2.53,0,0,1-.11-.47h0a2.35,2.35,0,0,1-.12.47l-1.14,3.11Z"/>
    <path class="cls-1" d="M176.12,53.64v2.73h-.78V49.18h1.94a2.58,2.58,0,0,1,1.76.56,2,2,0,0,1,.63,1.58,2.16,2.16,0,0,1-.74,1.7,2.51,2.51,0,0,1-1.85.62Zm0-3.73v3H177a2,2,0,0,0,1.35-.4,1.43,1.43,0,0,0,.46-1.14c0-1-.57-1.45-1.71-1.45Z"/>
    <path class="cls-1" d="M181.84,56.37h-.79V49.18h.79Z"/>
    <path class="cls-1" d="M189.39,52.52a2.12,2.12,0,1,1,1.5-.6A2.1,2.1,0,0,1,189.39,52.52Zm0-3.8a1.43,1.43,0,0,0-1,.42,1.58,1.58,0,0,0-.42,1.17,1.54,1.54,0,0,0,.43,1.16,1.45,1.45,0,0,0,2,0,1.79,1.79,0,0,0,0-2.33A1.39,1.39,0,0,0,189.39,48.72ZM189,57V53.23h.72V54.6h4.46V53.23h.72V57Zm5.18-1.75h-4.46v1.11h4.46Zm0-2.53v-2h-1.1v2h-.72V48h.72V50.1h1.1V47.83h.73v4.88Z"/>
  </g>
  <g id="shape1142-51">
    <g id="use7">
      <g id="lend5">
        <path id="path4" class="cls-5" d="M161.7,26.59l8,4-8,4a9,9,0,0,0,0-8"/>
      </g>
    </g>
  </g>
  <g id="group1143-57">
    <g id="group1144-58">
      <g id="group1145-59">
        <g id="group1146-60">
          <g id="shape1147-61">
            <path id="path163" class="cls-1" d="M7.85,22.77a4.5,4.5,0,0,0-3,5.67c.66,2.55,3,4.21,5.27,3.66a4.49,4.49,0,0,0,3-5.66C12.57,23.77,10.16,22.11,7.85,22.77Z"/>
          </g>
        </g>
        <g id="group1148-63">
          <g id="shape1149-64">
            <path id="path171" class="cls-1" d="M12.79,32.79c-.44,0-.88.77-1.54,1.11s-1.32.88-3.18,0S6,32.23,4.44,32.23.38,35,.38,39.11H16a12.05,12.05,0,0,0-1.1-4.21C13.77,32.79,13.23,32.79,12.79,32.79Z"/>
          </g>
        </g>
      </g>
    </g>
    <g id="group1150-66">
      <g id="shape1151-67">
        <path id="path181" class="cls-6" d="M14.19,27.84H10.07a.71.71,0,0,0-.65.66v2.85a.73.73,0,0,0,.76.66h.76v5.15a1,1,0,0,0,1,1.09,1,1,0,0,0,1-1h.21v-.66c0-.22.33-.33.33-.33V36c-.33-.11-.54-.33-.54-.44v-.32L13.1,35a3.53,3.53,0,0,0,.33-.55,2.4,2.4,0,0,1-.33-.55c-.1-.11-.1-.33-.21-.44v-.22a2.52,2.52,0,0,1,.76-1.09h.54a.71.71,0,0,0,.65-.66v-3A.63.63,0,0,0,14.19,27.84ZM11.8,37.38c0,.22,0,.33-.21.33s-.22-.22-.22-.33V32.56c0-.22.11-.33.22-.33s.21.22.21.33Zm.33-7.78a.66.66,0,0,1,0-1.32.71.71,0,0,1,.65.66A.63.63,0,0,1,12.13,29.6Z"/>
      </g>
      <g id="shape1152-69">
        <path id="path186" class="cls-7" d="M11.57,37.68a.24.24,0,0,1-.22-.22v-5a.22.22,0,1,1,.44,0v5.1C11.79,37.68,11.68,37.68,11.57,37.68Z"/>
      </g>
      <g id="shape1153-71">
        <ellipse id="ellipse191" class="cls-7" cx="12.14" cy="28.92" rx="0.66" ry="0.67"/>
      </g>
    </g>
  </g>
  <line class="cls-8" x1="162.7" y1="30.61" x2="72.52" y2="30.61"/>
</svg>
