<svg id="svg95" xmlns="http://www.w3.org/2000/svg" viewBox="0 0 205.55 55.68">
  <defs>
    <style>
      .cls-1, .cls-4 {
        fill: #fff;
      }

      .cls-1 {
        stroke: #000;
        stroke-width: 0.24px;
      }

      .cls-1, .cls-3 {
        stroke-linecap: round;
        stroke-linejoin: round;
      }

      .cls-2, .cls-3 {
        fill: #008bfd;
      }

      .cls-3 {
        stroke: gray;
        stroke-width: 0.75px;
      }

      .cls-5 {
        isolation: isolate;
      }

      .cls-6 {
        fill: #00b0f0;
      }

      .cls-7 {
        fill: #505050;
      }

      .cls-8 {
        fill: none;
        stroke: #505050;
        stroke-miterlimit: 10;
      }
    </style>
  </defs>
  <title>OJ104546506</title>
  <g id="shape1000-1">
    <path id="path15" class="cls-1" d="M16,9.82.12,21.25,6.2,39.73H25.86l6.08-18.48Z"/>
  </g>
  <g id="group1216-3">
    <g id="group1217-4">
      <g id="group1218-5">
        <g id="group1219-6">
          <g id="shape1220-7">
            <path id="path28" class="cls-2" d="M15.7,16.94a4.49,4.49,0,0,0-3,5.66c.66,2.55,3,4.22,5.27,3.67a4.5,4.5,0,0,0,3-5.67C20.42,17.94,18,16.27,15.7,16.94Z"/>
          </g>
        </g>
        <g id="group1221-9">
          <g id="shape1222-10">
            <path id="path36" class="cls-2" d="M20.64,27c-.44,0-.88.78-1.54,1.11s-1.32.89-3.18,0-2.09-1.66-3.63-1.66-4.06,2.77-4.06,6.88H23.82a12.09,12.09,0,0,0-1.1-4.22C21.62,27,21.08,27,20.64,27Z"/>
          </g>
        </g>
      </g>
    </g>
    <g id="group1223-12">
      <g id="shape1224-13">
        <path id="path46" class="cls-3" d="M22.05,22H17.93a.71.71,0,0,0-.65.66v2.85a.72.72,0,0,0,.76.65h.76v5.15a1,1,0,0,0,1,1.1,1,1,0,0,0,1-1H21v-.65c0-.22.33-.33.33-.33v-.33c-.33-.11-.54-.33-.54-.44v-.33l.21-.22a3.55,3.55,0,0,0,.33-.54A2.4,2.4,0,0,1,21,28c-.1-.11-.1-.33-.21-.44v-.22a2.51,2.51,0,0,1,.76-1.1h.54a.7.7,0,0,0,.65-.65v-3A.63.63,0,0,0,22.05,22Zm-2.39,9.53c0,.22,0,.33-.21.33s-.22-.22-.22-.33V26.72c0-.22.11-.33.22-.33s.21.22.21.33ZM20,23.76a.69.69,0,0,1-.65-.65.7.7,0,0,1,.65-.66.71.71,0,0,1,.65.66A.62.62,0,0,1,20,23.76Z"/>
      </g>
      <g id="shape1225-15">
        <path id="path51" class="cls-4" d="M19.43,31.85a.24.24,0,0,1-.22-.22v-5a.22.22,0,0,1,.44,0v5.11C19.65,31.85,19.54,31.85,19.43,31.85Z"/>
      </g>
      <g id="shape1226-17">
        <ellipse id="ellipse56" class="cls-4" cx="20" cy="23.09" rx="0.66" ry="0.67"/>
      </g>
    </g>
  </g>
  <path id="path65" class="cls-2" d="M192.6,8.81H172.1A1.09,1.09,0,0,0,171,9.91V26.65a1.1,1.1,0,0,0,1.09,1.11h5.28A3.29,3.29,0,0,0,180.59,30a3.38,3.38,0,0,0,0-6.75,3.29,3.29,0,0,0-3.21,2.27h-4.19v-12H191.5v12h-3.45A7.61,7.61,0,0,0,180.59,19a8.25,8.25,0,0,0-3.64.92l1,2a5.27,5.27,0,0,1,2.55-.67,5.46,5.46,0,0,1,0,10.91,5.27,5.27,0,0,1-2.55-.67l-1,2a7.51,7.51,0,0,0,3.64.92,7.61,7.61,0,0,0,7.46-6.56h4.55a1.1,1.1,0,0,0,1.09-1.11V9.91A1.14,1.14,0,0,0,192.6,8.81Z"/>
  <g id="text67" class="cls-5">
    <path class="cls-2" d="M174.56,47.32h-.88l-.78-2h-3.08l-.73,2h-.88L171,40.13h.8Zm-1.93-2.77-1.14-3.1a2.14,2.14,0,0,1-.11-.48h0a1.9,1.9,0,0,1-.11.48l-1.14,3.1Z"/>
    <path class="cls-2" d="M176.42,44.59v2.73h-.79V40.13h1.94a2.61,2.61,0,0,1,1.77.56,2,2,0,0,1,.63,1.58,2.18,2.18,0,0,1-.74,1.7,2.57,2.57,0,0,1-1.85.62Zm0-3.73v3h.9a2.05,2.05,0,0,0,1.35-.4,1.43,1.43,0,0,0,.47-1.14c0-1-.57-1.45-1.71-1.45Z"/>
    <path class="cls-2" d="M182.13,47.32h-.79V40.13h.79Z"/>
    <path class="cls-2" d="M189.68,43.47a2.12,2.12,0,0,1-2.13-2.21,2.13,2.13,0,0,1,.63-1.62,2.16,2.16,0,0,1,3,0,2.13,2.13,0,0,1,.63,1.62,2.12,2.12,0,0,1-2.14,2.21Zm0-3.81a1.36,1.36,0,0,0-1,.43,1.59,1.59,0,0,0-.43,1.17,1.54,1.54,0,0,0,.43,1.15,1.46,1.46,0,0,0,2.05,0,1.53,1.53,0,0,0,.42-1.15,1.58,1.58,0,0,0-.42-1.17A1.38,1.38,0,0,0,189.68,39.66Zm-.35,8.28V44.18h.73v1.36h4.45V44.18h.72v3.76Zm5.18-1.75h-4.45V47.3h4.45Zm0-2.54v-2h-1.09v2h-.73V39h.73v2.08h1.09V38.77h.73v4.88Z"/>
  </g>
  <g id="text76" class="cls-5">
    <path class="cls-6" d="M82.21,9.87a3.93,3.93,0,0,1,.94-2.76,3.22,3.22,0,0,1,2.54-1,3.06,3.06,0,0,1,2.39,1A3.72,3.72,0,0,1,89,9.69a4,4,0,0,1-.92,2.76,3.14,3.14,0,0,1-2.5,1.05,3.11,3.11,0,0,1-2.43-1A3.69,3.69,0,0,1,82.21,9.87ZM83,9.8a3.27,3.27,0,0,0,.69,2.14,2.26,2.26,0,0,0,1.84.84,2.4,2.4,0,0,0,1.91-.8,3.18,3.18,0,0,0,.69-2.17,3.4,3.4,0,0,0-.67-2.22,2.54,2.54,0,0,0-3.75,0A3.25,3.25,0,0,0,83,9.8Z"/>
    <path class="cls-6" d="M94.53,13.37h-.78V10.44c0-1.11-.4-1.66-1.21-1.66a1.33,1.33,0,0,0-1,.47,1.74,1.74,0,0,0-.42,1.2v2.92h-.77V8.24h.77V9.1h0a1.85,1.85,0,0,1,1.69-1,1.58,1.58,0,0,1,1.29.54,2.39,2.39,0,0,1,.45,1.57Z"/>
    <path class="cls-6" d="M98.71,10.82H96V10.2h2.74Z"/>
    <path class="cls-6" d="M100.3,13.37V6.19h2a2.18,2.18,0,0,1,1.44.45,1.46,1.46,0,0,1,.55,1.19A1.84,1.84,0,0,1,104,8.89a1.74,1.74,0,0,1-.91.65v0a1.79,1.79,0,0,1,1.16.55,1.7,1.7,0,0,1,.43,1.2A1.87,1.87,0,0,1,104,12.8a2.42,2.42,0,0,1-1.65.57Zm.79-6.45V9.28H102a1.63,1.63,0,0,0,1.12-.34,1.18,1.18,0,0,0,.4-.95c0-.71-.47-1.07-1.39-1.07Zm0,3.09v2.63h1.17a1.73,1.73,0,0,0,1.16-.36,1.21,1.21,0,0,0,.42-1q0-1.29-1.77-1.29Z"/>
    <path class="cls-6" d="M110.12,11h-3.64a2,2,0,0,0,.48,1.36,1.57,1.57,0,0,0,1.21.47,2.46,2.46,0,0,0,1.6-.58V13a2.91,2.91,0,0,1-1.78.51,2.15,2.15,0,0,1-1.7-.71,2.92,2.92,0,0,1-.61-2,2.8,2.8,0,0,1,.67-1.93A2.14,2.14,0,0,1,108,8.13a1.9,1.9,0,0,1,1.55.65,2.73,2.73,0,0,1,.55,1.8Zm-.8-.68A1.72,1.72,0,0,0,109,9.19a1.19,1.19,0,0,0-1-.4,1.38,1.38,0,0,0-1,.42,1.9,1.9,0,0,0-.52,1.11Z"/>
    <path class="cls-6" d="M115.6,13.37h-.77V10.42c0-1.1-.41-1.64-1.23-1.64a1.35,1.35,0,0,0-1,.47,1.77,1.77,0,0,0-.42,1.22v2.9h-.77V5.78h.77V9.1h0a1.87,1.87,0,0,1,1.69-1c1.16,0,1.74.69,1.74,2.09Z"/>
    <path class="cls-6" d="M117.29,8.61A3.11,3.11,0,0,1,119,8.13c1.2,0,1.79.63,1.79,1.89v3.35H120v-.8h0a1.86,1.86,0,0,1-2.78.52,1.39,1.39,0,0,1-.44-1.07c0-1,.57-1.51,1.69-1.67l1.55-.22c0-.89-.35-1.34-1.06-1.34a2.43,2.43,0,0,0-1.67.64Zm1.48,2.33a1.93,1.93,0,0,0-.89.29.83.83,0,0,0-.29.73.8.8,0,0,0,.27.63,1.09,1.09,0,0,0,.73.24,1.34,1.34,0,0,0,1-.44,1.6,1.6,0,0,0,.4-1.1v-.52Z"/>
    <path class="cls-6" d="M122.37,13.37V5.78h.77v7.59Z"/>
    <path class="cls-6" d="M127.31,6.47a1.1,1.1,0,0,0-.55-.14q-.87,0-.87,1.11v.8h1.21v.67h-1.21v4.46h-.76V8.91h-.88V8.24h.88V7.4a1.75,1.75,0,0,1,.46-1.27,1.51,1.51,0,0,1,1.13-.46,1.55,1.55,0,0,1,.59.09Z"/>
    <path class="cls-6" d="M130.07,10.82h-2.74V10.2h2.74Z"/>
    <path class="cls-6" d="M131.19,9.87a3.93,3.93,0,0,1,.94-2.76,3.2,3.2,0,0,1,2.54-1,3.06,3.06,0,0,1,2.39,1A3.72,3.72,0,0,1,138,9.69a4,4,0,0,1-.92,2.76,3.14,3.14,0,0,1-2.5,1.05,3.11,3.11,0,0,1-2.43-1A3.69,3.69,0,0,1,131.19,9.87ZM132,9.8a3.27,3.27,0,0,0,.69,2.14,2.26,2.26,0,0,0,1.84.84,2.4,2.4,0,0,0,1.91-.8,3.17,3.17,0,0,0,.68-2.17,3.4,3.4,0,0,0-.66-2.22,2.54,2.54,0,0,0-3.75,0A3.25,3.25,0,0,0,132,9.8Z"/>
    <path class="cls-6" d="M141.77,6.47a1.09,1.09,0,0,0-.54-.14q-.87,0-.87,1.11v.8h1.2v.67h-1.2v4.46h-.76V8.91h-.88V8.24h.88V7.4a1.74,1.74,0,0,1,.45-1.27,1.53,1.53,0,0,1,1.14-.46,1.5,1.5,0,0,1,.58.09Z"/>
    <path class="cls-6" d="M145.76,12.81v-.64h8.74v.64Zm.77-6.09V6.08h3.24V4.93h.72V6.08h3.24v.64Zm3.6,4.14a4.19,4.19,0,0,1-2.27-.51,1.44,1.44,0,0,1,0-2.57,4.35,4.35,0,0,1,2.27-.49,4.27,4.27,0,0,1,2.25.49,1.44,1.44,0,0,1,0,2.57A4.2,4.2,0,0,1,150.13,10.86Zm0-2.95a3.68,3.68,0,0,0-1.7.31.9.9,0,0,0,0,1.69,4.7,4.7,0,0,0,3.41,0,.9.9,0,0,0,0-1.69A3.64,3.64,0,0,0,150.13,7.91Z"/>
    <path class="cls-6" d="M155.76,10.33V9.71h8.74v.62Zm1.44,3.8V11.24h5.86v2.89Zm0-5.31V6.62h5.08v-1h-5.08V5H163V7.2H158v1h5.3v.62Zm5.11,3h-4.42v1.65h4.42Z"/>
  </g>
  <path id="path83" class="cls-2" d="M77.23,9.3H56.73a1.09,1.09,0,0,0-1.09,1.1V27.14a1.1,1.1,0,0,0,1.09,1.11H62a3.29,3.29,0,0,0,3.21,2.27,3.38,3.38,0,0,0,0-6.75A3.29,3.29,0,0,0,62,26H57.82v-12H76.13V26H72.68a7.61,7.61,0,0,0-7.46-6.56,8.25,8.25,0,0,0-3.64.92l1,2a5.27,5.27,0,0,1,2.55-.67,5.46,5.46,0,0,1,0,10.91,5.27,5.27,0,0,1-2.55-.67l-1,2a7.51,7.51,0,0,0,3.64.92,7.61,7.61,0,0,0,7.46-6.56h4.55a1.1,1.1,0,0,0,1.09-1.11V10.4A1.14,1.14,0,0,0,77.23,9.3Z"/>
  <g id="text85" class="cls-5">
    <path class="cls-2" d="M59.18,47.81h-.87l-.78-2H54.45l-.73,2h-.88l2.76-7.19h.81ZM57.26,45l-1.15-3.1a2.08,2.08,0,0,1-.1-.48h0a1.48,1.48,0,0,1-.12.48L54.73,45Z"/>
    <path class="cls-2" d="M61,45.08v2.73h-.78V40.62H62.2a2.58,2.58,0,0,1,1.76.56,2,2,0,0,1,.63,1.58,2.14,2.14,0,0,1-.74,1.7,2.55,2.55,0,0,1-1.84.62Zm0-3.73v3H62a2,2,0,0,0,1.35-.4,1.43,1.43,0,0,0,.46-1.14c0-1-.57-1.45-1.7-1.45Z"/>
    <path class="cls-2" d="M66.76,47.81H66V40.62h.79Z"/>
    <path class="cls-2" d="M74.31,44a2.12,2.12,0,1,1,1.5-.6A2.1,2.1,0,0,1,74.31,44Zm0-3.81a1.4,1.4,0,0,0-1,.43,1.79,1.79,0,0,0,0,2.33,1.47,1.47,0,0,0,2,0,1.54,1.54,0,0,0,.43-1.16,1.58,1.58,0,0,0-.42-1.17A1.44,1.44,0,0,0,74.31,40.15ZM74,48.43V44.67h.72V46h4.46V44.67h.72v3.76Zm5.18-1.75H74.68v1.11h4.46Zm0-2.54v-2H78v2h-.72V39.46H78v2.08h1.1V39.27h.73v4.87Z"/>
  </g>
  <g id="shape1230-28">
    <g id="use7">
      <g id="lend5">
        <path id="path4" class="cls-7" d="M162.52,17.59l8.06,4-7.94,4a9,9,0,0,0-.06-8"/>
      </g>
    </g>
  </g>
  <line class="cls-8" x1="78.32" y1="21.56" x2="163.55" y2="21.56"/>
</svg>
