<svg id="Capa_1" data-name="Capa 1" xmlns="http://www.w3.org/2000/svg" viewBox="0 0 167 34"><defs><style>.cls-1{fill:#0078d4;}.cls-2{fill:#fff;}</style></defs><title>OJ105266021</title><rect class="cls-1" width="167" height="34" rx="4"/><path class="cls-2" d="M20.17,27H41L29.78,7.48l-3.42,9.43,6.57,7.83ZM28.88,6l-8,6.75L14,24.69h6.19Z"/><path class="cls-2" d="M50.3,23V12.5h3c3.87,0,5.81,1.7,5.81,5.12a5,5,0,0,1-1.61,3.9A6.15,6.15,0,0,1,53.2,23ZM52,14v7.55h1.39a3.9,3.9,0,0,0,2.86-1,3.87,3.87,0,0,0,1-2.86C57.31,15.21,56,14,53.49,14Z"/><path class="cls-2" d="M67.22,19.71H62.1a2.2,2.2,0,0,0,.64,1.61,2.42,2.42,0,0,0,1.68.56,3.7,3.7,0,0,0,2.21-.72v1.37a5,5,0,0,1-2.71.65,3.38,3.38,0,0,1-2.6-1,4.12,4.12,0,0,1-.94-2.87,4,4,0,0,1,1-2.85A3.38,3.38,0,0,1,64,15.32a3,3,0,0,1,2.38,1,4.13,4.13,0,0,1,.85,2.75Zm-1.65-1.2a2.1,2.1,0,0,0-.43-1.42A1.43,1.43,0,0,0,64,16.58a1.63,1.63,0,0,0-1.24.53,2.46,2.46,0,0,0-.63,1.4Z"/><path class="cls-2" d="M70.56,21.89h0v4.56h-1.7V15.5h1.7v1.32h0a2.78,2.78,0,0,1,2.55-1.5,2.69,2.69,0,0,1,2.23,1,4.2,4.2,0,0,1,.8,2.69,4.71,4.71,0,0,1-.9,3,3,3,0,0,1-2.47,1.12A2.46,2.46,0,0,1,70.56,21.89Zm0-2.95v.93A2,2,0,0,0,71,21.26a1.84,1.84,0,0,0,2.81-.17A3.4,3.4,0,0,0,74.39,19a2.64,2.64,0,0,0-.5-1.73,1.64,1.64,0,0,0-1.36-.63,1.83,1.83,0,0,0-1.46.64A2.39,2.39,0,0,0,70.52,18.94Z"/><path class="cls-2" d="M79.58,23H77.87V11.9h1.71Z"/><path class="cls-2" d="M85.12,23.18a3.73,3.73,0,0,1-2.78-1.05,3.81,3.81,0,0,1-1-2.79,3.71,3.71,0,0,1,4-4,3.61,3.61,0,0,1,2.74,1,4,4,0,0,1,1,2.86A3.92,3.92,0,0,1,88,22.1,3.78,3.78,0,0,1,85.12,23.18Zm.08-6.5a1.93,1.93,0,0,0-1.58.7A2.92,2.92,0,0,0,83,19.29a2.75,2.75,0,0,0,.59,1.86,2,2,0,0,0,1.57.68,1.85,1.85,0,0,0,1.54-.67,3,3,0,0,0,.54-1.9,3,3,0,0,0-.54-1.91A1.85,1.85,0,0,0,85.2,16.68Z"/><path class="cls-2" d="M97.25,15.5l-3.39,8.7c-.7,1.55-1.69,2.33-3,2.33a3.75,3.75,0,0,1-.89-.09V25a2.3,2.3,0,0,0,.73.13,1.5,1.5,0,0,0,1.42-.93L92.67,23l-3-7.49h1.88L93.36,21c0,.07.06.25.13.54h0c0-.11.07-.29.14-.53l1.87-5.46Z"/><path class="cls-2" d="M106.09,22.93a2.44,2.44,0,0,1-1.13.23c-1.31,0-2-.73-2-2.2V16.53h-1.28v-1H103V13.67l1.21-.39V15.5h1.89v1H104.2v4.22a1.79,1.79,0,0,0,.25,1.08,1,1,0,0,0,.85.32,1.26,1.26,0,0,0,.79-.25Z"/><path class="cls-2" d="M110.82,23.18a3.46,3.46,0,0,1-2.65-1.05,3.92,3.92,0,0,1-1-2.79,4,4,0,0,1,1-2.95A3.71,3.71,0,0,1,111,15.32a3.37,3.37,0,0,1,2.62,1,4.06,4.06,0,0,1,.94,2.86,4,4,0,0,1-1,2.88A3.54,3.54,0,0,1,110.82,23.18Zm.09-6.85a2.3,2.3,0,0,0-1.83.79,3.24,3.24,0,0,0-.67,2.17,3.06,3.06,0,0,0,.68,2.11,2.31,2.31,0,0,0,1.82.77,2.21,2.21,0,0,0,1.79-.76,3.26,3.26,0,0,0,.63-2.15,3.29,3.29,0,0,0-.63-2.16A2.18,2.18,0,0,0,110.91,16.33Z"/><path class="cls-2" d="M128.88,23h-1.36l-1.12-2.94H122l-1,2.94h-1.37l4-10.5h1.27ZM126,19l-1.65-4.48a4.15,4.15,0,0,1-.16-.7h0a3.41,3.41,0,0,1-.17.7L122.36,19Z"/><path class="cls-2" d="M135.49,15.84,131.05,22h4.4v1h-6.16v-.37l4.44-6.1h-4v-1h5.78Z"/><path class="cls-2" d="M143.11,23h-1.2V21.81h0a2.48,2.48,0,0,1-2.32,1.37c-1.78,0-2.68-1.07-2.68-3.2V15.5h1.2v4.29c0,1.58.6,2.38,1.81,2.38a1.85,1.85,0,0,0,1.45-.65,2.5,2.5,0,0,0,.57-1.7V15.5h1.2Z"/><path class="cls-2" d="M149.44,16.72a1.4,1.4,0,0,0-.9-.25,1.54,1.54,0,0,0-1.29.73,3.37,3.37,0,0,0-.52,2V23h-1.2V15.5h1.2V17h0a2.68,2.68,0,0,1,.79-1.23,1.8,1.8,0,0,1,1.18-.44,1.88,1.88,0,0,1,.71.1Z"/><path class="cls-2" d="M156.78,19.55h-5.3a2.8,2.8,0,0,0,.67,1.93,2.31,2.31,0,0,0,1.78.69,3.69,3.69,0,0,0,2.33-.84v1.13a4.35,4.35,0,0,1-2.62.72,3.19,3.19,0,0,1-2.5-1,4.2,4.2,0,0,1-.9-2.87,4.09,4.09,0,0,1,1-2.85,3.16,3.16,0,0,1,2.46-1.11,2.82,2.82,0,0,1,2.28,1,3.93,3.93,0,0,1,.81,2.64Zm-1.23-1a2.49,2.49,0,0,0-.51-1.62,1.72,1.72,0,0,0-1.37-.58,1.94,1.94,0,0,0-1.44.61,2.74,2.74,0,0,0-.73,1.59Z"/></svg>