<svg id="Capa_1" data-name="Capa 1" xmlns="http://www.w3.org/2000/svg" viewBox="0 0 167 34"><defs><style>.cls-1{fill:#0078d4;}.cls-2{fill:#fff;}</style></defs><rect class="cls-1" width="167" height="34" rx="4"/><path class="cls-2" d="M20.17,27H41L29.78,7.48l-3.42,9.43,6.57,7.83ZM28.88,6l-8,6.75L14,24.69h6.19Z"/><path class="cls-2" d="M59.42,23H57.14l-.87-2.58H52.22L51.37,23H49.1l4-10.78H55.5Zm-3.67-4.23-1.32-3.91a5,5,0,0,1-.16-.89h-.06a4.27,4.27,0,0,1-.18.88l-1.32,3.92Z"/><path class="cls-2" d="M66.5,23H59.77v-.81l4-5.33H60.15V15.3h6.33v.95l-3.92,5.2H66.5Z"/><path class="cls-2" d="M74.88,23h-2V21.81h0a2.63,2.63,0,0,1-2.35,1.38c-1.81,0-2.71-1.08-2.71-3.25V15.3h2.05v4.43c0,1.24.48,1.86,1.45,1.86a1.45,1.45,0,0,0,1.15-.51,2,2,0,0,0,.45-1.36V15.3h2Z"/><path class="cls-2" d="M81.72,17.18a1.85,1.85,0,0,0-1-.24,1.43,1.43,0,0,0-1.23.63A2.77,2.77,0,0,0,79,19.25V23H77V15.3h2v1.48h0a2.06,2.06,0,0,1,2-1.61,1.65,1.65,0,0,1,.63.1Z"/><path class="cls-2" d="M89.53,19.73H84.39c.08,1.31.82,2,2.23,2A4.07,4.07,0,0,0,88.9,21v1.55a5.45,5.45,0,0,1-2.74.62,3.72,3.72,0,0,1-2.8-1,4,4,0,0,1-1-2.91,4.14,4.14,0,0,1,1.08-3,3.48,3.48,0,0,1,2.68-1.15,3.23,3.23,0,0,1,2.51,1,3.88,3.88,0,0,1,.9,2.72Zm-1.92-1.34c0-1.22-.51-1.84-1.51-1.84a1.51,1.51,0,0,0-1.11.5,2.35,2.35,0,0,0-.6,1.34Z"/><path class="cls-2" d="M97.43,15.14h1.43V10.48h1.72V23.9H98.86V16.7H97.45a5.53,5.53,0,0,1-1,3.13,2.67,2.67,0,0,1-2.23,1.05,2.7,2.7,0,0,1-2.39-1.25A6.63,6.63,0,0,1,91.05,16a6.63,6.63,0,0,1,.83-3.63,2.9,2.9,0,0,1,4.59-.25A5.3,5.3,0,0,1,97.43,15.14Zm-3.16-2.47q-1.44,0-1.44,3.33c0,2.21.48,3.32,1.44,3.32.46,0,.81-.28,1.06-.85A6.42,6.42,0,0,0,95.71,16a6.65,6.65,0,0,0-.37-2.47A1.18,1.18,0,0,0,94.27,12.67Zm7.27,11.65V10.19h1.78V24.32Z"/><path class="cls-2" d="M111.77,20.41V11.25h1.8v3.29h2.14V11.25h1.8v9.16Zm3.94-4.34h-2.14v2.81h2.14Zm6,8.25V17.26h-1.14V23.9h-1.82V10.48h1.82v5.23h1.14V10.19h1.82V24.32Z"/><path class="cls-2" d="M126.23,22.4V20.87h5.62V18.38h-4.42V16.86h2l-.16-3.29h1.83l.12,3.29h3.11l.13-3.29h1.83l-.21,3.29h2v1.52H133.7v2.49h5.64V22.4Zm1.3-9.46V11.42H138v1.52Z"/></svg>