<svg xmlns="http://www.w3.org/2000/svg" xmlns:xlink="http://www.w3.org/1999/xlink" viewBox="0 0 316 315.2"><defs><style>.cls-1,.cls-4{fill:#fff;}.cls-16,.cls-2,.cls-6{fill:#3c3c41;}.cls-2{opacity:0.05;}.cls-2,.cls-4,.cls-5,.cls-6{isolation:isolate;}.cls-15,.cls-17,.cls-18,.cls-3,.cls-5{fill:none;}.cls-4{opacity:0.6;}.cls-5{stroke:#75757a;stroke-width:0.5px;opacity:0.5;}.cls-15,.cls-17,.cls-18,.cls-5{stroke-miterlimit:10;}.cls-6{opacity:0.2;}.cls-7{fill:#ccc;fill-opacity:0.3;}.cls-8{fill:url(#Degradado_sin_nombre);}.cls-9{fill:#50e6ff;}.cls-10{fill:#c3f1ff;}.cls-11{fill:#9cebff;}.cls-12{fill:url(#Degradado_sin_nombre_2);}.cls-13{fill:url(#Degradado_sin_nombre_3);}.cls-14{fill:url(#Degradado_sin_nombre_4);}.cls-15,.cls-17,.cls-18{stroke:#3c3c41;}.cls-17{stroke-dasharray:1.46 2.43;}.cls-18{stroke-dasharray:1.31 2.19;}.cls-19{fill:url(#Degradado_sin_nombre_5);}.cls-20{fill:url(#Degradado_sin_nombre_6);}.cls-21{fill:url(#Degradado_sin_nombre_7);}.cls-22{fill:#1490df;}.cls-23{fill:url(#Degradado_sin_nombre_8);}.cls-24{fill:url(#Degradado_sin_nombre_9);}.cls-25{fill:url(#Degradado_sin_nombre_10);}.cls-26{fill:url(#Degradado_sin_nombre_11);}.cls-27{fill:url(#Degradado_sin_nombre_12);}.cls-28{fill:url(#Degradado_sin_nombre_13);}.cls-29{fill:url(#Degradado_sin_nombre_14);}.cls-30{fill:url(#Degradado_sin_nombre_15);}.cls-31{fill:#e81122;}.cls-32{fill:#6ebcdb;}.cls-33{fill:#5db4d7;}.cls-34{fill:#e6e6e6;}.cls-35{fill:#86d633;}.cls-36{fill:#1e1e1e;}</style><linearGradient id="Degradado_sin_nombre" x1="39.57" y1="450.22" x2="39.57" y2="431.46" gradientTransform="translate(0 -284.26)" gradientUnits="userSpaceOnUse"><stop offset="0" stop-color="#0078d4"/><stop offset="0.82" stop-color="#5ea0ef"/></linearGradient><linearGradient id="Degradado_sin_nombre_2" x1="39.57" y1="457.46" x2="39.57" y2="450.22" gradientTransform="translate(0 -284.26)" gradientUnits="userSpaceOnUse"><stop offset="0.15" stop-color="#ccc"/><stop offset="1" stop-color="#707070"/></linearGradient><linearGradient id="Degradado_sin_nombre_3" x1="76.43" y1="450.22" x2="76.43" y2="431.46" xlink:href="#Degradado_sin_nombre"/><linearGradient id="Degradado_sin_nombre_4" x1="76.43" y1="457.46" x2="76.43" y2="450.22" xlink:href="#Degradado_sin_nombre_2"/><linearGradient id="Degradado_sin_nombre_5" x1="24" y1="511.25" x2="26.37" y2="513.62" gradientTransform="translate(2.88 -284.87)" gradientUnits="userSpaceOnUse"><stop offset="0" stop-color="#86d633"/><stop offset="0.24" stop-color="#83d232"/><stop offset="0.5" stop-color="#7cc52f"/><stop offset="0.76" stop-color="#6fb02a"/><stop offset="1" stop-color="#5e9624"/></linearGradient><linearGradient id="Degradado_sin_nombre_6" x1="18.65" y1="511.26" x2="21.01" y2="513.63" xlink:href="#Degradado_sin_nombre_5"/><linearGradient id="Degradado_sin_nombre_7" x1="13.31" y1="511.26" x2="15.67" y2="513.63" xlink:href="#Degradado_sin_nombre_5"/><linearGradient id="Degradado_sin_nombre_8" x1="139.57" y1="450.22" x2="139.57" y2="431.46" xlink:href="#Degradado_sin_nombre"/><linearGradient id="Degradado_sin_nombre_9" x1="139.57" y1="457.46" x2="139.57" y2="450.22" xlink:href="#Degradado_sin_nombre_2"/><linearGradient id="Degradado_sin_nombre_10" x1="176.43" y1="450.22" x2="176.43" y2="431.46" xlink:href="#Degradado_sin_nombre"/><linearGradient id="Degradado_sin_nombre_11" x1="176.43" y1="457.46" x2="176.43" y2="450.22" xlink:href="#Degradado_sin_nombre_2"/><linearGradient id="Degradado_sin_nombre_12" x1="239.57" y1="450.22" x2="239.57" y2="431.46" xlink:href="#Degradado_sin_nombre"/><linearGradient id="Degradado_sin_nombre_13" x1="239.57" y1="457.46" x2="239.57" y2="450.22" xlink:href="#Degradado_sin_nombre_2"/><linearGradient id="Degradado_sin_nombre_14" x1="276.43" y1="450.22" x2="276.43" y2="431.46" xlink:href="#Degradado_sin_nombre"/><linearGradient id="Degradado_sin_nombre_15" x1="276.43" y1="457.46" x2="276.43" y2="450.22" xlink:href="#Degradado_sin_nombre_2"/></defs><title>OJ104903205</title><g id="Target"><g id="Shapes"><rect class="cls-1" width="316" height="315.2"/><rect class="cls-1" x="0.5" y="75.2" width="315" height="151.85" rx="5"/><rect class="cls-2" x="0.5" y="75.2" width="315" height="151.85" rx="5"/><rect class="cls-3" x="0.5" y="75.2" width="315" height="151.85" rx="5"/><rect class="cls-4" x="110.5" y="15.2" width="95" height="200"/><rect class="cls-5" x="110.5" y="15.2" width="95" height="200"/><rect class="cls-4" x="210.5" y="15.2" width="95" height="200"/><rect class="cls-5" x="210.5" y="15.2" width="95" height="200"/><rect class="cls-4" x="10.5" y="15.2" width="95" height="200"/><rect class="cls-5" x="10.5" y="15.2" width="95" height="200"/><rect class="cls-1" x="15.99" y="120.2" width="284.01" height="90" rx="0.3"/><rect class="cls-6" x="15.99" y="120.2" width="284.01" height="90" rx="0.3"/><rect class="cls-7" x="160.5" y="240.2" width="155" height="35"/><rect class="cls-7" x="160.5" y="280.2" width="155" height="35"/><rect class="cls-8" x="25.5" y="147.2" width="28.14" height="18.76" rx="0.94"/><polygon class="cls-9" points="44.26 153.85 44.26 159.3 39.57 162.05 39.57 156.58 44.26 153.85"/><polygon class="cls-10" points="44.26 153.85 39.57 156.6 34.88 153.85 39.57 151.11 44.26 153.85"/><polygon class="cls-11" points="39.57 156.6 39.57 162.05 34.88 159.3 34.88 153.85 39.57 156.6"/><polygon class="cls-10" points="34.88 159.3 39.57 156.58 39.57 162.05 34.88 159.3"/><polygon class="cls-11" points="44.26 159.3 39.57 156.58 39.57 162.05 44.26 159.3"/><path class="cls-12" d="M45.21,171.64c-2.78-.44-2.89-2.44-2.89-5.68H36.8c0,3.24-.09,5.24-2.87,5.68a1.55,1.55,0,0,0-1.39,1.56H46.61A1.57,1.57,0,0,0,45.21,171.64Z"/><rect class="cls-13" x="62.36" y="147.2" width="28.14" height="18.76" rx="0.94"/><polygon class="cls-9" points="81.12 153.85 81.12 159.3 76.43 162.05 76.43 156.58 81.12 153.85"/><polygon class="cls-10" points="81.12 153.85 76.43 156.6 71.74 153.85 76.43 151.11 81.12 153.85"/><polygon class="cls-11" points="76.43 156.6 76.43 162.05 71.74 159.3 71.74 153.85 76.43 156.6"/><polygon class="cls-10" points="71.74 159.3 76.43 156.58 76.43 162.05 71.74 159.3"/><polygon class="cls-11" points="81.12 159.3 76.43 156.58 76.43 162.05 81.12 159.3"/><path class="cls-14" d="M82.07,171.64c-2.78-.44-2.89-2.44-2.89-5.68H73.66c0,3.24-.09,5.24-2.87,5.68a1.57,1.57,0,0,0-1.4,1.56H83.46A1.55,1.55,0,0,0,82.07,171.64Z"/><line class="cls-15" x1="58.25" y1="120.2" x2="58.25" y2="55.2"/><line class="cls-15" x1="50.72" y1="112.67" x2="50.72" y2="100.98"/><polygon class="cls-16" points="53.71 101.85 50.72 96.67 47.73 101.85 53.71 101.85"/><line class="cls-15" x1="65.77" y1="108.37" x2="65.77" y2="107.62"/><line class="cls-17" x1="65.77" y1="105.19" x2="65.77" y2="98.64"/><line class="cls-15" x1="65.77" y1="97.42" x2="65.77" y2="96.67"/><polygon class="cls-16" points="68.76 107.49 65.77 112.67 62.78 107.49 68.76 107.49"/><line class="cls-15" x1="169.81" y1="250.2" x2="180.93" y2="250.2"/><polygon class="cls-16" points="170.68 253.19 165.5 250.2 170.68 247.21 170.68 253.19"/><line class="cls-15" x1="176.19" y1="290.2" x2="175.44" y2="290.2"/><line class="cls-18" x1="173.25" y1="290.2" x2="167.34" y2="290.2"/><line class="cls-15" x1="166.25" y1="290.2" x2="165.5" y2="290.2"/><polygon class="cls-16" points="175.32 287.21 180.5 290.2 175.32 293.19 175.32 287.21"/><circle class="cls-19" cx="27.9" cy="227.4" r="1.67"/><circle class="cls-20" cx="22.56" cy="227.42" r="1.67"/><circle class="cls-21" cx="17.22" cy="227.42" r="1.67"/><path class="cls-9" d="M18.43,234.11l-1,1a.43.43,0,0,1-.61,0h0l-7-7.11a.89.89,0,0,1,0-1.23h0l1-1h0l7.71,7.69a.43.43,0,0,1,0,.61h0Z"/><path class="cls-22" d="M17.33,219.78l1,.95a.44.44,0,0,1,0,.62l-7.57,7.59h0l-1-1a.88.88,0,0,1,0-1.22h0l7-7A.43.43,0,0,1,17.33,219.78Z"/><path class="cls-9" d="M34.28,225.8l1,1a.87.87,0,0,1,0,1.23h0l-7.1,7.07a.43.43,0,0,1-.61,0h0l-1-1a.43.43,0,0,1,0-.61h0Z"/><path class="cls-22" d="M35.24,228l-1,1h0l-7.57-7.59a.44.44,0,0,1,0-.62h0l1-1a.43.43,0,0,1,.61,0h0l7,7a.88.88,0,0,1,0,1.22h0Z"/><rect class="cls-1" x="40.75" y="20.2" width="35" height="35"/><rect class="cls-6" x="40.75" y="20.2" width="35" height="35"/><rect class="cls-23" x="125.5" y="147.2" width="28.14" height="18.76" rx="0.94"/><polygon class="cls-9" points="144.26 153.85 144.26 159.3 139.57 162.05 139.57 156.58 144.26 153.85"/><polygon class="cls-10" points="144.26 153.85 139.57 156.6 134.88 153.85 139.57 151.11 144.26 153.85"/><polygon class="cls-11" points="139.57 156.6 139.57 162.05 134.88 159.3 134.88 153.85 139.57 156.6"/><polygon class="cls-10" points="134.88 159.3 139.57 156.58 139.57 162.05 134.88 159.3"/><polygon class="cls-11" points="144.26 159.3 139.57 156.58 139.57 162.05 144.26 159.3"/><path class="cls-24" d="M145.21,171.64c-2.78-.44-2.89-2.44-2.89-5.68H136.8c0,3.24-.09,5.24-2.87,5.68a1.55,1.55,0,0,0-1.39,1.56h14.07A1.57,1.57,0,0,0,145.21,171.64Z"/><rect class="cls-25" x="162.36" y="147.2" width="28.14" height="18.76" rx="0.94"/><polygon class="cls-9" points="181.12 153.85 181.12 159.3 176.43 162.05 176.43 156.58 181.12 153.85"/><polygon class="cls-10" points="181.12 153.85 176.43 156.6 171.74 153.85 176.43 151.11 181.12 153.85"/><polygon class="cls-11" points="176.43 156.6 176.43 162.05 171.74 159.3 171.74 153.85 176.43 156.6"/><polygon class="cls-10" points="171.74 159.3 176.43 156.58 176.43 162.05 171.74 159.3"/><polygon class="cls-11" points="181.12 159.3 176.43 156.58 176.43 162.05 181.12 159.3"/><path class="cls-26" d="M182.07,171.64c-2.78-.44-2.89-2.44-2.89-5.68h-5.52c0,3.24-.09,5.24-2.87,5.68a1.57,1.57,0,0,0-1.4,1.56h14.07A1.55,1.55,0,0,0,182.07,171.64Z"/><line class="cls-15" x1="158.25" y1="120.2" x2="158.25" y2="55.2"/><line class="cls-15" x1="150.72" y1="112.67" x2="150.72" y2="100.98"/><polygon class="cls-16" points="153.71 101.85 150.72 96.67 147.73 101.85 153.71 101.85"/><line class="cls-15" x1="165.77" y1="108.37" x2="165.77" y2="107.62"/><line class="cls-17" x1="165.77" y1="105.19" x2="165.77" y2="98.64"/><line class="cls-15" x1="165.77" y1="97.42" x2="165.77" y2="96.67"/><polygon class="cls-16" points="168.76 107.49 165.77 112.67 162.78 107.49 168.76 107.49"/><rect class="cls-1" x="140.75" y="20.2" width="35" height="35"/><rect class="cls-6" x="140.75" y="20.2" width="35" height="35"/><rect class="cls-27" x="225.5" y="147.2" width="28.14" height="18.76" rx="0.94"/><polygon class="cls-9" points="244.26 153.85 244.26 159.3 239.57 162.05 239.57 156.58 244.26 153.85"/><polygon class="cls-10" points="244.26 153.85 239.57 156.6 234.88 153.85 239.57 151.11 244.26 153.85"/><polygon class="cls-11" points="239.57 156.6 239.57 162.05 234.88 159.3 234.88 153.85 239.57 156.6"/><polygon class="cls-10" points="234.88 159.3 239.57 156.58 239.57 162.05 234.88 159.3"/><polygon class="cls-11" points="244.26 159.3 239.57 156.58 239.57 162.05 244.26 159.3"/><path class="cls-28" d="M245.21,171.64c-2.78-.44-2.89-2.44-2.89-5.68H236.8c0,3.24-.09,5.24-2.87,5.68a1.55,1.55,0,0,0-1.39,1.56h14.07A1.57,1.57,0,0,0,245.21,171.64Z"/><rect class="cls-29" x="262.36" y="147.2" width="28.14" height="18.76" rx="0.94"/><polygon class="cls-9" points="281.12 153.85 281.12 159.3 276.43 162.05 276.43 156.58 281.12 153.85"/><polygon class="cls-10" points="281.12 153.85 276.43 156.6 271.74 153.85 276.43 151.11 281.12 153.85"/><polygon class="cls-11" points="276.43 156.6 276.43 162.05 271.74 159.3 271.74 153.85 276.43 156.6"/><polygon class="cls-10" points="271.74 159.3 276.43 156.58 276.43 162.05 271.74 159.3"/><polygon class="cls-11" points="281.12 159.3 276.43 156.58 276.43 162.05 281.12 159.3"/><path class="cls-30" d="M282.07,171.64c-2.78-.44-2.89-2.44-2.89-5.68h-5.52c0,3.24-.09,5.24-2.87,5.68a1.57,1.57,0,0,0-1.4,1.56h14.07A1.55,1.55,0,0,0,282.07,171.64Z"/><line class="cls-15" x1="258.25" y1="120.2" x2="258.25" y2="55.2"/><line class="cls-15" x1="250.72" y1="112.67" x2="250.72" y2="100.98"/><polygon class="cls-16" points="253.71 101.85 250.72 96.67 247.73 101.85 253.71 101.85"/><line class="cls-15" x1="265.77" y1="108.37" x2="265.77" y2="107.62"/><line class="cls-17" x1="265.77" y1="105.19" x2="265.77" y2="98.64"/><line class="cls-15" x1="265.77" y1="97.42" x2="265.77" y2="96.67"/><polygon class="cls-16" points="268.76 107.49 265.77 112.67 262.78 107.49 268.76 107.49"/><rect class="cls-1" x="240.75" y="20.2" width="35" height="35"/><rect class="cls-6" x="240.75" y="20.2" width="35" height="35"/><path class="cls-16" d="M309.34,227.55h-1v-1h1Zm-3,0h-1v-1h1Zm-3,0h-1v-1h1Zm-3,0h-1v-1h1Zm-3,0h-1v-1h1Zm-3,0h-1v-1h1Zm-3,0h-1v-1h1Zm-3,0h-1v-1h1Zm-3,0h-1v-1h1Zm-3,0h-1v-1h1Zm-3,0h-1v-1h1Zm-3,0h-1v-1h1Zm-3,0h-1v-1h1Zm-3,0h-1v-1h1Zm-3,0h-1v-1h1Zm-3,0h-1v-1h1Zm-3,0h-1v-1h1Zm-3,0h-1v-1h1Zm-3,0h-1v-1h1Zm-3,0h-1v-1h1Zm-3,0h-1v-1h1Zm-3,0h-1v-1h1Zm-3,0h-1v-1h1Zm-3,0h-1v-1h1Zm-3,0h-1v-1h1Zm-3,0h-1v-1h1Zm-3,0h-1v-1h1Zm-3,0h-1v-1h1Zm-3,0h-1v-1h1Zm-3,0h-1v-1h1Zm-3,0h-1v-1h1Zm-3,0h-1v-1h1Zm-3,0h-1v-1h1Zm-3,0h-1v-1h1Zm-3,0h-1v-1h1Zm-3,0h-1v-1h1Zm-3,0h-1v-1h1Zm-3,0h-1v-1h1Zm-3,0h-1v-1h1Zm-3,0h-1v-1h1Zm-3,0h-1v-1h1Zm-3,0h-1v-1h1Zm-3,0h-1v-1h1Zm-3,0h-1v-1h1Zm-3,0h-1v-1h1Zm-3,0h-1v-1h1Zm-3,0h-1v-1h1Zm-3,0h-1v-1h1Zm-3,0h-1v-1h1Zm-3,0h-1v-1h1Zm-3,0h-1v-1h1Zm-3,0h-1v-1h1Zm-3,0h-1v-1h1Zm-3,0h-1v-1h1Zm-3,0h-1v-1h1Zm-3,0h-1v-1h1Zm-3,0h-1v-1h1Zm-3,0h-1v-1h1Zm-3,0h-1v-1h1Zm-3,0h-1v-1h1Zm-3,0h-1v-1h1Zm-3,0h-1v-1h1Zm-3,0h-1v-1h1Zm-3,0h-1v-1h1Zm-3,0h-1v-1h1Zm-3,0h-1v-1h1Zm-3,0h-1v-1h1Zm-3,0h-1v-1h1Zm-3,0h-1v-1h1Zm-3,0h-1v-1h1Zm-3,0h-1v-1h1Zm-3,0h-1v-1h1Zm-3,0h-1v-1h1Zm-3,0h-1v-1h1Zm-3,0h-1v-1h1Zm-3,0h-1v-1h1Zm-3,0h-1v-1h1Zm-3,0h-1v-1h1Zm-3,0h-1v-1h1Zm-3,0h-1v-1h1Zm-3,0h-1v-1h1Zm-3,0h-1v-1h1Zm-3,0h-1v-1h1Zm-3,0h-1v-1h1Zm-3,0h-1v-1h1Zm-3,0h-1v-1h1Zm-3,0h-1v-1h1Zm-3,0H47v-1h1Zm-3,0H44v-1h1Zm-3,0H41v-1h1Zm-3,0H38v-1h1Zm-33,0H5l.1-1H6Zm305.42-.08-.16-1a4.4,4.4,0,0,0,.86-.24l.37.93a5.64,5.64,0,0,1-1.41.31ZM3.2,226.87a6.34,6.34,0,0,1-.91-.62l.65-.77a4.7,4.7,0,0,0,.74.52ZM314.32,226l-.69-.72a4.82,4.82,0,0,0,.58-.69l.82.57A5.18,5.18,0,0,1,314.32,226ZM.6,224.54a5.09,5.09,0,0,1-.4-1l1-.27a4.31,4.31,0,0,0,.33.84Zm315.29-1.39-1-.2a4.58,4.58,0,0,0,.09-.9l1-.06v.06A5.06,5.06,0,0,1,315.89,223.15ZM1,221.39H0v-1H1ZM316,220h-1v-1h1ZM1,218.39H0v-1H1ZM316,217h-1v-1h1ZM1,215.38H0v-1H1ZM316,214h-1v-1h1ZM1,212.38H0v-1H1ZM316,211h-1v-1h1ZM1,209.38H0v-1H1ZM316,208h-1v-1h1ZM1,206.37H0v-1H1ZM316,205h-1v-1h1ZM1,203.37H0v-1H1ZM316,202h-1v-1h1ZM1,200.37H0v-1H1ZM316,199h-1v-1h1ZM1,197.36H0v-1H1ZM316,196h-1v-1h1ZM1,194.36H0v-1H1ZM316,193h-1v-1h1ZM1,191.36H0v-1H1ZM316,190h-1v-1h1ZM1,188.35H0v-1H1ZM316,187h-1v-1h1ZM1,185.35H0v-1H1ZM316,184h-1v-1h1ZM1,182.35H0v-1H1ZM316,181h-1v-1h1ZM1,179.34H0v-1H1Zm315-1.4h-1v-1h1ZM1,176.34H0v-1H1Zm315-1.4h-1v-1h1ZM1,173.34H0v-1H1Zm315-1.4h-1v-1h1ZM1,170.33H0v-1H1Zm315-1.4h-1v-1h1ZM1,167.33H0v-1H1Zm315-1.4h-1v-1h1ZM1,164.33H0v-1H1Zm315-1.4h-1v-1h1ZM1,161.32H0v-1H1Zm315-1.4h-1v-1h1ZM1,158.32H0v-1H1Zm315-1.4h-1v-1h1ZM1,155.32H0v-1H1Zm315-1.4h-1v-1h1ZM1,152.31H0v-1H1Zm315-1.4h-1v-1h1ZM1,149.31H0v-1H1Zm315-1.4h-1v-1h1ZM1,146.3H0v-1H1Zm315-1.39h-1v-1h1ZM1,143.3H0v-1H1Zm315-1.4h-1v-1h1ZM1,140.3H0v-1H1Zm315-1.4h-1v-1h1ZM1,137.3H0v-1H1Zm315-1.4h-1v-1h1ZM1,134.29H0v-1H1Zm315-1.4h-1v-1h1ZM1,131.29H0v-1H1Zm315-1.4h-1v-1h1ZM1,128.28H0v-1H1Zm315-1.39h-1v-1h1ZM1,125.28H0v-1H1Zm315-1.4h-1v-1h1ZM1,122.28H0v-1H1Zm315-1.4h-1v-1h1ZM1,119.27H0v-1H1Zm315-1.39h-1v-1h1ZM1,116.27H0v-1H1Zm315-1.4h-1v-1h1ZM1,113.27H0v-1H1Zm315-1.4h-1v-1h1ZM1,110.26H0v-1H1Zm315-1.39h-1v-1h1ZM1,107.26H0v-1H1Zm315-1.4h-1v-1h1ZM1,104.26H0v-1H1Zm315-1.4h-1v-1h1ZM1,101.25H0v-1H1Zm315-1.39h-1v-1h1ZM1,98.25H0v-1H1Zm315-1.4h-1v-1h1ZM1,95.25H0v-1H1Zm315-1.4h-1v-1h1ZM1,92.24H0v-1H1Zm315-1.4h-1v-1h1ZM1,89.24H0v-1H1Zm315-1.4h-1v-1h1ZM1,86.24H0v-1H1Zm315-1.4h-1v-1h1ZM1,83.23H0v-1H1Zm315-1.39h-1v-1h1ZM0,80.23H0a6.24,6.24,0,0,1,.1-1.06l1,.19a4.81,4.81,0,0,0-.1.84ZM314.83,79a4,4,0,0,0-.33-.83l.89-.46a5.09,5.09,0,0,1,.4,1Zm-313-1.3L1,77.12a6.24,6.24,0,0,1,.7-.84l.7.71a5.09,5.09,0,0,0-.62.69Zm311.6-.93a4.58,4.58,0,0,0-.74-.5l.48-.88a5.48,5.48,0,0,1,.9.61ZM3.85,76l-.36-.92a4.43,4.43,0,0,1,1-.3l.18,1A4.73,4.73,0,0,0,3.85,76Zm307.08-.29H310v-1h1.05Zm-3,0h-1v-1h1Zm-3,0h-1v-1h1Zm-3,0h-1v-1h1Zm-3,0h-1v-1h1Zm-3,0h-1v-1h1Zm-3,0h-1v-1h1Zm-3,0h-1v-1h1Zm-3,0h-1v-1h1Zm-3,0h-1v-1h1Zm-3,0h-1v-1h1Zm-3,0h-1v-1h1Zm-3,0h-1v-1h1Zm-3,0h-1v-1h1Zm-3,0h-1v-1h1Zm-3,0h-1v-1h1Zm-3,0h-1v-1h1Zm-3,0h-1v-1h1Zm-3,0h-1v-1h1Zm-3,0h-1v-1h1Zm-3,0h-1v-1h1Zm-3,0h-1v-1h1Zm-3,0h-1v-1h1Zm-3,0h-1v-1h1Zm-3,0h-1v-1h1Zm-3,0h-1v-1h1Zm-3,0h-1v-1h1Zm-3,0h-1v-1h1Zm-3,0h-1v-1h1Zm-3,0h-1v-1h1Zm-3,0h-1v-1h1Zm-3,0h-1v-1h1Zm-3,0h-1v-1h1Zm-3,0h-1v-1h1Zm-3,0h-1v-1h1Zm-3,0h-1v-1h1Zm-3,0h-1v-1h1Zm-3,0h-1v-1h1Zm-3,0h-1v-1h1Zm-3,0h-1v-1h1Zm-3,0h-1v-1h1Zm-3,0h-1v-1h1Zm-3,0h-1v-1h1Zm-3,0h-1v-1h1Zm-3,0h-1v-1h1Zm-3,0h-1v-1h1Zm-3,0h-1v-1h1Zm-3,0h-1v-1h1Zm-3,0h-1v-1h1Zm-3,0h-1v-1h1Zm-3,0h-1v-1h1Zm-3,0h-1v-1h1Zm-3,0h-1v-1h1Zm-3,0h-1v-1h1Zm-3,0h-1v-1h1Zm-3,0h-1v-1h1Zm-3,0h-1v-1h1Zm-3,0h-1v-1h1Zm-3,0h-1v-1h1Zm-3,0h-1v-1h1Zm-3,0h-1v-1h1Zm-3,0h-1v-1h1Zm-3,0h-1v-1h1Zm-3,0h-1v-1h1Zm-3,0h-1v-1h1Zm-3,0h-1v-1h1Zm-3,0h-1v-1h1Zm-3,0h-1v-1h1Zm-3,0h-1v-1h1Zm-3,0h-1v-1h1Zm-3,0h-1v-1h1Zm-3,0h-1v-1h1Zm-3,0h-1v-1h1Zm-3,0h-1v-1h1Zm-3,0h-1v-1h1Zm-3,0h-1v-1h1Zm-3,0h-1v-1h1Zm-3,0h-1v-1h1Zm-3,0h-1v-1h1Zm-3,0h-1v-1h1Zm-3,0h-1v-1h1Zm-3,0h-1v-1h1Zm-3,0h-1v-1h1Zm-3,0h-1v-1h1Zm-3,0h-1v-1h1Zm-3,0h-1v-1h1Zm-3,0h-1v-1h1Zm-3,0h-1v-1h1Zm-3,0h-1v-1h1Zm-3,0h-1v-1h1Zm-3,0h-1v-1h1Zm-3,0h-1v-1h1Zm-3,0h-1v-1h1Zm-3,0h-1v-1h1Zm-3,0h-1v-1h1Zm-3,0h-1v-1h1Zm-3,0h-1v-1h1Zm-3,0h-1v-1h1Zm-3,0h-1v-1h1Zm-3,0h-1v-1h1Zm-3,0h-1v-1h1Zm-3,0h-1v-1h1Z"/><polygon class="cls-31" points="266.98 102.88 263.82 99.7 258 105.52 252.18 99.7 249 102.88 254.81 108.7 249 114.51 252.18 117.69 257.98 111.88 263.81 117.7 266.98 114.52 261.16 108.7 266.98 102.88"/><polygon class="cls-31" points="167.5 102.88 164.34 99.7 158.52 105.52 152.69 99.7 149.52 102.88 155.32 108.7 149.52 114.51 152.69 117.69 158.5 111.88 164.32 117.7 167.5 114.52 161.68 108.7 167.5 102.88"/><g id="ad94e297-0e86-4eaf-aac0-d146ee9aea65"><path class="cls-32" d="M54.08,82.59,49.4,77.75a2.29,2.29,0,0,1-.78.14,2.43,2.43,0,1,1,2.24-3.32h4.62v1.61H50.93a3.68,3.68,0,0,1-.26.57L55,81.22l2.34-3.57V66.47H54.19l4-4,3.94,4H59V75.2l5.93-9-6-6a1,1,0,0,0-1.41-.06l-.06.06h0L43,74.63A1,1,0,0,0,42.94,76l.06.06h0L57.44,90.59l-5.17-5.17Z"/><path class="cls-33" d="M57.34,82.8V77.63L55,81.22l1.72,1.84A1.78,1.78,0,0,1,57.34,82.8Z"/><path class="cls-33" d="M73.36,74.63l-8.47-8.47L59,75.2v7.62a2.1,2.1,0,0,1,.53.29l6.22-6.29a2.91,2.91,0,0,1-.31-.64H60.73V74.57h4.74a2.41,2.41,0,1,1,2.24,3.32,3,3,0,0,1-.67-.1l-6.62,6.66a2.18,2.18,0,0,1,.11.62,2.43,2.43,0,0,1-4.86.19,2.25,2.25,0,0,1,.14-.89l-1.73-1.72L52.24,85.4l5.17,5.17a1,1,0,0,0,1.41,0l0,0L73.33,76.1a1,1,0,0,0,0-1.41l0,0Z"/><path class="cls-34" d="M65.47,74.57H60.73v1.61H65.4a2.22,2.22,0,0,1-.12-.72A2.26,2.26,0,0,1,65.47,74.57Z"/><path class="cls-34" d="M50.93,76.18h4.55V74.57H50.86a2.26,2.26,0,0,1,.19.89A2.18,2.18,0,0,1,50.93,76.18Z"/><path class="cls-34" d="M60.42,84.45,67,77.79a2.43,2.43,0,0,1-1.33-1l-6.22,6.29A2.29,2.29,0,0,1,60.42,84.45Z"/><path class="cls-34" d="M56.77,83.06l-1.72-1.84-4.38-4.47a2.46,2.46,0,0,1-1.27,1l4.68,4.84,1.73,1.73A2.28,2.28,0,0,1,56.77,83.06Z"/><path class="cls-1" d="M62.09,66.47l-3.92-4-4,4h3.15V82.8a1.73,1.73,0,0,0-.57.26,2.34,2.34,0,0,0-1,1.31,2.41,2.41,0,0,0,4.57,1.54s0-.09,0-.14a2.38,2.38,0,0,0,.11-.7,2.66,2.66,0,0,0-1-2,2.1,2.1,0,0,0-.53-.29V66.47Zm-3.92,20a1.35,1.35,0,1,1,1.34-1.36h0a1.35,1.35,0,0,1-1.34,1.3Z"/><path class="cls-1" d="M50.67,76.75a3.68,3.68,0,0,0,.26-.57,2.18,2.18,0,0,0,.12-.72,2.26,2.26,0,0,0-.19-.89,2.41,2.41,0,1,0-2.24,3.32,2.29,2.29,0,0,0,.78-.14A2.46,2.46,0,0,0,50.67,76.75Zm-2.05,0A1.34,1.34,0,1,1,50,75.41h0a1.33,1.33,0,0,1-1.27,1.39h-.07Z"/><path class="cls-1" d="M67,77.79a3,3,0,0,0,.67.1,2.43,2.43,0,1,0-2.24-3.32,2.26,2.26,0,0,0-.19.89,2.22,2.22,0,0,0,.12.72,2.91,2.91,0,0,0,.31.64A2.45,2.45,0,0,0,67,77.79Zm.67-3.66a1.34,1.34,0,0,1,1.18,1.48h0a1.34,1.34,0,1,1-1.48-1.49Z"/><path class="cls-35" d="M58.17,83.73a1.35,1.35,0,1,0,1.34,1.36v0h0A1.34,1.34,0,0,0,58.17,83.73Z"/><circle class="cls-35" cx="48.62" cy="75.46" r="1.34"/><path class="cls-35" d="M67.71,76.81a1.35,1.35,0,1,0-1.34-1.36h0A1.36,1.36,0,0,0,67.71,76.81Z"/></g><g id="ad94e297-0e86-4eaf-aac0-d146ee9aea65-2"><path class="cls-32" d="M154.14,82.59l-4.68-4.84a2.29,2.29,0,0,1-.78.14,2.43,2.43,0,1,1,2.24-3.32h4.62v1.61H151a3.68,3.68,0,0,1-.26.57l4.33,4.47,2.34-3.57V66.47h-3.15l4-4,3.94,4H159V75.2l5.92-9-6-6a1,1,0,0,0-1.41-.06l-.06.06h0L143,74.63a1,1,0,0,0-.06,1.41l.06.06h0l14.5,14.49-5.17-5.17Z"/><path class="cls-33" d="M157.4,82.8V77.63l-2.34,3.59,1.72,1.84A1.78,1.78,0,0,1,157.4,82.8Z"/><path class="cls-33" d="M173.42,74.63l-8.48-8.47-5.92,9v7.62a2.1,2.1,0,0,1,.53.29l6.22-6.29a2.91,2.91,0,0,1-.31-.64h-4.67V74.57h4.74a2.41,2.41,0,1,1,2.24,3.32,3,3,0,0,1-.67-.1l-6.62,6.66a2.6,2.6,0,0,1,.11.62,2.43,2.43,0,0,1-4.86.16,2.53,2.53,0,0,1,.13-.86l-1.72-1.72L152.3,85.4l5.17,5.17a1,1,0,0,0,1.41,0l0,0L173.39,76.1a1,1,0,0,0,.05-1.41s0,0-.05,0Z"/><path class="cls-34" d="M165.53,74.57h-4.74v1.61h4.67a2.18,2.18,0,0,1-.12-.72A2.26,2.26,0,0,1,165.53,74.57Z"/><path class="cls-34" d="M151,76.18h4.55V74.57h-4.62a2.26,2.26,0,0,1,.19.89A2.18,2.18,0,0,1,151,76.18Z"/><path class="cls-34" d="M160.48,84.45l6.62-6.66a2.43,2.43,0,0,1-1.33-1l-6.22,6.29A2.27,2.27,0,0,1,160.48,84.45Z"/><path class="cls-34" d="M156.83,83.06l-1.72-1.84-4.38-4.47a2.46,2.46,0,0,1-1.27,1l4.68,4.84,1.72,1.73A2.38,2.38,0,0,1,156.83,83.06Z"/><path class="cls-1" d="M162.15,66.47l-3.92-4-4,4h3.15V82.8a1.73,1.73,0,0,0-.57.26,2.38,2.38,0,0,0-1,1.31,2.41,2.41,0,1,0,4.62,1.4h0a2.76,2.76,0,0,0,.11-.7,2.6,2.6,0,0,0-.11-.62,2.24,2.24,0,0,0-.93-1.34,2.1,2.1,0,0,0-.53-.29V66.47Zm-3.92,20a1.35,1.35,0,1,1,1.34-1.36h0a1.35,1.35,0,0,1-1.34,1.3Z"/><path class="cls-1" d="M150.73,76.75a3.68,3.68,0,0,0,.26-.57,2.18,2.18,0,0,0,.12-.72,2.26,2.26,0,0,0-.19-.89,2.41,2.41,0,1,0-2.24,3.32,2.29,2.29,0,0,0,.78-.14A2.46,2.46,0,0,0,150.73,76.75Zm-2,0A1.34,1.34,0,1,1,150,75.34v.07h0a1.33,1.33,0,0,1-1.27,1.39h0Z"/><path class="cls-1" d="M167.1,77.79a3,3,0,0,0,.67.1,2.43,2.43,0,1,0-2.24-3.32,2.26,2.26,0,0,0-.19.89,2.18,2.18,0,0,0,.12.72,2.91,2.91,0,0,0,.31.64A2.45,2.45,0,0,0,167.1,77.79Zm.67-3.66A1.35,1.35,0,0,1,169,75.57v.05a1.34,1.34,0,1,1-1.48-1.49Z"/><path class="cls-35" d="M158.23,83.73a1.35,1.35,0,1,0,1.34,1.36v0h0A1.34,1.34,0,0,0,158.23,83.73Z"/><circle class="cls-35" cx="148.68" cy="75.46" r="1.34"/><path class="cls-35" d="M167.77,76.81a1.35,1.35,0,1,0-1.34-1.36h0A1.36,1.36,0,0,0,167.77,76.81Z"/></g><g id="ad94e297-0e86-4eaf-aac0-d146ee9aea65-3"><path class="cls-32" d="M254.18,82.59l-4.69-4.84a2.28,2.28,0,0,1-.77.14A2.43,2.43,0,1,1,251,74.57h4.61v1.61H251a3.68,3.68,0,0,1-.26.57l4.32,4.47,2.35-3.57V66.47h-3.16l4-4,3.95,4H259V75.2l5.93-9-6-6a1,1,0,0,0-1.41-.05l-.05.05h0L243.07,74.63A1,1,0,0,0,243,76l.06.06h0l14.47,14.47-5.17-5.17Z"/><path class="cls-33" d="M257.44,82.8V77.63l-2.35,3.59,1.72,1.84A1.59,1.59,0,0,1,257.44,82.8Z"/><path class="cls-33" d="M273.46,74.63,265,66.16l-5.93,9v7.62a2.16,2.16,0,0,1,.54.29l6.22-6.29a2.53,2.53,0,0,1-.31-.64h-4.67V74.57h4.74a2.41,2.41,0,1,1,2.24,3.32,3.1,3.1,0,0,1-.68-.1l-6.61,6.66a2.17,2.17,0,0,1,.1.62,2.43,2.43,0,1,1-4.84.44,2.18,2.18,0,0,1,0-.25,2.47,2.47,0,0,1,.13-.89l-1.72-1.72-1.84,2.75,5.16,5.17a1,1,0,0,0,1.41,0l0,0L273.42,76.1a1,1,0,0,0,.05-1.41l-.05,0Z"/><path class="cls-34" d="M265.57,74.57h-4.74v1.61h4.67a2.18,2.18,0,0,1-.12-.72A2.09,2.09,0,0,1,265.57,74.57Z"/><path class="cls-34" d="M251,76.18h4.54V74.57H251a2.26,2.26,0,0,1,.19.89A2.94,2.94,0,0,1,251,76.18Z"/><path class="cls-34" d="M260.52,84.45l6.61-6.66a2.44,2.44,0,0,1-1.32-1l-6.22,6.29A2.3,2.3,0,0,1,260.52,84.45Z"/><path class="cls-34" d="M256.87,83.06l-1.73-1.84-4.37-4.47a2.45,2.45,0,0,1-1.28,1l4.69,4.84,1.72,1.73A2.38,2.38,0,0,1,256.87,83.06Z"/><path class="cls-1" d="M262.19,66.47l-3.93-4-4,4h3.16V82.8a1.73,1.73,0,0,0-.57.26,2.38,2.38,0,0,0-1,1.31,2.41,2.41,0,0,0,4.62,1.4h0a2.37,2.37,0,0,0,.1-.7,2.17,2.17,0,0,0-.1-.62,2.36,2.36,0,0,0-.93-1.34,2.16,2.16,0,0,0-.54-.29V66.47Zm-3.93,20a1.35,1.35,0,1,1,1.35-1.35h0a1.35,1.35,0,0,1-1.35,1.3Z"/><path class="cls-1" d="M250.77,76.75a3.68,3.68,0,0,0,.26-.57,2.93,2.93,0,0,0,.12-.72,2.26,2.26,0,0,0-.19-.89,2.41,2.41,0,1,0-2.24,3.32,2.28,2.28,0,0,0,.77-.14A2.45,2.45,0,0,0,250.77,76.75Zm-2.05,0a1.34,1.34,0,1,1,1.34-1.34h0a1.33,1.33,0,0,1-1.27,1.39h-.07Z"/><path class="cls-1" d="M267.13,77.79a3.1,3.1,0,0,0,.68.1,2.43,2.43,0,1,0-2.24-3.32,2.09,2.09,0,0,0-.19.89,2.18,2.18,0,0,0,.12.72,2.53,2.53,0,0,0,.31.64A2.39,2.39,0,0,0,267.13,77.79Zm.68-3.66a1.34,1.34,0,1,1-.31,0Z"/><path class="cls-35" d="M258.26,83.73a1.35,1.35,0,1,0,1.35,1.35h0A1.36,1.36,0,0,0,258.26,83.73Z"/><circle class="cls-35" cx="248.72" cy="75.46" r="1.34"/><path class="cls-35" d="M267.81,76.81a1.35,1.35,0,1,0-1.35-1.35h0a1.34,1.34,0,0,0,1.35,1.35Z"/></g></g></g><g id="Text"><path class="cls-36" d="M52,31.92V35.2H51V26.57h2.33a3.1,3.1,0,0,1,2.12.68,2.41,2.41,0,0,1,.75,1.89,2.56,2.56,0,0,1-.89,2,3,3,0,0,1-2.21.74Zm0-4.47V31h1.09a2.41,2.41,0,0,0,1.62-.48,1.72,1.72,0,0,0,.56-1.37c0-1.16-.69-1.74-2-1.74Z"/><path class="cls-36" d="M58.84,35.2H57.9V26.57h.94Z"/><path class="cls-36" d="M62.07,31.92V35.2h-.94V26.57h2.33a3.1,3.1,0,0,1,2.12.68,2.41,2.41,0,0,1,.75,1.89,2.56,2.56,0,0,1-.89,2,3,3,0,0,1-2.21.74Zm0-4.47V31h1.09a2.41,2.41,0,0,0,1.62-.48,1.72,1.72,0,0,0,.56-1.37c0-1.16-.69-1.74-2.05-1.74Z"/><path class="cls-36" d="M55,48.35H54L53,45.9H49.33l-.88,2.45H47.4l3.32-8.62h1ZM52.7,45l-1.38-3.72a2.78,2.78,0,0,1-.12-.57h0a2.9,2.9,0,0,1-.14.57L49.66,45Z"/><path class="cls-36" d="M62.26,39.91l-5.09,7.57h5v.87H55.73v-.23l5-7.52H56.14v-.87h6.12Z"/><path class="cls-36" d="M66.71,48.35h-.94V40.9a3.68,3.68,0,0,1-.87.59,5,5,0,0,1-1.12.43v-1a6.57,6.57,0,0,0,1.38-.59,6.18,6.18,0,0,0,1.17-.8h.38Z"/><path class="cls-36" d="M151.9,31.92V35.2H151V26.57h2.32a3.07,3.07,0,0,1,2.12.68,2.39,2.39,0,0,1,.76,1.89,2.59,2.59,0,0,1-.89,2,3,3,0,0,1-2.22.74Zm0-4.47V31H153a2.41,2.41,0,0,0,1.62-.48,1.69,1.69,0,0,0,.56-1.37c0-1.16-.68-1.74-2-1.74Z"/><path class="cls-36" d="M158.76,35.2h-.95V26.57h.95Z"/><path class="cls-36" d="M162,31.92V35.2h-.94V26.57h2.32a3.07,3.07,0,0,1,2.12.68,2.39,2.39,0,0,1,.76,1.89,2.59,2.59,0,0,1-.89,2,3,3,0,0,1-2.22.74Zm0-4.47V31h1.08a2.41,2.41,0,0,0,1.62-.48,1.69,1.69,0,0,0,.56-1.37c0-1.16-.68-1.74-2.05-1.74Z"/><path class="cls-36" d="M154.93,48.35h-1.05l-.94-2.45h-3.7l-.87,2.45h-1.06l3.32-8.62h1ZM152.62,45l-1.38-3.72a3.51,3.51,0,0,1-.13-.57h0a2.32,2.32,0,0,1-.14.57L149.58,45Z"/><path class="cls-36" d="M162.18,39.91l-5.1,7.57h5v.87h-6.4v-.23l5-7.52h-4.64v-.87h6.13Z"/><path class="cls-36" d="M167.16,42a1.57,1.57,0,0,0-.46-1.21,1.64,1.64,0,0,0-1.21-.44,2.4,2.4,0,0,0-1.08.27,3.54,3.54,0,0,0-1,.77v-1a3,3,0,0,1,2.17-.82,2.5,2.5,0,0,1,1.78.63,2.27,2.27,0,0,1,.68,1.73,3,3,0,0,1-.44,1.63A5.17,5.17,0,0,1,166.16,45a13.91,13.91,0,0,0-1.37,1,2.35,2.35,0,0,0-.54.68,1.75,1.75,0,0,0-.15.76h4.18v.84h-5.17v-.42a3.34,3.34,0,0,1,.19-1.21,3,3,0,0,1,.66-1,10.12,10.12,0,0,1,1.47-1.18,5.21,5.21,0,0,0,1.33-1.22A2.21,2.21,0,0,0,167.16,42Z"/><path class="cls-36" d="M18.2,10.27H17.15l-.94-2.45H12.52l-.88,2.45H10.59L13.9,1.64h1ZM15.89,7,14.51,3.22a3.13,3.13,0,0,1-.13-.56h0a2.12,2.12,0,0,1-.15.56L12.85,7Z"/><path class="cls-36" d="M25.45,1.83,20.36,9.4h5v.87h-6.4V10l5-7.53H19.32V1.64h6.13Z"/><path class="cls-36" d="M29.89,10.27H29V2.82a3.59,3.59,0,0,1-.88.58A4.81,4.81,0,0,1,27,3.84v-1a6.57,6.57,0,0,0,1.38-.59,6,6,0,0,0,1.17-.8h.37Z"/><path class="cls-36" d="M118.24,10.27h-1l-.94-2.45h-3.69l-.88,2.45h-1.05L114,1.64h1ZM115.93,7l-1.37-3.73a2,2,0,0,1-.13-.56h0a2.75,2.75,0,0,1-.14.56L112.89,7Z"/><path class="cls-36" d="M125.5,1.83,120.4,9.4h5v.87H119V10l5-7.53h-4.63V1.64h6.13Z"/><path class="cls-36" d="M130.48,3.94A1.62,1.62,0,0,0,130,2.73a1.7,1.7,0,0,0-1.21-.44,2.41,2.41,0,0,0-1.08.28,3.4,3.4,0,0,0-1,.77v-1a3,3,0,0,1,2.17-.83,2.49,2.49,0,0,1,1.79.64,2.26,2.26,0,0,1,.67,1.72A3,3,0,0,1,131,5.49a5.37,5.37,0,0,1-1.48,1.45,13.47,13.47,0,0,0-1.36,1,2.33,2.33,0,0,0-.54.67,1.67,1.67,0,0,0-.16.76h4.18v.85h-5.17V9.85a3.29,3.29,0,0,1,.2-1.21,2.94,2.94,0,0,1,.65-1,9.66,9.66,0,0,1,1.48-1.18,5.32,5.32,0,0,0,1.32-1.22A2.22,2.22,0,0,0,130.48,3.94Z"/><path class="cls-36" d="M251.94,31.92V35.2H251V26.57h2.33a3.06,3.06,0,0,1,2.11.68,2.39,2.39,0,0,1,.76,1.89,2.56,2.56,0,0,1-.89,2,3,3,0,0,1-2.21.74Zm0-4.47V31H253a2.45,2.45,0,0,0,1.62-.48,1.72,1.72,0,0,0,.56-1.37c0-1.16-.69-1.74-2.05-1.74Z"/><path class="cls-36" d="M258.8,35.2h-.95V26.57h.95Z"/><path class="cls-36" d="M262,31.92V35.2h-.94V26.57h2.33a3.06,3.06,0,0,1,2.11.68,2.39,2.39,0,0,1,.76,1.89,2.56,2.56,0,0,1-.89,2,3,3,0,0,1-2.21.74Zm0-4.47V31h1.09a2.45,2.45,0,0,0,1.62-.48,1.72,1.72,0,0,0,.56-1.37c0-1.16-.69-1.74-2.05-1.74Z"/><path class="cls-36" d="M255,48.35h-1.05L253,45.9h-3.7l-.87,2.45h-1l3.31-8.62h1ZM252.66,45l-1.38-3.72a3.51,3.51,0,0,1-.13-.57h0a2.32,2.32,0,0,1-.14.57L249.62,45Z"/><path class="cls-36" d="M262.22,39.91l-5.1,7.57h5v.87h-6.4v-.23l5-7.52h-4.64v-.87h6.13Z"/><path class="cls-36" d="M263.26,47a3.13,3.13,0,0,0,2,.71,2.26,2.26,0,0,0,1.46-.46,1.53,1.53,0,0,0,.55-1.24c0-1.15-.81-1.73-2.43-1.73h-.72v-.79h.68c1.45,0,2.17-.54,2.17-1.61s-.55-1.5-1.65-1.5a2.75,2.75,0,0,0-1.72.63v-.93a3.72,3.72,0,0,1,2-.49,2.51,2.51,0,0,1,1.7.56,1.89,1.89,0,0,1,.67,1.49,2.13,2.13,0,0,1-1.73,2.19v0a2.28,2.28,0,0,1,1.48.65,2,2,0,0,1,.56,1.41,2.29,2.29,0,0,1-.86,1.88,3.29,3.29,0,0,1-2.16.71,3.57,3.57,0,0,1-1.94-.47Z"/><path class="cls-36" d="M83.1,90.37h-1l-.94-2.45H77.42l-.88,2.45H75.49l3.31-8.63h1Zm-2.31-3.32-1.38-3.73a2.53,2.53,0,0,1-.12-.56h0a2.75,2.75,0,0,1-.14.56l-1.37,3.73Z"/><path class="cls-36" d="M90.35,81.93,85.26,89.5h5v.87h-6.4v-.23l5-7.52H84.22v-.88h6.13Z"/><path class="cls-36" d="M94.79,90.37h-.93V82.92a3.59,3.59,0,0,1-.88.58,4.81,4.81,0,0,1-1.11.44v-1a6.57,6.57,0,0,0,1.38-.59,6,6,0,0,0,1.17-.8h.37Z"/><path class="cls-36" d="M36.43,203.39h-1l-.94-2.45h-3.7l-.87,2.45H28.81l3.32-8.63h1Zm-2.31-3.32-1.38-3.72a3.51,3.51,0,0,1-.13-.57h0a2.32,2.32,0,0,1-.14.57l-1.36,3.72Z"/><path class="cls-36" d="M43.68,195l-5.1,7.57h5v.87h-6.4v-.23l5-7.52H37.55v-.88h6.13Z"/><path class="cls-36" d="M48.12,203.39h-.93v-7.45a3.59,3.59,0,0,1-.88.58,5.19,5.19,0,0,1-1.11.44v-1a6.08,6.08,0,0,0,1.38-.59,6.92,6.92,0,0,0,1.17-.79h.37Z"/><path class="cls-36" d="M183,90.37H182L181,87.92h-3.7l-.87,2.45H175.4l3.32-8.63h1Zm-2.31-3.32-1.38-3.73a3.13,3.13,0,0,1-.13-.56h0a2.21,2.21,0,0,1-.14.56l-1.36,3.73Z"/><path class="cls-36" d="M190.27,81.93l-5.1,7.57h5v.87h-6.4v-.23l5-7.52h-4.64v-.88h6.13Z"/><path class="cls-36" d="M195.25,84a1.58,1.58,0,0,0-.46-1.21,1.68,1.68,0,0,0-1.21-.44,2.41,2.41,0,0,0-1.08.28,3.37,3.37,0,0,0-1,.77v-1a3,3,0,0,1,2.17-.83,2.46,2.46,0,0,1,1.78.64,2.27,2.27,0,0,1,.68,1.72,3,3,0,0,1-.44,1.63A5.31,5.31,0,0,1,194.25,87a13.91,13.91,0,0,0-1.37,1,2.33,2.33,0,0,0-.54.67,1.81,1.81,0,0,0-.15.76h4.18v.85H191.2V90a3.31,3.31,0,0,1,.19-1.21,2.83,2.83,0,0,1,.66-1,9.48,9.48,0,0,1,1.47-1.18,5.39,5.39,0,0,0,1.33-1.22A2.22,2.22,0,0,0,195.25,84Z"/><path class="cls-36" d="M283.06,90.37H282l-.94-2.45h-3.7l-.87,2.45h-1.05l3.31-8.63h1Zm-2.31-3.32-1.38-3.73a3.13,3.13,0,0,1-.13-.56h0a2.21,2.21,0,0,1-.14.56l-1.36,3.73Z"/><path class="cls-36" d="M290.31,81.93l-5.1,7.57h5v.87h-6.4v-.23l5-7.52h-4.64v-.88h6.13Z"/><path class="cls-36" d="M291.35,89a3.12,3.12,0,0,0,2,.7,2.25,2.25,0,0,0,1.46-.45,1.53,1.53,0,0,0,.55-1.24c0-1.15-.81-1.73-2.43-1.73h-.72v-.79h.68c1.45,0,2.17-.54,2.17-1.62s-.55-1.49-1.65-1.49a2.75,2.75,0,0,0-1.72.63v-.94a3.81,3.81,0,0,1,1.95-.49,2.51,2.51,0,0,1,1.7.57,1.87,1.87,0,0,1,.67,1.48,2.14,2.14,0,0,1-1.73,2.2v0a2.23,2.23,0,0,1,1.48.65,2,2,0,0,1,.56,1.41,2.32,2.32,0,0,1-.86,1.88,3.28,3.28,0,0,1-2.16.7,3.57,3.57,0,0,1-1.94-.46Z"/><path class="cls-36" d="M218.28,10.27h-1.05l-.93-2.45h-3.7l-.87,2.45h-1.06L214,1.64h1ZM216,7,214.6,3.22a2.45,2.45,0,0,1-.13-.56h0a2.21,2.21,0,0,1-.14.56L212.93,7Z"/><path class="cls-36" d="M225.54,1.83l-5.1,7.57h5v.87H219V10l5-7.53h-4.63V1.64h6.13Z"/><path class="cls-36" d="M226.57,8.92a3.15,3.15,0,0,0,2,.7A2.22,2.22,0,0,0,230,9.17a1.54,1.54,0,0,0,.56-1.24c0-1.15-.81-1.73-2.44-1.73h-.71V5.41h.68q2.16,0,2.16-1.62c0-1-.55-1.49-1.64-1.49a2.73,2.73,0,0,0-1.72.63V2a3.81,3.81,0,0,1,2-.49,2.53,2.53,0,0,1,1.7.57,1.86,1.86,0,0,1,.66,1.48,2.14,2.14,0,0,1-1.73,2.2v0a2.26,2.26,0,0,1,1.49.65,1.94,1.94,0,0,1,.55,1.41,2.31,2.31,0,0,1-.85,1.88,3.29,3.29,0,0,1-2.17.7,3.6,3.6,0,0,1-1.94-.46Z"/><path class="cls-36" d="M140.88,133.32a9.67,9.67,0,0,1-1.82-1.89,6.42,6.42,0,0,1-1.08-2,7.14,7.14,0,0,1-1.09,2.09,9.41,9.41,0,0,1-1.79,1.91l-.69-.61a7.11,7.11,0,0,0,2.27-2.48,6.14,6.14,0,0,0,.85-3.07v-1.92h.89v1.87a5.81,5.81,0,0,0,.83,3,7,7,0,0,0,2.26,2.38Zm2.25,3v-7.06h-2.7v-.81h2.7v-3.84h.9v11.71Z"/><path class="cls-36" d="M146.66,134.33v-.82H157.4v.82Zm1.79-3.27V125.6h.9v1.88h5.35V125.6h.9v5.46Zm6.25-2.76h-5.35v1.94h5.35Z"/><path class="cls-36" d="M164.74,130.46a44,44,0,0,1-4.75.19v-5.31h.88v4.52a29.33,29.33,0,0,0,3.8-.18Zm4.18,5.57a6.55,6.55,0,0,1-2.36-1.1,5.76,5.76,0,0,1-1.7-1.77,4.79,4.79,0,0,1-1.59,1.74,6.41,6.41,0,0,1-2.4,1.13l-.57-.78a5.4,5.4,0,0,0,2.84-1.32,3.07,3.07,0,0,0,1.28-2.17v-.28h.9v.27a3.05,3.05,0,0,0,1.25,2.15,5.44,5.44,0,0,0,2.86,1.35Zm-3.27-4.46V128H163v-.79h2.66V124.8h.87v6.77Zm2.09.86v-7.85h.88v7.85Z"/><path class="cls-36" d="M182.6,135.2h-1.07l-1-2.54h-3.79l-.89,2.54h-1.08l3.39-8.94h1Zm-2.36-3.44-1.41-3.86a2.7,2.7,0,0,1-.14-.59h0a2.41,2.41,0,0,1-.14.59l-1.4,3.86Z"/><path class="cls-36" d="M37.75,181.48l-3.22,8.77h-1l-3.15-8.77H31.4l2.44,7a4.66,4.66,0,0,1,.17.77h0a3.4,3.4,0,0,1,.19-.78l2.49-7Z"/><path class="cls-36" d="M46.78,190.25v-5.92c0-.46,0-1,.09-1.69h0a5.11,5.11,0,0,1-.25.83l-3,6.78h-.43l-3-6.74a4.65,4.65,0,0,1-.25-.87h0c0,.22,0,.77,0,1.67v5.94H39v-8.77h1.24l2.7,6.18a8.94,8.94,0,0,1,.41,1h0c.06-.16.2-.51.43-1.06l2.77-6.15h1.17v8.77Z"/><path class="cls-36" d="M73.09,203.39H72l-.94-2.45H67.41l-.88,2.45h-1l3.31-8.63h1Zm-2.31-3.32-1.38-3.72a3.51,3.51,0,0,1-.13-.57h0a2.22,2.22,0,0,1-.15.57l-1.36,3.72Z"/><path class="cls-36" d="M80.34,195l-5.09,7.57h5v.87h-6.4v-.23l5-7.52H74.21v-.88h6.13Z"/><path class="cls-36" d="M84.78,203.39h-.93v-7.45a3.59,3.59,0,0,1-.88.58,4.81,4.81,0,0,1-1.11.44v-1a6.08,6.08,0,0,0,1.38-.59,6.54,6.54,0,0,0,1.17-.79h.37Z"/><path class="cls-36" d="M74.42,181.48l-3.23,8.77h-1L67,181.48h1.06l2.44,7a4.66,4.66,0,0,1,.17.77h0a3.4,3.4,0,0,1,.19-.78l2.5-7Z"/><path class="cls-36" d="M83.44,190.25v-5.92c0-.46,0-1,.09-1.69h0a5.11,5.11,0,0,1-.25.83l-3,6.78H79.8l-3-6.74a4.65,4.65,0,0,1-.25-.87h0c0,.22,0,.77,0,1.67v5.94h-.92v-8.77h1.24l2.7,6.18a8.94,8.94,0,0,1,.41,1h0c0-.16.2-.51.42-1.06l2.77-6.15h1.17v8.77Z"/><path class="cls-36" d="M136.37,203.39h-1.05l-.93-2.45h-3.7l-.87,2.45h-1.06l3.32-8.63h1Zm-2.31-3.32-1.37-3.72a2.7,2.7,0,0,1-.13-.57h0a2.32,2.32,0,0,1-.14.57L131,200.07Z"/><path class="cls-36" d="M143.63,195l-5.1,7.57h5v.87h-6.41v-.23l5-7.52H137.5v-.88h6.13Z"/><path class="cls-36" d="M148.61,197.07a1.61,1.61,0,0,0-.46-1.22,1.68,1.68,0,0,0-1.21-.44,2.41,2.41,0,0,0-1.08.28,3.37,3.37,0,0,0-1,.77v-1a3,3,0,0,1,2.17-.83,2.52,2.52,0,0,1,1.78.64,2.27,2.27,0,0,1,.68,1.72,3.07,3.07,0,0,1-.44,1.64,5.59,5.59,0,0,1-1.47,1.44,12.76,12.76,0,0,0-1.37,1.05,2.23,2.23,0,0,0-.54.68,1.73,1.73,0,0,0-.16.75h4.19v.85h-5.18V203a3.29,3.29,0,0,1,.2-1.21,2.92,2.92,0,0,1,.66-1,9.58,9.58,0,0,1,1.47-1.18,5.21,5.21,0,0,0,1.33-1.22A2.28,2.28,0,0,0,148.61,197.07Z"/><path class="cls-36" d="M137.7,181.48l-3.22,8.77h-1l-3.16-8.77h1.07l2.43,7a3.83,3.83,0,0,1,.17.77h0a3.45,3.45,0,0,1,.2-.78l2.49-7Z"/><path class="cls-36" d="M146.73,190.25v-5.92c0-.46,0-1,.09-1.69h0a4.9,4.9,0,0,1-.26.83l-3,6.78h-.43l-3-6.74a4,4,0,0,1-.25-.87h0c0,.22,0,.77,0,1.67v5.94h-.93v-8.77h1.24l2.71,6.18a8.31,8.31,0,0,1,.4,1h0l.42-1.06,2.77-6.15h1.17v8.77Z"/><path class="cls-36" d="M173.23,203.39h-1l-.94-2.45h-3.7l-.87,2.45h-1.06l3.32-8.63h1Zm-2.31-3.32-1.38-3.72a3.51,3.51,0,0,1-.13-.57h0a2.32,2.32,0,0,1-.14.57l-1.36,3.72Z"/><path class="cls-36" d="M180.48,195l-5.1,7.57h5v.87H174v-.23l5-7.52h-4.64v-.88h6.13Z"/><path class="cls-36" d="M185.46,197.07a1.61,1.61,0,0,0-.46-1.22,1.68,1.68,0,0,0-1.21-.44,2.41,2.41,0,0,0-1.08.28,3.37,3.37,0,0,0-1,.77v-1a3,3,0,0,1,2.17-.83,2.5,2.5,0,0,1,1.78.64,2.27,2.27,0,0,1,.68,1.72,3.07,3.07,0,0,1-.44,1.64,5.44,5.44,0,0,1-1.47,1.44,13.91,13.91,0,0,0-1.37,1.05,2.23,2.23,0,0,0-.54.68,1.73,1.73,0,0,0-.15.75h4.18v.85h-5.17V203a3.31,3.31,0,0,1,.19-1.21,2.92,2.92,0,0,1,.66-1,10.12,10.12,0,0,1,1.47-1.18,5.21,5.21,0,0,0,1.33-1.22A2.21,2.21,0,0,0,185.46,197.07Z"/><path class="cls-36" d="M174.55,181.48l-3.22,8.77h-1l-3.15-8.77h1.06l2.44,7a4.66,4.66,0,0,1,.17.77h0a3.4,3.4,0,0,1,.19-.78l2.49-7Z"/><path class="cls-36" d="M183.58,190.25v-5.92c0-.46,0-1,.09-1.69h0a6.41,6.41,0,0,1-.25.83l-3,6.78h-.43l-3-6.74a4.65,4.65,0,0,1-.25-.87h0c0,.22,0,.77,0,1.67v5.94h-.92v-8.77H177l2.7,6.18a8.94,8.94,0,0,1,.41,1h0c.06-.16.2-.51.43-1.06l2.77-6.15h1.17v8.77Z"/><path class="cls-36" d="M236.51,203.39h-1l-.94-2.45h-3.69l-.88,2.45h-1l3.31-8.63h1Zm-2.31-3.32-1.38-3.72a2.78,2.78,0,0,1-.12-.57h0a2.9,2.9,0,0,1-.14.57l-1.37,3.72Z"/><path class="cls-36" d="M243.76,195l-5.09,7.57h5v.87h-6.4v-.23l5-7.52h-4.64v-.88h6.13Z"/><path class="cls-36" d="M244.8,202a3.12,3.12,0,0,0,2,.7,2.25,2.25,0,0,0,1.46-.45,1.53,1.53,0,0,0,.55-1.24c0-1.15-.81-1.73-2.43-1.73h-.71v-.79h.68q2.16,0,2.16-1.62c0-1-.55-1.49-1.65-1.49a2.75,2.75,0,0,0-1.72.63v-.94a3.82,3.82,0,0,1,2-.49,2.51,2.51,0,0,1,1.69.57,1.84,1.84,0,0,1,.67,1.48,2.14,2.14,0,0,1-1.73,2.2v0a2.23,2.23,0,0,1,1.48.65,2,2,0,0,1,.56,1.41,2.33,2.33,0,0,1-.85,1.88,3.29,3.29,0,0,1-2.17.7,3.6,3.6,0,0,1-1.94-.46Z"/><path class="cls-36" d="M237.84,181.48l-3.23,8.77h-1l-3.15-8.77h1.07l2.43,7a4.66,4.66,0,0,1,.17.77h0a4,4,0,0,1,.19-.78l2.5-7Z"/><path class="cls-36" d="M246.86,190.25v-5.92c0-.46,0-1,.09-1.69h0a4.26,4.26,0,0,1-.25.83l-3,6.78h-.43l-3-6.74a4.11,4.11,0,0,1-.24-.87h0c0,.22,0,.77,0,1.67v5.94h-.92v-8.77h1.24l2.71,6.18a8.31,8.31,0,0,1,.4,1h0l.42-1.06,2.77-6.15h1.17v8.77Z"/><path class="cls-36" d="M273.27,203.39h-1l-.94-2.45h-3.7l-.87,2.45h-1l3.31-8.63h1ZM271,200.07l-1.38-3.72a3.51,3.51,0,0,1-.13-.57h0a2.32,2.32,0,0,1-.14.57l-1.36,3.72Z"/><path class="cls-36" d="M280.52,195l-5.1,7.57h5v.87H274v-.23l5-7.52h-4.64v-.88h6.13Z"/><path class="cls-36" d="M281.56,202a3.12,3.12,0,0,0,2,.7,2.25,2.25,0,0,0,1.46-.45,1.53,1.53,0,0,0,.55-1.24c0-1.15-.81-1.73-2.43-1.73h-.72v-.79h.68c1.45,0,2.17-.54,2.17-1.62s-.55-1.49-1.65-1.49a2.75,2.75,0,0,0-1.72.63v-.94a3.81,3.81,0,0,1,1.95-.49,2.51,2.51,0,0,1,1.7.57,1.87,1.87,0,0,1,.67,1.48,2.14,2.14,0,0,1-1.73,2.2v0a2.23,2.23,0,0,1,1.48.65,2,2,0,0,1,.56,1.41,2.31,2.31,0,0,1-.86,1.88,3.28,3.28,0,0,1-2.16.7,3.57,3.57,0,0,1-1.94-.46Z"/><path class="cls-36" d="M274.59,181.48l-3.22,8.77h-1l-3.15-8.77h1.06l2.44,7a4.66,4.66,0,0,1,.17.77h0a3.4,3.4,0,0,1,.19-.78l2.5-7Z"/><path class="cls-36" d="M283.62,190.25v-5.92c0-.46,0-1,.09-1.69h0a5.11,5.11,0,0,1-.25.83l-3,6.78H280l-3-6.74a4.65,4.65,0,0,1-.25-.87h0a14,14,0,0,1,.05,1.67v5.94h-.92v-8.77h1.24l2.7,6.18a8.94,8.94,0,0,1,.41,1h0c.05-.16.2-.51.42-1.06l2.77-6.15h1.17v8.77Z"/><path class="cls-36" d="M16.39,240.64q-.12,4.89-5.1,7.75l-.68-.72a8.58,8.58,0,0,0,3.2-2.41,7,7,0,0,0,1.64-3.83H11.09v-.79Zm2.8,4.5v6h-.88V239.62h.88v4.73h2v.79Z"/><path class="cls-36" d="M28.43,245.62a7.27,7.27,0,0,1-1.56-1.18A5.47,5.47,0,0,1,25.76,243a5.69,5.69,0,0,1-1.09,1.58,6.87,6.87,0,0,1-1.61,1.31l-.64-.61a5.62,5.62,0,0,0,2.07-1.74,3.92,3.92,0,0,0,.83-2.35V240h.84v1.2a3.52,3.52,0,0,0,.84,2.21A5.15,5.15,0,0,0,29,245ZM27.79,251a5.1,5.1,0,0,1-2.74-.62,1.88,1.88,0,0,1-1-1.62,1.85,1.85,0,0,1,1-1.6,5.06,5.06,0,0,1,2.73-.62,5.06,5.06,0,0,1,2.73.62,1.82,1.82,0,0,1,0,3.22A5.06,5.06,0,0,1,27.79,251Zm0-3.7a4.22,4.22,0,0,0-2,.4,1.16,1.16,0,0,0,0,2.14,4.22,4.22,0,0,0,2,.4,4.25,4.25,0,0,0,2.05-.41,1.14,1.14,0,0,0,0-2.12A4.25,4.25,0,0,0,27.79,247.31Zm3.5-3.74v2.67h-.87v-6.62h.87v3.14H33v.81Z"/><path class="cls-36" d="M16,260.85a32.16,32.16,0,0,1-4.83.21v-7.38h.87v6.59h.52a26.49,26.49,0,0,0,3.34-.15Zm.88,3.08v-6.55H14.26v-.78H16.9v-3.55h.87v10.88Zm2.25.37V252.82H20V264.3Z"/><path class="cls-36" d="M22.4,262.5v-.79H32.93v.79Zm8.9-7.78H25v1.66h6v.79H25v1.57h6.52v.79H24.1v-5.59h7.2Z"/><path class="cls-36" d="M37.9,264v-4.22c-1.73,0-2.84.05-3.33.05l-.09-.78c3.24,0,5.8,0,7.69-.17l0,.77q-.81.06-3.45.12V264Zm.41-6a3.08,3.08,0,0,1-2.08-.68,2.14,2.14,0,0,1-.79-1.71,2.18,2.18,0,0,1,.79-1.73,3.54,3.54,0,0,1,4.17,0,2.19,2.19,0,0,1,.8,1.73,2.15,2.15,0,0,1-.8,1.71A3.11,3.11,0,0,1,38.31,257.93Zm0-4a2.25,2.25,0,0,0-1.46.45,1.49,1.49,0,0,0-.55,1.19,1.43,1.43,0,0,0,.55,1.17,2.25,2.25,0,0,0,1.46.45,2.2,2.2,0,0,0,1.46-.45,1.55,1.55,0,0,0,0-2.35A2.17,2.17,0,0,0,38.31,253.9Zm2.12,7.67v-.8H43.1v-7.95H44V264.3H43.1v-2.73Z"/><path class="cls-36" d="M46.5,262.18v-.79h7.69c.12-1.27.19-2.43.22-3.48l-6.84.37-.19-.88,7-.24V254.7H48v-.79h7.34v3.34q0,1.51-.24,4.14h2v.79Z"/><path class="cls-36" d="M198.18,250.44c-.6,0-1.69.09-3.27.16v2.53H194v-2.49c-1.57.05-2.73.08-3.47.08l-.13-.84q4.46,0,7.72-.23Zm-3.77-1.51a3.32,3.32,0,0,1-2.11-.64,2,2,0,0,1-.81-1.61,2,2,0,0,1,.81-1.59,3.78,3.78,0,0,1,4.21,0,1.94,1.94,0,0,1,.81,1.59,2,2,0,0,1-.81,1.61A3.31,3.31,0,0,1,194.41,248.93Zm-2.18,6.77v-3.53h.91v2.72h7.08v.81Zm2.18-10.48a2.29,2.29,0,0,0-1.46.44,1.24,1.24,0,0,0,0,2.06,2.63,2.63,0,0,0,2.91,0,1.24,1.24,0,0,0,0-2.06A2.28,2.28,0,0,0,194.41,245.22Zm4.59,8.33v-1.26h-2.57v-.82H199v-7.23h.93v9.31Z"/><path class="cls-36" d="M209,250.36a7.33,7.33,0,0,1-1.6-1.21,5.08,5.08,0,0,1-1.13-1.47,6.19,6.19,0,0,1-1.16,1.65,6.9,6.9,0,0,1-1.64,1.33l-.65-.63a5.59,5.59,0,0,0,2.12-1.75,4,4,0,0,0,.85-2.41v-.3H203.2v-.81h6.06v.81h-2.58v.3a3.51,3.51,0,0,0,.88,2.26,5.33,5.33,0,0,0,2.06,1.57Zm-4,5.33v-4.23h7.28v4.23Zm6.38-3.43h-5.48v2.63h5.48Zm0-1.48v-3.05h-2.82v-.82h2.82v-2.67h.91v6.54Z"/><path class="cls-36" d="M217.26,257a8,8,0,0,1-1.93-5.46,8.29,8.29,0,0,1,1.93-5.56h.88a8.48,8.48,0,0,0-2,5.54,8.24,8.24,0,0,0,2,5.48Z"/><path class="cls-36" d="M220.33,245.93l-.19,2.8h-.68l-.19-2.8Zm2,0-.18,2.8h-.68l-.19-2.8Z"/><path class="cls-36" d="M224.16,254.15v-.81H227v-3a2.66,2.66,0,0,1-.24-4.46,4.93,4.93,0,0,1,2.88-.76,4.88,4.88,0,0,1,2.87.76,2.67,2.67,0,0,1-.24,4.46v3h2.83v.81ZM226.6,248a1.78,1.78,0,0,0,.83,1.54,3.92,3.92,0,0,0,2.2.56,3.77,3.77,0,0,0,2.18-.57,1.75,1.75,0,0,0,.83-1.53,1.8,1.8,0,0,0-.83-1.56,4.56,4.56,0,0,0-4.38,0A1.8,1.8,0,0,0,226.6,248Zm1.3,2.68v2.63h3.45v-2.63a5.87,5.87,0,0,1-1.72.23A6.46,6.46,0,0,1,227.9,250.71Z"/><path class="cls-36" d="M243.32,250.76a6.27,6.27,0,0,1-2.86-2.5,5,5,0,0,1-1.17,1.52A6.93,6.93,0,0,1,237.6,251l-.67-.7a5.31,5.31,0,0,0,2.15-1.47,3,3,0,0,0,.92-2v-.57h-2.69v-.8H240v-1.37h.91v1.37h2.69v.8h-2.69v.56a2.75,2.75,0,0,0,.93,1.86,4.75,4.75,0,0,0,2.1,1.29Zm-.52,5.08a5.28,5.28,0,0,1-2.85-.64,1.86,1.86,0,0,1,0-3.3,6.76,6.76,0,0,1,5.7,0,1.86,1.86,0,0,1,0,3.3A5.28,5.28,0,0,1,242.8,255.84Zm0-3.79a4.43,4.43,0,0,0-2.14.42,1.25,1.25,0,0,0-.74,1.08,1.23,1.23,0,0,0,.75,1.08,4.36,4.36,0,0,0,2.13.42,4.41,4.41,0,0,0,2.13-.42,1.16,1.16,0,0,0,0-2.16A4.43,4.43,0,0,0,242.8,252.05Zm2.7-1v-2.78h-2.31v-.82h2.31v-3.19h.91V251Z"/><path class="cls-36" d="M250.53,245.93l-.19,2.8h-.68l-.19-2.8Zm2,0-.18,2.8h-.68l-.19-2.8Z"/><path class="cls-36" d="M253.73,257a8.24,8.24,0,0,0,2-5.48,8.46,8.46,0,0,0-2-5.54h.88a8.26,8.26,0,0,1,2,5.56,7.94,7.94,0,0,1-2,5.46Z"/><path class="cls-36" d="M258.37,253.87l-.09-.78c1.05,0,2.52,0,4.4-.07s3.13-.08,3.75-.14l.06.79c-.64.05-1.9.1-3.78.14S259.38,253.87,258.37,253.87Zm3.89-3.12A3.24,3.24,0,0,1,260,250a2.59,2.59,0,0,1-.9-2,2.55,2.55,0,0,1,.9-2,3.16,3.16,0,0,1,2.22-.81,3.2,3.2,0,0,1,2.22.81,2.62,2.62,0,0,1,.89,2,2.6,2.6,0,0,1-.89,2A3.24,3.24,0,0,1,262.26,250.75Zm0-4.81a2.24,2.24,0,0,0-1.55.56,1.82,1.82,0,0,0-.63,1.43,1.86,1.86,0,0,0,.64,1.45,2.41,2.41,0,0,0,3.09,0,1.85,1.85,0,0,0,.63-1.45,1.83,1.83,0,0,0-.63-1.44A2.23,2.23,0,0,0,262.26,245.94Zm5,10.07V244.24h.91V256Z"/><path class="cls-36" d="M275.33,254.21v-.8h10.92v.8Zm1-7.61v-.8h4v-1.44h.9v1.44h4.05v.8Zm4.5,5.16a5.28,5.28,0,0,1-2.83-.63,1.79,1.79,0,0,1,0-3.21,6.75,6.75,0,0,1,5.65,0,1.84,1.84,0,0,1,1,1.6,1.86,1.86,0,0,1-1,1.62A5.36,5.36,0,0,1,280.79,251.76Zm0-3.69a4.49,4.49,0,0,0-2.12.4,1.16,1.16,0,0,0-.74,1.05,1.21,1.21,0,0,0,.73,1.07,5.87,5.87,0,0,0,4.26,0,1.21,1.21,0,0,0,.72-1.07,1.17,1.17,0,0,0-.73-1.05A4.49,4.49,0,0,0,280.79,248.07Z"/><path class="cls-36" d="M287.92,251.11v-.78h10.92v.78Zm1.8,4.74v-3.61H297v3.61Zm0-6.63v-2.76h6.35v-1.19h-6.35v-.77H297v2.7h-6.34v1.25h6.62v.77Zm6.39,3.79h-5.53v2.07h5.53Z"/><path class="cls-36" d="M190.76,263.53V258h.89v2h3.6v-2h.9v5.55Zm4.49-2.71h-3.6v1.91h3.6Zm.4,8.23a5.67,5.67,0,0,1-2.84-.59,1.81,1.81,0,0,1-1-1.6,1.76,1.76,0,0,1,1-1.57,5.54,5.54,0,0,1,2.84-.59,5.67,5.67,0,0,1,2.85.58,1.77,1.77,0,0,1,0,3.18A5.64,5.64,0,0,1,195.65,269.05Zm0-3.56a5,5,0,0,0-2.13.36,1.1,1.1,0,0,0-.73,1,1.14,1.14,0,0,0,.74,1,4.8,4.8,0,0,0,2.12.37,4.87,4.87,0,0,0,2.14-.37,1.13,1.13,0,0,0,.74-1,1.11,1.11,0,0,0-.73-1A5.06,5.06,0,0,0,195.65,265.49Zm3.64-4v2.89h-.91v-7h.91v3.26h1.78v.81Z"/><path class="cls-36" d="M202.74,259.66v-.81h3v-1.48h.91v1.48h3v.81Zm3.5,4.61a3.52,3.52,0,0,1-2.13-.56,1.71,1.71,0,0,1-.77-1.45,1.74,1.74,0,0,1,.78-1.46,4.35,4.35,0,0,1,4.27,0,1.75,1.75,0,0,1,0,2.91A3.66,3.66,0,0,1,206.24,264.27Zm0-3.26a2.72,2.72,0,0,0-1.48.35,1,1,0,0,0-.53.9,1,1,0,0,0,.53.89,3.33,3.33,0,0,0,3,0,1,1,0,0,0,.53-.89,1,1,0,0,0-.53-.9A2.74,2.74,0,0,0,206.25,261Zm2,8.11a6.15,6.15,0,0,1-2.85-.53,1.66,1.66,0,0,1-1-1.52,1.7,1.7,0,0,1,1-1.54,7.53,7.53,0,0,1,5.7,0,1.7,1.7,0,0,1,1,1.54,1.66,1.66,0,0,1-1,1.52A6.08,6.08,0,0,1,208.24,269.12Zm0-3.37c-1.91,0-2.86.44-2.86,1.32s1,1.33,2.86,1.33,2.88-.44,2.88-1.33S210.16,265.75,208.24,265.75Zm3.64-2.64v1.72H211v-7.39h.91v2.31h1.77v.79h-1.77v1.77h1.77v.8Z"/><path class="cls-36" d="M190.85,291.51v-6h.9v2.27h3.6v-2.27h.9v6Zm4.5-2.9h-3.6v2.09h3.6Zm-3.14,7.76v-3.61h.91v2.8h6.59v.81Zm7.17-6.91v4.11h-.91V285h.91v3.66h1.78v.83Z"/><path class="cls-36" d="M210.45,292.74q-3.7.21-7.57.21l-.09-.8c.83,0,2,0,3.37-.06v-.88a3.39,3.39,0,0,1-1.83-.58,1.49,1.49,0,0,1-.64-1.23,1.53,1.53,0,0,1,.78-1.34,4,4,0,0,1,2.14-.5,3.83,3.83,0,0,1,2.14.53,1.56,1.56,0,0,1,.79,1.31,1.5,1.5,0,0,1-.65,1.23,3.33,3.33,0,0,1-1.83.58v.87c1.37,0,2.48-.07,3.34-.13Zm-7.3-5.64v-.8h3V285h.91v1.3h3v.8Zm3.46,1.2a2.94,2.94,0,0,0-1.48.31.84.84,0,0,0,0,1.57,3.8,3.8,0,0,0,3,0,.84.84,0,0,0,0-1.57A3,3,0,0,0,206.61,288.3Zm-1.9,8.3v-3h.9v2.22h6.81v.8Zm7.44-6.15V294h-.91v-9h.91v4.67h1.76v.81Z"/><path class="cls-36" d="M217.36,297.69a8,8,0,0,1-1.94-5.47,8.32,8.32,0,0,1,1.94-5.56h.88a8.47,8.47,0,0,0-2,5.55,8.31,8.31,0,0,0,2,5.48Z"/><path class="cls-36" d="M220.42,286.66l-.19,2.8h-.68l-.19-2.8Zm2.05,0-.19,2.8h-.67l-.2-2.8Z"/><path class="cls-36" d="M228.75,292.27V294l2.21-.07c.66,0,1.11,0,1.36-.07l.05.79c-.64.05-1.87.1-3.69.14s-3.22.06-4.21.06l-.08-.8c1.22,0,2.38,0,3.47,0v-1.7a3.09,3.09,0,0,1-1.86-.69,1.84,1.84,0,0,1-.66-1.43,1.88,1.88,0,0,1,.8-1.57,3.57,3.57,0,0,1,2.18-.61,3.51,3.51,0,0,1,2.16.6,1.81,1.81,0,0,1,.79,1.5,1.94,1.94,0,0,1-.66,1.49A3.09,3.09,0,0,1,228.75,292.27Zm-.89-7.27h.91v1.53h3v.82h-7v-.82h3.08Zm.46,3.74a2.55,2.55,0,0,0-1.49.4,1.2,1.2,0,0,0-.56,1,1.15,1.15,0,0,0,.54,1,3.17,3.17,0,0,0,3,0,1.15,1.15,0,0,0,.53-1,1.2,1.2,0,0,0-.54-1A2.53,2.53,0,0,0,228.32,288.74Zm4.91,8V285h.91v11.78Z"/><path class="cls-36" d="M243.24,291.61a7.62,7.62,0,0,1-1.66-1.39,6.48,6.48,0,0,1-1.1-1.54,7.1,7.1,0,0,1-1.18,1.79,6,6,0,0,1-1.64,1.44l-.66-.63a5.7,5.7,0,0,0,2.13-1.88,4.41,4.41,0,0,0,.88-2.53v-1.51h.89v1.51a3.86,3.86,0,0,0,.91,2.36,5.57,5.57,0,0,0,2,1.72Zm-4,4.75v-3.74h.92v2.94h6.65v.8Zm6.34-3V285h.92v8.38Z"/><path class="cls-36" d="M250.62,286.66l-.19,2.8h-.68l-.19-2.8Zm2,0-.19,2.8h-.67l-.2-2.8Z"/><path class="cls-36" d="M253.83,297.69a8.29,8.29,0,0,0,1.95-5.48,8.42,8.42,0,0,0-2-5.55h.89a8.32,8.32,0,0,1,1.94,5.56,8,8,0,0,1-1.94,5.47Z"/><path class="cls-36" d="M258.46,294.61l-.08-.79c1.05,0,2.51,0,4.4-.06s3.13-.09,3.75-.14l.05.79c-.64,0-1.9.1-3.78.14S259.47,294.61,258.46,294.61Zm3.89-3.13a3.15,3.15,0,0,1-2.21-.8,2.57,2.57,0,0,1-.9-2,2.61,2.61,0,0,1,.89-2,3.46,3.46,0,0,1,4.44,0,2.7,2.7,0,0,1,0,4A3.19,3.19,0,0,1,262.35,291.48Zm0-4.81a2.21,2.21,0,0,0-1.55.57,1.85,1.85,0,0,0-.62,1.43,1.81,1.81,0,0,0,.64,1.44,2.4,2.4,0,0,0,3.08,0,1.83,1.83,0,0,0,.63-1.44,1.85,1.85,0,0,0-.62-1.44A2.28,2.28,0,0,0,262.35,286.67Zm5,10.08V285h.91v11.78Z"/><path class="cls-36" d="M275.42,294.94v-.8h10.93v.8Zm1-7.61v-.8h4v-1.44h.91v1.44h4v.8Zm4.5,5.17a5.31,5.31,0,0,1-2.84-.63,1.88,1.88,0,0,1-1-1.61,1.83,1.83,0,0,1,1-1.6,6.77,6.77,0,0,1,5.64,0,1.83,1.83,0,0,1,1,1.61,1.86,1.86,0,0,1-1,1.61A5.26,5.26,0,0,1,280.89,292.5Zm0-3.69a4.65,4.65,0,0,0-2.13.39,1.13,1.13,0,0,0,0,2.12,5.84,5.84,0,0,0,4.25,0,1.2,1.2,0,0,0,.73-1.06,1.18,1.18,0,0,0-.74-1.06A4.55,4.55,0,0,0,280.89,288.81Z"/><path class="cls-36" d="M288,291.84v-.77h10.93v.77Zm1.8,4.75V293h7.33v3.62Zm0-6.63V287.2h6.35V286h-6.35v-.78h7.25v2.7h-6.35v1.25h6.62V290Zm6.39,3.79h-5.53v2.06h5.53Z"/><path class="cls-36" d="M190.85,304.27v-5.55h.9v2h3.6v-2h.9v5.55Zm4.5-2.71h-3.6v1.91h3.6Zm.4,8.23a5.53,5.53,0,0,1-2.84-.6,1.76,1.76,0,0,1,0-3.17,7.15,7.15,0,0,1,5.69,0,1.77,1.77,0,0,1,1,1.58,1.81,1.81,0,0,1-1,1.6A5.7,5.7,0,0,1,195.75,309.79Zm0-3.57a4.92,4.92,0,0,0-2.13.36,1.12,1.12,0,0,0-.74,1,1.14,1.14,0,0,0,.75,1,6.21,6.21,0,0,0,4.25,0,1.14,1.14,0,0,0,.75-1,1.11,1.11,0,0,0-.74-1A4.81,4.81,0,0,0,195.75,306.22Zm3.63-4v2.89h-.91v-7h.91v3.27h1.78v.81Z"/><path class="cls-36" d="M202.83,300.4v-.82h3v-1.47h.91v1.47h3v.82Zm3.51,4.61a3.57,3.57,0,0,1-2.13-.56,1.75,1.75,0,0,1,0-2.91,4.26,4.26,0,0,1,4.26,0,1.72,1.72,0,0,1,.78,1.46,1.7,1.7,0,0,1-.78,1.44A3.55,3.55,0,0,1,206.34,305Zm0-3.26a2.64,2.64,0,0,0-1.48.35,1,1,0,0,0-.54.9,1,1,0,0,0,.54.89,3.39,3.39,0,0,0,3,0,1,1,0,0,0,.53-.89,1,1,0,0,0-.53-.9A2.64,2.64,0,0,0,206.35,301.75Zm2,8.11a6.06,6.06,0,0,1-2.85-.54,1.65,1.65,0,0,1-1-1.51,1.71,1.71,0,0,1,1-1.54,7.62,7.62,0,0,1,5.71,0,1.71,1.71,0,0,1,1,1.55,1.68,1.68,0,0,1-1,1.52A6.22,6.22,0,0,1,208.33,309.86Zm0-3.38c-1.91,0-2.86.45-2.86,1.33s.95,1.32,2.86,1.32,2.88-.44,2.88-1.32S210.25,306.48,208.33,306.48Zm3.64-2.63v1.72h-.91v-7.4H212v2.32h1.78v.78H212v1.78h1.78v.8Z"/></g></svg>