<svg xmlns="http://www.w3.org/2000/svg" xmlns:xlink="http://www.w3.org/1999/xlink" viewBox="0 0 316 315.2"><defs><style>.cls-1,.cls-3{fill:#fff;}.cls-15,.cls-2,.cls-5{fill:#3c3c41;}.cls-2{opacity:0.05;}.cls-2,.cls-3,.cls-4,.cls-5{isolation:isolate;}.cls-3{opacity:0.6;}.cls-14,.cls-16,.cls-17,.cls-30,.cls-4{fill:none;}.cls-4{stroke:#75757a;stroke-width:0.5px;opacity:0.5;}.cls-14,.cls-16,.cls-17,.cls-4{stroke-miterlimit:10;}.cls-5{opacity:0.2;}.cls-6{fill:#ccc;fill-opacity:0.3;}.cls-7{fill:url(#Degradado_sin_nombre);}.cls-8{fill:#50e6ff;}.cls-9{fill:#c3f1ff;}.cls-10{fill:#9cebff;}.cls-11{fill:url(#Degradado_sin_nombre_2);}.cls-12{fill:url(#Degradado_sin_nombre_3);}.cls-13{fill:url(#Degradado_sin_nombre_4);}.cls-14,.cls-16,.cls-17{stroke:#3c3c41;}.cls-16{stroke-dasharray:1.46 2.43;}.cls-17{stroke-dasharray:1.31 2.19;}.cls-18{fill:url(#Degradado_sin_nombre_5);}.cls-19{fill:url(#Degradado_sin_nombre_6);}.cls-20{fill:url(#Degradado_sin_nombre_7);}.cls-21{fill:#1490df;}.cls-22{fill:url(#Degradado_sin_nombre_8);}.cls-23{fill:url(#Degradado_sin_nombre_9);}.cls-24{fill:url(#Degradado_sin_nombre_10);}.cls-25{fill:url(#Degradado_sin_nombre_11);}.cls-26{fill:url(#Degradado_sin_nombre_12);}.cls-27{fill:url(#Degradado_sin_nombre_13);}.cls-28{fill:url(#Degradado_sin_nombre_14);}.cls-29{fill:url(#Degradado_sin_nombre_15);}.cls-31{fill:#6ebcdb;}.cls-32{fill:#5db4d7;}.cls-33{fill:#e6e6e6;}.cls-34{fill:#86d633;}.cls-35{fill:#1e1e1e;}</style><linearGradient id="Degradado_sin_nombre" x1="39.57" y1="240.22" x2="39.57" y2="221.46" gradientTransform="translate(0 -74.26)" gradientUnits="userSpaceOnUse"><stop offset="0" stop-color="#0078d4"/><stop offset="0.82" stop-color="#5ea0ef"/></linearGradient><linearGradient id="Degradado_sin_nombre_2" x1="39.57" y1="247.46" x2="39.57" y2="240.22" gradientTransform="translate(0 -74.26)" gradientUnits="userSpaceOnUse"><stop offset="0.15" stop-color="#ccc"/><stop offset="1" stop-color="#707070"/></linearGradient><linearGradient id="Degradado_sin_nombre_3" x1="76.43" y1="240.22" x2="76.43" y2="221.46" xlink:href="#Degradado_sin_nombre"/><linearGradient id="Degradado_sin_nombre_4" x1="76.43" y1="247.46" x2="76.43" y2="240.22" xlink:href="#Degradado_sin_nombre_2"/><linearGradient id="Degradado_sin_nombre_5" x1="24.5" y1="301.79" x2="26.87" y2="304.15" gradientTransform="translate(3.03 -74.68)" gradientUnits="userSpaceOnUse"><stop offset="0" stop-color="#86d633"/><stop offset="0.24" stop-color="#83d232"/><stop offset="0.5" stop-color="#7cc52f"/><stop offset="0.76" stop-color="#6fb02a"/><stop offset="1" stop-color="#5e9624"/></linearGradient><linearGradient id="Degradado_sin_nombre_6" x1="19.15" y1="301.79" x2="21.51" y2="304.15" xlink:href="#Degradado_sin_nombre_5"/><linearGradient id="Degradado_sin_nombre_7" x1="13.81" y1="301.78" x2="16.17" y2="304.15" xlink:href="#Degradado_sin_nombre_5"/><linearGradient id="Degradado_sin_nombre_8" x1="139.57" y1="240.22" x2="139.57" y2="221.46" xlink:href="#Degradado_sin_nombre"/><linearGradient id="Degradado_sin_nombre_9" x1="139.57" y1="247.46" x2="139.57" y2="240.22" xlink:href="#Degradado_sin_nombre_2"/><linearGradient id="Degradado_sin_nombre_10" x1="176.43" y1="240.22" x2="176.43" y2="221.46" xlink:href="#Degradado_sin_nombre"/><linearGradient id="Degradado_sin_nombre_11" x1="176.43" y1="247.46" x2="176.43" y2="240.22" xlink:href="#Degradado_sin_nombre_2"/><linearGradient id="Degradado_sin_nombre_12" x1="239.57" y1="240.22" x2="239.57" y2="221.46" xlink:href="#Degradado_sin_nombre"/><linearGradient id="Degradado_sin_nombre_13" x1="239.57" y1="247.46" x2="239.57" y2="240.22" xlink:href="#Degradado_sin_nombre_2"/><linearGradient id="Degradado_sin_nombre_14" x1="276.43" y1="240.22" x2="276.43" y2="221.46" xlink:href="#Degradado_sin_nombre"/><linearGradient id="Degradado_sin_nombre_15" x1="276.43" y1="247.46" x2="276.43" y2="240.22" xlink:href="#Degradado_sin_nombre_2"/></defs><title>OJ104903206</title><g id="Target"><g id="Shapes"><rect class="cls-1" width="316" height="315.2"/><rect class="cls-1" x="0.5" y="75.2" width="315" height="151.85" rx="5"/><rect class="cls-2" x="0.5" y="75.2" width="315" height="151.85" rx="5"/><rect class="cls-3" x="10.5" y="15.2" width="95" height="200"/><rect class="cls-4" x="10.5" y="15.2" width="95" height="200"/><rect class="cls-1" x="15.99" y="120.2" width="84.51" height="90" rx="0.3"/><rect class="cls-5" x="15.99" y="120.2" width="84.51" height="90" rx="0.3"/><rect class="cls-6" x="160.5" y="240.2" width="155" height="35"/><rect class="cls-6" x="160.5" y="280.2" width="155" height="35"/><rect class="cls-7" x="25.5" y="147.2" width="28.14" height="18.76" rx="0.94"/><polygon class="cls-8" points="44.26 153.85 44.26 159.3 39.57 162.05 39.57 156.58 44.26 153.85"/><polygon class="cls-9" points="44.26 153.85 39.57 156.6 34.88 153.85 39.57 151.11 44.26 153.85"/><polygon class="cls-10" points="39.57 156.6 39.57 162.05 34.88 159.3 34.88 153.85 39.57 156.6"/><polygon class="cls-9" points="34.88 159.3 39.57 156.58 39.57 162.05 34.88 159.3"/><polygon class="cls-10" points="44.26 159.3 39.57 156.58 39.57 162.05 44.26 159.3"/><path class="cls-11" d="M45.21,171.64c-2.78-.44-2.89-2.44-2.89-5.68H36.8c0,3.24-.09,5.24-2.87,5.68a1.55,1.55,0,0,0-1.39,1.56H46.61A1.57,1.57,0,0,0,45.21,171.64Z"/><rect class="cls-12" x="62.36" y="147.2" width="28.14" height="18.76" rx="0.94"/><polygon class="cls-8" points="81.12 153.85 81.12 159.3 76.43 162.05 76.43 156.58 81.12 153.85"/><polygon class="cls-9" points="81.12 153.85 76.43 156.6 71.74 153.85 76.43 151.11 81.12 153.85"/><polygon class="cls-10" points="76.43 156.6 76.43 162.05 71.74 159.3 71.74 153.85 76.43 156.6"/><polygon class="cls-9" points="71.74 159.3 76.43 156.58 76.43 162.05 71.74 159.3"/><polygon class="cls-10" points="81.12 159.3 76.43 156.58 76.43 162.05 81.12 159.3"/><path class="cls-13" d="M82.07,171.64c-2.78-.44-2.89-2.44-2.89-5.68H73.66c0,3.24-.09,5.24-2.87,5.68a1.57,1.57,0,0,0-1.4,1.56H83.46A1.55,1.55,0,0,0,82.07,171.64Z"/><line class="cls-14" x1="58.25" y1="120.2" x2="58.25" y2="55.2"/><line class="cls-14" x1="50.72" y1="112.67" x2="50.72" y2="100.98"/><polygon class="cls-15" points="53.71 101.85 50.72 96.67 47.73 101.85 53.71 101.85"/><line class="cls-14" x1="65.77" y1="108.37" x2="65.77" y2="107.62"/><line class="cls-16" x1="65.77" y1="105.19" x2="65.77" y2="98.64"/><line class="cls-14" x1="65.77" y1="97.42" x2="65.77" y2="96.67"/><polygon class="cls-15" points="68.76 107.49 65.77 112.67 62.78 107.49 68.76 107.49"/><line class="cls-14" x1="169.81" y1="250.2" x2="180.93" y2="250.2"/><polygon class="cls-15" points="170.68 253.19 165.5 250.2 170.68 247.21 170.68 253.19"/><line class="cls-14" x1="176.19" y1="290.2" x2="175.44" y2="290.2"/><line class="cls-17" x1="173.25" y1="290.2" x2="167.34" y2="290.2"/><line class="cls-14" x1="166.25" y1="290.2" x2="165.5" y2="290.2"/><polygon class="cls-15" points="175.32 287.21 180.5 290.2 175.32 293.19 175.32 287.21"/><circle class="cls-18" cx="28.4" cy="227.97" r="1.67"/><circle class="cls-19" cx="23.06" cy="227.99" r="1.67"/><circle class="cls-20" cx="17.72" cy="227.99" r="1.67"/><path class="cls-8" d="M18.93,234.68l-1,1a.43.43,0,0,1-.61,0h0l-7.09-7.08a.88.88,0,0,1,0-1.22h0l1-1h0l7.71,7.69a.43.43,0,0,1,0,.61h0Z"/><path class="cls-21" d="M17.83,220.35l1,1a.43.43,0,0,1,0,.61h0l-7.57,7.6h0l-1-1a.89.89,0,0,1,0-1.23h0l7-7A.43.43,0,0,1,17.83,220.35Z"/><path class="cls-8" d="M34.78,226.37l1,1a.87.87,0,0,1,0,1.23h0l-7.1,7.07a.43.43,0,0,1-.61,0h0l-1-1a.43.43,0,0,1,0-.61h0Z"/><path class="cls-21" d="M35.74,228.55l-1,1h0L27.17,222a.43.43,0,0,1,0-.61h0l1-1a.43.43,0,0,1,.61,0h0l7,7a.89.89,0,0,1,0,1.23h0Z"/><rect class="cls-1" x="40.75" y="20.2" width="35" height="35"/><rect class="cls-5" x="40.75" y="20.2" width="35" height="35"/><rect class="cls-3" x="110.5" y="15.2" width="95" height="200"/><rect class="cls-4" x="110.5" y="15.2" width="95" height="200"/><rect class="cls-1" x="115.99" y="120.2" width="84.51" height="90" rx="0.3"/><rect class="cls-5" x="115.99" y="120.2" width="84.51" height="90" rx="0.3"/><rect class="cls-22" x="125.5" y="147.2" width="28.14" height="18.76" rx="0.94"/><polygon class="cls-8" points="144.26 153.85 144.26 159.3 139.57 162.05 139.57 156.58 144.26 153.85"/><polygon class="cls-9" points="144.26 153.85 139.57 156.6 134.88 153.85 139.57 151.11 144.26 153.85"/><polygon class="cls-10" points="139.57 156.6 139.57 162.05 134.88 159.3 134.88 153.85 139.57 156.6"/><polygon class="cls-9" points="134.88 159.3 139.57 156.58 139.57 162.05 134.88 159.3"/><polygon class="cls-10" points="144.26 159.3 139.57 156.58 139.57 162.05 144.26 159.3"/><path class="cls-23" d="M145.21,171.64c-2.78-.44-2.89-2.44-2.89-5.68H136.8c0,3.24-.09,5.24-2.87,5.68a1.55,1.55,0,0,0-1.39,1.56h14.07A1.57,1.57,0,0,0,145.21,171.64Z"/><rect class="cls-24" x="162.36" y="147.2" width="28.14" height="18.76" rx="0.94"/><polygon class="cls-8" points="181.12 153.85 181.12 159.3 176.43 162.05 176.43 156.58 181.12 153.85"/><polygon class="cls-9" points="181.12 153.85 176.43 156.6 171.74 153.85 176.43 151.11 181.12 153.85"/><polygon class="cls-10" points="176.43 156.6 176.43 162.05 171.74 159.3 171.74 153.85 176.43 156.6"/><polygon class="cls-9" points="171.74 159.3 176.43 156.58 176.43 162.05 171.74 159.3"/><polygon class="cls-10" points="181.12 159.3 176.43 156.58 176.43 162.05 181.12 159.3"/><path class="cls-25" d="M182.07,171.64c-2.78-.44-2.89-2.44-2.89-5.68h-5.52c0,3.24-.09,5.24-2.87,5.68a1.57,1.57,0,0,0-1.4,1.56h14.07A1.55,1.55,0,0,0,182.07,171.64Z"/><line class="cls-14" x1="158.25" y1="120.2" x2="158.25" y2="55.2"/><line class="cls-14" x1="150.72" y1="112.67" x2="150.72" y2="100.98"/><polygon class="cls-15" points="153.71 101.85 150.72 96.67 147.73 101.85 153.71 101.85"/><line class="cls-14" x1="165.77" y1="108.37" x2="165.77" y2="107.62"/><line class="cls-16" x1="165.77" y1="105.19" x2="165.77" y2="98.64"/><line class="cls-14" x1="165.77" y1="97.42" x2="165.77" y2="96.67"/><polygon class="cls-15" points="168.76 107.49 165.77 112.67 162.78 107.49 168.76 107.49"/><rect class="cls-1" x="140.75" y="20.2" width="35" height="35"/><rect class="cls-5" x="140.75" y="20.2" width="35" height="35"/><rect class="cls-3" x="210.5" y="15.2" width="95" height="200"/><rect class="cls-4" x="210.5" y="15.2" width="95" height="200"/><rect class="cls-1" x="215.99" y="120.2" width="84.51" height="90" rx="0.3"/><rect class="cls-5" x="215.99" y="120.2" width="84.51" height="90" rx="0.3"/><rect class="cls-26" x="225.5" y="147.2" width="28.14" height="18.76" rx="0.94"/><polygon class="cls-8" points="244.26 153.85 244.26 159.3 239.57 162.05 239.57 156.58 244.26 153.85"/><polygon class="cls-9" points="244.26 153.85 239.57 156.6 234.88 153.85 239.57 151.11 244.26 153.85"/><polygon class="cls-10" points="239.57 156.6 239.57 162.05 234.88 159.3 234.88 153.85 239.57 156.6"/><polygon class="cls-9" points="234.88 159.3 239.57 156.58 239.57 162.05 234.88 159.3"/><polygon class="cls-10" points="244.26 159.3 239.57 156.58 239.57 162.05 244.26 159.3"/><path class="cls-27" d="M245.21,171.64c-2.78-.44-2.89-2.44-2.89-5.68H236.8c0,3.24-.09,5.24-2.87,5.68a1.55,1.55,0,0,0-1.39,1.56h14.07A1.57,1.57,0,0,0,245.21,171.64Z"/><rect class="cls-28" x="262.36" y="147.2" width="28.14" height="18.76" rx="0.94"/><polygon class="cls-8" points="281.12 153.85 281.12 159.3 276.43 162.05 276.43 156.58 281.12 153.85"/><polygon class="cls-9" points="281.12 153.85 276.43 156.6 271.74 153.85 276.43 151.11 281.12 153.85"/><polygon class="cls-10" points="276.43 156.6 276.43 162.05 271.74 159.3 271.74 153.85 276.43 156.6"/><polygon class="cls-9" points="271.74 159.3 276.43 156.58 276.43 162.05 271.74 159.3"/><polygon class="cls-10" points="281.12 159.3 276.43 156.58 276.43 162.05 281.12 159.3"/><path class="cls-29" d="M282.07,171.64c-2.78-.44-2.89-2.44-2.89-5.68h-5.52c0,3.24-.09,5.24-2.87,5.68a1.57,1.57,0,0,0-1.4,1.56h14.07A1.55,1.55,0,0,0,282.07,171.64Z"/><line class="cls-14" x1="258.25" y1="120.2" x2="258.25" y2="55.2"/><line class="cls-14" x1="250.72" y1="112.67" x2="250.72" y2="100.98"/><polygon class="cls-15" points="253.71 101.85 250.72 96.67 247.73 101.85 253.71 101.85"/><line class="cls-14" x1="265.77" y1="108.37" x2="265.77" y2="107.62"/><line class="cls-16" x1="265.77" y1="105.19" x2="265.77" y2="98.64"/><line class="cls-14" x1="265.77" y1="97.42" x2="265.77" y2="96.67"/><polygon class="cls-15" points="268.76 107.49 265.77 112.67 262.78 107.49 268.76 107.49"/><rect class="cls-1" x="240.75" y="20.2" width="35" height="35"/><rect class="cls-5" x="240.75" y="20.2" width="35" height="35"/><rect class="cls-30" x="0.5" y="75.2" width="315" height="151.85" rx="5"/><path class="cls-15" d="M309.34,227.55h-1v-1h1Zm-3,0h-1v-1h1Zm-3,0h-1v-1h1Zm-3,0h-1v-1h1Zm-3,0h-1v-1h1Zm-3,0h-1v-1h1Zm-3,0h-1v-1h1Zm-3,0h-1v-1h1Zm-3,0h-1v-1h1Zm-3,0h-1v-1h1Zm-3,0h-1v-1h1Zm-3,0h-1v-1h1Zm-3,0h-1v-1h1Zm-3,0h-1v-1h1Zm-3,0h-1v-1h1Zm-3,0h-1v-1h1Zm-3,0h-1v-1h1Zm-3,0h-1v-1h1Zm-3,0h-1v-1h1Zm-3,0h-1v-1h1Zm-3,0h-1v-1h1Zm-3,0h-1v-1h1Zm-3,0h-1v-1h1Zm-3,0h-1v-1h1Zm-3,0h-1v-1h1Zm-3,0h-1v-1h1Zm-3,0h-1v-1h1Zm-3,0h-1v-1h1Zm-3,0h-1v-1h1Zm-3,0h-1v-1h1Zm-3,0h-1v-1h1Zm-3,0h-1v-1h1Zm-3,0h-1v-1h1Zm-3,0h-1v-1h1Zm-3,0h-1v-1h1Zm-3,0h-1v-1h1Zm-3,0h-1v-1h1Zm-3,0h-1v-1h1Zm-3,0h-1v-1h1Zm-3,0h-1v-1h1Zm-3,0h-1v-1h1Zm-3,0h-1v-1h1Zm-3,0h-1v-1h1Zm-3,0h-1v-1h1Zm-3,0h-1v-1h1Zm-3,0h-1v-1h1Zm-3,0h-1v-1h1Zm-3,0h-1v-1h1Zm-3,0h-1v-1h1Zm-3,0h-1v-1h1Zm-3,0h-1v-1h1Zm-3,0h-1v-1h1Zm-3,0h-1v-1h1Zm-3,0h-1v-1h1Zm-3,0h-1v-1h1Zm-3,0h-1v-1h1Zm-3,0h-1v-1h1Zm-3,0h-1v-1h1Zm-3,0h-1v-1h1Zm-3,0h-1v-1h1Zm-3,0h-1v-1h1Zm-3,0h-1v-1h1Zm-3,0h-1v-1h1Zm-3,0h-1v-1h1Zm-3,0h-1v-1h1Zm-3,0h-1v-1h1Zm-3,0h-1v-1h1Zm-3,0h-1v-1h1Zm-3,0h-1v-1h1Zm-3,0h-1v-1h1Zm-3,0h-1v-1h1Zm-3,0h-1v-1h1Zm-3,0h-1v-1h1Zm-3,0h-1v-1h1Zm-3,0h-1v-1h1Zm-3,0h-1v-1h1Zm-3,0h-1v-1h1Zm-3,0h-1v-1h1Zm-3,0h-1v-1h1Zm-3,0h-1v-1h1Zm-3,0h-1v-1h1Zm-3,0h-1v-1h1Zm-3,0h-1v-1h1Zm-3,0h-1v-1h1Zm-3,0h-1v-1h1Zm-3,0h-1v-1h1Zm-3,0h-1v-1h1Zm-3,0H47v-1h1Zm-3,0H44v-1h1Zm-3,0H41v-1h1Zm-3,0H38v-1h1Zm-33,0H5l.1-1H6Zm305.42-.08-.16-1a4.4,4.4,0,0,0,.86-.24l.37.93a5.64,5.64,0,0,1-1.41.31ZM3.2,226.87a6.34,6.34,0,0,1-.91-.62l.65-.77a4.7,4.7,0,0,0,.74.52ZM314.32,226l-.69-.72a4.82,4.82,0,0,0,.58-.69l.82.57A5.18,5.18,0,0,1,314.32,226ZM.6,224.54a5.09,5.09,0,0,1-.4-1l1-.27a4.31,4.31,0,0,0,.33.84Zm315.29-1.39-1-.2a4.58,4.58,0,0,0,.09-.9l1-.06v.06A5.06,5.06,0,0,1,315.89,223.15ZM1,221.39H0v-1H1ZM316,220h-1v-1h1ZM1,218.39H0v-1H1ZM316,217h-1v-1h1ZM1,215.38H0v-1H1ZM316,214h-1v-1h1ZM1,212.38H0v-1H1ZM316,211h-1v-1h1ZM1,209.38H0v-1H1ZM316,208h-1v-1h1ZM1,206.37H0v-1H1ZM316,205h-1v-1h1ZM1,203.37H0v-1H1ZM316,202h-1v-1h1ZM1,200.37H0v-1H1ZM316,199h-1v-1h1ZM1,197.36H0v-1H1ZM316,196h-1v-1h1ZM1,194.36H0v-1H1ZM316,193h-1v-1h1ZM1,191.36H0v-1H1ZM316,190h-1v-1h1ZM1,188.35H0v-1H1ZM316,187h-1v-1h1ZM1,185.35H0v-1H1ZM316,184h-1v-1h1ZM1,182.35H0v-1H1ZM316,181h-1v-1h1ZM1,179.34H0v-1H1Zm315-1.4h-1v-1h1ZM1,176.34H0v-1H1Zm315-1.4h-1v-1h1ZM1,173.34H0v-1H1Zm315-1.4h-1v-1h1ZM1,170.33H0v-1H1Zm315-1.4h-1v-1h1ZM1,167.33H0v-1H1Zm315-1.4h-1v-1h1ZM1,164.33H0v-1H1Zm315-1.4h-1v-1h1ZM1,161.32H0v-1H1Zm315-1.4h-1v-1h1ZM1,158.32H0v-1H1Zm315-1.4h-1v-1h1ZM1,155.32H0v-1H1Zm315-1.4h-1v-1h1ZM1,152.31H0v-1H1Zm315-1.4h-1v-1h1ZM1,149.31H0v-1H1Zm315-1.4h-1v-1h1ZM1,146.3H0v-1H1Zm315-1.39h-1v-1h1ZM1,143.3H0v-1H1Zm315-1.4h-1v-1h1ZM1,140.3H0v-1H1Zm315-1.4h-1v-1h1ZM1,137.29H0v-1H1Zm315-1.39h-1v-1h1ZM1,134.29H0v-1H1Zm315-1.4h-1v-1h1ZM1,131.29H0v-1H1Zm315-1.4h-1v-1h1ZM1,128.28H0v-1H1Zm315-1.39h-1v-1h1ZM1,125.28H0v-1H1Zm315-1.4h-1v-1h1ZM1,122.28H0v-1H1Zm315-1.4h-1v-1h1ZM1,119.27H0v-1H1Zm315-1.39h-1v-1h1ZM1,116.27H0v-1H1Zm315-1.4h-1v-1h1ZM1,113.27H0v-1H1Zm315-1.4h-1v-1h1ZM1,110.26H0v-1H1Zm315-1.39h-1v-1h1ZM1,107.26H0v-1H1Zm315-1.4h-1v-1h1ZM1,104.26H0v-1H1Zm315-1.4h-1v-1h1ZM1,101.25H0v-1H1Zm315-1.39h-1v-1h1ZM1,98.25H0v-1H1Zm315-1.4h-1v-1h1ZM1,95.25H0v-1H1Zm315-1.4h-1v-1h1ZM1,92.24H0v-1H1Zm315-1.4h-1v-1h1ZM1,89.24H0v-1H1Zm315-1.4h-1v-1h1ZM1,86.24H0v-1H1Zm315-1.4h-1v-1h1ZM1,83.23H0v-1H1Zm315-1.4h-1v-1h1ZM0,80.23H0a6.24,6.24,0,0,1,.1-1.06l1,.19a4.81,4.81,0,0,0-.1.84ZM314.83,79a4,4,0,0,0-.33-.83l.89-.46a5.09,5.09,0,0,1,.4,1Zm-313-1.3L1,77.12a6.24,6.24,0,0,1,.7-.84l.7.71a5.09,5.09,0,0,0-.62.69Zm311.6-.93a4.58,4.58,0,0,0-.74-.5l.48-.88a5.48,5.48,0,0,1,.9.61ZM3.85,76l-.36-.93a5,5,0,0,1,1-.29l.18,1A4.73,4.73,0,0,0,3.85,76Zm307.08-.29H310v-1h1.05Zm-3,0h-1v-1h1Zm-3,0h-1v-1h1Zm-3,0h-1v-1h1Zm-3,0h-1v-1h1Zm-3,0h-1v-1h1Zm-3,0h-1v-1h1Zm-3,0h-1v-1h1Zm-3,0h-1v-1h1Zm-3,0h-1v-1h1Zm-3,0h-1v-1h1Zm-3,0h-1v-1h1Zm-3,0h-1v-1h1Zm-3,0h-1v-1h1Zm-3,0h-1v-1h1Zm-3,0h-1v-1h1Zm-3,0h-1v-1h1Zm-3,0h-1v-1h1Zm-3,0h-1v-1h1Zm-3,0h-1v-1h1Zm-3,0h-1v-1h1Zm-3,0h-1v-1h1Zm-3,0h-1v-1h1Zm-3,0h-1v-1h1Zm-3,0h-1v-1h1Zm-3,0h-1v-1h1Zm-3,0h-1v-1h1Zm-3,0h-1v-1h1Zm-3,0h-1v-1h1Zm-3,0h-1v-1h1Zm-3,0h-1v-1h1Zm-3,0h-1v-1h1Zm-3,0h-1v-1h1Zm-3,0h-1v-1h1Zm-3,0h-1v-1h1Zm-3,0h-1v-1h1Zm-3,0h-1v-1h1Zm-3,0h-1v-1h1Zm-3,0h-1v-1h1Zm-3,0h-1v-1h1Zm-3,0h-1v-1h1Zm-3,0h-1v-1h1Zm-3,0h-1v-1h1Zm-3,0h-1v-1h1Zm-3,0h-1v-1h1Zm-3,0h-1v-1h1Zm-3,0h-1v-1h1Zm-3,0h-1v-1h1Zm-3,0h-1v-1h1Zm-3,0h-1v-1h1Zm-3,0h-1v-1h1Zm-3,0h-1v-1h1Zm-3,0h-1v-1h1Zm-3,0h-1v-1h1Zm-3,0h-1v-1h1Zm-3,0h-1v-1h1Zm-3,0h-1v-1h1Zm-3,0h-1v-1h1Zm-3,0h-1v-1h1Zm-3,0h-1v-1h1Zm-3,0h-1v-1h1Zm-3,0h-1v-1h1Zm-3,0h-1v-1h1Zm-3,0h-1v-1h1Zm-3,0h-1v-1h1Zm-3,0h-1v-1h1Zm-3,0h-1v-1h1Zm-3,0h-1v-1h1Zm-3,0h-1v-1h1Zm-3,0h-1v-1h1Zm-3,0h-1v-1h1Zm-3,0h-1v-1h1Zm-3,0h-1v-1h1Zm-3,0h-1v-1h1Zm-3,0h-1v-1h1Zm-3,0h-1v-1h1Zm-3,0h-1v-1h1Zm-3,0h-1v-1h1Zm-3,0h-1v-1h1Zm-3,0h-1v-1h1Zm-3,0h-1v-1h1Zm-3,0h-1v-1h1Zm-3,0h-1v-1h1Zm-3,0h-1v-1h1Zm-3,0h-1v-1h1Zm-3,0h-1v-1h1Zm-3,0h-1v-1h1Zm-3,0h-1v-1h1Zm-3,0h-1v-1h1Zm-3,0h-1v-1h1Zm-3,0h-1v-1h1Zm-3,0h-1v-1h1Zm-3,0h-1v-1h1Zm-3,0h-1v-1h1Zm-3,0h-1v-1h1Zm-3,0h-1v-1h1Zm-3,0h-1v-1h1Zm-3,0h-1v-1h1Zm-3,0h-1v-1h1Zm-3,0h-1v-1h1Zm-3,0h-1v-1h1Zm-3,0h-1v-1h1Z"/><g id="ad94e297-0e86-4eaf-aac0-d146ee9aea65"><path class="cls-31" d="M54.12,83.24,49.43,78.4a2.28,2.28,0,0,1-.77.14,2.43,2.43,0,1,1,2.24-3.33h4.61v1.62H51a3.64,3.64,0,0,1-.25.57L55,81.86l2.34-3.56V67.12H54.22l4-4,4,4H59v8.73l5.93-9-6-6a1,1,0,0,0-1.41-.05l-.05.05h0L43,75.28a1,1,0,0,0,0,1.41l0,0h0l14.48,14.5-5.17-5.17Z"/><path class="cls-32" d="M57.37,83.45V78.28L55,81.86l1.72,1.85A1.68,1.68,0,0,1,57.37,83.45Z"/><path class="cls-32" d="M73.4,75.28l-8.48-8.47-5.93,9v7.62a1.57,1.57,0,0,1,.54.29l6.22-6.29a2.53,2.53,0,0,1-.31-.64H60.77V75.21h4.74a2.41,2.41,0,1,1,2.24,3.33,3.1,3.1,0,0,1-.68-.1L60.46,85.1a2.59,2.59,0,0,1,.1.62,2.43,2.43,0,1,1-4.84.44,2.18,2.18,0,0,1,0-.25,2.24,2.24,0,0,1,.13-.89l-1.72-1.73-1.85,2.76,5.17,5.17a1,1,0,0,0,1.41,0l0,0L73.36,76.75a1,1,0,0,0,0-1.41s0,0,0,0Z"/><path class="cls-33" d="M65.51,75.21H60.77v1.62h4.67A2.21,2.21,0,0,1,65.51,75.21Z"/><path class="cls-33" d="M51,76.83h4.55V75.21H50.9a2.54,2.54,0,0,1,.19.9A2.19,2.19,0,0,1,51,76.83Z"/><path class="cls-33" d="M60.46,85.1l6.61-6.66a2.44,2.44,0,0,1-1.32-1l-6.22,6.29A2.33,2.33,0,0,1,60.46,85.1Z"/><path class="cls-33" d="M56.81,83.71l-1.73-1.85L50.71,77.4a2.45,2.45,0,0,1-1.28,1l4.69,4.84L55.84,85A2.32,2.32,0,0,1,56.81,83.71Z"/><path class="cls-1" d="M62.13,67.12l-3.93-4-4,4h3.15V83.45a1.68,1.68,0,0,0-.56.26,2.38,2.38,0,0,0-1,1.31,2.41,2.41,0,0,0,4.62,1.39,2.3,2.3,0,0,0,.1-.69,2.59,2.59,0,0,0-.1-.62,2.36,2.36,0,0,0-.93-1.34,1.57,1.57,0,0,0-.54-.29V67.12ZM58.2,87.07a1.35,1.35,0,1,1,1.34-1.36h0a1.34,1.34,0,0,1-1.33,1.35Z"/><path class="cls-1" d="M50.71,77.4a3.64,3.64,0,0,0,.25-.57,2.48,2.48,0,0,0,.13-.72,2.54,2.54,0,0,0-.19-.9,2.42,2.42,0,1,0-2.24,3.33,2.28,2.28,0,0,0,.77-.14A2.45,2.45,0,0,0,50.71,77.4Zm-2.05,0A1.35,1.35,0,1,1,50,76v0h0a1.34,1.34,0,0,1-1.29,1.39h-.05Z"/><path class="cls-1" d="M67.07,78.44a3.1,3.1,0,0,0,.68.1,2.43,2.43,0,1,0-2.24-3.33,2.21,2.21,0,0,0-.07,1.62,2.53,2.53,0,0,0,.31.64A2.39,2.39,0,0,0,67.07,78.44Zm.68-3.66a1.33,1.33,0,1,1-.31,0A1.61,1.61,0,0,1,67.75,74.78Z"/><path class="cls-34" d="M58.2,84.38a1.35,1.35,0,1,0,1.34,1.36v0h0A1.34,1.34,0,0,0,58.2,84.38Z"/><circle class="cls-34" cx="48.66" cy="76.11" r="1.34"/><path class="cls-34" d="M67.75,77.45a1.34,1.34,0,1,0-1.35-1.34h0a1.34,1.34,0,0,0,1.34,1.34Z"/></g><g id="ad94e297-0e86-4eaf-aac0-d146ee9aea65-2"><path class="cls-31" d="M154.18,83.24l-4.69-4.84a2.28,2.28,0,0,1-.77.14A2.43,2.43,0,1,1,151,75.21h4.61v1.62H151a3.64,3.64,0,0,1-.25.57l4.32,4.46,2.34-3.56V67.12h-3.15l4-4,4,4H159.1v8.73l5.93-9-6-6a1,1,0,0,0-1.41-.05l-.05.05h0L143.06,75.28a1,1,0,0,0-.05,1.41l.05,0h0l14.48,14.48-5.17-5.17Z"/><path class="cls-32" d="M157.43,83.45V78.28l-2.34,3.58,1.72,1.85A1.61,1.61,0,0,1,157.43,83.45Z"/><path class="cls-32" d="M173.46,75.28,165,66.81l-5.93,9v7.62a2.16,2.16,0,0,1,.54.29l6.22-6.29a2.53,2.53,0,0,1-.31-.64h-4.67V75.21h4.74a2.41,2.41,0,1,1,2.23,3.33,3,3,0,0,1-.67-.1l-6.61,6.66a2.59,2.59,0,0,1,.1.62,2.43,2.43,0,1,1-4.84.44,2.18,2.18,0,0,1,0-.25,2.24,2.24,0,0,1,.13-.89l-1.72-1.73-1.85,2.76,5.17,5.17a1,1,0,0,0,1.41,0l0,0,14.47-14.47a1,1,0,0,0,.05-1.41s0,0-.05,0Z"/><path class="cls-33" d="M165.57,75.21h-4.74v1.62h4.67A2.21,2.21,0,0,1,165.57,75.21Z"/><path class="cls-33" d="M151,76.83h4.55V75.21H151a2.33,2.33,0,0,1,.18.9A2.24,2.24,0,0,1,151,76.83Z"/><path class="cls-33" d="M160.52,85.1l6.61-6.66a2.41,2.41,0,0,1-1.32-1l-6.22,6.29A2.33,2.33,0,0,1,160.52,85.1Z"/><path class="cls-33" d="M156.86,83.71l-1.72-1.85-4.37-4.46a2.45,2.45,0,0,1-1.28,1l4.69,4.84L155.9,85A2.39,2.39,0,0,1,156.86,83.71Z"/><path class="cls-1" d="M162.19,67.12l-3.93-4-4,4h3.15V83.45a1.73,1.73,0,0,0-.57.26,2.41,2.41,0,1,0,2.71,4,2.35,2.35,0,0,0,.95-1.28,2.25,2.25,0,0,0,0-1.31,2.36,2.36,0,0,0-.93-1.34,2.16,2.16,0,0,0-.54-.29V67.12Zm-3.93,19.95a1.35,1.35,0,1,1,1.34-1.36h0a1.34,1.34,0,0,1-1.33,1.35Z"/><path class="cls-1" d="M150.77,77.4a3.64,3.64,0,0,0,.25-.57,2.18,2.18,0,0,0,.12-.72,2.33,2.33,0,0,0-.18-.9,2.42,2.42,0,1,0-2.24,3.33,2.28,2.28,0,0,0,.77-.14A2.45,2.45,0,0,0,150.77,77.4Zm-2.05,0A1.35,1.35,0,1,1,150.06,76v0h0a1.34,1.34,0,0,1-1.29,1.39h-.05Z"/><path class="cls-1" d="M167.13,78.44a3,3,0,0,0,.67.1,2.43,2.43,0,1,0-2.23-3.33,2.21,2.21,0,0,0-.07,1.62,2.53,2.53,0,0,0,.31.64A2.39,2.39,0,0,0,167.13,78.44Zm.67-3.66a1.35,1.35,0,0,1,1.2,1.48h0a1.34,1.34,0,1,1-1.49-1.49A1.41,1.41,0,0,1,167.8,74.78Z"/><path class="cls-34" d="M158.26,84.38a1.35,1.35,0,1,0,1.34,1.36v0h0A1.34,1.34,0,0,0,158.26,84.38Z"/><circle class="cls-34" cx="148.72" cy="76.11" r="1.34"/><path class="cls-34" d="M167.8,77.45a1.34,1.34,0,1,0-1.34-1.34h0A1.34,1.34,0,0,0,167.8,77.45Z"/></g><g id="ad94e297-0e86-4eaf-aac0-d146ee9aea65-3"><path class="cls-31" d="M254.21,83.24l-4.68-4.84a2.29,2.29,0,0,1-.78.14A2.43,2.43,0,1,1,251,75.21h4.62v1.62h-4.55a3.68,3.68,0,0,1-.26.57l4.33,4.46,2.34-3.56V67.12h-3.15l4-4,3.94,4h-3.15v8.73l5.93-9-6-6a1,1,0,0,0-1.41-.05l-.05.05h0L243.1,75.28a1,1,0,0,0,0,1.41l0,0h0l14.47,14.48-5.17-5.17Z"/><path class="cls-32" d="M257.47,83.45V78.28l-2.34,3.58,1.72,1.85A1.61,1.61,0,0,1,257.47,83.45Z"/><path class="cls-32" d="M273.49,75.28,265,66.81l-5.93,9v7.62a1.83,1.83,0,0,1,.53.29l6.22-6.29a2.91,2.91,0,0,1-.31-.64h-4.67V75.21h4.74a2.42,2.42,0,1,1,2.24,3.33,3,3,0,0,1-.67-.1l-6.62,6.66a2.18,2.18,0,0,1,.11.62,2.43,2.43,0,0,1-4.86.21,2.55,2.55,0,0,1,.14-.91l-1.73-1.73-1.84,2.76,5.17,5.17a1,1,0,0,0,1.41,0l0,0,14.47-14.47a1,1,0,0,0,.05-1.41l-.05,0Z"/><path class="cls-33" d="M265.6,75.21h-4.74v1.62h4.67a2.93,2.93,0,0,1-.12-.72A2.3,2.3,0,0,1,265.6,75.21Z"/><path class="cls-33" d="M251.06,76.83h4.55V75.21H251a2.21,2.21,0,0,1,.07,1.62Z"/><path class="cls-33" d="M260.55,85.1l6.62-6.66a2.43,2.43,0,0,1-1.33-1l-6.22,6.29A2.27,2.27,0,0,1,260.55,85.1Z"/><path class="cls-33" d="M256.9,83.71l-1.72-1.85L250.8,77.4a2.46,2.46,0,0,1-1.27,1l4.68,4.84L255.94,85A2.35,2.35,0,0,1,256.9,83.71Z"/><path class="cls-1" d="M262.23,67.12l-3.93-4-4,4h3.15V83.45a1.73,1.73,0,0,0-.57.26,2.34,2.34,0,0,0-1,1.31,2.41,2.41,0,0,0,4.55,1.6l.06-.21a2.31,2.31,0,0,0,.11-.69,2.18,2.18,0,0,0-.11-.62,2.24,2.24,0,0,0-.93-1.34,1.83,1.83,0,0,0-.53-.29V67.12ZM258.3,87.07a1.35,1.35,0,1,1,1.34-1.36h0a1.34,1.34,0,0,1-1.33,1.35Z"/><path class="cls-1" d="M250.8,77.4a3.68,3.68,0,0,0,.26-.57,2.21,2.21,0,0,0-.07-1.62,2.41,2.41,0,1,0-2.24,3.33,2.29,2.29,0,0,0,.78-.14A2.46,2.46,0,0,0,250.8,77.4Zm-2.05,0a1.35,1.35,0,0,1,0-2.69,1.37,1.37,0,0,1,1.35,1.35h0a1.36,1.36,0,0,1-1.3,1.39h-.05Z"/><path class="cls-1" d="M267.17,78.44a3,3,0,0,0,.67.1,2.43,2.43,0,1,0-2.24-3.33,2.3,2.3,0,0,0-.19.9,2.53,2.53,0,0,0,.43,1.36A2.45,2.45,0,0,0,267.17,78.44Zm.67-3.66a1.34,1.34,0,1,1-1.49,1.5h0a1.35,1.35,0,0,1,1.19-1.49,1.5,1.5,0,0,1,.3,0Z"/><path class="cls-34" d="M258.3,84.38a1.35,1.35,0,1,0,1.34,1.36v0h0A1.34,1.34,0,0,0,258.3,84.38Z"/><circle class="cls-34" cx="248.75" cy="76.11" r="1.34"/><path class="cls-34" d="M267.84,77.45a1.34,1.34,0,1,0-1.34-1.34h0A1.34,1.34,0,0,0,267.84,77.45Z"/></g></g></g><g id="Text"><path class="cls-35" d="M52.06,31.82v3.27h-1V26.47h2.33a3.08,3.08,0,0,1,2.12.67A2.42,2.42,0,0,1,56.32,29a2.61,2.61,0,0,1-.89,2,3.09,3.09,0,0,1-2.22.74Zm0-4.47v3.58h1.08a2.41,2.41,0,0,0,1.62-.48,1.68,1.68,0,0,0,.56-1.37c0-1.15-.68-1.73-2-1.73Z"/><path class="cls-35" d="M58.91,35.09H58V26.47h.94Z"/><path class="cls-35" d="M62.15,31.82v3.27H61.2V26.47h2.33a3.08,3.08,0,0,1,2.12.67A2.42,2.42,0,0,1,66.41,29a2.61,2.61,0,0,1-.89,2,3.09,3.09,0,0,1-2.22.74Zm0-4.47v3.58h1.08a2.41,2.41,0,0,0,1.62-.48,1.68,1.68,0,0,0,.56-1.37c0-1.15-.68-1.73-2-1.73Z"/><path class="cls-35" d="M55.08,48.25H54L53.1,45.8H49.4l-.87,2.45H47.47l3.32-8.63h1Zm-2.3-3.32L51.4,41.2a2.42,2.42,0,0,1-.13-.57h0a2.32,2.32,0,0,1-.14.57l-1.37,3.73Z"/><path class="cls-35" d="M62.34,39.81l-5.1,7.57h5v.87H55.8V48l5-7.53H56.21v-.87h6.13Z"/><path class="cls-35" d="M66.78,48.25h-.93V40.8a3.59,3.59,0,0,1-.88.58,5.19,5.19,0,0,1-1.11.44v-1a6.57,6.57,0,0,0,1.38-.59,5.93,5.93,0,0,0,1.16-.8h.38Z"/><path class="cls-35" d="M152,31.82v3.27H151V26.47h2.33a3.1,3.1,0,0,1,2.12.67,2.41,2.41,0,0,1,.75,1.89,2.58,2.58,0,0,1-.89,2,3.06,3.06,0,0,1-2.21.74Zm0-4.47v3.58h1.09a2.41,2.41,0,0,0,1.62-.48,1.71,1.71,0,0,0,.56-1.37c0-1.15-.69-1.73-2.05-1.73Z"/><path class="cls-35" d="M158.83,35.09h-.94V26.47h.94Z"/><path class="cls-35" d="M162.06,31.82v3.27h-.94V26.47h2.33a3.05,3.05,0,0,1,2.11.67,2.39,2.39,0,0,1,.76,1.89,2.58,2.58,0,0,1-.89,2,3.06,3.06,0,0,1-2.21.74Zm0-4.47v3.58h1.09a2.45,2.45,0,0,0,1.62-.48,1.71,1.71,0,0,0,.56-1.37c0-1.15-.69-1.73-2.05-1.73Z"/><path class="cls-35" d="M155,48.25H154L153,45.8h-3.69l-.88,2.45h-1.05l3.31-8.63h1Zm-2.31-3.32-1.38-3.73a2.51,2.51,0,0,1-.12-.57h0a2.9,2.9,0,0,1-.14.57l-1.37,3.73Z"/><path class="cls-35" d="M162.25,39.81l-5.09,7.57h5v.87h-6.41V48l5-7.53h-4.64v-.87h6.13Z"/><path class="cls-35" d="M167.23,41.92a1.61,1.61,0,0,0-.45-1.21,1.71,1.71,0,0,0-1.22-.44,2.28,2.28,0,0,0-1.07.28,3.55,3.55,0,0,0-1,.76v-1a3,3,0,0,1,2.17-.83,2.5,2.5,0,0,1,1.79.64,2.24,2.24,0,0,1,.67,1.72,3,3,0,0,1-.43,1.63,5.37,5.37,0,0,1-1.48,1.45,15.28,15.28,0,0,0-1.37,1,2.31,2.31,0,0,0-.53.67,1.67,1.67,0,0,0-.16.76h4.18v.85h-5.17v-.43a3.37,3.37,0,0,1,.2-1.21,3,3,0,0,1,.65-1,10.24,10.24,0,0,1,1.48-1.19,5.13,5.13,0,0,0,1.32-1.21A2.24,2.24,0,0,0,167.23,41.92Z"/><path class="cls-35" d="M18.27,10.16H17.22l-.93-2.45h-3.7l-.87,2.45H10.66L14,1.54h1ZM16,6.85,14.59,3.12a2.7,2.7,0,0,1-.13-.57h0a2.32,2.32,0,0,1-.14.57L12.92,6.85Z"/><path class="cls-35" d="M25.53,1.72l-5.1,7.57h5v.87H19V9.93l5-7.52H19.4V1.54h6.13Z"/><path class="cls-35" d="M30,10.16H29V2.71a3.78,3.78,0,0,1-.88.59A5,5,0,0,1,27,3.73v-1a6.63,6.63,0,0,0,1.39-.59,6.4,6.4,0,0,0,1.16-.8H30Z"/><path class="cls-35" d="M118.31,10.16h-1l-.94-2.45h-3.7l-.87,2.45H110.7L114,1.54h1ZM116,6.85l-1.38-3.73a3.51,3.51,0,0,1-.13-.57h0a2.32,2.32,0,0,1-.14.57L113,6.85Z"/><path class="cls-35" d="M125.57,1.72l-5.1,7.57h5v.87H119V9.93l5-7.52h-4.63V1.54h6.13Z"/><path class="cls-35" d="M130.55,3.84a1.57,1.57,0,0,0-.46-1.21,1.64,1.64,0,0,0-1.21-.44,2.29,2.29,0,0,0-1.08.28,3.33,3.33,0,0,0-1,.76v-1A3,3,0,0,1,129,1.4a2.51,2.51,0,0,1,1.78.63,2.27,2.27,0,0,1,.68,1.73A3,3,0,0,1,131,5.39a5.3,5.3,0,0,1-1.47,1.44,13.91,13.91,0,0,0-1.37,1,2.35,2.35,0,0,0-.54.68,1.74,1.74,0,0,0-.16.76h4.19v.84h-5.18V9.74a3.33,3.33,0,0,1,.2-1.21,3,3,0,0,1,.66-1,10.12,10.12,0,0,1,1.47-1.18,5.21,5.21,0,0,0,1.33-1.22A2.21,2.21,0,0,0,130.55,3.84Z"/><path class="cls-35" d="M252,31.82v3.27h-1V26.47h2.33a3.08,3.08,0,0,1,2.12.67,2.42,2.42,0,0,1,.76,1.89,2.61,2.61,0,0,1-.89,2,3.1,3.1,0,0,1-2.22.74Zm0-4.47v3.58h1.08a2.41,2.41,0,0,0,1.62-.48,1.71,1.71,0,0,0,.56-1.37c0-1.15-.68-1.73-2.05-1.73Z"/><path class="cls-35" d="M258.87,35.09h-.94V26.47h.94Z"/><path class="cls-35" d="M262.11,31.82v3.27h-.95V26.47h2.33a3.08,3.08,0,0,1,2.12.67,2.42,2.42,0,0,1,.76,1.89,2.61,2.61,0,0,1-.89,2,3.1,3.1,0,0,1-2.22.74Zm0-4.47v3.58h1.08a2.41,2.41,0,0,0,1.62-.48,1.71,1.71,0,0,0,.56-1.37c0-1.15-.68-1.73-2.05-1.73Z"/><path class="cls-35" d="M255,48.25h-1l-.93-2.45h-3.7l-.87,2.45h-1.06l3.32-8.63h1Zm-2.31-3.32-1.37-3.73a2.42,2.42,0,0,1-.13-.57h0a2.32,2.32,0,0,1-.14.57l-1.37,3.73Z"/><path class="cls-35" d="M262.3,39.81l-5.1,7.57h5v.87h-6.41V48l5-7.53h-4.63v-.87h6.13Z"/><path class="cls-35" d="M263.33,46.9a3.15,3.15,0,0,0,2,.7,2.17,2.17,0,0,0,1.45-.46,1.49,1.49,0,0,0,.55-1.23c0-1.15-.81-1.73-2.43-1.73h-.71v-.79h.68q2.16,0,2.16-1.62c0-1-.55-1.49-1.65-1.49a2.75,2.75,0,0,0-1.71.62V40a3.67,3.67,0,0,1,1.95-.49,2.49,2.49,0,0,1,1.69.57,1.84,1.84,0,0,1,.67,1.48,2.14,2.14,0,0,1-1.73,2.2v0a2.26,2.26,0,0,1,1.49.65,1.94,1.94,0,0,1,.55,1.41,2.31,2.31,0,0,1-.85,1.88,3.29,3.29,0,0,1-2.17.7,3.6,3.6,0,0,1-1.94-.46Z"/><path class="cls-35" d="M83.17,90.26h-1l-.93-2.45h-3.7l-.87,2.45H75.56l3.32-8.62h1ZM80.86,87l-1.37-3.73a2.7,2.7,0,0,1-.13-.57h0a2.32,2.32,0,0,1-.14.57L77.82,87Z"/><path class="cls-35" d="M90.43,81.82l-5.1,7.57h5v.87H83.89V90l5-7.52H84.3v-.87h6.13Z"/><path class="cls-35" d="M94.87,90.26h-.93V82.81a3.78,3.78,0,0,1-.88.59,5,5,0,0,1-1.12.43v-1a6.63,6.63,0,0,0,1.39-.59,6.4,6.4,0,0,0,1.16-.8h.38Z"/><path class="cls-35" d="M36.5,203.28h-1l-.94-2.45H30.82l-.88,2.45H28.89l3.31-8.62h1ZM34.19,200l-1.38-3.73a2.78,2.78,0,0,1-.12-.57h0a2.9,2.9,0,0,1-.14.57L31.15,200Z"/><path class="cls-35" d="M43.75,194.85l-5.09,7.57h5v.86h-6.4v-.23l5-7.52H37.62v-.87h6.13Z"/><path class="cls-35" d="M48.19,203.28h-.93v-7.44a3.9,3.9,0,0,1-.88.58,4.74,4.74,0,0,1-1.11.43v-1a7.47,7.47,0,0,0,2.55-1.39h.37Z"/><path class="cls-35" d="M183.09,90.26H182l-.94-2.45h-3.69l-.88,2.45h-1.05l3.31-8.62h1ZM180.78,87l-1.38-3.73a3.51,3.51,0,0,1-.13-.57h0a2.22,2.22,0,0,1-.15.57L177.74,87Z"/><path class="cls-35" d="M190.34,81.82l-5.09,7.57h5v.87h-6.4V90l5-7.52h-4.64v-.87h6.13Z"/><path class="cls-35" d="M195.32,83.94a1.6,1.6,0,0,0-.45-1.21,1.66,1.66,0,0,0-1.22-.44,2.22,2.22,0,0,0-1.07.28,3.37,3.37,0,0,0-1,.76v-1a3,3,0,0,1,2.17-.82,2.5,2.5,0,0,1,1.78.63,2.24,2.24,0,0,1,.68,1.73,3,3,0,0,1-.43,1.63,5.22,5.22,0,0,1-1.48,1.44A15.28,15.28,0,0,0,193,88a2.75,2.75,0,0,0-.54.68,1.75,1.75,0,0,0-.15.76h4.18v.84h-5.17v-.42a3.34,3.34,0,0,1,.19-1.21,3.19,3.19,0,0,1,.66-1,10.71,10.71,0,0,1,1.47-1.18,5.21,5.21,0,0,0,1.33-1.22A2.21,2.21,0,0,0,195.32,83.94Z"/><path class="cls-35" d="M283.13,90.26h-1.05l-.94-2.45h-3.69l-.88,2.45h-1.05l3.32-8.62h1ZM280.82,87l-1.37-3.73a2.19,2.19,0,0,1-.13-.57h0a2.9,2.9,0,0,1-.14.57L277.78,87Z"/><path class="cls-35" d="M290.38,81.82l-5.09,7.57h5v.87h-6.41V90l5-7.52h-4.63v-.87h6.12Z"/><path class="cls-35" d="M291.42,88.91a3.15,3.15,0,0,0,2,.71,2.24,2.24,0,0,0,1.46-.46,1.51,1.51,0,0,0,.55-1.24c0-1.15-.81-1.72-2.43-1.72h-.71v-.8H293c1.44,0,2.16-.53,2.16-1.61s-.55-1.5-1.65-1.5a2.7,2.7,0,0,0-1.71.63V82a3.67,3.67,0,0,1,1.95-.49,2.55,2.55,0,0,1,1.69.56,1.86,1.86,0,0,1,.67,1.49,2.12,2.12,0,0,1-1.73,2.19v0a2.31,2.31,0,0,1,1.49.65,2,2,0,0,1,.55,1.41,2.32,2.32,0,0,1-.85,1.88,3.29,3.29,0,0,1-2.17.71,3.69,3.69,0,0,1-1.94-.46Z"/><path class="cls-35" d="M218.36,10.16h-1.05l-.94-2.45h-3.7l-.87,2.45h-1.05l3.31-8.62h1Zm-2.31-3.31-1.38-3.73a3.51,3.51,0,0,1-.13-.57h0a2.32,2.32,0,0,1-.14.57L213,6.85Z"/><path class="cls-35" d="M225.61,1.72l-5.1,7.57h5v.87h-6.4V9.93l5-7.52h-4.64V1.54h6.13Z"/><path class="cls-35" d="M226.65,8.81a3.13,3.13,0,0,0,2,.71,2.26,2.26,0,0,0,1.46-.46,1.51,1.51,0,0,0,.55-1.24c0-1.15-.81-1.72-2.43-1.72h-.72V5.3h.68c1.45,0,2.17-.54,2.17-1.61s-.55-1.5-1.65-1.5a2.75,2.75,0,0,0-1.72.63V1.89a3.72,3.72,0,0,1,2-.49,2.56,2.56,0,0,1,1.7.56,1.88,1.88,0,0,1,.66,1.49,2.11,2.11,0,0,1-1.72,2.19v0a2.28,2.28,0,0,1,1.48.65,2,2,0,0,1,.56,1.41,2.29,2.29,0,0,1-.86,1.88,3.29,3.29,0,0,1-2.16.71,3.66,3.66,0,0,1-1.94-.46Z"/><path class="cls-35" d="M141.41,133.22a10,10,0,0,1-1.82-1.89,6.39,6.39,0,0,1-1.07-2,7.36,7.36,0,0,1-1.1,2.1,9.35,9.35,0,0,1-1.79,1.9l-.69-.6a7.29,7.29,0,0,0,2.27-2.48,6.18,6.18,0,0,0,.85-3.08v-1.92H139v1.88a5.88,5.88,0,0,0,.84,3,6.92,6.92,0,0,0,2.25,2.38Zm2.25,3v-7.06H141v-.81h2.7v-3.85h.9v11.72Z"/><path class="cls-35" d="M147.19,134.23v-.83h10.74v.83ZM149,131v-5.46h.9v1.88h5.35v-1.88h.9V131Zm6.25-2.76h-5.35v1.94h5.35Z"/><path class="cls-35" d="M165.28,130.36c-1.12.12-2.71.18-4.76.18v-5.31h.89v4.53a27.2,27.2,0,0,0,3.79-.19Zm4.17,5.57a6.63,6.63,0,0,1-2.36-1.1,5.52,5.52,0,0,1-1.69-1.78,4.91,4.91,0,0,1-1.59,1.75,6.73,6.73,0,0,1-2.4,1.13l-.57-.79a5.47,5.47,0,0,0,2.84-1.32,3.09,3.09,0,0,0,1.28-2.17v-.27h.89v.26a3.07,3.07,0,0,0,1.25,2.16,5.38,5.38,0,0,0,2.87,1.34Zm-3.27-4.47v-3.55h-2.66v-.8h2.66V124.7h.88v6.76Zm2.09.86v-7.85h.89v7.85Z"/><path class="cls-35" d="M176.37,135.1v-8.94h2.46a2.65,2.65,0,0,1,1.77.56,1.83,1.83,0,0,1,.68,1.48,2.22,2.22,0,0,1-.4,1.32,2.17,2.17,0,0,1-1.12.81v0a2.09,2.09,0,0,1,2,2.18,2.37,2.37,0,0,1-.81,1.86,3,3,0,0,1-2,.71Zm1-8V130h1.08a2,2,0,0,0,1.37-.43,1.51,1.51,0,0,0,.48-1.18c0-.89-.57-1.33-1.71-1.33Zm0,3.84v3.27h1.43a2.09,2.09,0,0,0,1.43-.44,1.52,1.52,0,0,0,.52-1.22c0-1.07-.73-1.61-2.18-1.61Z"/><path class="cls-35" d="M41,133.41a9.39,9.39,0,0,1-1.82-1.89,6.24,6.24,0,0,1-1.08-2,7.12,7.12,0,0,1-1.1,2.1,9.08,9.08,0,0,1-1.79,1.9l-.69-.6a7.32,7.32,0,0,0,2.28-2.48,6.3,6.3,0,0,0,.84-3.08v-1.92h.89v1.88a5.88,5.88,0,0,0,.84,3,7,7,0,0,0,2.26,2.38Zm2.25,3v-7.06h-2.7v-.81h2.7v-3.85h.9v11.72Z"/><path class="cls-35" d="M46.78,134.42v-.83H57.52v.83Zm1.8-3.28v-5.46h.9v1.88h5.35v-1.88h.9v5.46Zm6.25-2.76H49.48v1.94h5.35Z"/><path class="cls-35" d="M64.87,130.55c-1.12.12-2.7.18-4.76.18v-5.31H61V130a27.37,27.37,0,0,0,3.8-.19ZM69,136.12a6.68,6.68,0,0,1-2.35-1.1,5.56,5.56,0,0,1-1.7-1.78A5,5,0,0,1,63.4,135a6.57,6.57,0,0,1-2.4,1.13l-.57-.79A5.43,5.43,0,0,0,63.27,134a3.09,3.09,0,0,0,1.28-2.17v-.27h.89v.26A3.07,3.07,0,0,0,66.69,134a5.38,5.38,0,0,0,2.87,1.34Zm-3.27-4.47v-3.56H63.11v-.79h2.66v-2.41h.88v6.76Zm2.1.86v-7.85h.88v7.85Z"/><path class="cls-35" d="M82.73,135.28H81.65l-1-2.53H76.91l-.9,2.53H74.93l3.4-8.93h1Zm-2.37-3.43L79,128a3.84,3.84,0,0,1-.13-.59h0a2.54,2.54,0,0,1-.14.59l-1.4,3.86Z"/><path class="cls-35" d="M241.11,133.22a9.39,9.39,0,0,1-1.82-1.89,6.24,6.24,0,0,1-1.08-2,7.12,7.12,0,0,1-1.1,2.1,9,9,0,0,1-1.78,1.9l-.69-.6a7.29,7.29,0,0,0,2.27-2.48,6.28,6.28,0,0,0,.85-3.08v-1.92h.88v1.88a5.88,5.88,0,0,0,.84,3,7,7,0,0,0,2.26,2.38Zm2.25,3v-7.06h-2.7v-.81h2.7v-3.85h.9v11.72Z"/><path class="cls-35" d="M246.89,134.23v-.83h10.73v.83Zm1.79-3.28v-5.46h.9v1.88h5.35v-1.88h.9V131Zm6.25-2.76h-5.35v1.94h5.35Z"/><path class="cls-35" d="M265,130.36c-1.12.12-2.7.18-4.76.18v-5.31h.89v4.53a27.37,27.37,0,0,0,3.8-.19Zm4.18,5.57a6.55,6.55,0,0,1-2.36-1.1,5.67,5.67,0,0,1-1.7-1.78,4.91,4.91,0,0,1-1.59,1.75,6.57,6.57,0,0,1-2.4,1.13l-.57-.79a5.43,5.43,0,0,0,2.84-1.32,3.09,3.09,0,0,0,1.28-2.17v-.27h.9v.26a3,3,0,0,0,1.25,2.16,5.35,5.35,0,0,0,2.86,1.34Zm-3.27-4.47v-3.55h-2.67v-.8h2.67V124.7h.87v6.76Zm2.09.86v-7.85h.88v7.85Z"/><path class="cls-35" d="M282,134.71a5,5,0,0,1-2.43.54,3.91,3.91,0,0,1-3-1.24,4.61,4.61,0,0,1-1.13-3.21,4.9,4.9,0,0,1,1.25-3.44A4.23,4.23,0,0,1,280,126a5,5,0,0,1,2.07.37v1.06a4.22,4.22,0,0,0-2.09-.53,3.21,3.21,0,0,0-2.52,1.07,4.08,4.08,0,0,0-.93,2.76,3.8,3.8,0,0,0,.88,2.61,3,3,0,0,0,2.35,1,4.32,4.32,0,0,0,2.31-.59Z"/><path class="cls-35" d="M37.83,181.38l-3.23,8.76h-1l-3.15-8.76h1.06l2.44,7a4.31,4.31,0,0,1,.17.76h0a4.4,4.4,0,0,1,.19-.78l2.5-7Z"/><path class="cls-35" d="M46.85,190.14v-5.92c0-.45,0-1,.09-1.69h0a4.8,4.8,0,0,1-.25.83l-3,6.78h-.43l-3-6.73a4.06,4.06,0,0,1-.24-.88h0c0,.22,0,.78,0,1.68v5.93h-.92v-8.76h1.24L43,187.55a8.26,8.26,0,0,1,.4,1h0c.06-.16.2-.52.42-1.07l2.77-6.14H47.8v8.76Z"/><path class="cls-35" d="M73.16,203.28h-1l-.93-2.45h-3.7l-.87,2.45H65.55l3.32-8.62h1ZM70.85,200l-1.37-3.73a2.7,2.7,0,0,1-.13-.57h0a2.32,2.32,0,0,1-.14.57L67.81,200Z"/><path class="cls-35" d="M80.42,194.85l-5.1,7.57h5v.86H73.88v-.23l5-7.52H74.29v-.87h6.13Z"/><path class="cls-35" d="M84.86,203.28h-.93v-7.44a4.15,4.15,0,0,1-.88.58,5,5,0,0,1-1.12.43v-1a6.86,6.86,0,0,0,1.39-.59,6.4,6.4,0,0,0,1.16-.8h.38Z"/><path class="cls-35" d="M74.49,181.38l-3.22,8.76h-1l-3.16-8.76h1.07l2.43,7a3.57,3.57,0,0,1,.17.76h0a3.74,3.74,0,0,1,.2-.78l2.49-7Z"/><path class="cls-35" d="M83.52,190.14v-5.92c0-.45,0-1,.09-1.69h0a4.6,4.6,0,0,1-.26.83l-3,6.78h-.43l-3-6.73a3.94,3.94,0,0,1-.25-.88h0c0,.22,0,.78,0,1.68v5.93h-.93v-8.76H77l2.71,6.17a8.26,8.26,0,0,1,.4,1h0c.06-.16.2-.52.42-1.07l2.77-6.14h1.17v8.76Z"/><path class="cls-35" d="M136.45,203.28h-1l-.94-2.45h-3.7l-.87,2.45h-1l3.31-8.62h1ZM134.14,200l-1.38-3.73a3.51,3.51,0,0,1-.13-.57h0a2.32,2.32,0,0,1-.14.57L131.1,200Z"/><path class="cls-35" d="M143.7,194.85l-5.1,7.57h5v.86h-6.4v-.23l5-7.52h-4.64v-.87h6.13Z"/><path class="cls-35" d="M148.68,197a1.57,1.57,0,0,0-.46-1.21,1.62,1.62,0,0,0-1.21-.44,2.29,2.29,0,0,0-1.08.28,3.33,3.33,0,0,0-1,.76v-1a3,3,0,0,1,2.17-.82,2.46,2.46,0,0,1,1.78.64,2.25,2.25,0,0,1,.68,1.72,3.12,3.12,0,0,1-.43,1.63,5.36,5.36,0,0,1-1.48,1.44,15.71,15.71,0,0,0-1.37,1.05,2.75,2.75,0,0,0-.54.68,1.78,1.78,0,0,0-.15.76h4.18v.84h-5.17v-.42a3.34,3.34,0,0,1,.19-1.21,3,3,0,0,1,.66-1,10.71,10.71,0,0,1,1.47-1.18,5.2,5.2,0,0,0,1.33-1.21A2.26,2.26,0,0,0,148.68,197Z"/><path class="cls-35" d="M137.77,181.38l-3.22,8.76h-1l-3.15-8.76h1.06l2.44,7a4.31,4.31,0,0,1,.17.76h0a3.67,3.67,0,0,1,.19-.78l2.49-7Z"/><path class="cls-35" d="M146.8,190.14v-5.92c0-.45,0-1,.09-1.69h0a4.8,4.8,0,0,1-.25.83l-3,6.78h-.43l-3-6.73a4.58,4.58,0,0,1-.25-.88h0c0,.22,0,.78,0,1.68v5.93H139v-8.76h1.24l2.7,6.17a8.86,8.86,0,0,1,.41,1h0c.06-.16.2-.52.43-1.07l2.77-6.14h1.17v8.76Z"/><path class="cls-35" d="M173.3,203.28h-1.05l-.94-2.45h-3.69l-.88,2.45h-1.05l3.31-8.62h1ZM171,200l-1.38-3.73a2.78,2.78,0,0,1-.12-.57h0a2.9,2.9,0,0,1-.14.57L168,200Z"/><path class="cls-35" d="M180.55,194.85l-5.09,7.57h5v.86H174v-.23l5-7.52h-4.64v-.87h6.13Z"/><path class="cls-35" d="M185.53,197a1.6,1.6,0,0,0-.45-1.21,1.66,1.66,0,0,0-1.22-.44,2.25,2.25,0,0,0-1.07.28,3.37,3.37,0,0,0-1,.76v-1a3,3,0,0,1,2.17-.82,2.5,2.5,0,0,1,1.79.64,2.24,2.24,0,0,1,.67,1.72,3,3,0,0,1-.43,1.63,5.22,5.22,0,0,1-1.48,1.44c-.65.47-1.11.81-1.37,1.05a2.47,2.47,0,0,0-.53.68,1.64,1.64,0,0,0-.16.76h4.18v.84h-5.17v-.42a2.87,2.87,0,0,1,.85-2.19,10.31,10.31,0,0,1,1.48-1.18,5.13,5.13,0,0,0,1.32-1.21A2.26,2.26,0,0,0,185.53,197Z"/><path class="cls-35" d="M174.63,181.38l-3.23,8.76h-1l-3.15-8.76h1.06l2.44,7a4.31,4.31,0,0,1,.17.76h0a4.4,4.4,0,0,1,.19-.78l2.5-7Z"/><path class="cls-35" d="M183.65,190.14v-5.92c0-.45,0-1,.09-1.69h0a4.8,4.8,0,0,1-.25.83l-3,6.78H180l-3-6.73a4.58,4.58,0,0,1-.25-.88h0c0,.22,0,.78,0,1.68v5.93h-.92v-8.76h1.24l2.71,6.17a8.26,8.26,0,0,1,.4,1h0c.06-.16.2-.52.42-1.07l2.77-6.14h1.17v8.76Z"/><path class="cls-35" d="M236.58,203.28h-1l-.94-2.45h-3.7l-.87,2.45H229l3.32-8.62h1Zm-2.3-3.31-1.38-3.73a2.7,2.7,0,0,1-.13-.57h0a2.32,2.32,0,0,1-.14.57L231.23,200Z"/><path class="cls-35" d="M243.84,194.85l-5.1,7.57h5v.86H237.3v-.23l5-7.52h-4.63v-.87h6.13Z"/><path class="cls-35" d="M244.88,201.93a3.11,3.11,0,0,0,2,.71,2.17,2.17,0,0,0,1.45-.46,1.52,1.52,0,0,0,.56-1.24c0-1.15-.81-1.72-2.43-1.72h-.72v-.79h.68q2.16,0,2.16-1.62c0-1-.55-1.5-1.64-1.5a2.73,2.73,0,0,0-1.72.63V195a3.72,3.72,0,0,1,1.95-.49,2.53,2.53,0,0,1,1.7.57,1.85,1.85,0,0,1,.66,1.48,2.11,2.11,0,0,1-1.73,2.19v0a2.31,2.31,0,0,1,1.49.65,2,2,0,0,1,.55,1.42,2.31,2.31,0,0,1-.85,1.88,3.34,3.34,0,0,1-2.17.7,3.62,3.62,0,0,1-1.93-.46Z"/><path class="cls-35" d="M237.91,181.38l-3.22,8.76h-1l-3.16-8.76h1.07l2.43,7a3.05,3.05,0,0,1,.17.76h0a4.48,4.48,0,0,1,.2-.78l2.49-7Z"/><path class="cls-35" d="M246.94,190.14v-5.92c0-.45,0-1,.09-1.69h0a4.6,4.6,0,0,1-.26.83l-3,6.78h-.43l-3-6.73a4.58,4.58,0,0,1-.25-.88h0c0,.22.05.78.05,1.68v5.93h-.93v-8.76h1.24l2.71,6.17c.22.5.35.85.41,1h0c.06-.16.2-.52.42-1.07l2.77-6.14h1.17v8.76Z"/><path class="cls-35" d="M273.34,203.28h-1l-.93-2.45h-3.7l-.87,2.45h-1.06l3.32-8.62h1ZM271,200l-1.37-3.73a2.7,2.7,0,0,1-.13-.57h0a2.32,2.32,0,0,1-.14.57L268,200Z"/><path class="cls-35" d="M280.6,194.85l-5.1,7.57h5v.86h-6.41v-.23l5-7.52h-4.63v-.87h6.13Z"/><path class="cls-35" d="M281.63,201.93a3.16,3.16,0,0,0,2,.71,2.17,2.17,0,0,0,1.45-.46,1.51,1.51,0,0,0,.55-1.24c0-1.15-.81-1.72-2.43-1.72h-.71v-.79h.68q2.16,0,2.16-1.62t-1.65-1.5a2.7,2.7,0,0,0-1.71.63V195a3.67,3.67,0,0,1,1.95-.49,2.49,2.49,0,0,1,1.69.57,1.82,1.82,0,0,1,.67,1.48,2.12,2.12,0,0,1-1.73,2.19v0a2.31,2.31,0,0,1,1.49.65,2,2,0,0,1,.55,1.42,2.31,2.31,0,0,1-.85,1.88,3.34,3.34,0,0,1-2.17.7,3.69,3.69,0,0,1-1.94-.46Z"/><path class="cls-35" d="M274.67,181.38l-3.22,8.76H270.4l-3.15-8.76h1.07l2.43,7a3.57,3.57,0,0,1,.17.76h0a3.74,3.74,0,0,1,.2-.78l2.49-7Z"/><path class="cls-35" d="M283.7,190.14v-5.92c0-.45,0-1,.08-1.69h0a4,4,0,0,1-.25.83l-3,6.78h-.42l-3-6.73a4.75,4.75,0,0,1-.24-.88h0c0,.22,0,.78,0,1.68v5.93h-.92v-8.76h1.24l2.71,6.17a8.26,8.26,0,0,1,.4,1h0c.06-.16.2-.52.42-1.07l2.77-6.14h1.17v8.76Z"/><path class="cls-35" d="M16.47,240.54q-.13,4.89-5.11,7.74l-.67-.72a8.44,8.44,0,0,0,3.19-2.41,7,7,0,0,0,1.65-3.82H11.17v-.79Zm2.79,4.5v6h-.88V239.51h.88v4.74h2V245Z"/><path class="cls-35" d="M28.5,245.51A7.25,7.25,0,0,1,27,244.34a5,5,0,0,1-1.11-1.43,5.55,5.55,0,0,1-1.09,1.58,6.91,6.91,0,0,1-1.62,1.32l-.64-.62a5.73,5.73,0,0,0,2.08-1.74,3.91,3.91,0,0,0,.83-2.34V239.9h.84v1.21a3.53,3.53,0,0,0,.83,2.2,5.1,5.1,0,0,0,2,1.55Zm-.64,5.39a5.06,5.06,0,0,1-2.73-.62,1.82,1.82,0,0,1,0-3.21,5.06,5.06,0,0,1,2.73-.62,5.07,5.07,0,0,1,2.73.61,1.83,1.83,0,0,1,0,3.22A5,5,0,0,1,27.86,250.9Zm0-3.69a4.22,4.22,0,0,0-2,.4,1.2,1.2,0,0,0-.72,1.06,1.21,1.21,0,0,0,.72,1.07,4.26,4.26,0,0,0,2,.41,4.22,4.22,0,0,0,2.05-.41,1.14,1.14,0,0,0,0-2.13A4.23,4.23,0,0,0,27.86,247.21Zm3.5-3.74v2.66h-.87v-6.62h.87v3.15h1.72v.81Z"/><path class="cls-35" d="M16.1,260.75a32.89,32.89,0,0,1-4.84.2v-7.37h.87v6.58h.53A29.37,29.37,0,0,0,16,260Zm.87,3.07v-6.55H14.34v-.78H17v-3.55h.87v10.88Zm2.26.38V252.71h.88V264.2Z"/><path class="cls-35" d="M22.48,262.39v-.79H33v.79Zm8.9-7.78H25v1.66h6v.79H25v1.58h6.52v.79H24.18v-5.6h7.2Z"/><path class="cls-35" d="M38,263.87v-4.22l-3.32.05-.09-.78q4.84,0,7.69-.17l0,.77c-.53,0-1.68.07-3.44.12v4.23Zm.42-6.05a3.06,3.06,0,0,1-2.09-.68,2.26,2.26,0,0,1,0-3.43,3.54,3.54,0,0,1,4.17,0,2.26,2.26,0,0,1,0,3.44A3.12,3.12,0,0,1,38.39,257.82Zm0-4a2.22,2.22,0,0,0-1.46.45,1.54,1.54,0,0,0,0,2.36,2.64,2.64,0,0,0,2.92,0,1.55,1.55,0,0,0,0-2.36A2.19,2.19,0,0,0,38.39,253.8Zm2.11,7.67v-.81h2.67v-8h.88V264.2h-.88v-2.73Z"/><path class="cls-35" d="M46.57,262.08v-.79h7.7c.11-1.28.18-2.44.22-3.48l-6.85.36-.19-.87,7-.25V254.6H48v-.79h7.33v3.34q0,1.5-.24,4.14h2v.79Z"/><path class="cls-35" d="M198.25,250.33c-.59,0-1.68.1-3.27.16V253h-.9v-2.5q-2.37.09-3.48.09l-.12-.85q4.44,0,7.71-.23Zm-3.77-1.5a3.27,3.27,0,0,1-2.1-.65,2,2,0,0,1,0-3.19,3.28,3.28,0,0,1,2.11-.65,3.33,3.33,0,0,1,2.1.64,2,2,0,0,1,0,3.21A3.27,3.27,0,0,1,194.48,248.83Zm-2.18,6.76v-3.53h.92v2.72h7.07v.81Zm2.18-10.47a2.2,2.2,0,0,0-1.45.44,1.27,1.27,0,0,0-.55,1,1.28,1.28,0,0,0,.55,1,2.2,2.2,0,0,0,1.45.44,2.25,2.25,0,0,0,1.46-.44,1.31,1.31,0,0,0,.55-1,1.29,1.29,0,0,0-.55-1A2.25,2.25,0,0,0,194.48,245.12Zm4.6,8.32v-1.26H196.5v-.81h2.58v-7.24H200v9.31Z"/><path class="cls-35" d="M209.08,250.26a7.43,7.43,0,0,1-1.61-1.22,5.39,5.39,0,0,1-1.13-1.46,6.15,6.15,0,0,1-1.16,1.64,7,7,0,0,1-1.64,1.34l-.65-.63a5.69,5.69,0,0,0,2.12-1.75,4,4,0,0,0,.86-2.41v-.3h-2.59v-.82h6.06v.82h-2.59v.3a3.5,3.5,0,0,0,.88,2.25,5.24,5.24,0,0,0,2.06,1.57Zm-4,5.32v-4.22h7.28v4.22Zm6.38-3.42H206v2.62h5.47Zm0-1.48v-3.05h-2.81v-.83h2.81v-2.67h.91v6.55Z"/><path class="cls-35" d="M217.33,256.84a8,8,0,0,1-1.93-5.46,8.31,8.31,0,0,1,1.93-5.56h.88a8.51,8.51,0,0,0-2,5.55,8.27,8.27,0,0,0,2,5.47Z"/><path class="cls-35" d="M220.4,245.82l-.19,2.8h-.68l-.19-2.8Zm2,0-.19,2.8h-.67l-.2-2.8Z"/><path class="cls-35" d="M224.24,254v-.81h2.82v-3a2.66,2.66,0,0,1-.24-4.46,4.93,4.93,0,0,1,2.88-.77,4.88,4.88,0,0,1,2.87.77,2.67,2.67,0,0,1-.24,4.46v3h2.83V254Zm2.43-6.12a1.76,1.76,0,0,0,.83,1.54,4.58,4.58,0,0,0,4.39,0,1.86,1.86,0,0,0,0-3.09,4.47,4.47,0,0,0-4.37,0A1.77,1.77,0,0,0,226.67,247.92Zm1.3,2.69v2.62h3.46v-2.62a6,6,0,0,1-1.73.22A6.51,6.51,0,0,1,228,250.61Z"/><path class="cls-35" d="M243.4,250.65a6.19,6.19,0,0,1-2.87-2.5,5.24,5.24,0,0,1-1.16,1.53,7.2,7.2,0,0,1-1.7,1.21l-.67-.7a5.28,5.28,0,0,0,2.16-1.47,3,3,0,0,0,.92-1.95v-.58h-2.7v-.8h2.7V244H241v1.37h2.68v.8H241v.56a2.74,2.74,0,0,0,.92,1.86,4.66,4.66,0,0,0,2.1,1.29Zm-.53,5.08a5.38,5.38,0,0,1-2.85-.63,1.93,1.93,0,0,1-1-1.66,1.88,1.88,0,0,1,1-1.64,6.76,6.76,0,0,1,5.7,0,1.88,1.88,0,0,1,1,1.64,1.91,1.91,0,0,1-1,1.66A5.38,5.38,0,0,1,242.87,255.73Zm0-3.79a4.24,4.24,0,0,0-2.13.43,1.15,1.15,0,0,0,0,2.15,5.55,5.55,0,0,0,4.26,0,1.16,1.16,0,0,0,0-2.17A4.41,4.41,0,0,0,242.87,251.94Zm2.71-1v-2.79h-2.32v-.81h2.32v-3.2h.91v6.8Z"/><path class="cls-35" d="M250.6,245.82l-.19,2.8h-.68l-.19-2.8Zm2.05,0-.19,2.8h-.67l-.2-2.8Z"/><path class="cls-35" d="M253.81,256.84a8.26,8.26,0,0,0,1.95-5.47,8.47,8.47,0,0,0-2-5.55h.88a8.27,8.27,0,0,1,2,5.56,7.94,7.94,0,0,1-2,5.46Z"/><path class="cls-35" d="M258.44,253.77l-.08-.79c1.05,0,2.51,0,4.39-.06s3.14-.09,3.75-.14l.06.79c-.64.05-1.9.1-3.78.14S259.45,253.77,258.44,253.77Zm3.89-3.13a3.19,3.19,0,0,1-2.22-.8,2.7,2.7,0,0,1,0-4,3.46,3.46,0,0,1,4.44,0,2.7,2.7,0,0,1,0,4A3.19,3.19,0,0,1,262.33,250.64Zm0-4.81a2.25,2.25,0,0,0-1.55.56,1.88,1.88,0,0,0-.62,1.44,1.83,1.83,0,0,0,.63,1.44,2.41,2.41,0,0,0,3.09,0,1.83,1.83,0,0,0,.63-1.44,1.85,1.85,0,0,0-.62-1.44A2.28,2.28,0,0,0,262.33,245.83Zm5,10.07V244.13h.91V255.9Z"/><path class="cls-35" d="M275.4,254.1v-.8h10.93v.8Zm1-7.61v-.8h4v-1.44h.91v1.44h4v.8Zm4.49,5.17A5.29,5.29,0,0,1,278,251a1.85,1.85,0,0,1-1-1.6,1.82,1.82,0,0,1,1-1.6,5.26,5.26,0,0,1,2.82-.63,5.36,5.36,0,0,1,2.82.62,1.83,1.83,0,0,1,1,1.61,1.87,1.87,0,0,1-1,1.61A5.3,5.3,0,0,1,280.86,251.66Zm0-3.69a4.63,4.63,0,0,0-2.12.39,1.18,1.18,0,0,0-.74,1.06,1.21,1.21,0,0,0,.73,1.06,5.87,5.87,0,0,0,4.26,0,1.2,1.2,0,0,0,.72-1.06,1.17,1.17,0,0,0-.73-1.06A4.6,4.6,0,0,0,280.86,248Z"/><path class="cls-35" d="M288,251v-.77h10.93V251Zm1.8,4.74v-3.61h7.32v3.61Zm0-6.62v-2.76h6.34v-1.19h-6.34v-.78h7.25v2.7h-6.35v1.25h6.62v.78Zm6.39,3.79h-5.53V255h5.53Z"/><path class="cls-35" d="M190.83,263.43v-5.55h.9v2h3.6v-2h.9v5.55Zm4.5-2.71h-3.6v1.91h3.6Zm.39,8.22a5.52,5.52,0,0,1-2.83-.59,1.76,1.76,0,0,1,0-3.17,7.15,7.15,0,0,1,5.69,0,1.75,1.75,0,0,1,1,1.57,1.81,1.81,0,0,1-1,1.61A5.72,5.72,0,0,1,195.72,268.94Zm0-3.56a5,5,0,0,0-2.13.36,1.12,1.12,0,0,0-.73,1,1.16,1.16,0,0,0,.74,1,5,5,0,0,0,2.12.37,4.82,4.82,0,0,0,2.14-.38,1.07,1.07,0,0,0,0-2A5,5,0,0,0,195.72,265.38Zm3.64-4v2.88h-.91v-7h.91v3.27h1.78v.81Z"/><path class="cls-35" d="M202.81,259.56v-.82h3v-1.47h.91v1.47h3v.82Zm3.51,4.61a3.57,3.57,0,0,1-2.13-.56,1.75,1.75,0,0,1,0-2.91,4.26,4.26,0,0,1,4.26,0,1.74,1.74,0,0,1,0,2.9A3.55,3.55,0,0,1,206.32,264.17Zm0-3.26a2.61,2.61,0,0,0-1.48.35,1,1,0,0,0,0,1.79,3.39,3.39,0,0,0,3,0,1,1,0,0,0,0-1.79A2.64,2.64,0,0,0,206.33,260.91Zm2,8.11a6.06,6.06,0,0,1-2.85-.54,1.67,1.67,0,0,1-1-1.51,1.71,1.71,0,0,1,1-1.54,5.8,5.8,0,0,1,2.85-.56,5.94,5.94,0,0,1,2.86.55,1.72,1.72,0,0,1,1,1.55,1.65,1.65,0,0,1-1,1.51A6.08,6.08,0,0,1,208.31,269Zm0-3.38c-1.91,0-2.86.44-2.86,1.33s1,1.32,2.86,1.32,2.88-.44,2.88-1.32S210.23,265.64,208.31,265.64ZM212,263v1.72H211v-7.4H212v2.31h1.78v.79H212v1.78h1.78v.8Z"/><path class="cls-35" d="M190.92,291.4v-6h.9v2.26h3.6v-2.26h.9v6Zm4.5-2.89h-3.6v2.08h3.6Zm-3.13,7.76v-3.61h.91v2.8h6.59v.81Zm7.17-6.92v4.12h-.91v-8.6h.91v3.66h1.77v.82Z"/><path class="cls-35" d="M210.53,292.63c-2.48.14-5,.22-7.58.22l-.09-.8c.83,0,1.95,0,3.37-.06v-.89a3.25,3.25,0,0,1-1.82-.58,1.5,1.5,0,0,1-.65-1.23,1.52,1.52,0,0,1,.78-1.33,3.91,3.91,0,0,1,2.15-.5,3.82,3.82,0,0,1,2.13.52,1.55,1.55,0,0,1,.79,1.31,1.49,1.49,0,0,1-.64,1.23,3.31,3.31,0,0,1-1.83.58V292c1.36,0,2.48-.08,3.33-.14Zm-7.3-5.64v-.8h3v-1.3h.9v1.3h3v.8Zm3.46,1.2a2.94,2.94,0,0,0-1.49.32.83.83,0,0,0,0,1.56,2.94,2.94,0,0,0,1.48.31,3,3,0,0,0,1.48-.31.83.83,0,0,0,0-1.56A2.93,2.93,0,0,0,206.69,288.19Zm-1.9,8.3v-3h.89v2.21h6.82v.8Zm7.43-6.15v3.57h-.91v-9h.91v4.66H214v.81Z"/><path class="cls-35" d="M217.43,297.58a8,8,0,0,1-1.93-5.46,8.29,8.29,0,0,1,1.93-5.56h.88a8.46,8.46,0,0,0-2,5.55,8.23,8.23,0,0,0,2,5.47Z"/><path class="cls-35" d="M220.5,286.56l-.19,2.8h-.69l-.19-2.8Zm2,0-.18,2.8h-.68l-.19-2.8Z"/><path class="cls-35" d="M228.83,292.17v1.69l2.21-.08,1.35-.06.05.79c-.64.05-1.87.09-3.69.13s-3.22.07-4.21.07l-.08-.8c1.23,0,2.38,0,3.47,0v-1.7a3.19,3.19,0,0,1-1.86-.7,1.81,1.81,0,0,1-.65-1.43,1.86,1.86,0,0,1,.8-1.57,3.55,3.55,0,0,1,2.18-.6,3.45,3.45,0,0,1,2.15.6,1.81,1.81,0,0,1,.79,1.5,2,2,0,0,1-.66,1.49A3.12,3.12,0,0,1,228.83,292.17Zm-.9-7.28h.91v1.54h3v.81h-7v-.81h3.07Zm.47,3.75a2.57,2.57,0,0,0-1.5.39,1.21,1.21,0,0,0-.56,1,1.16,1.16,0,0,0,.54,1,2.67,2.67,0,0,0,1.52.37,2.47,2.47,0,0,0,1.49-.38,1.15,1.15,0,0,0,.54-1,1.18,1.18,0,0,0-.55-1A2.43,2.43,0,0,0,228.4,288.64Zm4.9,8V284.87h.92v11.77Z"/><path class="cls-35" d="M243.31,291.5a8.07,8.07,0,0,1-1.65-1.38,6.12,6.12,0,0,1-1.1-1.54,7.1,7.1,0,0,1-1.18,1.79,6.58,6.58,0,0,1-1.65,1.44l-.66-.63a5.7,5.7,0,0,0,2.13-1.88,4.37,4.37,0,0,0,.88-2.54v-1.51H241v1.51a3.84,3.84,0,0,0,.91,2.36,5.53,5.53,0,0,0,2,1.72Zm-4,4.76v-3.75h.91v2.95h6.65v.8Zm6.34-3v-8.37h.91v8.37Z"/><path class="cls-35" d="M250.7,286.56l-.19,2.8h-.69l-.19-2.8Zm2,0-.18,2.8h-.68l-.19-2.8Z"/><path class="cls-35" d="M253.9,297.58a8.26,8.26,0,0,0,1.95-5.47,8.42,8.42,0,0,0-2-5.55h.89a8.26,8.26,0,0,1,2,5.56,7.94,7.94,0,0,1-2,5.46Z"/><path class="cls-35" d="M258.54,294.51l-.09-.79c1.05,0,2.52,0,4.4-.06s3.13-.09,3.75-.14l0,.78c-.63.06-1.9.1-3.78.14S259.55,294.51,258.54,294.51Zm3.88-3.13a3.23,3.23,0,0,1-2.21-.8,2.57,2.57,0,0,1-.9-2,2.6,2.6,0,0,1,.89-2,3.43,3.43,0,0,1,4.44,0,2.68,2.68,0,0,1,0,4A3.24,3.24,0,0,1,262.42,291.38Zm0-4.81a2.27,2.27,0,0,0-1.55.56,1.87,1.87,0,0,0-.62,1.44,1.81,1.81,0,0,0,.64,1.44,2.26,2.26,0,0,0,1.53.56A2.28,2.28,0,0,0,264,290a1.85,1.85,0,0,0,.62-1.44,1.82,1.82,0,0,0-.62-1.44A2.24,2.24,0,0,0,262.42,286.57Zm5,10.07V284.87h.91v11.77Z"/><path class="cls-35" d="M275.5,294.84V294h10.92v.8Zm1-7.61v-.8h4.05V285h.9v1.44h4v.8Zm4.5,5.16a5.34,5.34,0,0,1-2.84-.63,1.87,1.87,0,0,1-1-1.61,1.84,1.84,0,0,1,1-1.6,6.75,6.75,0,0,1,5.65,0,1.83,1.83,0,0,1,1,1.6,1.87,1.87,0,0,1-1,1.62A5.36,5.36,0,0,1,281,292.39Zm0-3.68a4.7,4.7,0,0,0-2.13.39,1.17,1.17,0,0,0-.73,1,1.19,1.19,0,0,0,.73,1.07,4.63,4.63,0,0,0,2.13.4,4.56,4.56,0,0,0,2.12-.4,1.19,1.19,0,0,0,.73-1.07,1.17,1.17,0,0,0-.73-1A4.63,4.63,0,0,0,281,288.71Z"/><path class="cls-35" d="M288.08,291.74V291H299v.78Zm1.8,4.74v-3.61h7.33v3.61Zm0-6.63V287.1h6.35v-1.2h-6.35v-.77h7.25v2.7h-6.35v1.25h6.63v.77Zm6.39,3.79h-5.53v2.07h5.53Z"/><path class="cls-35" d="M190.92,304.16v-5.54h.9v2h3.6v-2h.9v5.54Zm4.5-2.7h-3.6v1.91h3.6Zm.4,8.22a5.64,5.64,0,0,1-2.84-.59,1.81,1.81,0,0,1-1-1.6,1.77,1.77,0,0,1,1-1.57,7.21,7.21,0,0,1,5.69,0,1.77,1.77,0,0,1,0,3.18A5.54,5.54,0,0,1,195.82,309.68Zm0-3.56a5,5,0,0,0-2.13.36,1.11,1.11,0,0,0-.73,1,1.13,1.13,0,0,0,.74,1,4.8,4.8,0,0,0,2.12.37,4.9,4.9,0,0,0,2.14-.37,1.14,1.14,0,0,0,.74-1,1.11,1.11,0,0,0-.73-1A5.06,5.06,0,0,0,195.82,306.12Zm3.64-4V305h-.91v-7h.91v3.26h1.77v.81Z"/><path class="cls-35" d="M202.91,300.3v-.82h3V298h.9v1.47h3v.82Zm3.5,4.6a3.57,3.57,0,0,1-2.13-.55,1.76,1.76,0,0,1,0-2.92,4.35,4.35,0,0,1,4.27,0,1.76,1.76,0,0,1,0,2.91A3.59,3.59,0,0,1,206.41,304.9Zm0-3.26a2.72,2.72,0,0,0-1.48.35,1,1,0,0,0,0,1.8,2.79,2.79,0,0,0,1.48.34,2.83,2.83,0,0,0,1.49-.34,1,1,0,0,0,0-1.8A2.7,2.7,0,0,0,206.42,301.64Zm2,8.12a6,6,0,0,1-2.85-.54,1.66,1.66,0,0,1-1-1.51,1.72,1.72,0,0,1,1-1.55,7.66,7.66,0,0,1,5.7,0,1.71,1.71,0,0,1,1,1.55,1.65,1.65,0,0,1-1,1.51A6.06,6.06,0,0,1,208.41,309.76Zm0-3.38c-1.91,0-2.87.44-2.87,1.33s1,1.32,2.87,1.32,2.88-.44,2.88-1.32S210.33,306.38,208.41,306.38Zm3.63-2.64v1.73h-.9v-7.4h.9v2.31h1.78v.79H212v1.77h1.78v.8Z"/></g></svg>