<svg xmlns="http://www.w3.org/2000/svg" xmlns:xlink="http://www.w3.org/1999/xlink" viewBox="0 0 221 285.86"><defs><style>.cls-1{fill:#fff;}.cls-2,.cls-3,.cls-4{fill:#3c3c41;}.cls-2{opacity:0.05;}.cls-2,.cls-26,.cls-4{isolation:isolate;}.cls-4{opacity:0.2;}.cls-5{fill:#ccc;fill-opacity:0.3;}.cls-6{fill:url(#Degradado_sin_nombre);}.cls-7{fill:#50e6ff;}.cls-8{fill:#c3f1ff;}.cls-9{fill:#9cebff;}.cls-10{fill:url(#Degradado_sin_nombre_2);}.cls-11{fill:url(#Degradado_sin_nombre_3);}.cls-12{fill:url(#Degradado_sin_nombre_4);}.cls-13{fill:#005ba1;}.cls-14{fill:#0078d4;}.cls-15{fill:url(#Degradado_sin_nombre_5);}.cls-16{fill:url(#Degradado_sin_nombre_6);}.cls-17{fill:url(#Degradado_sin_nombre_7);}.cls-18{fill:url(#Degradado_sin_nombre_8);}.cls-19,.cls-20,.cls-21{fill:none;stroke:#3c3c41;stroke-miterlimit:10;}.cls-20{stroke-dasharray:1.46 2.43;}.cls-21{stroke-dasharray:1.31 2.19;}.cls-22{fill:url(#Degradado_sin_nombre_9);}.cls-23{fill:url(#Degradado_sin_nombre_10);}.cls-24{fill:url(#Degradado_sin_nombre_11);}.cls-25{fill:#1490df;}.cls-26,.cls-27{fill:#6ebcdb;}.cls-26{opacity:0.4;}.cls-28{fill:#5db4d7;}.cls-29{fill:#e6e6e6;}.cls-30{fill:#86d633;}.cls-31{fill:#1e1e1e;}</style><linearGradient id="Degradado_sin_nombre" x1="37.07" y1="254.57" x2="37.07" y2="235.81" gradientTransform="translate(0 -112.95)" gradientUnits="userSpaceOnUse"><stop offset="0" stop-color="#0078d4"/><stop offset="0.82" stop-color="#5ea0ef"/></linearGradient><linearGradient id="Degradado_sin_nombre_2" x1="37.05" y1="261.8" x2="37.05" y2="254.57" gradientTransform="translate(0 -112.95)" gradientUnits="userSpaceOnUse"><stop offset="0.15" stop-color="#ccc"/><stop offset="1" stop-color="#707070"/></linearGradient><linearGradient id="Degradado_sin_nombre_3" x1="77.43" y1="254.57" x2="77.43" y2="235.81" xlink:href="#Degradado_sin_nombre"/><linearGradient id="Degradado_sin_nombre_4" x1="77.43" y1="261.8" x2="77.43" y2="254.57" xlink:href="#Degradado_sin_nombre_2"/><linearGradient id="Degradado_sin_nombre_5" x1="188.87" y1="257.81" x2="188.87" y2="247.47" xlink:href="#Degradado_sin_nombre"/><linearGradient id="Degradado_sin_nombre_6" x1="188.94" y1="261.8" x2="188.94" y2="257.81" xlink:href="#Degradado_sin_nombre_2"/><linearGradient id="Degradado_sin_nombre_7" x1="141.17" y1="254.57" x2="141.17" y2="235.81" xlink:href="#Degradado_sin_nombre"/><linearGradient id="Degradado_sin_nombre_8" x1="141.17" y1="261.8" x2="141.17" y2="254.57" xlink:href="#Degradado_sin_nombre_2"/><linearGradient id="Degradado_sin_nombre_9" x1="23.52" y1="313.02" x2="25.89" y2="315.39" gradientTransform="translate(3 -113.27)" gradientUnits="userSpaceOnUse"><stop offset="0" stop-color="#86d633"/><stop offset="0.24" stop-color="#83d232"/><stop offset="0.5" stop-color="#7cc52f"/><stop offset="0.76" stop-color="#6fb02a"/><stop offset="1" stop-color="#5e9624"/></linearGradient><linearGradient id="Degradado_sin_nombre_10" x1="18.17" y1="313.02" x2="20.53" y2="315.38" xlink:href="#Degradado_sin_nombre_9"/><linearGradient id="Degradado_sin_nombre_11" x1="12.83" y1="313.02" x2="15.18" y2="315.39" xlink:href="#Degradado_sin_nombre_9"/></defs><title>OJ104903287</title><g id="Target"><rect class="cls-1" x="0.54" width="220.46" height="285.86"/><rect class="cls-1" x="0.5" y="46.36" width="220" height="154" rx="5"/><rect class="cls-2" x="0.5" y="46.36" width="220" height="154" rx="5"/><path class="cls-3" d="M214.34,200.86h-1v-1h1Zm-3,0h-1v-1h1Zm-3,0h-1v-1h1Zm-3,0h-1v-1h1Zm-3,0h-1v-1h1Zm-3,0h-1v-1h1Zm-3,0h-1v-1h1Zm-3,0h-1v-1h1Zm-3,0h-1v-1h1Zm-3,0h-1v-1h1Zm-3,0h-1v-1h1Zm-3,0h-1v-1h1Zm-3,0h-1v-1h1Zm-3,0h-1v-1h1Zm-3,0h-1v-1h1Zm-3,0h-1v-1h1Zm-3,0h-1v-1h1Zm-3,0h-1v-1h1Zm-3,0h-1v-1h1Zm-3,0h-1v-1h1Zm-3,0h-1v-1h1Zm-3,0h-1v-1h1Zm-3,0h-1v-1h1Zm-3,0h-1v-1h1Zm-3,0h-1v-1h1Zm-3,0h-1v-1h1Zm-3,0h-1v-1h1Zm-3,0h-1v-1h1Zm-3,0h-1v-1h1Zm-3,0h-1v-1h1Zm-3,0h-1v-1h1Zm-3,0h-1v-1h1Zm-3,0h-1v-1h1Zm-3,0h-1v-1h1Zm-3,0h-1v-1h1Zm-3,0h-1v-1h1Zm-3,0h-1v-1h1Zm-3,0h-1v-1h1Zm-3,0h-1v-1h1Zm-3,0h-1v-1h1Zm-3,0h-1v-1h1Zm-3,0h-1v-1h1Zm-3,0h-1v-1h1Zm-3,0h-1v-1h1Zm-3,0h-1v-1h1Zm-3,0h-1v-1h1Zm-3,0h-1v-1h1Zm-3,0h-1v-1h1Zm-3,0h-1v-1h1Zm-3,0h-1v-1h1Zm-3,0h-1v-1h1Zm-3,0h-1v-1h1Zm-3,0h-1v-1h1Zm-3,0H54v-1h1Zm-3,0H51v-1h1Zm-3,0H48v-1h1Zm-3,0H45v-1h1Zm-3,0H42v-1h1Zm-3,0H39v-1h1Zm-3,0H36v-1h1Zm-30,0H6v-1H7Zm209.46-.08-.17-1a4.31,4.31,0,0,0,.87-.24l.36.94a5.86,5.86,0,0,1-1.44.3ZM4.2,200.59a5.24,5.24,0,0,1-1-.44l.49-.87a4,4,0,0,0,.82.36Zm215.5-1.29-.69-.72a5.35,5.35,0,0,0,.58-.68l.82.56a5,5,0,0,1-1.09.84ZM1.16,198.72a5.62,5.62,0,0,1-.59-.93l.9-.44a3.75,3.75,0,0,0,.48.76Zm219.73-2.27-1-.2a4.41,4.41,0,0,0,.09-.89l1-.06v.06A6.59,6.59,0,0,1,220.89,196.45ZM0,195.68v-1H1v1Zm221-2.39h-1v-1h1ZM1,192.64H0v-1H1Zm220-2.35h-1v-1h1ZM1,189.64H0v-1H1Zm220-2.36h-1v-1h1ZM1,186.63H0v-1H1Zm220-2.35h-1v-1h1ZM1,183.63H0v-1H1Zm220-2.36h-1v-1h1ZM1,180.62H0v-1H1Zm220-2.35h-1v-1h1ZM1,177.62H0v-1H1Zm220-2.36h-1v-1h1ZM1,174.61H0v-1H1Zm220-2.36h-1v-1h1ZM1,171.6H0v-1H1Zm220-2.35h-1v-1h1ZM1,168.6H0v-1H1Zm220-2.36h-1v-1h1ZM1,165.59H0v-1H1Zm220-2.35h-1v-1h1ZM1,162.59H0v-1H1Zm220-2.36h-1v-1h1ZM1,159.58H0v-1H1Zm220-2.35h-1v-1h1ZM1,156.58H0v-1H1Zm220-2.36h-1v-1h1ZM1,153.57H0v-1H1Zm220-2.35h-1v-1h1ZM1,150.57H0v-1H1Zm220-2.36h-1v-1h1ZM1,147.56H0v-1H1Zm220-2.35h-1v-1h1ZM1,144.55H0v-1H1Zm220-2.35h-1v-1h1ZM1,141.55H0v-1H1Zm220-2.36h-1v-1h1ZM1,138.54H0v-1H1Zm220-2.35h-1v-1h1ZM1,135.54H0v-1H1Zm220-2.36h-1v-1h1ZM1,132.53H0v-1H1Zm220-2.35h-1v-1h1ZM1,129.53H0v-1H1Zm220-2.36h-1v-1h1ZM1,126.52H0v-1H1Zm220-2.35h-1v-1h1ZM1,123.52H0v-1H1Zm220-2.36h-1v-1h1ZM1,120.51H0v-1H1Zm220-2.35h-1v-1h1ZM1,117.51H0v-1H1Zm220-2.36h-1v-1h1ZM1,114.5H0v-1H1Zm220-2.35h-1v-1h1ZM1,111.49H0v-1H1Zm220-2.35h-1v-1h1ZM1,108.49H0v-1H1Zm220-2.36h-1v-1h1ZM1,105.48H0v-1H1Zm220-2.35h-1v-1h1ZM1,102.48H0v-1H1Zm220-2.36h-1v-1h1ZM1,99.47H0v-1H1Zm220-2.35h-1v-1h1ZM1,96.47H0v-1H1Zm220-2.36h-1v-1h1ZM1,93.46H0v-1H1Zm220-2.35h-1v-1h1ZM1,90.46H0v-1H1ZM221,88.1h-1v-1h1ZM1,87.45H0v-1H1ZM221,85.1h-1v-1h1ZM1,84.44H0v-1H1Zm220-2.35h-1v-1h1ZM1,81.44H0v-1H1Zm220-2.36h-1v-1h1ZM1,78.43H0v-1H1Zm220-2.35h-1v-1h1ZM1,75.43H0v-1H1Zm220-2.36h-1v-1h1ZM1,72.42H0v-1H1Zm220-2.35h-1v-1h1ZM1,69.42H0v-1H1Zm220-2.36h-1v-1h1ZM1,66.41H0v-1H1Zm220-2.35h-1v-1h1ZM1,63.41H0v-1H1Zm220-2.36h-1v-1h1ZM1,60.4H0v-1H1Zm220-2.35h-1V57h1ZM1,57.4H0v-1H1ZM221,55h-1V54h1ZM1,54.39H0v-1H1ZM221,52h-1v-.68a1.41,1.41,0,0,0,0-.29l1-.07v1ZM0,51.38H0a6.36,6.36,0,0,1,.1-1.07l1,.2a5.12,5.12,0,0,0-.08.87Zm219.52-2a4.63,4.63,0,0,0-.48-.76l.78-.62a5,5,0,0,1,.59.93ZM1.78,48.84,1,48.27a6.31,6.31,0,0,1,.71-.84l.7.72A4.57,4.57,0,0,0,1.78,48.84Zm215.89-1.42a4.09,4.09,0,0,0-.83-.36l.31-1a6.28,6.28,0,0,1,1,.43ZM3.86,47.17l-.37-.93a4.92,4.92,0,0,1,1.06-.3l.17,1A4.37,4.37,0,0,0,3.86,47.17ZM215,46.86h-1v-1h1Zm-3,0h-1v-1h1Zm-3,0h-1v-1h1Zm-3,0h-1v-1h1Zm-3,0h-1v-1h1Zm-3,0h-1v-1h1Zm-3,0h-1v-1h1Zm-3,0h-1v-1h1Zm-3,0h-1v-1h1Zm-3,0h-1v-1h1Zm-3,0h-1v-1h1Zm-3,0h-1v-1h1Zm-3,0h-1v-1h1Zm-3,0h-1v-1h1Zm-3,0h-1v-1h1Zm-3,0h-1v-1h1Zm-3,0h-1v-1h1Zm-3,0h-1v-1h1Zm-3,0h-1v-1h1Zm-3,0h-1v-1h1Zm-3,0h-1v-1h1Zm-27,0h-1v-1h1Zm-3,0h-1v-1h1Zm-3,0h-1v-1h1Zm-3,0h-1v-1h1Zm-3,0h-1v-1h1Zm-3,0h-1v-1h1Zm-3,0h-1v-1h1Zm-3,0h-1v-1h1Zm-3,0h-1v-1h1Zm-3,0h-1v-1h1Zm-3,0H97v-1h1Zm-3,0H94v-1h1Zm-3,0H91v-1h1Zm-3,0H88v-1h1Zm-3,0H85v-1h1Zm-3,0H82v-1h1Zm-3,0H79v-1h1Zm-3,0H76v-1h1Zm-3,0H73v-1h1Zm-3,0H70v-1h1Zm-3,0H67v-1h1Zm-3,0H64v-1h1Zm-3,0H61v-1h1Zm-3,0H58v-1h1Zm-3,0H55v-1h1Zm-3,0H52v-1h1Zm-3,0H49v-1h1Zm-3,0H46v-1h1Zm-3,0H43v-1h1Zm-3,0H40v-1h1Zm-3,0H37v-1h1Zm-3,0H34v-1h1Zm-3,0H31v-1h1Zm-3,0H28v-1h1Zm-3,0H25v-1h1Zm-3,0H22v-1h1Zm-3,0H19v-1h1Zm-3,0H16v-1h1Zm-3,0H13v-1h1Zm-3,0H10v-1h1Zm-3,0H7v-1H8Z"/><rect class="cls-1" x="10" y="90.86" width="95" height="95" rx="0.3"/><rect class="cls-4" x="10" y="90.86" width="95" height="95" rx="0.3"/><rect class="cls-5" x="65" y="210.86" width="155" height="35"/><rect class="cls-5" x="65" y="250.86" width="155" height="35"/><rect class="cls-6" x="23" y="122.86" width="28.14" height="18.76" rx="0.94"/><polygon class="cls-7" points="41.76 129.5 41.76 134.96 37.07 137.71 37.07 132.24 41.76 129.5"/><polygon class="cls-8" points="41.76 129.5 37.07 132.25 32.38 129.5 37.07 126.76 41.76 129.5"/><polygon class="cls-9" points="37.07 132.25 37.07 137.71 32.38 134.96 32.38 129.5 37.07 132.25"/><polygon class="cls-8" points="32.38 134.96 37.07 132.24 37.07 137.71 32.38 134.96"/><polygon class="cls-9" points="41.76 134.96 37.07 132.24 37.07 137.71 41.76 134.96"/><path class="cls-10" d="M42.71,147.29c-2.78-.44-2.89-2.44-2.89-5.67H34.3c0,3.23-.09,5.23-2.87,5.67A1.56,1.56,0,0,0,30,148.86H44.11A1.58,1.58,0,0,0,42.71,147.29Z"/><rect class="cls-11" x="63.36" y="122.86" width="28.14" height="18.76" rx="0.94"/><polygon class="cls-7" points="82.12 129.5 82.12 134.96 77.43 137.71 77.43 132.24 82.12 129.5"/><polygon class="cls-8" points="82.12 129.5 77.43 132.25 72.74 129.5 77.43 126.76 82.12 129.5"/><polygon class="cls-9" points="77.43 132.25 77.43 137.71 72.74 134.96 72.74 129.5 77.43 132.25"/><polygon class="cls-8" points="72.74 134.96 77.43 132.24 77.43 137.71 72.74 134.96"/><polygon class="cls-9" points="82.12 134.96 77.43 132.24 77.43 137.71 82.12 134.96"/><path class="cls-12" d="M83.07,147.29c-2.78-.44-2.89-2.44-2.89-5.67H74.66c0,3.23-.09,5.23-2.88,5.67a1.56,1.56,0,0,0-1.39,1.57H84.46A1.56,1.56,0,0,0,83.07,147.29Z"/><rect class="cls-1" x="115" y="90.86" width="95" height="95"/><rect class="cls-4" x="115" y="90.86" width="95" height="95"/><rect class="cls-13" x="170.6" y="122.86" width="15.46" height="10.32" rx="0.52"/><polygon class="cls-7" points="180.91 126.51 180.91 129.52 178.34 131.02 178.34 128.03 180.91 126.51"/><polygon class="cls-8" points="180.91 126.51 178.34 128.03 175.75 126.51 178.34 125 180.91 126.51"/><polygon class="cls-9" points="178.34 128.03 178.34 131.02 175.75 129.52 175.75 126.51 178.34 128.03"/><rect class="cls-14" x="176.67" y="128.77" width="15.46" height="10.32" rx="0.52"/><polygon class="cls-7" points="186.98 132.44 186.98 135.44 184.41 136.96 184.41 133.94 186.98 132.44"/><polygon class="cls-8" points="186.98 132.44 184.41 133.94 181.82 132.44 184.41 130.93 186.98 132.44"/><polygon class="cls-9" points="184.41 133.94 184.41 136.96 181.82 135.44 181.82 132.44 184.41 133.94"/><rect class="cls-15" x="181.14" y="134.52" width="15.46" height="10.32" rx="0.52"/><polygon class="cls-7" points="191.44 138.19 191.44 141.19 188.88 142.71 188.88 139.69 191.44 138.19"/><polygon class="cls-8" points="191.44 138.19 188.88 139.71 186.29 138.19 188.88 136.68 191.44 138.19"/><polygon class="cls-9" points="188.88 139.71 188.88 142.71 186.29 141.19 186.29 138.19 188.88 139.71"/><polygon class="cls-8" points="186.29 141.19 188.88 139.69 188.88 142.71 186.29 141.19"/><polygon class="cls-9" points="191.44 141.19 188.88 139.69 188.88 142.71 191.44 141.19"/><path class="cls-16" d="M192,148c-1.52-.24-1.52-1.34-1.52-3.06h-3.06c0,1.78,0,2.88-1.53,3.06a.91.91,0,0,0-.77.88h7.65A.91.91,0,0,0,192,148Z"/><rect class="cls-17" x="127.1" y="122.86" width="28.14" height="18.76" rx="0.94"/><polygon class="cls-7" points="145.86 129.5 145.86 134.96 141.17 137.71 141.17 132.24 145.86 129.5"/><polygon class="cls-8" points="145.86 129.5 141.17 132.25 136.48 129.5 141.17 126.76 145.86 129.5"/><polygon class="cls-9" points="141.17 132.25 141.17 137.71 136.48 134.96 136.48 129.5 141.17 132.25"/><polygon class="cls-8" points="136.48 134.96 141.17 132.24 141.17 137.71 136.48 134.96"/><polygon class="cls-9" points="145.86 134.96 141.17 132.24 141.17 137.71 145.86 134.96"/><path class="cls-18" d="M146.81,147.29c-2.78-.44-2.89-2.44-2.89-5.67H138.4c0,3.23-.09,5.23-2.87,5.67a1.58,1.58,0,0,0-1.4,1.57h14.08A1.58,1.58,0,0,0,146.81,147.29Z"/><line class="cls-19" x1="90.37" y1="90.71" x2="90.37" y2="63.64"/><line class="cls-19" x1="82.84" y1="85.18" x2="82.84" y2="73.48"/><polygon class="cls-3" points="85.83 74.36 82.84 69.18 79.85 74.36 85.83 74.36"/><line class="cls-19" x1="97.89" y1="80.87" x2="97.89" y2="80.12"/><line class="cls-20" x1="97.89" y1="77.69" x2="97.89" y2="71.14"/><line class="cls-19" x1="97.89" y1="69.93" x2="97.89" y2="69.18"/><polygon class="cls-3" points="100.88 80 97.89 85.18 94.9 80 100.88 80"/><line class="cls-19" x1="129.52" y1="90.71" x2="129.52" y2="63.64"/><line class="cls-19" x1="122" y1="85.18" x2="122" y2="73.48"/><polygon class="cls-3" points="124.99 74.36 122 69.18 119.01 74.36 124.99 74.36"/><line class="cls-19" x1="137.05" y1="80.87" x2="137.05" y2="80.12"/><line class="cls-20" x1="137.05" y1="77.69" x2="137.05" y2="71.14"/><line class="cls-19" x1="137.05" y1="69.93" x2="137.05" y2="69.18"/><polygon class="cls-3" points="140.04 80 137.05 85.18 134.06 80 140.04 80"/><line class="cls-19" x1="109.7" y1="38.29" x2="109.7" y2="18.79"/><line class="cls-19" x1="74.31" y1="220.86" x2="85.43" y2="220.86"/><polygon class="cls-3" points="75.18 223.85 70 220.85 75.18 217.86 75.18 223.85"/><line class="cls-19" x1="80.69" y1="260.86" x2="79.94" y2="260.86"/><line class="cls-21" x1="77.75" y1="260.86" x2="71.84" y2="260.86"/><line class="cls-19" x1="70.75" y1="260.86" x2="70" y2="260.86"/><polygon class="cls-3" points="79.82 257.86 85 260.86 79.82 263.85 79.82 257.86"/><path class="cls-19" d="M105.83,41,68.08,29.65a4.3,4.3,0,0,1-2.88-3.86v-7"/><path class="cls-19" d="M114,41l43.3-11.45a4.1,4.1,0,0,0,2.9-3.76v-7"/><circle class="cls-22" cx="27.4" cy="200.63" r="1.67"/><circle class="cls-23" cx="22.06" cy="200.64" r="1.67"/><circle class="cls-24" cx="16.72" cy="200.64" r="1.67"/><path class="cls-7" d="M17.93,207.34l-1,1a.43.43,0,0,1-.61,0h0l-7.09-7.08a.88.88,0,0,1,0-1.22h0l1-1h0l7.71,7.69a.43.43,0,0,1,0,.61h0Z"/><path class="cls-25" d="M16.83,193l1,1a.43.43,0,0,1,0,.61h0l-7.57,7.6h0l-1-1a.88.88,0,0,1,0-1.22h0l7-7A.43.43,0,0,1,16.83,193Z"/><path class="cls-7" d="M33.78,199l1,1a.86.86,0,0,1,0,1.22h0l-7.1,7.08a.43.43,0,0,1-.61,0h0l-1-1a.44.44,0,0,1,0-.62h0Z"/><path class="cls-25" d="M34.74,201.2l-1,1h0l-7.57-7.6a.43.43,0,0,1,0-.61h0l1-1a.43.43,0,0,1,.61,0h0l7,7a.88.88,0,0,1,0,1.22h0Z"/><rect class="cls-1" x="47.35" width="35" height="20.86"/><rect class="cls-4" x="47.35" width="35" height="20.86"/><rect class="cls-1" x="92.7" width="35" height="20.86"/><rect class="cls-4" x="92.7" width="35" height="20.86"/><rect class="cls-1" x="137.7" width="45" height="20.86"/><rect class="cls-4" x="137.7" width="45" height="20.86"/><rect class="cls-1" x="74.7" y="53.5" width="70" height="10"/><rect class="cls-26" x="74.7" y="53.5" width="70" height="10"/><g id="ad94e297-0e86-4eaf-aac0-d146ee9aea65"><path class="cls-27" d="M105.63,53.85,101,49a2.28,2.28,0,0,1-.78.13,2.43,2.43,0,1,1,2.24-3.32H107v1.62h-4.55a3.68,3.68,0,0,1-.26.57l4.33,4.46,2.34-3.57V37.72h-3.15l4-4,3.94,4H110.5v8.74l5.93-9.05-6-6a1,1,0,0,0-1.41-.05l0,.05h0L94.52,45.89a1,1,0,0,0,0,1.41l0,.05h0L109,61.84l-5.16-5.17Z"/><path class="cls-28" d="M108.89,54.05V48.89l-2.34,3.58,1.72,1.84A2,2,0,0,1,108.89,54.05Z"/><path class="cls-28" d="M124.91,45.89l-8.47-8.48-5.93,9.05v7.61a2.1,2.1,0,0,1,.53.29l6.22-6.28a3.15,3.15,0,0,1-.31-.64h-4.67V45.82H117a2.42,2.42,0,1,1,2.24,3.32,2.53,2.53,0,0,1-.67-.1L112,55.71a2.18,2.18,0,0,1,.11.62,2.43,2.43,0,0,1-4.86.19h0a2.5,2.5,0,0,1,.14-.9l-1.73-1.72-1.84,2.76L109,61.82a1,1,0,0,0,1.41,0l0,0,14.47-14.47a1,1,0,0,0,0-1.41l0,0Z"/><path class="cls-29" d="M117,45.82h-4.74v1.62H117a2.93,2.93,0,0,1-.12-.72A2.28,2.28,0,0,1,117,45.82Z"/><path class="cls-29" d="M102.48,47.44H107V45.82h-4.62a2.14,2.14,0,0,1,.19.9A2.19,2.19,0,0,1,102.48,47.44Z"/><path class="cls-29" d="M112,55.71,118.59,49a2.43,2.43,0,0,1-1.33-1L111,54.36A2.28,2.28,0,0,1,112,55.71Z"/><path class="cls-29" d="M108.32,54.31l-1.72-1.84L102.22,48A2.49,2.49,0,0,1,101,49l4.68,4.84,1.73,1.72A2.48,2.48,0,0,1,108.32,54.31Z"/><path class="cls-1" d="M113.65,37.72l-3.93-4-4,4h3.15V54.05a2.09,2.09,0,0,0-.57.26,2.41,2.41,0,1,0,2.81,3.92A2.45,2.45,0,0,0,112,57a2.31,2.31,0,0,0,.11-.69,2.18,2.18,0,0,0-.11-.62,2.26,2.26,0,0,0-.93-1.35,2.1,2.1,0,0,0-.53-.29V37.72Zm-3.93,20a1.35,1.35,0,1,1,1.34-1.36v0h0a1.34,1.34,0,0,1-1.34,1.29Z"/><path class="cls-1" d="M102.22,48a3.68,3.68,0,0,0,.26-.57,2.22,2.22,0,0,0,.12-.72,2.14,2.14,0,0,0-.19-.9,2.41,2.41,0,1,0-2.24,3.32A2.36,2.36,0,0,0,101,49,2.49,2.49,0,0,0,102.22,48Zm-2,0a1.35,1.35,0,1,1,1.35-1.35h0a1.35,1.35,0,0,1-1.29,1.4h-.06Z"/><path class="cls-1" d="M118.59,49a2.53,2.53,0,0,0,.67.1A2.43,2.43,0,1,0,117,45.82a2.3,2.3,0,0,0-.19.9,2.93,2.93,0,0,0,.12.72,3.15,3.15,0,0,0,.31.64A2.5,2.5,0,0,0,118.59,49Zm.67-3.65a1.56,1.56,0,1,1-.28,0h0Z"/><path class="cls-30" d="M109.72,55a1.35,1.35,0,0,0-1.46,1.23,1.34,1.34,0,0,0,1.23,1.46.89.89,0,0,0,.23,0,1.34,1.34,0,0,0,1.34-1.34h0A1.36,1.36,0,0,0,109.72,55Z"/><circle class="cls-30" cx="100.17" cy="46.72" r="1.34"/><path class="cls-30" d="M119.26,48.06a1.35,1.35,0,1,0-1.34-1.36v0h0A1.34,1.34,0,0,0,119.26,48.06Z"/></g></g><g id="Text"><path class="cls-31" d="M149.23,9.68a7.11,7.11,0,0,1-1.53-1.15,5.13,5.13,0,0,1-1.1-1.41,5.76,5.76,0,0,1-1.08,1.55,6.35,6.35,0,0,1-1.61,1.3l-.62-.6a5.39,5.39,0,0,0,2-1.69,3.81,3.81,0,0,0,.82-2.3V5.15h-2.49V4.37h5.82v.78H147v.23a3.43,3.43,0,0,0,.84,2.16,5,5,0,0,0,2,1.51Zm-3.84,5.18V10.42h.88V12h5.27V10.42h.86v4.44Zm6.15-2.1h-5.27v1.33h5.27Zm0-2.95V7.16h-2.65V6.39h2.65V3.87h.87V9.81Z"/><path class="cls-31" d="M160.82,10.9v4.26h-.89V10.9h-4.8v-.78h10.49v.78Zm-4-2.35V4.28h7.1v.78H157.7V7.77h6.41v.78Z"/><path class="cls-31" d="M173.4,12.3a8.77,8.77,0,0,1-1.77-1.82,6.3,6.3,0,0,1-1.06-1.9,6.86,6.86,0,0,1-1.06,2,8.67,8.67,0,0,1-1.75,1.86l-.67-.58a7.06,7.06,0,0,0,2.21-2.4,5.94,5.94,0,0,0,.82-3V4.65H171V6.46a5.66,5.66,0,0,0,.81,2.87,6.88,6.88,0,0,0,2.2,2.29Zm2.53-3.06v5.93h-.87V3.87h.87V8.46h2v.78Z"/><path class="cls-31" d="M103.78,10.84v3.27h-.94V5.49h2.33a3.1,3.1,0,0,1,2.12.67,2.42,2.42,0,0,1,.75,1.9,2.56,2.56,0,0,1-.89,2,3.06,3.06,0,0,1-2.21.74Zm0-4.47V10h1.09a2.41,2.41,0,0,0,1.62-.48,1.71,1.71,0,0,0,.56-1.37c0-1.15-.69-1.73-2-1.73Z"/><path class="cls-31" d="M110.64,14.11h-.94V5.49h.94Z"/><path class="cls-31" d="M113.87,10.84v3.27h-.94V5.49h2.33a3.1,3.1,0,0,1,2.12.67,2.42,2.42,0,0,1,.75,1.9,2.56,2.56,0,0,1-.89,2,3.06,3.06,0,0,1-2.21.74Zm0-4.47V10H115a2.41,2.41,0,0,0,1.62-.48,1.71,1.71,0,0,0,.56-1.37c0-1.15-.69-1.73-2-1.73Z"/><path class="cls-31" d="M138.89,49.86H137.7l-4.5-7a3.38,3.38,0,0,1-.27-.54h0a10.69,10.69,0,0,1,0,1.18v6.32H132V41.24h1.26l4.37,6.86c.21.32.32.51.35.57h0a9.94,9.94,0,0,1-.06-1.28V41.24h1Z"/><path class="cls-31" d="M147.78,49.86h-1.05l-.93-2.45h-3.7l-.87,2.45h-1.06l3.32-8.62h1Zm-2.31-3.31-1.37-3.73a2.7,2.7,0,0,1-.13-.57h0a2.32,2.32,0,0,1-.14.57l-1.37,3.73Z"/><path class="cls-31" d="M153.17,42.11h-2.49v7.75h-1V42.11h-2.48v-.87h5.92Z"/><path class="cls-31" d="M58.5,10.84v3.27h-.94V5.49h2.32A3.06,3.06,0,0,1,62,6.16a2.39,2.39,0,0,1,.76,1.9,2.59,2.59,0,0,1-.89,2,3.07,3.07,0,0,1-2.22.74Zm0-4.47V10h1.08a2.41,2.41,0,0,0,1.62-.48,1.68,1.68,0,0,0,.56-1.37c0-1.15-.68-1.73-2-1.73Z"/><path class="cls-31" d="M65.36,14.11h-1V5.49h1Z"/><path class="cls-31" d="M68.59,10.84v3.27h-.94V5.49H70a3.06,3.06,0,0,1,2.12.67,2.39,2.39,0,0,1,.76,1.9,2.59,2.59,0,0,1-.89,2,3.07,3.07,0,0,1-2.22.74Zm0-4.47V10h1.08a2.41,2.41,0,0,0,1.62-.48,1.68,1.68,0,0,0,.56-1.37c0-1.15-.68-1.73-2-1.73Z"/><path class="cls-31" d="M40.21,104.14a9.73,9.73,0,0,1-1.82-1.9,6.21,6.21,0,0,1-1.08-2,7,7,0,0,1-1.1,2.09,9.11,9.11,0,0,1-1.78,1.91l-.69-.61A7.21,7.21,0,0,0,36,101.19a6.23,6.23,0,0,0,.84-3.07V96.2h.89v1.87a5.82,5.82,0,0,0,.84,3,7,7,0,0,0,2.26,2.38Zm2.25,3V100h-2.7v-.81h2.7V95.39h.9V107.1Z"/><path class="cls-31" d="M46,105.14v-.82H56.72v.82Zm1.8-3.27V96.41h.9v1.88H54V96.41h.9v5.46ZM54,99.11H48.68v1.94H54Z"/><path class="cls-31" d="M64.07,101.27a44.25,44.25,0,0,1-4.76.19V96.15h.89v4.52a29.44,29.44,0,0,0,3.8-.18Zm4.17,5.57a6.51,6.51,0,0,1-2.35-1.1,5.64,5.64,0,0,1-1.7-1.77,4.89,4.89,0,0,1-1.59,1.74,6.41,6.41,0,0,1-2.4,1.13l-.57-.78a5.43,5.43,0,0,0,2.84-1.32,3.11,3.11,0,0,0,1.28-2.17v-.28h.9v.27a3,3,0,0,0,1.25,2.15,5.4,5.4,0,0,0,2.86,1.35ZM65,102.38V98.82H62.31V98H65V95.61h.87v6.77Zm2.09.86V95.39H68v7.85Z"/><path class="cls-31" d="M81.93,106H80.85l-1-2.54H76.11l-.9,2.54H74.13l3.4-8.94h1Zm-2.37-3.44-1.41-3.86a3.58,3.58,0,0,1-.13-.59h0a2.41,2.41,0,0,1-.14.59l-1.4,3.86Z"/><path class="cls-31" d="M146.07,104a9.34,9.34,0,0,1-1.78-1.82,6.12,6.12,0,0,1-1-1.89,7,7,0,0,1-1.07,2,9.08,9.08,0,0,1-1.75,1.84l-.67-.59a7,7,0,0,0,2.22-2.38,5.94,5.94,0,0,0,.82-3V96.35h.87v1.81a5.53,5.53,0,0,0,.82,2.85,6.69,6.69,0,0,0,2.2,2.29Zm2.19,2.86v-6.8h-2.63v-.78h2.63v-3.7h.88v11.28Z"/><path class="cls-31" d="M151.71,105v-.8h10.48v.8Zm1.75-3.15V96.55h.87v1.81h5.23V96.55h.88v5.26Zm6.1-2.66h-5.23V101h5.23Z"/><path class="cls-31" d="M169.36,101.24c-1.09.11-2.64.17-4.64.17V96.3h.86v4.36a28,28,0,0,0,3.71-.18Zm4.08,5.35a6.32,6.32,0,0,1-2.3-1,5.45,5.45,0,0,1-1.66-1.71,4.7,4.7,0,0,1-1.55,1.68,6.47,6.47,0,0,1-2.35,1.08l-.55-.75a5.34,5.34,0,0,0,2.77-1.27,3,3,0,0,0,1.25-2.09v-.26h.87v.25a2.92,2.92,0,0,0,1.22,2.07,5.29,5.29,0,0,0,2.8,1.3Zm-3.19-4.29V98.87h-2.6v-.76h2.6V95.79h.85v6.51Zm2,.82V95.57h.86v7.55Z"/><path class="cls-31" d="M180.19,105.79v-8.6h2.41a2.65,2.65,0,0,1,1.73.54,1.76,1.76,0,0,1,.66,1.43,2.15,2.15,0,0,1-.39,1.27,2.18,2.18,0,0,1-1.1.78v0a2.13,2.13,0,0,1,1.4.66,2,2,0,0,1,.52,1.44,2.24,2.24,0,0,1-.79,1.78,2.92,2.92,0,0,1-2,.68Zm.94-7.72v2.83h1.05a1.94,1.94,0,0,0,1.34-.42,1.4,1.4,0,0,0,.48-1.13c0-.85-.56-1.28-1.67-1.28Zm0,3.7v3.15h1.4a2.13,2.13,0,0,0,1.4-.43,1.48,1.48,0,0,0,.5-1.17c0-1-.71-1.55-2.13-1.55Z"/><path class="cls-31" d="M34,157.16l-3.22,8.76h-1l-3.16-8.76h1.07l2.43,7a3.83,3.83,0,0,1,.17.77h0a3.74,3.74,0,0,1,.2-.78l2.49-7Z"/><path class="cls-31" d="M43,165.92V160c0-.45,0-1,.09-1.69h0a4.9,4.9,0,0,1-.26.83l-3,6.78h-.43l-3-6.73a4.11,4.11,0,0,1-.25-.88h0c0,.22,0,.78,0,1.67v5.94h-.93v-8.76h1.24l2.71,6.17a8.26,8.26,0,0,1,.4,1h0c.06-.17.2-.52.42-1.07l2.77-6.14H44v8.76Z"/><path class="cls-31" d="M75.75,157.16l-3.23,8.76h-1l-3.15-8.76H69.4l2.43,7a4.66,4.66,0,0,1,.17.77h0a4.4,4.4,0,0,1,.19-.78l2.5-7Z"/><path class="cls-31" d="M84.77,165.92V160c0-.45,0-1,.09-1.69h0a4.26,4.26,0,0,1-.25.83l-3,6.78h-.43l-3-6.73a4.25,4.25,0,0,1-.24-.88h0c0,.22,0,.78,0,1.67v5.94H77v-8.76h1.24l2.71,6.17a8.26,8.26,0,0,1,.4,1h0c.06-.17.2-.52.42-1.07l2.77-6.14h1.17v8.76Z"/><path class="cls-31" d="M139.33,157.16l-3.22,8.76h-1l-3.15-8.76H133l2.44,7a3.86,3.86,0,0,1,.16.77h0a4.48,4.48,0,0,1,.2-.78l2.49-7Z"/><path class="cls-31" d="M148.36,165.92V160c0-.45,0-1,.09-1.69h0a6.41,6.41,0,0,1-.25.83l-3,6.78h-.43l-3-6.73a4.81,4.81,0,0,1-.25-.88h0c0,.22,0,.78,0,1.67v5.94h-.93v-8.76h1.24l2.71,6.17a8.86,8.86,0,0,1,.41,1h0c.06-.17.2-.52.43-1.07l2.77-6.14h1.17v8.76Z"/><path class="cls-31" d="M175.32,157.16l-3.23,8.76h-1l-3.15-8.76H169l2.44,7a4.66,4.66,0,0,1,.17.77h0a4.4,4.4,0,0,1,.19-.78l2.5-7Z"/><path class="cls-31" d="M184.34,165.92V160c0-.45,0-1,.09-1.69h0a5.11,5.11,0,0,1-.25.83l-3,6.78h-.43l-3-6.73a4.25,4.25,0,0,1-.24-.88h0c0,.22,0,.78,0,1.67v5.94h-.92v-8.76h1.24l2.71,6.17a8.26,8.26,0,0,1,.4,1h0c.06-.17.2-.52.42-1.07l2.77-6.14h1.17v8.76Z"/><path class="cls-31" d="M187.14,164.4a2.9,2.9,0,0,0,1.08.57,4.18,4.18,0,0,0,1.24.21q1.89,0,1.89-1.38a1.31,1.31,0,0,0-.2-.71,1.94,1.94,0,0,0-.51-.52c-.22-.14-.66-.38-1.33-.73a5.8,5.8,0,0,1-1.68-1.17,1.91,1.91,0,0,1-.48-1.33,2,2,0,0,1,.87-1.7,3.48,3.48,0,0,1,2.12-.63,4.08,4.08,0,0,1,1.84.31v1.12a3.29,3.29,0,0,0-2-.53,2.42,2.42,0,0,0-1.35.35,1.16,1.16,0,0,0-.52,1,1.27,1.27,0,0,0,.37.93,7.12,7.12,0,0,0,1.53.94,5.28,5.28,0,0,1,1.82,1.29,2.19,2.19,0,0,1-.34,3.06,3.71,3.71,0,0,1-2.25.6,5.41,5.41,0,0,1-1.13-.15,2.69,2.69,0,0,1-1-.36Z"/><path class="cls-31" d="M193.65,164.4a2.78,2.78,0,0,0,1.07.57,4.18,4.18,0,0,0,1.24.21q1.89,0,1.89-1.38a1.3,1.3,0,0,0-.19-.71,2.14,2.14,0,0,0-.52-.52c-.21-.14-.65-.38-1.32-.73a6,6,0,0,1-1.69-1.17,2,2,0,0,1-.47-1.33,2,2,0,0,1,.86-1.7,3.49,3.49,0,0,1,2.13-.63,4.06,4.06,0,0,1,1.83.31v1.12a3.27,3.27,0,0,0-2-.53,2.38,2.38,0,0,0-1.34.35,1.13,1.13,0,0,0-.52,1,1.23,1.23,0,0,0,.37.93,6.73,6.73,0,0,0,1.52.94,5.45,5.45,0,0,1,1.83,1.29,2.11,2.11,0,0,1,.47,1.31,2.06,2.06,0,0,1-.81,1.75,3.73,3.73,0,0,1-2.25.6,5.57,5.57,0,0,1-1.14-.15,2.63,2.63,0,0,1-1-.36Z"/><path class="cls-31" d="M15.75,213.73c-.08,3.25-1.79,5.84-5.1,7.74l-.68-.72a8.37,8.37,0,0,0,3.19-2.41,7,7,0,0,0,1.65-3.82H10.45v-.79Zm2.79,4.5v6h-.87V212.7h.87v4.73h2v.8Z"/><path class="cls-31" d="M27.78,218.7a7.49,7.49,0,0,1-1.55-1.18,4.93,4.93,0,0,1-1.11-1.42A5.55,5.55,0,0,1,24,217.68,6.88,6.88,0,0,1,22.42,219l-.65-.62a5.65,5.65,0,0,0,2.08-1.74,3.91,3.91,0,0,0,.83-2.34v-1.21h.84v1.21a3.49,3.49,0,0,0,.84,2.2,5.07,5.07,0,0,0,2,1.55Zm-.64,5.39a5.06,5.06,0,0,1-2.73-.62,1.86,1.86,0,0,1-1-1.61,1.84,1.84,0,0,1,1-1.6,5.11,5.11,0,0,1,2.73-.62,5.11,5.11,0,0,1,2.74.61,1.83,1.83,0,0,1,0,3.22A5,5,0,0,1,27.14,224.09Zm0-3.7a4.19,4.19,0,0,0-2,.41,1.2,1.2,0,0,0-.72,1.06,1.21,1.21,0,0,0,.72,1.07,4.19,4.19,0,0,0,2,.41,4.29,4.29,0,0,0,2.06-.41,1.15,1.15,0,0,0,0-2.13A4.29,4.29,0,0,0,27.14,220.39Zm3.51-3.73v2.66h-.88V212.7h.88v3.15h1.71v.81Z"/><path class="cls-31" d="M15.38,233.94a34.39,34.39,0,0,1-4.83.2v-7.38h.87v6.59h.52a29.24,29.24,0,0,0,3.34-.14Zm.88,3.07v-6.55H13.62v-.78h2.64v-3.55h.87V237Zm2.25.38V225.9h.88v11.49Z"/><path class="cls-31" d="M21.76,235.58v-.79H32.29v.79Zm8.9-7.78H24.33v1.66h6v.79h-6v1.58h6.51v.79H23.46V227h7.2Z"/><path class="cls-31" d="M37.25,237.06v-4.22l-3.32,0-.09-.78c3.23,0,5.8-.06,7.69-.17l0,.77q-.81,0-3.45.12v4.23Zm.42-6.05a3.08,3.08,0,0,1-2.09-.68,2.27,2.27,0,0,1,0-3.43,3,3,0,0,1,2.08-.68,3.08,3.08,0,0,1,2.09.68,2.27,2.27,0,0,1,0,3.44A3.12,3.12,0,0,1,37.67,231Zm0-4a2.23,2.23,0,0,0-1.46.45,1.54,1.54,0,0,0,0,2.36,2.64,2.64,0,0,0,2.92,0,1.56,1.56,0,0,0,0-2.36A2.23,2.23,0,0,0,37.67,227Zm2.11,7.66v-.8h2.67V225.9h.89v11.49h-.89v-2.74Z"/><path class="cls-31" d="M45.85,235.27v-.79h7.7c.12-1.28.19-2.44.22-3.48l-6.85.36-.18-.87,7-.25v-2.45H47.31V227h7.34v3.34c0,1-.08,2.38-.25,4.14h2v.79Z"/><path class="cls-31" d="M102.7,220.87c-.59,0-1.68.09-3.27.16v2.54h-.9v-2.5c-1.58.06-2.73.08-3.47.08l-.13-.84c3,0,5.54-.08,7.71-.23Zm-3.77-1.5a3.27,3.27,0,0,1-2.1-.65,2,2,0,0,1-.82-1.61,2,2,0,0,1,.81-1.59,3.36,3.36,0,0,1,2.11-.64,3.25,3.25,0,0,1,2.1.64,2,2,0,0,1,.81,1.59,2,2,0,0,1-.81,1.61A3.27,3.27,0,0,1,98.93,219.37Zm-2.18,6.76V222.6h.92v2.72h7.07v.81Zm2.18-10.47a2.22,2.22,0,0,0-1.45.44,1.26,1.26,0,0,0-.55,1,1.3,1.3,0,0,0,.55,1,2.28,2.28,0,0,0,1.45.44,2.31,2.31,0,0,0,1.46-.44,1.3,1.3,0,0,0,.55-1,1.26,1.26,0,0,0-.55-1A2.25,2.25,0,0,0,98.93,215.66Zm4.6,8.32v-1.26H101v-.81h2.58v-7.24h.93V224Z"/><path class="cls-31" d="M113.53,220.8a7.43,7.43,0,0,1-1.61-1.22,5.39,5.39,0,0,1-1.13-1.46,6.32,6.32,0,0,1-1.16,1.64,6.9,6.9,0,0,1-1.64,1.33l-.65-.62a5.64,5.64,0,0,0,2.12-1.76,4,4,0,0,0,.86-2.41V216h-2.59v-.81h6.06V216H111.2v.3a3.52,3.52,0,0,0,.89,2.26,5.3,5.3,0,0,0,2,1.57Zm-4,5.32v-4.23h7.27v4.23Zm6.37-3.43h-5.47v2.63h5.47Zm0-1.47v-3.06h-2.81v-.82h2.81v-2.67h.91v6.55Z"/><path class="cls-31" d="M121.79,227.38a8,8,0,0,1-1.94-5.46,8.3,8.3,0,0,1,1.94-5.56h.88a8.47,8.47,0,0,0-2,5.55,8.29,8.29,0,0,0,2,5.47Z"/><path class="cls-31" d="M124.85,216.36l-.19,2.8H124l-.19-2.8Zm2.05,0-.19,2.8H126l-.2-2.8Z"/><path class="cls-31" d="M128.69,224.58v-.81h2.82v-3a2.49,2.49,0,0,1-1.33-2.3,2.46,2.46,0,0,1,1.09-2.15,5.77,5.77,0,0,1,5.76,0,2.67,2.67,0,0,1-.24,4.45v3h2.82v.81Zm2.43-6.12A1.76,1.76,0,0,0,132,220a4.56,4.56,0,0,0,4.38,0,1.85,1.85,0,0,0,0-3.09,3.77,3.77,0,0,0-2.18-.57,3.83,3.83,0,0,0-2.19.57A1.77,1.77,0,0,0,131.12,218.46Zm1.3,2.68v2.63h3.46v-2.63a5.94,5.94,0,0,1-1.73.23A6.51,6.51,0,0,1,132.42,221.14Z"/><path class="cls-31" d="M147.85,221.19a6.22,6.22,0,0,1-2.86-2.5,5.29,5.29,0,0,1-1.17,1.53,7,7,0,0,1-1.7,1.21l-.67-.7a5.28,5.28,0,0,0,2.16-1.47,3.05,3.05,0,0,0,.92-2v-.57h-2.69v-.8h2.69v-1.37h.91v1.37h2.68v.8h-2.68v.56a2.75,2.75,0,0,0,.93,1.86,4.56,4.56,0,0,0,2.1,1.29Zm-.53,5.08a5.26,5.26,0,0,1-2.84-.64,1.85,1.85,0,0,1,0-3.29,6.67,6.67,0,0,1,5.7,0,1.84,1.84,0,0,1,0,3.29A5.28,5.28,0,0,1,147.32,226.27Zm0-3.79a4.36,4.36,0,0,0-2.13.42,1.26,1.26,0,0,0-.74,1.08,1.24,1.24,0,0,0,.74,1.08,4.41,4.41,0,0,0,2.13.42,4.36,4.36,0,0,0,2.13-.42,1.22,1.22,0,0,0,.75-1.08,1.24,1.24,0,0,0-.74-1.08A4.38,4.38,0,0,0,147.32,222.48Zm2.71-1v-2.79h-2.32v-.81H150v-3.2h.91v6.8Z"/><path class="cls-31" d="M155.05,216.36l-.19,2.8h-.68l-.19-2.8Zm2,0-.18,2.8h-.68l-.2-2.8Z"/><path class="cls-31" d="M158.26,227.38a8.26,8.26,0,0,0,2-5.47,8.42,8.42,0,0,0-2-5.55h.89a8.3,8.3,0,0,1,1.94,5.56,8,8,0,0,1-1.94,5.46Z"/><path class="cls-31" d="M162.89,224.3l-.08-.78c1.05,0,2.51,0,4.4-.06s3.13-.09,3.75-.14l0,.78c-.64.06-1.9.1-3.78.14S163.9,224.3,162.89,224.3Zm3.89-3.12a3.21,3.21,0,0,1-2.21-.8,2.57,2.57,0,0,1-.9-2,2.6,2.6,0,0,1,.89-2,3.43,3.43,0,0,1,4.44,0,2.67,2.67,0,0,1,0,4A3.2,3.2,0,0,1,166.78,221.18Zm0-4.81a2.25,2.25,0,0,0-1.55.56,1.87,1.87,0,0,0-.62,1.44,1.81,1.81,0,0,0,.64,1.44,2.4,2.4,0,0,0,3.08,0,1.83,1.83,0,0,0,.63-1.44,1.85,1.85,0,0,0-.62-1.44A2.21,2.21,0,0,0,166.78,216.37Zm5,10.07V214.67h.91v11.77Z"/><path class="cls-31" d="M179.85,224.64v-.8h10.93v.8Zm1-7.61v-.8h4.05v-1.44h.9v1.44h4v.8Zm4.5,5.16a5.31,5.31,0,0,1-2.84-.63,1.87,1.87,0,0,1-1-1.61,1.84,1.84,0,0,1,1-1.6,5.4,5.4,0,0,1,2.83-.62,5.35,5.35,0,0,1,2.81.62,1.82,1.82,0,0,1,1,1.6,1.87,1.87,0,0,1-1,1.62A5.36,5.36,0,0,1,185.32,222.19Zm0-3.68a4.65,4.65,0,0,0-2.13.39,1.18,1.18,0,0,0-.74,1,1.21,1.21,0,0,0,.74,1.07,5.84,5.84,0,0,0,4.25,0,1.21,1.21,0,0,0,.73-1.07,1.18,1.18,0,0,0-.74-1A4.55,4.55,0,0,0,185.32,218.51Z"/><path class="cls-31" d="M192.44,221.54v-.78h10.93v.78Zm1.8,4.74v-3.61h7.33v3.61Zm0-6.63v-2.76h6.35V215.7h-6.35v-.77h7.25v2.7h-6.35v1.25h6.62v.77Zm6.39,3.79h-5.53v2.07h5.53Z"/><path class="cls-31" d="M95.28,234v-5.54h.9v2h3.6v-2h.9V234Zm4.5-2.7h-3.6v1.91h3.6Zm.4,8.22a5.64,5.64,0,0,1-2.84-.59,1.82,1.82,0,0,1-1-1.6,1.77,1.77,0,0,1,1-1.57,7.19,7.19,0,0,1,5.68,0,1.77,1.77,0,0,1,1,1.58,1.79,1.79,0,0,1-1,1.6A5.56,5.56,0,0,1,100.18,239.48Zm0-3.56a5,5,0,0,0-2.13.36,1.12,1.12,0,0,0-.74,1,1.14,1.14,0,0,0,.75,1,4.8,4.8,0,0,0,2.12.37,4.9,4.9,0,0,0,2.14-.37,1.14,1.14,0,0,0,.74-1,1.12,1.12,0,0,0-.73-1A5.06,5.06,0,0,0,100.18,235.92Zm3.63-4v2.89h-.9v-7h.9v3.26h1.78v.81Z"/><path class="cls-31" d="M107.27,230.1v-.82h3v-1.47h.91v1.47h3v.82Zm3.5,4.6a3.5,3.5,0,0,1-2.13-.56,1.71,1.71,0,0,1-.77-1.45,1.74,1.74,0,0,1,.78-1.46,4.33,4.33,0,0,1,4.26,0,1.75,1.75,0,0,1,0,2.91A3.6,3.6,0,0,1,110.77,234.7Zm0-3.26a2.72,2.72,0,0,0-1.48.35,1,1,0,0,0,0,1.8,3.39,3.39,0,0,0,3,0,1,1,0,0,0,0-1.8A2.72,2.72,0,0,0,110.78,231.44Zm2,8.12a6.06,6.06,0,0,1-2.85-.54,1.67,1.67,0,0,1-1-1.51,1.73,1.73,0,0,1,1-1.55,7.69,7.69,0,0,1,5.71,0,1.7,1.7,0,0,1,1,1.55,1.65,1.65,0,0,1-1,1.51A6.08,6.08,0,0,1,112.76,239.56Zm0-3.38c-1.9,0-2.86.44-2.86,1.33s1,1.32,2.86,1.32,2.89-.44,2.89-1.32S114.68,236.18,112.76,236.18Zm3.64-2.64v1.72h-.91v-7.39h.91v2.31h1.78V231H116.4v1.77h1.78v.8Z"/><path class="cls-31" d="M95.28,261.88v-6h.9v2.27h3.6V255.9h.9v6Zm4.5-2.9h-3.6v2.09h3.6Zm-3.14,7.76v-3.61h.91v2.8h6.59v.81Zm7.17-6.91v4.11h-.9v-8.6h.9V259h1.78v.83Z"/><path class="cls-31" d="M114.88,263.1q-3.7.22-7.57.22l-.09-.8c.83,0,2,0,3.37-.06v-.88a3.39,3.39,0,0,1-1.83-.58,1.52,1.52,0,0,1-.64-1.23,1.53,1.53,0,0,1,.78-1.34,4,4,0,0,1,2.14-.5,3.75,3.75,0,0,1,2.14.53,1.49,1.49,0,0,1,.15,2.54,3.39,3.39,0,0,1-1.83.58v.87c1.36,0,2.47-.08,3.33-.13Zm-7.3-5.63v-.8h3v-1.3h.91v1.3h3v.8Zm3.46,1.2a2.94,2.94,0,0,0-1.48.31.84.84,0,0,0,0,1.57,3.11,3.11,0,0,0,1.48.3,3.05,3.05,0,0,0,1.48-.3.84.84,0,0,0,0-1.57A3,3,0,0,0,111,258.67Zm-1.89,8.3v-3H110v2.22h6.81v.8Zm7.43-6.15v3.56h-.91v-9h.91V260h1.76v.82Z"/><path class="cls-31" d="M121.79,268.05a8,8,0,0,1-1.94-5.46,8.32,8.32,0,0,1,1.94-5.56h.88a8.47,8.47,0,0,0-2,5.55,8.27,8.27,0,0,0,2,5.47Z"/><path class="cls-31" d="M124.85,257l-.19,2.8H124l-.19-2.8Zm2.05,0-.19,2.8H126l-.2-2.8Z"/><path class="cls-31" d="M133.19,262.64v1.69l2.21-.07c.65,0,1.1,0,1.35-.07l.05.79c-.64,0-1.87.1-3.69.14s-3.22.06-4.21.06l-.08-.8c1.22,0,2.38,0,3.47,0v-1.7a3.09,3.09,0,0,1-1.86-.69,1.84,1.84,0,0,1-.66-1.43,1.91,1.91,0,0,1,.8-1.58,3.57,3.57,0,0,1,2.18-.6,3.51,3.51,0,0,1,2.16.6,1.81,1.81,0,0,1,.79,1.5,1.94,1.94,0,0,1-.66,1.49A3.08,3.08,0,0,1,133.19,262.64Zm-.9-7.27h.91v1.53h3.05v.82h-7v-.82h3.08Zm.46,3.74a2.48,2.48,0,0,0-1.49.4,1.2,1.2,0,0,0-.56,1,1.15,1.15,0,0,0,.54,1,2.63,2.63,0,0,0,1.51.38,2.58,2.58,0,0,0,1.5-.38,1.16,1.16,0,0,0,.54-1,1.21,1.21,0,0,0-.55-1A2.51,2.51,0,0,0,132.75,259.11Zm4.91,8V255.34h.92v11.77Z"/><path class="cls-31" d="M147.67,262a7.29,7.29,0,0,1-1.66-1.38,6.48,6.48,0,0,1-1.1-1.54,7,7,0,0,1-1.17,1.79,6.38,6.38,0,0,1-1.65,1.44l-.66-.63a5.7,5.7,0,0,0,2.13-1.88,4.34,4.34,0,0,0,.88-2.53v-1.52h.89v1.52a3.86,3.86,0,0,0,.91,2.36,5.57,5.57,0,0,0,2,1.72Zm-4,4.76V263h.92v2.94h6.65v.8Zm6.35-3v-8.38h.91v8.38Z"/><path class="cls-31" d="M155.05,257l-.19,2.8h-.68L154,257Zm2,0-.18,2.8h-.68L156,257Z"/><path class="cls-31" d="M158.26,268.05a8.24,8.24,0,0,0,2-5.47,8.42,8.42,0,0,0-2-5.55h.89a8.32,8.32,0,0,1,1.94,5.56,8,8,0,0,1-1.94,5.46Z"/><path class="cls-31" d="M162.89,265l-.08-.79c1.05,0,2.51,0,4.4-.06s3.13-.09,3.75-.14l0,.79c-.64.05-1.9.1-3.78.14S163.9,265,162.89,265Zm3.89-3.13a3.16,3.16,0,0,1-2.21-.8,2.57,2.57,0,0,1-.9-2,2.61,2.61,0,0,1,.89-2,3.22,3.22,0,0,1,2.22-.8,3.18,3.18,0,0,1,2.22.81,2.68,2.68,0,0,1,0,4A3.19,3.19,0,0,1,166.78,261.85Zm0-4.81a2.21,2.21,0,0,0-1.55.57,1.85,1.85,0,0,0-.62,1.43,1.81,1.81,0,0,0,.64,1.44,2.4,2.4,0,0,0,3.08,0A1.83,1.83,0,0,0,169,259a1.85,1.85,0,0,0-.62-1.44A2.26,2.26,0,0,0,166.78,257Zm5,10.07V255.34h.91v11.77Z"/><path class="cls-31" d="M179.85,265.31v-.8h10.93v.8Zm1-7.61v-.8h4.05v-1.44h.9v1.44h4v.8Zm4.5,5.17a5.22,5.22,0,0,1-2.84-.64,1.85,1.85,0,0,1-1-1.6,1.83,1.83,0,0,1,1-1.6,6.67,6.67,0,0,1,5.64,0,1.83,1.83,0,0,1,1,1.61,1.86,1.86,0,0,1-1,1.61A5.26,5.26,0,0,1,185.32,262.87Zm0-3.69a4.65,4.65,0,0,0-2.13.39,1.13,1.13,0,0,0,0,2.12,5.84,5.84,0,0,0,4.25,0,1.2,1.2,0,0,0,.73-1.06,1.18,1.18,0,0,0-.74-1.06A4.55,4.55,0,0,0,185.32,259.18Z"/><path class="cls-31" d="M192.44,262.21v-.77h10.93v.77Zm1.8,4.75v-3.62h7.33V267Zm0-6.63v-2.76h6.35v-1.19h-6.35v-.78h7.25v2.7h-6.35v1.25h6.62v.78Zm6.39,3.79h-5.53v2.06h5.53Z"/><path class="cls-31" d="M95.28,274.64v-5.55h.9v2h3.6v-2h.9v5.55Zm4.5-2.71h-3.6v1.91h3.6Zm.4,8.23a5.53,5.53,0,0,1-2.84-.6,1.81,1.81,0,0,1-1-1.59,1.78,1.78,0,0,1,1-1.58,7.13,7.13,0,0,1,5.68,0,1.76,1.76,0,0,1,1,1.58,1.82,1.82,0,0,1-1,1.6A5.67,5.67,0,0,1,100.18,280.16Zm0-3.57a5,5,0,0,0-2.13.36,1.12,1.12,0,0,0-.74,1,1.15,1.15,0,0,0,.75,1,5,5,0,0,0,2.12.37,4.88,4.88,0,0,0,2.14-.38,1.08,1.08,0,0,0,0-2A5.06,5.06,0,0,0,100.18,276.59Zm3.63-4v2.89h-.9v-7h.9v3.27h1.78v.81Z"/><path class="cls-31" d="M107.27,270.77V270h3v-1.47h.91V270h3v.82Zm3.5,4.61a3.57,3.57,0,0,1-2.13-.56,1.75,1.75,0,0,1,0-2.91,4.26,4.26,0,0,1,4.26,0,1.74,1.74,0,0,1,0,2.9A3.53,3.53,0,0,1,110.77,275.38Zm0-3.26a2.64,2.64,0,0,0-1.48.35,1,1,0,0,0-.53.9,1,1,0,0,0,.53.89,3.39,3.39,0,0,0,3,0,1,1,0,0,0,.53-.89,1,1,0,0,0-.53-.9A2.64,2.64,0,0,0,110.78,272.12Zm2,8.11a6.06,6.06,0,0,1-2.85-.54,1.67,1.67,0,0,1-1-1.51,1.71,1.71,0,0,1,1-1.54,5.8,5.8,0,0,1,2.85-.56,5.92,5.92,0,0,1,2.86.55,1.7,1.7,0,0,1,1,1.55,1.68,1.68,0,0,1-1,1.52A6.22,6.22,0,0,1,112.76,280.23Zm0-3.38c-1.9,0-2.86.45-2.86,1.33s1,1.32,2.86,1.32,2.89-.44,2.89-1.32S114.68,276.85,112.76,276.85Zm3.64-2.63v1.72h-.91v-7.4h.91v2.31h1.78v.79H116.4v1.78h1.78v.8Z"/></g></svg>