<svg xmlns="http://www.w3.org/2000/svg" xmlns:xlink="http://www.w3.org/1999/xlink" viewBox="0 0 171.02 202.65"><defs><style>.cls-1{fill:#fff;}.cls-2,.cls-3,.cls-4{fill:#3c3c41;}.cls-2{opacity:0.05;}.cls-2,.cls-4{isolation:isolate;}.cls-4{opacity:0.2;}.cls-5{fill:url(#Degradado_sin_nombre);}.cls-6{fill:#767676;}.cls-7{fill:#f2f2f2;}.cls-8{fill:url(#Degradado_sin_nombre_2);}.cls-9{fill:url(#Degradado_sin_nombre_3);}.cls-10{fill:url(#Degradado_sin_nombre_4);}.cls-11{fill:none;stroke:#3c3c41;stroke-miterlimit:10;}.cls-12{fill:url(#Degradado_sin_nombre_5);}.cls-13{fill:url(#Degradado_sin_nombre_6);}.cls-14{fill:url(#Degradado_sin_nombre_7);}.cls-15{fill:#50e6ff;}.cls-16{fill:#1490df;}.cls-17{fill:#6ebcdb;}.cls-18{fill:#5db4d7;}.cls-19{fill:#e6e6e6;}.cls-20{fill:#86d633;}.cls-21{fill:#1e1e1e;}</style><linearGradient id="Degradado_sin_nombre" x1="83.55" y1="-2014.2" x2="83.55" y2="-2001.41" gradientTransform="matrix(1, 0, 0, -1, 0, -1978.98)" gradientUnits="userSpaceOnUse"><stop offset="0" stop-color="#32bedd"/><stop offset="0.18" stop-color="#32caea"/><stop offset="0.41" stop-color="#32d2f2"/><stop offset="0.78" stop-color="#32d4f5"/></linearGradient><linearGradient id="Degradado_sin_nombre_2" x1="92.01" y1="-2020.48" x2="92.01" y2="-2007.69" xlink:href="#Degradado_sin_nombre"/><linearGradient id="Degradado_sin_nombre_3" x1="100.46" y1="-2026.76" x2="100.46" y2="-2013.96" xlink:href="#Degradado_sin_nombre"/><linearGradient id="Degradado_sin_nombre_4" x1="22.57" y1="299.48" x2="22.57" y2="278.9" gradientTransform="translate(0 -252.68)" xlink:href="#Degradado_sin_nombre"/><linearGradient id="Degradado_sin_nombre_5" x1="38.26" y1="428.03" x2="40.63" y2="430.4" gradientTransform="translate(2.9 -253.22)" gradientUnits="userSpaceOnUse"><stop offset="0" stop-color="#86d633"/><stop offset="0.24" stop-color="#83d232"/><stop offset="0.5" stop-color="#7cc52f"/><stop offset="0.76" stop-color="#6fb02a"/><stop offset="1" stop-color="#5e9624"/></linearGradient><linearGradient id="Degradado_sin_nombre_6" x1="32.91" y1="428.03" x2="35.27" y2="430.4" xlink:href="#Degradado_sin_nombre_5"/><linearGradient id="Degradado_sin_nombre_7" x1="27.56" y1="428.03" x2="29.92" y2="430.4" xlink:href="#Degradado_sin_nombre_5"/></defs><title>OJ104903208</title><g id="Target"><g id="Shapes"><rect class="cls-1" width="170.48" height="202.65"/><rect class="cls-1" x="15.52" y="120.49" width="155" height="55" rx="5"/><rect class="cls-2" x="15.52" y="120.49" width="155" height="55" rx="5"/><path class="cls-3" d="M164.37,176h-1v-1h1Zm-3,0h-1v-1h1Zm-3,0h-1v-1h1Zm-3,0h-1v-1h1Zm-3,0h-1v-1h1Zm-3,0h-1v-1h1Zm-3,0h-1v-1h1Zm-3,0h-1v-1h1Zm-3,0h-1v-1h1Zm-3,0h-1v-1h1Zm-3,0h-1v-1h1Zm-3,0h-1v-1h1Zm-3,0h-1v-1h1Zm-3,0h-1v-1h1Zm-3,0h-1v-1h1Zm-3,0h-1v-1h1Zm-3,0h-1v-1h1Zm-3,0h-1v-1h1Zm-3,0h-1v-1h1Zm-3,0h-1v-1h1Zm-3,0h-1v-1h1Zm-3,0h-1v-1h1Zm-3,0h-1v-1h1Zm-3,0h-1v-1h1Zm-3,0h-1v-1h1Zm-3,0h-1v-1h1Zm-3,0h-1v-1h1Zm-3,0h-1v-1h1Zm-3,0h-1v-1h1Zm-3,0h-1v-1h1Zm-3,0h-1v-1h1Zm-3,0h-1v-1h1Zm-3,0h-1v-1h1Zm-3,0h-1v-1h1Zm-3,0h-1v-1h1Zm-3,0h-1v-1h1Zm-3,0h-1v-1h1Zm-3,0h-1v-1h1Zm-33,0a5.75,5.75,0,0,1-1.09-.17l.26-1a3.76,3.76,0,0,0,.88.14Zm146.23-.07-.17-1a5.11,5.11,0,0,0,.87-.25l.36.94a5.19,5.19,0,0,1-1.16.29ZM17.17,174.84a5.16,5.16,0,0,1-.8-.75l.76-.66a4.77,4.77,0,0,0,.65.62Zm152.18-.41-.7-.71a4.24,4.24,0,0,0,.58-.69l.83.57a5.65,5.65,0,0,1-.71.83ZM15.29,172.19a5.61,5.61,0,0,1-.23-1.08l1-.11a5.31,5.31,0,0,0,.19.88Zm155.62-.61-1-.2a4.41,4.41,0,0,0,.09-.89l1-.06v.06a5,5,0,0,1-.09,1.09ZM16,169.06H15v-1h1Zm155-.63h-1v-1h1ZM16,166.05H15v-1h1Zm155-.62h-1v-1h1ZM16,163.05H15v-1h1Zm155-.63h-1v-1h1ZM16,160.05H15v-1h1Zm155-.63h-1v-1h1ZM16,157.05H15v-1h1Zm155-.63h-1v-1h1ZM16,154H15v-1h1Zm155-.62h-1v-1h1ZM16,151H15v-1h1Zm155-.63h-1v-1h1ZM16,148H15v-1h1Zm155-.63h-1v-1h1ZM16,145H15v-1h1Zm155-.63h-1v-1h1ZM16,142H15v-1h1Zm155-.62h-1v-1h1ZM16,139H15v-1h1Zm155-.63h-1v-1h1ZM16,136H15v-1h1Zm155-.63h-1v-1h1ZM16,133H15v-1h1Zm155-.63h-1v-1h1ZM16,130H15v-1h1Zm155-.62h-1v-1h1ZM16,127H15v-1h1Zm155-.63h-1v-.9l1-.11Zm-154.8-2.2-1-.3a5.2,5.2,0,0,1,.43-1l.88.48a4.17,4.17,0,0,0-.29.84Zm153.41-.53a3.77,3.77,0,0,0-.45-.78l.82-.58a4.83,4.83,0,0,1,.54,1ZM17.71,122l-.62-.78a5.2,5.2,0,0,1,.92-.6l.46.89A4.69,4.69,0,0,0,17.71,122Zm150.16-.32a4.6,4.6,0,0,0-.8-.4l.34-.93a4.6,4.6,0,0,1,1,.48ZM20.19,121l-.08-1h1v1h-1Zm145.08,0h-1v-1h1Zm-3,0h-1v-1h1Zm-3,0h-1v-1h1Zm-3,0h-1v-1h1Zm-3,0h-1v-1h1Zm-3,0h-1v-1h1Zm-3,0h-1v-1h1Zm-3,0h-1v-1h1Zm-3,0h-1v-1h1Zm-3,0h-1v-1h1Zm-3,0h-1v-1h1Zm-3,0h-1v-1h1Zm-3,0h-1v-1h1Zm-3,0h-1v-1h1Zm-3,0h-1v-1h1Zm-3,0h-1v-1h1Zm-3,0h-1v-1h1Zm-3,0h-1v-1h1Zm-3,0h-1v-1h1Zm-3,0h-1v-1h1Zm-3,0h-1v-1h1Zm-3,0h-1v-1h1Zm-3,0h-1v-1h1Zm-3,0h-1v-1h1Zm-3,0h-1v-1h1Zm-3,0h-1v-1h1Zm-3,0h-1v-1h1Zm-3,0h-1v-1h1Zm-3,0h-1v-1h1Zm-3,0h-1v-1h1Zm-3,0h-1v-1h1Zm-3,0h-1v-1h1Zm-3,0h-1v-1h1Zm-3,0h-1v-1h1Zm-3,0h-1v-1h1Zm-3,0h-1v-1h1Zm-3,0h-1v-1h1Zm-3,0h-1v-1h1Zm-3,0h-1v-1h1Zm-3,0h-1v-1h1Zm-3,0h-1v-1h1Zm-3,0h-1v-1h1Zm-3,0h-1v-1h1Zm-3,0h-1v-1h1Zm-3,0h-1v-1h1Zm-3,0h-1v-1h1Zm-3,0h-1v-1h1Zm-3,0h-1v-1h1Z"/><rect class="cls-1" x="25.22" y="130.51" width="65.69" height="30" rx="0.3"/><rect class="cls-4" x="25.22" y="130.51" width="65.69" height="30" rx="0.3"/><rect class="cls-1" x="95.59" y="130.51" width="65.69" height="30" rx="0.3"/><rect class="cls-4" x="95.59" y="130.51" width="65.69" height="30" rx="0.3"/><path class="cls-5" d="M72.72,22.43H94.39V34.52a.73.73,0,0,1-.73.72H73.45a.73.73,0,0,1-.73-.72h0Z"/><path class="cls-6" d="M73.45,17.8H93.66a.73.73,0,0,1,.73.73h0v3.9H72.72v-3.9A.73.73,0,0,1,73.45,17.8Z"/><rect class="cls-7" x="75.64" y="19.19" width="15.84" height="1.86" rx="0.36"/><path class="cls-8" d="M81.17,28.69h21.68V40.77a.73.73,0,0,1-.73.73H81.89a.72.72,0,0,1-.72-.72h0Z"/><path class="cls-6" d="M81.89,24.08H102.1a.73.73,0,0,1,.73.73h0v3.88H81.19V24.81A.72.72,0,0,1,81.89,24.08Z"/><rect class="cls-7" x="84.08" y="25.47" width="15.84" height="1.86" rx="0.36"/><path class="cls-9" d="M89.63,35h21.66V47.07a.72.72,0,0,1-.71.73H90.36a.73.73,0,0,1-.73-.73h0Z"/><path class="cls-6" d="M90.36,30.36h20.21a.72.72,0,0,1,.72.72h0V35H89.63V31.1a.73.73,0,0,1,.72-.74Z"/><circle class="cls-7" cx="105.34" cy="40.6" r="1.76"/><circle class="cls-7" cx="100.54" cy="40.6" r="1.76"/><circle class="cls-7" cx="95.59" cy="40.6" r="1.76"/><rect class="cls-7" x="92.54" y="31.75" width="15.84" height="1.86" rx="0.36"/><path class="cls-10" d="M5.14,26.22H40V45.63a1.17,1.17,0,0,1-1.17,1.17H6.31a1.17,1.17,0,0,1-1.17-1.17Z"/><path class="cls-6" d="M6.31,18.8H38.79A1.17,1.17,0,0,1,40,19.93v6.32H5.14V20a1.17,1.17,0,0,1,1.14-1.2Z"/><circle class="cls-7" cx="30.38" cy="35.23" r="2.83"/><circle class="cls-7" cx="22.67" cy="35.23" r="2.83"/><circle class="cls-7" cx="14.73" cy="35.23" r="2.83"/><rect class="cls-7" x="9.83" y="21.01" width="25.46" height="2.99" rx="0.57"/><line class="cls-11" x1="58.09" y1="130.51" x2="58.09" y2="107.89"/><polygon class="cls-3" points="61.83 108.99 58.09 102.51 54.35 108.99 61.83 108.99"/><path class="cls-11" d="M45.59,75.61H24.33a5,5,0,0,1-5-5V55.29"/><polygon class="cls-3" points="23.07 56.39 19.33 49.91 15.59 56.39 23.07 56.39"/><path class="cls-11" d="M97.34,55.29V70.61a5,5,0,0,1-5,5H69"/><polygon class="cls-3" points="93.6 56.39 97.34 49.91 101.08 56.39 93.6 56.39"/><circle class="cls-12" cx="42.11" cy="175.76" r="1.67"/><circle class="cls-13" cx="36.77" cy="175.78" r="1.67"/><circle class="cls-14" cx="31.43" cy="175.78" r="1.67"/><path class="cls-15" d="M32.64,182.47l-.95,1a.44.44,0,0,1-.62,0h0L24,176.36a.87.87,0,0,1,0-1.23h0l.95-1h0l7.71,7.69a.43.43,0,0,1,0,.61h0Z"/><path class="cls-16" d="M31.54,168.14l1,1a.44.44,0,0,1,0,.62L25,177.35h0l-1-1a.89.89,0,0,1,0-1.23h0l7-7A.43.43,0,0,1,31.54,168.14Z"/><path class="cls-15" d="M48.49,174.16l1,1a.87.87,0,0,1,0,1.23h0l-7.1,7.07a.43.43,0,0,1-.61,0h0l-1-1a.43.43,0,0,1,0-.61h0Z"/><path class="cls-16" d="M49.45,176.34l-1,.95h0l-7.58-7.59a.44.44,0,0,1,0-.62h0l1-1a.43.43,0,0,1,.61,0h0l7,7a.87.87,0,0,1,0,1.23h0Z"/><g id="ad94e297-0e86-4eaf-aac0-d146ee9aea65"><path class="cls-17" d="M54,92.24,49.31,87.4a2.56,2.56,0,0,1-.78.14,2.43,2.43,0,1,1,2.24-3.33h4.62v1.62H50.84a2.94,2.94,0,0,1-.26.57l4.33,4.46,2.34-3.57V76.11H54.1l4-4,3.94,4H58.87v8.74l5.93-9-6-6a1,1,0,0,0-1.41,0s0,0,0,0h0L42.88,84.28a1,1,0,0,0-.05,1.41l.05,0h0l14.48,14.47L52.19,95Z"/><path class="cls-18" d="M57.25,92.45V87.28l-2.34,3.58,1.72,1.84A1.76,1.76,0,0,1,57.25,92.45Z"/><path class="cls-18" d="M73.28,84.28,64.8,75.8l-5.93,9v7.61a1.91,1.91,0,0,1,.54.3l6.22-6.29a2.53,2.53,0,0,1-.31-.64H60.65V84.21h4.73a2.42,2.42,0,1,1,2.24,3.33,3,3,0,0,1-.67-.11L60.34,94.1a2.59,2.59,0,0,1,.1.62,2.43,2.43,0,1,1-4.84.44,2.18,2.18,0,0,1,0-.25,2.29,2.29,0,0,1,.13-.9L54,92.29l-1.85,2.76,5.17,5.17a1,1,0,0,0,1.41,0l0,0L73.24,85.74a1,1,0,0,0,.05-1.41s0,0-.05,0Z"/><path class="cls-19" d="M65.38,84.21H60.65v1.62h4.67a2.22,2.22,0,0,1-.12-.72A2.3,2.3,0,0,1,65.38,84.21Z"/><path class="cls-19" d="M50.84,85.83h4.55V84.21H50.77a2.14,2.14,0,0,1,.19.9A2.22,2.22,0,0,1,50.84,85.83Z"/><path class="cls-19" d="M60.34,94.1,67,87.43a2.44,2.44,0,0,1-1.32-1l-6.22,6.29A2.31,2.31,0,0,1,60.34,94.1Z"/><path class="cls-19" d="M56.68,92.7,55,90.86,50.58,86.4a2.42,2.42,0,0,1-1.27,1L54,92.24,55.72,94A2.41,2.41,0,0,1,56.68,92.7Z"/><path class="cls-1" d="M62,76.11l-3.93-4-4,4h3.15V92.45a1.71,1.71,0,0,0-.57.25,2.41,2.41,0,1,0,3.62,2.71,2.68,2.68,0,0,0,.1-.69,2.59,2.59,0,0,0-.1-.62,2.32,2.32,0,0,0-.93-1.34,1.91,1.91,0,0,0-.54-.3V76.11Zm-3.93,20a1.34,1.34,0,1,1,1.34-1.34h0a1.33,1.33,0,0,1-1.33,1.29Z"/><path class="cls-1" d="M50.58,86.4a2.94,2.94,0,0,0,.26-.57,2.22,2.22,0,0,0,.12-.72,2.14,2.14,0,0,0-.19-.9,2.41,2.41,0,1,0-2.24,3.33,2.56,2.56,0,0,0,.78-.14A2.42,2.42,0,0,0,50.58,86.4Zm-2,0a1.35,1.35,0,1,1,1.35-1.35h0a1.34,1.34,0,0,1-1.28,1.4h-.07Z"/><path class="cls-1" d="M67,87.43a3,3,0,0,0,.67.11,2.43,2.43,0,1,0-2.24-3.33,2.3,2.3,0,0,0-.18.9,2.22,2.22,0,0,0,.12.72,2.53,2.53,0,0,0,.31.64A2.46,2.46,0,0,0,67,87.43Zm.67-3.65a1.33,1.33,0,1,1-.33,0h0a1,1,0,0,1,.25,0Z"/><path class="cls-20" d="M58.08,93.38a1.34,1.34,0,1,0,1.34,1.34h0A1.34,1.34,0,0,0,58.08,93.38Z"/><circle class="cls-20" cx="48.53" cy="85.11" r="1.34"/><path class="cls-20" d="M67.62,86.45a1.35,1.35,0,1,0-1.34-1.36v0h0A1.34,1.34,0,0,0,67.62,86.45Z"/></g></g></g><g id="Text"><path class="cls-21" d="M41.39,147.07a9.39,9.39,0,0,1-1.82-1.89,6.21,6.21,0,0,1-1.08-2,7,7,0,0,1-1.1,2.09,9.11,9.11,0,0,1-1.78,1.91l-.69-.61a7.2,7.2,0,0,0,2.27-2.48,6.28,6.28,0,0,0,.85-3.08v-1.92h.88V141a5.88,5.88,0,0,0,.84,3A7,7,0,0,0,42,146.36Zm2.25,3V143h-2.7v-.81h2.7v-3.84h.9V150Z"/><path class="cls-21" d="M47.16,148.08v-.83H57.9v.83Zm1.8-3.27v-5.46h.9v1.87h5.35v-1.87h.9v5.46ZM55.21,142H49.86v2h5.35Z"/><path class="cls-21" d="M65.25,144.21c-1.12.12-2.7.18-4.76.18v-5.3h.89v4.52a29.44,29.44,0,0,0,3.8-.18Zm4.17,5.57a6.59,6.59,0,0,1-2.35-1.1,5.76,5.76,0,0,1-1.7-1.77,4.89,4.89,0,0,1-1.59,1.74,6.57,6.57,0,0,1-2.4,1.13l-.57-.78a5.37,5.37,0,0,0,2.84-1.33,3.07,3.07,0,0,0,1.28-2.16v-.28h.9v.26a3,3,0,0,0,1.25,2.16A5.4,5.4,0,0,0,69.94,149Zm-3.26-4.46v-3.56H63.49V141h2.67v-2.41H67v6.77Zm2.09.85v-7.84h.88v7.84Z"/><path class="cls-21" d="M79.45,149h-1v-7.72a3.3,3.3,0,0,1-.9.6,5.54,5.54,0,0,1-1.14.46v-1a6.67,6.67,0,0,0,1.42-.61,6.24,6.24,0,0,0,1.19-.83h.38Z"/><path class="cls-21" d="M31.49,188.7l-3.29,8.94H27.14l-3.22-8.94H25l2.48,7.15a3.9,3.9,0,0,1,.18.78h0a4.36,4.36,0,0,1,.2-.79l2.55-7.14Z"/><path class="cls-21" d="M32.57,189a.61.61,0,0,1,.18-.45.56.56,0,0,1,.44-.19.58.58,0,0,1,.45.19.63.63,0,0,1,.18.45.62.62,0,0,1-.18.46.61.61,0,0,1-.45.18.59.59,0,0,1-.44-.18A.62.62,0,0,1,32.57,189Zm.13,8.68v-6.38h.95v6.38Z"/><path class="cls-21" d="M39,192.25a1.23,1.23,0,0,0-.76-.21,1.3,1.3,0,0,0-1.09.64,3,3,0,0,0-.44,1.7v3.26h-.95v-6.38h.95v1.32h0a2.22,2.22,0,0,1,.65-1.05,1.52,1.52,0,0,1,1-.38,1.73,1.73,0,0,1,.62.09Z"/><path class="cls-21" d="M43.43,197.58a1.78,1.78,0,0,1-.91.2c-1.09,0-1.63-.61-1.63-1.85v-3.84H39.8v-.83h1.09v-1.57l1-.31v1.88h1.59v.83H41.84v3.66a1.52,1.52,0,0,0,.22.95.92.92,0,0,0,.72.26,1,1,0,0,0,.65-.21Z"/><path class="cls-21" d="M49.91,197.64H49v-1h0A2.05,2.05,0,0,1,47,197.79c-1.51,0-2.26-.9-2.26-2.72v-3.81h.94v3.66c0,1.37.52,2.05,1.55,2.05a1.58,1.58,0,0,0,1.25-.56,2.21,2.21,0,0,0,.48-1.48v-3.67h1Z"/><path class="cls-21" d="M52.18,191.72a3.71,3.71,0,0,1,2.12-.61c1.46,0,2.2.79,2.2,2.36v4.17h-1v-1h0a2.11,2.11,0,0,1-1.94,1.15,2,2,0,0,1-1.47-.5,1.73,1.73,0,0,1-.54-1.34q0-1.77,2.07-2.07l1.91-.28c0-1.1-.44-1.66-1.31-1.66a3,3,0,0,0-2,.8ZM54,194.61a2.39,2.39,0,0,0-1.09.37,1.09,1.09,0,0,0-.35.91,1,1,0,0,0,.34.78,1.28,1.28,0,0,0,.89.3,1.61,1.61,0,0,0,1.26-.55,2,2,0,0,0,.5-1.37v-.64Z"/><path class="cls-21" d="M58.48,197.64V188.2h1v9.44Z"/><path class="cls-21" d="M73.14,197.64H71.92l-4.6-7.21a3.24,3.24,0,0,1-.28-.56h0a11.44,11.44,0,0,1,0,1.22v6.55h-1V188.7h1.28l4.49,7.12.35.59h0a10.78,10.78,0,0,1-.06-1.32V188.7h1Z"/><path class="cls-21" d="M80.43,194.69H76a2.46,2.46,0,0,0,.59,1.69A2,2,0,0,0,78,197a3,3,0,0,0,2-.72v.92a3.54,3.54,0,0,1-2.18.62,2.59,2.59,0,0,1-2.09-.88,3.65,3.65,0,0,1-.75-2.44,3.51,3.51,0,0,1,.83-2.41,2.61,2.61,0,0,1,2-.95,2.32,2.32,0,0,1,1.9.82,3.38,3.38,0,0,1,.67,2.24Zm-1-.85a2.09,2.09,0,0,0-.43-1.4,1.45,1.45,0,0,0-1.17-.5,1.65,1.65,0,0,0-1.23.52,2.42,2.42,0,0,0-.65,1.38Z"/><path class="cls-21" d="M84.91,197.58a1.82,1.82,0,0,1-.92.2c-1.08,0-1.63-.61-1.63-1.85v-3.84H81.27v-.83h1.09v-1.57l1-.31v1.88h1.6v.83h-1.6v3.66a1.59,1.59,0,0,0,.22.95.92.92,0,0,0,.72.26,1.06,1.06,0,0,0,.66-.21Z"/><path class="cls-21" d="M94.2,191.26l-1.89,6.38h-1L90,193a2.43,2.43,0,0,1-.09-.58h0a2.44,2.44,0,0,1-.13.57l-1.43,4.63h-.95l-1.91-6.38h1l1.33,4.84a2.59,2.59,0,0,1,.08.57h0a3.5,3.5,0,0,1,.11-.58l1.48-4.83h.87l1.33,4.85a4.57,4.57,0,0,1,.09.57h0a2.44,2.44,0,0,1,.1-.57l1.31-4.85Z"/><path class="cls-21" d="M95,194.53a3.51,3.51,0,0,1,.86-2.5,3,3,0,0,1,2.33-.92,2.82,2.82,0,0,1,2.18.88,3.52,3.52,0,0,1,.79,2.45,3.41,3.41,0,0,1-.85,2.43,3,3,0,0,1-2.27.92,2.84,2.84,0,0,1-2.2-.89A3.33,3.33,0,0,1,95,194.53Zm1,0a2.68,2.68,0,0,0,.58,1.81,2,2,0,0,0,1.56.67,1.85,1.85,0,0,0,1.54-.65,2.81,2.81,0,0,0,.54-1.85,2.92,2.92,0,0,0-.54-1.88,1.87,1.87,0,0,0-1.54-.66,2,2,0,0,0-1.56.68A2.82,2.82,0,0,0,96,194.49Z"/><path class="cls-21" d="M106.07,192.25a1.21,1.21,0,0,0-.76-.21,1.31,1.31,0,0,0-1.09.64,3,3,0,0,0-.44,1.7v3.26h-1v-6.38h1v1.32h0a2.22,2.22,0,0,1,.65-1.05,1.52,1.52,0,0,1,1-.38,1.69,1.69,0,0,1,.62.09Z"/><path class="cls-21" d="M112.4,197.64h-1.35l-2.84-3.06h0v3.06h-1V188.2h1v6h0l2.7-2.93h1.26l-3,3.09Z"/><path class="cls-21" d="M54.18,65.3H53l-4.48-7.07a3.13,3.13,0,0,1-.27-.55h0a11,11,0,0,1,0,1.2V65.3h-1V56.54h1.25l4.37,7c.2.33.32.52.34.58h0a8.4,8.4,0,0,1-.07-1.3V56.54h1Z"/><path class="cls-21" d="M63.11,65.3h-1l-.93-2.49H57.44l-.87,2.49h-1l3.31-8.76h1Zm-2.3-3.37-1.38-3.79a2.64,2.64,0,0,1-.12-.57h0a2.9,2.9,0,0,1-.14.57l-1.37,3.79Z"/><path class="cls-21" d="M68.54,57.42H66.06V65.3h-1V57.42H62.64v-.88h5.9Z"/><path class="cls-21" d="M4.23,6.41V5.62H8.67V3.29h.86V5.62h5.15v.79Zm5.2,5.47a5.09,5.09,0,0,1-2.71-.6,1.85,1.85,0,0,1-1-1.6,1.82,1.82,0,0,1,1-1.61,5,5,0,0,1,2.71-.61,5,5,0,0,1,2.71.61,1.84,1.84,0,0,1,0,3.21A5,5,0,0,1,9.43,11.88Zm3.72-11c0,1.69-.05,3-.14,3.85l-.84-.07c.07-.84.11-1.83.11-3H6V.93ZM9.43,8.21a4.15,4.15,0,0,0-2,.41A1.19,1.19,0,0,0,6.7,9.68a1.18,1.18,0,0,0,.71,1.05,4.13,4.13,0,0,0,2,.4,4.1,4.1,0,0,0,2-.4,1.18,1.18,0,0,0,.71-1.05,1.19,1.19,0,0,0-.71-1.06A4.15,4.15,0,0,0,9.43,8.21Z"/><path class="cls-21" d="M19,4.56a1.83,1.83,0,0,1-1.15-1.7,1.73,1.73,0,0,1,.93-1.57A5.1,5.1,0,0,1,21.42.73a5.12,5.12,0,0,1,2.65.56A1.74,1.74,0,0,1,25,2.86a1.8,1.8,0,0,1-1.15,1.7V6.19h2.81V7H16.19V6.19H19ZM21.42,12a5.2,5.2,0,0,1-2.69-.57,1.78,1.78,0,0,1,0-3.12,5.16,5.16,0,0,1,2.68-.57,5.19,5.19,0,0,1,2.68.57,1.77,1.77,0,0,1,0,3.12A5.14,5.14,0,0,1,21.42,12Zm0-3.51a4.43,4.43,0,0,0-2,.37,1.14,1.14,0,0,0-.69,1,1.11,1.11,0,0,0,.69,1,4.42,4.42,0,0,0,2,.36,4.48,4.48,0,0,0,2-.36,1.1,1.1,0,0,0,.68-1,1.11,1.11,0,0,0-.68-1A4.46,4.46,0,0,0,21.42,8.5Zm0-7c-1.78,0-2.67.45-2.67,1.37a1.11,1.11,0,0,0,.66,1,4.32,4.32,0,0,0,2,.37,4.38,4.38,0,0,0,2-.37,1.11,1.11,0,0,0,.66-1C24.09,1.94,23.2,1.49,21.42,1.49Zm-1.55,4.7H23V4.85A7.63,7.63,0,0,1,21.42,5a7.62,7.62,0,0,1-1.55-.15Z"/><path class="cls-21" d="M33.69,11h-.94V2.23h.94Z"/><path class="cls-21" d="M36.92,7.67V11H36V2.23H38.3a3.08,3.08,0,0,1,2.11.68,2.49,2.49,0,0,1,.75,1.93,2.65,2.65,0,0,1-.88,2.07,3,3,0,0,1-2.21.76Zm0-4.55V6.77H38a2.4,2.4,0,0,0,1.61-.49,1.77,1.77,0,0,0,.56-1.4c0-1.17-.68-1.76-2-1.76Z"/><path class="cls-21" d="M68.75,11h-.94V2.23h.94Z"/><path class="cls-21" d="M72,7.67V11H71V2.23h2.31a3.08,3.08,0,0,1,2.12.68,2.49,2.49,0,0,1,.75,1.93,2.62,2.62,0,0,1-.89,2.07,3,3,0,0,1-2.2.76Zm0-4.55V6.77h1.08a2.4,2.4,0,0,0,1.61-.49,1.77,1.77,0,0,0,.56-1.4c0-1.17-.68-1.76-2-1.76Z"/><path class="cls-21" d="M87.76,6.49a7.3,7.3,0,0,1-1.52-1.17,4.93,4.93,0,0,1-1.1-1.44,5.89,5.89,0,0,1-1.08,1.59,6.36,6.36,0,0,1-1.6,1.31l-.62-.6a5.48,5.48,0,0,0,2-1.73,3.92,3.92,0,0,0,.81-2.33V1.88H82.21V1.09H88v.79H85.54v.24a3.48,3.48,0,0,0,.84,2.19,5,5,0,0,0,2,1.54Zm-3.83,5.26V7.24h.88V8.82h5.25V7.24h.86v4.51Zm6.13-2.13H84.81V11h5.25Zm0-3V3.93H87.42V3.14h2.63V.58h.87v6Z"/><path class="cls-21" d="M99.32,7.72v4.33h-.89V7.72H93.65V6.93h10.46v.79Zm-4-2.38V1h7.08v.79H96.21V4.55h6.39v.79Z"/><path class="cls-21" d="M111.86,9.15a9,9,0,0,1-1.77-1.85,6.45,6.45,0,0,1-1-1.93,7.15,7.15,0,0,1-1.06,2,9.31,9.31,0,0,1-1.74,1.89l-.67-.6a7,7,0,0,0,2.2-2.43,6.13,6.13,0,0,0,.82-3V1.37h.87V3.21a5.74,5.74,0,0,0,.82,2.92,6.87,6.87,0,0,0,2.19,2.33ZM114.38,6v6h-.87V.58h.87V5.25h2V6Z"/><path class="cls-21" d="M112,147.07a9.39,9.39,0,0,1-1.82-1.89,6.21,6.21,0,0,1-1.08-2,7,7,0,0,1-1.1,2.09,9.14,9.14,0,0,1-1.79,1.91l-.68-.61a7.3,7.3,0,0,0,2.27-2.48,6.27,6.27,0,0,0,.84-3.08v-1.92h.89V141a5.88,5.88,0,0,0,.84,3,7,7,0,0,0,2.26,2.38Zm2.25,3V143h-2.7v-.81h2.7v-3.84h.9V150Z"/><path class="cls-21" d="M117.74,148.08v-.83h10.74v.83Zm1.8-3.27v-5.46h.9v1.87h5.35v-1.87h.9v5.46Zm6.25-2.77h-5.35v2h5.35Z"/><path class="cls-21" d="M135.83,144.21c-1.12.12-2.7.18-4.76.18v-5.3H132v4.52a29.44,29.44,0,0,0,3.8-.18Zm4.17,5.57a6.51,6.51,0,0,1-2.35-1.1,5.64,5.64,0,0,1-1.7-1.77,4.89,4.89,0,0,1-1.59,1.74,6.57,6.57,0,0,1-2.4,1.13l-.57-.78a5.37,5.37,0,0,0,2.84-1.33,3.07,3.07,0,0,0,1.28-2.16v-.28h.89v.26a3,3,0,0,0,1.26,2.16,5.4,5.4,0,0,0,2.86,1.35Zm-3.27-4.46v-3.56h-2.66V141h2.66v-2.41h.88v6.77Zm2.1.85v-7.84h.88v7.84Z"/><path class="cls-21" d="M150.58,142.4a1.67,1.67,0,0,0-.46-1.26,1.75,1.75,0,0,0-1.25-.46,2.41,2.41,0,0,0-1.1.29,3.56,3.56,0,0,0-1,.79v-1a3,3,0,0,1,2.22-.86,2.54,2.54,0,0,1,1.83.66,2.38,2.38,0,0,1,.69,1.79,3.13,3.13,0,0,1-.44,1.69,5.62,5.62,0,0,1-1.51,1.5,14.35,14.35,0,0,0-1.4,1.09,2.33,2.33,0,0,0-.55.7,1.73,1.73,0,0,0-.16.78h4.28V149h-5.3v-.44a3.52,3.52,0,0,1,.2-1.25,3.14,3.14,0,0,1,.68-1,10.54,10.54,0,0,1,1.5-1.22,5.13,5.13,0,0,0,1.36-1.26A2.3,2.3,0,0,0,150.58,142.4Z"/></g></svg>