<svg xmlns="http://www.w3.org/2000/svg" xmlns:xlink="http://www.w3.org/1999/xlink" viewBox="0 0 221 285.86"><defs><style>.cls-1{fill:#fff;}.cls-2,.cls-3{fill:#3c3c41;}.cls-3{opacity:0.2;}.cls-25,.cls-29,.cls-3{isolation:isolate;}.cls-4{fill:#ccc;fill-opacity:0.3;}.cls-5{fill:url(#Degradado_sin_nombre);}.cls-6{fill:#50e6ff;}.cls-7{fill:#c3f1ff;}.cls-8{fill:#9cebff;}.cls-9{fill:url(#Degradado_sin_nombre_2);}.cls-10{fill:url(#Degradado_sin_nombre_3);}.cls-11{fill:url(#Degradado_sin_nombre_4);}.cls-12{fill:#005ba1;}.cls-13{fill:#0078d4;}.cls-14{fill:url(#Degradado_sin_nombre_5);}.cls-15{fill:url(#Degradado_sin_nombre_6);}.cls-16{fill:url(#Degradado_sin_nombre_7);}.cls-17{fill:url(#Degradado_sin_nombre_8);}.cls-18,.cls-19,.cls-20,.cls-26,.cls-28{fill:none;stroke-miterlimit:10;}.cls-18,.cls-19,.cls-20{stroke:#3c3c41;}.cls-19,.cls-28{stroke-dasharray:1.46 2.43;}.cls-20{stroke-dasharray:1.31 2.19;}.cls-21{fill:url(#Degradado_sin_nombre_9);}.cls-22{fill:url(#Degradado_sin_nombre_10);}.cls-23{fill:url(#Degradado_sin_nombre_11);}.cls-24{fill:#1490df;}.cls-25{fill:#83b9f9;}.cls-25,.cls-29{opacity:0.4;}.cls-26,.cls-28{stroke:#003067;}.cls-27{fill:#003067;}.cls-29,.cls-30{fill:#6ebcdb;}.cls-31{fill:#5db4d7;}.cls-32{fill:#e6e6e6;}.cls-33{fill:#86d633;}.cls-34{fill:#1e1e1e;}.cls-35{fill:#767676;}</style><linearGradient id="Degradado_sin_nombre" x1="37.07" y1="418.22" x2="37.07" y2="399.46" gradientTransform="translate(0 -276.6)" gradientUnits="userSpaceOnUse"><stop offset="0" stop-color="#0078d4"/><stop offset="0.82" stop-color="#5ea0ef"/></linearGradient><linearGradient id="Degradado_sin_nombre_2" x1="37.05" y1="425.46" x2="37.05" y2="418.22" gradientTransform="translate(0 -276.6)" gradientUnits="userSpaceOnUse"><stop offset="0.15" stop-color="#ccc"/><stop offset="1" stop-color="#707070"/></linearGradient><linearGradient id="Degradado_sin_nombre_3" x1="77.43" y1="418.22" x2="77.43" y2="399.46" xlink:href="#Degradado_sin_nombre"/><linearGradient id="Degradado_sin_nombre_4" x1="77.43" y1="425.46" x2="77.43" y2="418.22" xlink:href="#Degradado_sin_nombre_2"/><linearGradient id="Degradado_sin_nombre_5" x1="188.87" y1="421.46" x2="188.87" y2="411.12" xlink:href="#Degradado_sin_nombre"/><linearGradient id="Degradado_sin_nombre_6" x1="188.94" y1="425.46" x2="188.94" y2="421.46" xlink:href="#Degradado_sin_nombre_2"/><linearGradient id="Degradado_sin_nombre_7" x1="141.17" y1="418.22" x2="141.17" y2="399.46" xlink:href="#Degradado_sin_nombre"/><linearGradient id="Degradado_sin_nombre_8" x1="141.17" y1="425.46" x2="141.17" y2="418.22" xlink:href="#Degradado_sin_nombre_2"/><linearGradient id="Degradado_sin_nombre_9" x1="23.52" y1="477.64" x2="25.89" y2="480.01" gradientTransform="translate(2.88 -278.01)" gradientUnits="userSpaceOnUse"><stop offset="0" stop-color="#86d633"/><stop offset="0.24" stop-color="#83d232"/><stop offset="0.5" stop-color="#7cc52f"/><stop offset="0.76" stop-color="#6fb02a"/><stop offset="1" stop-color="#5e9624"/></linearGradient><linearGradient id="Degradado_sin_nombre_10" x1="18.18" y1="477.64" x2="20.53" y2="480.01" xlink:href="#Degradado_sin_nombre_9"/><linearGradient id="Degradado_sin_nombre_11" x1="12.83" y1="477.64" x2="15.19" y2="480.01" xlink:href="#Degradado_sin_nombre_9"/></defs><title>OJ104903192</title><g id="Target"><g id="Shapes"><rect class="cls-1" width="221" height="285.86"/><path class="cls-2" d="M214.34,201.17h-1v-1h1Zm-3,0h-1v-1h1Zm-3,0h-1v-1h1Zm-3,0h-1v-1h1Zm-3,0h-1v-1h1Zm-3,0h-1v-1h1Zm-3,0h-1v-1h1Zm-3,0h-1v-1h1Zm-3,0h-1v-1h1Zm-3,0h-1v-1h1Zm-3,0h-1v-1h1Zm-3,0h-1v-1h1Zm-3,0h-1v-1h1Zm-3,0h-1v-1h1Zm-3,0h-1v-1h1Zm-3,0h-1v-1h1Zm-3,0h-1v-1h1Zm-3,0h-1v-1h1Zm-3,0h-1v-1h1Zm-3,0h-1v-1h1Zm-3,0h-1v-1h1Zm-3,0h-1v-1h1Zm-3,0h-1v-1h1Zm-3,0h-1v-1h1Zm-3,0h-1v-1h1Zm-3,0h-1v-1h1Zm-3,0h-1v-1h1Zm-3,0h-1v-1h1Zm-3,0h-1v-1h1Zm-3,0h-1v-1h1Zm-3,0h-1v-1h1Zm-3,0h-1v-1h1Zm-3,0h-1v-1h1Zm-3,0h-1v-1h1Zm-3,0h-1v-1h1Zm-3,0h-1v-1h1Zm-3,0h-1v-1h1Zm-3,0h-1v-1h1Zm-3,0h-1v-1h1Zm-3,0h-1v-1h1Zm-3,0h-1v-1h1Zm-3,0h-1v-1h1Zm-3,0h-1v-1h1Zm-3,0h-1v-1h1Zm-3,0h-1v-1h1Zm-3,0h-1v-1h1Zm-3,0h-1v-1h1Zm-3,0h-1v-1h1Zm-3,0h-1v-1h1Zm-3,0h-1v-1h1Zm-3,0h-1v-1h1Zm-3,0h-1v-1h1Zm-3,0h-1v-1h1Zm-3,0H54v-1h1Zm-3,0H51v-1h1Zm-3,0H48v-1h1Zm-3,0H45v-1h1Zm-3,0H42v-1h1Zm-3,0H39v-1h1Zm-3,0H36v-1h1Zm-30,0H6v-1H7Zm209.46-.08-.17-1a4.29,4.29,0,0,0,.87-.23l.36.93a5.86,5.86,0,0,1-1.44.3Zm-213-.19a5.91,5.91,0,0,1-1-.43l.49-.88a4,4,0,0,0,.82.36Zm215.5-1.29-.69-.71a4.82,4.82,0,0,0,.58-.69l.82.57A5.65,5.65,0,0,1,219.32,199.61ZM1.16,199a5.71,5.71,0,0,1-.59-.94l.9-.44a3.75,3.75,0,0,0,.48.76Zm219.73-2.28-1-.2a4.41,4.41,0,0,0,.09-.89l1-.06v.06a5.33,5.33,0,0,1-.09,1.13ZM0,196v-1H1v1Zm221-2.38h-1v-1h1ZM1,193H0v-1H1Zm220-2.35h-1v-1h1ZM1,190H0v-1H1Zm220-2.36h-1v-1h1Zm-220-.7H0v-1H1Zm220-2.35h-1v-1h1ZM1,183.94H0v-1H1Zm220-2.36h-1v-1h1ZM1,180.93H0v-1H1Zm220-2.35h-1v-1h1ZM1,177.93H0v-1H1Zm220-2.36h-1v-1h1ZM1,174.92H0v-1H1Zm220-2.35h-1v-1h1ZM1,171.92H0v-1H1Zm220-2.36h-1v-1h1ZM1,168.91H0v-1H1Zm220-2.35h-1v-1h1ZM1,165.9H0v-1H1Zm220-2.35h-1v-1h1ZM1,162.9H0v-1H1Zm220-2.35h-1v-1h1ZM1,159.89H0v-1H1Zm220-2.35h-1v-1h1ZM1,156.89H0v-1H1Zm220-2.36h-1v-1h1ZM1,153.88H0v-1H1Zm220-2.35h-1v-1h1ZM1,150.88H0v-1H1Zm220-2.36h-1v-1h1ZM1,147.87H0v-1H1Zm220-2.35h-1v-1h1ZM1,144.87H0v-1H1Zm220-2.36h-1v-1h1ZM1,141.86H0v-1H1Zm220-2.35h-1v-1h1ZM1,138.86H0v-1H1Zm220-2.36h-1v-1h1ZM1,135.85H0v-1H1Zm220-2.35h-1v-1h1ZM1,132.85H0v-1H1Zm220-2.36h-1v-1h1ZM1,129.84H0v-1H1Zm220-2.36h-1v-1h1ZM1,126.83H0v-1H1Zm220-2.35h-1v-1h1ZM1,123.83H0v-1H1Zm220-2.36h-1v-1h1ZM1,120.82H0v-1H1Zm220-2.35h-1v-1h1ZM1,117.82H0v-1H1Zm220-2.36h-1v-1h1ZM1,114.81H0v-1H1Zm220-2.35h-1v-1h1ZM1,111.81H0v-1H1Zm220-2.36h-1v-1h1ZM1,108.8H0v-1H1Zm220-2.35h-1v-1h1ZM1,105.8H0v-1H1Zm220-2.36h-1v-1h1ZM1,102.79H0v-1H1Zm220-2.35h-1v-1h1ZM1,99.78H0v-1H1Zm220-2.35h-1v-1h1ZM1,96.78H0v-1H1Zm220-2.36h-1v-1h1ZM1,93.77H0v-1H1Zm220-2.35h-1v-1h1ZM1,90.77H0v-1H1Zm220-2.36h-1v-1h1ZM1,87.76H0v-1H1Zm220-2.35h-1v-1h1ZM1,84.76H0v-1H1ZM221,82.4h-1v-1h1ZM1,81.75H0v-1H1ZM221,79.4h-1v-1h1ZM1,78.75H0v-1H1Zm220-2.36h-1v-1h1ZM1,75.74H0v-1H1Zm220-2.35h-1v-1h1ZM1,72.73H0v-1H1Zm220-2.35h-1v-1h1ZM1,69.73H0v-1H1Zm220-2.35h-1v-1h1ZM1,66.72H0v-1H1Zm220-2.35h-1v-1h1ZM1,63.72H0v-1H1Zm220-2.36h-1v-1h1ZM1,60.71H0v-1H1Zm220-2.35h-1v-1h1ZM1,57.71H0v-1H1Zm220-2.36h-1v-1h1ZM1,54.7H0v-1H1Zm220-2.35h-1v-.68a1.41,1.41,0,0,0,0-.29l1-.07v1ZM0,51.7H0a5.77,5.77,0,0,1,.1-1.1l1,.2a5.12,5.12,0,0,0-.08.87Zm219.52-2.05a5.41,5.41,0,0,0-.48-.76l.78-.62a5,5,0,0,1,.59.93ZM1.78,49.15,1,48.59a5.25,5.25,0,0,1,.71-.85l.7.72A4.57,4.57,0,0,0,1.78,49.15Zm215.89-1.42a4.09,4.09,0,0,0-.83-.36l.31-.95a5.91,5.91,0,0,1,1,.43ZM3.86,47.48l-.37-.93a4.92,4.92,0,0,1,1.06-.3l.17,1A5.2,5.2,0,0,0,3.86,47.48ZM215,47.17h-1v-1h1Zm-3,0h-1v-1h1Zm-3,0h-1v-1h1Zm-3,0h-1v-1h1Zm-3,0h-1v-1h1Zm-3,0h-1v-1h1Zm-3,0h-1v-1h1Zm-3,0h-1v-1h1Zm-3,0h-1v-1h1Zm-3,0h-1v-1h1Zm-3,0h-1v-1h1Zm-3,0h-1v-1h1Zm-3,0h-1v-1h1Zm-3,0h-1v-1h1Zm-3,0h-1v-1h1Zm-3,0h-1v-1h1Zm-3,0h-1v-1h1Zm-3,0h-1v-1h1Zm-3,0h-1v-1h1Zm-3,0h-1v-1h1Zm-3,0h-1v-1h1Zm-27,0h-1v-1h1Zm-3,0h-1v-1h1Zm-3,0h-1v-1h1Zm-3,0h-1v-1h1Zm-3,0h-1v-1h1Zm-3,0h-1v-1h1Zm-3,0h-1v-1h1Zm-3,0h-1v-1h1Zm-3,0h-1v-1h1Zm-3,0h-1v-1h1Zm-3,0H97v-1h1Zm-3,0H94v-1h1Zm-3,0H91v-1h1Zm-3,0H88v-1h1Zm-3,0H85v-1h1Zm-3,0H82v-1h1Zm-3,0H79v-1h1Zm-3,0H76v-1h1Zm-3,0H73v-1h1Zm-3,0H70v-1h1Zm-3,0H67v-1h1Zm-3,0H64v-1h1Zm-3,0H61v-1h1Zm-3,0H58v-1h1Zm-3,0H55v-1h1Zm-3,0H52v-1h1Zm-3,0H49v-1h1Zm-3,0H46v-1h1Zm-3,0H43v-1h1Zm-3,0H40v-1h1Zm-3,0H37v-1h1Zm-3,0H34v-1h1Zm-3,0H31v-1h1Zm-3,0H28v-1h1Zm-3,0H25v-1h1Zm-3,0H22v-1h1Zm-3,0H19v-1h1Zm-3,0H16v-1h1Zm-3,0H13v-1h1Zm-3,0H10v-1h1Zm-3,0H7v-1H8Z"/><rect class="cls-1" x="10" y="90.86" width="95" height="95" rx="0.3"/><rect class="cls-3" x="10" y="90.86" width="95" height="95" rx="0.3"/><rect class="cls-4" x="65" y="210.86" width="155" height="35"/><rect class="cls-4" x="65" y="250.86" width="155" height="35"/><rect class="cls-5" x="23" y="122.86" width="28.14" height="18.76" rx="0.94"/><polygon class="cls-6" points="41.76 129.5 41.76 134.96 37.07 137.71 37.07 132.24 41.76 129.5"/><polygon class="cls-7" points="41.76 129.5 37.07 132.25 32.38 129.5 37.07 126.76 41.76 129.5"/><polygon class="cls-8" points="37.07 132.25 37.07 137.71 32.38 134.96 32.38 129.5 37.07 132.25"/><polygon class="cls-7" points="32.38 134.96 37.07 132.24 37.07 137.71 32.38 134.96"/><polygon class="cls-8" points="41.76 134.96 37.07 132.24 37.07 137.71 41.76 134.96"/><path class="cls-9" d="M42.71,147.29c-2.78-.44-2.89-2.44-2.89-5.67H34.3c0,3.23-.09,5.23-2.87,5.67A1.56,1.56,0,0,0,30,148.86H44.11A1.58,1.58,0,0,0,42.71,147.29Z"/><rect class="cls-10" x="63.36" y="122.86" width="28.14" height="18.76" rx="0.94"/><polygon class="cls-6" points="82.12 129.5 82.12 134.96 77.43 137.71 77.43 132.24 82.12 129.5"/><polygon class="cls-7" points="82.12 129.5 77.43 132.25 72.74 129.5 77.43 126.76 82.12 129.5"/><polygon class="cls-8" points="77.43 132.25 77.43 137.71 72.74 134.96 72.74 129.5 77.43 132.25"/><polygon class="cls-7" points="72.74 134.96 77.43 132.24 77.43 137.71 72.74 134.96"/><polygon class="cls-8" points="82.12 134.96 77.43 132.24 77.43 137.71 82.12 134.96"/><path class="cls-11" d="M83.07,147.29c-2.78-.44-2.89-2.44-2.89-5.67H74.66c0,3.23-.09,5.23-2.88,5.67a1.56,1.56,0,0,0-1.39,1.57H84.46A1.56,1.56,0,0,0,83.07,147.29Z"/><rect class="cls-1" x="115" y="90.86" width="95" height="95"/><rect class="cls-3" x="115" y="90.86" width="95" height="95"/><rect class="cls-12" x="170.6" y="122.86" width="15.46" height="10.32" rx="0.52"/><polygon class="cls-6" points="180.91 126.51 180.91 129.52 178.34 131.02 178.34 128.03 180.91 126.51"/><polygon class="cls-7" points="180.91 126.51 178.34 128.03 175.75 126.51 178.34 125 180.91 126.51"/><polygon class="cls-8" points="178.34 128.03 178.34 131.02 175.75 129.52 175.75 126.51 178.34 128.03"/><rect class="cls-13" x="176.67" y="128.77" width="15.46" height="10.32" rx="0.52"/><polygon class="cls-6" points="186.98 132.44 186.98 135.44 184.41 136.96 184.41 133.94 186.98 132.44"/><polygon class="cls-7" points="186.98 132.44 184.41 133.94 181.82 132.44 184.41 130.93 186.98 132.44"/><polygon class="cls-8" points="184.41 133.94 184.41 136.96 181.82 135.44 181.82 132.44 184.41 133.94"/><rect class="cls-14" x="181.14" y="134.52" width="15.46" height="10.32" rx="0.52"/><polygon class="cls-6" points="191.44 138.19 191.44 141.19 188.88 142.71 188.88 139.69 191.44 138.19"/><polygon class="cls-7" points="191.44 138.19 188.88 139.71 186.29 138.19 188.88 136.68 191.44 138.19"/><polygon class="cls-8" points="188.88 139.71 188.88 142.71 186.29 141.19 186.29 138.19 188.88 139.71"/><polygon class="cls-7" points="186.29 141.19 188.88 139.69 188.88 142.71 186.29 141.19"/><polygon class="cls-8" points="191.44 141.19 188.88 139.69 188.88 142.71 191.44 141.19"/><path class="cls-15" d="M192,148c-1.52-.24-1.52-1.34-1.52-3.06h-3.06c0,1.78,0,2.88-1.53,3.06a.91.91,0,0,0-.77.88h7.65A.91.91,0,0,0,192,148Z"/><rect class="cls-16" x="127.1" y="122.86" width="28.14" height="18.76" rx="0.94"/><polygon class="cls-6" points="145.86 129.5 145.86 134.96 141.17 137.71 141.17 132.24 145.86 129.5"/><polygon class="cls-7" points="145.86 129.5 141.17 132.25 136.48 129.5 141.17 126.76 145.86 129.5"/><polygon class="cls-8" points="141.17 132.25 141.17 137.71 136.48 134.96 136.48 129.5 141.17 132.25"/><polygon class="cls-7" points="136.48 134.96 141.17 132.24 141.17 137.71 136.48 134.96"/><polygon class="cls-8" points="145.86 134.96 141.17 132.24 141.17 137.71 145.86 134.96"/><path class="cls-17" d="M146.81,147.29c-2.78-.44-2.89-2.44-2.89-5.67H138.4c0,3.23-.09,5.23-2.87,5.67a1.58,1.58,0,0,0-1.4,1.57h14.08A1.58,1.58,0,0,0,146.81,147.29Z"/><line class="cls-18" x1="90.37" y1="90.71" x2="90.37" y2="63.64"/><line class="cls-18" x1="82.84" y1="85.18" x2="82.84" y2="73.48"/><polygon class="cls-2" points="85.83 74.36 82.84 69.18 79.85 74.36 85.83 74.36"/><line class="cls-18" x1="97.89" y1="80.87" x2="97.89" y2="80.12"/><line class="cls-19" x1="97.89" y1="77.69" x2="97.89" y2="71.14"/><line class="cls-18" x1="97.89" y1="69.93" x2="97.89" y2="69.18"/><polygon class="cls-2" points="100.88 80 97.89 85.18 94.9 80 100.88 80"/><line class="cls-18" x1="129.52" y1="90.71" x2="129.52" y2="63.64"/><line class="cls-18" x1="122" y1="85.18" x2="122" y2="73.48"/><polygon class="cls-2" points="124.99 74.36 122 69.18 119.01 74.36 124.99 74.36"/><line class="cls-18" x1="137.05" y1="80.87" x2="137.05" y2="80.12"/><line class="cls-19" x1="137.05" y1="77.69" x2="137.05" y2="71.14"/><line class="cls-18" x1="137.05" y1="69.93" x2="137.05" y2="69.18"/><polygon class="cls-2" points="140.04 80 137.05 85.18 134.06 80 140.04 80"/><line class="cls-18" x1="109.7" y1="38.29" x2="109.7" y2="18.79"/><line class="cls-18" x1="74.31" y1="220.86" x2="85.43" y2="220.86"/><polygon class="cls-2" points="75.18 223.85 70 220.85 75.18 217.86 75.18 223.85"/><line class="cls-18" x1="80.69" y1="260.86" x2="79.94" y2="260.86"/><line class="cls-20" x1="77.75" y1="260.86" x2="71.84" y2="260.86"/><line class="cls-18" x1="70.75" y1="260.86" x2="70" y2="260.86"/><polygon class="cls-2" points="79.82 257.86 85 260.86 79.82 263.85 79.82 257.86"/><path class="cls-18" d="M105.83,41,65.74,29.61a4.21,4.21,0,0,1-2.89-3.82v-7"/><path class="cls-18" d="M114,41l43.3-11.45a4.1,4.1,0,0,0,2.9-3.76v-7"/><circle class="cls-21" cx="27.4" cy="200.63" r="1.67"/><circle class="cls-22" cx="22.06" cy="200.64" r="1.67"/><circle class="cls-23" cx="16.72" cy="200.64" r="1.67"/><path class="cls-6" d="M17.93,207.34l-1,1a.43.43,0,0,1-.61,0h0l-7.09-7.08a.88.88,0,0,1,0-1.22h0l1-1h0l7.71,7.69a.43.43,0,0,1,0,.61h0Z"/><path class="cls-24" d="M16.83,193l1,1a.43.43,0,0,1,0,.61h0l-7.57,7.6h0l-1-1a.88.88,0,0,1,0-1.22h0l7-7A.43.43,0,0,1,16.83,193Z"/><path class="cls-6" d="M33.78,199l1,1a.86.86,0,0,1,0,1.22h0l-7.1,7.08a.43.43,0,0,1-.61,0h0l-1-1a.44.44,0,0,1,0-.62h0Z"/><path class="cls-24" d="M34.74,201.2l-1,1h0l-7.57-7.6a.43.43,0,0,1,0-.61h0l1-1a.43.43,0,0,1,.61,0h0l7,7a.88.88,0,0,1,0,1.22h0Z"/><rect class="cls-1" x="45.35" width="35" height="20.86"/><rect class="cls-3" x="45.35" width="35" height="20.86"/><rect class="cls-1" x="92.7" width="35" height="20.86"/><rect class="cls-3" x="92.7" width="35" height="20.86"/><rect class="cls-1" x="137.7" width="45" height="20.86"/><rect class="cls-3" x="137.7" width="45" height="20.86"/><rect class="cls-1" x="13.69" width="23.5" height="20.86"/><rect class="cls-25" x="13.69" width="23.5" height="20.86"/><line class="cls-26" x1="24.92" y1="90.71" x2="24.92" y2="21.02"/><line class="cls-26" x1="18.04" y1="80.44" x2="18.04" y2="68.74"/><polygon class="cls-27" points="21.03 79.56 18.04 84.75 15.05 79.56 21.03 79.56"/><line class="cls-26" x1="31.8" y1="84.74" x2="31.8" y2="83.99"/><line class="cls-28" x1="31.8" y1="81.57" x2="31.8" y2="75.01"/><line class="cls-26" x1="31.8" y1="73.8" x2="31.8" y2="73.05"/><polygon class="cls-27" points="34.79 73.93 31.8 68.75 28.8 73.93 34.79 73.93"/><rect class="cls-1" x="74.82" y="53.67" width="70" height="10"/><rect class="cls-29" x="74.82" y="53.67" width="70" height="10"/><g id="ad94e297-0e86-4eaf-aac0-d146ee9aea65"><path class="cls-30" d="M105.75,54l-4.68-4.84a2.28,2.28,0,0,1-.78.13A2.43,2.43,0,1,1,102.53,46h4.62v1.62H102.6a3.68,3.68,0,0,1-.26.57l4.33,4.46L109,49.07V37.89h-3.15l4-4,3.94,4h-3.15v8.74l5.93-9.05-6-6a1,1,0,0,0-1.41,0l0,0h0L94.64,46.06a1,1,0,0,0,0,1.41l0,.05h0L109.11,62l-5.17-5.17Z"/><path class="cls-31" d="M109,54.22V49.05l-2.34,3.59,1.72,1.84A2,2,0,0,1,109,54.22Z"/><path class="cls-31" d="M125,46.06l-8.47-8.48-5.93,9.05v7.61a2.1,2.1,0,0,1,.53.29l6.22-6.28a3.15,3.15,0,0,1-.31-.64H112.4V46h4.74a2.41,2.41,0,1,1,2.24,3.32,2.53,2.53,0,0,1-.67-.1l-6.62,6.67a2.18,2.18,0,0,1,.11.62,2.43,2.43,0,0,1-4.86.19,2.5,2.5,0,0,1,.14-.9l-1.73-1.72-1.84,2.76L109.08,62a1,1,0,0,0,1.41,0l0,0L125,47.52a1,1,0,0,0,0-1.41Z"/><path class="cls-32" d="M117.14,46H112.4v1.62h4.67a3,3,0,0,1-.12-.73A2.26,2.26,0,0,1,117.14,46Z"/><path class="cls-32" d="M102.6,47.61h4.55V46h-4.62a2.09,2.09,0,0,1,.19.89A2.22,2.22,0,0,1,102.6,47.61Z"/><path class="cls-32" d="M112.09,55.88l6.62-6.67a2.43,2.43,0,0,1-1.33-1l-6.22,6.28A2.24,2.24,0,0,1,112.09,55.88Z"/><path class="cls-32" d="M108.44,54.48l-1.72-1.84-4.38-4.46a2.51,2.51,0,0,1-1.27,1L105.75,54l1.73,1.72A2.37,2.37,0,0,1,108.44,54.48Z"/><path class="cls-1" d="M113.76,37.89l-3.92-4-4,4H109V54.22a1.73,1.73,0,0,0-.57.26,2.41,2.41,0,1,0,3.65,2.71,2.31,2.31,0,0,0,.11-.69,2.18,2.18,0,0,0-.11-.62,2.26,2.26,0,0,0-.93-1.35,2.1,2.1,0,0,0-.53-.29V37.89Zm-3.92,20a1.35,1.35,0,1,1,1.34-1.36v0h0a1.34,1.34,0,0,1-1.34,1.29Z"/><path class="cls-1" d="M102.34,48.18a3.68,3.68,0,0,0,.26-.57,2.28,2.28,0,0,0,.12-.73,2.09,2.09,0,0,0-.19-.89,2.41,2.41,0,1,0-2.24,3.32,2.28,2.28,0,0,0,.78-.13A2.51,2.51,0,0,0,102.34,48.18Zm-2,0a1.35,1.35,0,1,1,1.35-1.35h0a1.36,1.36,0,0,1-1.3,1.4h0Z"/><path class="cls-1" d="M118.71,49.21a2.53,2.53,0,0,0,.67.1A2.43,2.43,0,1,0,117.14,46a2.26,2.26,0,0,0-.19.89,3,3,0,0,0,.12.73,3.15,3.15,0,0,0,.31.64A2.46,2.46,0,0,0,118.71,49.21Zm.67-3.65a1.34,1.34,0,0,1,0,2.67,1.34,1.34,0,1,1-.3-2.67A1.5,1.5,0,0,1,119.38,45.56Z"/><path class="cls-33" d="M109.84,55.15a1.35,1.35,0,1,0,1.34,1.36h0A1.36,1.36,0,0,0,109.84,55.15Z"/><circle class="cls-33" cx="100.29" cy="46.88" r="1.34"/><path class="cls-33" d="M119.38,48.23A1.35,1.35,0,1,0,118,46.88h0a1.34,1.34,0,0,0,1.33,1.35Z"/></g></g></g><g id="Text"><path class="cls-34" d="M139.46,157.14l-3.22,8.76h-1l-3.15-8.76h1.06l2.44,7a4.66,4.66,0,0,1,.17.77h0a3.67,3.67,0,0,1,.19-.78l2.49-7Z"/><path class="cls-34" d="M148.49,165.9V160c0-.46,0-1,.09-1.69h0a5.11,5.11,0,0,1-.25.83l-3,6.78h-.43l-3-6.73a5.07,5.07,0,0,1-.25-.88h0c0,.22.05.78.05,1.67v5.94h-.92v-8.76h1.24l2.7,6.17a8.86,8.86,0,0,1,.41,1h0c.06-.17.2-.52.43-1.07l2.77-6.14h1.17v8.76Z"/><path class="cls-34" d="M75.55,157.14l-3.23,8.76h-1l-3.15-8.76H69.2l2.43,7a4.66,4.66,0,0,1,.17.77h0a4.4,4.4,0,0,1,.19-.78l2.5-7Z"/><path class="cls-34" d="M84.57,165.9V160c0-.46,0-1,.09-1.69h0a4.26,4.26,0,0,1-.25.83l-3,6.78h-.43l-3-6.73a4.44,4.44,0,0,1-.24-.88h0c0,.22,0,.78,0,1.67v5.94h-.92v-8.76H78l2.71,6.17a8.26,8.26,0,0,1,.4,1h0c.06-.17.2-.52.42-1.07l2.77-6.14h1.17v8.76Z"/><path class="cls-34" d="M33.74,157.14l-3.23,8.76h-1l-3.15-8.76h1.06l2.44,7a4.66,4.66,0,0,1,.17.77h0a4.4,4.4,0,0,1,.19-.78l2.5-7Z"/><path class="cls-34" d="M42.76,165.9V160c0-.46,0-1,.09-1.69h0a5.11,5.11,0,0,1-.25.83l-3,6.78h-.43l-3-6.73a4.44,4.44,0,0,1-.24-.88h0c0,.22,0,.78,0,1.67v5.94H35v-8.76H36.2l2.71,6.17a8.26,8.26,0,0,1,.4,1h0c.06-.17.2-.52.42-1.07l2.77-6.14h1.17v8.76Z"/><path class="cls-34" d="M175.4,157.14l-3.22,8.76h-1L168,157.14h1.07l2.43,7a3.25,3.25,0,0,1,.17.77h0a4.48,4.48,0,0,1,.2-.78l2.49-7Z"/><path class="cls-34" d="M184.43,165.9V160c0-.46,0-1,.09-1.69h0a4.9,4.9,0,0,1-.26.83l-3,6.78h-.43l-3-6.73a5.07,5.07,0,0,1-.25-.88h0c0,.22.05.78.05,1.67v5.94h-.93v-8.76h1.24l2.71,6.17c.22.5.35.85.41,1h0c.06-.17.2-.52.42-1.07l2.78-6.14h1.17v8.76Z"/><path class="cls-34" d="M187.23,164.38a2.92,2.92,0,0,0,1.07.57,4.18,4.18,0,0,0,1.24.21c1.26,0,1.89-.46,1.89-1.39a1.27,1.27,0,0,0-.19-.7,2.14,2.14,0,0,0-.52-.52c-.21-.14-.65-.39-1.32-.74a6,6,0,0,1-1.69-1.16,2,2,0,0,1-.47-1.34,2,2,0,0,1,.86-1.69,3.49,3.49,0,0,1,2.13-.63,4.06,4.06,0,0,1,1.83.31v1.12a3.27,3.27,0,0,0-2-.53,2.3,2.3,0,0,0-1.34.35,1.13,1.13,0,0,0-.52,1,1.23,1.23,0,0,0,.37.93,6.73,6.73,0,0,0,1.52.94,5.45,5.45,0,0,1,1.83,1.29,2.11,2.11,0,0,1,.47,1.31,2,2,0,0,1-.81,1.74,3.67,3.67,0,0,1-2.25.61,5.57,5.57,0,0,1-1.14-.15,2.82,2.82,0,0,1-1-.36Z"/><path class="cls-34" d="M193.73,164.38a3.09,3.09,0,0,0,1.07.57,4.25,4.25,0,0,0,1.25.21c1.26,0,1.89-.46,1.89-1.39a1.27,1.27,0,0,0-.2-.7,1.94,1.94,0,0,0-.51-.52c-.22-.14-.66-.39-1.33-.74a5.81,5.81,0,0,1-1.68-1.16,1.91,1.91,0,0,1-.48-1.34,2,2,0,0,1,.86-1.69,3.53,3.53,0,0,1,2.13-.63,4.08,4.08,0,0,1,1.84.31v1.12a3.31,3.31,0,0,0-2-.53,2.34,2.34,0,0,0-1.35.35,1.16,1.16,0,0,0-.52,1,1.27,1.27,0,0,0,.37.93,6.86,6.86,0,0,0,1.53.94,5.28,5.28,0,0,1,1.82,1.29,2.11,2.11,0,0,1,.47,1.31,2,2,0,0,1-.81,1.74,3.65,3.65,0,0,1-2.25.61,5.57,5.57,0,0,1-1.14-.15,2.9,2.9,0,0,1-1-.36Z"/><path class="cls-34" d="M148.89,9.73a7.53,7.53,0,0,1-1.53-1.16,4.8,4.8,0,0,1-1.09-1.41,6.28,6.28,0,0,1-1.09,1.56,6.48,6.48,0,0,1-1.6,1.29L143,9.42a5.58,5.58,0,0,0,2-1.7,3.84,3.84,0,0,0,.81-2.3V5.19h-2.48V4.41h5.81v.78h-2.48v.23a3.35,3.35,0,0,0,.85,2.16,4.91,4.91,0,0,0,2,1.51Zm-3.84,5.17V10.46h.88V12h5.27V10.46h.86V14.9Zm6.15-2.1h-5.27v1.33h5.27Zm0-3V7.21h-2.64V6.43h2.64V3.91h.87V9.85Z"/><path class="cls-34" d="M160.49,10.94V15.2h-.89V10.94h-4.8v-.78h10.49v.78Zm-4-2.35V4.32h7.1V5.1h-6.23V7.81h6.41v.78Z"/><path class="cls-34" d="M173.06,12.35a9.3,9.3,0,0,1-1.77-1.82,6.69,6.69,0,0,1-1.06-1.91,7,7,0,0,1-1,2,9.21,9.21,0,0,1-1.76,1.86l-.67-.59A7,7,0,0,0,169,9.51a6,6,0,0,0,.83-3V4.69h.87V6.5a5.57,5.57,0,0,0,.82,2.87,6.69,6.69,0,0,0,2.2,2.29Zm2.53-3.07v5.93h-.87V3.91h.87V8.5h2v.78Z"/><path class="cls-34" d="M103.83,10.88v3.28h-1V5.53h2.33a3.13,3.13,0,0,1,2.12.67,2.43,2.43,0,0,1,.76,1.9,2.59,2.59,0,0,1-.89,2,3.06,3.06,0,0,1-2.22.74Zm0-4.47V10h1.08a2.41,2.41,0,0,0,1.62-.48,1.73,1.73,0,0,0,.56-1.38c0-1.15-.68-1.73-2-1.73Z"/><path class="cls-34" d="M110.68,14.16h-.94V5.53h.94Z"/><path class="cls-34" d="M113.92,10.88v3.28h-1V5.53h2.33a3.13,3.13,0,0,1,2.12.67,2.43,2.43,0,0,1,.76,1.9,2.59,2.59,0,0,1-.89,2,3.06,3.06,0,0,1-2.22.74Zm0-4.47V10H115a2.41,2.41,0,0,0,1.62-.48,1.73,1.73,0,0,0,.56-1.38c0-1.15-.68-1.73-2.05-1.73Z"/><path class="cls-34" d="M56.46,10.88v3.28h-.94V5.53h2.32A3.13,3.13,0,0,1,60,6.2a2.39,2.39,0,0,1,.76,1.9,2.59,2.59,0,0,1-.89,2,3,3,0,0,1-2.22.74Zm0-4.47V10h1.08a2.41,2.41,0,0,0,1.62-.48,1.7,1.7,0,0,0,.56-1.38c0-1.15-.68-1.73-2-1.73Z"/><path class="cls-34" d="M63.31,14.16h-.94V5.53h.94Z"/><path class="cls-34" d="M66.55,10.88v3.28h-1V5.53h2.33a3.13,3.13,0,0,1,2.12.67,2.39,2.39,0,0,1,.76,1.9,2.59,2.59,0,0,1-.89,2,3,3,0,0,1-2.22.74Zm0-4.47V10h1.08a2.41,2.41,0,0,0,1.62-.48,1.7,1.7,0,0,0,.56-1.38c0-1.15-.68-1.73-2-1.73Z"/><path class="cls-34" d="M19.38,10.88v3.28h-.94V5.53h2.33a3.15,3.15,0,0,1,2.12.67,2.42,2.42,0,0,1,.75,1.9,2.56,2.56,0,0,1-.89,2,3,3,0,0,1-2.21.74Zm0-4.47V10h1.09a2.41,2.41,0,0,0,1.62-.48,1.73,1.73,0,0,0,.56-1.38c0-1.15-.69-1.73-2-1.73Z"/><path class="cls-34" d="M26.24,14.16H25.3V5.53h.94Z"/><path class="cls-34" d="M29.47,10.88v3.28h-.94V5.53h2.33A3.15,3.15,0,0,1,33,6.2a2.42,2.42,0,0,1,.75,1.9,2.56,2.56,0,0,1-.89,2,3,3,0,0,1-2.21.74Zm0-4.47V10h1.09a2.41,2.41,0,0,0,1.62-.48,1.73,1.73,0,0,0,.56-1.38c0-1.15-.69-1.73-2.05-1.73Z"/><path class="cls-35" d="M5.09,14.16H4.15V5.53h.94Z"/><path class="cls-35" d="M11.81,14.16H7.38V5.53h1v7.76h3.48Z"/><path class="cls-34" d="M138.82,50h-1.19l-4.5-7a2.72,2.72,0,0,1-.27-.54h0c0,.22,0,.61,0,1.18V50h-1V41.36h1.25l4.38,6.87c.2.32.32.51.35.57h0a9.67,9.67,0,0,1-.07-1.28V41.36h1Z"/><path class="cls-34" d="M147.71,50h-1.05l-.94-2.45H142L141.15,50H140.1l3.32-8.63h1Zm-2.31-3.32L144,42.94a2.53,2.53,0,0,1-.12-.56h0a2.58,2.58,0,0,1-.14.56l-1.37,3.73Z"/><path class="cls-34" d="M153.1,42.24h-2.49V50h-1V42.24h-2.48v-.88h5.92Z"/><path class="cls-34" d="M40.05,104.09a9.39,9.39,0,0,1-1.82-1.89,6.21,6.21,0,0,1-1.08-2,7,7,0,0,1-1.1,2.09,9.38,9.38,0,0,1-1.78,1.91l-.69-.61a7.3,7.3,0,0,0,2.27-2.48,6.27,6.27,0,0,0,.84-3.08V96.16h.89V98a5.88,5.88,0,0,0,.84,3,7,7,0,0,0,2.26,2.38Zm2.25,3V100H39.6v-.81h2.7V95.35h.9v11.71Z"/><path class="cls-34" d="M45.82,105.1v-.83H56.56v.83Zm1.8-3.27V96.37h.9v1.87h5.35V96.37h.9v5.46Zm6.25-2.77H48.52v2h5.35Z"/><path class="cls-34" d="M63.91,101.23c-1.12.12-2.7.18-4.76.18v-5.3H60v4.52a29.44,29.44,0,0,0,3.8-.18Zm4.17,5.57a6.51,6.51,0,0,1-2.35-1.1,5.64,5.64,0,0,1-1.7-1.77,4.89,4.89,0,0,1-1.59,1.74A6.57,6.57,0,0,1,60,106.8l-.57-.78a5.37,5.37,0,0,0,2.84-1.33,3.07,3.07,0,0,0,1.28-2.16v-.28h.89v.26a3,3,0,0,0,1.26,2.16A5.4,5.4,0,0,0,68.6,106Zm-3.27-4.46V98.78H62.15V98h2.66V95.57h.88v6.77Zm2.1.85V95.35h.88v7.84Z"/><path class="cls-34" d="M81.77,106H80.69l-1-2.54H76l-.9,2.54H74L77.37,97h1Zm-2.37-3.44L78,98.67a3.58,3.58,0,0,1-.13-.59h0a2.41,2.41,0,0,1-.14.59l-1.4,3.86Z"/><path class="cls-34" d="M145.24,104a9.34,9.34,0,0,1-1.78-1.82,6.26,6.26,0,0,1-1.05-1.9,6.82,6.82,0,0,1-1.08,2,8.78,8.78,0,0,1-1.74,1.84l-.67-.59a7,7,0,0,0,2.22-2.39,5.89,5.89,0,0,0,.82-3V96.31h.87v1.8a5.54,5.54,0,0,0,.82,2.86,6.69,6.69,0,0,0,2.2,2.29Zm2.19,2.85V100H144.8v-.78h2.63v-3.7h.88V106.8Z"/><path class="cls-34" d="M150.88,104.92v-.8h10.48v.8Zm1.75-3.15V96.51h.87v1.81h5.23V96.51h.88v5.26Zm6.1-2.66H153.5V101h5.23Z"/><path class="cls-34" d="M168.53,101.19a45.36,45.36,0,0,1-4.64.18V96.26h.86v4.35a28.35,28.35,0,0,0,3.71-.17Zm4.08,5.36a6.35,6.35,0,0,1-2.3-1.06,5.43,5.43,0,0,1-1.66-1.7,4.87,4.87,0,0,1-1.55,1.68,6.47,6.47,0,0,1-2.35,1.08l-.55-.75a5.35,5.35,0,0,0,2.77-1.28,3,3,0,0,0,1.25-2.08v-.27h.87v.26a2.92,2.92,0,0,0,1.22,2.07,5.37,5.37,0,0,0,2.8,1.3Zm-3.19-4.29V98.83h-2.6v-.76h2.6V95.75h.85v6.51Zm2,.82V95.53h.86v7.55Z"/><path class="cls-34" d="M179.36,105.75v-8.6h2.41a2.65,2.65,0,0,1,1.73.54,1.76,1.76,0,0,1,.66,1.43,2.12,2.12,0,0,1-.39,1.26,2.07,2.07,0,0,1-1.1.78v0a2.17,2.17,0,0,1,1.4.65,2,2,0,0,1,.52,1.44,2.25,2.25,0,0,1-.79,1.79,3,3,0,0,1-2,.68ZM180.3,98v2.82h1a1.94,1.94,0,0,0,1.34-.41,1.4,1.4,0,0,0,.48-1.13c0-.85-.56-1.28-1.67-1.28Zm0,3.69v3.15h1.4a2.14,2.14,0,0,0,1.4-.42,1.49,1.49,0,0,0,.5-1.18c0-1-.71-1.55-2.13-1.55Z"/><path class="cls-34" d="M15.81,214.31q-.12,4.89-5.1,7.75l-.68-.72a8.5,8.5,0,0,0,3.2-2.41,6.92,6.92,0,0,0,1.64-3.82H10.52v-.8Zm2.8,4.51v6h-.88V213.29h.88V218h2v.8Z"/><path class="cls-34" d="M27.85,219.29a7.27,7.27,0,0,1-1.56-1.18,5.31,5.31,0,0,1-1.11-1.42,5.5,5.5,0,0,1-1.08,1.58,6.62,6.62,0,0,1-1.62,1.31l-.64-.61a5.62,5.62,0,0,0,2.07-1.74,3.85,3.85,0,0,0,.83-2.34v-1.21h.84v1.21a3.49,3.49,0,0,0,.84,2.2,5.15,5.15,0,0,0,2,1.55Zm-.64,5.39a5.12,5.12,0,0,1-2.74-.62,1.86,1.86,0,0,1-1-1.61,1.83,1.83,0,0,1,1-1.6,5,5,0,0,1,2.73-.62,5.07,5.07,0,0,1,2.73.61,1.86,1.86,0,0,1,1,1.61,1.84,1.84,0,0,1-1,1.61A5.06,5.06,0,0,1,27.21,224.68Zm0-3.7a4.2,4.2,0,0,0-2,.41,1.2,1.2,0,0,0-.72,1.06,1.21,1.21,0,0,0,.72,1.07,4.2,4.2,0,0,0,2,.41,4.25,4.25,0,0,0,2.05-.41,1.21,1.21,0,0,0,.72-1.07,1.2,1.2,0,0,0-.72-1.06A4.25,4.25,0,0,0,27.21,221Zm3.5-3.74v2.67h-.87v-6.62h.87v3.14h1.71v.81Z"/><path class="cls-34" d="M15.44,234.53a34.18,34.18,0,0,1-4.83.2v-7.38h.87v6.59H12a29.12,29.12,0,0,0,3.34-.14Zm.88,3.07v-6.55H13.69v-.78h2.63v-3.55h.87V237.6Zm2.25.38V226.49h.89V238Z"/><path class="cls-34" d="M21.83,236.17v-.79H32.35v.79Zm8.89-7.78H24.39v1.66h6v.79h-6v1.58h6.52v.79H23.52v-5.6h7.2Z"/><path class="cls-34" d="M37.32,237.65v-4.22l-3.33,0-.08-.78q4.85,0,7.68-.16l0,.77q-.81,0-3.45.12v4.23Zm.41-6.05a3.08,3.08,0,0,1-2.08-.68,2.26,2.26,0,0,1,0-3.43,3.54,3.54,0,0,1,4.17,0,2.25,2.25,0,0,1,0,3.44A3.1,3.1,0,0,1,37.73,231.6Zm0-4a2.2,2.2,0,0,0-1.46.46,1.54,1.54,0,0,0,0,2.36,2.31,2.31,0,0,0,1.46.44,2.25,2.25,0,0,0,1.46-.44,1.56,1.56,0,0,0,0-2.36A2.22,2.22,0,0,0,37.73,227.57Zm2.12,7.67v-.8h2.67v-7.95h.88V238h-.88v-2.74Z"/><path class="cls-34" d="M45.92,235.86v-.8h7.69c.12-1.27.19-2.43.22-3.47L47,232l-.19-.87,7-.25v-2.45H47.37v-.79h7.34v3.34c0,1-.08,2.38-.24,4.13h2v.8Z"/><path class="cls-34" d="M102.86,220.8q-.89.06-3.27.15v2.54h-.9V221c-1.58.05-2.74.08-3.48.08l-.12-.85q4.44,0,7.71-.22Zm-3.77-1.51a3.27,3.27,0,0,1-2.1-.64,2,2,0,0,1,0-3.2,3.78,3.78,0,0,1,4.21,0A1.94,1.94,0,0,1,102,217a2,2,0,0,1-.81,1.61A3.27,3.27,0,0,1,99.09,219.29Zm-2.18,6.77v-3.53h.92v2.71h7.07v.82Zm2.18-10.48a2.26,2.26,0,0,0-1.45.44,1.27,1.27,0,0,0-.55,1,1.3,1.3,0,0,0,.55,1,2.26,2.26,0,0,0,1.45.44,2.31,2.31,0,0,0,1.46-.44,1.33,1.33,0,0,0,.55-1,1.29,1.29,0,0,0-.55-1A2.31,2.31,0,0,0,99.09,215.58Zm4.6,8.33v-1.27h-2.58v-.81h2.58v-7.24h.92v9.32Z"/><path class="cls-34" d="M113.69,220.72a7.37,7.37,0,0,1-1.61-1.21A5.27,5.27,0,0,1,111,218a6.19,6.19,0,0,1-1.16,1.65,6.9,6.9,0,0,1-1.64,1.33l-.65-.63a5.59,5.59,0,0,0,2.12-1.75,4,4,0,0,0,.86-2.41v-.3h-2.59v-.81H114v.81h-2.59v.3a3.54,3.54,0,0,0,.89,2.26,5.23,5.23,0,0,0,2,1.57Zm-4,5.32v-4.22H117V226Zm6.38-3.42h-5.47v2.62h5.47Zm0-1.48v-3h-2.81v-.82h2.81v-2.68H117v6.55Z"/><path class="cls-34" d="M122,227.31a8,8,0,0,1-1.94-5.46,8.34,8.34,0,0,1,1.94-5.57h.87a8.51,8.51,0,0,0-2,5.55,8.31,8.31,0,0,0,2,5.48Z"/><path class="cls-34" d="M125,216.28l-.19,2.81h-.68l-.19-2.81Zm2,0-.19,2.81h-.67l-.2-2.81Z"/><path class="cls-34" d="M128.85,224.51v-.82h2.82v-3a2.66,2.66,0,0,1-.24-4.46,4.93,4.93,0,0,1,2.88-.76,4.88,4.88,0,0,1,2.87.76,2.47,2.47,0,0,1,1.09,2.15,2.5,2.5,0,0,1-1.32,2.31v3h2.82v.82Zm2.43-6.13a1.79,1.79,0,0,0,.83,1.55,3.92,3.92,0,0,0,2.2.55,3.78,3.78,0,0,0,2.19-.56,1.75,1.75,0,0,0,.82-1.54,1.78,1.78,0,0,0-.83-1.55,4.54,4.54,0,0,0-4.37,0A1.78,1.78,0,0,0,131.28,218.38Zm1.3,2.69v2.62H136v-2.62a5.94,5.94,0,0,1-1.73.23A6.51,6.51,0,0,1,132.58,221.07Z"/><path class="cls-34" d="M148,221.12a6.25,6.25,0,0,1-2.87-2.5,5.09,5.09,0,0,1-1.16,1.52,7.25,7.25,0,0,1-1.7,1.22l-.67-.71a5.09,5.09,0,0,0,2.16-1.47,3,3,0,0,0,.92-2v-.57H142v-.8h2.69v-1.38h.91v1.38h2.68v.8H145.6v.56a2.76,2.76,0,0,0,.92,1.85,4.78,4.78,0,0,0,2.1,1.3Zm-.53,5.08a5.37,5.37,0,0,1-2.85-.64,1.93,1.93,0,0,1-1-1.65,1.88,1.88,0,0,1,1-1.65,6.76,6.76,0,0,1,5.7,0,1.88,1.88,0,0,1,1,1.65,1.91,1.91,0,0,1-1,1.65A5.37,5.37,0,0,1,147.48,226.2Zm0-3.79a4.36,4.36,0,0,0-2.13.42,1.16,1.16,0,0,0,0,2.16,5.61,5.61,0,0,0,4.26,0,1.16,1.16,0,0,0,0-2.16A4.41,4.41,0,0,0,147.48,222.41Zm2.71-1V218.6h-2.32v-.81h2.32v-3.2h.91v6.8Z"/><path class="cls-34" d="M155.21,216.28l-.19,2.81h-.68l-.19-2.81Zm2,0-.19,2.81h-.67l-.2-2.81Z"/><path class="cls-34" d="M158.42,227.31a8.29,8.29,0,0,0,2-5.48,8.49,8.49,0,0,0-2-5.55h.88a8.3,8.3,0,0,1,1.95,5.57,8,8,0,0,1-1.95,5.46Z"/><path class="cls-34" d="M163.05,224.23l-.08-.79c1.05,0,2.51,0,4.39-.06s3.14-.08,3.76-.14l0,.79c-.64.05-1.9.1-3.78.14S164.06,224.23,163.05,224.23Zm3.89-3.12a3.24,3.24,0,0,1-2.22-.8,2.63,2.63,0,0,1-.89-2,2.58,2.58,0,0,1,.89-2,3.16,3.16,0,0,1,2.22-.81,3.2,3.2,0,0,1,2.22.81,2.61,2.61,0,0,1,.89,2,2.56,2.56,0,0,1-.89,2A3.2,3.2,0,0,1,166.94,221.11Zm0-4.81a2.21,2.21,0,0,0-1.55.56,2,2,0,0,0,0,2.88,2.23,2.23,0,0,0,1.53.55,2.26,2.26,0,0,0,1.55-.55,2,2,0,0,0,0-2.89A2.27,2.27,0,0,0,166.94,216.3Zm5,10.07V214.59h.9v11.78Z"/><path class="cls-34" d="M180,224.57v-.8h10.93v.8Zm1-7.61v-.8h4v-1.44h.91v1.44h4v.8Zm4.49,5.16a5.3,5.3,0,0,1-2.83-.63,1.87,1.87,0,0,1-1-1.61,1.84,1.84,0,0,1,1-1.6,6.77,6.77,0,0,1,5.64,0,1.8,1.8,0,0,1,0,3.22A5.28,5.28,0,0,1,185.47,222.12Zm0-3.69a4.63,4.63,0,0,0-2.12.39,1.13,1.13,0,0,0,0,2.12,5.87,5.87,0,0,0,4.26,0,1.13,1.13,0,0,0,0-2.12A4.6,4.6,0,0,0,185.47,218.43Z"/><path class="cls-34" d="M192.6,221.47v-.78h10.93v.78Zm1.8,4.74V222.6h7.32v3.61Zm0-6.63v-2.76h6.35v-1.19h-6.35v-.77h7.25v2.69h-6.35v1.25H202v.78Zm6.39,3.79H195.3v2.06h5.53Z"/><path class="cls-34" d="M95.44,233.89v-5.55h.9v2h3.6v-2h.9v5.55Zm4.5-2.71h-3.6v1.91h3.6Zm.39,8.23a5.52,5.52,0,0,1-2.83-.6,1.75,1.75,0,0,1,0-3.16,5.54,5.54,0,0,1,2.84-.59,5.67,5.67,0,0,1,2.85.58,1.77,1.77,0,0,1,1,1.58,1.8,1.8,0,0,1-1,1.6A5.71,5.71,0,0,1,100.33,239.41Zm0-3.57a4.9,4.9,0,0,0-2.12.36,1.12,1.12,0,0,0-.74,1,1.14,1.14,0,0,0,.74,1,6.32,6.32,0,0,0,4.26,0,1.15,1.15,0,0,0,.75-1,1.12,1.12,0,0,0-.74-1A5,5,0,0,0,100.33,235.84Zm3.64-4v2.89h-.91v-7H104v3.27h1.78v.81Z"/><path class="cls-34" d="M107.42,230v-.82h3v-1.47h.91v1.47h3V230Zm3.51,4.61a3.57,3.57,0,0,1-2.13-.56,1.69,1.69,0,0,1-.77-1.45,1.73,1.73,0,0,1,.78-1.46,4.33,4.33,0,0,1,4.26,0,1.75,1.75,0,0,1,0,2.91A3.63,3.63,0,0,1,110.93,234.63Zm0-3.26a2.7,2.7,0,0,0-1.48.35,1,1,0,0,0-.54.9,1,1,0,0,0,.54.89,3.39,3.39,0,0,0,3,0,1,1,0,0,0,.53-.89,1,1,0,0,0-.53-.9A2.72,2.72,0,0,0,110.94,231.37Zm2,8.11a6.2,6.2,0,0,1-2.85-.53,1.68,1.68,0,0,1-1-1.52,1.72,1.72,0,0,1,1-1.54,7.56,7.56,0,0,1,5.71,0,1.71,1.71,0,0,1,1,1.54,1.67,1.67,0,0,1-1,1.52A6.22,6.22,0,0,1,112.92,239.48Zm0-3.37c-1.91,0-2.86.44-2.86,1.32s1,1.33,2.86,1.33,2.88-.45,2.88-1.33S114.84,236.11,112.92,236.11Zm3.64-2.64v1.72h-.91v-7.4h.91v2.32h1.78v.78h-1.78v1.78h1.78v.8Z"/><path class="cls-34" d="M95.35,262v-6h.89v2.26h3.6V256h.9v6Zm4.49-2.9h-3.6v2.09h3.6Zm-3.13,7.77v-3.62h.91v2.81h6.59v.81Zm7.17-6.92v4.12H103v-8.6h.91v3.66h1.77v.82Z"/><path class="cls-34" d="M115,263.22q-3.7.21-7.58.21l-.09-.8c.83,0,2,0,3.37-.05v-.89a3.3,3.3,0,0,1-1.82-.58,1.5,1.5,0,0,1-.65-1.23,1.52,1.52,0,0,1,.78-1.33,3.91,3.91,0,0,1,2.15-.51,3.82,3.82,0,0,1,2.13.53,1.54,1.54,0,0,1,.79,1.31,1.49,1.49,0,0,1-.64,1.23,3.31,3.31,0,0,1-1.83.58v.88c1.37,0,2.48-.08,3.33-.14Zm-7.3-5.64v-.8h3v-1.3h.9v1.3h3v.8Zm3.46,1.2a3.09,3.09,0,0,0-1.49.31.91.91,0,0,0-.54.79.88.88,0,0,0,.55.78,2.94,2.94,0,0,0,1.48.31,3,3,0,0,0,1.48-.31.89.89,0,0,0,.54-.78.91.91,0,0,0-.54-.79A3,3,0,0,0,111.11,258.78Zm-1.9,8.3v-3h.9v2.21h6.81v.8Zm7.43-6.15v3.57h-.91v-9h.91v4.66h1.77v.81Z"/><path class="cls-34" d="M121.85,268.17a8,8,0,0,1-1.93-5.46,8.29,8.29,0,0,1,1.93-5.56h.88a8.5,8.5,0,0,0-2,5.54,8.24,8.24,0,0,0,2,5.48Z"/><path class="cls-34" d="M124.92,257.15l-.19,2.8H124l-.18-2.8Zm2,0-.18,2.8h-.68l-.19-2.8Z"/><path class="cls-34" d="M133.25,262.76v1.69l2.21-.08,1.35-.06.05.78c-.64.06-1.87.1-3.69.14s-3.22.07-4.21.07l-.08-.8c1.23,0,2.39,0,3.47,0v-1.7a3.21,3.21,0,0,1-1.86-.7,1.92,1.92,0,0,1,.15-3,3.55,3.55,0,0,1,2.18-.6,3.45,3.45,0,0,1,2.15.6,1.81,1.81,0,0,1,.79,1.5,2,2,0,0,1-.66,1.49A3.09,3.09,0,0,1,133.25,262.76Zm-.9-7.28h.91V257h3.05v.81h-7V257h3.07Zm.47,3.75a2.57,2.57,0,0,0-1.5.39,1.18,1.18,0,0,0-.55,1,1.15,1.15,0,0,0,.54,1,2.54,2.54,0,0,0,1.51.38,2.47,2.47,0,0,0,1.49-.38,1.15,1.15,0,0,0,.54-1,1.17,1.17,0,0,0-.55-1A2.43,2.43,0,0,0,132.82,259.23Zm4.9,8V255.46h.92v11.77Z"/><path class="cls-34" d="M147.73,262.09a8.07,8.07,0,0,1-1.65-1.38,6.3,6.3,0,0,1-1.1-1.54A7.28,7.28,0,0,1,143.8,261a6.58,6.58,0,0,1-1.65,1.44l-.66-.63a5.83,5.83,0,0,0,2.14-1.89,4.37,4.37,0,0,0,.87-2.53v-1.51h.89v1.51a3.9,3.9,0,0,0,.91,2.36,5.53,5.53,0,0,0,2,1.72Zm-4,4.76V263.1h.91v2.95h6.65v.8Zm6.34-3v-8.37H151v8.37Z"/><path class="cls-34" d="M155.12,257.15l-.19,2.8h-.69l-.18-2.8Zm2,0L157,260h-.68l-.19-2.8Z"/><path class="cls-34" d="M158.32,268.17a8.22,8.22,0,0,0,2-5.48,8.42,8.42,0,0,0-2-5.54h.89a8.26,8.26,0,0,1,1.95,5.56,7.94,7.94,0,0,1-1.95,5.46Z"/><path class="cls-34" d="M163,265.09l-.09-.78c1,0,2.52,0,4.4-.06s3.13-.09,3.75-.15l.06.79c-.64.05-1.9.1-3.79.14S164,265.09,163,265.09Zm3.89-3.12a3.24,3.24,0,0,1-2.22-.8,2.69,2.69,0,0,1,0-4,3.2,3.2,0,0,1,2.23-.81,3.12,3.12,0,0,1,2.21.82,2.56,2.56,0,0,1,.9,2,2.6,2.6,0,0,1-.89,2A3.24,3.24,0,0,1,166.85,262Zm0-4.81a2.28,2.28,0,0,0-1.56.56,2,2,0,0,0,0,2.88,2.41,2.41,0,0,0,3.09,0,1.84,1.84,0,0,0,.62-1.45,1.82,1.82,0,0,0-.62-1.44A2.23,2.23,0,0,0,166.85,257.16Zm5,10.07V255.46h.91v11.77Z"/><path class="cls-34" d="M179.92,265.43v-.8h10.92v.8Zm1-7.61V257h4.05v-1.44h.9V257h4v.8Zm4.5,5.16a5.34,5.34,0,0,1-2.84-.63,1.79,1.79,0,0,1,0-3.21,6.75,6.75,0,0,1,5.65,0,1.83,1.83,0,0,1,1,1.6,1.87,1.87,0,0,1-1,1.62A5.36,5.36,0,0,1,185.38,263Zm0-3.68a4.63,4.63,0,0,0-2.12.39,1.16,1.16,0,0,0-.74,1.05,1.21,1.21,0,0,0,.73,1.07,4.63,4.63,0,0,0,2.13.4,4.56,4.56,0,0,0,2.12-.4,1.21,1.21,0,0,0,.73-1.07,1.17,1.17,0,0,0-.73-1.05A4.63,4.63,0,0,0,185.38,259.3Z"/><path class="cls-34" d="M192.5,262.33v-.78h10.93v.78Zm1.81,4.74v-3.61h7.32v3.61Zm0-6.63v-2.76h6.35v-1.19h-6.35v-.77h7.25v2.7h-6.34v1.25h6.62v.77Zm6.39,3.79H195.2v2.07h5.53Z"/><path class="cls-34" d="M95.35,274.75v-5.54h.89v2h3.6v-2h.9v5.54ZM99.84,272h-3.6V274h3.6Zm.4,8.23a5.67,5.67,0,0,1-2.84-.59,1.81,1.81,0,0,1-1-1.6,1.77,1.77,0,0,1,1-1.57,7.21,7.21,0,0,1,5.69,0,1.77,1.77,0,0,1,0,3.18A5.64,5.64,0,0,1,100.24,280.27Zm0-3.56a5,5,0,0,0-2.13.36,1.1,1.1,0,0,0-.73,1,1.14,1.14,0,0,0,.74,1,4.8,4.8,0,0,0,2.12.37,4.87,4.87,0,0,0,2.14-.37,1.14,1.14,0,0,0,.74-1,1.11,1.11,0,0,0-.73-1A5.06,5.06,0,0,0,100.24,276.71Zm3.64-4v2.89H103v-7h.91v3.26h1.77v.81Z"/><path class="cls-34" d="M107.33,270.88v-.81h3V268.6h.91v1.47h3v.81Zm3.5,4.61a3.5,3.5,0,0,1-2.13-.56,1.71,1.71,0,0,1-.77-1.45,1.74,1.74,0,0,1,.78-1.46,4.35,4.35,0,0,1,4.27,0,1.75,1.75,0,0,1,0,2.91A3.66,3.66,0,0,1,110.83,275.49Zm0-3.26a2.72,2.72,0,0,0-1.48.35,1,1,0,0,0,0,1.8,2.79,2.79,0,0,0,1.48.34,2.83,2.83,0,0,0,1.49-.34,1,1,0,0,0,0-1.8A2.7,2.7,0,0,0,110.84,272.23Zm2,8.12a6,6,0,0,1-2.85-.54,1.67,1.67,0,0,1-1-1.52,1.72,1.72,0,0,1,1-1.54,7.53,7.53,0,0,1,5.7,0,1.7,1.7,0,0,1,1,1.54,1.66,1.66,0,0,1-1,1.52A6.06,6.06,0,0,1,112.83,280.35Zm0-3.38c-1.91,0-2.86.44-2.86,1.32s1,1.33,2.86,1.33,2.88-.44,2.88-1.33S114.75,277,112.83,277Zm3.63-2.64v1.72h-.9v-7.39h.9V271h1.78v.79h-1.78v1.77h1.78v.8Z"/></g></svg>