<svg xmlns="http://www.w3.org/2000/svg" xmlns:xlink="http://www.w3.org/1999/xlink" viewBox="0 0 332.33 285.86"><defs><style>.cls-1{fill:#fff;}.cls-2{fill:#ccc;fill-opacity:0.3;}.cls-23,.cls-24,.cls-26,.cls-3,.cls-35,.cls-37,.cls-4,.cls-9{fill:none;stroke-miterlimit:10;}.cls-23,.cls-3,.cls-4{stroke:#3c3c41;}.cls-4{stroke-dasharray:1.31 2.19;}.cls-5,.cls-6,.cls-7,.cls-8{fill:#3c3c41;}.cls-6{opacity:0.05;}.cls-34,.cls-38,.cls-39,.cls-6,.cls-7,.cls-8,.cls-9{isolation:isolate;}.cls-7{opacity:0.2;}.cls-8{opacity:0.02;}.cls-24,.cls-26,.cls-9{stroke:#365615;}.cls-9{stroke-width:0.5px;opacity:0.5;}.cls-10{fill:url(#Degradado_sin_nombre);}.cls-11{fill:#50e6ff;}.cls-12{fill:#c3f1ff;}.cls-13{fill:#9cebff;}.cls-14{fill:url(#Degradado_sin_nombre_2);}.cls-15{fill:url(#Degradado_sin_nombre_3);}.cls-16{fill:url(#Degradado_sin_nombre_4);}.cls-17{fill:#005ba1;}.cls-18{fill:#0078d4;}.cls-19{fill:url(#Degradado_sin_nombre_5);}.cls-20{fill:url(#Degradado_sin_nombre_6);}.cls-21{fill:url(#Degradado_sin_nombre_7);}.cls-22{fill:url(#Degradado_sin_nombre_8);}.cls-23,.cls-26,.cls-37{stroke-dasharray:1.46 2.43;}.cls-25{fill:#365615;}.cls-27{fill:url(#Degradado_sin_nombre_9);}.cls-28{fill:url(#Degradado_sin_nombre_10);}.cls-29{fill:url(#Degradado_sin_nombre_11);}.cls-30{fill:#1490df;}.cls-31{fill:url(#Degradado_sin_nombre_12);}.cls-32{fill:#b4ec36;}.cls-33{fill:#5ea0ef;}.cls-34{fill:#9bf00b;}.cls-34,.cls-38,.cls-39{opacity:0.4;}.cls-35,.cls-37{stroke:#003067;}.cls-36{fill:#003067;}.cls-38{fill:#83b9f9;}.cls-39,.cls-40{fill:#6ebcdb;}.cls-41{fill:#5db4d7;}.cls-42{fill:#e6e6e6;}.cls-43{fill:#86d633;}.cls-44{fill:#1e1e1e;}.cls-45{fill:#767676;}</style><linearGradient id="Degradado_sin_nombre" x1="132.84" y1="445.76" x2="132.84" y2="427" gradientTransform="translate(0 -292.14)" gradientUnits="userSpaceOnUse"><stop offset="0" stop-color="#0078d4"/><stop offset="0.82" stop-color="#5ea0ef"/></linearGradient><linearGradient id="Degradado_sin_nombre_2" x1="132.84" y1="453" x2="132.84" y2="445.76" gradientTransform="translate(0 -292.14)" gradientUnits="userSpaceOnUse"><stop offset="0.15" stop-color="#ccc"/><stop offset="1" stop-color="#707070"/></linearGradient><linearGradient id="Degradado_sin_nombre_3" x1="173.92" y1="445.76" x2="173.92" y2="427" xlink:href="#Degradado_sin_nombre"/><linearGradient id="Degradado_sin_nombre_4" x1="173.94" y1="453" x2="173.94" y2="445.76" xlink:href="#Degradado_sin_nombre_2"/><linearGradient id="Degradado_sin_nombre_5" x1="300.19" y1="433.76" x2="300.19" y2="423.44" xlink:href="#Degradado_sin_nombre"/><linearGradient id="Degradado_sin_nombre_6" x1="300.24" y1="437.77" x2="300.24" y2="433.77" xlink:href="#Degradado_sin_nombre_2"/><linearGradient id="Degradado_sin_nombre_7" x1="252.5" y1="433.76" x2="252.5" y2="415" xlink:href="#Degradado_sin_nombre"/><linearGradient id="Degradado_sin_nombre_8" x1="252.5" y1="441" x2="252.5" y2="433.76" xlink:href="#Degradado_sin_nombre_2"/><linearGradient id="Degradado_sin_nombre_9" x1="75.68" y1="492.87" x2="78.04" y2="495.24" gradientTransform="translate(2.87 -293.36)" gradientUnits="userSpaceOnUse"><stop offset="0" stop-color="#86d633"/><stop offset="0.24" stop-color="#83d232"/><stop offset="0.5" stop-color="#7cc52f"/><stop offset="0.76" stop-color="#6fb02a"/><stop offset="1" stop-color="#5e9624"/></linearGradient><linearGradient id="Degradado_sin_nombre_10" x1="70.33" y1="492.87" x2="72.69" y2="495.24" xlink:href="#Degradado_sin_nombre_9"/><linearGradient id="Degradado_sin_nombre_11" x1="64.99" y1="492.87" x2="67.35" y2="495.24" xlink:href="#Degradado_sin_nombre_9"/><linearGradient id="Degradado_sin_nombre_12" x1="84.67" y1="357.92" x2="84.67" y2="321.98" gradientTransform="translate(0 -292.14)" gradientUnits="userSpaceOnUse"><stop offset="0" stop-color="#5e9624"/><stop offset="0.02" stop-color="#5f9724"/><stop offset="1" stop-color="#76bc2d"/></linearGradient></defs><title>OJ104903191</title><g id="Target"><g id="Shapes"><rect class="cls-1" width="332.33" height="285.86"/><rect class="cls-2" x="176.33" y="210.86" width="155" height="35"/><rect class="cls-2" x="176.33" y="250.86" width="155" height="35"/><line class="cls-3" x1="192.02" y1="260.86" x2="191.27" y2="260.86"/><line class="cls-4" x1="189.08" y1="260.86" x2="183.17" y2="260.86"/><line class="cls-3" x1="182.08" y1="260.86" x2="181.33" y2="260.86"/><polygon class="cls-5" points="191.15 257.86 196.33 260.86 191.15 263.85 191.15 257.86"/><path class="cls-1" d="M331.83,46.5v149a5,5,0,0,1-5,5h-270a5,5,0,0,1-5-5V46.5"/><path class="cls-6" d="M331.83,46.5v149a5,5,0,0,1-5,5h-270a5,5,0,0,1-5-5V46.5"/><path class="cls-5" d="M325.67,201h-1v-1h1Zm-3,0h-1v-1h1Zm-3,0h-1v-1h1Zm-3,0h-1v-1h1Zm-3,0h-1v-1h1Zm-3,0h-1v-1h1Zm-3,0h-1v-1h1Zm-3,0h-1v-1h1Zm-3,0h-1v-1h1Zm-3,0h-1v-1h1Zm-3,0h-1v-1h1Zm-3,0h-1v-1h1Zm-3,0h-1v-1h1Zm-3,0h-1v-1h1Zm-3,0h-1v-1h1Zm-3,0h-1v-1h1Zm-3,0h-1v-1h1Zm-3,0h-1v-1h1Zm-3,0h-1v-1h1Zm-3,0h-1v-1h1Zm-3,0h-1v-1h1Zm-3,0h-1v-1h1Zm-3,0h-1v-1h1Zm-3,0h-1v-1h1Zm-3,0h-1v-1h1Zm-3,0h-1v-1h1Zm-3,0h-1v-1h1Zm-3,0h-1v-1h1Zm-3,0h-1v-1h1Zm-3,0h-1v-1h1Zm-3,0h-1v-1h1Zm-3,0h-1v-1h1Zm-3,0h-1v-1h1Zm-3,0h-1v-1h1Zm-3,0h-1v-1h1Zm-3,0h-1v-1h1Zm-3,0h-1v-1h1Zm-3,0h-1v-1h1Zm-3,0h-1v-1h1Zm-3,0h-1v-1h1Zm-3,0h-1v-1h1Zm-3,0h-1v-1h1Zm-3,0h-1v-1h1Zm-3,0h-1v-1h1Zm-3,0h-1v-1h1Zm-3,0h-1v-1h1Zm-3,0h-1v-1h1Zm-3,0h-1v-1h1Zm-3,0h-1v-1h1Zm-3,0h-1v-1h1Zm-3,0h-1v-1h1Zm-3,0h-1v-1h1Zm-3,0h-1v-1h1Zm-3,0h-1v-1h1Zm-3,0h-1v-1h1Zm-3,0h-1v-1h1Zm-3,0h-1v-1h1Zm-3,0h-1v-1h1Zm-3,0h-1v-1h1Zm-3,0h-1v-1h1Zm-3,0h-1v-1h1Zm-3,0h-1v-1h1Zm-3,0h-1v-1h1Zm-3,0h-1v-1h1Zm-3,0h-1v-1h1Zm-3,0h-1v-1h1Zm-3,0h-1v-1h1Zm-3,0h-1v-1h1Zm-3,0h-1v-1h1Zm-3,0h-1v-1h1Zm-3,0h-1v-1h1Zm-3,0h-1v-1h1Zm-3,0h-1v-1h1Zm-3,0h-1v-1h1Zm-3,0h-1v-1h1Zm-3,0h-1v-1h1Zm-3,0h-1v-1h1Zm-3,0h-1v-1h1Zm-3,0h-1v-1h1Zm-33,0h-1v-1h1Zm269.5-.08-.17-1a4.31,4.31,0,0,0,.87-.24l.36.93a5.74,5.74,0,0,1-1.48.31Zm-272.64-.2a4.5,4.5,0,0,1-1-.45l.5-.86a4,4,0,0,0,.82.37Zm275.54-1.27-.69-.72A4.82,4.82,0,0,0,331,198l.82.57a6.26,6.26,0,0,1-1.13.84Zm-278.19-.61a6.1,6.1,0,0,1-.58-.94l.9-.44a4.66,4.66,0,0,0,.47.77Zm279.76-2.24-1-.21a4.41,4.41,0,0,0,.09-.89l1-.06v.06a5.77,5.77,0,0,1-.51,1.1Zm-280.88-.82v-1h1v1Zm281-2.34h-1v-1h1Zm-280-.69h-1v-1h1Zm280-2.32h-1v-1h1Zm-280-.68h-1v-1h1Zm280-2.32h-1v-1h1Zm-280-.69h-1v-1h1Zm280-2.32h-1v-1h1Zm-280-.68h-1v-1h1Zm280-2.32h-1v-1h1Zm-280-.69h-1v-1h1Zm280-2.31h-1v-1h1Zm-280-.69h-1v-1h1Zm280-2.32h-1v-1h1Zm-280-.69h-1v-1h1Zm280-2.31h-1v-1h1Zm-280-.69h-1v-1h1Zm280-2.32h-1v-1h1Zm-280-.69h-1v-1h1Zm280-2.31h-1v-1h1Zm-280-.69h-1v-1h1Zm280-2.32h-1v-1h1Zm-280-.69h-1v-1h1Zm280-2.31h-1v-1h1Zm-280-.69h-1v-1h1Zm280-2.32h-1v-1h1Zm-280-.69h-1v-1h1Zm280-2.31h-1v-1h1Zm-280-.69h-1v-1h1Zm280-2.32h-1v-1h1Zm-280-.69h-1v-1h1Zm280-2.31h-1v-1h1Zm-280-.69h-1v-1h1Zm280-2.32h-1v-1h1Zm-280-.68h-1v-1h1Zm280-2.32h-1v-1h1Zm-280-.69h-1v-1h1Zm280-2.32h-1v-1h1Zm-280-.68h-1v-1h1Zm280-2.32h-1v-1h1Zm-280-.69h-1v-1h1Zm280-2.32h-1v-1h1Zm-280-.68h-1v-1h1Zm280-2.32h-1v-1h1Zm-280-.69h-1v-1h1Zm280-2.32h-1v-1h1Zm-280-.68h-1v-1h1Zm280-2.32h-1v-1h1Zm-280-.69h-1v-1h1Zm280-2.31h-1v-1h1Zm-280-.69h-1v-1h1Zm280-2.32h-1v-1h1Zm-280-.69h-1v-1h1Zm280-2.31h-1v-1h1Zm-280-.69h-1v-1h1Zm280-2.32h-1v-1h1Zm-280-.69h-1v-1h1Zm280-2.31h-1v-1h1Zm-280-.69h-1v-1h1Zm280-2.32h-1v-1h1Zm-280-.69h-1v-1h1Zm280-2.31h-1v-1h1Zm-280-.69h-1v-1h1Zm280-2.32h-1v-1h1Zm-280-.69h-1v-1h1Zm280-2.31h-1v-1h1Zm-280-.69h-1v-1h1Zm280-2.32h-1v-1h1Zm-280-.69h-1v-1h1Zm280-2.31h-1v-1h1Zm-280-.69h-1v-1h1Zm280-2.32h-1v-1h1Zm-280-.68h-1v-1h1Zm280-2.32h-1v-1h1Zm-280-.69h-1v-1h1Zm280-2.32h-1v-1h1Zm-280-.68h-1v-1h1Zm280-2.32h-1v-1h1Zm-280-.69h-1v-1h1Zm280-2.32h-1v-1h1Zm-280-.68h-1v-1h1Zm280-2.32h-1v-1h1Zm-280-.69h-1v-1h1Zm280-2.31h-1v-1h1Zm-280-.69h-1v-1h1Zm280-2.32h-1v-1h1Zm-280-.69h-1v-1h1Zm280-2.31h-1v-1h1Zm-280-.69h-1v-1h1Zm280-2.32h-1v-1h1Zm-280-.69h-1v-1h1Zm280-2.31h-1v-1h1Zm-280-.69h-1v-1h1Zm280-2.32h-1v-1h1Zm-280-.69h-1v-1h1Zm280-2.31h-1v-1l1-.05v1Zm-281-.69h0a5.36,5.36,0,0,1,.1-1.06l1,.19a5.12,5.12,0,0,0-.08.87Zm279.53-2a4,4,0,0,0-.48-.76l.79-.61a5,5,0,0,1,.59.93ZM53.1,49l-.82-.56a6.24,6.24,0,0,1,.7-.84l.7.71A4.82,4.82,0,0,0,53.1,49ZM329,47.58a4,4,0,0,0-.82-.36l.3-.95a5.24,5.24,0,0,1,1,.44ZM55.18,47.31l-.36-.93a6.41,6.41,0,0,1,1.06-.3l.17,1A4.29,4.29,0,0,0,55.18,47.31ZM326.38,47h-1V46h1Zm-3,0h-1V46h1Zm-3,0h-1V46h1Zm-3,0h-1V46h1Zm-3,0h-1V46h1Zm-3,0h-1V46h1Zm-3,0h-1V46h1Zm-3,0h-1V46h1Zm-3,0h-1V46h1Zm-3,0h-1V46h1Zm-3,0h-1V46h1Zm-3,0h-1V46h1Zm-3,0h-1V46h1Zm-3,0h-1V46h1Zm-3,0h-1V46h1Zm-3,0h-1V46h1Zm-3,0h-1V46h1Zm-3,0h-1V46h1Zm-3,0h-1V46h1Zm-3,0h-1V46h1Zm-27,0h-1V46h1Zm-3,0h-1V46h1Zm-3,0h-1V46h1Zm-3,0h-1V46h1Zm-3,0h-1V46h1Zm-3,0h-1V46h1Zm-3,0h-1V46h1Zm-3,0h-1V46h1Zm-3,0h-1V46h1Zm-3,0h-1V46h1Zm-3,0h-1V46h1Zm-3,0h-1V46h1Zm-3,0h-1V46h1Zm-3,0h-1V46h1Zm-3,0h-1V46h1Zm-3,0h-1V46h1Zm-3,0h-1V46h1Zm-3,0h-1V46h1Zm-3,0h-1V46h1Zm-3,0h-1V46h1Zm-3,0h-1V46h1Zm-3,0h-1V46h1Zm-3,0h-1V46h1Zm-3,0h-1V46h1Zm-3,0h-1V46h1Zm-3,0h-1V46h1Zm-3,0h-1V46h1Zm-3,0h-1V46h1Zm-3,0h-1V46h1Zm-3,0h-1V46h1Zm-3,0h-1V46h1Zm-3,0h-1V46h1Zm-3,0h-1V46h1Zm-3,0h-1V46h1Zm-3,0h-1V46h1Zm-3,0h-1V46h1Zm-3,0h-1V46h1Zm-3,0h-1V46h1Zm-3,0h-1V46h1Zm-3,0h-1V46h1Zm-3,0h-1V46h1Zm-3,0h-1V46h1Zm-3,0h-1V46h1Zm-3,0h-1V46h1Zm-3,0h-1V46h1Zm-3,0h-1V46h1Zm-3,0h-1V46h1Zm-3,0h-1V46h1Zm-3,0H97V46h1Zm-3,0H94V46h1Zm-3,0H91V46h1Zm-3,0H88V46h1Zm-3,0H85V46h1Zm-3,0H82V46h1Zm-3,0H79V46h1Zm-3,0H76V46h1Zm-3,0H73V46h1Zm-3,0H70V46h1Zm-3,0H67V46h1Zm-3,0H64V46h1Zm-3,0H61V46h1Zm-3,0H58V46h1Z"/><rect class="cls-1" x="61.33" y="90.86" width="155" height="95"/><rect class="cls-7" x="61.33" y="90.86" width="155" height="95"/><rect class="cls-1" x="66.33" y="110.86" width="145" height="70"/><rect class="cls-8" x="66.33" y="110.86" width="145" height="70"/><rect class="cls-9" x="66.33" y="110.86" width="145" height="70"/><rect class="cls-10" x="118.77" y="134.86" width="28.14" height="18.76" rx="0.94"/><polygon class="cls-11" points="137.53 141.5 137.53 146.96 132.84 149.71 132.84 144.24 137.53 141.5"/><polygon class="cls-12" points="137.53 141.5 132.84 144.25 128.15 141.5 132.84 138.76 137.53 141.5"/><polygon class="cls-13" points="132.84 144.25 132.84 149.71 128.15 146.96 128.15 141.5 132.84 144.25"/><polygon class="cls-12" points="128.15 146.96 132.84 144.24 132.84 149.71 128.15 146.96"/><polygon class="cls-13" points="137.53 146.96 132.84 144.24 132.84 149.71 137.53 146.96"/><path class="cls-14" d="M138.48,159.29c-2.78-.44-2.89-2.44-2.89-5.67h-5.52c0,3.23-.09,5.23-2.88,5.67a1.56,1.56,0,0,0-1.39,1.57h14.07A1.56,1.56,0,0,0,138.48,159.29Z"/><rect class="cls-15" x="159.85" y="134.86" width="28.14" height="18.76" rx="0.94"/><polygon class="cls-11" points="178.61 141.5 178.61 146.96 173.92 149.71 173.92 144.24 178.61 141.5"/><polygon class="cls-12" points="178.61 141.5 173.92 144.25 169.23 141.5 173.92 138.76 178.61 141.5"/><polygon class="cls-13" points="173.92 144.25 173.92 149.71 169.23 146.96 169.23 141.5 173.92 144.25"/><polygon class="cls-12" points="169.23 146.96 173.92 144.24 173.92 149.71 169.23 146.96"/><polygon class="cls-13" points="178.61 146.96 173.92 144.24 173.92 149.71 178.61 146.96"/><path class="cls-16" d="M179.56,159.29c-2.78-.44-2.89-2.44-2.89-5.67h-5.52c0,3.23-.09,5.23-2.87,5.67a1.58,1.58,0,0,0-1.4,1.57H181A1.57,1.57,0,0,0,179.56,159.29Z"/><rect class="cls-1" x="226.33" y="90.86" width="95" height="95"/><rect class="cls-7" x="226.33" y="90.86" width="95" height="95"/><rect class="cls-17" x="281.93" y="119.63" width="15.46" height="10.32" rx="0.52"/><polygon class="cls-11" points="292.24 123.28 292.24 126.3 289.67 127.79 289.67 124.8 292.24 123.28"/><polygon class="cls-12" points="292.24 123.28 289.67 124.8 287.08 123.28 289.67 121.77 292.24 123.28"/><polygon class="cls-13" points="289.67 124.8 289.67 127.79 287.08 126.3 287.08 123.28 289.67 124.8"/><rect class="cls-18" x="288" y="125.55" width="15.46" height="10.32" rx="0.52"/><polygon class="cls-11" points="298.31 129.22 298.31 132.21 295.74 133.73 295.74 130.72 298.31 129.22"/><polygon class="cls-12" points="298.31 129.22 295.74 130.72 293.15 129.22 295.74 127.7 298.31 129.22"/><polygon class="cls-13" points="295.74 130.72 295.74 133.73 293.15 132.21 293.15 129.22 295.74 130.72"/><rect class="cls-19" x="292.46" y="131.3" width="15.46" height="10.32" rx="0.52"/><polygon class="cls-11" points="302.77 134.97 302.77 137.96 300.2 139.48 300.2 136.47 302.77 134.97"/><polygon class="cls-12" points="302.77 134.97 300.2 136.48 297.62 134.97 300.2 133.45 302.77 134.97"/><polygon class="cls-13" points="300.2 136.48 300.2 139.48 297.62 137.96 297.62 134.97 300.2 136.48"/><polygon class="cls-12" points="297.62 137.96 300.2 136.47 300.2 139.48 297.62 137.96"/><polygon class="cls-13" points="302.77 137.96 300.2 136.47 300.2 139.48 302.77 137.96"/><path class="cls-20" d="M303.29,144.75c-1.53-.24-1.53-1.34-1.53-3.05H298.7c0,1.77,0,2.87-1.52,3.05a.91.91,0,0,0-.77.88h7.65A.91.91,0,0,0,303.29,144.75Z"/><rect class="cls-21" x="238.43" y="122.86" width="28.14" height="18.76" rx="0.94"/><polygon class="cls-11" points="257.19 129.5 257.19 134.96 252.5 137.71 252.5 132.24 257.19 129.5"/><polygon class="cls-12" points="257.19 129.5 252.5 132.25 247.81 129.5 252.5 126.76 257.19 129.5"/><polygon class="cls-13" points="252.5 132.25 252.5 137.71 247.81 134.96 247.81 129.5 252.5 132.25"/><polygon class="cls-12" points="247.81 134.96 252.5 132.24 252.5 137.71 247.81 134.96"/><polygon class="cls-13" points="257.19 134.96 252.5 132.24 252.5 137.71 257.19 134.96"/><path class="cls-22" d="M258.14,147.29c-2.78-.44-2.89-2.44-2.89-5.67h-5.52c0,3.23-.09,5.23-2.88,5.67a1.56,1.56,0,0,0-1.39,1.57h14.07A1.56,1.56,0,0,0,258.14,147.29Z"/><line class="cls-3" x1="203.19" y1="91.21" x2="203.19" y2="64.14"/><line class="cls-3" x1="195.67" y1="85.68" x2="195.67" y2="73.98"/><polygon class="cls-5" points="198.66 74.86 195.67 69.68 192.68 74.86 198.66 74.86"/><line class="cls-3" x1="210.72" y1="81.37" x2="210.72" y2="80.62"/><line class="cls-23" x1="210.72" y1="78.19" x2="210.72" y2="71.64"/><line class="cls-3" x1="210.72" y1="70.43" x2="210.72" y2="69.68"/><polygon class="cls-5" points="213.71 80.5 210.72 85.68 207.73 80.5 213.71 80.5"/><line class="cls-3" x1="243.85" y1="91.21" x2="243.85" y2="64.14"/><line class="cls-3" x1="236.33" y1="85.68" x2="236.33" y2="73.98"/><polygon class="cls-5" points="239.32 74.86 236.33 69.68 233.34 74.86 239.32 74.86"/><line class="cls-3" x1="251.38" y1="81.37" x2="251.38" y2="80.62"/><line class="cls-23" x1="251.38" y1="78.19" x2="251.38" y2="71.64"/><line class="cls-3" x1="251.38" y1="70.43" x2="251.38" y2="69.68"/><polygon class="cls-5" points="254.37 80.5 251.38 85.68 248.39 80.5 254.37 80.5"/><line class="cls-24" x1="84.57" y1="110.86" x2="84.57" y2="19.87"/><line class="cls-24" x1="78.2" y1="79.27" x2="78.2" y2="67.58"/><polygon class="cls-25" points="81.2 78.4 78.2 83.58 75.21 78.4 81.2 78.4"/><line class="cls-24" x1="91.31" y1="83.58" x2="91.31" y2="82.83"/><line class="cls-26" x1="91.31" y1="80.4" x2="91.31" y2="73.85"/><line class="cls-24" x1="91.31" y1="72.63" x2="91.31" y2="71.88"/><polygon class="cls-25" points="94.3 72.76 91.31 67.58 88.32 72.76 94.3 72.76"/><line class="cls-3" x1="225.03" y1="38.29" x2="225.03" y2="18.79"/><line class="cls-3" x1="187.34" y1="222.93" x2="198.46" y2="222.93"/><polygon class="cls-5" points="188.21 225.93 183.03 222.93 188.21 219.94 188.21 225.93"/><path class="cls-3" d="M221.15,41,183.41,29.65a4.3,4.3,0,0,1-2.88-3.86v-7"/><path class="cls-3" d="M229.35,41l43.28-11.43a4.1,4.1,0,0,0,2.9-3.76v-7"/><circle class="cls-27" cx="79.53" cy="200.49" r="1.67"/><circle class="cls-28" cx="74.18" cy="200.5" r="1.67"/><circle class="cls-29" cx="68.84" cy="200.5" r="1.67"/><path class="cls-11" d="M70.06,207.2l-1,1a.43.43,0,0,1-.61,0h0l-7.1-7.08a.86.86,0,0,1,0-1.22h0l1-1h0l7.71,7.69a.43.43,0,0,1,0,.61Z"/><path class="cls-30" d="M69,192.86l1,1a.43.43,0,0,1,0,.61h0L62.34,202h0l-1-1a.87.87,0,0,1,0-1.23h0l7-7a.44.44,0,0,1,.61,0Z"/><path class="cls-11" d="M85.9,198.88l1,1a.86.86,0,0,1,0,1.22h0l-7.09,7.08a.44.44,0,0,1-.62,0h0l-1-1a.45.45,0,0,1,0-.61h0l7.7-7.69Z"/><path class="cls-30" d="M86.86,201.06l-1,1h0l-7.58-7.6a.43.43,0,0,1,0-.61h0l1-1a.43.43,0,0,1,.61,0h0l7,7a.87.87,0,0,1,0,1.23h0Z"/><path class="cls-31" d="M69.48,46.35,83.93,31.9a1,1,0,0,1,1.41,0l0,0h0L99.85,46.35a1,1,0,0,1,.05,1.41l-.05.05h0L85.39,62.3a1,1,0,0,1-1.41,0l0,0L69.48,47.83a1,1,0,0,1,0-1.41s0,0,0-.05Z"/><path class="cls-32" d="M88.46,38.48,84.8,34.85a.2.2,0,0,0-.27,0l-3.65,3.63a.17.17,0,0,0,.14.31h2.13a.2.2,0,0,1,.19.19h0v3.45a.21.21,0,0,0,.19.19H85.8a.2.2,0,0,0,.19-.19h0V39a.21.21,0,0,1,.19-.19h2.14a.17.17,0,0,0,.21-.12h0A.19.19,0,0,0,88.46,38.48Z"/><path class="cls-32" d="M76.06,43l-3.62,3.66a.19.19,0,0,0,0,.26l3.62,3.64a.19.19,0,0,0,.27,0h0a.17.17,0,0,0,0-.14V48.28a.2.2,0,0,1,.19-.19H80a.18.18,0,0,0,.17-.17V45.63a.18.18,0,0,0-.06-.24H76.63a.17.17,0,0,1-.19-.15h0V43.11a.21.21,0,0,0-.12-.25.19.19,0,0,0-.25.12Z"/><path class="cls-32" d="M93.41,50.54l3.67-3.65a.19.19,0,0,0,0-.26L93.41,43a.18.18,0,0,0-.25,0h0a.22.22,0,0,0-.05.11v2.16a.18.18,0,0,1-.17.17H89.47a.18.18,0,0,0-.17.17V47.9a.17.17,0,0,0,.15.19h3.47a.19.19,0,0,1,.18.19v2.14a.21.21,0,0,0,.22.16Z"/><path class="cls-1" d="M89.47,47.09a4.81,4.81,0,1,0-6.09,4.6v1.64a2.94,2.94,0,1,0,2.7,0V51.6A4.76,4.76,0,0,0,89.47,47.09Z"/><circle id="e99c3387-15c3-4f28-bd4b-cb209b430e06" class="cls-33" cx="84.68" cy="47.08" r="2.79"/><rect class="cls-1" x="163" width="35" height="20.86"/><rect class="cls-7" x="163" width="35" height="20.86"/><rect class="cls-1" x="66.33" width="35" height="20.86"/><rect class="cls-34" x="66.33" width="35" height="20.86"/><rect class="cls-1" x="208.03" width="35" height="20.86"/><rect class="cls-7" x="208.03" width="35" height="20.86"/><rect class="cls-1" x="253.03" width="45" height="20.86"/><rect class="cls-7" x="253.03" width="45" height="20.86"/><line class="cls-35" x1="127.18" y1="79.27" x2="127.18" y2="67.58"/><polygon class="cls-36" points="130.17 78.4 127.18 83.58 124.19 78.4 130.17 78.4"/><line class="cls-35" x1="140.93" y1="83.58" x2="140.93" y2="82.83"/><line class="cls-37" x1="140.93" y1="80.4" x2="140.93" y2="73.85"/><line class="cls-35" x1="140.93" y1="72.63" x2="140.93" y2="71.88"/><polygon class="cls-36" points="143.93 72.76 140.93 67.58 137.94 72.76 143.93 72.76"/><line class="cls-35" x1="134.06" y1="135" x2="134.06" y2="19.86"/><rect class="cls-1" x="122.83" width="23.5" height="20.86"/><rect class="cls-38" x="122.83" width="23.5" height="20.86"/><rect class="cls-1" x="190.03" y="53.97" width="70" height="10"/><rect class="cls-39" x="190.03" y="53.97" width="70" height="10"/><g id="ad94e297-0e86-4eaf-aac0-d146ee9aea65"><path class="cls-40" d="M221,54.32l-4.68-4.84a2.29,2.29,0,0,1-.78.14,2.43,2.43,0,1,1,2.24-3.33h4.62v1.62h-4.55a3.68,3.68,0,0,1-.26.57l4.33,4.46,2.34-3.56V38.19h-3.15l4-4,3.94,4H225.9v8.74l5.92-9-6-6a1,1,0,0,0-1.41-.06l-.06.06h0l-14.5,14.43a1,1,0,0,0,0,1.41l0,0h0l14.47,14.47-5.17-5.16Z"/><path class="cls-41" d="M224.22,54.53V49.36l-2.34,3.58,1.72,1.85A1.61,1.61,0,0,1,224.22,54.53Z"/><path class="cls-41" d="M240.24,46.36l-8.48-8.48-5.92,9v7.61a1.86,1.86,0,0,1,.53.3l6.22-6.29a2.91,2.91,0,0,1-.31-.64h-4.67V46.29h4.74a2.42,2.42,0,1,1,2.24,3.33,2.54,2.54,0,0,1-.67-.11l-6.62,6.67a2.6,2.6,0,0,1,.11.62,2.43,2.43,0,0,1-4.86.19h0a2.3,2.3,0,0,1,.14-.9L221,54.37l-1.84,2.76,5.17,5.17a1,1,0,0,0,1.41,0l0,0,14.48-14.48a1,1,0,0,0,.05-1.41s0,0-.05,0Z"/><path class="cls-42" d="M232.35,46.29h-4.74v1.62h4.67a2.53,2.53,0,0,1-.12-.72A2.3,2.3,0,0,1,232.35,46.29Z"/><path class="cls-42" d="M217.81,47.91h4.55V46.29h-4.62a2.3,2.3,0,0,1,.19.9A2.22,2.22,0,0,1,217.81,47.91Z"/><path class="cls-42" d="M227.3,56.18l6.62-6.67a2.43,2.43,0,0,1-1.33-1l-6.22,6.29A2.21,2.21,0,0,1,227.3,56.18Z"/><path class="cls-42" d="M223.65,54.79l-1.72-1.85-4.38-4.46a2.46,2.46,0,0,1-1.27,1L221,54.32,222.69,56A2.3,2.3,0,0,1,223.65,54.79Z"/><path class="cls-1" d="M229,38.19l-3.92-4-4,4h3.15V54.53a1.35,1.35,0,0,0-.57.26,2.28,2.28,0,0,0-1,1.3,2.41,2.41,0,0,0,4.57,1.54c0-.05,0-.09,0-.14a2.31,2.31,0,0,0,.11-.69,2.6,2.6,0,0,0-.11-.62,2.21,2.21,0,0,0-.93-1.34,1.86,1.86,0,0,0-.53-.3V38.19Zm-3.92,20a1.34,1.34,0,1,1,1.34-1.34h0a1.34,1.34,0,0,1-1.37,1.29Z"/><path class="cls-1" d="M217.55,48.48a3.68,3.68,0,0,0,.26-.57,2.22,2.22,0,0,0,.12-.72,2.3,2.3,0,0,0-.19-.9,2.41,2.41,0,1,0-2.24,3.33,2.29,2.29,0,0,0,.78-.14A2.46,2.46,0,0,0,217.55,48.48Zm-2.05,0a1.35,1.35,0,1,1,1.34-1.36v0h0a1.33,1.33,0,0,1-1.27,1.39h-.07Z"/><path class="cls-1" d="M233.92,49.51a2.54,2.54,0,0,0,.67.11,2.43,2.43,0,1,0-2.24-3.33,2.3,2.3,0,0,0-.19.9,2.53,2.53,0,0,0,.12.72,2.91,2.91,0,0,0,.31.64A2.48,2.48,0,0,0,233.92,49.51Zm.67-3.65a1.35,1.35,0,1,1-.3,0Z"/><path class="cls-43" d="M225.05,55.46a1.34,1.34,0,1,0,1.34,1.34h0A1.34,1.34,0,0,0,225.05,55.46Z"/><circle class="cls-43" cx="215.5" cy="47.19" r="1.34"/><path class="cls-43" d="M234.59,48.53a1.35,1.35,0,1,0-1.34-1.36v0h0A1.34,1.34,0,0,0,234.59,48.53Z"/></g></g></g><g id="Text"><path class="cls-44" d="M129.5,164.58l-3.23,8.76h-1l-3.15-8.76h1.06l2.44,7a4.31,4.31,0,0,1,.17.76h0a3.67,3.67,0,0,1,.19-.78l2.5-7Z"/><path class="cls-44" d="M138.52,173.34v-5.92c0-.45,0-1,.09-1.69h0a4.8,4.8,0,0,1-.25.83l-3,6.78h-.43l-3-6.73a4.58,4.58,0,0,1-.25-.88h0a14.22,14.22,0,0,1,0,1.68v5.93h-.92v-8.76H132l2.7,6.17a8.86,8.86,0,0,1,.41,1h0c0-.16.2-.52.42-1.07l2.77-6.14h1.17v8.76Z"/><path class="cls-44" d="M174.5,164.58l-3.23,8.76h-1l-3.15-8.76h1.06l2.44,7a4.31,4.31,0,0,1,.17.76h0a3.67,3.67,0,0,1,.19-.78l2.5-7Z"/><path class="cls-44" d="M183.52,173.34v-5.92c0-.45,0-1,.09-1.69h0a4.8,4.8,0,0,1-.25.83l-3,6.78h-.43l-3-6.73a4.58,4.58,0,0,1-.25-.88h0a14.22,14.22,0,0,1,0,1.68v5.93h-.92v-8.76H177l2.7,6.17a8.86,8.86,0,0,1,.41,1h0c0-.16.19-.52.42-1.07l2.77-6.14h1.17v8.76Z"/><path class="cls-44" d="M250.6,157l-3.22,8.76h-1L243.18,157h1.07l2.43,7a3.57,3.57,0,0,1,.17.76h0a4.48,4.48,0,0,1,.2-.78l2.49-7Z"/><path class="cls-44" d="M259.63,165.76v-5.92c0-.45,0-1,.09-1.69h0a4.6,4.6,0,0,1-.26.83l-3,6.78H256L253,159a3.94,3.94,0,0,1-.25-.88h0c0,.22.05.78.05,1.68v5.93h-.93V157h1.24l2.71,6.17a8.26,8.26,0,0,1,.4,1h0c.06-.16.2-.52.42-1.07L259.4,157h1.17v8.76Z"/><path class="cls-44" d="M286.6,157.19,283.38,166h-1l-3.16-8.76h1.07l2.43,7a3.05,3.05,0,0,1,.17.76h0a4.48,4.48,0,0,1,.2-.78l2.49-7Z"/><path class="cls-44" d="M295.63,166V160c0-.45,0-1,.09-1.69h0a4.6,4.6,0,0,1-.26.83l-3,6.78H292l-3-6.73a4.58,4.58,0,0,1-.25-.88h0c0,.22.05.78.05,1.68V166h-.93v-8.76h1.24l2.71,6.17a8.86,8.86,0,0,1,.41,1h0c.06-.16.2-.52.42-1.07l2.77-6.14h1.18V166Z"/><path class="cls-44" d="M298.43,164.43a2.78,2.78,0,0,0,1.07.57,4.18,4.18,0,0,0,1.24.21q1.89,0,1.89-1.38a1.3,1.3,0,0,0-.19-.71,1.94,1.94,0,0,0-.52-.51,14.21,14.21,0,0,0-1.32-.74,6,6,0,0,1-1.69-1.17,2,2,0,0,1-.47-1.33,2,2,0,0,1,.86-1.7,3.51,3.51,0,0,1,2.13-.62,4.09,4.09,0,0,1,1.83.3v1.12a3.27,3.27,0,0,0-2-.53,2.3,2.3,0,0,0-1.34.36,1.1,1.1,0,0,0-.52,1,1.27,1.27,0,0,0,.37.94,6.44,6.44,0,0,0,1.52.93,5.45,5.45,0,0,1,1.83,1.29,2.11,2.11,0,0,1,.47,1.32,2,2,0,0,1-.82,1.74,3.7,3.7,0,0,1-2.24.6,6.23,6.23,0,0,1-1.14-.14,3,3,0,0,1-1-.36Z"/><path class="cls-44" d="M304.93,164.43A2.93,2.93,0,0,0,306,165a4.25,4.25,0,0,0,1.25.21q1.89,0,1.89-1.38a1.31,1.31,0,0,0-.2-.71,1.69,1.69,0,0,0-.52-.51,14.21,14.21,0,0,0-1.32-.74,5.8,5.8,0,0,1-1.68-1.17,1.91,1.91,0,0,1-.48-1.33,2,2,0,0,1,.86-1.7,3.53,3.53,0,0,1,2.13-.62,4.11,4.11,0,0,1,1.84.3v1.12a3.31,3.31,0,0,0-2-.53,2.34,2.34,0,0,0-1.35.36,1.13,1.13,0,0,0-.52,1,1.31,1.31,0,0,0,.37.94,6.56,6.56,0,0,0,1.53.93,5.28,5.28,0,0,1,1.82,1.29,2.11,2.11,0,0,1,.47,1.32,2.06,2.06,0,0,1-.81,1.74,3.71,3.71,0,0,1-2.25.6,6.23,6.23,0,0,1-1.14-.14,3.12,3.12,0,0,1-1-.36Z"/><path class="cls-44" d="M264.32,9.65a7.46,7.46,0,0,1-1.53-1.15,5.07,5.07,0,0,1-1.09-1.41,6.07,6.07,0,0,1-1.09,1.55,6.31,6.31,0,0,1-1.6,1.3l-.62-.6a5.55,5.55,0,0,0,2-1.69,3.86,3.86,0,0,0,.81-2.3V5.12h-2.48V4.34h5.82v.78h-2.49v.23a3.39,3.39,0,0,0,.85,2.16,5,5,0,0,0,2,1.51Zm-3.83,5.18V10.39h.87v1.55h5.27V10.39h.86v4.44Zm6.14-2.1h-5.27v1.33h5.27Zm0-3V7.13H264V6.35h2.64V3.83h.87V9.78Z"/><path class="cls-44" d="M275.92,10.87v4.26H275V10.87h-4.8v-.78h10.49v.78Zm-4-2.35V4.24H279V5H272.8V7.74h6.41v.78Z"/><path class="cls-44" d="M288.49,12.27a9.59,9.59,0,0,1-1.77-1.82,6.66,6.66,0,0,1-1.06-1.9,6.58,6.58,0,0,1-1.05,2,8.93,8.93,0,0,1-1.75,1.86l-.68-.58a7.16,7.16,0,0,0,2.21-2.4,6,6,0,0,0,.83-3V4.61h.87V6.42a5.58,5.58,0,0,0,.82,2.88,6.78,6.78,0,0,0,2.2,2.29ZM291,9.21v5.93h-.87V3.83H291v4.6h2v.78Z"/><path class="cls-44" d="M219.16,10.81v3.27h-.94V5.46h2.33a3.05,3.05,0,0,1,2.11.67A2.39,2.39,0,0,1,223.42,8a2.58,2.58,0,0,1-.89,2.05,3.06,3.06,0,0,1-2.21.74Zm0-4.47V9.92h1.09a2.45,2.45,0,0,0,1.62-.48,1.72,1.72,0,0,0,.56-1.37c0-1.16-.69-1.73-2.05-1.73Z"/><path class="cls-44" d="M226,14.08h-.94V5.46H226Z"/><path class="cls-44" d="M229.25,10.81v3.27h-.94V5.46h2.33a3.05,3.05,0,0,1,2.11.67A2.39,2.39,0,0,1,233.51,8a2.58,2.58,0,0,1-.89,2.05,3.06,3.06,0,0,1-2.21.74Zm0-4.47V9.92h1.09A2.45,2.45,0,0,0,232,9.44a1.72,1.72,0,0,0,.56-1.37c0-1.16-.69-1.73-2.05-1.73Z"/><path class="cls-44" d="M174.2,10.81v3.27h-.95V5.46h2.33a3.1,3.1,0,0,1,2.12.67A2.42,2.42,0,0,1,178.46,8a2.59,2.59,0,0,1-.9,2.05,3.06,3.06,0,0,1-2.21.74Zm0-4.47V9.92h1.08a2.41,2.41,0,0,0,1.62-.48,1.72,1.72,0,0,0,.56-1.37c0-1.16-.68-1.73-2.05-1.73Z"/><path class="cls-44" d="M181.05,14.08h-.94V5.46h.94Z"/><path class="cls-44" d="M184.29,10.81v3.27h-.95V5.46h2.33a3.1,3.1,0,0,1,2.12.67A2.41,2.41,0,0,1,188.54,8a2.58,2.58,0,0,1-.89,2.05,3.06,3.06,0,0,1-2.21.74Zm0-4.47V9.92h1.08A2.41,2.41,0,0,0,187,9.44a1.72,1.72,0,0,0,.56-1.37c0-1.16-.68-1.73-2.05-1.73Z"/><path class="cls-44" d="M128.66,10.81v3.27h-1V5.46H130a3.08,3.08,0,0,1,2.12.67A2.39,2.39,0,0,1,132.92,8a2.61,2.61,0,0,1-.89,2.05,3.09,3.09,0,0,1-2.22.74Zm0-4.47V9.92h1.08a2.41,2.41,0,0,0,1.62-.48,1.69,1.69,0,0,0,.56-1.37c0-1.16-.68-1.73-2-1.73Z"/><path class="cls-44" d="M135.51,14.08h-.94V5.46h.94Z"/><path class="cls-44" d="M138.75,10.81v3.27h-.95V5.46h2.33a3.08,3.08,0,0,1,2.12.67A2.42,2.42,0,0,1,143,8a2.61,2.61,0,0,1-.89,2.05,3.09,3.09,0,0,1-2.22.74Zm0-4.47V9.92h1.08a2.41,2.41,0,0,0,1.62-.48A1.69,1.69,0,0,0,142,8.07c0-1.16-.68-1.73-2-1.73Z"/><path class="cls-45" d="M114.27,14.08h-.94V5.46h.94Z"/><path class="cls-45" d="M121,14.08h-4.43V5.46h.94v7.76H121Z"/><path class="cls-44" d="M77.5,10.81v3.27h-.94V5.46h2.32A3.06,3.06,0,0,1,81,6.13,2.39,2.39,0,0,1,81.76,8a2.61,2.61,0,0,1-.89,2.05,3.07,3.07,0,0,1-2.22.74Zm0-4.47V9.92h1.08a2.41,2.41,0,0,0,1.62-.48,1.69,1.69,0,0,0,.56-1.37c0-1.16-.68-1.73-2.05-1.73Z"/><path class="cls-44" d="M84.36,14.08h-1V5.46h1Z"/><path class="cls-44" d="M87.59,10.81v3.27h-.94V5.46H89a3.06,3.06,0,0,1,2.12.67A2.39,2.39,0,0,1,91.85,8,2.61,2.61,0,0,1,91,10.07a3.07,3.07,0,0,1-2.22.74Zm0-4.47V9.92h1.08a2.41,2.41,0,0,0,1.62-.48,1.69,1.69,0,0,0,.56-1.37c0-1.16-.68-1.73-2-1.73Z"/><path class="cls-44" d="M7.4,35.88H3V27.26h.94V35H7.4Z"/><path class="cls-44" d="M8.06,32.88a3.33,3.33,0,0,1,.83-2.41,3,3,0,0,1,2.28-.89,2.77,2.77,0,0,1,2.13.85,3.39,3.39,0,0,1,.77,2.36,3.31,3.31,0,0,1-.83,2.35A2.91,2.91,0,0,1,11,36a2.81,2.81,0,0,1-2.16-.87A3.21,3.21,0,0,1,8.06,32.88Zm.94,0a2.53,2.53,0,0,0,.57,1.74,1.91,1.91,0,0,0,1.52.66,1.85,1.85,0,0,0,1.51-.63,2.73,2.73,0,0,0,.52-1.79A2.79,2.79,0,0,0,12.6,31a1.84,1.84,0,0,0-1.51-.64A1.9,1.9,0,0,0,9.57,31,2.69,2.69,0,0,0,9,32.84Z"/><path class="cls-44" d="M15.52,30.16a3.79,3.79,0,0,1,2.07-.58c1.43,0,2.15.76,2.15,2.28v4H18.8v-1h0A2.06,2.06,0,0,1,16.88,36a2.09,2.09,0,0,1-1.44-.48,1.7,1.7,0,0,1-.53-1.3c0-1.14.68-1.81,2-2L18.8,32c0-1.07-.43-1.61-1.28-1.61a3,3,0,0,0-2,.77ZM17.29,33a2.27,2.27,0,0,0-1.06.35,1,1,0,0,0-.35.88,1,1,0,0,0,.33.76,1.28,1.28,0,0,0,.87.28,1.56,1.56,0,0,0,1.23-.53,1.84,1.84,0,0,0,.49-1.32v-.62Z"/><path class="cls-44" d="M26.69,35.88h-.92V34.82h0a2.48,2.48,0,0,1-4,.38A3.4,3.4,0,0,1,21.08,33a3.64,3.64,0,0,1,.77-2.44,2.51,2.51,0,0,1,2-.93,2,2,0,0,1,1.86,1h0V26.77h.92Zm-.92-3.71a1.75,1.75,0,0,0-.51-1.27A1.66,1.66,0,0,0,24,30.37a1.73,1.73,0,0,0-1.44.68A3,3,0,0,0,22,32.9a2.71,2.71,0,0,0,.5,1.7,1.62,1.62,0,0,0,1.36.64,1.72,1.72,0,0,0,1.36-.61,2.19,2.19,0,0,0,.53-1.52Z"/><path class="cls-44" d="M32.83,35.88V27.26h2.41A2.65,2.65,0,0,1,37,27.8a1.76,1.76,0,0,1,.66,1.43,2.15,2.15,0,0,1-.39,1.27,2.08,2.08,0,0,1-1.09.78v0a2.11,2.11,0,0,1,1.39.66,2,2,0,0,1,.52,1.44,2.26,2.26,0,0,1-.79,1.79,3,3,0,0,1-2,.68Zm.94-7.74V31h1a2,2,0,0,0,1.34-.41,1.44,1.44,0,0,0,.48-1.14c0-.85-.56-1.28-1.67-1.28Zm0,3.71V35h1.4a2.08,2.08,0,0,0,1.4-.43,1.47,1.47,0,0,0,.5-1.17c0-1-.71-1.55-2.13-1.55Z"/><path class="cls-44" d="M39.72,30.16a3.83,3.83,0,0,1,2.08-.58c1.43,0,2.14.76,2.14,2.28v4H43v-1h0a2.24,2.24,0,0,1-3.32.63,1.7,1.7,0,0,1-.53-1.3c0-1.14.67-1.81,2-2L43,32c0-1.07-.42-1.61-1.27-1.61a3,3,0,0,0-2,.77ZM41.5,33a2.31,2.31,0,0,0-1.07.35,1,1,0,0,0-.34.88,1,1,0,0,0,.33.76,1.28,1.28,0,0,0,.87.28,1.59,1.59,0,0,0,1.23-.53A1.88,1.88,0,0,0,43,33.38v-.62Z"/><path class="cls-44" d="M45.7,35.88V26.77h.93v9.11Z"/><path class="cls-44" d="M48.68,30.16a3.79,3.79,0,0,1,2.07-.58c1.43,0,2.14.76,2.14,2.28v4H52v-1h0a2.25,2.25,0,0,1-3.33.63,1.7,1.7,0,0,1-.53-1.3c0-1.14.68-1.81,2-2L52,32c0-1.07-.43-1.61-1.28-1.61a3,3,0,0,0-2,.77ZM50.45,33a2.35,2.35,0,0,0-1.07.35,1,1,0,0,0-.34.88,1,1,0,0,0,.33.76,1.28,1.28,0,0,0,.87.28,1.56,1.56,0,0,0,1.23-.53A1.89,1.89,0,0,0,52,33.38v-.62Z"/><path class="cls-44" d="M59.71,35.88h-.93V32.37c0-1.34-.49-2-1.46-2a1.59,1.59,0,0,0-1.24.56,2.12,2.12,0,0,0-.5,1.44v3.51h-.93V29.72h.93v1h0a2.2,2.2,0,0,1,2-1.18,1.92,1.92,0,0,1,1.55.65,3,3,0,0,1,.53,1.89Z"/><path class="cls-44" d="M65.64,35.6A3.27,3.27,0,0,1,64,36a2.79,2.79,0,0,1-2.1-.84A3.08,3.08,0,0,1,61.05,33a3.41,3.41,0,0,1,.87-2.45,3,3,0,0,1,2.31-.92,3.25,3.25,0,0,1,1.42.3v1a2.52,2.52,0,0,0-1.48-.49,2.05,2.05,0,0,0-1.56.68A2.62,2.62,0,0,0,62,32.87a2.51,2.51,0,0,0,.56,1.72,2,2,0,0,0,1.55.65,2.51,2.51,0,0,0,1.53-.54Z"/><path class="cls-44" d="M71.93,33H67.56a2.34,2.34,0,0,0,.58,1.64,1.93,1.93,0,0,0,1.45.56,3,3,0,0,0,1.92-.7v.9a3.53,3.53,0,0,1-2.13.6,2.57,2.57,0,0,1-2-.85,3.51,3.51,0,0,1-.74-2.36,3.36,3.36,0,0,1,.81-2.32,2.58,2.58,0,0,1,2-.92,2.27,2.27,0,0,1,1.85.79,3.24,3.24,0,0,1,.66,2.16Zm-1-.82a2,2,0,0,0-.41-1.34,1.43,1.43,0,0,0-1.16-.49,1.67,1.67,0,0,0-1.2.5,2.33,2.33,0,0,0-.62,1.33Z"/><path class="cls-44" d="M76.49,30.68a1.31,1.31,0,0,0-1.81.42,2.83,2.83,0,0,0-.43,1.63v3.15h-.93V29.72h.93V31h0a2.12,2.12,0,0,1,.64-1,1.43,1.43,0,0,1,1-.37,2,2,0,0,1,.61.08Z"/><path class="cls-44" d="M252.73,49.72h-1.19l-4.5-7a3.38,3.38,0,0,1-.27-.54h0a10.8,10.8,0,0,1,0,1.18v6.32h-.95V41.1h1.26L251.47,48a5.68,5.68,0,0,1,.34.57h0a10.16,10.16,0,0,1-.06-1.28V41.1h1Z"/><path class="cls-44" d="M261.63,49.72h-1.05l-.94-2.44h-3.7l-.87,2.44H254l3.32-8.62h1Zm-2.31-3.31-1.38-3.73a3.07,3.07,0,0,1-.13-.57h0a2.32,2.32,0,0,1-.14.57l-1.36,3.73Z"/><path class="cls-44" d="M267,42h-2.49v7.75h-1V42h-2.48V41.1H267Z"/><path class="cls-44" d="M158.87,104.15a10,10,0,0,1-1.82-1.9,6.21,6.21,0,0,1-1.08-2,7.14,7.14,0,0,1-1.09,2.09,9.41,9.41,0,0,1-1.79,1.91l-.69-.61a7.11,7.11,0,0,0,2.27-2.48,6.24,6.24,0,0,0,.85-3.07V96.21h.88v1.87a5.82,5.82,0,0,0,.84,3,6.87,6.87,0,0,0,2.26,2.38Zm2.25,3v-7.07h-2.7v-.81h2.7V95.4h.9v11.72Z"/><path class="cls-44" d="M164.65,105.15v-.82h10.73v.82Zm1.79-3.27V96.42h.9V98.3h5.35V96.42h.9v5.46Zm6.25-2.76h-5.35v1.94h5.35Z"/><path class="cls-44" d="M182.73,101.28a44.12,44.12,0,0,1-4.76.19V96.16h.89v4.52a29.33,29.33,0,0,0,3.8-.18Zm4.18,5.57a6.55,6.55,0,0,1-2.36-1.1,5.76,5.76,0,0,1-1.7-1.77,4.89,4.89,0,0,1-1.59,1.74,6.41,6.41,0,0,1-2.4,1.13l-.57-.78a5.43,5.43,0,0,0,2.84-1.32,3.11,3.11,0,0,0,1.28-2.17v-.28h.9v.27a3,3,0,0,0,1.25,2.15,5.44,5.44,0,0,0,2.86,1.35Zm-3.27-4.46V98.83H181V98h2.67V95.62h.87v6.77Zm2.09.86V95.4h.88v7.85Z"/><path class="cls-44" d="M200.59,106h-1.08l-1-2.54h-3.78l-.89,2.54h-1.09l3.4-8.94h1Zm-2.37-3.44-1.41-3.86a3.58,3.58,0,0,1-.13-.59h0a2.41,2.41,0,0,1-.14.59l-1.4,3.86Z"/><path class="cls-44" d="M258.1,104a9.07,9.07,0,0,1-1.78-1.82,6.12,6.12,0,0,1-1-1.89,6.84,6.84,0,0,1-1.07,2,9.08,9.08,0,0,1-1.75,1.84l-.67-.59a6.93,6.93,0,0,0,2.22-2.38,5.94,5.94,0,0,0,.82-3V96.36h.87v1.81a5.53,5.53,0,0,0,.82,2.85,6.69,6.69,0,0,0,2.2,2.29Zm2.19,2.86v-6.8h-2.63v-.78h2.63v-3.7h.88v11.28Z"/><path class="cls-44" d="M263.74,105v-.8h10.48v.8Zm1.75-3.15V96.56h.88v1.81h5.22V96.56h.88v5.26Zm6.1-2.66h-5.22V101h5.22Z"/><path class="cls-44" d="M281.39,101.25c-1.09.11-2.64.17-4.64.17V96.31h.87v4.36a27.9,27.9,0,0,0,3.7-.18Zm4.08,5.35a6.32,6.32,0,0,1-2.3-1,5.45,5.45,0,0,1-1.66-1.71,4.7,4.7,0,0,1-1.55,1.68,6.5,6.5,0,0,1-2.34,1.08l-.56-.75a5.34,5.34,0,0,0,2.77-1.27,3,3,0,0,0,1.25-2.09v-.26H282v.25a2.88,2.88,0,0,0,1.22,2.07,5.23,5.23,0,0,0,2.79,1.3Zm-3.19-4.29V98.89h-2.6v-.77h2.6V95.8h.85v6.51Zm2,.82V95.58h.86v7.55Z"/><path class="cls-44" d="M292.22,105.8V97.2h2.41a2.65,2.65,0,0,1,1.73.54,1.76,1.76,0,0,1,.66,1.43,2.15,2.15,0,0,1-.39,1.27,2.2,2.2,0,0,1-1.09.78v0a2.11,2.11,0,0,1,1.39.66,2,2,0,0,1,.52,1.44,2.24,2.24,0,0,1-.79,1.78,2.92,2.92,0,0,1-2,.68Zm.94-7.72v2.83h1a1.94,1.94,0,0,0,1.34-.42,1.4,1.4,0,0,0,.48-1.13c0-.85-.56-1.28-1.67-1.28Zm0,3.7v3.15h1.4a2.13,2.13,0,0,0,1.4-.43,1.48,1.48,0,0,0,.5-1.17c0-1-.71-1.55-2.13-1.55Z"/><path class="cls-44" d="M67.71,213.36q-.13,4.89-5.11,7.74l-.67-.72A8.37,8.37,0,0,0,65.12,218a7,7,0,0,0,1.65-3.82H62.41v-.79Zm2.79,4.5v6h-.87V212.33h.87v4.74h2v.79Z"/><path class="cls-44" d="M79.74,218.33a7.5,7.5,0,0,1-1.55-1.17,5,5,0,0,1-1.11-1.43A5.42,5.42,0,0,1,76,217.31a6.91,6.91,0,0,1-1.62,1.32l-.64-.62a5.65,5.65,0,0,0,2.08-1.74,3.91,3.91,0,0,0,.83-2.34v-1.21h.84v1.21a3.49,3.49,0,0,0,.84,2.2,5.07,5.07,0,0,0,2,1.55Zm-.64,5.39a5.06,5.06,0,0,1-2.73-.62,1.82,1.82,0,0,1,0-3.21,5.11,5.11,0,0,1,2.73-.62,5,5,0,0,1,2.74.62,1.82,1.82,0,0,1,0,3.21A5,5,0,0,1,79.1,223.72Zm0-3.69a4.22,4.22,0,0,0-2,.4,1.14,1.14,0,0,0,0,2.13,5.28,5.28,0,0,0,4.08,0,1.14,1.14,0,0,0,0-2.13A4.23,4.23,0,0,0,79.1,220Zm3.51-3.74V219h-.88v-6.62h.88v3.15h1.71v.81Z"/><path class="cls-44" d="M67.34,233.57a32.89,32.89,0,0,1-4.84.2V226.4h.87V233h.53a29.37,29.37,0,0,0,3.34-.14Zm.87,3.07v-6.55H65.58v-.78h2.63v-3.55h.88v10.88Zm2.26.38V225.53h.88V237Z"/><path class="cls-44" d="M73.72,235.21v-.79H84.25v.79Zm8.9-7.78H76.28v1.66h6v.8h-6v1.57H82.8v.79H75.42v-5.6h7.2Z"/><path class="cls-44" d="M89.21,236.69v-4.22l-3.32.05-.09-.78q4.85,0,7.69-.17l.05.77q-.81,0-3.45.12v4.23Zm.42-6.05a3.1,3.1,0,0,1-2.09-.67,2.27,2.27,0,0,1,0-3.44,3.54,3.54,0,0,1,4.17,0,2.26,2.26,0,0,1,0,3.44A3.12,3.12,0,0,1,89.63,230.64Zm0-4a2.22,2.22,0,0,0-1.46.45,1.54,1.54,0,0,0,0,2.36,2.64,2.64,0,0,0,2.92,0,1.46,1.46,0,0,0,.54-1.18,1.48,1.48,0,0,0-.54-1.18A2.23,2.23,0,0,0,89.63,226.62Zm2.11,7.67v-.81h2.67v-7.95h.88V237h-.88v-2.73Z"/><path class="cls-44" d="M97.81,234.9v-.79h7.7c.11-1.28.19-2.44.22-3.48l-6.85.36-.19-.87,7-.25v-2.45H99.27v-.79h7.33V230q0,1.5-.24,4.14h2v.79Z"/><path class="cls-44" d="M214.25,221c-.59,0-1.68.1-3.27.16v2.54h-.9v-2.49c-1.58,0-2.74.08-3.48.08l-.12-.85q4.44,0,7.71-.22Zm-3.77-1.5a3.27,3.27,0,0,1-2.1-.64,2,2,0,0,1,0-3.2,3.28,3.28,0,0,1,2.11-.64,3.32,3.32,0,0,1,2.1.63,2,2,0,0,1,0,3.21A3.27,3.27,0,0,1,210.48,219.47Zm-2.18,6.76v-3.52h.92v2.71h7.07v.81Zm2.18-10.47a2.26,2.26,0,0,0-1.45.44,1.27,1.27,0,0,0-.55,1,1.28,1.28,0,0,0,.55,1,2.56,2.56,0,0,0,2.9,0,1.3,1.3,0,0,0,.56-1,1.28,1.28,0,0,0-.56-1A2.26,2.26,0,0,0,210.48,215.76Zm4.6,8.33v-1.27H212.5V222h2.58v-7.24H216v9.32Z"/><path class="cls-44" d="M225.07,220.9a7.57,7.57,0,0,1-1.6-1.21,5.27,5.27,0,0,1-1.13-1.47,6.19,6.19,0,0,1-1.16,1.65,6.9,6.9,0,0,1-1.64,1.33l-.65-.63a5.69,5.69,0,0,0,2.12-1.75,4,4,0,0,0,.85-2.41v-.3h-2.58v-.81h6.06v.81h-2.59v.3a3.53,3.53,0,0,0,.88,2.26,5.21,5.21,0,0,0,2.06,1.56Zm-4,5.32V222h7.28v4.22Zm6.38-3.42H222v2.62h5.47Zm0-1.48v-3h-2.81v-.82h2.81v-2.68h.91v6.55Z"/><path class="cls-44" d="M233.33,227.49A8,8,0,0,1,231.4,222a8.31,8.31,0,0,1,1.93-5.56h.88a8.51,8.51,0,0,0-2,5.55,8.31,8.31,0,0,0,2,5.48Z"/><path class="cls-44" d="M236.4,216.46l-.19,2.8h-.68l-.19-2.8Zm2,0-.19,2.8h-.67l-.2-2.8Z"/><path class="cls-44" d="M240.24,224.68v-.81h2.82v-3a2.66,2.66,0,0,1-.24-4.46,4.93,4.93,0,0,1,2.88-.77,4.88,4.88,0,0,1,2.87.77,2.67,2.67,0,0,1-.24,4.46v3h2.83v.81Zm2.43-6.12a1.76,1.76,0,0,0,.83,1.54,3.84,3.84,0,0,0,2.2.56,3.88,3.88,0,0,0,2.19-.56,1.86,1.86,0,0,0,0-3.09,4.47,4.47,0,0,0-4.37,0A1.78,1.78,0,0,0,242.67,218.56Zm1.3,2.69v2.62h3.46v-2.62a6,6,0,0,1-1.73.22A6.51,6.51,0,0,1,244,221.25Z"/><path class="cls-44" d="M259.4,221.3a6.3,6.3,0,0,1-2.87-2.5,5.21,5.21,0,0,1-1.16,1.52,7.25,7.25,0,0,1-1.7,1.22l-.67-.71a5.09,5.09,0,0,0,2.16-1.47,3,3,0,0,0,.92-2v-.57h-2.7V216h2.7v-1.38H257V216h2.68v.8H257v.56a2.72,2.72,0,0,0,.92,1.85,4.78,4.78,0,0,0,2.1,1.3Zm-.53,5.08a5.37,5.37,0,0,1-2.85-.64,1.93,1.93,0,0,1-1-1.65,1.88,1.88,0,0,1,1-1.65,6.76,6.76,0,0,1,5.7,0,1.88,1.88,0,0,1,1,1.65,1.91,1.91,0,0,1-1,1.65A5.37,5.37,0,0,1,258.87,226.38Zm0-3.79a4.36,4.36,0,0,0-2.13.42,1.16,1.16,0,0,0,0,2.16,5.61,5.61,0,0,0,4.26,0,1.16,1.16,0,0,0,0-2.16A4.29,4.29,0,0,0,258.87,222.59Zm2.71-1v-2.79h-2.32V218h2.32v-3.2h.91v6.8Z"/><path class="cls-44" d="M266.6,216.46l-.19,2.8h-.68l-.19-2.8Zm2,0-.19,2.8h-.67l-.2-2.8Z"/><path class="cls-44" d="M269.81,227.49a8.29,8.29,0,0,0,1.95-5.48,8.47,8.47,0,0,0-2-5.55h.88a8.27,8.27,0,0,1,1.95,5.56,8,8,0,0,1-1.95,5.47Z"/><path class="cls-44" d="M274.44,224.41l-.08-.79c1.05,0,2.51,0,4.39-.06s3.14-.09,3.75-.14l.06.79c-.64,0-1.9.1-3.78.14S275.45,224.41,274.44,224.41Zm3.89-3.12a3.24,3.24,0,0,1-2.22-.8,2.63,2.63,0,0,1-.89-2,2.58,2.58,0,0,1,.89-2,3.46,3.46,0,0,1,4.44,0,2.61,2.61,0,0,1,.89,2,2.56,2.56,0,0,1-.89,2A3.2,3.2,0,0,1,278.33,221.29Zm0-4.82a2.21,2.21,0,0,0-1.55.57,2,2,0,0,0,0,2.87,2.41,2.41,0,0,0,3.09,0,1.83,1.83,0,0,0,.63-1.44,1.85,1.85,0,0,0-.62-1.44A2.28,2.28,0,0,0,278.33,216.47Zm5,10.08V214.77h.91v11.78Z"/><path class="cls-44" d="M291.4,224.75V224h10.93v.8Zm1-7.61v-.8h4v-1.45h.91v1.45h4v.8Zm4.49,5.16a5.3,5.3,0,0,1-2.83-.63,1.87,1.87,0,0,1-1-1.61,1.83,1.83,0,0,1,1-1.6,5.27,5.27,0,0,1,2.82-.62,5.37,5.37,0,0,1,2.82.61,1.8,1.8,0,0,1,0,3.22A5.3,5.3,0,0,1,296.86,222.3Zm0-3.69a4.63,4.63,0,0,0-2.12.39,1.18,1.18,0,0,0-.74,1.06,1.2,1.2,0,0,0,.73,1.06,5.87,5.87,0,0,0,4.26,0,1.19,1.19,0,0,0,.72-1.06A1.17,1.17,0,0,0,299,219,4.6,4.6,0,0,0,296.86,218.61Z"/><path class="cls-44" d="M304,221.64v-.77h10.93v.77Zm1.8,4.75v-3.62h7.32v3.62Zm0-6.63V217h6.34v-1.19h-6.34V215h7.25v2.69h-6.35V219h6.62v.78Zm6.39,3.79h-5.53v2.06h5.53Z"/><path class="cls-44" d="M206.83,234.07v-5.55h.9v2h3.6v-2h.89v5.55Zm4.5-2.71h-3.6v1.91h3.6Zm.39,8.23a5.52,5.52,0,0,1-2.83-.6,1.76,1.76,0,0,1,0-3.17,7.27,7.27,0,0,1,5.69,0,1.77,1.77,0,0,1,1,1.58,1.8,1.8,0,0,1-1,1.6A5.71,5.71,0,0,1,211.72,239.59Zm0-3.57a5,5,0,0,0-2.13.36,1.13,1.13,0,0,0-.73,1,1.14,1.14,0,0,0,.74,1,6.32,6.32,0,0,0,4.26,0,1.15,1.15,0,0,0,.75-1,1.12,1.12,0,0,0-.74-1A4.86,4.86,0,0,0,211.72,236Zm3.64-4v2.89h-.91v-7h.91v3.27h1.78v.81Z"/><path class="cls-44" d="M218.81,230.2v-.82h3v-1.47h.91v1.47h3v.82Zm3.51,4.61a3.57,3.57,0,0,1-2.13-.56,1.7,1.7,0,0,1-.77-1.45,1.73,1.73,0,0,1,.78-1.46,3.5,3.5,0,0,1,2.13-.57,3.54,3.54,0,0,1,2.13.57,1.73,1.73,0,0,1,.78,1.46,1.7,1.7,0,0,1-.78,1.44A3.55,3.55,0,0,1,222.32,234.81Zm0-3.26a2.7,2.7,0,0,0-1.48.35,1,1,0,0,0,0,1.79,2.74,2.74,0,0,0,1.49.34,2.7,2.7,0,0,0,1.48-.34,1,1,0,0,0,.53-.89,1,1,0,0,0-.53-.9A2.72,2.72,0,0,0,222.33,231.55Zm2,8.11a6.06,6.06,0,0,1-2.85-.54,1.65,1.65,0,0,1-1-1.51,1.72,1.72,0,0,1,1-1.54,7.56,7.56,0,0,1,5.71,0,1.71,1.71,0,0,1,1,1.54,1.68,1.68,0,0,1-1,1.52A6.22,6.22,0,0,1,224.31,239.66Zm0-3.37c-1.91,0-2.86.44-2.86,1.32s1,1.32,2.86,1.32,2.88-.44,2.88-1.32S226.23,236.29,224.31,236.29Zm3.64-2.64v1.72H227V228H228v2.32h1.78v.78H228v1.78h1.78v.8Z"/><path class="cls-44" d="M206.73,262.17v-6h.9v2.26h3.6V256.2h.9v6Zm4.5-2.9h-3.6v2.09h3.6ZM208.1,267v-3.62h.9v2.8h6.6V267Zm7.17-6.92v4.12h-.91v-8.6h.91v3.66H217v.82Z"/><path class="cls-44" d="M226.33,263.4c-2.46.14-5,.21-7.57.21l-.09-.8c.83,0,2,0,3.37-.05v-.89a3.27,3.27,0,0,1-1.82-.58,1.5,1.5,0,0,1-.65-1.23,1.52,1.52,0,0,1,.78-1.33,3.91,3.91,0,0,1,2.15-.51,3.82,3.82,0,0,1,2.13.53,1.54,1.54,0,0,1,.79,1.31,1.49,1.49,0,0,1-.64,1.23,3.31,3.31,0,0,1-1.83.58v.88c1.36,0,2.48-.08,3.33-.14ZM219,257.76V257h3v-1.3h.9V257h3v.8Zm3.46,1.2a3.09,3.09,0,0,0-1.49.31.91.91,0,0,0-.54.79.88.88,0,0,0,.55.78,2.94,2.94,0,0,0,1.48.31,3,3,0,0,0,1.48-.31.89.89,0,0,0,.54-.78.91.91,0,0,0-.54-.79A3,3,0,0,0,222.5,259Zm-1.9,8.3v-3h.9v2.21h6.81v.8Zm7.43-6.15v3.57h-.91v-9H228v4.66h1.77v.81Z"/><path class="cls-44" d="M233.24,268.35a8,8,0,0,1-1.93-5.46,8.29,8.29,0,0,1,1.93-5.56h.88a8.43,8.43,0,0,0-2,5.54,8.24,8.24,0,0,0,2,5.48Z"/><path class="cls-44" d="M236.31,257.33l-.19,2.8h-.69l-.18-2.8Zm2,0-.18,2.8h-.68l-.19-2.8Z"/><path class="cls-44" d="M244.64,262.94v1.69l2.21-.08,1.35-.06.05.78c-.64.06-1.87.1-3.69.14s-3.22.06-4.21.06l-.08-.79c1.23,0,2.39,0,3.47,0v-1.7a3.21,3.21,0,0,1-1.86-.7,1.92,1.92,0,0,1,.15-3,3.55,3.55,0,0,1,2.18-.6,3.45,3.45,0,0,1,2.15.6,1.81,1.81,0,0,1,.79,1.5,1.92,1.92,0,0,1-.66,1.48A3.06,3.06,0,0,1,244.64,262.94Zm-.9-7.28h.91v1.54h3V258h-7v-.81h3.07Zm.47,3.75a2.57,2.57,0,0,0-1.5.39,1.18,1.18,0,0,0-.55,1,1.13,1.13,0,0,0,.54,1,2.54,2.54,0,0,0,1.51.38,2.47,2.47,0,0,0,1.49-.38,1.15,1.15,0,0,0,.54-1,1.2,1.2,0,0,0-.55-1A2.5,2.5,0,0,0,244.21,259.41Zm4.9,8V255.64H250v11.77Z"/><path class="cls-44" d="M259.12,262.27a8.07,8.07,0,0,1-1.65-1.38,6.3,6.3,0,0,1-1.1-1.54,7.28,7.28,0,0,1-1.18,1.79,6.58,6.58,0,0,1-1.65,1.44l-.66-.63a5.73,5.73,0,0,0,2.13-1.89,4.32,4.32,0,0,0,.88-2.53V256h.89v1.51a3.86,3.86,0,0,0,.91,2.36,5.63,5.63,0,0,0,2,1.72Zm-4,4.75v-3.74H256v2.94h6.65v.8Zm6.34-3v-8.37h.91V264Z"/><path class="cls-44" d="M266.51,257.33l-.19,2.8h-.69l-.18-2.8Zm2,0-.18,2.8h-.68l-.19-2.8Z"/><path class="cls-44" d="M269.71,268.35a8.28,8.28,0,0,0,2-5.48,8.42,8.42,0,0,0-2-5.54h.89a8.26,8.26,0,0,1,1.95,5.56,7.94,7.94,0,0,1-1.95,5.46Z"/><path class="cls-44" d="M274.35,265.27l-.09-.78c1.05,0,2.52,0,4.4-.06s3.13-.09,3.75-.15l0,.79c-.63.05-1.89.1-3.78.14S275.36,265.27,274.35,265.27Zm3.89-3.12a3.24,3.24,0,0,1-2.22-.8,2.69,2.69,0,0,1,0-4,3.2,3.2,0,0,1,2.23-.81,3.12,3.12,0,0,1,2.21.82,2.56,2.56,0,0,1,.9,2,2.6,2.6,0,0,1-.89,2A3.24,3.24,0,0,1,278.24,262.15Zm0-4.81a2.28,2.28,0,0,0-1.56.56,2,2,0,0,0,0,2.88,2.41,2.41,0,0,0,3.09,0,1.84,1.84,0,0,0,.62-1.45,1.82,1.82,0,0,0-.62-1.44A2.23,2.23,0,0,0,278.24,257.34Zm5,10.07V255.64h.91v11.77Z"/><path class="cls-44" d="M291.31,265.61v-.8h10.92v.8Zm1-7.61v-.8h4.05v-1.44h.9v1.44h4v.8Zm4.5,5.16a5.34,5.34,0,0,1-2.84-.63,1.79,1.79,0,0,1,0-3.21,6.75,6.75,0,0,1,5.65,0,1.83,1.83,0,0,1,1,1.6,1.87,1.87,0,0,1-1,1.62A5.36,5.36,0,0,1,296.77,263.16Zm0-3.69a4.49,4.49,0,0,0-2.12.4,1.16,1.16,0,0,0-.74,1.05,1.21,1.21,0,0,0,.73,1.07,4.63,4.63,0,0,0,2.13.4,4.56,4.56,0,0,0,2.12-.4,1.21,1.21,0,0,0,.73-1.07,1.17,1.17,0,0,0-.73-1.05A4.49,4.49,0,0,0,296.77,259.47Z"/><path class="cls-44" d="M303.89,262.51v-.78h10.93v.78Zm1.81,4.74v-3.61H313v3.61Zm0-6.63v-2.76h6.35v-1.19h-6.35v-.77H313v2.7h-6.35v1.25h6.63v.77Zm6.39,3.79h-5.53v2.07h5.53Z"/><path class="cls-44" d="M206.73,274.93v-5.54h.9v2h3.6v-2h.9v5.54Zm4.5-2.71h-3.6v1.91h3.6Zm.4,8.23a5.67,5.67,0,0,1-2.84-.59,1.81,1.81,0,0,1-1-1.6,1.76,1.76,0,0,1,1-1.57,7.21,7.21,0,0,1,5.69,0,1.77,1.77,0,0,1,0,3.18A5.64,5.64,0,0,1,211.63,280.45Zm0-3.56a5,5,0,0,0-2.13.36,1.1,1.1,0,0,0-.73,1,1.13,1.13,0,0,0,.74,1,4.8,4.8,0,0,0,2.12.37,4.9,4.9,0,0,0,2.14-.37,1.14,1.14,0,0,0,.74-1,1.11,1.11,0,0,0-.73-1A5.06,5.06,0,0,0,211.63,276.89Zm3.64-4v2.89h-.91v-7h.91v3.26H217v.81Z"/><path class="cls-44" d="M218.72,271.06v-.81h3v-1.48h.9v1.48h3v.81Zm3.5,4.61a3.5,3.5,0,0,1-2.13-.56,1.71,1.71,0,0,1-.77-1.45,1.74,1.74,0,0,1,.78-1.46,4.35,4.35,0,0,1,4.27,0,1.76,1.76,0,0,1,0,2.91A3.66,3.66,0,0,1,222.22,275.67Zm0-3.26a2.72,2.72,0,0,0-1.48.35,1,1,0,0,0-.53.9,1,1,0,0,0,.53.89,2.7,2.7,0,0,0,1.48.35,2.74,2.74,0,0,0,1.49-.35,1,1,0,0,0,.53-.89,1,1,0,0,0-.54-.9A2.7,2.7,0,0,0,222.23,272.41Zm2,8.11a6,6,0,0,1-2.85-.53,1.67,1.67,0,0,1-1-1.52,1.71,1.71,0,0,1,1-1.54,7.53,7.53,0,0,1,5.7,0,1.7,1.7,0,0,1,1,1.54,1.66,1.66,0,0,1-1,1.52A6.08,6.08,0,0,1,224.22,280.52Zm0-3.37c-1.91,0-2.87.44-2.87,1.32s1,1.33,2.87,1.33,2.88-.44,2.88-1.33S226.14,277.15,224.22,277.15Zm3.63-2.64v1.72H227v-7.39h.9v2.31h1.78v.79h-1.78v1.77h1.78v.8Z"/><path class="cls-44" d="M76.74,125.83H72.2v-8.94h1v8h3.57Z"/><path class="cls-44" d="M78.06,125.83v-8.94h2.47a2.65,2.65,0,0,1,1.77.56,1.83,1.83,0,0,1,.68,1.48,2.29,2.29,0,0,1-.4,1.32,2.17,2.17,0,0,1-1.12.81v0a2.21,2.21,0,0,1,1.43.69,2.16,2.16,0,0,1,.53,1.49,2.36,2.36,0,0,1-.81,1.86,3,3,0,0,1-2,.71Zm1-8v2.94H80.1a2,2,0,0,0,1.38-.43,1.51,1.51,0,0,0,.48-1.18c0-.88-.57-1.33-1.71-1.33Zm0,3.84v3.28h1.43a2.1,2.1,0,0,0,1.43-.45,1.54,1.54,0,0,0,.52-1.22c0-1.07-.73-1.61-2.18-1.61Z"/><path class="cls-44" d="M90.85,126.63V124h6.32v-1H90.85v-.8H94v-1.19H89.08v-.8H99.82v.8H94.91v1.19h3.14v2.58H91.73v1h6.63v.8Zm-.6-7.37v-.77H92l-.11-1.83h.88l.13,1.83H96l.13-1.83H97l-.11,1.83h1.73v.77Zm.15-3v-.8h8.11v.8Z"/></g></svg>