<svg xmlns="http://www.w3.org/2000/svg" xmlns:xlink="http://www.w3.org/1999/xlink" viewBox="0 0 299.16 285.86"><defs><style>.cls-1{fill:#fff;}.cls-2{fill:#ccc;fill-opacity:0.3;}.cls-22,.cls-23,.cls-25,.cls-3,.cls-4,.cls-8{fill:none;stroke-miterlimit:10;}.cls-22,.cls-3,.cls-4{stroke:#3c3c41;}.cls-4{stroke-dasharray:1.31 2.19;}.cls-5,.cls-6,.cls-7{fill:#3c3c41;}.cls-6{opacity:0.2;}.cls-33,.cls-34,.cls-6,.cls-7,.cls-8{isolation:isolate;}.cls-7{opacity:0.02;}.cls-23,.cls-25,.cls-8{stroke:#365615;}.cls-8{stroke-width:0.5px;opacity:0.5;}.cls-9{fill:url(#Degradado_sin_nombre);}.cls-10{fill:#50e6ff;}.cls-11{fill:#c3f1ff;}.cls-12{fill:#9cebff;}.cls-13{fill:url(#Degradado_sin_nombre_2);}.cls-14{fill:url(#Degradado_sin_nombre_3);}.cls-15{fill:url(#Degradado_sin_nombre_4);}.cls-16{fill:#005ba1;}.cls-17{fill:#0078d4;}.cls-18{fill:url(#Degradado_sin_nombre_5);}.cls-19{fill:url(#Degradado_sin_nombre_6);}.cls-20{fill:url(#Degradado_sin_nombre_7);}.cls-21{fill:url(#Degradado_sin_nombre_8);}.cls-22,.cls-25{stroke-dasharray:1.46 2.43;}.cls-24{fill:#365615;}.cls-26{fill:url(#Degradado_sin_nombre_9);}.cls-27{fill:url(#Degradado_sin_nombre_10);}.cls-28{fill:url(#Degradado_sin_nombre_11);}.cls-29{fill:#1490df;}.cls-30{fill:url(#Degradado_sin_nombre_12);}.cls-31{fill:#b4ec36;}.cls-32{fill:#5ea0ef;}.cls-33{fill:#9bf00b;}.cls-33,.cls-34{opacity:0.4;}.cls-34,.cls-35{fill:#6ebcdb;}.cls-36{fill:#5db4d7;}.cls-37{fill:#e6e6e6;}.cls-38{fill:#86d633;}.cls-39{fill:#1e1e1e;}</style><linearGradient id="Degradado_sin_nombre" x1="99.67" y1="476.24" x2="99.67" y2="457.48" gradientTransform="translate(0 -322.62)" gradientUnits="userSpaceOnUse"><stop offset="0" stop-color="#0078d4"/><stop offset="0.82" stop-color="#5ea0ef"/></linearGradient><linearGradient id="Degradado_sin_nombre_2" x1="99.67" y1="483.48" x2="99.67" y2="476.24" gradientTransform="translate(0 -322.62)" gradientUnits="userSpaceOnUse"><stop offset="0.15" stop-color="#ccc"/><stop offset="1" stop-color="#707070"/></linearGradient><linearGradient id="Degradado_sin_nombre_3" x1="140.38" y1="476.24" x2="140.38" y2="457.48" xlink:href="#Degradado_sin_nombre"/><linearGradient id="Degradado_sin_nombre_4" x1="140.36" y1="483.48" x2="140.36" y2="476.24" xlink:href="#Degradado_sin_nombre_2"/><linearGradient id="Degradado_sin_nombre_5" x1="267.03" y1="464.26" x2="267.03" y2="453.92" xlink:href="#Degradado_sin_nombre"/><linearGradient id="Degradado_sin_nombre_6" x1="267.07" y1="468.25" x2="267.07" y2="464.26" xlink:href="#Degradado_sin_nombre_2"/><linearGradient id="Degradado_sin_nombre_7" x1="219.33" y1="464.24" x2="219.33" y2="445.48" xlink:href="#Degradado_sin_nombre"/><linearGradient id="Degradado_sin_nombre_8" x1="219.35" y1="471.48" x2="219.35" y2="464.24" xlink:href="#Degradado_sin_nombre_2"/><linearGradient id="Degradado_sin_nombre_9" x1="71.05" y1="523.53" x2="73.42" y2="525.9" gradientTransform="translate(2.85 -323.95)" gradientUnits="userSpaceOnUse"><stop offset="0" stop-color="#86d633"/><stop offset="0.24" stop-color="#83d232"/><stop offset="0.5" stop-color="#7cc52f"/><stop offset="0.76" stop-color="#6fb02a"/><stop offset="1" stop-color="#5e9624"/></linearGradient><linearGradient id="Degradado_sin_nombre_10" x1="65.71" y1="523.53" x2="68.06" y2="525.9" xlink:href="#Degradado_sin_nombre_9"/><linearGradient id="Degradado_sin_nombre_11" x1="60.36" y1="523.53" x2="62.72" y2="525.9" xlink:href="#Degradado_sin_nombre_9"/><linearGradient id="Degradado_sin_nombre_12" x1="86.49" y1="388.4" x2="86.49" y2="352.46" gradientTransform="translate(0 -322.62)" gradientUnits="userSpaceOnUse"><stop offset="0" stop-color="#5e9624"/><stop offset="0.02" stop-color="#5f9724"/><stop offset="1" stop-color="#76bc2d"/></linearGradient></defs><title>OJ104903209</title><g id="Target"><g id="Shapes"><rect class="cls-1" width="299.16" height="285.86"/><rect class="cls-2" x="143.16" y="210.86" width="155" height="35"/><rect class="cls-2" x="143.16" y="250.86" width="155" height="35"/><line class="cls-3" x1="158.86" y1="260.86" x2="158.11" y2="260.86"/><line class="cls-4" x1="155.92" y1="260.86" x2="150.01" y2="260.86"/><line class="cls-3" x1="148.91" y1="260.86" x2="148.16" y2="260.86"/><polygon class="cls-5" points="157.98 257.86 163.16 260.86 157.98 263.85 157.98 257.86"/><path class="cls-5" d="M292.5,200.86h-1v-1h1Zm-3,0h-1v-1h1Zm-3,0h-1v-1h1Zm-3,0h-1v-1h1Zm-3,0h-1v-1h1Zm-3,0h-1v-1h1Zm-3,0h-1v-1h1Zm-3,0h-1v-1h1Zm-3,0h-1v-1h1Zm-3,0h-1v-1h1Zm-3,0h-1v-1h1Zm-3,0h-1v-1h1Zm-3,0h-1v-1h1Zm-3,0h-1v-1h1Zm-3,0h-1v-1h1Zm-3,0h-1v-1h1Zm-3,0h-1v-1h1Zm-3,0h-1v-1h1Zm-3,0h-1v-1h1Zm-3,0h-1v-1h1Zm-3,0h-1v-1h1Zm-3,0h-1v-1h1Zm-3,0h-1v-1h1Zm-3,0h-1v-1h1Zm-3,0h-1v-1h1Zm-3,0h-1v-1h1Zm-3,0h-1v-1h1Zm-3,0h-1v-1h1Zm-3,0h-1v-1h1Zm-3,0h-1v-1h1Zm-3,0h-1v-1h1Zm-3,0h-1v-1h1Zm-3,0h-1v-1h1Zm-3,0h-1v-1h1Zm-3,0h-1v-1h1Zm-3,0h-1v-1h1Zm-3,0h-1v-1h1Zm-3,0h-1v-1h1Zm-3,0h-1v-1h1Zm-3,0h-1v-1h1Zm-3,0h-1v-1h1Zm-3,0h-1v-1h1Zm-3,0h-1v-1h1Zm-3,0h-1v-1h1Zm-3,0h-1v-1h1Zm-3,0h-1v-1h1Zm-3,0h-1v-1h1Zm-3,0h-1v-1h1Zm-3,0h-1v-1h1Zm-3,0h-1v-1h1Zm-3,0h-1v-1h1Zm-3,0h-1v-1h1Zm-3,0h-1v-1h1Zm-3,0h-1v-1h1Zm-3,0h-1v-1h1Zm-3,0h-1v-1h1Zm-3,0h-1v-1h1Zm-3,0h-1v-1h1Zm-3,0h-1v-1h1Zm-3,0h-1v-1h1Zm-3,0h-1v-1h1Zm-3,0h-1v-1h1Zm-3,0h-1v-1h1Zm-3,0h-1v-1h1Zm-3,0h-1v-1h1Zm-3,0h-1v-1h1Zm-3,0h-1v-1h1Zm-3,0h-1v-1h1Zm-3,0h-1v-1h1Zm-3,0h-1v-1h1Zm-30,0h-1v-1h1Zm239.48-.08-.16-1a4.4,4.4,0,0,0,.86-.24l.37.93a4.94,4.94,0,0,1-1.42.31ZM52,200.59a6,6,0,0,1-1-.45l.49-.87a4.09,4.09,0,0,0,.83.36Zm245.52-1.29-.7-.72a5.35,5.35,0,0,0,.58-.68l.83.56a6.54,6.54,0,0,1-.74.84Zm-248.18-.59a5.06,5.06,0,0,1-.58-.94l.89-.44a5.41,5.41,0,0,0,.48.76Zm249.74-2.26-1-.2a4.41,4.41,0,0,0,.09-.89l1-.06v.06a5,5,0,0,1-.12,1.09Zm-250.88-.8v-1h1v1Zm251-2.36h-1v-1h1Zm-250-.67h-1v-1h1Zm250-2.33h-1v-1h1Zm-250-.67h-1v-1h1Zm250-2.34h-1v-1h1Zm-250-.67h-1v-1h1Zm250-2.33h-1v-1h1Zm-250-.67h-1v-1h1Zm250-2.34h-1v-1h1Zm-250-.67h-1v-1h1Zm250-2.33h-1v-1h1Zm-250-.67h-1v-1h1Zm250-2.34h-1v-1h1Zm-250-.67h-1v-1h1Zm250-2.33h-1v-1h1Zm-250-.67h-1v-1h1Zm250-2.34h-1v-1h1Zm-250-.67h-1v-1h1Zm250-2.33h-1v-1h1Zm-250-.67h-1v-1h1Zm250-2.34h-1v-1h1Zm-250-.67h-1v-1h1Zm250-2.33h-1v-1h1Zm-250-.67h-1v-1h1Zm250-2.34h-1v-1h1Zm-250-.67h-1v-1h1Zm250-2.33h-1v-1h1Zm-250-.67h-1v-1h1Zm250-2.34h-1v-1h1Zm-250-.67h-1v-1h1Zm250-2.33h-1v-1h1Zm-250-.67h-1v-1h1Zm250-2.34h-1v-1h1Zm-250-.67h-1v-1h1Zm250-2.33h-1v-1h1Zm-250-.67h-1v-1h1Zm250-2.34h-1v-1h1Zm-250-.67h-1v-1h1Zm250-2.33h-1v-1h1Zm-250-.67h-1v-1h1Zm250-2.34h-1v-1h1Zm-250-.67h-1v-1h1Zm250-2.33h-1v-1h1Zm-250-.67h-1v-1h1Zm250-2.34h-1v-1h1Zm-250-.67h-1v-1h1Zm250-2.33h-1v-1h1Zm-250-.67h-1v-1h1Zm250-2.34h-1v-1h1Zm-250-.67h-1v-1h1Zm250-2.33h-1v-1h1Zm-250-.67h-1v-1h1Zm250-2.34h-1v-1h1Zm-250-.67h-1v-1h1Zm250-2.33h-1v-1h1Zm-250-.67h-1v-1h1Zm250-2.34h-1v-1h1Zm-250-.67h-1v-1h1Zm250-2.33h-1v-1h1Zm-250-.67h-1v-1h1Zm250-2.34h-1v-1h1Zm-250-.67h-1v-1h1Zm250-2.33h-1v-1h1Zm-250-.67h-1v-1h1Zm250-2.34h-1v-1h1Zm-250-.67h-1v-1h1Zm250-2.33h-1v-1h1Zm-250-.67h-1v-1h1Zm250-2.34h-1v-1h1Zm-250-.67h-1v-1h1Zm250-2.33h-1v-1h1Zm-250-.67h-1v-1h1Zm250-2.34h-1v-1h1Zm-250-.67h-1v-1h1Zm250-2.33h-1v-1h1Zm-250-.68h-1v-1h1Zm250-2.33h-1v-1h1Zm-250-.67h-1v-1h1Zm250-2.33h-1v-1h1Zm-250-.67h-1v-1h1Zm250-2.34h-1v-1h1Zm-250-.67h-1v-1h1Zm250-2.33h-1v-1h1Zm-250-.68h-1v-1h1Zm250-2.33h-1v-1h1Zm-250-.67h-1v-1h1Zm250-2.33h-1v-1h1Zm-250-.68h-1v-1h1Zm250-2.33h-1v-1h1Zm-250-.67h-1v-1h1Zm250-2.33h-1v-1h1Zm-250-.68h-1v-1h1Zm250-2.33h-1v-1h1Zm-250-.67h-1v-1h1Zm250-2.34h-1v-1l1-.06v1.06Zm-251-.67h0a5.47,5.47,0,0,1,.11-1.07l1,.2a4.28,4.28,0,0,0-.09.87Zm249.53-2a3.75,3.75,0,0,0-.48-.76L298,48a5.62,5.62,0,0,1,.59.93ZM49.94,48.84l-.83-.57a6.31,6.31,0,0,1,.71-.84l.7.72A4.24,4.24,0,0,0,49.94,48.84Zm245.91-1.41a4,4,0,0,0-.82-.36l.3-1a5.2,5.2,0,0,1,1,.43ZM52,47.17l-.37-.93a4.92,4.92,0,0,1,1.06-.3l.18,1A4.29,4.29,0,0,0,52,47.17Zm241.18-.31h-1v-1h1Zm-3,0h-1v-1h1Zm-3,0h-1v-1h1Zm-3,0h-1v-1h1Zm-3,0h-1v-1h1Zm-3,0h-1v-1h1Zm-3,0h-1v-1h1Zm-3,0h-1v-1h1Zm-3,0h-1v-1h1Zm-3,0h-1v-1h1Zm-3,0h-1v-1h1Zm-3,0h-1v-1h1Zm-3,0h-1v-1h1Zm-3,0h-1v-1h1Zm-3,0h-1v-1h1Zm-3,0h-1v-1h1Zm-3,0h-1v-1h1Zm-3,0h-1v-1h1Zm-3,0h-1v-1h1Zm-3,0h-1v-1h1Zm-27,0h-1v-1h1Zm-3,0h-1v-1h1Zm-3,0h-1v-1h1Zm-3,0h-1v-1h1Zm-3,0h-1v-1h1Zm-3,0h-1v-1h1Zm-3,0h-1v-1h1Zm-3,0h-1v-1h1Zm-3,0h-1v-1h1Zm-3,0h-1v-1h1Zm-3,0h-1v-1h1Zm-3,0h-1v-1h1Zm-3,0h-1v-1h1Zm-3,0h-1v-1h1Zm-3,0h-1v-1h1Zm-3,0h-1v-1h1Zm-3,0h-1v-1h1Zm-3,0h-1v-1h1Zm-3,0h-1v-1h1Zm-3,0h-1v-1h1Zm-3,0h-1v-1h1Zm-3,0h-1v-1h1Zm-3,0h-1v-1h1Zm-3,0h-1v-1h1Zm-3,0h-1v-1h1Zm-3,0h-1v-1h1Zm-3,0h-1v-1h1Zm-3,0h-1v-1h1Zm-3,0h-1v-1h1Zm-3,0h-1v-1h1Zm-3,0h-1v-1h1Zm-3,0h-1v-1h1Zm-3,0h-1v-1h1Zm-3,0h-1v-1h1Zm-3,0h-1v-1h1Zm-3,0h-1v-1h1Zm-3,0h-1v-1h1Zm-3,0h-1v-1h1Zm-3,0h-1v-1h1Zm-3,0h-1v-1h1Zm-3,0h-1v-1h1Zm-3,0h-1v-1h1Zm-3,0h-1v-1h1Zm-3,0h-1v-1h1Zm-3,0h-1v-1h1Zm-3,0h-1v-1h1Zm-3,0h-1v-1h1Zm-3,0h-1v-1h1Zm-3,0h-1v-1h1Zm-3,0h-1v-1h1Zm-3,0h-1v-1h1Zm-3,0h-1v-1h1Z"/><rect class="cls-1" x="58.16" y="90.86" width="125" height="95"/><rect class="cls-6" x="58.16" y="90.86" width="125" height="95"/><rect class="cls-1" x="63.16" y="110.86" width="115" height="70"/><rect class="cls-7" x="63.16" y="110.86" width="115" height="70"/><rect class="cls-8" x="63.16" y="110.86" width="115" height="70"/><rect class="cls-9" x="85.6" y="134.86" width="28.14" height="18.76" rx="0.94"/><polygon class="cls-10" points="104.36 141.5 104.36 146.96 99.67 149.71 99.67 144.24 104.36 141.5"/><polygon class="cls-11" points="104.36 141.5 99.67 144.25 94.98 141.5 99.67 138.76 104.36 141.5"/><polygon class="cls-12" points="99.67 144.25 99.67 149.71 94.98 146.96 94.98 141.5 99.67 144.25"/><polygon class="cls-11" points="94.98 146.96 99.67 144.24 99.67 149.71 94.98 146.96"/><polygon class="cls-12" points="104.36 146.96 99.67 144.24 99.67 149.71 104.36 146.96"/><path class="cls-13" d="M105.32,159.29c-2.79-.44-2.89-2.44-2.89-5.67H96.91c0,3.23-.1,5.23-2.88,5.67a1.56,1.56,0,0,0-1.39,1.57h14.07A1.56,1.56,0,0,0,105.32,159.29Z"/><rect class="cls-14" x="126.31" y="134.86" width="28.14" height="18.76" rx="0.94"/><polygon class="cls-10" points="145.07 141.5 145.07 146.96 140.38 149.71 140.38 144.24 145.07 141.5"/><polygon class="cls-11" points="145.07 141.5 140.38 144.25 135.69 141.5 140.38 138.76 145.07 141.5"/><polygon class="cls-12" points="140.38 144.25 140.38 149.71 135.69 146.96 135.69 141.5 140.38 144.25"/><polygon class="cls-11" points="135.69 146.96 140.38 144.24 140.38 149.71 135.69 146.96"/><polygon class="cls-12" points="145.07 146.96 140.38 144.24 140.38 149.71 145.07 146.96"/><path class="cls-15" d="M146,159.29c-2.78-.44-2.89-2.44-2.89-5.67h-5.52c0,3.23-.09,5.23-2.88,5.67a1.56,1.56,0,0,0-1.39,1.57h14.07A1.56,1.56,0,0,0,146,159.29Z"/><rect class="cls-1" x="193.16" y="90.86" width="95" height="95"/><rect class="cls-6" x="193.16" y="90.86" width="95" height="95"/><rect class="cls-16" x="248.76" y="119.63" width="15.46" height="10.32" rx="0.52"/><polygon class="cls-10" points="259.07 123.28 259.07 126.3 256.5 127.79 256.5 124.8 259.07 123.28"/><polygon class="cls-11" points="259.07 123.28 256.5 124.8 253.92 123.28 256.5 121.77 259.07 123.28"/><polygon class="cls-12" points="256.5 124.8 256.5 127.79 253.92 126.3 253.92 123.28 256.5 124.8"/><rect class="cls-17" x="254.83" y="125.55" width="15.46" height="10.32" rx="0.52"/><polygon class="cls-10" points="265.14 129.22 265.14 132.21 262.57 133.73 262.57 130.72 265.14 129.22"/><polygon class="cls-11" points="265.14 129.22 262.57 130.72 259.99 129.22 262.57 127.7 265.14 129.22"/><polygon class="cls-12" points="262.57 130.72 262.57 133.73 259.99 132.21 259.99 129.22 262.57 130.72"/><rect class="cls-18" x="259.3" y="131.3" width="15.46" height="10.32" rx="0.52"/><polygon class="cls-10" points="269.61 134.97 269.61 137.96 267.04 139.48 267.04 136.47 269.61 134.97"/><polygon class="cls-11" points="269.61 134.97 267.04 136.48 264.45 134.97 267.04 133.45 269.61 134.97"/><polygon class="cls-12" points="267.04 136.48 267.04 139.48 264.45 137.96 264.45 134.97 267.04 136.48"/><polygon class="cls-11" points="264.45 137.96 267.04 136.47 267.04 139.48 264.45 137.96"/><polygon class="cls-12" points="269.61 137.96 267.04 136.47 267.04 139.48 269.61 137.96"/><path class="cls-19" d="M270.13,144.75c-1.53-.24-1.53-1.34-1.53-3.05h-3.06c0,1.77,0,2.87-1.53,3.05a.91.91,0,0,0-.76.88h7.64A.91.91,0,0,0,270.13,144.75Z"/><rect class="cls-20" x="205.26" y="122.86" width="28.14" height="18.76" rx="0.94"/><polygon class="cls-10" points="224.02 129.5 224.02 134.96 219.33 137.71 219.33 132.24 224.02 129.5"/><polygon class="cls-11" points="224.02 129.5 219.33 132.25 214.64 129.5 219.33 126.76 224.02 129.5"/><polygon class="cls-12" points="219.33 132.25 219.33 137.71 214.64 134.96 214.64 129.5 219.33 132.25"/><polygon class="cls-11" points="214.64 134.96 219.33 132.24 219.33 137.71 214.64 134.96"/><polygon class="cls-12" points="224.02 134.96 219.33 132.24 219.33 137.71 224.02 134.96"/><path class="cls-21" d="M225,147.29c-2.78-.44-2.89-2.44-2.89-5.67h-5.52c0,3.23-.1,5.23-2.88,5.67a1.56,1.56,0,0,0-1.39,1.57h14.07A1.56,1.56,0,0,0,225,147.29Z"/><line class="cls-3" x1="170.03" y1="91.21" x2="170.03" y2="64.14"/><line class="cls-3" x1="162.5" y1="85.68" x2="162.5" y2="73.98"/><polygon class="cls-5" points="165.5 74.86 162.5 69.68 159.51 74.86 165.5 74.86"/><line class="cls-3" x1="177.55" y1="81.37" x2="177.55" y2="80.62"/><line class="cls-22" x1="177.55" y1="78.19" x2="177.55" y2="71.64"/><line class="cls-3" x1="177.55" y1="70.43" x2="177.55" y2="69.68"/><polygon class="cls-5" points="180.55 80.5 177.55 85.68 174.56 80.5 180.55 80.5"/><line class="cls-3" x1="210.69" y1="91.21" x2="210.69" y2="64.14"/><line class="cls-3" x1="203.16" y1="85.68" x2="203.16" y2="73.98"/><polygon class="cls-5" points="206.16 74.86 203.16 69.68 200.17 74.86 206.16 74.86"/><line class="cls-3" x1="218.21" y1="81.37" x2="218.21" y2="80.62"/><line class="cls-22" x1="218.21" y1="78.19" x2="218.21" y2="71.64"/><line class="cls-3" x1="218.21" y1="70.43" x2="218.21" y2="69.68"/><polygon class="cls-5" points="221.21 80.5 218.21 85.68 215.22 80.5 221.21 80.5"/><line class="cls-23" x1="86.41" y1="110.86" x2="86.41" y2="19.87"/><line class="cls-23" x1="80.04" y1="82.55" x2="80.04" y2="70.86"/><polygon class="cls-24" points="83.03 81.67 80.04 86.86 77.05 81.67 83.03 81.67"/><line class="cls-23" x1="93.15" y1="86.86" x2="93.15" y2="86.11"/><line class="cls-25" x1="93.15" y1="83.68" x2="93.15" y2="77.12"/><line class="cls-23" x1="93.15" y1="75.91" x2="93.15" y2="75.16"/><polygon class="cls-24" points="96.14 76.04 93.15 70.86 90.16 76.04 96.14 76.04"/><line class="cls-3" x1="191.87" y1="38.29" x2="191.87" y2="18.79"/><line class="cls-3" x1="154.17" y1="222.93" x2="165.3" y2="222.93"/><polygon class="cls-5" points="155.05 225.93 149.87 222.93 155.05 219.94 155.05 225.93"/><path class="cls-3" d="M188,41,150.24,29.65a4.28,4.28,0,0,1-2.87-3.86v-7"/><path class="cls-3" d="M196.18,41l43.29-11.43a4.12,4.12,0,0,0,2.9-3.76v-7"/><circle class="cls-26" cx="74.9" cy="200.57" r="1.67"/><circle class="cls-27" cx="69.56" cy="200.59" r="1.67"/><circle class="cls-28" cx="64.22" cy="200.59" r="1.67"/><path class="cls-10" d="M65.44,207.28l-1,1a.44.44,0,0,1-.62,0h0l-7.09-7.07a.87.87,0,0,1,0-1.23h0l1-1h0l7.7,7.69a.45.45,0,0,1,0,.61Z"/><path class="cls-29" d="M64.33,193l1,1a.44.44,0,0,1,0,.62l-7.57,7.59h0l-1-1a.86.86,0,0,1,0-1.22h0l7-7A.43.43,0,0,1,64.33,193Z"/><path class="cls-10" d="M81.28,199l1,1a.87.87,0,0,1,0,1.23h0l-7.1,7.07a.43.43,0,0,1-.61,0h0l-1-1a.43.43,0,0,1,0-.61h0Z"/><path class="cls-29" d="M82.24,201.15l-1,.95h0l-7.58-7.59a.44.44,0,0,1,0-.62h0l1-1a.44.44,0,0,1,.62,0h0l7,7a.87.87,0,0,1,0,1.23h0Z"/><path class="cls-30" d="M71.32,46.35,85.76,31.9a1,1,0,0,1,1.41,0l0,0h0l14.45,14.45a1,1,0,0,1,0,1.41l0,.05h0L87.23,62.3a1,1,0,0,1-1.41,0l0,0L71.32,47.83a1,1,0,0,1,0-1.41l0-.05Z"/><path class="cls-31" d="M90.29,38.48l-3.65-3.63a.2.2,0,0,0-.27,0l-3.66,3.63a.16.16,0,0,0,0,.24.16.16,0,0,0,.18.07H85a.21.21,0,0,1,.19.19v3.45a.2.2,0,0,0,.19.19h2.27a.21.21,0,0,0,.19-.19V39a.2.2,0,0,1,.19-.19h2.13a.15.15,0,0,0,.2-.1v0A.18.18,0,0,0,90.29,38.48Z"/><path class="cls-31" d="M77.89,43l-3.61,3.66a.19.19,0,0,0,0,.26l3.61,3.64a.19.19,0,0,0,.27,0h0a.2.2,0,0,0,.06-.14V48.28a.2.2,0,0,1,.19-.19h3.44a.18.18,0,0,0,.18-.17V45.63a.19.19,0,0,0-.06-.24H78.46a.18.18,0,0,1-.19-.15V43.11a.19.19,0,0,0-.11-.25h0a.19.19,0,0,0-.25.12Z"/><path class="cls-31" d="M95.25,50.54l3.67-3.65a.19.19,0,0,0,0-.26L95.25,43A.2.2,0,0,0,95,43a.21.21,0,0,0,0,.11v2.16a.18.18,0,0,1-.17.17H91.31a.18.18,0,0,0-.18.17V47.9a.17.17,0,0,0,.16.19h3.46a.2.2,0,0,1,.19.19h0v2.14a.2.2,0,0,0,.21.16Z"/><path class="cls-1" d="M91.31,47.09a4.81,4.81,0,1,0-6.1,4.6v1.64a3,3,0,1,0,4,1.33,3.05,3.05,0,0,0-1.33-1.33V51.6A4.78,4.78,0,0,0,91.31,47.09Z"/><circle id="e99c3387-15c3-4f28-bd4b-cb209b430e06" class="cls-32" cx="86.52" cy="47.08" r="2.79"/><rect class="cls-1" x="130.02" width="35" height="20.86"/><rect class="cls-6" x="130.02" width="35" height="20.86"/><rect class="cls-1" x="68.16" width="35" height="20.86"/><rect class="cls-33" x="68.16" width="35" height="20.86"/><rect class="cls-1" x="174.87" width="35" height="20.86"/><rect class="cls-6" x="174.87" width="35" height="20.86"/><rect class="cls-1" x="219.87" width="45" height="20.86"/><rect class="cls-6" x="219.87" width="45" height="20.86"/><rect class="cls-1" x="156.87" y="53.97" width="70" height="10"/><rect class="cls-34" x="156.87" y="53.97" width="70" height="10"/><g id="ad94e297-0e86-4eaf-aac0-d146ee9aea65"><path class="cls-35" d="M187.8,54.32l-4.69-4.84a2.28,2.28,0,0,1-.77.14,2.43,2.43,0,1,1,2.24-3.33h4.61v1.62h-4.54a3.68,3.68,0,0,1-.26.57l4.32,4.46,2.34-3.56V38.19H187.9l4-4,4,4h-3.16v8.74l5.93-9-6-6a1,1,0,0,0-1.41-.05s0,0,0,.05h0L176.69,46.36a1,1,0,0,0-.05,1.41l.05,0h0l14.47,14.47L186,57.15Z"/><path class="cls-36" d="M191.05,54.53V49.36l-2.34,3.58,1.72,1.85A1.61,1.61,0,0,1,191.05,54.53Z"/><path class="cls-36" d="M207.08,46.36l-8.48-8.48-5.93,9v7.61a1.78,1.78,0,0,1,.54.3l6.22-6.29a2.53,2.53,0,0,1-.31-.64h-4.67V46.29h4.74a2.41,2.41,0,1,1,2.24,3.33,2.61,2.61,0,0,1-.68-.11l-6.61,6.67a2.17,2.17,0,0,1,.1.62,2.43,2.43,0,1,1-4.84.44,2.18,2.18,0,0,1,0-.25,2.49,2.49,0,0,1,.13-.9l-1.72-1.72L186,57.13l5.17,5.17a1,1,0,0,0,1.41,0l0,0L207,47.82a1,1,0,0,0,.05-1.41s0,0-.05,0Z"/><path class="cls-37" d="M199.19,46.29h-4.74v1.62h4.67a2.22,2.22,0,0,1-.12-.72A2.14,2.14,0,0,1,199.19,46.29Z"/><path class="cls-37" d="M184.65,47.91h4.54V46.29h-4.61a2.54,2.54,0,0,1,.19.9A2.93,2.93,0,0,1,184.65,47.91Z"/><path class="cls-37" d="M194.14,56.18l6.61-6.67a2.44,2.44,0,0,1-1.32-1l-6.22,6.29A2.25,2.25,0,0,1,194.14,56.18Z"/><path class="cls-37" d="M190.49,54.79l-1.73-1.85-4.37-4.46a2.45,2.45,0,0,1-1.28,1l4.69,4.84L189.52,56A2.37,2.37,0,0,1,190.49,54.79Z"/><path class="cls-1" d="M195.81,38.19l-3.93-4-4,4H191V54.53a1.68,1.68,0,0,0-.56.26,2.36,2.36,0,0,0-1,1.3,2.41,2.41,0,1,0,4.62,1.4,2.3,2.3,0,0,0,.1-.69,2.17,2.17,0,0,0-.1-.62,2.21,2.21,0,0,0-.93-1.34,1.78,1.78,0,0,0-.54-.3V38.19Zm-3.93,20a1.34,1.34,0,1,1,1.35-1.34h0a1.35,1.35,0,0,1-1.35,1.29Z"/><path class="cls-1" d="M184.39,48.48a3.68,3.68,0,0,0,.26-.57,2.93,2.93,0,0,0,.12-.72,2.54,2.54,0,0,0-.19-.9,2.42,2.42,0,1,0-2.24,3.33,2.28,2.28,0,0,0,.77-.14A2.45,2.45,0,0,0,184.39,48.48Zm-2,0a1.35,1.35,0,1,1,1.34-1.36v0h0a1.34,1.34,0,0,1-1.29,1.39h0Z"/><path class="cls-1" d="M200.75,49.51a2.61,2.61,0,0,0,.68.11,2.43,2.43,0,1,0-2.24-3.33,2.14,2.14,0,0,0-.19.9,2.22,2.22,0,0,0,.12.72,2.53,2.53,0,0,0,.31.64A2.46,2.46,0,0,0,200.75,49.51Zm.68-3.65a1.34,1.34,0,1,1-.31,0Z"/><path class="cls-38" d="M191.88,55.46a1.34,1.34,0,1,0,1.35,1.34h0A1.36,1.36,0,0,0,191.88,55.46Z"/><circle class="cls-38" cx="182.34" cy="47.19" r="1.34"/><path class="cls-38" d="M201.43,48.53a1.35,1.35,0,1,0-1.35-1.35h0a1.34,1.34,0,0,0,1.34,1.34Z"/></g></g></g><g id="Text"><path class="cls-39" d="M96.78,164.58l-3.22,8.76h-1l-3.16-8.76h1.07l2.43,7a3.57,3.57,0,0,1,.17.76h0a3.74,3.74,0,0,1,.2-.78l2.49-7Z"/><path class="cls-39" d="M105.81,173.34v-5.92c0-.45,0-1,.09-1.69h0a4.6,4.6,0,0,1-.26.83l-3,6.78h-.43l-3-6.73a4.75,4.75,0,0,1-.24-.88h0c0,.22.05.78.05,1.68v5.93H98v-8.76h1.24l2.71,6.17a8.26,8.26,0,0,1,.4,1h0c.06-.16.2-.52.42-1.07l2.77-6.14h1.17v8.76Z"/><path class="cls-39" d="M138.62,164.58l-3.22,8.76h-1l-3.16-8.76h1.07l2.43,7a3.05,3.05,0,0,1,.17.76h0a4.48,4.48,0,0,1,.2-.78l2.49-7Z"/><path class="cls-39" d="M147.65,173.34v-5.92c0-.45,0-1,.09-1.69h0a4.6,4.6,0,0,1-.26.83l-3,6.78H144l-3-6.73a4.58,4.58,0,0,1-.25-.88h0c0,.22.05.78.05,1.68v5.93h-.93v-8.76h1.24l2.71,6.17a8.86,8.86,0,0,1,.41,1h0c.06-.16.2-.52.42-1.07l2.77-6.14h1.18v8.76Z"/><path class="cls-39" d="M217.63,157l-3.22,8.76h-1L210.21,157h1.07l2.43,7a3.05,3.05,0,0,1,.17.76h0a4.48,4.48,0,0,1,.2-.78l2.49-7Z"/><path class="cls-39" d="M226.66,165.76v-5.92c0-.45,0-1,.09-1.69h0a4.6,4.6,0,0,1-.26.83l-3,6.78H223L220,159a4.58,4.58,0,0,1-.25-.88h0c0,.22.05.78.05,1.68v5.93h-.93V157h1.24l2.71,6.17a8.86,8.86,0,0,1,.41,1h0c.06-.16.2-.52.43-1.07l2.77-6.14h1.17v8.76Z"/><path class="cls-39" d="M253.51,157.19,250.28,166h-1l-3.15-8.76h1.06l2.44,7a4.31,4.31,0,0,1,.17.76h0a3.67,3.67,0,0,1,.19-.78l2.5-7Z"/><path class="cls-39" d="M262.53,166V160c0-.45,0-1,.09-1.69h0a4.8,4.8,0,0,1-.25.83l-3,6.78h-.43l-3-6.73a4.58,4.58,0,0,1-.25-.88h0c0,.22,0,.78,0,1.68V166h-.92v-8.76H256l2.7,6.17a8.86,8.86,0,0,1,.41,1h0c.05-.16.2-.52.42-1.07l2.77-6.14h1.17V166Z"/><path class="cls-39" d="M265.33,164.43a2.9,2.9,0,0,0,1.08.57,4.13,4.13,0,0,0,1.24.21q1.89,0,1.89-1.38a1.31,1.31,0,0,0-.2-.71,1.77,1.77,0,0,0-.51-.51c-.22-.15-.66-.39-1.33-.74a5.8,5.8,0,0,1-1.68-1.17,1.91,1.91,0,0,1-.48-1.33,2,2,0,0,1,.87-1.7,3.48,3.48,0,0,1,2.12-.62,4.11,4.11,0,0,1,1.84.3v1.12a3.29,3.29,0,0,0-2-.53,2.34,2.34,0,0,0-1.35.36,1.13,1.13,0,0,0-.52,1,1.31,1.31,0,0,0,.37.94,6.56,6.56,0,0,0,1.53.93,5.28,5.28,0,0,1,1.82,1.29,2.19,2.19,0,0,1-.34,3.06,3.71,3.71,0,0,1-2.25.6,6.23,6.23,0,0,1-1.14-.14,3.12,3.12,0,0,1-1-.36Z"/><path class="cls-39" d="M271.84,164.43a2.78,2.78,0,0,0,1.07.57,4.18,4.18,0,0,0,1.24.21q1.89,0,1.89-1.38a1.23,1.23,0,0,0-.2-.71,1.77,1.77,0,0,0-.51-.51,14.21,14.21,0,0,0-1.32-.74,6,6,0,0,1-1.69-1.17,2,2,0,0,1-.47-1.33,2,2,0,0,1,.86-1.7,3.49,3.49,0,0,1,2.13-.62,4.09,4.09,0,0,1,1.83.3v1.12a3.27,3.27,0,0,0-2-.53,2.3,2.3,0,0,0-1.34.36,1.1,1.1,0,0,0-.52,1,1.27,1.27,0,0,0,.37.94,6.44,6.44,0,0,0,1.52.93,5.45,5.45,0,0,1,1.83,1.29,2.11,2.11,0,0,1,.47,1.32,2,2,0,0,1-.82,1.74,3.7,3.7,0,0,1-2.24.6,6.23,6.23,0,0,1-1.14-.14,3,3,0,0,1-1-.36Z"/><path class="cls-39" d="M231.35,9.65a7.16,7.16,0,0,1-1.52-1.15,5.13,5.13,0,0,1-1.1-1.41,6.07,6.07,0,0,1-1.09,1.55,6.31,6.31,0,0,1-1.6,1.3l-.62-.6a5.39,5.39,0,0,0,2-1.69,3.86,3.86,0,0,0,.81-2.3V5.12h-2.48V4.34h5.82v.78h-2.49v.23A3.39,3.39,0,0,0,230,7.51,5,5,0,0,0,232,9Zm-3.83,5.18V10.39h.88v1.55h5.26V10.39h.86v4.44Zm6.14-2.1H228.4v1.33h5.26Zm0-3V7.13H231V6.35h2.64V3.83h.87V9.78Z"/><path class="cls-39" d="M243,10.87v4.26h-.89V10.87h-4.8v-.78h10.49v.78Zm-4-2.35V4.24h7.11V5h-6.23V7.74h6.41v.78Z"/><path class="cls-39" d="M255.52,12.27a9.59,9.59,0,0,1-1.77-1.82,6.66,6.66,0,0,1-1.06-1.9,6.58,6.58,0,0,1-1.05,2,8.93,8.93,0,0,1-1.75,1.86l-.68-.58a7.05,7.05,0,0,0,2.21-2.4,6,6,0,0,0,.83-3V4.61h.87V6.42a5.58,5.58,0,0,0,.82,2.88,6.78,6.78,0,0,0,2.2,2.29Zm2.54-3.06v5.93h-.88V3.83h.88v4.6H260v.78Z"/><path class="cls-39" d="M185.75,10.81v3.27h-.94V5.46h2.33a3.05,3.05,0,0,1,2.11.67A2.39,2.39,0,0,1,190,8a2.58,2.58,0,0,1-.89,2.05,3.06,3.06,0,0,1-2.21.74Zm0-4.47V9.92h1.09a2.45,2.45,0,0,0,1.62-.48A1.72,1.72,0,0,0,189,8.07c0-1.16-.69-1.73-2.05-1.73Z"/><path class="cls-39" d="M192.61,14.08h-.94V5.46h.94Z"/><path class="cls-39" d="M195.84,10.81v3.27h-.94V5.46h2.33a3.05,3.05,0,0,1,2.11.67A2.39,2.39,0,0,1,200.1,8a2.58,2.58,0,0,1-.89,2.05,3.06,3.06,0,0,1-2.21.74Zm0-4.47V9.92h1.09a2.45,2.45,0,0,0,1.62-.48,1.72,1.72,0,0,0,.56-1.37c0-1.16-.69-1.73-2.05-1.73Z"/><path class="cls-39" d="M141.16,10.81v3.27h-.94V5.46h2.33a3.05,3.05,0,0,1,2.11.67A2.39,2.39,0,0,1,145.42,8a2.58,2.58,0,0,1-.89,2.05,3.06,3.06,0,0,1-2.21.74Zm0-4.47V9.92h1.09a2.45,2.45,0,0,0,1.62-.48,1.72,1.72,0,0,0,.56-1.37c0-1.16-.69-1.73-2.05-1.73Z"/><path class="cls-39" d="M148,14.08h-.94V5.46H148Z"/><path class="cls-39" d="M151.25,10.81v3.27h-.94V5.46h2.33a3.05,3.05,0,0,1,2.11.67A2.39,2.39,0,0,1,155.51,8a2.58,2.58,0,0,1-.89,2.05,3.06,3.06,0,0,1-2.21.74Zm0-4.47V9.92h1.09A2.45,2.45,0,0,0,154,9.44a1.72,1.72,0,0,0,.56-1.37c0-1.16-.69-1.73-2.05-1.73Z"/><path class="cls-39" d="M79.4,10.81v3.27h-1V5.46h2.33a3.1,3.1,0,0,1,2.12.67A2.41,2.41,0,0,1,83.65,8a2.58,2.58,0,0,1-.89,2.05,3.06,3.06,0,0,1-2.21.74Zm0-4.47V9.92h1.08a2.41,2.41,0,0,0,1.62-.48,1.72,1.72,0,0,0,.56-1.37c0-1.16-.68-1.73-2-1.73Z"/><path class="cls-39" d="M86.25,14.08h-.94V5.46h.94Z"/><path class="cls-39" d="M89.48,10.81v3.27h-.94V5.46h2.33A3.1,3.1,0,0,1,93,6.13,2.41,2.41,0,0,1,93.74,8a2.58,2.58,0,0,1-.89,2.05,3.06,3.06,0,0,1-2.21.74Zm0-4.47V9.92h1.09a2.41,2.41,0,0,0,1.62-.48,1.72,1.72,0,0,0,.56-1.37c0-1.16-.69-1.73-2-1.73Z"/><path class="cls-39" d="M6.9,37.08H2.47V28.46h.94v7.76H6.9Z"/><path class="cls-39" d="M7.68,34.08a3.33,3.33,0,0,1,.83-2.41,3,3,0,0,1,2.28-.89,2.77,2.77,0,0,1,2.13.85A3.36,3.36,0,0,1,13.69,34a3.31,3.31,0,0,1-.83,2.35,2.91,2.91,0,0,1-2.21.89,2.81,2.81,0,0,1-2.16-.87A3.21,3.21,0,0,1,7.68,34.08Zm.94,0a2.53,2.53,0,0,0,.57,1.74,1.91,1.91,0,0,0,1.52.66,1.85,1.85,0,0,0,1.51-.63A2.73,2.73,0,0,0,12.74,34a2.79,2.79,0,0,0-.52-1.81,1.84,1.84,0,0,0-1.51-.64,1.9,1.9,0,0,0-1.52.66A2.69,2.69,0,0,0,8.62,34Z"/><path class="cls-39" d="M15.26,31.36a3.79,3.79,0,0,1,2.07-.58c1.43,0,2.15.76,2.15,2.28v4h-.93v-1h0a2.06,2.06,0,0,1-1.89,1.11,2,2,0,0,1-1.43-.48,1.68,1.68,0,0,1-.54-1.3c0-1.14.68-1.81,2-2l1.86-.27c0-1.07-.43-1.61-1.28-1.61a3,3,0,0,0-2,.77ZM17,34.16a2.27,2.27,0,0,0-1.06.35,1,1,0,0,0-.35.88,1,1,0,0,0,.33.76,1.28,1.28,0,0,0,.87.28,1.59,1.59,0,0,0,1.23-.52,1.89,1.89,0,0,0,.49-1.33V34Z"/><path class="cls-39" d="M26.56,37.08h-.92V36h0a2.27,2.27,0,0,1-2.13,1.21,2.3,2.3,0,0,1-1.85-.83,3.4,3.4,0,0,1-.69-2.25,3.64,3.64,0,0,1,.77-2.44,2.52,2.52,0,0,1,2-.93,2,2,0,0,1,1.86,1h0V28h.92Zm-.92-3.71a1.75,1.75,0,0,0-.51-1.27,1.68,1.68,0,0,0-1.28-.53,1.73,1.73,0,0,0-1.44.68,3,3,0,0,0-.53,1.85,2.71,2.71,0,0,0,.5,1.7,1.62,1.62,0,0,0,1.36.64,1.72,1.72,0,0,0,1.36-.61,2.19,2.19,0,0,0,.54-1.52Z"/><path class="cls-39" d="M32.93,37.08V28.46h2.41a2.65,2.65,0,0,1,1.73.54,1.76,1.76,0,0,1,.66,1.43,2.15,2.15,0,0,1-.39,1.27,2,2,0,0,1-1.09.78v0a2.11,2.11,0,0,1,1.39.66,2,2,0,0,1,.52,1.44,2.26,2.26,0,0,1-.79,1.79,3,3,0,0,1-2,.68Zm.94-7.74v2.83h1.05a2,2,0,0,0,1.34-.41,1.44,1.44,0,0,0,.48-1.14c0-.85-.56-1.28-1.67-1.28Zm0,3.71V36.2h1.4a2.08,2.08,0,0,0,1.4-.43,1.47,1.47,0,0,0,.5-1.17c0-1-.71-1.55-2.12-1.55Z"/><path class="cls-39" d="M39.94,31.36A3.85,3.85,0,0,1,42,30.78c1.43,0,2.14.76,2.14,2.28v4h-.93v-1h0a2.07,2.07,0,0,1-1.9,1.11,2,2,0,0,1-1.43-.48,1.7,1.7,0,0,1-.53-1.3c0-1.14.68-1.81,2-2l1.86-.27c0-1.07-.43-1.61-1.28-1.61a3,3,0,0,0-2,.77Zm1.78,2.8a2.31,2.31,0,0,0-1.07.35,1,1,0,0,0-.34.88,1,1,0,0,0,.33.76,1.28,1.28,0,0,0,.87.28,1.62,1.62,0,0,0,1.23-.52,1.93,1.93,0,0,0,.49-1.33V34Z"/><path class="cls-39" d="M46,37.08V28H47v9.11Z"/><path class="cls-39" d="M49.14,31.36a3.79,3.79,0,0,1,2.07-.58c1.43,0,2.15.76,2.15,2.28v4h-.94v-1h0a2.06,2.06,0,0,1-1.89,1.11,2.09,2.09,0,0,1-1.44-.48,1.7,1.7,0,0,1-.53-1.3c0-1.14.68-1.81,2-2l1.86-.27c0-1.07-.43-1.61-1.28-1.61a3,3,0,0,0-2,.77Zm1.77,2.8a2.27,2.27,0,0,0-1.06.35,1,1,0,0,0-.35.88,1,1,0,0,0,.33.76,1.28,1.28,0,0,0,.87.28,1.59,1.59,0,0,0,1.23-.52,1.89,1.89,0,0,0,.49-1.33V34Z"/><path class="cls-39" d="M60.29,37.08h-.93V33.57c0-1.33-.48-2-1.46-2a1.59,1.59,0,0,0-1.24.56,2.12,2.12,0,0,0-.5,1.44v3.51h-.93V30.92h.93v1h0a2.2,2.2,0,0,1,2-1.18,1.92,1.92,0,0,1,1.55.65,3,3,0,0,1,.53,1.89Z"/><path class="cls-39" d="M66.34,36.8a3.27,3.27,0,0,1-1.67.43,2.79,2.79,0,0,1-2.1-.84,3.08,3.08,0,0,1-.82-2.24,3.41,3.41,0,0,1,.87-2.45,3,3,0,0,1,2.31-.92,3.25,3.25,0,0,1,1.42.3v1a2.47,2.47,0,0,0-1.47-.49,2.06,2.06,0,0,0-1.57.68,2.62,2.62,0,0,0-.61,1.82,2.51,2.51,0,0,0,.56,1.72,2,2,0,0,0,1.55.65,2.51,2.51,0,0,0,1.53-.54Z"/><path class="cls-39" d="M72.75,34.24H68.39A2.33,2.33,0,0,0,69,35.87a1.93,1.93,0,0,0,1.45.56,3,3,0,0,0,1.92-.69v.89a3.53,3.53,0,0,1-2.13.6,2.54,2.54,0,0,1-2-.85A3.51,3.51,0,0,1,67.42,34a3.36,3.36,0,0,1,.81-2.32,2.58,2.58,0,0,1,2-.92,2.27,2.27,0,0,1,1.85.79,3.24,3.24,0,0,1,.66,2.16Zm-1-.83a2,2,0,0,0-.41-1.34,1.42,1.42,0,0,0-1.15-.49,1.68,1.68,0,0,0-1.21.5,2.33,2.33,0,0,0-.62,1.33Z"/><path class="cls-39" d="M77.43,31.88a1.31,1.31,0,0,0-1.81.42,2.83,2.83,0,0,0-.43,1.63v3.15h-.93V30.92h.93V32.2h0a2.12,2.12,0,0,1,.64-1,1.43,1.43,0,0,1,1-.37,2,2,0,0,1,.61.08Z"/><path class="cls-39" d="M219.57,49.72h-1.19l-4.5-7a3.38,3.38,0,0,1-.27-.54h0a10.13,10.13,0,0,1,0,1.18v6.32h-.95V41.1h1.25L218.31,48a4.12,4.12,0,0,1,.34.57h0a8.28,8.28,0,0,1-.07-1.28V41.1h1Z"/><path class="cls-39" d="M228.47,49.72h-1.05l-.94-2.44h-3.7l-.87,2.44h-1l3.31-8.62h1Zm-2.31-3.31-1.38-3.73a3.07,3.07,0,0,1-.13-.57h0a2.32,2.32,0,0,1-.14.57l-1.36,3.73Z"/><path class="cls-39" d="M233.86,42h-2.49v7.75h-1V42h-2.48V41.1h5.93Z"/><path class="cls-39" d="M104.05,104.15a9.73,9.73,0,0,1-1.82-1.9,6.21,6.21,0,0,1-1.08-2,7,7,0,0,1-1.1,2.09,9.11,9.11,0,0,1-1.78,1.91l-.69-.61a7.11,7.11,0,0,0,2.27-2.48,6.24,6.24,0,0,0,.85-3.07V96.21h.88v1.87a5.82,5.82,0,0,0,.84,3,6.87,6.87,0,0,0,2.26,2.38Zm2.25,3v-7.07h-2.7v-.81h2.7V95.4h.9v11.72Z"/><path class="cls-39" d="M109.82,105.15v-.82h10.74v.82Zm1.8-3.27V96.42h.9V98.3h5.35V96.42h.9v5.46Zm6.25-2.76h-5.35v1.94h5.35Z"/><path class="cls-39" d="M127.91,101.28a44.25,44.25,0,0,1-4.76.19V96.16H124v4.52a29.44,29.44,0,0,0,3.8-.18Zm4.17,5.57a6.59,6.59,0,0,1-2.35-1.1A5.76,5.76,0,0,1,128,104a4.89,4.89,0,0,1-1.59,1.74,6.41,6.41,0,0,1-2.4,1.13l-.57-.78a5.43,5.43,0,0,0,2.84-1.32,3.11,3.11,0,0,0,1.28-2.17v-.28h.9v.27a3,3,0,0,0,1.25,2.15,5.4,5.4,0,0,0,2.86,1.35Zm-3.26-4.46V98.83h-2.67V98h2.67V95.62h.87v6.77Zm2.09.86V95.4h.88v7.85Z"/><path class="cls-39" d="M145.77,106h-1.08l-1-2.54H140l-.9,2.54H138l3.4-8.94h1Zm-2.37-3.44L142,98.72a3.58,3.58,0,0,1-.13-.59h0a2.41,2.41,0,0,1-.14.59l-1.4,3.86Z"/><path class="cls-39" d="M224.57,104a9.07,9.07,0,0,1-1.78-1.82,6.12,6.12,0,0,1-1-1.89,6.84,6.84,0,0,1-1.07,2,9.08,9.08,0,0,1-1.75,1.84l-.67-.59a6.93,6.93,0,0,0,2.22-2.38,5.94,5.94,0,0,0,.82-3V96.36h.87v1.81A5.53,5.53,0,0,0,223,101a6.69,6.69,0,0,0,2.2,2.29Zm2.19,2.86v-6.8h-2.63v-.78h2.63v-3.7h.88v11.28Z"/><path class="cls-39" d="M230.21,105v-.8h10.48v.8Zm1.75-3.15V96.56h.87v1.81h5.23V96.56h.88v5.26Zm6.1-2.66h-5.23V101h5.23Z"/><path class="cls-39" d="M247.86,101.25c-1.09.11-2.64.17-4.64.17V96.31h.86v4.36a28,28,0,0,0,3.71-.18Zm4.08,5.35a6.32,6.32,0,0,1-2.3-1,5.45,5.45,0,0,1-1.66-1.71,4.7,4.7,0,0,1-1.55,1.68,6.47,6.47,0,0,1-2.35,1.08l-.55-.75a5.34,5.34,0,0,0,2.77-1.27,3,3,0,0,0,1.25-2.09v-.26h.87v.25a2.92,2.92,0,0,0,1.22,2.07,5.29,5.29,0,0,0,2.8,1.3Zm-3.19-4.29V98.89h-2.6v-.77h2.6V95.8h.85v6.51Zm2,.82V95.58h.86v7.55Z"/><path class="cls-39" d="M258.69,105.8V97.2h2.41a2.65,2.65,0,0,1,1.73.54,1.76,1.76,0,0,1,.66,1.43,2.15,2.15,0,0,1-.39,1.27,2.18,2.18,0,0,1-1.1.78v0a2.13,2.13,0,0,1,1.4.66,2,2,0,0,1,.52,1.44,2.24,2.24,0,0,1-.79,1.78,2.92,2.92,0,0,1-2,.68Zm.94-7.72v2.83h1.05a1.94,1.94,0,0,0,1.34-.42,1.4,1.4,0,0,0,.48-1.13c0-.85-.56-1.28-1.67-1.28Zm0,3.7v3.15H261a2.13,2.13,0,0,0,1.4-.43,1.48,1.48,0,0,0,.5-1.17c0-1-.71-1.55-2.13-1.55Z"/><path class="cls-39" d="M62.53,214.37q-.14,4.89-5.11,7.74l-.67-.72A8.37,8.37,0,0,0,59.94,219a7,7,0,0,0,1.65-3.82H57.23v-.79Zm2.79,4.5v6h-.87V213.34h.87v4.74h2v.79Z"/><path class="cls-39" d="M74.56,219.35A7.86,7.86,0,0,1,73,218.17a5,5,0,0,1-1.11-1.43,5.42,5.42,0,0,1-1.09,1.58,6.91,6.91,0,0,1-1.62,1.32l-.64-.62a5.55,5.55,0,0,0,2.08-1.74,3.91,3.91,0,0,0,.83-2.34v-1.2h.84v1.2a3.47,3.47,0,0,0,.84,2.2,5.19,5.19,0,0,0,2,1.56Zm-.64,5.38a5,5,0,0,1-2.73-.62,1.82,1.82,0,0,1,0-3.21,6.34,6.34,0,0,1,5.47,0,1.82,1.82,0,0,1,0,3.21A5,5,0,0,1,73.92,224.73Zm0-3.69a4.22,4.22,0,0,0-2,.4,1.2,1.2,0,0,0-.72,1.06,1.21,1.21,0,0,0,.73,1.07,4.19,4.19,0,0,0,2,.41,4.29,4.29,0,0,0,2.06-.41,1.15,1.15,0,0,0,0-2.13A4.3,4.3,0,0,0,73.92,221Zm3.51-3.74V220h-.88v-6.62h.88v3.15h1.71v.81Z"/><path class="cls-39" d="M62.16,234.58a32.89,32.89,0,0,1-4.84.2v-7.37h.88V234h.52a29.24,29.24,0,0,0,3.34-.14Zm.88,3.07V231.1H60.4v-.78H63v-3.54h.87v10.87Zm2.25.38V226.54h.88V238Z"/><path class="cls-39" d="M68.54,236.22v-.79H79.07v.79Zm8.9-7.78H71.11v1.66h6v.8h-6v1.57h6.51v.79H70.24v-5.6h7.2Z"/><path class="cls-39" d="M84,237.7v-4.22l-3.32.05-.09-.78c3.23,0,5.8-.06,7.69-.17l0,.77c-.54,0-1.69.07-3.45.12v4.23Zm.42-6a3.1,3.1,0,0,1-2.09-.67,2.26,2.26,0,0,1,0-3.44,3.08,3.08,0,0,1,2.08-.68,3.15,3.15,0,0,1,2.09.68,2.18,2.18,0,0,1,.79,1.72,2.15,2.15,0,0,1-.79,1.72A3.12,3.12,0,0,1,84.45,231.65Zm0-4a2.23,2.23,0,0,0-1.46.45,1.54,1.54,0,0,0,0,2.36,2.23,2.23,0,0,0,1.46.44,2.27,2.27,0,0,0,1.46-.44,1.46,1.46,0,0,0,.54-1.18,1.48,1.48,0,0,0-.54-1.18A2.23,2.23,0,0,0,84.45,227.63Zm2.11,7.67v-.81h2.67v-8h.88V238h-.88V235.3Z"/><path class="cls-39" d="M92.63,235.91v-.79h7.7c.11-1.28.19-2.44.22-3.48L93.7,232l-.19-.87,7-.25v-2.45H94.09v-.79h7.33V231q0,1.5-.24,4.14h2v.79Z"/><path class="cls-39" d="M181.16,221c-.6,0-1.69.1-3.28.16v2.54H177v-2.49c-1.57,0-2.73.08-3.47.08l-.13-.85q4.45,0,7.72-.22Zm-3.78-1.5a3.31,3.31,0,0,1-2.1-.64,2,2,0,0,1-.81-1.61,2,2,0,0,1,.81-1.59,3.25,3.25,0,0,1,2.1-.64,3.33,3.33,0,0,1,2.11.63,2,2,0,0,1,0,3.21A3.27,3.27,0,0,1,177.38,219.47Zm-2.17,6.76v-3.52h.91v2.71h7.08v.81Zm2.17-10.47a2.28,2.28,0,0,0-1.45.44,1.29,1.29,0,0,0-.55,1,1.31,1.31,0,0,0,.55,1,2.58,2.58,0,0,0,2.91,0,1.28,1.28,0,0,0,.55-1,1.27,1.27,0,0,0-.55-1A2.29,2.29,0,0,0,177.38,215.76Zm4.6,8.33v-1.27h-2.57V222H182v-7.24h.93v9.32Z"/><path class="cls-39" d="M192,220.9a7.33,7.33,0,0,1-1.6-1.21,5.08,5.08,0,0,1-1.13-1.47,6.43,6.43,0,0,1-1.16,1.65,6.93,6.93,0,0,1-1.65,1.33l-.64-.63a5.69,5.69,0,0,0,2.12-1.75,4,4,0,0,0,.85-2.41v-.3h-2.59v-.81h6.06v.81h-2.59v.3a3.54,3.54,0,0,0,.89,2.26,5.21,5.21,0,0,0,2.06,1.56Zm-4,5.32V222h7.27v4.22Zm6.38-3.42h-5.48v2.62h5.48Zm0-1.48v-3h-2.81v-.82h2.81v-2.68h.91v6.55Z"/><path class="cls-39" d="M200.24,227.49a8,8,0,0,1-1.93-5.47,8.31,8.31,0,0,1,1.93-5.56h.88a8.46,8.46,0,0,0-2,5.55,8.26,8.26,0,0,0,2,5.48Z"/><path class="cls-39" d="M203.31,216.46l-.19,2.8h-.69l-.18-2.8Zm2,0-.18,2.8h-.68l-.19-2.8Z"/><path class="cls-39" d="M207.14,224.68v-.81H210v-3a2.66,2.66,0,0,1-.24-4.46,5.75,5.75,0,0,1,5.75,0,2.68,2.68,0,0,1-.24,4.46v3h2.83v.81Zm2.44-6.12a1.74,1.74,0,0,0,.83,1.54,3.81,3.81,0,0,0,2.19.56,3.86,3.86,0,0,0,2.19-.56,1.77,1.77,0,0,0,.83-1.54,1.8,1.8,0,0,0-.83-1.55,4.49,4.49,0,0,0-4.38,0A1.78,1.78,0,0,0,209.58,218.56Zm1.3,2.69v2.62h3.45v-2.62a5.92,5.92,0,0,1-1.73.22A6.44,6.44,0,0,1,210.88,221.25Z"/><path class="cls-39" d="M226.3,221.3a6.28,6.28,0,0,1-2.86-2.5,5.09,5.09,0,0,1-1.17,1.52,7.21,7.21,0,0,1-1.69,1.22l-.67-.71a5.12,5.12,0,0,0,2.15-1.47,3,3,0,0,0,.92-2v-.57h-2.69V216H223v-1.38h.91V216h2.69v.8h-2.69v.56a2.73,2.73,0,0,0,.93,1.85,4.78,4.78,0,0,0,2.1,1.3Zm-.52,5.08a5.37,5.37,0,0,1-2.85-.64,1.91,1.91,0,0,1-1-1.65,1.88,1.88,0,0,1,1-1.65,6.76,6.76,0,0,1,5.7,0,1.9,1.9,0,0,1,1,1.65,1.93,1.93,0,0,1-1,1.65A5.37,5.37,0,0,1,225.78,226.38Zm0-3.79a4.41,4.41,0,0,0-2.14.42,1.16,1.16,0,0,0,0,2.16,5.64,5.64,0,0,0,4.27,0,1.24,1.24,0,0,0,.74-1.08,1.22,1.22,0,0,0-.74-1.08A4.25,4.25,0,0,0,225.78,222.59Zm2.7-1v-2.79h-2.31V218h2.31v-3.2h.91v6.8Z"/><path class="cls-39" d="M233.51,216.46l-.19,2.8h-.69l-.18-2.8Zm2,0-.18,2.8h-.68l-.19-2.8Z"/><path class="cls-39" d="M236.71,227.49a8.29,8.29,0,0,0,2-5.48,8.43,8.43,0,0,0-2-5.55h.89a8.27,8.27,0,0,1,1.95,5.56,8,8,0,0,1-1.95,5.47Z"/><path class="cls-39" d="M241.35,224.41l-.09-.79c1.05,0,2.52,0,4.4-.06s3.13-.09,3.75-.14l.05.79c-.63,0-1.89.1-3.78.14S242.36,224.41,241.35,224.41Zm3.89-3.12a3.24,3.24,0,0,1-2.22-.8,2.7,2.7,0,0,1,0-4,3.24,3.24,0,0,1,2.23-.8,3.15,3.15,0,0,1,2.21.81,2.69,2.69,0,0,1,0,4A3.24,3.24,0,0,1,245.24,221.29Zm0-4.82a2.24,2.24,0,0,0-1.56.57,1.95,1.95,0,0,0,0,2.87,2.41,2.41,0,0,0,3.09,0,2,2,0,0,0,0-2.88A2.24,2.24,0,0,0,245.24,216.47Zm5,10.08V214.77h.91v11.78Z"/><path class="cls-39" d="M258.31,224.75V224h10.92v.8Zm1-7.61v-.8h4.05v-1.45h.9v1.45h4v.8Zm4.5,5.16a5.34,5.34,0,0,1-2.84-.63,1.79,1.79,0,0,1,0-3.21,5.33,5.33,0,0,1,2.83-.62,5.42,5.42,0,0,1,2.82.61,1.8,1.8,0,0,1,0,3.22A5.26,5.26,0,0,1,263.77,222.3Zm0-3.69a4.63,4.63,0,0,0-2.12.39,1.17,1.17,0,0,0-.74,1.06,1.18,1.18,0,0,0,.73,1.06,4.51,4.51,0,0,0,2.13.4,4.43,4.43,0,0,0,2.12-.4,1.13,1.13,0,0,0,0-2.12A4.63,4.63,0,0,0,263.77,218.61Z"/><path class="cls-39" d="M270.89,221.64v-.77h10.93v.77Zm1.81,4.75v-3.62H280v3.62Zm0-6.63V217h6.35v-1.19h-6.35V215H280v2.69h-6.35V219h6.63v.78Zm6.39,3.79h-5.53v2.06h5.53Z"/><path class="cls-39" d="M173.73,234.07v-5.55h.9v2h3.6v-2h.9v5.55Zm4.5-2.71h-3.6v1.91h3.6Zm.4,8.23a5.56,5.56,0,0,1-2.84-.6,1.76,1.76,0,0,1,0-3.17,7.27,7.27,0,0,1,5.69,0,1.77,1.77,0,0,1,1,1.58,1.79,1.79,0,0,1-1,1.6A5.64,5.64,0,0,1,178.63,239.59Zm0-3.57a5,5,0,0,0-2.13.36,1.11,1.11,0,0,0-.73,1,1.13,1.13,0,0,0,.74,1,4.8,4.8,0,0,0,2.12.37,4.9,4.9,0,0,0,2.14-.37,1.15,1.15,0,0,0,.74-1,1.11,1.11,0,0,0-.73-1A4.89,4.89,0,0,0,178.63,236Zm3.64-4v2.89h-.91v-7h.91v3.27H184v.81Z"/><path class="cls-39" d="M185.72,230.2v-.82h3v-1.47h.9v1.47h3v.82Zm3.5,4.61a3.57,3.57,0,0,1-2.13-.56,1.75,1.75,0,0,1,0-2.91,4.28,4.28,0,0,1,4.27,0,1.72,1.72,0,0,1,.77,1.46,1.69,1.69,0,0,1-.77,1.44A3.59,3.59,0,0,1,189.22,234.81Zm0-3.26a2.72,2.72,0,0,0-1.48.35,1,1,0,0,0-.53.9,1,1,0,0,0,.53.89,2.7,2.7,0,0,0,1.48.34,2.74,2.74,0,0,0,1.49-.34,1,1,0,0,0,0-1.79A2.7,2.7,0,0,0,189.23,231.55Zm2,8.11a6,6,0,0,1-2.85-.54,1.65,1.65,0,0,1-1-1.51,1.71,1.71,0,0,1,1-1.54,7.53,7.53,0,0,1,5.7,0,1.7,1.7,0,0,1,1,1.54,1.67,1.67,0,0,1-1,1.52A6.2,6.2,0,0,1,191.22,239.66Zm0-3.37c-1.91,0-2.87.44-2.87,1.32s1,1.32,2.87,1.32,2.88-.44,2.88-1.32S193.14,236.29,191.22,236.29Zm3.63-2.64v1.72H194V228h.9v2.32h1.78v.78h-1.78v1.78h1.78v.8Z"/><path class="cls-39" d="M173.51,262.17v-6h.9v2.26H178V256.2h.9v6Zm4.5-2.9h-3.6v2.09H178ZM174.88,267v-3.62h.9v2.8h6.6V267Zm7.17-6.92v4.12h-.91v-8.6h.91v3.66h1.77v.82Z"/><path class="cls-39" d="M193.11,263.4q-3.71.21-7.57.21l-.09-.8c.83,0,2,0,3.37-.05v-.89a3.25,3.25,0,0,1-1.82-.58,1.5,1.5,0,0,1-.65-1.23,1.52,1.52,0,0,1,.78-1.33,3.91,3.91,0,0,1,2.15-.51,3.82,3.82,0,0,1,2.13.53,1.54,1.54,0,0,1,.79,1.31,1.49,1.49,0,0,1-.64,1.23,3.31,3.31,0,0,1-1.83.58v.88c1.36,0,2.48-.08,3.33-.14Zm-7.3-5.64V257h3v-1.3h.9V257h3v.8Zm3.47,1.2a3.06,3.06,0,0,0-1.49.31.91.91,0,0,0-.54.79.89.89,0,0,0,.54.78,3,3,0,0,0,1.49.31,2.92,2.92,0,0,0,1.47-.31.88.88,0,0,0,.55-.78.91.91,0,0,0-.54-.79A3,3,0,0,0,189.28,259Zm-1.9,8.3v-3h.89v2.21h6.81v.8Zm7.43-6.15v3.57h-.91v-9h.91v4.66h1.77v.81Z"/><path class="cls-39" d="M200,268.35a8,8,0,0,1-1.94-5.46,8.3,8.3,0,0,1,1.94-5.56h.88a8.43,8.43,0,0,0-2,5.54,8.24,8.24,0,0,0,2,5.48Z"/><path class="cls-39" d="M203.09,257.33l-.19,2.8h-.69l-.19-2.8Zm2,0-.18,2.8h-.68l-.19-2.8Z"/><path class="cls-39" d="M211.42,262.94v1.69l2.21-.08,1.35-.06.05.78c-.64.06-1.87.1-3.69.14s-3.22.06-4.21.06l-.08-.79c1.23,0,2.38,0,3.47,0v-1.7a3.19,3.19,0,0,1-1.86-.7,1.82,1.82,0,0,1-.65-1.43,1.85,1.85,0,0,1,.8-1.57,3.55,3.55,0,0,1,2.18-.6,3.45,3.45,0,0,1,2.15.6,1.81,1.81,0,0,1,.79,1.5,1.92,1.92,0,0,1-.66,1.48A3.06,3.06,0,0,1,211.42,262.94Zm-.9-7.28h.91v1.54h3V258h-7v-.81h3.07Zm.47,3.75a2.57,2.57,0,0,0-1.5.39,1.2,1.2,0,0,0-.56,1,1.15,1.15,0,0,0,.54,1,2.57,2.57,0,0,0,1.52.38,2.47,2.47,0,0,0,1.49-.38,1.15,1.15,0,0,0,.54-1,1.22,1.22,0,0,0-.55-1A2.5,2.5,0,0,0,211,259.41Zm4.9,8V255.64h.92v11.77Z"/><path class="cls-39" d="M225.9,262.27a8.07,8.07,0,0,1-1.65-1.38,6.3,6.3,0,0,1-1.1-1.54,7.28,7.28,0,0,1-1.18,1.79,6.58,6.58,0,0,1-1.65,1.44l-.66-.63a5.73,5.73,0,0,0,2.13-1.89,4.32,4.32,0,0,0,.88-2.53V256h.89v1.51a3.86,3.86,0,0,0,.91,2.36,5.63,5.63,0,0,0,2,1.72Zm-4,4.75v-3.74h.91v2.94h6.65v.8Zm6.34-3v-8.37h.91V264Z"/><path class="cls-39" d="M233.29,257.33l-.19,2.8h-.69l-.19-2.8Zm2,0-.18,2.8h-.68l-.19-2.8Z"/><path class="cls-39" d="M236.49,268.35a8.27,8.27,0,0,0,1.95-5.48,8.41,8.41,0,0,0-2-5.54h.89a8.26,8.26,0,0,1,1.95,5.56,7.94,7.94,0,0,1-1.95,5.46Z"/><path class="cls-39" d="M241.13,265.27l-.09-.78c1.05,0,2.52,0,4.4-.06s3.13-.09,3.75-.15l.05.79c-.63.05-1.9.1-3.78.14S242.14,265.27,241.13,265.27Zm3.88-3.12a3.23,3.23,0,0,1-2.21-.8,2.69,2.69,0,0,1,0-4,3.2,3.2,0,0,1,2.22-.81,3.13,3.13,0,0,1,2.22.82,2.56,2.56,0,0,1,.9,2,2.6,2.6,0,0,1-.89,2A3.24,3.24,0,0,1,245,262.15Zm0-4.81a2.27,2.27,0,0,0-1.55.56,1.85,1.85,0,0,0-.62,1.43,1.83,1.83,0,0,0,.64,1.45,2.26,2.26,0,0,0,1.53.56,2.28,2.28,0,0,0,1.56-.56,1.87,1.87,0,0,0,.62-1.45,1.82,1.82,0,0,0-.62-1.44A2.24,2.24,0,0,0,245,257.34Zm5,10.07V255.64h.91v11.77Z"/><path class="cls-39" d="M258.09,265.61v-.8H269v.8Zm1-7.61v-.8h4.05v-1.44h.9v1.44h4.05v.8Zm4.5,5.16a5.34,5.34,0,0,1-2.84-.63,1.87,1.87,0,0,1-1-1.61,1.84,1.84,0,0,1,1-1.6,6.75,6.75,0,0,1,5.65,0,1.83,1.83,0,0,1,1,1.6,1.87,1.87,0,0,1-1,1.62A5.36,5.36,0,0,1,263.55,263.16Zm0-3.69a4.56,4.56,0,0,0-2.13.4,1.17,1.17,0,0,0-.73,1.05,1.21,1.21,0,0,0,.73,1.07,4.63,4.63,0,0,0,2.13.4,4.56,4.56,0,0,0,2.12-.4,1.21,1.21,0,0,0,.73-1.07,1.17,1.17,0,0,0-.73-1.05A4.49,4.49,0,0,0,263.55,259.47Z"/><path class="cls-39" d="M270.67,262.51v-.78H281.6v.78Zm1.8,4.74v-3.61h7.33v3.61Zm0-6.63v-2.76h6.35v-1.19h-6.35v-.77h7.25v2.7h-6.35v1.25H280v.77Zm6.39,3.79h-5.53v2.07h5.53Z"/><path class="cls-39" d="M173.51,274.93v-5.54h.9v2H178v-2h.9v5.54Zm4.5-2.71h-3.6v1.91H178Zm.4,8.23a5.64,5.64,0,0,1-2.84-.59,1.81,1.81,0,0,1-1-1.6,1.76,1.76,0,0,1,1-1.57,7.21,7.21,0,0,1,5.69,0,1.77,1.77,0,0,1,0,3.18A5.67,5.67,0,0,1,178.41,280.45Zm0-3.56a5,5,0,0,0-2.13.36,1.1,1.1,0,0,0-.73,1,1.13,1.13,0,0,0,.74,1,4.8,4.8,0,0,0,2.12.37,4.9,4.9,0,0,0,2.14-.37,1.14,1.14,0,0,0,.74-1,1.11,1.11,0,0,0-.73-1A5.06,5.06,0,0,0,178.41,276.89Zm3.64-4v2.89h-.91v-7h.91v3.26h1.77v.81Z"/><path class="cls-39" d="M185.5,271.06v-.81h3v-1.48h.91v1.48h3v.81Zm3.5,4.61a3.5,3.5,0,0,1-2.13-.56,1.71,1.71,0,0,1-.77-1.45,1.74,1.74,0,0,1,.78-1.46,4.35,4.35,0,0,1,4.27,0,1.76,1.76,0,0,1,0,2.91A3.66,3.66,0,0,1,189,275.67Zm0-3.26a2.72,2.72,0,0,0-1.48.35,1,1,0,0,0-.53.9,1,1,0,0,0,.53.89,2.7,2.7,0,0,0,1.48.35,2.74,2.74,0,0,0,1.49-.35,1,1,0,0,0,.53-.89,1,1,0,0,0-.54-.9A2.7,2.7,0,0,0,189,272.41Zm2,8.11a6,6,0,0,1-2.85-.53,1.67,1.67,0,0,1-1-1.52,1.71,1.71,0,0,1,1-1.54,7.53,7.53,0,0,1,5.7,0,1.69,1.69,0,0,1,1,1.54,1.65,1.65,0,0,1-1,1.52A6.08,6.08,0,0,1,191,280.52Zm0-3.37c-1.91,0-2.87.44-2.87,1.32s1,1.33,2.87,1.33,2.88-.44,2.88-1.33S192.92,277.15,191,277.15Zm3.63-2.64v1.72h-.91v-7.39h.91v2.31h1.78v.79h-1.78v1.77h1.78v.8Z"/><path class="cls-39" d="M111,125.83h-4.54v-8.94h1v8H111Z"/><path class="cls-39" d="M112.29,125.83v-8.94h2.47a2.65,2.65,0,0,1,1.77.56,1.83,1.83,0,0,1,.68,1.48,2.29,2.29,0,0,1-.4,1.32,2.17,2.17,0,0,1-1.12.81v0a2.24,2.24,0,0,1,1.43.69,2.16,2.16,0,0,1,.53,1.49,2.36,2.36,0,0,1-.81,1.86,3,3,0,0,1-2,.71Zm1-8v2.94h1.07a2,2,0,0,0,1.38-.43,1.51,1.51,0,0,0,.48-1.18c0-.88-.57-1.33-1.71-1.33Zm0,3.84v3.28h1.43a2.1,2.1,0,0,0,1.43-.45,1.54,1.54,0,0,0,.52-1.22c0-1.07-.73-1.61-2.18-1.61Z"/><path class="cls-39" d="M125.08,126.63V124h6.32v-1h-6.32v-.8h3.14v-1.19h-4.91v-.8h10.74v.8h-4.91v1.19h3.14v2.58H126v1h6.63v.8Zm-.6-7.37v-.77h1.73l-.11-1.83H127l.13,1.83h3.14l.13-1.83h.88l-.11,1.83h1.73v.77Zm.15-3v-.8h8.11v.8Z"/></g></svg>