<svg xmlns="http://www.w3.org/2000/svg" xmlns:xlink="http://www.w3.org/1999/xlink" viewBox="0 0 578 216.17"><defs><style>.cls-1,.cls-2{fill:#fff;}.cls-18,.cls-2{stroke:#e6e6e6;stroke-width:0.75px;}.cls-3{fill:#3c3c41;opacity:0.08;}.cls-29,.cls-3,.cls-30,.cls-31,.cls-35,.cls-36,.cls-37,.cls-38,.cls-46,.cls-47,.cls-54,.cls-55,.cls-56{isolation:isolate;}.cls-4{fill:url(#Degradado_sin_nombre);}.cls-5{fill:#b4ec36;}.cls-6{fill:#5ea0ef;}.cls-7{fill:url(#Degradado_sin_nombre_2);}.cls-8{fill:#50e6ff;}.cls-9{fill:#c3f1ff;}.cls-10{fill:#9cebff;}.cls-11{fill:url(#Degradado_sin_nombre_3);}.cls-12{fill:url(#Degradado_sin_nombre_4);}.cls-13{fill:url(#Degradado_sin_nombre_5);}.cls-14{fill:url(#Degradado_sin_nombre_6);}.cls-15{fill:url(#Degradado_sin_nombre_7);}.cls-16{fill:url(#Degradado_sin_nombre_8);}.cls-17{fill:url(#Degradado_sin_nombre_9);}.cls-18{fill:none;}.cls-19{fill:url(#Degradado_sin_nombre_10);}.cls-20{fill:url(#Degradado_sin_nombre_11);}.cls-21{fill:url(#Degradado_sin_nombre_12);}.cls-22{fill:url(#Degradado_sin_nombre_13);}.cls-23{fill:url(#Degradado_sin_nombre_14);}.cls-24{fill:url(#Degradado_sin_nombre_15);}.cls-25{fill:url(#Degradado_sin_nombre_16);}.cls-26{fill:url(#Degradado_sin_nombre_17);}.cls-27{fill:url(#Degradado_sin_nombre_18);}.cls-28{fill:url(#Degradado_sin_nombre_19);}.cls-29,.cls-30,.cls-31,.cls-35,.cls-36,.cls-37,.cls-38,.cls-46,.cls-47,.cls-54,.cls-55,.cls-56{opacity:0.5;}.cls-29{fill:url(#Degradado_sin_nombre_20);}.cls-30{fill:url(#Degradado_sin_nombre_21);}.cls-31{fill:url(#Degradado_sin_nombre_22);}.cls-32{fill:url(#Degradado_sin_nombre_23);}.cls-33{fill:url(#Degradado_sin_nombre_24);}.cls-34{fill:url(#Degradado_sin_nombre_25);}.cls-35{fill:url(#Degradado_sin_nombre_26);}.cls-36{fill:url(#Degradado_sin_nombre_27);}.cls-37{fill:url(#Degradado_sin_nombre_28);}.cls-38{fill:url(#Degradado_sin_nombre_29);}.cls-39{fill:url(#Degradado_sin_nombre_30);}.cls-40{fill:url(#Degradado_sin_nombre_31);}.cls-41{fill:url(#Degradado_sin_nombre_32);}.cls-42{fill:url(#Degradado_sin_nombre_33);}.cls-43{fill:url(#Degradado_sin_nombre_34);}.cls-44{fill:url(#Degradado_sin_nombre_35);}.cls-45{fill:url(#Degradado_sin_nombre_36);}.cls-46{fill:url(#Degradado_sin_nombre_37);}.cls-47{fill:url(#Degradado_sin_nombre_38);}.cls-48{fill:url(#Degradado_sin_nombre_39);}.cls-49{fill:url(#Degradado_sin_nombre_40);}.cls-50{fill:url(#Degradado_sin_nombre_41);}.cls-51{fill:url(#Degradado_sin_nombre_42);}.cls-52{fill:url(#Degradado_sin_nombre_43);}.cls-53{fill:url(#Degradado_sin_nombre_44);}.cls-54{fill:url(#Degradado_sin_nombre_45);}.cls-55{fill:url(#Degradado_sin_nombre_46);}.cls-56{fill:url(#Degradado_sin_nombre_47);}.cls-57{fill:#e62323;}.cls-58{fill:#e6e6e6;}.cls-59{fill:#107c10;}.cls-60{fill:#faa21d;}.cls-61{fill:url(#Degradado_sin_nombre_48);}.cls-62{fill:url(#Degradado_sin_nombre_49);}.cls-63{fill:url(#Degradado_sin_nombre_50);}.cls-64{fill:url(#Degradado_sin_nombre_51);}.cls-65{fill:url(#Degradado_sin_nombre_52);}.cls-66{fill:url(#Degradado_sin_nombre_53);}.cls-67{fill:url(#Degradado_sin_nombre_54);}.cls-68{fill:url(#Degradado_sin_nombre_55);}.cls-69{fill:url(#Degradado_sin_nombre_56);}.cls-70{fill:url(#Degradado_sin_nombre_57);}.cls-71{fill:url(#Degradado_sin_nombre_58);}.cls-72{fill:url(#Degradado_sin_nombre_59);}.cls-73{fill:url(#Degradado_sin_nombre_60);}.cls-74{fill:url(#Degradado_sin_nombre_61);}.cls-75{fill:url(#Degradado_sin_nombre_62);}.cls-76{fill:url(#Degradado_sin_nombre_63);}.cls-77{fill:url(#Degradado_sin_nombre_64);}.cls-78{fill:url(#Degradado_sin_nombre_65);}.cls-79{fill:url(#Degradado_sin_nombre_66);}.cls-80{fill:url(#Degradado_sin_nombre_67);}.cls-81{fill:url(#Degradado_sin_nombre_68);}.cls-82{fill:url(#Degradado_sin_nombre_69);}.cls-83{fill:url(#Degradado_sin_nombre_70);}.cls-84{fill:url(#Degradado_sin_nombre_71);}.cls-85{fill:url(#Degradado_sin_nombre_72);}.cls-86{fill:url(#Degradado_sin_nombre_73);}.cls-87{fill:url(#Degradado_sin_nombre_74);}.cls-88{fill:url(#Degradado_sin_nombre_75);}.cls-89{fill:url(#Degradado_sin_nombre_76);}.cls-90{fill:url(#Degradado_sin_nombre_77);}.cls-91{fill:url(#Degradado_sin_nombre_78);}.cls-92{fill:url(#Degradado_sin_nombre_79);}.cls-93{fill:url(#Degradado_sin_nombre_80);}.cls-94{fill:#6ebcdb;}.cls-95{fill:#5db4d7;}.cls-96{fill:#86d633;}.cls-97{fill:#1e1e1e;}.cls-98{fill:#3b3b3b;}</style><linearGradient id="Degradado_sin_nombre" x1="36.12" y1="210.23" x2="36.12" y2="170.82" gradientTransform="translate(0 -162.33)" gradientUnits="userSpaceOnUse"><stop offset="0" stop-color="#5e9624"/><stop offset="0.02" stop-color="#5f9724"/><stop offset="1" stop-color="#76bc2d"/></linearGradient><linearGradient id="Degradado_sin_nombre_2" x1="85.83" y1="324.45" x2="85.83" y2="312.9" gradientTransform="translate(0 -162.33)" gradientUnits="userSpaceOnUse"><stop offset="0" stop-color="#0078d4"/><stop offset="0.82" stop-color="#5ea0ef"/></linearGradient><linearGradient id="Degradado_sin_nombre_3" x1="85.83" y1="328.9" x2="85.83" y2="324.44" gradientTransform="translate(0 -162.33)" gradientUnits="userSpaceOnUse"><stop offset="0.15" stop-color="#ccc"/><stop offset="1" stop-color="#707070"/></linearGradient><linearGradient id="Degradado_sin_nombre_4" x1="142.21" y1="324.45" x2="142.21" y2="312.9" xlink:href="#Degradado_sin_nombre_2"/><linearGradient id="Degradado_sin_nombre_5" x1="142.21" y1="328.9" x2="142.21" y2="324.44" xlink:href="#Degradado_sin_nombre_3"/><linearGradient id="Degradado_sin_nombre_6" x1="197.38" y1="324.45" x2="197.38" y2="312.9" xlink:href="#Degradado_sin_nombre_2"/><linearGradient id="Degradado_sin_nombre_7" x1="197.38" y1="328.9" x2="197.38" y2="324.44" xlink:href="#Degradado_sin_nombre_3"/><linearGradient id="Degradado_sin_nombre_8" x1="252.4" y1="324.45" x2="252.4" y2="312.9" xlink:href="#Degradado_sin_nombre_2"/><linearGradient id="Degradado_sin_nombre_9" x1="252.4" y1="328.9" x2="252.4" y2="324.44" xlink:href="#Degradado_sin_nombre_3"/><linearGradient id="Degradado_sin_nombre_10" x1="81.17" y1="120.49" x2="81.17" y2="130.49" gradientTransform="matrix(1, 0, 0, -1, 0, 216.66)" gradientUnits="userSpaceOnUse"><stop offset="0" stop-color="#0078d4"/><stop offset="0.16" stop-color="#1380da"/><stop offset="0.53" stop-color="#3c91e5"/><stop offset="0.82" stop-color="#559cec"/><stop offset="1" stop-color="#5ea0ef"/></linearGradient><linearGradient id="Degradado_sin_nombre_11" x1="96.17" y1="120.49" x2="96.17" y2="130.49" xlink:href="#Degradado_sin_nombre_10"/><linearGradient id="Degradado_sin_nombre_12" x1="111.17" y1="120.49" x2="111.17" y2="130.49" xlink:href="#Degradado_sin_nombre_10"/><linearGradient id="Degradado_sin_nombre_13" x1="81.17" y1="105.49" x2="81.17" y2="115.49" xlink:href="#Degradado_sin_nombre_10"/><linearGradient id="Degradado_sin_nombre_14" x1="17.66" y1="7.99" x2="17.66" y2="17.99" xlink:href="#Degradado_sin_nombre_10"/><linearGradient id="Degradado_sin_nombre_15" x1="96.17" y1="105.49" x2="96.17" y2="115.49" xlink:href="#Degradado_sin_nombre_10"/><linearGradient id="Degradado_sin_nombre_16" x1="111.17" y1="105.49" x2="111.17" y2="115.49" xlink:href="#Degradado_sin_nombre_10"/><linearGradient id="Degradado_sin_nombre_17" x1="81.17" y1="135.49" x2="81.17" y2="145.49" xlink:href="#Degradado_sin_nombre_10"/><linearGradient id="Degradado_sin_nombre_18" x1="96.17" y1="135.49" x2="96.17" y2="145.49" xlink:href="#Degradado_sin_nombre_10"/><linearGradient id="Degradado_sin_nombre_19" x1="111.17" y1="135.49" x2="111.17" y2="145.49" xlink:href="#Degradado_sin_nombre_10"/><linearGradient id="Degradado_sin_nombre_20" x1="136.17" y1="120.49" x2="136.17" y2="130.49" xlink:href="#Degradado_sin_nombre_10"/><linearGradient id="Degradado_sin_nombre_21" x1="151.17" y1="120.49" x2="151.17" y2="130.49" xlink:href="#Degradado_sin_nombre_10"/><linearGradient id="Degradado_sin_nombre_22" x1="166.17" y1="120.49" x2="166.17" y2="130.49" xlink:href="#Degradado_sin_nombre_10"/><linearGradient id="Degradado_sin_nombre_23" x1="136.17" y1="105.49" x2="136.17" y2="115.49" xlink:href="#Degradado_sin_nombre_10"/><linearGradient id="Degradado_sin_nombre_24" x1="151.17" y1="105.49" x2="151.17" y2="115.49" xlink:href="#Degradado_sin_nombre_10"/><linearGradient id="Degradado_sin_nombre_25" x1="166.17" y1="105.49" x2="166.17" y2="115.49" xlink:href="#Degradado_sin_nombre_10"/><linearGradient id="Degradado_sin_nombre_26" x1="136.17" y1="135.49" x2="136.17" y2="145.49" xlink:href="#Degradado_sin_nombre_10"/><linearGradient id="Degradado_sin_nombre_27" x1="17.66" y1="22.99" x2="17.66" y2="32.99" xlink:href="#Degradado_sin_nombre_10"/><linearGradient id="Degradado_sin_nombre_28" x1="151.17" y1="135.49" x2="151.17" y2="145.49" xlink:href="#Degradado_sin_nombre_10"/><linearGradient id="Degradado_sin_nombre_29" x1="166.17" y1="135.49" x2="166.17" y2="145.49" xlink:href="#Degradado_sin_nombre_10"/><linearGradient id="Degradado_sin_nombre_30" x1="191.17" y1="120.49" x2="191.17" y2="130.49" xlink:href="#Degradado_sin_nombre_10"/><linearGradient id="Degradado_sin_nombre_31" x1="206.17" y1="120.49" x2="206.17" y2="130.49" xlink:href="#Degradado_sin_nombre_10"/><linearGradient id="Degradado_sin_nombre_32" x1="221.17" y1="120.49" x2="221.17" y2="130.49" xlink:href="#Degradado_sin_nombre_10"/><linearGradient id="Degradado_sin_nombre_33" x1="191.17" y1="105.49" x2="191.17" y2="115.49" xlink:href="#Degradado_sin_nombre_10"/><linearGradient id="Degradado_sin_nombre_34" x1="206.17" y1="105.49" x2="206.17" y2="115.49" xlink:href="#Degradado_sin_nombre_10"/><linearGradient id="Degradado_sin_nombre_35" x1="221.17" y1="105.49" x2="221.17" y2="115.49" xlink:href="#Degradado_sin_nombre_10"/><linearGradient id="Degradado_sin_nombre_36" x1="191.17" y1="135.49" x2="191.17" y2="145.49" xlink:href="#Degradado_sin_nombre_10"/><linearGradient id="Degradado_sin_nombre_37" x1="206.17" y1="135.49" x2="206.17" y2="145.49" xlink:href="#Degradado_sin_nombre_10"/><linearGradient id="Degradado_sin_nombre_38" x1="221.17" y1="135.49" x2="221.17" y2="145.49" xlink:href="#Degradado_sin_nombre_10"/><linearGradient id="Degradado_sin_nombre_39" x1="246.17" y1="120.49" x2="246.17" y2="130.49" xlink:href="#Degradado_sin_nombre_10"/><linearGradient id="Degradado_sin_nombre_40" x1="261.17" y1="120.49" x2="261.17" y2="130.49" xlink:href="#Degradado_sin_nombre_10"/><linearGradient id="Degradado_sin_nombre_41" x1="276.17" y1="120.49" x2="276.17" y2="130.49" xlink:href="#Degradado_sin_nombre_10"/><linearGradient id="Degradado_sin_nombre_42" x1="246.17" y1="105.49" x2="246.17" y2="115.49" xlink:href="#Degradado_sin_nombre_10"/><linearGradient id="Degradado_sin_nombre_43" x1="261.17" y1="105.49" x2="261.17" y2="115.49" xlink:href="#Degradado_sin_nombre_10"/><linearGradient id="Degradado_sin_nombre_44" x1="276.17" y1="105.49" x2="276.17" y2="115.49" xlink:href="#Degradado_sin_nombre_10"/><linearGradient id="Degradado_sin_nombre_45" x1="246.17" y1="135.49" x2="246.17" y2="145.49" xlink:href="#Degradado_sin_nombre_10"/><linearGradient id="Degradado_sin_nombre_46" x1="261.17" y1="135.49" x2="261.17" y2="145.49" xlink:href="#Degradado_sin_nombre_10"/><linearGradient id="Degradado_sin_nombre_47" x1="276.17" y1="135.49" x2="276.17" y2="145.49" xlink:href="#Degradado_sin_nombre_10"/><linearGradient id="Degradado_sin_nombre_48" x1="308.33" y1="324.45" x2="308.33" y2="312.9" xlink:href="#Degradado_sin_nombre_2"/><linearGradient id="Degradado_sin_nombre_49" x1="308.33" y1="328.9" x2="308.33" y2="324.44" xlink:href="#Degradado_sin_nombre_3"/><linearGradient id="Degradado_sin_nombre_50" x1="364.71" y1="324.45" x2="364.71" y2="312.9" xlink:href="#Degradado_sin_nombre_2"/><linearGradient id="Degradado_sin_nombre_51" x1="364.69" y1="328.9" x2="364.69" y2="324.44" xlink:href="#Degradado_sin_nombre_3"/><linearGradient id="Degradado_sin_nombre_52" x1="419.88" y1="324.45" x2="419.88" y2="312.9" xlink:href="#Degradado_sin_nombre_2"/><linearGradient id="Degradado_sin_nombre_53" x1="419.88" y1="328.9" x2="419.88" y2="324.44" xlink:href="#Degradado_sin_nombre_3"/><linearGradient id="Degradado_sin_nombre_54" x1="474.9" y1="324.45" x2="474.9" y2="312.9" xlink:href="#Degradado_sin_nombre_2"/><linearGradient id="Degradado_sin_nombre_55" x1="474.9" y1="328.9" x2="474.9" y2="324.44" xlink:href="#Degradado_sin_nombre_3"/><linearGradient id="Degradado_sin_nombre_56" x1="303.67" y1="120.49" x2="303.67" y2="130.49" xlink:href="#Degradado_sin_nombre_10"/><linearGradient id="Degradado_sin_nombre_57" x1="318.67" y1="120.49" x2="318.67" y2="130.49" xlink:href="#Degradado_sin_nombre_10"/><linearGradient id="Degradado_sin_nombre_58" x1="333.67" y1="120.49" x2="333.67" y2="130.49" xlink:href="#Degradado_sin_nombre_10"/><linearGradient id="Degradado_sin_nombre_59" x1="303.67" y1="105.49" x2="303.67" y2="115.49" xlink:href="#Degradado_sin_nombre_10"/><linearGradient id="Degradado_sin_nombre_60" x1="318.67" y1="105.49" x2="318.67" y2="115.49" xlink:href="#Degradado_sin_nombre_10"/><linearGradient id="Degradado_sin_nombre_61" x1="333.67" y1="105.49" x2="333.67" y2="115.49" xlink:href="#Degradado_sin_nombre_10"/><linearGradient id="Degradado_sin_nombre_62" x1="303.67" y1="135.49" x2="303.67" y2="145.49" xlink:href="#Degradado_sin_nombre_10"/><linearGradient id="Degradado_sin_nombre_63" x1="318.67" y1="135.49" x2="318.67" y2="145.49" xlink:href="#Degradado_sin_nombre_10"/><linearGradient id="Degradado_sin_nombre_64" x1="333.67" y1="135.49" x2="333.67" y2="145.49" xlink:href="#Degradado_sin_nombre_10"/><linearGradient id="Degradado_sin_nombre_65" x1="358.67" y1="105.49" x2="358.67" y2="115.49" xlink:href="#Degradado_sin_nombre_10"/><linearGradient id="Degradado_sin_nombre_66" x1="373.67" y1="105.49" x2="373.67" y2="115.49" xlink:href="#Degradado_sin_nombre_10"/><linearGradient id="Degradado_sin_nombre_67" x1="388.67" y1="105.49" x2="388.67" y2="115.49" xlink:href="#Degradado_sin_nombre_10"/><linearGradient id="Degradado_sin_nombre_68" x1="413.67" y1="120.49" x2="413.67" y2="130.49" xlink:href="#Degradado_sin_nombre_10"/><linearGradient id="Degradado_sin_nombre_69" x1="428.67" y1="120.49" x2="428.67" y2="130.49" xlink:href="#Degradado_sin_nombre_10"/><linearGradient id="Degradado_sin_nombre_70" x1="443.67" y1="120.49" x2="443.67" y2="130.49" xlink:href="#Degradado_sin_nombre_10"/><linearGradient id="Degradado_sin_nombre_71" x1="413.67" y1="105.49" x2="413.67" y2="115.49" xlink:href="#Degradado_sin_nombre_10"/><linearGradient id="Degradado_sin_nombre_72" x1="428.67" y1="105.49" x2="428.67" y2="115.49" xlink:href="#Degradado_sin_nombre_10"/><linearGradient id="Degradado_sin_nombre_73" x1="443.67" y1="105.49" x2="443.67" y2="115.49" xlink:href="#Degradado_sin_nombre_10"/><linearGradient id="Degradado_sin_nombre_74" x1="413.67" y1="135.49" x2="413.67" y2="145.49" xlink:href="#Degradado_sin_nombre_10"/><linearGradient id="Degradado_sin_nombre_75" x1="468.67" y1="120.49" x2="468.67" y2="130.49" xlink:href="#Degradado_sin_nombre_10"/><linearGradient id="Degradado_sin_nombre_76" x1="483.67" y1="120.49" x2="483.67" y2="130.49" xlink:href="#Degradado_sin_nombre_10"/><linearGradient id="Degradado_sin_nombre_77" x1="498.67" y1="120.49" x2="498.67" y2="130.49" xlink:href="#Degradado_sin_nombre_10"/><linearGradient id="Degradado_sin_nombre_78" x1="468.67" y1="105.49" x2="468.67" y2="115.49" xlink:href="#Degradado_sin_nombre_10"/><linearGradient id="Degradado_sin_nombre_79" x1="483.67" y1="105.49" x2="483.67" y2="115.49" xlink:href="#Degradado_sin_nombre_10"/><linearGradient id="Degradado_sin_nombre_80" x1="498.67" y1="105.49" x2="498.67" y2="115.49" xlink:href="#Degradado_sin_nombre_10"/></defs><title>OJ104903204</title><g id="Target"><rect class="cls-1" width="578" height="216.17"/><rect class="cls-2" x="291.17" y="1.17" width="285.67" height="175"/><rect class="cls-2" x="1.17" y="1.17" width="285" height="175"/><rect class="cls-1" x="291.83" y="1.17" width="285" height="55"/><rect class="cls-3" x="291.83" y="1.17" width="285" height="55"/><rect class="cls-1" x="1.17" y="1.17" width="285" height="55"/><rect class="cls-3" x="1.17" y="1.17" width="285" height="55"/><path class="cls-4" d="M19.47,26.6,35.31,10.76a1.15,1.15,0,0,1,1.61,0h0L52.78,26.6a1.15,1.15,0,0,1,0,1.61h0L36.92,44.09a1.14,1.14,0,0,1-1.59,0L19.47,28.23a1.13,1.13,0,0,1,0-1.6h0Z"/><path class="cls-5" d="M40.28,18l-4-4A.24.24,0,0,0,36,14l-4,4a.19.19,0,0,0,0,.27.18.18,0,0,0,.19.07h2.34a.21.21,0,0,1,.21.21V22.3a.21.21,0,0,0,.21.21H37.4a.21.21,0,0,0,.21-.21V18.52a.21.21,0,0,1,.21-.21h2.34a.19.19,0,0,0,.23-.13A.19.19,0,0,0,40.28,18Z"/><path class="cls-5" d="M26.68,22.9l-4,4a.19.19,0,0,0,0,.27h0l4,4a.22.22,0,0,0,.3,0h0A.22.22,0,0,0,27,31V28.72a.23.23,0,0,1,.21-.21H31a.2.2,0,0,0,.19-.19h0V25.81a.2.2,0,0,0-.07-.26H27.31a.19.19,0,0,1-.21-.17h0V23.05a.22.22,0,0,0-.13-.28A.23.23,0,0,0,26.68,22.9Z"/><path class="cls-5" d="M45.72,31.19l4-4a.19.19,0,0,0,0-.27h0l-4-4a.22.22,0,0,0-.3,0,.28.28,0,0,0,0,.12v2.36a.18.18,0,0,1-.17.19H41.4a.2.2,0,0,0-.19.19v2.5a.19.19,0,0,0,.17.21h3.79a.21.21,0,0,1,.21.21v2.34a.2.2,0,0,0,.22.18h0A.16.16,0,0,0,45.72,31.19Z"/><path class="cls-1" d="M41.4,27.42a5.27,5.27,0,1,0-6.69,5v1.79a3.23,3.23,0,1,0,4.35,1.39h0a3.33,3.33,0,0,0-1.39-1.39V32.36A5.24,5.24,0,0,0,41.4,27.42Z"/><circle id="e99c3387-15c3-4f28-bd4b-cb209b430e06" class="cls-6" cx="36.14" cy="27.4" r="3.06"/><rect class="cls-7" x="77.17" y="150.57" width="17.32" height="11.55" rx="0.58"/><polygon class="cls-8" points="88.71 154.66 88.71 158.02 85.83 159.71 85.83 156.34 88.71 154.66"/><polygon class="cls-9" points="88.71 154.66 85.83 156.35 82.94 154.66 85.83 152.98 88.71 154.66"/><polygon class="cls-10" points="85.83 156.35 85.83 159.71 82.94 158.02 82.94 154.66 85.83 156.35"/><polygon class="cls-9" points="82.94 158.02 85.83 156.34 85.83 159.71 82.94 158.02"/><polygon class="cls-10" points="88.71 158.02 85.83 156.34 85.83 159.71 88.71 158.02"/><path class="cls-11" d="M89.3,165.61c-1.71-.27-1.78-1.5-1.78-3.49h-3.4c0,2-.05,3.22-1.77,3.49a1,1,0,0,0-.85,1h8.66A1,1,0,0,0,89.3,165.61Z"/><rect class="cls-12" x="133.55" y="150.57" width="17.32" height="11.55" rx="0.58"/><polygon class="cls-8" points="145.09 154.66 145.09 158.02 142.21 159.71 142.21 156.34 145.09 154.66"/><polygon class="cls-9" points="145.09 154.66 142.21 156.35 139.32 154.66 142.21 152.98 145.09 154.66"/><polygon class="cls-10" points="142.21 156.35 142.21 159.71 139.32 158.02 139.32 154.66 142.21 156.35"/><polygon class="cls-9" points="139.32 158.02 142.21 156.34 142.21 159.71 139.32 158.02"/><polygon class="cls-10" points="145.09 158.02 142.21 156.34 142.21 159.71 145.09 158.02"/><path class="cls-13" d="M145.68,165.61c-1.71-.27-1.78-1.5-1.78-3.49h-3.39c0,2-.06,3.22-1.77,3.49a1,1,0,0,0-.86,1h8.66A1,1,0,0,0,145.68,165.61Z"/><rect class="cls-14" x="188.72" y="150.57" width="17.32" height="11.55" rx="0.58"/><polygon class="cls-8" points="200.26 154.66 200.26 158.02 197.38 159.71 197.38 156.34 200.26 154.66"/><polygon class="cls-9" points="200.26 154.66 197.38 156.35 194.49 154.66 197.38 152.98 200.26 154.66"/><polygon class="cls-10" points="197.38 156.35 197.38 159.71 194.49 158.02 194.49 154.66 197.38 156.35"/><polygon class="cls-9" points="194.49 158.02 197.38 156.34 197.38 159.71 194.49 158.02"/><polygon class="cls-10" points="200.26 158.02 197.38 156.34 197.38 159.71 200.26 158.02"/><path class="cls-15" d="M200.85,165.61c-1.71-.27-1.78-1.5-1.78-3.49h-3.4c0,2-.06,3.22-1.77,3.49a1,1,0,0,0-.85,1h8.65A1,1,0,0,0,200.85,165.61Z"/><rect class="cls-16" x="243.74" y="150.57" width="17.32" height="11.55" rx="0.58"/><polygon class="cls-8" points="255.28 154.66 255.28 158.02 252.4 159.71 252.4 156.34 255.28 154.66"/><polygon class="cls-9" points="255.28 154.66 252.4 156.35 249.51 154.66 252.4 152.98 255.28 154.66"/><polygon class="cls-10" points="252.4 156.35 252.4 159.71 249.51 158.02 249.51 154.66 252.4 156.35"/><polygon class="cls-9" points="249.51 158.02 252.4 156.34 252.4 159.71 249.51 158.02"/><polygon class="cls-10" points="255.28 158.02 252.4 156.34 252.4 159.71 255.28 158.02"/><path class="cls-17" d="M255.87,165.61c-1.71-.27-1.78-1.5-1.78-3.49h-3.4c0,2-.05,3.22-1.77,3.49a1,1,0,0,0-.85,1h8.66A1,1,0,0,0,255.87,165.61Z"/><line class="cls-18" x1="1.17" y1="121.17" x2="286.17" y2="121.17"/><circle class="cls-19" cx="81.17" cy="91.17" r="5"/><circle class="cls-20" cx="96.17" cy="91.17" r="5"/><circle class="cls-21" cx="111.17" cy="91.17" r="5"/><circle class="cls-22" cx="81.17" cy="106.17" r="5"/><circle class="cls-23" cx="17.66" cy="203.67" r="5"/><circle class="cls-24" cx="96.17" cy="106.17" r="5"/><circle class="cls-25" cx="111.17" cy="106.17" r="5"/><circle class="cls-26" cx="81.17" cy="76.17" r="5"/><circle class="cls-27" cx="96.17" cy="76.17" r="5"/><circle class="cls-28" cx="111.17" cy="76.17" r="5"/><circle class="cls-29" cx="136.17" cy="91.17" r="5"/><circle class="cls-30" cx="151.17" cy="91.17" r="5"/><circle class="cls-31" cx="166.17" cy="91.17" r="5"/><circle class="cls-32" cx="136.17" cy="106.17" r="5"/><circle class="cls-33" cx="151.17" cy="106.17" r="5"/><circle class="cls-34" cx="166.17" cy="106.17" r="5"/><circle class="cls-35" cx="136.17" cy="76.17" r="5"/><circle class="cls-36" cx="17.66" cy="188.67" r="5"/><circle class="cls-37" cx="151.17" cy="76.17" r="5"/><circle class="cls-38" cx="166.17" cy="76.17" r="5"/><circle class="cls-39" cx="191.17" cy="91.17" r="5"/><circle class="cls-40" cx="206.17" cy="91.17" r="5"/><circle class="cls-41" cx="221.17" cy="91.17" r="5"/><circle class="cls-42" cx="191.17" cy="106.17" r="5"/><circle class="cls-43" cx="206.17" cy="106.17" r="5"/><circle class="cls-44" cx="221.17" cy="106.17" r="5"/><circle class="cls-45" cx="191.17" cy="76.17" r="5"/><circle class="cls-46" cx="206.17" cy="76.17" r="5"/><circle class="cls-47" cx="221.17" cy="76.17" r="5"/><circle class="cls-48" cx="246.17" cy="91.17" r="5"/><circle class="cls-49" cx="261.17" cy="91.17" r="5"/><circle class="cls-50" cx="276.17" cy="91.17" r="5"/><circle class="cls-51" cx="246.17" cy="106.17" r="5"/><circle class="cls-52" cx="261.17" cy="106.17" r="5"/><circle class="cls-53" cx="276.17" cy="106.17" r="5"/><circle class="cls-54" cx="246.17" cy="76.17" r="5"/><circle class="cls-55" cx="261.17" cy="76.17" r="5"/><circle class="cls-56" cx="276.17" cy="76.17" r="5"/><rect class="cls-57" x="76.53" y="131.17" width="40" height="10"/><rect class="cls-58" x="131.72" y="131.17" width="40" height="10"/><rect class="cls-59" x="131.72" y="131.17" width="10" height="10"/><rect class="cls-58" x="186.72" y="131.17" width="40" height="10"/><rect class="cls-60" x="186.72" y="131.17" width="25" height="10"/><rect class="cls-58" x="241.72" y="131.17" width="40" height="10"/><rect class="cls-59" x="241.72" y="131.17" width="25" height="10"/><line class="cls-18" x1="71.17" y1="56.17" x2="71.17" y2="176.17"/><line class="cls-18" x1="125.04" y1="56.17" x2="125.04" y2="176.17"/><line class="cls-18" x1="178.92" y1="56.17" x2="178.92" y2="176.17"/><line class="cls-18" x1="232.79" y1="56.17" x2="232.79" y2="176.17"/><rect class="cls-61" x="299.67" y="150.57" width="17.32" height="11.55" rx="0.58"/><polygon class="cls-8" points="311.21 154.66 311.21 158.02 308.33 159.71 308.33 156.34 311.21 154.66"/><polygon class="cls-9" points="311.21 154.66 308.33 156.35 305.44 154.66 308.33 152.98 311.21 154.66"/><polygon class="cls-10" points="308.33 156.35 308.33 159.71 305.44 158.02 305.44 154.66 308.33 156.35"/><polygon class="cls-9" points="305.44 158.02 308.33 156.34 308.33 159.71 305.44 158.02"/><polygon class="cls-10" points="311.21 158.02 308.33 156.34 308.33 159.71 311.21 158.02"/><path class="cls-62" d="M311.8,165.61c-1.71-.27-1.78-1.5-1.78-3.49h-3.4c0,2-.05,3.22-1.77,3.49a1,1,0,0,0-.85,1h8.66A1,1,0,0,0,311.8,165.61Z"/><rect class="cls-63" x="356.05" y="150.57" width="17.32" height="11.55" rx="0.58"/><polygon class="cls-8" points="367.6 154.66 367.6 158.02 364.71 159.71 364.71 156.34 367.6 154.66"/><polygon class="cls-9" points="367.6 154.66 364.71 156.35 361.82 154.66 364.71 152.98 367.6 154.66"/><polygon class="cls-10" points="364.71 156.35 364.71 159.71 361.82 158.02 361.82 154.66 364.71 156.35"/><polygon class="cls-9" points="361.82 158.02 364.71 156.34 364.71 159.71 361.82 158.02"/><polygon class="cls-10" points="367.6 158.02 364.71 156.34 364.71 159.71 367.6 158.02"/><path class="cls-64" d="M368.18,165.61c-1.71-.27-1.78-1.5-1.78-3.49H363c0,2-.06,3.22-1.77,3.49a1,1,0,0,0-.86,1H369A1,1,0,0,0,368.18,165.61Z"/><rect class="cls-65" x="411.22" y="150.57" width="17.32" height="11.55" rx="0.58"/><polygon class="cls-8" points="422.76 154.66 422.76 158.02 419.88 159.71 419.88 156.34 422.76 154.66"/><polygon class="cls-9" points="422.76 154.66 419.88 156.35 416.99 154.66 419.88 152.98 422.76 154.66"/><polygon class="cls-10" points="419.88 156.35 419.88 159.71 416.99 158.02 416.99 154.66 419.88 156.35"/><polygon class="cls-9" points="416.99 158.02 419.88 156.34 419.88 159.71 416.99 158.02"/><polygon class="cls-10" points="422.76 158.02 419.88 156.34 419.88 159.71 422.76 158.02"/><path class="cls-66" d="M423.35,165.61c-1.71-.27-1.78-1.5-1.78-3.49h-3.4c0,2-.06,3.22-1.77,3.49a1,1,0,0,0-.85,1h8.65A1,1,0,0,0,423.35,165.61Z"/><rect class="cls-67" x="466.24" y="150.57" width="17.32" height="11.55" rx="0.58"/><polygon class="cls-8" points="477.78 154.66 477.78 158.02 474.9 159.71 474.9 156.34 477.78 154.66"/><polygon class="cls-9" points="477.78 154.66 474.9 156.35 472.01 154.66 474.9 152.98 477.78 154.66"/><polygon class="cls-10" points="474.9 156.35 474.9 159.71 472.01 158.02 472.01 154.66 474.9 156.35"/><polygon class="cls-9" points="472.01 158.02 474.9 156.34 474.9 159.71 472.01 158.02"/><polygon class="cls-10" points="477.78 158.02 474.9 156.34 474.9 159.71 477.78 158.02"/><path class="cls-68" d="M478.37,165.61c-1.71-.27-1.78-1.5-1.78-3.49h-3.4c0,2-.05,3.22-1.77,3.49a1,1,0,0,0-.85,1h8.66A1,1,0,0,0,478.37,165.61Z"/><line class="cls-18" x1="291.17" y1="121.17" x2="576.83" y2="121.17"/><circle class="cls-69" cx="303.67" cy="91.17" r="5"/><circle class="cls-70" cx="318.67" cy="91.17" r="5"/><circle class="cls-71" cx="333.67" cy="91.17" r="5"/><circle class="cls-72" cx="303.67" cy="106.17" r="5"/><circle class="cls-73" cx="318.67" cy="106.17" r="5"/><circle class="cls-74" cx="333.67" cy="106.17" r="5"/><circle class="cls-75" cx="303.67" cy="76.17" r="5"/><circle class="cls-76" cx="318.67" cy="76.17" r="5"/><circle class="cls-77" cx="333.67" cy="76.17" r="5"/><circle class="cls-78" cx="358.67" cy="106.17" r="5"/><circle class="cls-79" cx="373.67" cy="106.17" r="5"/><circle class="cls-80" cx="388.67" cy="106.17" r="5"/><circle class="cls-81" cx="413.67" cy="91.17" r="5"/><circle class="cls-82" cx="428.67" cy="91.17" r="5"/><circle class="cls-83" cx="443.67" cy="91.17" r="5"/><circle class="cls-84" cx="413.67" cy="106.17" r="5"/><circle class="cls-85" cx="428.67" cy="106.17" r="5"/><circle class="cls-86" cx="443.67" cy="106.17" r="5"/><circle class="cls-87" cx="413.67" cy="76.17" r="5"/><circle class="cls-88" cx="468.67" cy="91.17" r="5"/><circle class="cls-89" cx="483.67" cy="91.17" r="5"/><circle class="cls-90" cx="498.67" cy="91.17" r="5"/><circle class="cls-91" cx="468.67" cy="106.17" r="5"/><circle class="cls-92" cx="483.67" cy="106.17" r="5"/><circle class="cls-93" cx="498.67" cy="106.17" r="5"/><rect class="cls-59" x="299.03" y="131.17" width="40" height="10"/><rect class="cls-58" x="354.22" y="131.17" width="40" height="10"/><rect class="cls-59" x="354.22" y="131.17" width="10" height="10"/><rect class="cls-58" x="409.22" y="131.17" width="40" height="10"/><rect class="cls-59" x="409.22" y="131.17" width="25" height="10"/><rect class="cls-58" x="464.22" y="131.17" width="40" height="10"/><rect class="cls-59" x="464.22" y="131.17" width="25" height="10"/><line class="cls-18" x1="347.54" y1="56.17" x2="347.54" y2="176.17"/><line class="cls-18" x1="401.42" y1="56.17" x2="401.42" y2="176.17"/><line class="cls-18" x1="455.29" y1="56.17" x2="455.29" y2="176.17"/><line class="cls-18" x1="511.83" y1="56.17" x2="511.83" y2="176.17"/><g id="ad94e297-0e86-4eaf-aac0-d146ee9aea65"><path class="cls-94" d="M313.87,35.34,308.73,30a2.45,2.45,0,0,1-.85.15,2.66,2.66,0,1,1,2.45-3.64h5.07v1.77h-5a4.51,4.51,0,0,1-.29.63l4.75,4.89,2.57-3.91V17.66H314l4.36-4.42,4.33,4.42h-3.46v9.58l6.5-9.92-6.55-6.56a1.15,1.15,0,0,0-1.61,0h0L301.68,26.61a1.15,1.15,0,0,0,0,1.61h0l15.87,15.87-5.67-5.67Z"/><path class="cls-95" d="M317.44,35.57V29.9l-2.57,3.93,1.89,2A1.88,1.88,0,0,1,317.44,35.57Z"/><path class="cls-95" d="M335,26.61l-9.3-9.29-6.5,9.92v8.35a2.25,2.25,0,0,1,.59.32l6.82-6.9a3,3,0,0,1-.34-.7h-5.12V26.54h5.2a2.64,2.64,0,1,1,2.45,3.64,2.58,2.58,0,0,1-.73-.11l-7.26,7.31a2.25,2.25,0,0,1,.11.68,2.66,2.66,0,0,1-5.32.21h0a2.44,2.44,0,0,1,.15-1l-1.89-1.89-2,3,5.67,5.67a1.14,1.14,0,0,0,1.59,0L335,28.22a1.13,1.13,0,0,0,0-1.6h0Z"/><path class="cls-58" d="M326.36,26.54h-5.2v1.77h5.12a2.67,2.67,0,0,1-.13-.79A2.37,2.37,0,0,1,326.36,26.54Z"/><path class="cls-58" d="M310.41,28.31h5V26.54h-5.07a2.46,2.46,0,0,1,.21,1A2.9,2.9,0,0,1,310.41,28.31Z"/><path class="cls-58" d="M320.82,37.38l7.26-7.31A2.62,2.62,0,0,1,326.62,29l-6.82,6.9A2.54,2.54,0,0,1,320.82,37.38Z"/><path class="cls-58" d="M316.81,35.85l-1.89-2L310.12,29a2.67,2.67,0,0,1-1.39,1l5.14,5.31,1.89,1.89A2.65,2.65,0,0,1,316.81,35.85Z"/><path class="cls-1" d="M322.65,17.66l-4.31-4.42L314,17.66h3.46V35.57a2.09,2.09,0,0,0-.63.28,2.59,2.59,0,0,0-1.05,1.44,2.64,2.64,0,0,0,5.06,1.53h0a2.79,2.79,0,0,0,.11-.76,2.25,2.25,0,0,0-.11-.68,2.49,2.49,0,0,0-1-1.47,2.25,2.25,0,0,0-.59-.32V17.66Zm-4.31,21.88a1.48,1.48,0,1,1,1.48-1.48h0a1.48,1.48,0,0,1-1.48,1.48Z"/><path class="cls-1" d="M310.12,28.94a4.51,4.51,0,0,0,.29-.63,2.67,2.67,0,0,0,.13-.79,2.46,2.46,0,0,0-.21-1,2.65,2.65,0,1,0-2.45,3.64,2.45,2.45,0,0,0,.85-.15A2.69,2.69,0,0,0,310.12,28.94Zm-2.24,0a1.48,1.48,0,1,1,1.47-1.49h0A1.47,1.47,0,0,1,308,29h-.07Z"/><path class="cls-1" d="M328.08,30.07a2.58,2.58,0,0,0,.73.11,2.66,2.66,0,1,0-2.45-3.64,2.46,2.46,0,0,0-.21,1,2.67,2.67,0,0,0,.13.79,3,3,0,0,0,.34.7A2.65,2.65,0,0,0,328.08,30.07Zm.73-4a1.47,1.47,0,1,1-.33,0A.92.92,0,0,1,328.81,26.07Z"/><path class="cls-96" d="M318.34,36.59a1.48,1.48,0,1,0,1.48,1.48h0a1.47,1.47,0,0,0-1.47-1.47Z"/><circle class="cls-96" cx="307.88" cy="27.52" r="1.47"/><path class="cls-96" d="M328.81,29a1.47,1.47,0,1,0-1.47-1.47h0A1.47,1.47,0,0,0,328.81,29Z"/></g></g><g id="Text"><path class="cls-97" d="M70.3,18.36H65.37V9.73H67V17H70.3Z"/><path class="cls-97" d="M71,15.32a3.21,3.21,0,0,1,.89-2.39,3.27,3.27,0,0,1,2.42-.88,2.95,2.95,0,0,1,3.17,3.16,3.27,3.27,0,0,1-.88,2.4,3.6,3.6,0,0,1-4.73,0A3.11,3.11,0,0,1,71,15.32Zm1.65,0c0,1.29.54,1.94,1.61,1.94s1.56-.66,1.56-2-.52-1.92-1.56-1.92a1.46,1.46,0,0,0-1.19.53A2.24,2.24,0,0,0,72.63,15.29Z"/><path class="cls-97" d="M78.81,12.59a4,4,0,0,1,1.08-.39,5.45,5.45,0,0,1,1.19-.15,2.22,2.22,0,0,1,2.49,2.53v3.78H82v-.91h0a2,2,0,0,1-1.85,1.06,2,2,0,0,1-1.41-.5,1.78,1.78,0,0,1-.52-1.35c0-1.17.7-1.85,2.09-2L82,14.38a1,1,0,0,0-1.15-1.17,3.46,3.46,0,0,0-2.06.68Zm2,2.95c-.71.09-1.06.41-1.06.95a.78.78,0,0,0,.25.59,1,1,0,0,0,.68.23,1.25,1.25,0,0,0,1-.42,1.48,1.48,0,0,0,.38-1v-.46Z"/><path class="cls-97" d="M91,18.36H89.36v-.91h0a2.14,2.14,0,0,1-2,1.06,2.33,2.33,0,0,1-1.86-.83,3.46,3.46,0,0,1-.69-2.27A3.71,3.71,0,0,1,85.59,13a2.55,2.55,0,0,1,2-.92,1.79,1.79,0,0,1,1.71.9h0V9.24H91Zm-1.6-3.53a1.57,1.57,0,0,0-.4-1.08,1.34,1.34,0,0,0-1-.43,1.32,1.32,0,0,0-1.11.55,2.43,2.43,0,0,0-.41,1.5,2.13,2.13,0,0,0,.39,1.37,1.28,1.28,0,0,0,1.06.49A1.31,1.31,0,0,0,89,16.72a2,2,0,0,0,.41-1.3Z"/><path class="cls-97" d="M97.11,18.36V9.73h2.94a3.57,3.57,0,0,1,2.08.53,1.72,1.72,0,0,1,.75,1.48,1.87,1.87,0,0,1-.44,1.22,2.36,2.36,0,0,1-1.18.76v0a2.33,2.33,0,0,1,1.45.68,1.92,1.92,0,0,1,.54,1.39,2.28,2.28,0,0,1-.83,1.85,3.35,3.35,0,0,1-2.23.7ZM98.78,11v2.27h.91a1.63,1.63,0,0,0,1.06-.32,1.14,1.14,0,0,0,.38-.9c0-.7-.5-1.05-1.49-1.05Zm0,3.56v2.5h1.15a1.73,1.73,0,0,0,1.15-.34,1.16,1.16,0,0,0,.41-.94c0-.82-.54-1.22-1.62-1.22Z"/><path class="cls-97" d="M104.75,12.59a4,4,0,0,1,1.08-.39,5.45,5.45,0,0,1,1.19-.15,2.22,2.22,0,0,1,2.49,2.53v3.78H108v-.91h0a2,2,0,0,1-1.85,1.06,2,2,0,0,1-1.41-.5,1.78,1.78,0,0,1-.52-1.35c0-1.17.7-1.85,2.09-2l1.72-.24a1,1,0,0,0-1.15-1.17,3.46,3.46,0,0,0-2.06.68Zm2,2.95c-.71.09-1.06.41-1.06.95a.78.78,0,0,0,.25.59,1,1,0,0,0,.68.23,1.25,1.25,0,0,0,1-.42,1.48,1.48,0,0,0,.38-1v-.46Z"/><path class="cls-97" d="M111.11,18.36V9.24h1.63v9.12Z"/><path class="cls-97" d="M114.58,12.59a4,4,0,0,1,1.08-.39,5.45,5.45,0,0,1,1.19-.15,2.23,2.23,0,0,1,2.5,2.53v3.78h-1.56v-.91h0a2,2,0,0,1-1.85,1.06,2,2,0,0,1-1.41-.5,1.78,1.78,0,0,1-.52-1.35q0-1.75,2.1-2l1.71-.24a1,1,0,0,0-1.15-1.17,3.48,3.48,0,0,0-2.06.68Zm2,2.95c-.7.09-1.06.41-1.06.95a.76.76,0,0,0,.26.59,1,1,0,0,0,.68.23,1.23,1.23,0,0,0,1-.42,1.44,1.44,0,0,0,.38-1v-.46Z"/><path class="cls-97" d="M126.67,18.36H125V14.91c0-1.06-.38-1.59-1.15-1.59a1.18,1.18,0,0,0-.93.43,1.67,1.67,0,0,0-.36,1.1v3.51H121V12.2h1.64v1h0a2.18,2.18,0,0,1,2-1.14c1.37,0,2.06.85,2.06,2.54Z"/><path class="cls-97" d="M132.81,18.12a3.55,3.55,0,0,1-1.81.39,3.07,3.07,0,0,1-2.24-.85,3,3,0,0,1-.86-2.23,3.14,3.14,0,0,1,3.38-3.38,3.3,3.3,0,0,1,1.53.29v1.44a2.28,2.28,0,0,0-1.37-.46,1.8,1.8,0,0,0-1.37.54,2,2,0,0,0-.52,1.45,2,2,0,0,0,.49,1.41,1.76,1.76,0,0,0,1.34.51,2.54,2.54,0,0,0,1.43-.47Z"/><path class="cls-97" d="M139.5,15.74h-4.12a1.55,1.55,0,0,0,1.79,1.57,3.17,3.17,0,0,0,1.82-.54V18a4.33,4.33,0,0,1-2.19.5,3,3,0,0,1-2.24-.83,3.25,3.25,0,0,1-.8-2.33,3.34,3.34,0,0,1,.86-2.38,2.83,2.83,0,0,1,2.15-.92,2.61,2.61,0,0,1,2,.79A3.12,3.12,0,0,1,139.5,15ZM138,14.66c0-1-.41-1.46-1.21-1.46a1.19,1.19,0,0,0-.89.4,1.93,1.93,0,0,0-.48,1.06Z"/><path class="cls-97" d="M144.52,13.7a1.47,1.47,0,0,0-.79-.19,1.17,1.17,0,0,0-1,.5,2.21,2.21,0,0,0-.37,1.35v3h-1.63V12.2h1.63v1.18h0A1.65,1.65,0,0,1,144,12.09a1.26,1.26,0,0,1,.5.08Z"/><path class="cls-97" d="M351.08,15.76l-3,8.62h-1.88l-3-8.62H345L347,22a4.46,4.46,0,0,1,.17.84h0a3.51,3.51,0,0,1,.18-.85l2-6.23Z"/><path class="cls-97" d="M351.87,16.2a.83.83,0,0,1,.27-.63,1.06,1.06,0,0,1,1.37,0,.78.78,0,0,1,.28.63.81.81,0,0,1-.28.63,1,1,0,0,1-.68.25.93.93,0,0,1-.69-.26A.83.83,0,0,1,351.87,16.2Zm.13,8.18V18.22h1.63v6.16Z"/><path class="cls-97" d="M359.11,19.73a1.52,1.52,0,0,0-.79-.19,1.16,1.16,0,0,0-1,.5,2.24,2.24,0,0,0-.37,1.34v3h-1.63V18.22H357v1.19h0a1.65,1.65,0,0,1,1.62-1.29,1.29,1.29,0,0,1,.51.08Z"/><path class="cls-97" d="M363.9,24.32a2.64,2.64,0,0,1-1.16.21c-1.27,0-1.9-.67-1.9-2V19.47h-1V18.22h1V16.85l1.63-.48v1.85h1.43v1.25h-1.43v2.77c0,.68.27,1,.8,1a1.11,1.11,0,0,0,.63-.19Z"/><path class="cls-97" d="M370.66,24.38H369v-.95h0a2.1,2.1,0,0,1-1.89,1.1c-1.44,0-2.16-.86-2.16-2.6V18.22h1.63v3.54q0,1.5,1.17,1.5a1.19,1.19,0,0,0,.92-.41,1.59,1.59,0,0,0,.36-1.09V18.22h1.63Z"/><path class="cls-97" d="M372.51,18.62a4,4,0,0,1,1.08-.39,5.45,5.45,0,0,1,1.19-.15,2.22,2.22,0,0,1,2.5,2.53v3.77h-1.56v-.91h0a2,2,0,0,1-1.85,1.06,1.93,1.93,0,0,1-1.41-.5,1.76,1.76,0,0,1-.52-1.34c0-1.18.7-1.86,2.1-2.05l1.72-.23a1,1,0,0,0-1.15-1.18,3.52,3.52,0,0,0-2.07.69Zm2,2.95c-.7.09-1.05.4-1.05.94a.77.77,0,0,0,.25.6,1,1,0,0,0,.68.22,1.22,1.22,0,0,0,1-.41,1.44,1.44,0,0,0,.39-1v-.47Z"/><path class="cls-97" d="M378.87,24.38V15.27h1.63v9.11Z"/><path class="cls-97" d="M394.12,24.38h-1.75l-3.81-5.84a5.44,5.44,0,0,1-.39-.67h0c0,.28.05.72.05,1.34v5.17h-1.6V15.76h1.86l3.68,5.69a7.72,7.72,0,0,1,.41.67h0a8.86,8.86,0,0,1-.05-1.21V15.76h1.59Z"/><path class="cls-97" d="M401.38,21.76h-4.11c.06,1,.66,1.57,1.78,1.57a3.22,3.22,0,0,0,1.83-.54V24a4.37,4.37,0,0,1-2.2.49,3,3,0,0,1-2.24-.83,3.22,3.22,0,0,1-.8-2.32A3.39,3.39,0,0,1,396.5,19a2.82,2.82,0,0,1,2.15-.91,2.57,2.57,0,0,1,2,.79,3.11,3.11,0,0,1,.72,2.17Zm-1.54-1.07c0-1-.4-1.46-1.21-1.46a1.23,1.23,0,0,0-.89.39,1.92,1.92,0,0,0-.47,1.07Z"/><path class="cls-97" d="M406.09,24.32a2.61,2.61,0,0,1-1.16.21c-1.26,0-1.89-.67-1.89-2V19.47h-1V18.22h1V16.85l1.63-.48v1.85h1.42v1.25h-1.42v2.77c0,.68.26,1,.8,1a1.08,1.08,0,0,0,.62-.19Z"/><path class="cls-97" d="M415.82,18.22,414,24.38h-1.71l-1-3.84a2.77,2.77,0,0,1-.1-.72h0a3,3,0,0,1-.12.71L410,24.38h-1.68l-1.78-6.16h1.68l1,4.21a3.84,3.84,0,0,1,.1.64h0a3.72,3.72,0,0,1,.11-.67l1.17-4.18h1.55l1,4.21a4.71,4.71,0,0,1,.09.65h0a5.85,5.85,0,0,1,.1-.65l.93-4.21Z"/><path class="cls-97" d="M416.37,21.34a3.22,3.22,0,0,1,.89-2.39,3.32,3.32,0,0,1,2.42-.87,2.95,2.95,0,0,1,3.17,3.16,3.27,3.27,0,0,1-.88,2.4,3.63,3.63,0,0,1-4.73,0A3.14,3.14,0,0,1,416.37,21.34Zm1.66,0c0,1.29.53,1.94,1.61,1.94s1.55-.66,1.55-2-.52-1.92-1.56-1.92a1.42,1.42,0,0,0-1.18.52A2.26,2.26,0,0,0,418,21.32Z"/><path class="cls-97" d="M428,19.73a1.52,1.52,0,0,0-.79-.19,1.16,1.16,0,0,0-1,.5,2.24,2.24,0,0,0-.37,1.34v3H424.2V18.22h1.63v1.19h0a1.65,1.65,0,0,1,1.62-1.29,1.32,1.32,0,0,1,.51.08Z"/><path class="cls-97" d="M434.79,24.38h-2l-2.19-3h0v3h-1.64V15.27h1.64v5.8h0l2.06-2.85h2l-2.4,2.92Z"/><path class="cls-97" d="M447.52,24.38h-1.74L442,18.54a6.88,6.88,0,0,1-.38-.67h0c0,.28.05.72.05,1.34v5.17H440V15.76h1.86l3.68,5.69c.19.29.32.51.41.67h0a9.62,9.62,0,0,1,0-1.21V15.76h1.58Z"/><path class="cls-97" d="M456.91,24.38h-1.83l-.69-2.06h-3.24l-.68,2.06h-1.83l3.2-8.62h1.92ZM454,21l-1.05-3.13a3.72,3.72,0,0,1-.14-.71h0a3.45,3.45,0,0,1-.15.7L451.53,21Z"/><path class="cls-97" d="M462.92,17.15h-2.47v7.23h-1.68V17.15h-2.46V15.76h6.61Z"/><path class="cls-98" d="M343.86,38V36.81h2.63v-2.6A2.52,2.52,0,0,1,345.2,32a2.47,2.47,0,0,1,1.11-2.13,5.38,5.38,0,0,1,5.58,0A2.47,2.47,0,0,1,353,32a2.56,2.56,0,0,1-1.28,2.25v2.6h2.63V38Zm5.25-7.77a3,3,0,0,0-1.76.46,1.51,1.51,0,0,0,0,2.48,3,3,0,0,0,1.76.46,3,3,0,0,0,1.74-.46,1.51,1.51,0,0,0,0-2.48A2.9,2.9,0,0,0,349.11,30.26Zm-1.17,6.55h2.33V34.76a6.22,6.22,0,0,1-2.33,0Z"/><path class="cls-98" d="M362.25,34.63a7.11,7.11,0,0,1-2.68-1.91,5.47,5.47,0,0,1-1.1,1.27A6.92,6.92,0,0,1,357,35l-1-1a5.2,5.2,0,0,0,2.05-1.39,2.85,2.85,0,0,0,.74-1.87v-.2h-2.48v-1.2h2.49V28.12h1.48v1.26h2.48v1.2h-2.48v.23a2.3,2.3,0,0,0,.79,1.69,4.27,4.27,0,0,0,2,1.07ZM362,39.55a5.1,5.1,0,0,1-2.74-.62,1.89,1.89,0,0,1,0-3.31,6.25,6.25,0,0,1,5.49,0,1.92,1.92,0,0,1,1,1.66,1.86,1.86,0,0,1-1,1.64A5.16,5.16,0,0,1,362,39.55Zm0-3.35a3.73,3.73,0,0,0-1.67.29.82.82,0,0,0,0,1.56,3.73,3.73,0,0,0,1.67.29,3.81,3.81,0,0,0,1.68-.29.86.86,0,0,0,.56-.78.88.88,0,0,0-.55-.78A3.89,3.89,0,0,0,362,36.2Zm2.11-1.33V32.45h-2V31.24h2v-3h1.45v6.59Z"/><path class="cls-98" d="M378.27,36.78a8.55,8.55,0,0,1-2.59-2.8,8,8,0,0,1-2.6,3l-1.15-1a5.54,5.54,0,0,0,2.17-2,5,5,0,0,0,.85-2.7V29h1.47V31.2a4.71,4.71,0,0,0,.83,2.61,4.5,4.5,0,0,0,2.06,1.8Zm1.85,2.8V28.28h1.46v11.3Z"/><path class="cls-98" d="M391.66,36.84a2.63,2.63,0,0,1-2.19-1.06,4.52,4.52,0,0,1-.82-2.86,4.51,4.51,0,0,1,.82-2.88,2.81,2.81,0,0,1,4.37,0,4.58,4.58,0,0,1,.82,2.87,4.6,4.6,0,0,1-.82,2.87A2.64,2.64,0,0,1,391.66,36.84Zm0-6.59a1.29,1.29,0,0,0-1.11.71,3.78,3.78,0,0,0-.44,2,3.77,3.77,0,0,0,.44,1.94,1.2,1.2,0,0,0,2.21,0,3.82,3.82,0,0,0,.44-1.94,3.77,3.77,0,0,0-.43-2A1.28,1.28,0,0,0,391.66,30.25Zm5.8,3.61v5.72H396V28.28h1.46v4.34h1.77v1.24Z"/><path class="cls-98" d="M406.35,34.64v1.07h-1.48V34.64h-4.5V33.4h10.49v1.24Zm3.16,5a6.77,6.77,0,0,1-2.28-.69,4.17,4.17,0,0,1-1.63-1.2A4.27,4.27,0,0,1,404,39a6.67,6.67,0,0,1-2.21.69l-.88-1.17a6,6,0,0,0,2.75-.78c.81-.47,1.21-1,1.21-1.47v-.18h1.47v.17c0,.52.39,1,1.18,1.5a5.81,5.81,0,0,0,2.74.78Zm-3.89-6.8a5.54,5.54,0,0,1-2.81-.59,1.8,1.8,0,0,1-1-1.61,1.78,1.78,0,0,1,1-1.6,7.12,7.12,0,0,1,5.63,0,1.78,1.78,0,0,1,1,1.6,1.8,1.8,0,0,1-1,1.61A5.5,5.5,0,0,1,405.62,32.86Zm0-3.26a4.1,4.1,0,0,0-1.72.29.86.86,0,0,0-.6.77c0,.32.2.58.61.77a4.08,4.08,0,0,0,1.71.29,4,4,0,0,0,1.71-.29.8.8,0,0,0,0-1.54A4.07,4.07,0,0,0,405.62,29.6Z"/><path class="cls-98" d="M412.91,36.42V29.1h1.45v2.62h2.58V29.1h1.45v7.32Zm4-3.47h-2.58v2.23h2.58Zm4.55.91v5.72H420V28.28h1.46v4.34h1.77v1.24Z"/><path class="cls-98" d="M430.37,35.23v1.86h-1.48V35.23h-4.5V34h10.49v1.24Zm-.73-2a5.42,5.42,0,0,1-2.81-.62,1.91,1.91,0,0,1-1-1.68,2,2,0,0,1,1-1.7,6.27,6.27,0,0,1,5.56,0,1.94,1.94,0,0,1,1,1.7,1.9,1.9,0,0,1-1,1.67A5.29,5.29,0,0,1,429.64,33.2Zm-3.71,5.9V35.94h1.48v1.93h6.08V39.1Zm3.71-9.35a3.72,3.72,0,0,0-1.72.31.94.94,0,0,0-.6.84.91.91,0,0,0,.6.81,5.25,5.25,0,0,0,3.44,0,.91.91,0,0,0,.59-.81.93.93,0,0,0-.59-.84A3.75,3.75,0,0,0,429.64,29.75Z"/><path class="cls-98" d="M436.41,37.92V36.7H446.9v1.22Zm1.67-3.47V29.28h7.15V30.5h-5.68v2.73h5.85v1.22Z"/><path class="cls-98" d="M452.52,36.49a3.6,3.6,0,0,0,2.35.84,2.12,2.12,0,0,0,1.19-.27.86.86,0,0,0,.39-.73,1,1,0,0,0-.33-.72,5.63,5.63,0,0,0-1.58-.87A4.09,4.09,0,0,1,453,33.66a2.19,2.19,0,0,1-.48-1.41,2.14,2.14,0,0,1,.9-1.83,3.91,3.91,0,0,1,2.37-.66,5.24,5.24,0,0,1,2.06.33v1.6a3.48,3.48,0,0,0-2-.57,2.16,2.16,0,0,0-1.12.26.83.83,0,0,0-.44.73.94.94,0,0,0,.3.67,5,5,0,0,0,1.4.79,4.71,4.71,0,0,1,1.76,1.16,2.21,2.21,0,0,1,.49,1.45,2.17,2.17,0,0,1-.87,1.86,4,4,0,0,1-2.44.64,5.09,5.09,0,0,1-2.37-.48Z"/><path class="cls-98" d="M467.24,38.53h-1.75l-3.81-5.84a5.44,5.44,0,0,1-.39-.67h0a13.41,13.41,0,0,1,.05,1.34v5.17h-1.6V29.91h1.86l3.68,5.68c.19.29.33.52.41.67h0a8.56,8.56,0,0,1-.05-1.2V29.91h1.59Z"/><path class="cls-98" d="M476.62,38.53H474.8l-.7-2.06h-3.24l-.68,2.06h-1.82l3.19-8.62h1.93Zm-2.93-3.39L472.63,32a4,4,0,0,1-.13-.71h0a4.29,4.29,0,0,1-.15.7l-1.06,3.13Z"/><path class="cls-98" d="M482.63,31.29h-2.46v7.24h-1.68V31.29H476V29.91h6.6Z"/><path class="cls-97" d="M105.67,151.87l-3.22,8.77h-1l-3.15-8.77h1.06l2.44,7a4.44,4.44,0,0,1,.17.77h0a3.4,3.4,0,0,1,.19-.78l2.49-7Z"/><path class="cls-97" d="M114.7,160.64v-5.92c0-.46,0-1,.09-1.69h0a5.68,5.68,0,0,1-.25.82l-3,6.79h-.43l-3-6.74a4.65,4.65,0,0,1-.25-.87h0c0,.22,0,.77,0,1.67v5.94h-.92v-8.77h1.24l2.7,6.18a8.94,8.94,0,0,1,.41,1h0c.06-.16.2-.52.43-1.06l2.77-6.15h1.17v8.77Z"/><path class="cls-97" d="M162.14,151.87l-3.23,8.77h-1l-3.15-8.77h1.06l2.44,7a4.44,4.44,0,0,1,.17.77h0a3.4,3.4,0,0,1,.19-.78l2.5-7Z"/><path class="cls-97" d="M171.16,160.64v-5.92c0-.46,0-1,.09-1.69h0a4.62,4.62,0,0,1-.25.82l-3,6.79h-.43l-3-6.74a4.65,4.65,0,0,1-.25-.87h0a14,14,0,0,1,.05,1.67v5.94h-.92v-8.77h1.24l2.7,6.18a8.94,8.94,0,0,1,.41,1h0c.05-.16.2-.52.42-1.06l2.77-6.15h1.17v8.77Z"/><path class="cls-97" d="M217.23,151.87,214,160.64h-1l-3.15-8.77h1.06l2.44,7a4.44,4.44,0,0,1,.17.77h0a3.4,3.4,0,0,1,.19-.78l2.5-7Z"/><path class="cls-97" d="M226.25,160.64v-5.92c0-.46,0-1,.09-1.69h0a4.62,4.62,0,0,1-.25.82l-3,6.79h-.43l-3-6.74a4.65,4.65,0,0,1-.25-.87h0a14,14,0,0,1,.05,1.67v5.94h-.92v-8.77h1.24l2.7,6.18a8.94,8.94,0,0,1,.41,1h0c0-.16.2-.52.42-1.06l2.77-6.15h1.17v8.77Z"/><path class="cls-97" d="M272.23,151.87,269,160.64h-1l-3.16-8.77h1.07l2.43,7a3.68,3.68,0,0,1,.17.77h0a3.45,3.45,0,0,1,.2-.78l2.49-7Z"/><path class="cls-97" d="M281.26,160.64v-5.92c0-.46,0-1,.09-1.69h0a4.43,4.43,0,0,1-.26.82l-3,6.79h-.43l-3-6.74a4,4,0,0,1-.25-.87h0c0,.22.05.77.05,1.67v5.94h-.93v-8.77h1.24l2.71,6.18c.22.5.35.84.41,1h0c.06-.16.2-.52.42-1.06l2.77-6.15h1.17v8.77Z"/><path class="cls-97" d="M328.16,151.87l-3.23,8.77h-1l-3.15-8.77h1.06l2.44,7a4.44,4.44,0,0,1,.17.77h0a4,4,0,0,1,.19-.78l2.5-7Z"/><path class="cls-97" d="M337.18,160.64v-5.92c0-.46,0-1,.09-1.69h0a4.62,4.62,0,0,1-.25.82l-3,6.79h-.43l-3-6.74a4.11,4.11,0,0,1-.24-.87h0c0,.22,0,.77,0,1.67v5.94h-.92v-8.77h1.24l2.71,6.18a10.42,10.42,0,0,1,.4,1h0c.06-.16.2-.52.42-1.06l2.77-6.15h1.17v8.77Z"/><path class="cls-97" d="M384.6,151.87l-3.22,8.77h-1l-3.15-8.77h1.06l2.44,7a4.44,4.44,0,0,1,.17.77h0a3.4,3.4,0,0,1,.19-.78l2.49-7Z"/><path class="cls-97" d="M393.63,160.64v-5.92c0-.46,0-1,.09-1.69h0a4.62,4.62,0,0,1-.25.82l-3,6.79H390l-3-6.74a4.65,4.65,0,0,1-.25-.87h0c0,.22.05.77.05,1.67v5.94h-.92v-8.77h1.24l2.7,6.18a8.94,8.94,0,0,1,.41,1h0c.06-.16.2-.52.43-1.06l2.77-6.15h1.17v8.77Z"/><path class="cls-97" d="M439.57,151.87l-3.23,8.77h-1l-3.15-8.77h1.06l2.44,7a4.44,4.44,0,0,1,.17.77h0a4,4,0,0,1,.19-.78l2.5-7Z"/><path class="cls-97" d="M448.59,160.64v-5.92c0-.46,0-1,.09-1.69h0a4.62,4.62,0,0,1-.25.82l-3,6.79H445l-3-6.74a4.11,4.11,0,0,1-.24-.87h0c0,.22,0,.77,0,1.67v5.94h-.92v-8.77H442l2.71,6.18a8.31,8.31,0,0,1,.4,1h0c.06-.16.2-.52.42-1.06l2.77-6.15h1.17v8.77Z"/><path class="cls-97" d="M494.75,151.87l-3.22,8.77h-1l-3.16-8.77h1.07l2.43,7a3.14,3.14,0,0,1,.17.77h0a4.07,4.07,0,0,1,.2-.78l2.49-7Z"/><path class="cls-97" d="M503.78,160.64v-5.92c0-.46,0-1,.09-1.69h0a4.43,4.43,0,0,1-.26.82l-3,6.79h-.43l-3-6.74a4.65,4.65,0,0,1-.25-.87h0c0,.22,0,.77,0,1.67v5.94H496v-8.77h1.24l2.71,6.18a8.94,8.94,0,0,1,.41,1h0c.06-.16.2-.52.43-1.06l2.76-6.15h1.18v8.77Z"/><path class="cls-97" d="M25.5,86.62v-.76h2.92V84.61h.87v1.25h2.93v.76ZM28.85,91a3.71,3.71,0,0,1-2.06-.5,1.57,1.57,0,0,1,0-2.67,3.69,3.69,0,0,1,2.08-.5,3.6,3.6,0,0,1,2.07.51,1.52,1.52,0,0,1,.74,1.33,1.54,1.54,0,0,1-.75,1.33A3.74,3.74,0,0,1,28.85,91Zm0-3a2.74,2.74,0,0,0-1.43.31.92.92,0,0,0-.52.82.89.89,0,0,0,.53.81,2.85,2.85,0,0,0,1.42.3,2.79,2.79,0,0,0,1.41-.3.91.91,0,0,0,.51-.81.94.94,0,0,0-.5-.82A2.7,2.7,0,0,0,28.87,88Zm-1.52,8.18V93.6h6.09v-1H27.35v-.77h7v2.5h-6.1v1.08h6.4v.76Zm7-7.21v2.23h-.88v-6.4h.88v3.39H36V89Z"/><path class="cls-97" d="M44.17,90.33q-1.85.12-6,.12v-5h5.43v.79H39.09v3.42c2.37,0,4,0,5-.1Zm-1.38,5.79a5.08,5.08,0,0,1-2.74-.61,1.79,1.79,0,0,1,0-3.17,5.08,5.08,0,0,1,2.74-.61,5.21,5.21,0,0,1,2.74.6,1.84,1.84,0,0,1,1,1.6,1.8,1.8,0,0,1-1,1.59A5.17,5.17,0,0,1,42.79,96.12Zm0-3.64a4.3,4.3,0,0,0-2,.4,1.12,1.12,0,0,0,0,2.09,4.3,4.3,0,0,0,2,.4,4.34,4.34,0,0,0,2.06-.4,1.12,1.12,0,0,0,0-2.09A4.34,4.34,0,0,0,42.79,92.48Zm3.5-3.73v2.72h-.87V84.79h.87v3.14H48v.82Z"/><path class="cls-97" d="M25.42,140.39v-.79h2.72v-2.93a2.61,2.61,0,0,1-.23-4.35,4.68,4.68,0,0,1,2.77-.75,4.66,4.66,0,0,1,2.77.75,2.62,2.62,0,0,1-.23,4.35v2.93H36v.79Zm2.35-6a1.7,1.7,0,0,0,.8,1.5,3.63,3.63,0,0,0,2.11.55,3.61,3.61,0,0,0,2.11-.55,1.72,1.72,0,0,0,.8-1.5,1.75,1.75,0,0,0-.8-1.51,3.65,3.65,0,0,0-2.11-.56,3.65,3.65,0,0,0-2.11.56A1.73,1.73,0,0,0,27.77,134.42ZM29,137v2.56h3.33V137a5.54,5.54,0,0,1-1.67.22A6,6,0,0,1,29,137Z"/><path class="cls-97" d="M43.74,137.09A6,6,0,0,1,41,134.65a5.1,5.1,0,0,1-1.12,1.49,7,7,0,0,1-1.64,1.18l-.64-.68a5.05,5.05,0,0,0,2.07-1.44,3,3,0,0,0,.89-1.9v-.56H38V132h2.59v-1.34h.88V132H44v.78H41.42v.54a2.65,2.65,0,0,0,.89,1.81,4.52,4.52,0,0,0,2,1.27ZM43.23,142a5.1,5.1,0,0,1-2.74-.62,1.82,1.82,0,0,1,0-3.22,5.08,5.08,0,0,1,2.74-.61,5.12,5.12,0,0,1,2.75.61,1.83,1.83,0,0,1,0,3.22A5.14,5.14,0,0,1,43.23,142Zm0-3.7a4.12,4.12,0,0,0-2.06.42,1.13,1.13,0,0,0,0,2.1,4.08,4.08,0,0,0,2,.41,4.28,4.28,0,0,0,2.06-.4,1.23,1.23,0,0,0,.71-1.06,1.18,1.18,0,0,0-.71-1.05A4.09,4.09,0,0,0,43.23,138.34Zm2.61-1v-2.72H43.61v-.8h2.23v-3.12h.87v6.64Z"/><path class="cls-97" d="M532.71,86.68v-.75h2.91V84.67h.88v1.26h2.93v.75ZM536.06,91a3.59,3.59,0,0,1-2.06-.5,1.52,1.52,0,0,1-.75-1.33,1.56,1.56,0,0,1,.74-1.34,3.72,3.72,0,0,1,2.08-.5,3.66,3.66,0,0,1,2.08.51,1.55,1.55,0,0,1,.74,1.33,1.52,1.52,0,0,1-.75,1.33A3.74,3.74,0,0,1,536.06,91Zm0-3a2.76,2.76,0,0,0-1.43.31.92.92,0,0,0-.51.82.9.9,0,0,0,.52.82,3,3,0,0,0,1.42.29,2.79,2.79,0,0,0,1.41-.3.91.91,0,0,0,.51-.81.92.92,0,0,0-.5-.82A2.77,2.77,0,0,0,536.07,88.05Zm-1.52,8.18V93.66h6.1v-1h-6.1v-.77h7v2.5h-6.09v1.09h6.4v.75Zm7-7.21v2.23h-.88v-6.4h.88v3.39h1.71V89Z"/><path class="cls-97" d="M551.38,90.39c-1.24.08-3.22.12-6,.12v-5h5.43v.79H546.3v3.41c2.37,0,4,0,5-.1ZM550,96.19a5.16,5.16,0,0,1-2.73-.61,1.8,1.8,0,0,1,0-3.18,6.46,6.46,0,0,1,5.48,0,1.8,1.8,0,0,1,0,3.18A5.11,5.11,0,0,1,550,96.19Zm0-3.64a4.34,4.34,0,0,0-2,.39,1.2,1.2,0,0,0-.71,1,1.18,1.18,0,0,0,.71,1,4.21,4.21,0,0,0,2,.4,4.29,4.29,0,0,0,2.07-.4,1.12,1.12,0,0,0,0-2.08A4.29,4.29,0,0,0,550,92.55Zm3.51-3.74v2.72h-.88V84.85h.88V88h1.71v.81Z"/><path class="cls-97" d="M532.62,139.45v-.8h2.73v-2.93a2.61,2.61,0,0,1-.23-4.35,5.55,5.55,0,0,1,5.54,0,2.62,2.62,0,0,1-.23,4.35v2.93h2.72v.8Zm2.35-6a1.75,1.75,0,0,0,.8,1.51,3.74,3.74,0,0,0,2.12.54A3.63,3.63,0,0,0,540,135a1.82,1.82,0,0,0,0-3,4.3,4.3,0,0,0-4.21,0A1.73,1.73,0,0,0,535,133.47Zm1.25,2.62v2.56h3.33v-2.56a5.47,5.47,0,0,1-1.66.22A6.07,6.07,0,0,1,536.22,136.09Z"/><path class="cls-97" d="M550.94,136.14a6,6,0,0,1-2.75-2.44,5.15,5.15,0,0,1-1.13,1.49,6.72,6.72,0,0,1-1.63,1.18l-.65-.68a5,5,0,0,0,2.08-1.44,2.93,2.93,0,0,0,.88-1.9v-.56h-2.59V131h2.59v-1.34h.88V131h2.59v.78h-2.59v.55a2.74,2.74,0,0,0,.89,1.81,4.62,4.62,0,0,0,2,1.26Zm-.5,5a5,5,0,0,1-2.75-.63,1.82,1.82,0,0,1,0-3.21,6.39,6.39,0,0,1,5.49,0,1.81,1.81,0,0,1,0,3.21A5,5,0,0,1,550.44,141.1Zm0-3.7a4.21,4.21,0,0,0-2.06.41,1.14,1.14,0,0,0,0,2.11,5.36,5.36,0,0,0,4.11,0,1.14,1.14,0,0,0,0-2.11A4.13,4.13,0,0,0,550.44,137.4Zm2.6-1v-2.72h-2.23v-.79H553v-3.12h.88v6.63Z"/><path class="cls-98" d="M70.22,33.24H65.29V24.62H67v7.24h3.26Z"/><path class="cls-98" d="M71.45,33.24V24.62h2.93a3.5,3.5,0,0,1,2.08.53,1.7,1.7,0,0,1,.75,1.48,1.83,1.83,0,0,1-.44,1.22,2.45,2.45,0,0,1-1.18.76h0A2.38,2.38,0,0,1,77,29.3a2,2,0,0,1,.54,1.4,2.3,2.3,0,0,1-.83,1.85,3.38,3.38,0,0,1-2.23.69Zm1.67-7.34v2.26H74a1.61,1.61,0,0,0,1-.32,1.11,1.11,0,0,0,.38-.9c0-.69-.5-1-1.49-1Zm0,3.55V32h1.15a1.76,1.76,0,0,0,1.14-.34,1.15,1.15,0,0,0,.41-.95c0-.81-.53-1.22-1.61-1.22Z"/><path class="cls-98" d="M84.6,34.17V31.28h5.94v-.52H84.6v-1.2h3v-.63h-4.5v-1.2H93.56v1.2H89v.63h3v2.88H86.07V33h6.21v1.2Zm-.47-7V26h1.55l-.11-1.36H87L87.11,26H89.5l.09-1.36h1.46L90.94,26h1.54v1.2Zm.15-2.85V23.13h8.06v1.19Z"/><path class="cls-98" d="M105.6,24a8.42,8.42,0,0,1-1.37,4.47,10.25,10.25,0,0,1-3.73,3.36l-1.13-1.06a7.69,7.69,0,0,0,3-2.19A6.78,6.78,0,0,0,104,25.23h-4V24Zm1.73,10.31V23h1.44V34.3Z"/><path class="cls-98" d="M111.79,29.14V23.59h1.46v1.66h2.5V23.59h1.45v5.55Zm4-2.65h-2.5v1.42h2.5Zm-2.4,7.41V30.05h1.48v2.62h5.9V33.9Zm7.07-6.31v3.54H119V23h1.46v3.36h1.72v1.24Z"/><path class="cls-98" d="M125,31.77l-.9,3h-1.25l.63-3Z"/><path class="cls-98" d="M136.73,31.49a7.77,7.77,0,0,1-2.59-2.78,8.16,8.16,0,0,1-2.61,3l-1.14-1a5.58,5.58,0,0,0,2.16-2,5,5,0,0,0,.86-2.73V23.75h1.46v2.18a4.77,4.77,0,0,0,.84,2.66,4.7,4.7,0,0,0,2,1.79Zm3.09-2.92V34.3h-1.46V23h1.46v4.34h1.77v1.24Z"/><path class="cls-98" d="M148.73,29.67a6.59,6.59,0,0,1-2.52-2.13,5.22,5.22,0,0,1-1.08,1.4,5.88,5.88,0,0,1-1.48,1.11l-1-1a4.61,4.61,0,0,0,2-1.47,3.22,3.22,0,0,0,.82-2.05v-.65H143.1V23.63h6.07v1.22h-2.26v.6a2.67,2.67,0,0,0,.78,1.86,4.59,4.59,0,0,0,2,1.24ZM145,33.91V30.14h1.47v2.54h6v1.23Zm6-2.83v-4h-2.2V25.89H151V23h1.44v8.09Z"/><path class="cls-98" d="M161.79,22.78h1.46v1.1H166V25h-6.93V23.88h2.74Zm3.69,4.52a1.62,1.62,0,0,1-.8,1.41,3.94,3.94,0,0,1-2.17.52,3.88,3.88,0,0,1-2.16-.52,1.66,1.66,0,0,1,0-2.83,4,4,0,0,1,2.16-.51,4,4,0,0,1,2.16.51A1.62,1.62,0,0,1,165.48,27.3Zm-4.55,7V31.48h5.7v-.57h-5.7V29.76h7.15V32.5h-5.69v.59h6v1.16Zm.12-6.95q0,.78,1.47.78c1,0,1.48-.26,1.48-.78s-.49-.78-1.48-.78S161.05,26.78,161.05,27.3Zm7,0v2h-1.47V23h1.47v3.06h1.7v1.24Z"/><path class="cls-98" d="M177.52,28.37c-1.36.09-3.38.14-6,.14V23.59H177v1.25H173v2.44c1.94,0,3.44-.05,4.48-.14Zm-1,5.88a5.25,5.25,0,0,1-2.78-.62,1.84,1.84,0,0,1,0-3.26,6.62,6.62,0,0,1,5.55,0,1.82,1.82,0,0,1,1,1.62,1.85,1.85,0,0,1-1,1.64A5.23,5.23,0,0,1,176.5,34.25Zm0-3.26c-1.49,0-2.24.33-2.24,1s.75,1,2.24,1,2.26-.34,2.26-1S178,31,176.5,31Zm3.59-4v2.59h-1.47V23h1.47v2.77h1.72V27Z"/><path class="cls-98" d="M190.7,29.69q-2.46.16-7.57.26L183,28.72c1.23,0,2.31,0,3.24,0V27.38h-2.05V23.52h5.49v1.24h-4v1.38h4.15v1.24h-2.09v1.26q2.32-.09,2.94-.15ZM185.13,34V30.49h1.46V32.8h6.16V34Zm6-2.72V23h1.45v8.32Z"/><path class="cls-98" d="M68.32,46a2.63,2.63,0,0,1-2.19-1.06A4.52,4.52,0,0,1,65.31,42a4.51,4.51,0,0,1,.82-2.88,2.81,2.81,0,0,1,4.37,0A4.58,4.58,0,0,1,71.32,42a4.6,4.6,0,0,1-.82,2.87A2.64,2.64,0,0,1,68.32,46Zm0-6.59a1.29,1.29,0,0,0-1.11.71,3.78,3.78,0,0,0-.44,2A3.74,3.74,0,0,0,67.21,44a1.2,1.2,0,0,0,2.21,0A3.69,3.69,0,0,0,69.86,42a3.77,3.77,0,0,0-.43-2A1.28,1.28,0,0,0,68.32,39.36ZM74.12,43V48.7H72.67V37.39h1.45v4.34h1.77V43Z"/><path class="cls-98" d="M83,43.75v1.07H81.53V43.75H77V42.51H87.52v1.24Zm3.16,5a6.84,6.84,0,0,1-2.28-.69,4.27,4.27,0,0,1-1.63-1.19,4.27,4.27,0,0,1-1.6,1.19,6.44,6.44,0,0,1-2.21.69l-.88-1.16a6.17,6.17,0,0,0,2.75-.79c.81-.47,1.21-1,1.21-1.47v-.18H83v.17c0,.53.39,1,1.18,1.5a5.81,5.81,0,0,0,2.74.78ZM82.28,42a5.54,5.54,0,0,1-2.81-.59,1.8,1.8,0,0,1-1-1.61,1.78,1.78,0,0,1,1-1.6,7.12,7.12,0,0,1,5.63,0,1.78,1.78,0,0,1,1,1.6,1.8,1.8,0,0,1-1,1.61A5.5,5.5,0,0,1,82.28,42Zm0-3.26a4.1,4.1,0,0,0-1.72.29.87.87,0,0,0-.6.77c0,.32.2.58.61.77a5.22,5.22,0,0,0,3.43,0A.8.8,0,0,0,84,39,4.07,4.07,0,0,0,82.28,38.71Z"/><path class="cls-98" d="M89.57,45.53V38.21H91v2.62H93.6V38.21h1.45v7.32Zm4-3.47H91V44.3H93.6Zm4.55.91V48.7H96.69V37.39h1.46v4.34h1.77V43Z"/><path class="cls-98" d="M107,44.34V46.2h-1.47V44.34h-4.5V43.11h10.48v1.23Zm-.73-2a5.26,5.26,0,0,1-2.8-.62,1.91,1.91,0,0,1-1-1.68,2,2,0,0,1,1-1.7,6.27,6.27,0,0,1,5.56,0,1.94,1.94,0,0,1,1,1.7,1.89,1.89,0,0,1-1,1.67A5.29,5.29,0,0,1,106.3,42.31Zm-3.71,5.91V45.05h1.48V47h6.08v1.24Zm3.71-9.36a3.75,3.75,0,0,0-1.72.31,1,1,0,0,0-.6.84.91.91,0,0,0,.6.81,5.25,5.25,0,0,0,3.44,0,.91.91,0,0,0,.59-.81.94.94,0,0,0-.59-.84A3.75,3.75,0,0,0,106.3,38.86Z"/><path class="cls-98" d="M113.07,47V45.81h10.49V47Zm1.67-3.47V38.39h7.15v1.22h-5.68v2.73h5.85v1.22Z"/><path class="cls-98" d="M129.18,45.6a3.61,3.61,0,0,0,2.35.85,2.11,2.11,0,0,0,1.19-.28.86.86,0,0,0,.39-.73,1,1,0,0,0-.33-.72,5.63,5.63,0,0,0-1.58-.87,4.09,4.09,0,0,1-1.56-1.08,2.19,2.19,0,0,1-.48-1.41,2.14,2.14,0,0,1,.9-1.83,4,4,0,0,1,2.37-.65,5.35,5.35,0,0,1,2.07.32v1.6a3.54,3.54,0,0,0-2-.57,2.16,2.16,0,0,0-1.12.26.82.82,0,0,0-.43.73.91.91,0,0,0,.29.67,5,5,0,0,0,1.4.79,4.71,4.71,0,0,1,1.76,1.16,2.23,2.23,0,0,1,.49,1.45,2.17,2.17,0,0,1-.87,1.86,4,4,0,0,1-2.44.64,5.09,5.09,0,0,1-2.37-.48Z"/><path class="cls-98" d="M143.9,47.64h-1.75l-3.81-5.84a5.44,5.44,0,0,1-.39-.67h0a13.41,13.41,0,0,1,0,1.34v5.17h-1.6V39h1.87l3.68,5.69.41.66h0a8.56,8.56,0,0,1-.05-1.2V39h1.59Z"/><path class="cls-98" d="M153.28,47.64h-1.82l-.7-2.06h-3.24l-.68,2.06H145L148.21,39h1.93Zm-2.93-3.39-1.06-3.12a4,4,0,0,1-.13-.71h0a4.29,4.29,0,0,1-.15.7l-1.06,3.13Z"/><path class="cls-98" d="M159.29,40.4h-2.46v7.24h-1.68V40.4h-2.46V39h6.6Z"/><path class="cls-97" d="M28.42,190.63v-7H33.8v7Zm4.5-6.2H29.3v5.43h3.62ZM36,193.94V182.67h.87v11.27Z"/><path class="cls-97" d="M40.45,191.51V187h4.3v-2.6h-4.3v-.78h5.17v4.13H41.33v2.94a35.06,35.06,0,0,0,5.38-.24l.1.76A46.89,46.89,0,0,1,40.45,191.51ZM48,193.94V182.67h.87v11.27Z"/><path class="cls-97" d="M55.82,184.46v-.74h2.91v-1.23h.87v1.23h2.91v.74Zm3.34,4.25a3.63,3.63,0,0,1-2-.49,1.48,1.48,0,0,1-.75-1.3,1.53,1.53,0,0,1,.74-1.32,4.58,4.58,0,0,1,4.14,0,1.51,1.51,0,0,1,.74,1.31,1.5,1.5,0,0,1-.75,1.3A3.73,3.73,0,0,1,59.16,188.71Zm0-2.9a2.8,2.8,0,0,0-1.42.3.91.91,0,0,0-.51.81.86.86,0,0,0,.52.79,2.85,2.85,0,0,0,1.41.29,2.8,2.8,0,0,0,1.41-.29.88.88,0,0,0,.51-.79.91.91,0,0,0-.51-.81A2.74,2.74,0,0,0,59.17,185.81Zm-1.51,8v-2.53h6.07v-1H57.66v-.76h6.93V192H58.52v1.06h6.37v.75Zm6.93-7.08V189h-.87v-6.28h.87V186h1.7v.77Z"/><path class="cls-97" d="M74.44,188.1q-1.84.12-5.94.12v-4.9h5.41v.77H69.38v3.35c2.36,0,4,0,5-.09Zm-1.38,5.69a5.17,5.17,0,0,1-2.73-.6,1.76,1.76,0,0,1,0-3.12,6.61,6.61,0,0,1,5.46,0,1.76,1.76,0,0,1,0,3.13A5.26,5.26,0,0,1,73.06,193.79Zm0-3.57a4.29,4.29,0,0,0-2,.39,1.09,1.09,0,0,0,0,2,4.29,4.29,0,0,0,2,.39,4.21,4.21,0,0,0,2-.4,1.09,1.09,0,0,0,0-2A4.34,4.34,0,0,0,73.06,190.22Zm3.49-3.67v2.67h-.88v-6.55h.88v3.08h1.7v.8Z"/><path class="cls-97" d="M87.21,189.54c-2.48.14-4.86.21-7.16.21l-.12-.82,3.37,0v-1.61H80.93v-3.93h5.4v.79H81.81v2.36h4.64v.78H84.18v1.6c1.5,0,2.49-.08,3-.13Zm-5.48,4.14v-3.07h.88v2.29h6.68v.78Zm6.35-2.6v-8.41H89v8.41Z"/><path class="cls-97" d="M92.71,191.53l-1,2.95h-.65l.71-2.95Z"/><path class="cls-97" d="M104.64,191.08a9.53,9.53,0,0,1-1.77-1.81,6.66,6.66,0,0,1-1.06-1.9,6.69,6.69,0,0,1-1,2A9.12,9.12,0,0,1,99,191.22l-.67-.58a7.09,7.09,0,0,0,2.2-2.39,5.93,5.93,0,0,0,.83-3v-1.85h.87v1.81a5.51,5.51,0,0,0,.82,2.86,6.78,6.78,0,0,0,2.2,2.29Zm2.53-3.05v5.91h-.87V182.67h.87v4.58h2V188Z"/><path class="cls-97" d="M113.15,186.57a1.78,1.78,0,0,1-1.15-1.66,1.7,1.7,0,0,1,.93-1.55,6.66,6.66,0,0,1,5.3,0,1.71,1.71,0,0,1,.94,1.55,1.77,1.77,0,0,1-1.16,1.66v1.6h2.81V189H110.34v-.78h2.81Zm2.43,7.31a5.32,5.32,0,0,1-2.69-.55,1.73,1.73,0,0,1,0-3.07,5.27,5.27,0,0,1,2.68-.56,5.34,5.34,0,0,1,2.69.56,1.73,1.73,0,0,1,0,3.07A5.3,5.3,0,0,1,115.58,193.88Zm0-3.43a4.45,4.45,0,0,0-2,.36,1.06,1.06,0,0,0,0,2,6.06,6.06,0,0,0,4.06,0,1.07,1.07,0,0,0,0-2A4.61,4.61,0,0,0,115.58,190.45Zm0-6.89c-1.78,0-2.68.45-2.68,1.35a1.11,1.11,0,0,0,.67,1,5.79,5.79,0,0,0,4,0,1.09,1.09,0,0,0,.67-1C118.26,184,117.37,183.56,115.58,183.56ZM114,188.17h3.11v-1.31a8.41,8.41,0,0,1-3.11,0Z"/><path class="cls-97" d="M122.65,191.93l-.08-.77h.62c1.16,0,2.08,0,2.78,0v-2.69h-2.45v-4.71h5.57v.78H124.4v3.15h4.82v.78h-2.38v2.67c1.49,0,2.55-.06,3.21-.13l0,.76c-.68.05-1.89.1-3.62.13S123.47,191.93,122.65,191.93Zm8.23,2V182.67h.88v11.27Z"/><path class="cls-97" d="M140.58,191.19a9.63,9.63,0,0,1-1.79-1.82,5.51,5.51,0,0,1-1-1.83,6.06,6.06,0,0,1-1,2,9.64,9.64,0,0,1-1.74,1.85l-.66-.61a6.82,6.82,0,0,0,2.16-2.39,6.1,6.1,0,0,0,.81-3v-.94h-2.52v-.78h5.94v.78h-2.54v.91a6,6,0,0,0,.82,2.95,6.08,6.08,0,0,0,2.12,2.23Zm2.07,2.75V182.67h.88v11.27Z"/><path class="cls-97" d="M153.68,188.09a2.93,2.93,0,0,1-2.07-.74,2.63,2.63,0,0,1,0-3.76,3.27,3.27,0,0,1,4.14,0,2.6,2.6,0,0,1,0,3.75A2.93,2.93,0,0,1,153.68,188.09Zm1.26,5.32a32.17,32.17,0,0,1-3.26.13v-4.42h.87v3.66a20.84,20.84,0,0,0,2.35-.11Zm-1.26-9.81a2,2,0,0,0-1.45.52,1.77,1.77,0,0,0-.54,1.35,1.81,1.81,0,0,0,.54,1.36,2.32,2.32,0,0,0,2.9,0,1.81,1.81,0,0,0,.54-1.36,1.77,1.77,0,0,0-.54-1.35A2,2,0,0,0,153.68,183.6Zm.93,6.57v-.76H157v-1.19h.88v1.19h2.36v.76Zm2.79,3.57a2.9,2.9,0,0,1-1.67-.43,1.3,1.3,0,0,1-.61-1.13,1.32,1.32,0,0,1,.62-1.13,3.49,3.49,0,0,1,3.32,0,1.32,1.32,0,0,1,.62,1.13,1.3,1.3,0,0,1-.61,1.13A2.9,2.9,0,0,1,157.4,193.74Zm0-2.41a2,2,0,0,0-1.06.24.69.69,0,0,0,0,1.23,2.37,2.37,0,0,0,2.12,0,.74.74,0,0,0,.38-.62.71.71,0,0,0-.38-.6A2,2,0,0,0,157.4,191.33Zm1.86-5.49v2.27h-.88v-5.44h.88v2.39H161v.78Z"/><path class="cls-97" d="M162.35,189.3v-.79h10.49v.79Zm5.25-1.93a4.58,4.58,0,0,1-2.6-.63,1.91,1.91,0,0,1-.92-1.63,1.88,1.88,0,0,1,.92-1.62,5.68,5.68,0,0,1,5.2,0,1.89,1.89,0,0,1,0,3.25A4.59,4.59,0,0,1,167.6,187.37Zm-3.5,6.19V190.4H165v2.38h6.36v.78Zm3.5-10a3.75,3.75,0,0,0-1.92.41,1.22,1.22,0,0,0,0,2.2,4.68,4.68,0,0,0,3.83,0,1.22,1.22,0,0,0,0-2.2A3.74,3.74,0,0,0,167.6,183.6Z"/><path class="cls-97" d="M178.48,191.4a2.93,2.93,0,0,0,1.06.55,4.18,4.18,0,0,0,1.24.21c1.26,0,1.88-.45,1.88-1.36a1.23,1.23,0,0,0-.19-.69,1.81,1.81,0,0,0-.52-.51c-.21-.14-.65-.38-1.31-.72a5.83,5.83,0,0,1-1.68-1.14,1.87,1.87,0,0,1-.47-1.31,1.94,1.94,0,0,1,.85-1.67,3.56,3.56,0,0,1,2.12-.61,4.09,4.09,0,0,1,1.83.3v1.09a3.4,3.4,0,0,0-1.95-.52,2.38,2.38,0,0,0-1.34.35,1.11,1.11,0,0,0-.52,1,1.21,1.21,0,0,0,.37.92,6.57,6.57,0,0,0,1.52.91,5.36,5.36,0,0,1,1.81,1.27,2,2,0,0,1,.47,1.29,2,2,0,0,1-.81,1.71,3.65,3.65,0,0,1-2.23.59,5.46,5.46,0,0,1-1.14-.14,2.85,2.85,0,0,1-1-.35Z"/><path class="cls-97" d="M192.25,192.89h-1.19l-4.5-6.94a4.51,4.51,0,0,1-.27-.54h0a10.47,10.47,0,0,1,0,1.17v6.31h-1v-8.6h1.26l4.37,6.85a6.34,6.34,0,0,1,.35.56h0a9.87,9.87,0,0,1-.06-1.27v-6.14h1Z"/><path class="cls-97" d="M201.1,192.89h-1l-.94-2.44h-3.7l-.87,2.44H193.5l3.31-8.6h1Zm-2.3-3.31-1.38-3.72a3.13,3.13,0,0,1-.13-.56h0a2.09,2.09,0,0,1-.14.56l-1.36,3.72Z"/><path class="cls-97" d="M206.46,185.16H204v7.73h-1v-7.73h-2.48v-.87h5.93Z"/><path class="cls-97" d="M219.25,188.25h1.85V189h-3.83v2.43h4.8v.78H211.58v-.78h4.8V189h-3.82v-.79h1.84l-.14-3.16h.86l.16,3.16h3.09l.16-3.16h.86Zm-6.55-4.52H221v.77H212.7Z"/><path class="cls-97" d="M223.54,192.17v-.78H234v.78Zm8.86-7.64h-6.3v1.63h6v.78h-6v1.54h6.48v.78h-7.35v-5.49h7.17Z"/><path class="cls-97" d="M33.9,206.87a9.53,9.53,0,0,1-1.77-1.81,6.79,6.79,0,0,1-1.06-1.9,6.69,6.69,0,0,1-1.05,2A9.12,9.12,0,0,1,28.27,207l-.67-.58A7.09,7.09,0,0,0,29.8,204a5.93,5.93,0,0,0,.83-3v-1.85h.87V201a5.51,5.51,0,0,0,.82,2.86,6.78,6.78,0,0,0,2.2,2.29Zm2.53-3.06v5.92h-.87V198.46h.87V203h2v.77Z"/><path class="cls-97" d="M42.4,202.36a1.78,1.78,0,0,1-1.14-1.67,1.7,1.7,0,0,1,.93-1.54,5.21,5.21,0,0,1,2.65-.55,5.21,5.21,0,0,1,2.65.55,1.71,1.71,0,0,1,.94,1.54,1.77,1.77,0,0,1-1.16,1.67V204h2.81v.78H39.6V204h2.8Zm2.44,7.31a5.32,5.32,0,0,1-2.69-.55,1.73,1.73,0,0,1,0-3.07,5.27,5.27,0,0,1,2.68-.56,5.34,5.34,0,0,1,2.69.56,1.73,1.73,0,0,1,0,3.07A5.3,5.3,0,0,1,44.84,209.67Zm0-3.44a4.51,4.51,0,0,0-2,.37,1.06,1.06,0,0,0,0,2,4.65,4.65,0,0,0,2,.35,4.65,4.65,0,0,0,2-.35,1.07,1.07,0,0,0,0-2A4.45,4.45,0,0,0,44.84,206.23Zm0-6.88c-1.78,0-2.68.44-2.68,1.34a1.11,1.11,0,0,0,.67,1,4.36,4.36,0,0,0,2,.35,4.36,4.36,0,0,0,2-.35,1.09,1.09,0,0,0,.67-1C47.52,199.79,46.63,199.35,44.84,199.35ZM43.28,204h3.11v-1.31a8.41,8.41,0,0,1-3.11,0Z"/><path class="cls-97" d="M59.11,205.33c-2.47.14-4.86.21-7.15.21l-.13-.82,3.38,0v-1.61H52.83v-3.93h5.4v.79H53.71v2.36h4.65v.78H56.08v1.6c1.51,0,2.49-.08,3-.13Zm-5.48,4.14V206.4h.88v2.29h6.68v.78Zm6.35-2.6v-8.41h.87v8.41Z"/><path class="cls-97" d="M67.68,207.19a2.9,2.9,0,0,0,1.07.55A4.18,4.18,0,0,0,70,208c1.25,0,1.88-.45,1.88-1.36a1.24,1.24,0,0,0-.2-.69,1.77,1.77,0,0,0-.51-.51q-.31-.21-1.32-.72a6.37,6.37,0,0,1-1.68-1.14,1.92,1.92,0,0,1-.47-1.32,1.94,1.94,0,0,1,.86-1.66,3.55,3.55,0,0,1,2.12-.62,4,4,0,0,1,1.82.31v1.09a3.33,3.33,0,0,0-1.95-.52,2.35,2.35,0,0,0-1.33.35,1.11,1.11,0,0,0-.52,1,1.24,1.24,0,0,0,.36.92,6.81,6.81,0,0,0,1.52.91,5.43,5.43,0,0,1,1.82,1.27,2.07,2.07,0,0,1,.47,1.29,2,2,0,0,1-.81,1.71,3.7,3.7,0,0,1-2.24.59,5.3,5.3,0,0,1-1.13-.14,2.84,2.84,0,0,1-1-.35Z"/><path class="cls-97" d="M81.45,208.68H80.27l-4.5-7a2.38,2.38,0,0,1-.27-.53h0a10.47,10.47,0,0,1,0,1.17v6.31h-1v-8.6h1.25l4.38,6.84a6,6,0,0,1,.34.57h0a8,8,0,0,1-.07-1.27v-6.14h1Z"/><path class="cls-97" d="M90.31,208.68h-1l-.94-2.45H84.63l-.88,2.45h-1l3.31-8.6h1ZM88,205.37l-1.38-3.72a3.13,3.13,0,0,1-.13-.56h0a2.24,2.24,0,0,1-.15.56L85,205.37Z"/><path class="cls-97" d="M95.66,201H93.17v7.73h-1V201H89.74v-.87h5.92Z"/><path class="cls-97" d="M108.45,204h1.85v.79h-3.82v2.43h4.79V208H100.79v-.78h4.79v-2.43h-3.82V204h1.84l-.14-3.16h.87l.15,3.16h3.1l.15-3.16h.87Zm-6.55-4.52h8.26v.77H101.9Z"/><path class="cls-97" d="M112.75,208v-.78h10.48V208Zm8.86-7.64H115.3V202h6v.78h-6v1.54h6.49v.78h-7.35v-5.5h7.17Z"/></g></svg>