<svg xmlns="http://www.w3.org/2000/svg" viewBox="0 0 630 300"><title>OJ104595046</title><rect x="6.6" width="623.4" height="300" fill="#fff"/><rect x="190" width="140" height="125" fill="#fff"/><rect x="190" width="140" height="125" fill="#3c3c41" opacity="0.05" style="isolation:isolate"/><rect x="315.4" y="170" width="140" height="105" fill="#fff"/><rect x="315.4" y="170" width="140" height="105" fill="#3c3c41" opacity="0.1" style="isolation:isolate"/><rect x="490" y="170" width="140" height="130" fill="#fff"/><rect x="490" y="170" width="140" height="130" fill="#3c3c41" opacity="0.1" style="isolation:isolate"/><rect x="320.4" y="175" width="130" height="70" fill="#fff"/><rect x="320.4" y="175" width="130" height="70" fill="#3c3c41" opacity="0.25" style="isolation:isolate"/><path d="M17.3,81.4v21.8c0,2.2,5,4.1,11.2,4.1V81.4Z" fill="#50e6ff"/><path d="M28.4,107.3h.2c6.2,0,11.3-1.8,11.3-4.1V81.4H28.4Z" fill="#0072c5"/><path d="M28.3,107.3h.2c6.3,0,11.4-1.8,11.4-4.1V81.3H28.4Z" fill="#3bcaf4"/><path d="M39.9,81.4c0,2.3-5,4.1-11.3,4.1s-11.3-1.8-11.3-4.1,5-4.1,11.3-4.1S39.9,79.2,39.9,81.4Z" fill="#fff"/><path d="M37.6,81.2c0,1.5-4,2.7-9,2.7s-9-1.2-9-2.7,4-2.8,9-2.8S37.6,79.7,37.6,81.2Z" fill="#0078d4"/><path d="M35.7,82.8c1.1-.5,1.9-1,1.9-1.6s-4-2.8-9-2.8-9,1.3-9,2.8.7,1.2,1.8,1.6a21.4,21.4,0,0,1,7.1-1A21.6,21.6,0,0,1,35.7,82.8Z" fill="#3bcaf4"/><polygon points="107.3 102.2 131.6 102.2 131.6 77.9 107.3 77.9 107.3 102.2" fill="#fff" fill-rule="evenodd"/><path d="M106.8,77.4v25.3h25.4V77.4Zm1,24.3h23.3V78.4H107.9Z" fill="#0078d7" fill-rule="evenodd"/><polygon points="113.1 89.8 116.3 88.1 116.3 87 111.7 89.6 111.7 90.1 116.3 92.3 116.3 91.3 113.1 89.8" fill="#0078d7" fill-rule="evenodd"/><polygon points="118.2 94.1 121.8 85.4 120.8 85.4 117.2 94.1 118.2 94.1" fill="#0078d7" fill-rule="evenodd"/><polygon points="122.8 88 126 89.8 125.9 89.8 122.8 91.3 122.8 92.3 127.4 90 127.4 89.6 122.8 87 122.8 88" fill="#0078d7" fill-rule="evenodd"/><path d="M130.2,106.8a7,7,0,1,1,7-7h0a7,7,0,0,1-7,7" fill="#fff" fill-rule="evenodd"/><path d="M130.2,92.3a7.6,7.6,0,0,0-7.5,7.5,7.5,7.5,0,0,0,7.5,7.4,7.4,7.4,0,0,0,7.4-7.4h0a7.5,7.5,0,0,0-7.4-7.5m0,.9a6.6,6.6,0,1,1-6.6,6.6,6.6,6.6,0,0,1,6.6-6.6h0" fill="#0078d7" fill-rule="evenodd"/><polygon points="128.9 102.7 126.4 100.2 127 99.6 128.9 101.4 133.4 96.9 134.1 97.6 128.9 102.7" fill="#0078d7" fill-rule="evenodd"/><path d="M267.5,39.4a1.9,1.9,0,0,1-1.9,1.9,1.9,1.9,0,0,1,0-3.8h0a1.8,1.8,0,0,1,1.9,1.9" fill="#0078d4" fill-rule="evenodd"/><path d="M267.5,50.6a1.8,1.8,0,0,1-1.9,1.9,1.9,1.9,0,0,1-1.9-1.9,2,2,0,0,1,1.9-1.9h0a1.8,1.8,0,0,1,1.9,1.8h0" fill="#0078d4" fill-rule="evenodd"/><path d="M256.3,39.4a2,2,0,0,1-1.9,1.9,1.9,1.9,0,0,1,0-3.8h0a2,2,0,0,1,1.9,1.9" fill="#0078d4" fill-rule="evenodd"/><path d="M256.3,50.6a1.9,1.9,0,0,1-1.9,1.9,1.8,1.8,0,0,1-1.9-1.9,1.8,1.8,0,0,1,1.9-1.8,1.9,1.9,0,0,1,1.9,1.8h0" fill="#0078d4" fill-rule="evenodd"/><path d="M262.8,37.5a2.8,2.8,0,1,1-2.8-2.8h0a2.7,2.7,0,0,1,2.8,2.8" fill="#0078d4" fill-rule="evenodd"/><path d="M262.8,52.5a2.8,2.8,0,1,1-2.8-2.8h0a2.7,2.7,0,0,1,2.8,2.8" fill="#0078d4" fill-rule="evenodd"/><path d="M261.4,31.4A1.4,1.4,0,1,1,260,30a1.4,1.4,0,0,1,1.4,1.4h0" fill="#50e6ff" fill-rule="evenodd"/><path d="M261.4,58.6a1.4,1.4,0,1,1-1.4-1.4h0a1.4,1.4,0,0,1,1.4,1.4" fill="#0078d4" fill-rule="evenodd"/><path d="M261.4,31.4A1.4,1.4,0,1,1,260,30a1.4,1.4,0,0,1,1.4,1.4h0" fill="#50e6ff" fill-rule="evenodd"/><path d="M261.4,58.6a1.4,1.4,0,1,1-1.4-1.4h0a1.4,1.4,0,0,1,1.4,1.4" fill="#50e6ff" fill-rule="evenodd"/><path d="M255.3,45a2.8,2.8,0,1,1-2.8-2.8h0a2.7,2.7,0,0,1,2.8,2.8" fill="#0078d4" fill-rule="evenodd"/><path d="M270.3,45a2.8,2.8,0,1,1-2.8-2.8h0a2.7,2.7,0,0,1,2.8,2.8" fill="#0078d4" fill-rule="evenodd"/><path d="M246.4,43.6A1.4,1.4,0,1,1,245,45a1.4,1.4,0,0,1,1.4-1.4h0" fill="#50e6ff" fill-rule="evenodd"/><path d="M273.6,43.6a1.4,1.4,0,1,1-1.4,1.4h0a1.4,1.4,0,0,1,1.4-1.4" fill="#0078d4" fill-rule="evenodd"/><path d="M262.8,45a2.8,2.8,0,1,1-2.8-2.8h0a2.7,2.7,0,0,1,2.8,2.8" fill="#0078d4" fill-rule="evenodd"/><path d="M246.4,43.6A1.4,1.4,0,1,1,245,45a1.4,1.4,0,0,1,1.4-1.4h0" fill="#50e6ff" fill-rule="evenodd"/><path d="M273.6,43.6a1.4,1.4,0,1,1-1.4,1.4h0a1.4,1.4,0,0,1,1.4-1.4" fill="#50e6ff" fill-rule="evenodd"/><path d="M270.8,36.2a1.4,1.4,0,0,1-2-.1,1.3,1.3,0,0,1,.1-1.9,1.3,1.3,0,1,1,1.9,1.9h0" fill="#50e6ff" fill-rule="evenodd"/><path d="M251.2,55.8a1.4,1.4,0,0,1-2-2,1.4,1.4,0,0,1,2,2h0" fill="#50e6ff" fill-rule="evenodd"/><path d="M251.2,34.2a1.5,1.5,0,0,1,0,2,1.4,1.4,0,0,1-2-.1,1.2,1.2,0,0,1,0-1.9,1.3,1.3,0,0,1,2,0h0" fill="#50e6ff" fill-rule="evenodd"/><path d="M270.8,53.8a1.4,1.4,0,0,1-2,2,1.4,1.4,0,0,1,2-2" fill="#50e6ff" fill-rule="evenodd"/><line x1="50" y1="92.3" x2="94.6" y2="92.3" fill="none" stroke="#3c3c41" stroke-miterlimit="10"/><polygon points="93.5 96 100 92.3 93.5 88.5 93.5 96" fill="#3c3c41"/><line x1="330" y1="92.3" x2="359.6" y2="92.3" fill="none" stroke="#3c3c41" stroke-miterlimit="10"/><polygon points="358.5 96 365 92.3 358.5 88.5 358.5 96" fill="#3c3c41"/><line x1="405" y1="92.3" x2="434.6" y2="92.3" fill="none" stroke="#3c3c41" stroke-miterlimit="10"/><polygon points="433.5 96 440 92.3 433.5 88.5 433.5 96" fill="#3c3c41"/><line x1="455" y1="210" x2="484.6" y2="210" fill="none" stroke="#3c3c41" stroke-miterlimit="10"/><polygon points="483.5 213.7 490 210 483.5 206.3 483.5 213.7" fill="#3c3c41"/><line x1="385.4" y1="115" x2="385.4" y2="144.6" fill="none" stroke="#3c3c41" stroke-miterlimit="10"/><polygon points="381.7 143.5 385.4 150 389.1 143.5 381.7 143.5" fill="#3c3c41"/><line x1="140" y1="92.3" x2="184.6" y2="92.3" fill="none" stroke="#3c3c41" stroke-miterlimit="10"/><polygon points="183.5 96 190 92.3 183.5 88.5 183.5 96" fill="#3c3c41"/><path d="M450.1,81.4a1.5,1.5,0,0,1-1.7-1.4,1.6,1.6,0,0,1,1.4-1.7h.3a1.6,1.6,0,0,1,1.4,1.7A1.7,1.7,0,0,1,450.1,81.4Z" fill="#0078d4"/><path d="M454.7,81.4a1.6,1.6,0,0,1-1.6-1.6,1.6,1.6,0,0,1,3.2,0h0a1.6,1.6,0,0,1-1.6,1.6Z" fill="#0078d4"/><path d="M459.4,81.4a1.6,1.6,0,0,1-1.6-1.5,1.6,1.6,0,0,1,1.6-1.6,1.5,1.5,0,0,1,1.5,1.5h0A1.6,1.6,0,0,1,459.4,81.4Z" fill="#0078d4"/><path d="M464,81.4a1.6,1.6,0,0,1-1.6-1.5,1.6,1.6,0,0,1,1.6-1.6,1.5,1.5,0,0,1,1.5,1.5h0a1.4,1.4,0,0,1-1.5,1.6Z" fill="#0078d4"/><path d="M468.7,81.4a1.6,1.6,0,0,1-1.6-1.6,1.6,1.6,0,0,1,1.6-1.5,1.5,1.5,0,0,1,1.5,1.5h0a1.5,1.5,0,0,1-1.5,1.6Z" fill="#0078d4"/><path d="M473.4,81.4a1.6,1.6,0,1,1,1.5-1.6h0A1.6,1.6,0,0,1,473.4,81.4Z" fill="#0078d4"/><path d="M450.1,86.1a1.6,1.6,0,0,1-1.6-1.6,1.6,1.6,0,0,1,1.5-1.6,1.6,1.6,0,0,1,1.6,1.6h0A1.6,1.6,0,0,1,450.1,86.1Z" fill="#0078d4"/><path d="M454.7,86.1a1.6,1.6,0,0,1-1.4-1.7,1.5,1.5,0,0,1,1.4-1.5,1.6,1.6,0,0,1,1.7,1.5,1.6,1.6,0,0,1-1.4,1.7Z" fill="#0078d4"/><path d="M459.4,86.1a1.6,1.6,0,1,1,0-3.2,1.6,1.6,0,0,1,1.5,1.6h0A1.6,1.6,0,0,1,459.4,86.1Z" fill="#0078d4"/><path d="M464,86.1a1.6,1.6,0,0,1,0-3.2,1.6,1.6,0,0,1,1.5,1.6h0a1.4,1.4,0,0,1-1.5,1.6Z" fill="#0078d4"/><path d="M468.7,86.1a1.7,1.7,0,0,1-1.5-1.7,1.7,1.7,0,0,1,1.5-1.5,1.6,1.6,0,1,1,.2,3.2Z" fill="#0078d4"/><path d="M473.4,86.1a1.6,1.6,0,0,1-1.6-1.6,1.6,1.6,0,0,1,1.5-1.6,1.6,1.6,0,0,1,1.6,1.6h0A1.6,1.6,0,0,1,473.4,86.1Z" fill="#0078d4"/><path d="M450.1,90.7a1.5,1.5,0,0,1-1.7-1.4,1.6,1.6,0,0,1,1.4-1.7h.3a1.6,1.6,0,0,1,1.4,1.7A1.5,1.5,0,0,1,450.1,90.7Z" fill="#0078d4"/><path d="M454.7,90.7a1.6,1.6,0,0,1-1.6-1.5,1.6,1.6,0,0,1,3.2,0h0a1.6,1.6,0,0,1-1.6,1.5Z" fill="#0078d4"/><path d="M459.4,90.7a1.5,1.5,0,0,1-1.6-1.5,1.6,1.6,0,0,1,1.6-1.6,1.6,1.6,0,0,1,1.5,1.6h0A1.5,1.5,0,0,1,459.4,90.7Z" fill="#0078d4"/><path d="M464,90.7a1.5,1.5,0,0,1-1.6-1.5,1.6,1.6,0,0,1,1.6-1.6,1.6,1.6,0,0,1,1.5,1.6h0a1.4,1.4,0,0,1-1.5,1.5Z" fill="#0078d4"/><path d="M468.7,90.7a1.6,1.6,0,0,1-1.6-1.5,1.6,1.6,0,0,1,1.6-1.6,1.6,1.6,0,0,1,1.5,1.6h0a1.5,1.5,0,0,1-1.5,1.5Z" fill="#0078d4"/><path d="M473.4,90.7a1.5,1.5,0,0,1-1.6-1.5,1.6,1.6,0,0,1,1.5-1.6,1.6,1.6,0,0,1,1.6,1.6h0A1.5,1.5,0,0,1,473.4,90.7Z" fill="#0078d4"/><path d="M450.1,95.4a1.5,1.5,0,0,1-1.7-1.4,1.6,1.6,0,0,1,1.4-1.7h.3a1.6,1.6,0,0,1,1.4,1.7A1.7,1.7,0,0,1,450.1,95.4Z" fill="#0078d4"/><path d="M454.7,95.4a1.6,1.6,0,0,1-1.6-1.6,1.6,1.6,0,0,1,3.2,0h0a1.6,1.6,0,0,1-1.6,1.6Z" fill="#0078d4"/><path d="M459.4,95.4a1.6,1.6,0,0,1-1.6-1.5,1.6,1.6,0,0,1,1.6-1.6,1.5,1.5,0,0,1,1.5,1.5h0A1.6,1.6,0,0,1,459.4,95.4Z" fill="#0078d4"/><path d="M450.1,100.1a1.6,1.6,0,0,1-1.6-1.6,1.6,1.6,0,0,1,1.5-1.6,1.6,1.6,0,0,1,1.6,1.6h0A1.6,1.6,0,0,1,450.1,100.1Z" fill="#0078d4"/><path d="M454.7,100.1a1.6,1.6,0,0,1-1.4-1.7,1.5,1.5,0,0,1,1.4-1.5,1.6,1.6,0,0,1,1.7,1.5,1.6,1.6,0,0,1-1.4,1.7Z" fill="#0078d4"/><path d="M459.4,100.1a1.6,1.6,0,1,1,0-3.2,1.6,1.6,0,0,1,1.5,1.6h0A1.6,1.6,0,0,1,459.4,100.1Z" fill="#0078d4"/><path d="M450.1,104.7a1.6,1.6,0,1,1-.1-3.1,1.6,1.6,0,0,1,1.6,1.6h0A1.5,1.5,0,0,1,450.1,104.7Z" fill="#0078d4"/><path d="M454.7,104.7a1.6,1.6,0,0,1,0-3.1,1.6,1.6,0,0,1,1.7,1.4,1.5,1.5,0,0,1-1.4,1.7Z" fill="#0078d4"/><path d="M459.4,104.7a1.6,1.6,0,0,1-1.6-1.5,1.6,1.6,0,0,1,1.6-1.6,1.6,1.6,0,0,1,1.5,1.6h0A1.5,1.5,0,0,1,459.4,104.7Z" fill="#0078d4"/><path d="M476.5,105.2l-4.5-4.5a5.3,5.3,0,0,0-8.4-6.3,5.2,5.2,0,0,0,7.3,7.4l4.5,4.5Zm-8.7-3.9a3.8,3.8,0,0,1-3.7-3.8,3.7,3.7,0,1,1,3.7,3.8Z" fill="#50e6ff"/><path d="M609,279.7v-.3a7.6,7.6,0,0,0,.1-1.5,7.8,7.8,0,0,0-7.8-7.8h0a5.5,5.5,0,0,0-1.8.2,10.2,10.2,0,0,0-14-3.1,10,10,0,0,0-4.7,8.5v.4a9,9,0,0,0-1.6-.3,5,5,0,0,0-.5,10h22.5a7.8,7.8,0,0,0,6.9-4l.2-.2A14.6,14.6,0,0,0,609,279.7Z" fill="#50e6ff"/><path d="M585.3,283.9a6.5,6.5,0,1,1,12.9-.5v.5Z" fill="#0078d7"/><path d="M595.4,272.7a3.7,3.7,0,1,1-3.6-3.7h0A3.7,3.7,0,0,1,595.4,272.7Z" fill="#0078d7"/><path d="M591.7,263.7a1.8,1.8,0,0,0,1.8-1.9,1.8,1.8,0,1,0-3.6,0A1.8,1.8,0,0,0,591.7,263.7Z" fill="#0078d7"/><path d="M591.7,295a1.8,1.8,0,0,0,1.8-1.8,1.8,1.8,0,1,0-3.6,0,1.8,1.8,0,0,0,1.8,1.8Z" fill="#0078d7"/><path d="M605.6,285.8a1.8,1.8,0,0,0,1.8-1.8,1.8,1.8,0,0,0-1.8-1.9,1.9,1.9,0,1,0,0,3.7Z" fill="#0078d7"/><path d="M577.9,285.8a1.8,1.8,0,0,0,1.8-1.8,1.8,1.8,0,1,0-3.6,0,1.8,1.8,0,0,0,1.8,1.8Z" fill="#0078d7"/><path d="M605.6,272.9a1.8,1.8,0,0,0,1.8-1.9,1.8,1.8,0,0,0-1.8-1.8,1.9,1.9,0,1,0,0,3.7Z" fill="#0078d7"/><path d="M577.9,272.9a1.8,1.8,0,0,0,1.8-1.9,1.8,1.8,0,0,0-1.8-1.8,1.8,1.8,0,0,0-1.8,1.9,1.8,1.8,0,0,0,1.8,1.8Z" fill="#0078d7"/><path d="M386.1,96.7h-1.4v8.2h1.4Z" fill="#50e6ff"/><path d="M386.1,80.9h-1.4v9.2h1.4Z" fill="#50e6ff"/><path d="M388.8,94.5l-.8,1.3,7.5,4.3.7-1.3Z" fill="#50e6ff"/><path d="M375.1,86.6l-.7,1.3,7.7,4.5.8-1.3Z" fill="#50e6ff"/><path d="M395.6,86.7,388,91.1l.7,1.3,7.6-4.4Z" fill="#50e6ff"/><path d="M382.1,94.5,374.3,99l.7,1.3,7.8-4.5Z" fill="#50e6ff"/><path d="M385.4,90.8l2.2,1.3v2.6L385.4,96l-2.2-1.3V92.1Zm0-1.7-.7.5-2.2,1.2-.8.5v4.2l.8.5,2.2,1.2.7.5.7-.5,2.3-1.2.7-.4V91.3l-.7-.5-2.3-1.2Z" fill="#0078d4"/><path d="M383.2,105.2h0a2.2,2.2,0,0,1,2.2-2.2h0a2.2,2.2,0,0,1,2.2,2.2h0a2.2,2.2,0,0,1-2.2,2.2h0A2.2,2.2,0,0,1,383.2,105.2Z" fill="#0078d4"/><path d="M383.2,81.6h0a2.2,2.2,0,0,1,2.2-2.2h0a2.2,2.2,0,0,1,2.2,2.2h0a2.2,2.2,0,0,1-2.2,2.2h0A2.2,2.2,0,0,1,383.2,81.6Z" fill="#0078d4"/><path d="M394.6,101.2h0a2.2,2.2,0,0,1-.8-3h0a2.3,2.3,0,0,1,3-.8h0a2.2,2.2,0,0,1,.9,3h-.1a2.1,2.1,0,0,1-3,.8Z" fill="#0078d4"/><path d="M375.1,89.7h0a2.2,2.2,0,0,1-2.2-2.2h0a2.2,2.2,0,0,1,2.2-2.2h0a2.2,2.2,0,0,1,2.2,2.2h0a2.2,2.2,0,0,1-2.2,2.2Z" fill="#0078d4"/><path d="M396.9,89.4h0a2.1,2.1,0,0,1-3-.8h0a2.1,2.1,0,0,1,.7-3h0a2.2,2.2,0,0,1,3,.8h0A2.1,2.1,0,0,1,396.9,89.4Z" fill="#0078d4"/><path d="M375.1,101.5h0a2.2,2.2,0,0,1-2.2-2.2h0a2.2,2.2,0,0,1,2.2-2.2h0a2.2,2.2,0,0,1,2.2,2.2h0a2.2,2.2,0,0,1-2.2,2.2Z" fill="#0078d4"/><path d="M420,190v28H399v-3.5h-1.7v-1.7H399v-3.5h-1.7v-1.8H399v-7h-1.7v-1.7H399v-3.5h-1.7v-1.8H399V190Zm-1.7,1.8H400.8v24.5h17.5Zm-12.3,14a3.5,3.5,0,0,1-1.4-.3l-1.1-.8a4.1,4.1,0,0,1-.7-1.1,3.1,3.1,0,0,1-.3-1.3,3.2,3.2,0,0,1,.3-1.4,3.5,3.5,0,0,1,4.6-1.9l.4.2,2-2a2,2,0,0,1-.3-1.1,3.6,3.6,0,0,1,.2-1,3.2,3.2,0,0,1,1.4-1.4,3.4,3.4,0,0,1,2,0,3.2,3.2,0,0,1,1.4,1.4,2.5,2.5,0,0,1-1.4,3.4,1.7,1.7,0,0,1-1,.3,2,2,0,0,1-1.1-.3l-2,2a3.7,3.7,0,0,1,.5,1.8h0l2.3.8a2.6,2.6,0,0,1,3.1-.8,2.7,2.7,0,0,1,1.4,1.4,3.4,3.4,0,0,1,0,2,2.4,2.4,0,0,1-1.4,1.4,2.3,2.3,0,0,1-2,0l-.9-.5a2.6,2.6,0,0,1-.5-.9,1.6,1.6,0,0,1-.2-1l-2.3-.7a3.3,3.3,0,0,1-1.3,1.1,2.5,2.5,0,0,1-1.7.4Zm-3.5,5.3v-1.8h14V211Zm0,1.7h14v1.7h-14Zm3.5-12.3h-.7a2.2,2.2,0,0,0-.9,1,1.6,1.6,0,0,0,.4,1.9.9.9,0,0,0,.5.3,1.7,1.7,0,0,0,1.9-.3,1.7,1.7,0,0,0,.4-1.9,2.2,2.2,0,0,0-.9-1Zm6.1-5.2a.8.8,0,0,0-.9.8.9.9,0,1,0,1.8,0,1.4,1.4,0,0,0-.2-.6h0l-.7-.2Zm1.8,8.7a.9.9,0,0,0-.9.9h0a.8.8,0,0,0,.8.9h0a.9.9,0,0,0,.9-.9h0a.5.5,0,0,0-.2-.6.9.9,0,0,0-.6-.3Z"/><path d="M366,204h2.6a8.7,8.7,0,0,0,4.5-1.2c1.3-.8,1.9-1.4,1.9-1.8v-3a16.3,16.3,0,0,1-8.4,2,26.2,26.2,0,0,1-7.4-.7,20.5,20.5,0,0,1-3.1-1.3v3c0,.5.8,1.1,2.3,1.9A19.9,19.9,0,0,0,366,204Zm9,3v-3a16.5,16.5,0,0,1-8.4,2,26.2,26.2,0,0,1-7.4-.7,16.9,16.9,0,0,1-3.1-1.3v3c0,.5.7,1.1,2.3,1.9a19.7,19.7,0,0,0,7.5,1.1q5.3,0,7.2-1.2C374.4,207.9,375,207.4,375,207Zm-9,9h2.6a8.7,8.7,0,0,0,4.5-1.2c1.3-.8,1.9-1.4,1.9-1.8v-3a16.1,16.1,0,0,1-8.4,2,26.2,26.2,0,0,1-7.4-.7,16.9,16.9,0,0,1-3.1-1.3v3c0,.5.8,1.1,2.3,1.9A19.9,19.9,0,0,0,366,216Zm-9.9-21a.9.9,0,0,0,.3.6,2.2,2.2,0,0,0,.9.7l1.4.7,1.8.5,1.8.3h4.8l2.3-.2a19.8,19.8,0,0,0,3.3-.8q1.8-.6,2.1-1.2a2.4,2.4,0,0,0,.2-.8c0-.3-.6-.9-1.9-1.7s-3.8-1.2-7.5-1.2-6.3.4-7.6,1.2-1.9,1.5-1.9,1.8Zm4.6-4.6,1-.2a25.5,25.5,0,0,1,3.9-.2,28,28,0,0,1,6.4.8c2.3.5,3.8,1.2,4.3,2.1a5.4,5.4,0,0,1,.8,2.1v18a3.2,3.2,0,0,1-1,2.2,6.8,6.8,0,0,1-2.3,1.4,12.9,12.9,0,0,1-2.8.8l-2.9.5h-3.4a27,27,0,0,1-5.6-.8c-2.3-.5-3.8-1.2-4.3-2.1a4.9,4.9,0,0,1-.8-2.1V195a3.2,3.2,0,0,1,1-2.2,7.9,7.9,0,0,1,2.3-1.4,20.2,20.2,0,0,1,3.3-.9Z"/><path d="M534.1,286.9l-8.9-16.2v-7.5h2.3V262h-14v1.2h2.4v7.5L507,286.9c-1,1.7-.2,3.1,1.8,3.1h23.6C534.3,290,535.1,288.7,534.1,286.9Zm-26.3,1.6c-.2-.2,0-.6.2-1l8.9-16.2v-8.1h7v8.1l3.3,5.9h-9.2l-6.4,11.6h-3.1a.9.9,0,0,1-.9-.3Zm25.5,0a1.4,1.4,0,0,1-1,.3H513.2l5.7-10.5h9.2l5,9.1c.3.6.3,1,.2,1.1Z"/><path d="M583.7,212v2h20v-.6l-5.2-5.2L591,212Zm0-2h6.8l8.4-4.2,4.8,4.8v-5.2l-5-5-4.8,4.9-7.2-3.7-3,1.5Zm22,6h-24V201.9l5-2.5,6.8,3.4,5.2-5.2,7,7Zm-26-24v26h26v2h-28V192Z"/><path d="M525,217.1h-8.1c1,3.4-.4,3.9-6.1,3.9v1.8h19.5V221C524.5,221,524,220.5,525,217.1Z" fill="#50e6ff"/><path d="M510.7,222.8h19.6V221H510.7Z" fill="#50e6ff"/><path d="M535.6,194.8H505.5v22.3h30.1Z" fill="#0078d4"/><path d="M534,196.4H507v19.1h27Z" fill="#0078d4"/><path d="M533.5,198.3l-1.1-1.1-4.6,4.6-1.5-1.5-1.2,1.1,2.7,2.6h0Z" fill="#50e6ff"/><path d="M533.5,206.9l-1.1-1.1-4.6,4.6-1.5-1.5-1.2,1.1,2.7,2.6h0Z" fill="#50e6ff"/><path d="M511.3,207.7h-3.1v7h3.1Z" fill="#50e6ff"/><path d="M515.2,205.4h-3.1v9.3h3.1Z" fill="#50e6ff"/><path d="M519.1,203.8H516v10.9h3.1V203.8Z" fill="#50e6ff"/><path d="M523,201.8h-3.1v13H523Z" fill="#50e6ff"/><path d="M371,133.9h4V151H360.5v-3.9h-4V130H371Zm-13.2-2.6v14.5h11.9V131.3Zm15.8,18.4V135.3H371v11.8h-9.2v2.6Z"/><path d="M26.9,49.6l-3.1.2v2.4h-.9V49.8H19.6l-.2-.8,7.4-.2Zm-3.6-1.4a3,3,0,0,1-2-.6,1.8,1.8,0,0,1-.8-1.6,1.8,1.8,0,0,1,.7-1.5,3.5,3.5,0,0,1,2.1-.6,3.2,3.2,0,0,1,2,.6,1.9,1.9,0,0,1,.8,1.5,1.9,1.9,0,0,1-.8,1.6A3.2,3.2,0,0,1,23.3,48.2Zm-2.1,6.5V51.3h.9v2.6h6.8v.8Zm2.1-10.1a2,2,0,0,0-1.4.5,1,1,0,0,0-.5.9,1.1,1.1,0,0,0,.5,1,2,2,0,0,0,1.4.5,2.2,2.2,0,0,0,1.4-.5,1.4,1.4,0,0,0,.5-1,1.2,1.2,0,0,0-.5-.9A2.2,2.2,0,0,0,23.3,44.6Zm4.4,8V51.4H25.2v-.8h2.5V43.7h.9v8.9Z" stroke="#000" stroke-miterlimit="10" stroke-width="0.05"/><path d="M31.1,50.6v-.8h4.8V48.4h-3V44h.9v1.5h5.1V44h.9v4.4h-3v1.4h4.8v.8Zm1.7,4V51.4h.9v2.4h6.4v.8Zm6.1-8.4H33.8v1.4h5.1Z" stroke="#000" stroke-miterlimit="10" stroke-width="0.05"/><path d="M18.6,65.9H14.1V58.6h4.1v.8H14.9v5.9a24.1,24.1,0,0,0,3.7-.2Zm1.1,2.7v-6H17.3v-.8h2.4V57.9h.8V68.6Zm2.1.4V57.7h.9V69Z" stroke="#000" stroke-miterlimit="10" stroke-width="0.05"/><path d="M28.6,66.1a2.3,2.3,0,0,1-2-1,4.1,4.1,0,0,1-.8-2.8,4.5,4.5,0,0,1,.7-2.8,2.8,2.8,0,0,1,2.1-1.1,2.5,2.5,0,0,1,2.1,1.1,3.9,3.9,0,0,1,.8,2.8,4.1,4.1,0,0,1-.8,2.8A2.4,2.4,0,0,1,28.6,66.1Zm0-6.9a1.6,1.6,0,0,0-1.4.8,4.1,4.1,0,0,0-.6,2.3,3.8,3.8,0,0,0,.6,2.2,1.6,1.6,0,0,0,1.4.9,1.8,1.8,0,0,0,1.5-.9,3.8,3.8,0,0,0,.6-2.2,3.9,3.9,0,0,0-.6-2.3A1.9,1.9,0,0,0,28.6,59.2Zm5,9.8V57.7h.9V69Z" stroke="#000" stroke-miterlimit="10" stroke-width="0.05"/><path d="M39,62.7v2.7h5.1V66l-2,.2H38.1V58.6h5.5v.8H39v2.5h3.3v.8ZM45.5,69V63.2H43.3v-.8h2.2V57.7h.9V69Z" stroke="#000" stroke-miterlimit="10" stroke-width="0.05"/><path d="M114.9,52.6V50.2H110v-.7h10.5v.7h-4.7v2.4Zm-3.2,2.1V51.3h.8v2.6H119v.8Zm.1-6.5V44.1h6.9v4.1Zm6.1-3.3h-5.3v2.5h5.3Z" stroke="#000" stroke-miterlimit="10" stroke-width="0.05"/><path d="M128.3,52.2a7.9,7.9,0,0,1-1.7-1.9,4.2,4.2,0,0,1-1.1-1.9,7.1,7.1,0,0,1-1.1,2.1,9.8,9.8,0,0,1-1.7,1.8l-.7-.6a6.4,6.4,0,0,0,2.2-2.4,5.5,5.5,0,0,0,.9-3V44.5h.8v1.8a6.3,6.3,0,0,0,.8,2.9,8,8,0,0,0,2.2,2.3Zm2.2,2.8V48.2h-2.6v-.8h2.6V43.7h.9V55Z" stroke="#000" stroke-miterlimit="10" stroke-width="0.05"/><path d="M104,66.9v-.7h7.7c.1-1.3.2-2.4.2-3.5l-6.8.4-.2-.9,7-.2V59.6h-6.4v-.8h7.3v3.3a39.1,39.1,0,0,1-.3,4.1h2v.7Z" stroke="#000" stroke-miterlimit="10" stroke-width="0.05"/><path d="M116.7,66.4V62h3.4V59.5h-3.4v-.8H121v4.1h-3.4v2.9h1.2a16.2,16.2,0,0,0,3-.2v.8h-5.2Zm8.1,2.6V63.4h-1.4v5.3h-.9V57.9h.9v4.7h1.4V57.7h.9V69Z" stroke="#000" stroke-miterlimit="10" stroke-width="0.05"/><path d="M134.3,58.4a5.3,5.3,0,0,1-1.4,3.4,10.4,10.4,0,0,1-3.7,2.7l-.7-.8a7.3,7.3,0,0,0,3.9-2.6l-3.4.4-.3-.8,4.1-.3a5.1,5.1,0,0,0,.5-1.2h-4v-.8Zm-.5,10.5a4.5,4.5,0,0,1-2.7-.7,2,2,0,0,1-1-1.6,2.2,2.2,0,0,1,1-1.7,5.4,5.4,0,0,1,2.7-.6,5.5,5.5,0,0,1,2.8.6,2.2,2.2,0,0,1,1,1.7,2,2,0,0,1-1,1.6A4.7,4.7,0,0,1,133.8,68.9Zm0-3.9a3.9,3.9,0,0,0-2,.5,1.2,1.2,0,0,0-.7,1.1,1.3,1.3,0,0,0,.7,1.1,4,4,0,0,0,2,.4,4.1,4.1,0,0,0,2.1-.4,1.3,1.3,0,0,0,.7-1.1,1.2,1.2,0,0,0-.7-1.1A4.1,4.1,0,0,0,133.8,65Zm2.7-.8V57.7h.9v6.5Z" stroke="#000" stroke-miterlimit="10" stroke-width="0.05"/><path d="M219.7,94l-7.4.2v-.8h3.2v-.9a3.8,3.8,0,0,1-1.7-.6,1.3,1.3,0,0,1-.6-1.1,1.3,1.3,0,0,1,.7-1.2,3.3,3.3,0,0,1,2.1-.5,3.9,3.9,0,0,1,2,.5,1.4,1.4,0,0,1,.8,1.2,1.4,1.4,0,0,1-.6,1.2,4.3,4.3,0,0,1-1.8.5v.9h3.3Zm-7-5.3v-.8h2.9V86.8h.8v1.1h2.9v.8Zm7.7,9.5V95.7H214v-.8h7.3v3.3ZM216,89.8a3.1,3.1,0,0,0-1.5.3c-.3.2-.5.4-.5.7s.2.5.6.7a3.4,3.4,0,0,0,2.8,0c.4-.2.5-.4.5-.7s-.1-.5-.5-.7A2.6,2.6,0,0,0,216,89.8Zm5.3,1.9v2.7h-.9V86.9h.9v4H223v.8Z" stroke="#000" stroke-miterlimit="10" stroke-width="0.05"/><path d="M230.3,92.8l-1.6-1.2a6,6,0,0,1-1.1-1.4,7,7,0,0,1-2.7,2.9l-.6-.6a5.5,5.5,0,0,0,2-1.7,4,4,0,0,0,.9-2.4v-.2h-2.5v-.8h5.8v.8H228v.2a3.7,3.7,0,0,0,.8,2.2,5.5,5.5,0,0,0,2,1.5Zm-.7,5.3a5.1,5.1,0,0,1-2.7-.6,2,2,0,0,1-1-1.6,1.9,1.9,0,0,1,1-1.6,5.4,5.4,0,0,1,2.7-.6,5.5,5.5,0,0,1,2.8.6,1.8,1.8,0,0,1,.9,1.6,1.9,1.9,0,0,1-.9,1.6A5.5,5.5,0,0,1,229.6,98.1Zm0-3.7a5.4,5.4,0,0,0-2,.4,1.3,1.3,0,0,0-.7,1.1,1,1,0,0,0,.7,1,4,4,0,0,0,2,.4,4.1,4.1,0,0,0,2.1-.4,1,1,0,0,0,.7-1,1.3,1.3,0,0,0-.7-1.1A5.6,5.6,0,0,0,229.6,94.4Zm3.5-3.6v2.6h-.9V86.9h.9V90h1.7v.8Z" stroke="#000" stroke-miterlimit="10" stroke-width="0.05"/><path d="M246.5,87.9c-.1,3.2-1.8,5.7-5.1,7.6l-.7-.7a8.2,8.2,0,0,0,3.2-2.4,6.6,6.6,0,0,0,1.7-3.7h-4.4v-.8Zm2.8,4.4v5.9h-.9V86.9h.9v4.6h2v.8Z" stroke="#000" stroke-miterlimit="10" stroke-width="0.05"/><path d="M252.5,92.7v-.8H263v.8Zm5.2,5.3a6.5,6.5,0,0,1-2.7-.5,1.7,1.7,0,0,1,0-3.1,5.1,5.1,0,0,1,2.7-.6,5.5,5.5,0,0,1,2.8.6,1.8,1.8,0,0,1,.9,1.5,1.8,1.8,0,0,1-.9,1.6A7,7,0,0,1,257.7,98Zm-3.3-7.3V87.1h.8v2.8h6.2v.8Zm3.3,3.9a4.9,4.9,0,0,0-2,.3c-.5.3-.7.6-.7,1a1,1,0,0,0,.7,1,3.5,3.5,0,0,0,2,.4,4.1,4.1,0,0,0,2.1-.4,1,1,0,0,0,.7-1c0-.4-.2-.7-.7-1A5.8,5.8,0,0,0,257.7,94.6Z" stroke="#000" stroke-miterlimit="10" stroke-width="0.05"/><path d="M264.6,89.2v-.8h2.9V86.9h.9v1.5h2.9v.8Zm3.3,4.8a3.2,3.2,0,0,1-2-.6,2,2,0,0,1,0-3,3.2,3.2,0,0,1,2-.6,3.3,3.3,0,0,1,2.1.6,2,2,0,0,1,0,3A3.3,3.3,0,0,1,267.9,94Zm0-3.5a2.1,2.1,0,0,0-1.4.4,1.3,1.3,0,0,0,0,2,2.3,2.3,0,0,0,1.4.4,2,2,0,0,0,1.4-.4,1.1,1.1,0,0,0,0-2A2,2,0,0,0,267.9,90.5ZM266.5,98V94.8h.8v2.4h6.4V98Zm6.8-6v3.3h-.8V86.9h.8v4.3H275V92Z" stroke="#000" stroke-miterlimit="10" stroke-width="0.05"/><path d="M280.7,92.9v-.8h4.8V90.6h-3V87.1h.9v2.7h6.3v.8h-3.3v1.5h4.8v.8Zm5.2,5.1a6.8,6.8,0,0,1-2.7-.5,1.8,1.8,0,0,1-.9-1.6,1.8,1.8,0,0,1,.9-1.5,5.4,5.4,0,0,1,2.7-.6,5.5,5.5,0,0,1,2.8.6,1.8,1.8,0,0,1,.9,1.5,1.8,1.8,0,0,1-.9,1.6A7,7,0,0,1,285.9,98Zm0-3.4a5.3,5.3,0,0,0-2,.3c-.5.3-.7.6-.7,1a1,1,0,0,0,.7,1,3.7,3.7,0,0,0,2,.4,3.9,3.9,0,0,0,2.1-.4,1,1,0,0,0,.7-1c0-.4-.2-.7-.7-1A5.5,5.5,0,0,0,285.9,94.6Z" stroke="#000" stroke-miterlimit="10" stroke-width="0.05"/><path d="M300.6,98.2V95.1h-6.4v-.8h3.3V93h-4.8v-.8h10.5V93h-4.8v1.3h3.1v3.9Zm1.6-6.9a9.6,9.6,0,0,1-2.6-.8,4.7,4.7,0,0,1-1.6-1.1,3.8,3.8,0,0,1-1.7,1.1,9,9,0,0,1-2.5.8l-.5-.8a6.1,6.1,0,0,0,2.5-.6,2.7,2.7,0,0,0,1.6-1.3h-3.5v-.8h3.6v-1h.9v1H302v.8h-3.5a2.7,2.7,0,0,0,1.6,1.3,6.1,6.1,0,0,0,2.5.6Z" stroke="#000" stroke-miterlimit="10" stroke-width="0.05"/><path d="M235.8,109l-1.8.2h-5.7v-.8h1.8v-5h.8l.2,5h2v-5h.9v5l1.9-.2Zm-7.1-6.4v-.7h6.5v.7Zm8.7,3.5v6.1h-.9V100.9h.9v4.4h1.9v.8Z" stroke="#000" stroke-miterlimit="10" stroke-width="0.05"/><path d="M244,109.3a2.6,2.6,0,0,1-2.1-1,4.9,4.9,0,0,1-.8-2.8,5,5,0,0,1,.8-2.9,2.7,2.7,0,0,1,4.2,0,5,5,0,0,1,.8,2.9,4.7,4.7,0,0,1-.8,2.8A2.4,2.4,0,0,1,244,109.3Zm0-6.9a1.9,1.9,0,0,0-1.5.8,4.9,4.9,0,0,0-.5,2.3,3.8,3.8,0,0,0,.6,2.2,1.4,1.4,0,0,0,1.4.8,1.7,1.7,0,0,0,1.5-.8,3.8,3.8,0,0,0,.5-2.2,3.9,3.9,0,0,0-.5-2.3A1.9,1.9,0,0,0,244,102.4Zm5,9.8V100.9h.9v11.3Z" stroke="#000" stroke-miterlimit="10" stroke-width="0.05"/><path d="M252.5,110.4v-.8H263v.8Zm7.6-3.9H262v.8h-8.5v-.8h1.8v-3.2h.9v3.2h3l.2-3.2h.9Zm-6.5-4.6h8.3v.8h-8.3Z" stroke="#000" stroke-miterlimit="10" stroke-width="0.05"/><path d="M265.2,109.6v-4.4h4.2v-2.5h-4.2v-.8h5v4h-4.1v3a27.2,27.2,0,0,0,5.2-.3l.2.8Zm8.1-3.2v5.8h-.9V100.9h.9v4.7h1.9v.8Z" stroke="#000" stroke-miterlimit="10" stroke-width="0.05"/><path d="M280.3,107a2.8,2.8,0,0,1-2.1-.8,2.5,2.5,0,0,1-.9-2,2.6,2.6,0,0,1,.9-2.1,3.2,3.2,0,0,1,4.2,0,2.6,2.6,0,0,1,.9,2.1,2.5,2.5,0,0,1-.9,2A2.8,2.8,0,0,1,280.3,107Zm0-4.9a2,2,0,0,0-1.5.6,1.8,1.8,0,0,0-.6,1.5,2.1,2.1,0,1,0,4.2,0,1.8,1.8,0,0,0-.6-1.5A2,2,0,0,0,280.3,102.1Zm-1.5,9.6v-3.6h.8v2.8h6.6v.8Zm6.2-2.6v-8.2h.9v8.2Z" stroke="#000" stroke-miterlimit="10" stroke-width="0.05"/><path d="M449.1,49.9a3.2,3.2,0,0,1-2.1-.8,2.8,2.8,0,0,1-.8-2.1,2.5,2.5,0,0,1,.8-2.1,3.2,3.2,0,0,1,2.1-.8,2.9,2.9,0,0,1,2.1.8,2.6,2.6,0,0,1,.9,2.1,2.9,2.9,0,0,1-3,2.9Zm0-5a2,2,0,0,0-1.5.6A1.9,1.9,0,0,0,447,47a2.1,2.1,0,0,0,2.1,2.1,1.9,1.9,0,0,0,1.5-.6,2,2,0,0,0,.6-1.5,2.1,2.1,0,0,0-2.1-2.1Zm-1.5,9.7V50.9h.9v2.9H455v.8Zm6.2-2.7V43.7h.9v8.2Z" stroke="#000" stroke-miterlimit="10" stroke-width="0.05"/><path d="M462.9,49.3h-4.5V44.3h4.3V45h-3.5v3.6h3.7ZM466,55V51.5h-6.5v-.7h7.4V55Zm-2-4.9V47.2h-2.5v-.8H464V43.9h.9v6.2Zm2,0V43.7h.9v6.4Z" stroke="#000" stroke-miterlimit="10" stroke-width="0.05"/><path d="M479.8,53.1H469.3v-.8h10.5Zm-5.3-6.5a4.3,4.3,0,0,1-1.6,1.8,6.7,6.7,0,0,1-2.5,1.3l-.6-.7a6.1,6.1,0,0,0,3.1-1.6,3.3,3.3,0,0,0,1.2-2.2v-.6h.9v.6a3.3,3.3,0,0,0,1.2,2.2,6.1,6.1,0,0,0,3.2,1.6l-.7.7a8.5,8.5,0,0,1-2.5-1.3A5.6,5.6,0,0,1,474.5,46.6Z" stroke="#000" stroke-miterlimit="10" stroke-width="0.05"/><path d="M457.3,58.3a5.6,5.6,0,0,1-1.4,3.5,9,9,0,0,1-3.7,2.5l-.6-.6a9.4,9.4,0,0,0,3.2-1.9,4.6,4.6,0,0,0,1.5-2.7h-4v-.8Zm-3.5,10.4V64.6h6.9v4.1Zm6-3.3h-5.2v2.5h5.2Zm0-1.4V61.6h-2.6v-.7h2.6V57.7h.9V64Z" stroke="#000" stroke-miterlimit="10" stroke-width="0.05"/><path d="M468.6,63.4a4.5,4.5,0,0,1-1.4-1.1,8,8,0,0,1-.9-1.4,3,3,0,0,1-.9,1.5,4.3,4.3,0,0,1-1.4,1.3l-.6-.6a5.5,5.5,0,0,0,1.8-1.6,4.4,4.4,0,0,0,.7-2.2V58.1h.8v1.2a3.7,3.7,0,0,0,.7,2,4.7,4.7,0,0,0,1.7,1.5ZM472,69V65.5h-6.5v-.8h7.4V69Zm0-4.9V61.5h-1.3v2.6h-.9V57.9h.9v2.8H472v-3h.9v6.4Z" stroke="#000" stroke-miterlimit="10" stroke-width="0.05"/><path d="M583.4,235.7a2.9,2.9,0,0,1-2.1-.8,2.7,2.7,0,0,1-.9-2.1,2.9,2.9,0,0,1,3-2.9,3.2,3.2,0,0,1,2.1.8,2.8,2.8,0,0,1,.8,2.1,2.6,2.6,0,0,1-.8,2.1A3.2,3.2,0,0,1,583.4,235.7Zm0-5a2.1,2.1,0,1,0,1.5.6A2,2,0,0,0,583.4,230.7Zm-1.6,9.7v-3.7h.9v2.9h6.6v.8Zm6.3-2.6v-8.3h.9v8.3Z" stroke="#000" stroke-miterlimit="10" stroke-width="0.05"/><path d="M597.4,230.2a5.9,5.9,0,0,1-1.8,3.9,11,11,0,0,1-3.3,2.3l-.6-.7a8,8,0,0,0,3-1.9,5,5,0,0,0,1.7-2.8h-4v-.8Zm-3.8,10.2v-3.5h.8v2.7h6.3v.8Zm6.8-6.5v3.9h-.8v-8.3h.8v3.6h1.7v.8Z" stroke="#000" stroke-miterlimit="10" stroke-width="0.05"/><path d="M585.6,243.1a5.6,5.6,0,0,1-1.4,3.5,9.9,9.9,0,0,1-3.7,2.6l-.7-.7a7.8,7.8,0,0,0,3.2-1.9,5.5,5.5,0,0,0,1.6-2.7h-4v-.8ZM582,253.5v-4.1h7v4.1Zm6.1-3.3h-5.2v2.5h5.2Zm0-1.4v-2.3h-2.6v-.8h2.6v-3.2h.9v6.3Z" stroke="#000" stroke-miterlimit="10" stroke-width="0.05"/><path d="M591.6,248.4v-.8h10.5v.8Zm9.5-1.8a7.2,7.2,0,0,1-2.6-.8,5,5,0,0,1-1.7-1.3,5,5,0,0,1-1.7,1.3,7.3,7.3,0,0,1-2.5.8l-.5-.7a6.1,6.1,0,0,0,2.7-.8q1.4-.7,1.5-1.5h-3.6v-.8h8.2v.8h-3.6a3.5,3.5,0,0,0,1.5,1.5,7,7,0,0,0,2.7.8Zm-4.3,7.1a4.9,4.9,0,0,1-2.7-.6,1.6,1.6,0,0,1-.9-1.5,1.6,1.6,0,0,1,.9-1.5,5.1,5.1,0,0,1,2.7-.6,4.9,4.9,0,0,1,2.7.6,1.6,1.6,0,0,1,.9,1.5,1.6,1.6,0,0,1-.9,1.5A4.9,4.9,0,0,1,596.8,253.7Zm0-3.5a4.6,4.6,0,0,0-2,.4,1,1,0,0,0-.7,1c0,.4.2.7.7,1a5.3,5.3,0,0,0,2,.3,4.9,4.9,0,0,0,2-.3c.5-.3.7-.6.7-1a1,1,0,0,0-.7-1A4.6,4.6,0,0,0,596.8,250.2Z" stroke="#000" stroke-miterlimit="10" stroke-width="0.05"/><path d="M507.8,239.5h-.9v-7.2h0a3.1,3.1,0,0,0-.2.8l-2.9,6.4h-.5l-2.9-6.4a3.1,3.1,0,0,0-.2-.8h0v7.2h-.9v-8.4h1.3l2.5,5.9a3.4,3.4,0,0,1,.4,1h.1a3.4,3.4,0,0,1,.4-1l2.6-5.9h1.2Z" stroke="#000" stroke-miterlimit="10" stroke-width="0.05"/><path d="M514.2,239.5h-1v-.9h0a2.1,2.1,0,0,1-3.2.6,1.4,1.4,0,0,1-.5-1.3c0-1.1.6-1.7,2-1.9l1.7-.3q0-1.5-1.2-1.5a2.6,2.6,0,0,0-1.9.7v-1a3.9,3.9,0,0,1,2-.5c1.4,0,2.1.7,2.1,2.2Zm-1-3-1.4.2-1,.3a1.2,1.2,0,0,0-.3.9.9.9,0,0,0,.3.7,1.1,1.1,0,0,0,.8.3,1.7,1.7,0,0,0,1.2-.5,2,2,0,0,0,.4-1.3Z" stroke="#000" stroke-miterlimit="10" stroke-width="0.05"/><path d="M520.1,239.3a4.2,4.2,0,0,1-1.6.4,2.6,2.6,0,0,1-2.1-.9,2.9,2.9,0,0,1-.8-2.1,3.2,3.2,0,0,1,.9-2.4,2.8,2.8,0,0,1,2.2-.9,2.9,2.9,0,0,1,1.4.3v1a2.4,2.4,0,0,0-1.4-.5,1.8,1.8,0,0,0-1.5.7,2.4,2.4,0,0,0-.6,1.7,2.5,2.5,0,0,0,.5,1.6,1.8,1.8,0,0,0,1.5.7,2.2,2.2,0,0,0,1.5-.6Z" stroke="#000" stroke-miterlimit="10" stroke-width="0.05"/><path d="M526.5,239.5h-.9v-3.4c0-1.3-.5-1.9-1.4-1.9a1.7,1.7,0,0,0-1.2.5,2.4,2.4,0,0,0-.5,1.4v3.4h-.9v-8.9h.9v3.9h0a2.4,2.4,0,0,1,2-1.1c1.4,0,2,.8,2,2.4Z" stroke="#000" stroke-miterlimit="10" stroke-width="0.05"/><path d="M528.8,232l-.4-.2a.5.5,0,0,1-.2-.4c0-.2.1-.3.2-.5h.9c.1.2.2.3.2.5a.5.5,0,0,1-.2.4Zm.5,7.5h-.9v-6h.9Z" stroke="#000" stroke-miterlimit="10" stroke-width="0.05"/><path d="M536.2,239.5h-.9v-3.4c0-1.3-.5-1.9-1.4-1.9a1.7,1.7,0,0,0-1.2.5,2.4,2.4,0,0,0-.5,1.4v3.4h-.9v-6h.9v1h0a2.4,2.4,0,0,1,2-1.1,1.8,1.8,0,0,1,1.5.6,2.7,2.7,0,0,1,.5,1.9Z" stroke="#000" stroke-miterlimit="10" stroke-width="0.05"/><path d="M542.9,236.8h-4.3a2.3,2.3,0,0,0,.6,1.5,1.7,1.7,0,0,0,1.4.6,3.4,3.4,0,0,0,1.9-.7v.9a3.7,3.7,0,0,1-2.1.6,2.4,2.4,0,0,1-2-.9,3.2,3.2,0,0,1-.8-2.3,3.3,3.3,0,0,1,.8-2.2,2.7,2.7,0,0,1,2-.9,2.1,2.1,0,0,1,1.8.7,3.2,3.2,0,0,1,.7,2.2Zm-1-.8a1.7,1.7,0,0,0-.4-1.3,1.2,1.2,0,0,0-1.1-.5,1.8,1.8,0,0,0-1.2.5,2.3,2.3,0,0,0-.6,1.3Z" stroke="#000" stroke-miterlimit="10" stroke-width="0.05"/><path d="M503.3,252.5H499v-8.4h1v7.5h3.3Z" stroke="#000" stroke-miterlimit="10" stroke-width="0.05"/><path d="M509.3,249.8h-4.2a2.3,2.3,0,0,0,.5,1.5,1.8,1.8,0,0,0,1.4.6,3.4,3.4,0,0,0,1.9-.7v.9a3.3,3.3,0,0,1-2.1.6,2.8,2.8,0,0,1-2-.8,3.5,3.5,0,0,1-.7-2.3,3.4,3.4,0,0,1,.8-2.3,2.5,2.5,0,0,1,2-.9,2.3,2.3,0,0,1,1.8.7,3.8,3.8,0,0,1,.6,2.2Zm-1-.8a1.7,1.7,0,0,0-.4-1.3c-.2-.4-.6-.5-1.1-.5a1.6,1.6,0,0,0-1.1.5,2.3,2.3,0,0,0-.6,1.3Z" stroke="#000" stroke-miterlimit="10" stroke-width="0.05"/><path d="M515.1,252.5h-1v-.9h0a2,2,0,0,1-1.9,1.1,2.2,2.2,0,0,1-1.4-.5,1.7,1.7,0,0,1-.5-1.3c0-1.1.7-1.7,2-1.9l1.8-.3q0-1.5-1.2-1.5a3.1,3.1,0,0,0-2,.7v-1a4.6,4.6,0,0,1,2.1-.5c1.4,0,2.1.7,2.1,2.2Zm-1-3-1.4.2-1,.3a1,1,0,0,0-.4.9.9.9,0,0,0,.3.7,1.2,1.2,0,0,0,.9.3,1.6,1.6,0,0,0,1.1-.5,1.7,1.7,0,0,0,.5-1.3Z" stroke="#000" stroke-miterlimit="10" stroke-width="0.05"/><path d="M520,247.5l-.7-.2a1.1,1.1,0,0,0-1,.6,2.5,2.5,0,0,0-.5,1.6v3h-.9v-6h.9v1.3h.1a1.4,1.4,0,0,1,.6-1,1.2,1.2,0,0,1,.9-.4h.6Z" stroke="#000" stroke-miterlimit="10" stroke-width="0.05"/><path d="M526,252.5h-.9v-3.4c0-1.3-.5-1.9-1.4-1.9a1.7,1.7,0,0,0-1.2.5,2.4,2.4,0,0,0-.5,1.4v3.4h-.9v-6h.9v1h0a2.4,2.4,0,0,1,2-1.1,1.8,1.8,0,0,1,1.5.6,2.7,2.7,0,0,1,.5,1.9Z" stroke="#000" stroke-miterlimit="10" stroke-width="0.05"/><path d="M528.3,245l-.4-.2a.5.5,0,0,1-.2-.4c0-.2.1-.3.2-.5h.9c.1.2.2.3.2.5a.5.5,0,0,1-.2.4Zm.5,7.5h-1v-6h1Z" stroke="#000" stroke-miterlimit="10" stroke-width="0.05"/><path d="M535.7,252.5h-.9v-3.4c0-1.3-.5-1.9-1.4-1.9a1.7,1.7,0,0,0-1.2.5,2.4,2.4,0,0,0-.5,1.4v3.4h-.9v-6h.9v1h0a2.3,2.3,0,0,1,2-1.1,1.8,1.8,0,0,1,1.5.6,2.7,2.7,0,0,1,.5,1.9Z" stroke="#000" stroke-miterlimit="10" stroke-width="0.05"/><path d="M542.7,252c0,2.3-1.1,3.4-3.2,3.4a3.8,3.8,0,0,1-1.9-.5V254a4.5,4.5,0,0,0,1.9.5c1.5,0,2.2-.8,2.2-2.3v-.7h0a2.4,2.4,0,0,1-2.1,1.2,2.5,2.5,0,0,1-1.8-.8,3.8,3.8,0,0,1-.7-2.2,3.6,3.6,0,0,1,.8-2.4,2.4,2.4,0,0,1,2-.9,1.9,1.9,0,0,1,1.8,1h0v-.9h1Zm-1-2.2v-.9a1.8,1.8,0,0,0-.5-1.2,1.7,1.7,0,0,0-1.2-.5,1.8,1.8,0,0,0-1.4.6,3.6,3.6,0,0,0-.5,1.9,2.8,2.8,0,0,0,.5,1.6,1.7,1.7,0,0,0,2.6,0A2.5,2.5,0,0,0,541.7,249.8Z" stroke="#000" stroke-miterlimit="10" stroke-width="0.05"/><path d="M237,74.9a8.1,8.1,0,0,1-1.4,4.3,10,10,0,0,1-3.7,3.3l-.7-.7a8.2,8.2,0,0,0,3.2-2.4,6.9,6.9,0,0,0,1.6-3.7h-4.3v-.8Zm2.2,10.2V73.8h.9V85.1Z" stroke="#000" stroke-miterlimit="10" stroke-width="0.05"/><path d="M244.6,84.9V82.3h6.1v-1h-6.1v-.7h3V79.4h-4.8v-.8h10.5v.7h-4.8v1.3h3.1v2.5h-6.2v1h6.5v.8Zm7.7-7.2a7.9,7.9,0,0,1-2.6-.8,4.6,4.6,0,0,1-1.6-1.4,3.2,3.2,0,0,1-1.6,1.3,6.2,6.2,0,0,1-2.6.9l-.5-.7a5.6,5.6,0,0,0,3-1,2.1,2.1,0,0,0,1.2-1.6v-.3h.9v.3c0,.5.4,1.1,1.3,1.6a5.6,5.6,0,0,0,3,1Z" stroke="#000" stroke-miterlimit="10" stroke-width="0.05"/><path d="M264.1,82.5A8.4,8.4,0,0,1,262,79a7.1,7.1,0,0,1-.8,1.9,8.5,8.5,0,0,1-1.4,1.7l-.7-.5a7.5,7.5,0,0,0,2.5-5.2V74.7h.9v2.2a5.5,5.5,0,0,0,.7,2.8,5.5,5.5,0,0,0,1.6,2.2Zm1.6,2.3V78.5h-2v-.8h2V74.1h.9V84.8Zm2,.3V73.8h.9V85.1Z" stroke="#000" stroke-miterlimit="10" stroke-width="0.05"/><path d="M271.1,83.4v-.8h10.4v.8Zm8.8-7.7h-6.3v1.6h6v.8h-6v1.6h6.5v.8h-7.4V74.9h7.2Z" stroke="#000" stroke-miterlimit="10" stroke-width="0.05"/><path d="M283,78.5c0-.2,0-.4.2-.5a.5.5,0,0,1,.4-.2l.5.2a.8.8,0,0,1,.2.5l-.2.4-.5.2a.5.5,0,0,1-.4-.2A.4.4,0,0,1,283,78.5Zm0,5.1c0-.2,0-.4.2-.5a.5.5,0,0,1,.4-.2l.5.2a.6.6,0,0,1,0,.9.6.6,0,0,1-.5.2c-.2,0-.3,0-.4-.2S283,83.8,283,83.6Z" stroke="#000" stroke-miterlimit="10" stroke-width="0.05"/><path d="M238.9,14.8a3.2,3.2,0,0,1-2.1-.8,2.5,2.5,0,0,1-.8-2.1,2.4,2.4,0,0,1,.8-2,2.8,2.8,0,0,1,2.1-.8,2.5,2.5,0,0,1,2.1.8,2.5,2.5,0,0,1,.9,2A2.6,2.6,0,0,1,241,14,2.9,2.9,0,0,1,238.9,14.8Zm0-5a2.1,2.1,0,0,0-2.1,2.1,2.1,2.1,0,0,0,.6,1.6,2.5,2.5,0,0,0,1.5.5,2.1,2.1,0,0,0,1.5-.5,2.1,2.1,0,0,0,.6-1.6,2,2,0,0,0-.6-1.5A1.8,1.8,0,0,0,238.9,9.8Zm-1.5,9.7V15.8h.9v2.9h6.5v.8Zm6.2-2.6V8.6h.9v8.3Z" stroke="#000" stroke-miterlimit="10" stroke-width="0.05"/><path d="M253.2,14.5l-1.5-1.2a3.4,3.4,0,0,1-1.1-1.4,7.6,7.6,0,0,1-1.1,1.6,8.3,8.3,0,0,1-1.6,1.3l-.6-.6a5.4,5.4,0,0,0,2-1.7,4,4,0,0,0,.8-2.3V9h.9v1.2a3.2,3.2,0,0,0,.8,2.2,4.8,4.8,0,0,0,2,1.5Zm2.3,5.4V16.6H249v-.8h7.4v4.1Zm0-4.8V8.6h.9v6.5Z" stroke="#000" stroke-miterlimit="10" stroke-width="0.05"/><path d="M269.4,9.7a7.5,7.5,0,0,1-1.3,4.3,10.3,10.3,0,0,1-3.8,3.3l-.6-.7a7.9,7.9,0,0,0,3.1-2.4,6.3,6.3,0,0,0,1.7-3.7h-4.4V9.7Zm2.3,10.2V8.6h.9V19.9Z" stroke="#000" stroke-miterlimit="10" stroke-width="0.05"/><path d="M277,19.7V17.1h6.2v-1H277v-.8h3.1V14.1h-4.8v-.8h10.5v.8H281v1.2h3v2.6h-6.1v1h6.4v.8Zm7.8-7.2a8.4,8.4,0,0,1-2.7-.8,4.6,4.6,0,0,1-1.6-1.4,3.3,3.3,0,0,1-1.5,1.3,6.2,6.2,0,0,1-2.6.9l-.6-.7a6.3,6.3,0,0,0,3.1-1,2.1,2.1,0,0,0,1.2-1.6V8.9h.9v.3a2.1,2.1,0,0,0,1.2,1.6,5.6,5.6,0,0,0,3,1Z" stroke="#000" stroke-miterlimit="10" stroke-width="0.05"/><path d="M358.9,160.8v-1.1h-4.8v-.8h10.5v.8h-4.8v1.1a5.3,5.3,0,0,1,2.4.6,1.6,1.6,0,0,1,.8,1.4,1.8,1.8,0,0,1-.9,1.5,7,7,0,0,1-2.8.5,6.2,6.2,0,0,1-2.7-.5,1.8,1.8,0,0,1-.9-1.5,1.6,1.6,0,0,1,.8-1.4A5.3,5.3,0,0,1,358.9,160.8Zm-3.7-2.9v-.7h1.7v-2.1h.9v2.1h3.1v-2.1h.9v2.1h1.6v.7Zm.2-3.2v-.8h7.9v.8Zm3.9,6.9q-2.7,0-2.7,1.2c0,.8.9,1.3,2.7,1.3s2.8-.5,2.8-1.3S361.2,161.6,359.3,161.6Z" stroke="#000" stroke-miterlimit="10" stroke-width="0.05"/><path d="M371.8,160.8v4.1h-.9v-4.1h-4.8v-.7h10.5v.7Zm-4-2.2V154h.8v1.6H374V154h.9v4.6Zm6.2-2.3h-5.4v1.5H374Z" stroke="#000" stroke-miterlimit="10" stroke-width="0.05"/><path d="M378.2,155.9v-.8h2.9v-1.4h.9v1.4h2.9v.8Zm3.3,4.9a3.2,3.2,0,0,1-2-.6,2.1,2.1,0,0,1-.8-1.6,2.2,2.2,0,0,1,.8-1.5,3.2,3.2,0,0,1,2-.6,3.3,3.3,0,0,1,2.1.6,1.8,1.8,0,0,1,.7,1.5,2.1,2.1,0,0,1-.7,1.6A3.3,3.3,0,0,1,381.5,160.8Zm0-3.5a2.1,2.1,0,0,0-1.4.4,1.1,1.1,0,0,0-.5.9,1.1,1.1,0,0,0,.5,1,2.1,2.1,0,0,0,1.4.4,2,2,0,0,0,1.4-.4,1,1,0,0,0,.6-1,1,1,0,0,0-.6-.9A2,2,0,0,0,381.5,157.3Zm-1.4,7.4v-3.1h.8V164h6.4v.7Zm6.8-5.9V162h-.8v-8.4h.8V158h1.7v.8Z" stroke="#000" stroke-miterlimit="10" stroke-width="0.05"/><path d="M399.2,162.5v-2.3h-4.9v-.8h10.5v.8H400v2.3Zm-3.3,2.1v-3.4h.9v2.6h6.5v.8Zm.1-6.5V154h7v4.1Zm6.1-3.3h-5.2v2.5h5.2Z" stroke="#000" stroke-miterlimit="10" stroke-width="0.05"/><path d="M412.6,162.1a8.2,8.2,0,0,1-1.8-1.9,5.4,5.4,0,0,1-1.1-1.9,5.7,5.7,0,0,1-1,2.1,10.2,10.2,0,0,1-1.8,1.8l-.6-.6a7.3,7.3,0,0,0,2.2-2.4,6,6,0,0,0,.8-2.9v-1.9h.9v1.8a5.1,5.1,0,0,0,.8,2.9,6.9,6.9,0,0,0,2.2,2.3Zm2.2,2.8v-6.8h-2.7v-.8h2.7v-3.7h.9v11.3Z" stroke="#000" stroke-miterlimit="10" stroke-width="0.05"/><path d="M362,238.1v-.7h10.5v.7Zm7.6-3.8h1.9v.7H363v-.7h1.8v-3.2h.9v3.2h3l.2-3.2h.9Zm-6.5-4.6h8.3v.8h-8.3Z" stroke="#000" stroke-miterlimit="10" stroke-width="0.05"/><path d="M375.6,232.1H382v-1.7h-6.4v-.8h7.2v3.2h-6.4v1.9h6.8v.8h-3.5v2h4.8v.8H374v-.8h4.8v-2h-3.2Z" stroke="#000" stroke-miterlimit="10" stroke-width="0.05"/><path d="M391.1,234.4a4,4,0,0,1-1.2-1.1,5,5,0,0,1-1-1.3,5.6,5.6,0,0,1-.8,1.5,7.5,7.5,0,0,1-1.4,1.2l-.6-.6a4.3,4.3,0,0,0,1.7-1.6,3.6,3.6,0,0,0,.7-2.2V230h-2v-.8h4.9v.8h-2.1v.3a3.7,3.7,0,0,0,.7,2,4.7,4.7,0,0,0,1.7,1.5Zm3.6,5.5v-3.5h-6.5v-.7h7.4v4.2Zm-2-4.9v-3.1h-1.9v-.8h1.9v-2.2h.8V235Zm2,0v-6.4h.9V235Z" stroke="#000" stroke-miterlimit="10" stroke-width="0.05"/><path d="M404.1,235a6.5,6.5,0,0,1-1.6-1.3,9.2,9.2,0,0,1-1.1-1.5,6.9,6.9,0,0,1-1.1,1.7,6.7,6.7,0,0,1-1.6,1.4l-.6-.6a4.9,4.9,0,0,0,2-1.8,4,4,0,0,0,.9-2.4V229h.8v1.5a3.5,3.5,0,0,0,.9,2.2,5.4,5.4,0,0,0,2,1.7Zm-3.8,4.6V236h.8v2.8h6.4v.8Zm3.9-6.5v-.7h2.1v-1.3h-2.1v-.8h2.1v-1.7h.9v8.3h-.9v-3.8Z" stroke="#000" stroke-miterlimit="10" stroke-width="0.05"/><path d="M360.4,262.3a7.7,7.7,0,0,1-1.8-1.8,8.5,8.5,0,0,1-1-1.8,3.9,3.9,0,0,1-1,1.9,7.9,7.9,0,0,1-1.7,1.9l-.7-.6a7.3,7.3,0,0,0,2.2-2.4,6.7,6.7,0,0,0,.8-3v-.9h-2.5v-.8h5.9v.8h-2.5v.9a6,6,0,0,0,.8,2.9,7.8,7.8,0,0,0,2.1,2.3Zm2.1,2.8V253.8h.9v11.3Z" stroke="#000" stroke-miterlimit="10" stroke-width="0.05"/><path d="M372.2,259.7a8.3,8.3,0,0,1-1.6-1.2,11,11,0,0,1-1.1-1.4,4.6,4.6,0,0,1-1.1,1.6,8.7,8.7,0,0,1-1.5,1.3l-.7-.6a6.8,6.8,0,0,0,2.1-1.7,4.3,4.3,0,0,0,.8-2.3v-1.2h.8v1.2a3.2,3.2,0,0,0,.9,2.1,4.8,4.8,0,0,0,2,1.5Zm2.3,5.4v-3.4H368v-.8h7.4v4.2Zm0-4.8v-6.5h.9v6.5Z" stroke="#000" stroke-miterlimit="10" stroke-width="0.05"/><path d="M388.5,262.3a7.5,7.5,0,0,1-2.7-3.6,6.2,6.2,0,0,1-1,2,9.8,9.8,0,0,1-1.7,1.8l-.6-.6a6.1,6.1,0,0,0,2.1-2.4,6.7,6.7,0,0,0,.8-3v-.9h-2.5v-.8h5.8v.8h-2.4v.9a5.1,5.1,0,0,0,.8,2.9,5.7,5.7,0,0,0,2,2.3Zm2.3,2.8v-6.6h-2.6v-.8h2.6v-3.9h.8v11.3Z" stroke="#000" stroke-miterlimit="10" stroke-width="0.05"/><path d="M400.3,259.7l-1.6-1.2a6,6,0,0,1-1.1-1.4,6.6,6.6,0,0,1-1.1,1.6,4.8,4.8,0,0,1-1.6,1.3l-.6-.6a5.5,5.5,0,0,0,2-1.7,3.7,3.7,0,0,0,.9-2.3v-.3h-2.5v-.8h5.8v.8H398v.3a3.7,3.7,0,0,0,.8,2.1,7.4,7.4,0,0,0,2,1.6Zm-.7,5.3a4.9,4.9,0,0,1-2.7-.6,1.9,1.9,0,0,1-1-1.6,2,2,0,0,1,1-1.6,5.1,5.1,0,0,1,2.7-.6,4.9,4.9,0,0,1,2.7.6,1.8,1.8,0,0,1,.1,3.2A5.5,5.5,0,0,1,399.6,265Zm0-3.6a3.7,3.7,0,0,0-2,.4,1,1,0,0,0-.7,1,1.3,1.3,0,0,0,.7,1.1,5.4,5.4,0,0,0,2,.4,5.6,5.6,0,0,0,2.1-.4,1.5,1.5,0,0,0,.7-1.1,1.2,1.2,0,0,0-.7-1A4.1,4.1,0,0,0,399.6,261.4Zm3.5-3.7v2.6h-.9v-6.5h.9v3.1h1.7v.8Z" stroke="#000" stroke-miterlimit="10" stroke-width="0.05"/><path d="M406.3,263.3v-.8H411v-2.7h.9v2.7h4.8v.8Zm5.2-6.6a5.2,5.2,0,0,1-1.6,1.8,9.1,9.1,0,0,1-2.6,1.3l-.6-.7a6.5,6.5,0,0,0,3.2-1.6,3.5,3.5,0,0,0,1.1-2.2v-.6h.9v.6a3.3,3.3,0,0,0,1.2,2.2,6.5,6.5,0,0,0,3.2,1.6l-.6.7a9.1,9.1,0,0,1-2.6-1.3A5.2,5.2,0,0,1,411.5,256.7Z" stroke="#000" stroke-miterlimit="10" stroke-width="0.05"/><path d="M515.3,174.4a5.6,5.6,0,0,1-1.4,3.5,9.2,9.2,0,0,1-3.7,2.6l-.6-.7a8,8,0,0,0,3.2-1.9,4.1,4.1,0,0,0,1.5-2.7h-4v-.8Zm-3.5,10.4v-4h6.9v4Zm6-3.3h-5.2v2.6h5.2Zm0-1.4v-2.3h-2.6V177h2.6v-3.2h.9v6.3Z" stroke="#000" stroke-miterlimit="10" stroke-width="0.05"/><path d="M526.5,179.6a6.8,6.8,0,0,1-1.3-1.2,7.7,7.7,0,0,1-.9-1.3,4.2,4.2,0,0,1-.9,1.5,5.7,5.7,0,0,1-1.4,1.3l-.6-.6a5.5,5.5,0,0,0,1.8-1.6,4.6,4.6,0,0,0,.6-2.3v-1.2h.9v1.2a3.3,3.3,0,0,0,.7,2.1,3.8,3.8,0,0,0,1.7,1.4Zm3.5,5.5v-3.5h-6.5v-.8h7.4v4.3Zm0-4.9v-2.6h-1.3v2.6h-.9v-6.1h.9v2.8H530v-3.1h.9v6.4Z" stroke="#000" stroke-miterlimit="10" stroke-width="0.05"/><path d="M586.1,180.5v2.6h-.9v-2.6h-4.9v-.8h10.5v.8Zm-4.1,4.2v-3.2h.9v2.4h6.5v.8Zm.1-6.3v-4.3h.9v1.4h5.2v-1.4h.9v4.3Zm6.1-2.1H583v1.3h5.2Z" stroke="#000" stroke-miterlimit="10" stroke-width="0.05"/><path d="M598.4,179.7a7.9,7.9,0,0,1-1.5-1.2,4.5,4.5,0,0,1-1.1-1.4,5.1,5.1,0,0,1-1.1,1.6,4.8,4.8,0,0,1-1.6,1.3l-.6-.6a5.5,5.5,0,0,0,2-1.7,3.4,3.4,0,0,0,.8-2.3v-1.3h.9v1.3a4,4,0,0,0,.8,2.2,9.5,9.5,0,0,0,2,1.5Zm2.3,5.4v-3.4h-6.4v-.8h7.3v4.2Zm0-4.8v-3.4H598v-.8h2.7v-2.3h.9v6.5Z" stroke="#000" stroke-miterlimit="10" stroke-width="0.05"/></svg>