<svg id="Layer_1" data-name="Layer 1" xmlns="http://www.w3.org/2000/svg" viewBox="0 0 167 34"><defs><style>.cls-1{fill:#0078d4;}.cls-2{fill:#fff;}</style></defs><title>OJ105241761</title><rect class="cls-1" width="167" height="34" rx="4"/><path class="cls-2" d="M27.68,27.5H48.51L37.29,8l-3.42,9.43,6.57,7.83Zm8.72-21-8,6.75L21.51,25.19h6.2Z"/><path class="cls-2" d="M66.21,23.4H64.9l-1.17-3.06H59.1L58,23.4H56.69l4.15-10.79H62Zm-2.89-4.15L61.6,14.59a3.62,3.62,0,0,1-.16-.71h0a2.53,2.53,0,0,1-.18.71l-1.7,4.66Z"/><path class="cls-2" d="M72.94,23.4H66.65v-.34l4.6-6.36H67.08v-1H73V16l-4.62,6.4h4.57Z"/><path class="cls-2" d="M80.76,23.4H79.6V22.19h0a2.53,2.53,0,0,1-2.38,1.4q-2.76,0-2.76-3.29V15.7h1.15v4.41c0,1.66.63,2.49,1.9,2.49A1.93,1.93,0,0,0,79,21.91a2.59,2.59,0,0,0,.6-1.78V15.7h1.16Z"/><path class="cls-2" d="M87.24,16.89a1.64,1.64,0,0,0-2.26.52,3.53,3.53,0,0,0-.54,2.05V23.4H83.28V15.7h1.16v1.6h0A2.77,2.77,0,0,1,85.28,16a1.82,1.82,0,0,1,1.2-.46,2.18,2.18,0,0,1,.76.11Z"/><path class="cls-2" d="M94.52,19.84H89.05a3,3,0,0,0,.72,2,2.41,2.41,0,0,0,1.82.71A3.78,3.78,0,0,0,94,21.72v1.11a4.39,4.39,0,0,1-2.68.76,3.21,3.21,0,0,1-2.55-1.07,4.38,4.38,0,0,1-.92-2.95,4.19,4.19,0,0,1,1-2.9,3.19,3.19,0,0,1,2.5-1.15,2.87,2.87,0,0,1,2.32,1,4.08,4.08,0,0,1,.83,2.71Zm-1.2-1a2.52,2.52,0,0,0-.52-1.68,1.78,1.78,0,0,0-1.44-.61,2.09,2.09,0,0,0-1.51.63,2.81,2.81,0,0,0-.78,1.66Z"/><path class="cls-2" d="M102.84,16.78A5.82,5.82,0,0,1,102,20a2.72,2.72,0,0,1-4.5-.1,6.55,6.55,0,0,1-.81-3.57,6.55,6.55,0,0,1,.81-3.57,2.59,2.59,0,0,1,2.29-1.24,2.55,2.55,0,0,1,2.2,1.11,5.87,5.87,0,0,1,.88,3.18h1.71v-5h1.1V24.29h-1.1V16.78Zm-3.09-4.27a1.63,1.63,0,0,0-1.51,1,6.14,6.14,0,0,0-.52,2.84,6.14,6.14,0,0,0,.52,2.84,1.65,1.65,0,0,0,3,0,6.2,6.2,0,0,0,.52-2.84,6.17,6.17,0,0,0-.52-2.84A1.64,1.64,0,0,0,99.75,12.51Zm7.32,12.21V10.58h1.1V24.72Z"/><path class="cls-2" d="M116.94,20.81V11.64h1.8v3.29h2.14V11.64h1.81v9.17Zm3.94-4.34h-2.14v2.81h2.14Zm6,8.25V17.65h-1.14v6.66h-1.82V10.86h1.82v5.25h1.14V10.58h1.83V24.72Z"/><path class="cls-2" d="M131.41,22.8V21.27h5.64V18.78h-4.43V17.26h2l-.17-3.3h1.84l.12,3.3h3.1l.14-3.3h1.83l-.2,3.3h2.05v1.52h-4.45v2.49h5.65V22.8Zm1.31-9.47V11.81h10.52v1.52Z"/></svg>