<?xml version="1.0" encoding="utf-8"?>
<!-- Generator: Adobe Illustrator 22.1.0, SVG Export Plug-In . SVG Version: 6.00 Build 0)  -->
<svg version="1.1" xmlns="http://www.w3.org/2000/svg" xmlns:xlink="http://www.w3.org/1999/xlink" x="0px" y="0px"
	 viewBox="0 0 475.7 150.2" style="enable-background:new 0 0 475.7 150.2;" xml:space="preserve">
<style type="text/css">
	.st0{fill:#505050;}
	.st1{fill:#FFFFFF;}
	.st2{display:none;}
	.st3{display:inline;}
	.st4{fill:#EBEBEB;}
	.st5{fill:#0072C6;}
	.st6{fill:#D2D2D2;}
	.st7{fill:none;stroke:#000000;stroke-miterlimit:10;}
	.st8{fill:#1A1A1F;}
	.st9{fill:#0078D4;}
	.st10{fill:#EBEBEB;stroke:#000000;stroke-width:0.75;stroke-miterlimit:10;}
	.st11{fill:#1E1E1E;}
	.st12{fill:none;}
	.st13{stroke:#000000;stroke-width:5.000000e-02;stroke-miterlimit:10;}
	.st14{fill:#1E1E1E;stroke:#1E1E1E;stroke-width:6.000000e-02;stroke-miterlimit:10;}
	.st15{fill:#FFFFFF;stroke:#FFFFFF;stroke-width:5.000000e-02;stroke-miterlimit:10;}
	.st16{fill:#0072C6;stroke:#0072C6;stroke-width:5.000000e-02;stroke-miterlimit:10;}
</style>
<symbol  id="New_Symbol_41" viewBox="-10 -10 20 20">
	<circle class="st0" cx="0" cy="0" r="10"/>
	<path class="st1" d="M1.2-4.2v8.6h-1.4v-6.9C-0.4-2.3-0.7-2.1-1-2c-0.3,0.1-0.7,0.2-1,0.3v-1.2l0.6-0.2l0.6-0.3l0.6-0.3
		C0.1-3.9,0.4-4,0.6-4.2H1.2z"/>
</symbol>
<symbol  id="New_Symbol_42" viewBox="-10 -10 20 20">
	<circle class="st0" cx="0" cy="0" r="10"/>
	<path class="st1" d="M2.5,4.4h-5.3V3.8c0-0.3,0-0.5,0.1-0.8c0.1-0.2,0.2-0.4,0.3-0.7c0.1-0.2,0.3-0.4,0.4-0.6
		c0.2-0.2,0.4-0.4,0.5-0.5l0.6-0.5c0.2-0.1,0.4-0.3,0.6-0.5S0.1,0,0.3-0.2c0.1-0.1,0.3-0.3,0.4-0.4C0.8-0.8,0.9-1,0.9-1.1
		C1-1.3,1-1.5,1-1.7c0-0.2,0-0.4-0.1-0.6C0.8-2.4,0.7-2.6,0.6-2.7C0.5-2.8,0.3-2.9,0.2-2.9C0-3-0.2-3-0.4-3c-0.4,0-0.7,0.1-1.1,0.2
		c-0.4,0.2-0.7,0.4-1,0.7v-1.3c0.2-0.1,0.3-0.2,0.5-0.3c0.2-0.1,0.4-0.2,0.6-0.2C-1.2-4-1-4-0.8-4.1c0.2,0,0.4,0,0.7,0
		c0.3,0,0.7,0,1,0.1c0.3,0.1,0.6,0.2,0.8,0.4C1.9-3.3,2.1-3,2.2-2.8c0.1,0.3,0.2,0.7,0.2,1c0,0.3,0,0.6-0.1,0.9
		C2.2-0.6,2-0.3,1.9-0.1C1.7,0.2,1.5,0.4,1.3,0.6C1.1,0.8,0.9,1,0.6,1.2l-0.7,0.5c-0.2,0.2-0.4,0.4-0.6,0.5C-0.8,2.4-1,2.6-1.1,2.8
		c-0.1,0.1-0.2,0.3-0.2,0.5l0,0h3.8V4.4z"/>
</symbol>
<symbol  id="New_Symbol_43" viewBox="-10 -10 20 20">
	<circle class="st0" cx="0" cy="0" r="10"/>
	<path class="st1" d="M-2.6,4.1V2.8c0.5,0.4,1.2,0.7,1.8,0.6c0.5,0,0.9-0.1,1.3-0.4c0.3-0.2,0.5-0.6,0.5-1c0-0.9-0.7-1.4-2.2-1.4
		h-0.7v-1.1h0.6c1.3,0,1.9-0.4,1.9-1.4S0.3-3-0.7-3c-0.6,0-1.1,0.2-1.6,0.6v-1.2C-1.7-4-1-4.1-0.3-4.1c0.6,0,1.3,0.2,1.8,0.6
		c0.4,0.3,0.7,0.9,0.7,1.4c0.1,1-0.7,1.9-1.7,2.1l0,0c0.5,0,1,0.3,1.4,0.6C2.3,1,2.5,1.5,2.5,2.1c0,0.7-0.3,1.4-0.9,1.8
		C1,4.4,0.2,4.6-0.6,4.6C-1.3,4.6-2,4.5-2.6,4.1z"/>
</symbol>
<symbol  id="New_Symbol_44" viewBox="-10 -10 20 20">
	<circle class="st0" cx="0" cy="0" r="10"/>
	<path class="st1" d="M2-4v5.4h1.3v1.1H2v1.9H0.6V2.6h-3.8V1.4c0.3-0.4,0.7-0.8,1-1.3c0.4-0.4,0.7-0.9,1-1.4s0.6-0.9,0.9-1.4
		S0.4-3.5,0.6-4L2-4z M0.7,1.4v-3.5c-0.4,0.7-0.8,1.4-1.3,2C-1,0.5-1.4,1-1.8,1.4L0.7,1.4z"/>
</symbol>
<g id="src" class="st2">
	<g id="Shapes" class="st3">
		<rect y="0.2" class="st1" width="475.7" height="150"/>
		<rect class="st4" width="105" height="150"/>
		<rect x="371" class="st5" width="104.7" height="90"/>
		<rect x="371" y="95" class="st6" width="104.7" height="55"/>
		<g>
			<line class="st7" x1="105" y1="15" x2="365.6" y2="15"/>
			<polygon points="364.5,18.7 371,15 364.5,11.3 			"/>
		</g>
		<g>
			<line class="st7" x1="110.4" y1="44.9" x2="371" y2="44.9"/>
			<polygon points="111.5,48.6 105,44.9 111.5,41.1 			"/>
		</g>
		<g>
			<line class="st7" x1="105" y1="105.2" x2="365.6" y2="105.2"/>
			<polygon points="364.5,108.9 371,105.2 364.5,101.4 			"/>
		</g>
		<g>
			<line class="st7" x1="110.4" y1="140.5" x2="371" y2="140.5"/>
			<polygon points="111.5,144.2 105.1,140.5 111.5,136.7 			"/>
		</g>
		
			<use xlink:href="#New_Symbol_44"  width="20" height="20" x="-10" y="-10" transform="matrix(1 0 0 1 168.88 140)" style="overflow:visible;"/>
		
			<use xlink:href="#New_Symbol_43"  width="20" height="20" x="-10" y="-10" transform="matrix(1 0 0 1 168.88 105.16)" style="overflow:visible;"/>
		
			<use xlink:href="#New_Symbol_42"  width="20" height="20" x="-10" y="-10" transform="matrix(1 0 0 1 168.88 44.88)" style="overflow:visible;"/>
		
			<use xlink:href="#New_Symbol_41"  width="20" height="20" x="-10" y="-10" transform="matrix(1 0 0 1 168.88 15)" style="overflow:visible;"/>
		<g>
			<g>
				<path class="st8" d="M19.5,28.5c0-0.8,0.7-1.5,1.5-1.5c0,0,0,0,0,0h62.9c0.8,0,1.5,0.7,1.5,1.5c0,0,0,0,0,0v37.2
					c0,0.8-0.7,1.5-1.5,1.5c0,0,0,0,0,0H21.1c-0.8,0-1.5-0.7-1.5-1.5c0,0,0,0,0,0L19.5,28.5z M16.1,26.7v40.7c0,1.8,1.5,3.3,3.3,3.3
					c0,0,0,0,0,0h66.3c1.8,0,3.3-1.4,3.3-3.2c0,0,0,0,0-0.1V26.7c0-1.8-1.5-3.3-3.3-3.3c0,0,0,0,0,0H19.3
					C17.5,23.4,16,24.9,16.1,26.7C16,26.7,16,26.7,16.1,26.7z"/>
				<path class="st8" d="M13.4,74.2h78.3c0.5,0,0.9,0.4,0.9,0.9c0,0,0,0,0,0v2.6c0,0.5-0.4,0.9-0.9,0.9h0H13.4
					c-0.5,0-0.9-0.4-0.9-0.9l0,0v-2.6C12.5,74.6,12.9,74.2,13.4,74.2C13.4,74.2,13.4,74.2,13.4,74.2z"/>
				<path class="st1" d="M43.6,75.7h17.9c0.1,0,0.3,0.1,0.3,0.3v0.7c0,0.1-0.1,0.3-0.3,0.3H43.6c-0.1,0-0.3-0.1-0.3-0.3V76
					C43.3,75.9,43.4,75.7,43.6,75.7C43.5,75.7,43.6,75.7,43.6,75.7z"/>
			</g>
			<path class="st9" d="M37,36.1l12.7-1.7v12.2L37,46.6V36.1z M49.7,48v12.2L37,58.4V47.9L49.7,48z M51.2,34.2L68,31.7v14.7
				l-16.8,0.1V34.2z M68,48.1v14.6l-16.8-2.4V48L68,48.1z"/>
		</g>
		<polygon class="st10" points="192.6,26 185,31.4 187.9,40.3 197.2,40.3 200.1,31.4 		"/>
	</g>
	<g id="Text" class="st3">
		<g>
			<path class="st11" d="M38.3,90.1l-2.2,8.4H34l-1.4-5.4c-0.1-0.3-0.1-0.6-0.1-0.9l0,0c0,0.3-0.1,0.6-0.2,0.9l-1.4,5.4h-2.2
				l-2.2-8.4h2.1l1.2,5.6c0.1,0.3,0.1,0.7,0.1,1l0,0c0-0.3,0.1-0.7,0.2-1l1.5-5.6h2l1.5,5.6c0.1,0.3,0.1,0.6,0.1,0.9l0,0
				c0-0.3,0.1-0.6,0.1-0.9l1.2-5.6H38.3z"/>
			<path class="st11" d="M40.2,91.6c-0.3,0-0.6-0.1-0.8-0.3c-0.2-0.2-0.3-0.4-0.3-0.7c0-0.3,0.1-0.5,0.3-0.7
				c0.2-0.2,0.5-0.3,0.8-0.3c0.3,0,0.6,0.1,0.8,0.3c0.2,0.2,0.3,0.4,0.3,0.7c0,0.3-0.1,0.5-0.3,0.7C40.7,91.5,40.5,91.6,40.2,91.6z
				 M41.1,98.6h-1.9v-6h1.9L41.1,98.6z"/>
			<path class="st11" d="M48.4,98.5h-1.8v-3.3c0-0.9-0.3-1.4-1-1.4c-0.3,0-0.6,0.1-0.8,0.4c-0.2,0.3-0.3,0.6-0.3,0.9v3.4h-1.8v-6
				h1.8v1l0,0c0.4-0.7,1.1-1.1,1.9-1.1c1.3,0,2,0.8,2,2.5L48.4,98.5z"/>
			<path class="st11" d="M55.8,98.5H54v-0.8l0,0c-0.4,0.6-1.1,1-1.9,1c-0.7,0-1.4-0.3-1.8-0.8c-0.5-0.6-0.7-1.4-0.7-2.2
				c0-0.9,0.2-1.7,0.8-2.4c0.5-0.6,1.2-0.9,2-0.9c0.7-0.1,1.3,0.3,1.6,0.8l0,0v-3.6h1.8V98.5z M54,95.6v-0.4c0-0.4-0.1-0.7-0.3-1
				c-0.2-0.3-0.5-0.4-0.9-0.4c-0.4,0-0.8,0.2-1,0.5c-0.2,0.4-0.4,0.9-0.3,1.3c0,0.4,0.1,0.9,0.3,1.2c0.2,0.3,0.6,0.4,0.9,0.4
				c0.4,0,0.7-0.2,0.9-0.4C53.9,96.4,54,96,54,95.6z"/>
			<path class="st11" d="M60.2,98.7c-0.9,0-1.7-0.3-2.4-0.8c-1.2-1.3-1.2-3.3,0-4.6c0.7-0.6,1.5-0.9,2.4-0.8
				c0.9-0.1,1.7,0.3,2.3,0.8c0.6,0.6,0.9,1.4,0.8,2.2c0,0.9-0.3,1.7-0.9,2.4C61.9,98.4,61.1,98.7,60.2,98.7z M60.2,93.8
				c-0.4,0-0.8,0.2-1,0.4c-0.3,0.4-0.4,0.8-0.4,1.3c0,1.2,0.5,1.7,1.4,1.7s1.3-0.6,1.3-1.8S61.2,93.8,60.2,93.8L60.2,93.8z"/>
			<path class="st11" d="M73.3,92.5l-1.7,6h-2L68.7,95c-0.1-0.3-0.1-0.5-0.1-0.8l0,0c0,0.2-0.1,0.5-0.1,0.7l-0.9,3.5h-2l-1.7-6h1.9
				l0.8,3.9c0,0.2,0.1,0.4,0.1,0.7l0,0c0-0.2,0-0.5,0.1-0.7l1-3.9h1.8l0.9,3.9c0,0.2,0.1,0.4,0.1,0.7l0,0c0-0.2,0-0.4,0.1-0.7
				l0.8-3.9L73.3,92.5z"/>
			<path class="st11" d="M73.7,98.3v-1.5c0.3,0.2,0.6,0.3,0.9,0.4c0.3,0.1,0.6,0.1,0.9,0.1c0.3,0,0.5,0,0.8-0.1
				c0.2-0.1,0.3-0.2,0.3-0.4c0-0.1,0-0.2-0.1-0.3c-0.1-0.1-0.2-0.2-0.3-0.2c-0.1-0.1-0.3-0.1-0.4-0.2c-0.2,0-0.3-0.1-0.5-0.2
				c-0.2-0.1-0.4-0.2-0.6-0.3c-0.2-0.1-0.3-0.2-0.5-0.4c-0.1-0.1-0.2-0.3-0.3-0.5c-0.1-0.2-0.1-0.4-0.1-0.6c0-0.3,0.1-0.6,0.3-0.9
				c0.1-0.2,0.4-0.4,0.6-0.6c0.3-0.2,0.5-0.3,0.8-0.3c0.3-0.1,0.7-0.1,1-0.1c0.3,0,0.5,0,0.8,0.1c0.3,0,0.5,0.1,0.8,0.2V94
				c-0.2-0.1-0.5-0.2-0.8-0.3c-0.3-0.1-0.5-0.1-0.8-0.1c-0.1,0-0.2,0-0.3,0c-0.1,0-0.2,0-0.3,0.1c-0.1,0-0.1,0.1-0.2,0.2
				c-0.1,0.1-0.1,0.4,0,0.5c0.1,0.1,0.2,0.1,0.3,0.2c0.1,0.1,0.2,0.1,0.4,0.2l0.4,0.1c0.2,0.1,0.5,0.2,0.7,0.3
				c0.2,0.1,0.4,0.2,0.5,0.4c0.1,0.1,0.3,0.3,0.3,0.5c0.1,0.2,0.1,0.4,0.1,0.7c0,0.3-0.1,0.6-0.2,0.9c-0.2,0.3-0.4,0.5-0.6,0.6
				c-0.3,0.2-0.6,0.3-0.9,0.3c-0.3,0.1-0.7,0.1-1,0.1C75,98.6,74.3,98.5,73.7,98.3z"/>
			<path class="st11" d="M34.1,109.3c0,2.5-1.2,3.8-3.5,3.8s-3.5-1.2-3.4-3.7v-4.9H29v4.9c0,1.4,0.5,2,1.6,2s1.6-0.7,1.6-2v-4.9h1.9
				V109.3z"/>
			<path class="st11" d="M41.5,112.9h-1.8v-3.3c0-0.9-0.3-1.4-1-1.4c-0.3,0-0.6,0.1-0.8,0.4c-0.2,0.3-0.3,0.6-0.3,0.9v3.4h-1.8v-6
				h1.8v0.9l0,0c0.4-0.7,1.1-1.1,1.9-1.1c1.3,0,2,0.8,2,2.5L41.5,112.9z"/>
			<path class="st11" d="M43.9,106c-0.3,0-0.6-0.1-0.8-0.3c-0.2-0.2-0.3-0.4-0.3-0.7c0-0.3,0.1-0.5,0.3-0.7c0.2-0.2,0.5-0.3,0.8-0.3
				c0.3,0,0.6,0.1,0.8,0.3c0.2,0.2,0.3,0.4,0.3,0.7c0,0.3-0.1,0.5-0.3,0.7C44.4,105.9,44.2,106,43.9,106z M44.8,113h-1.8v-6h1.8V113
				z"/>
			<path class="st11" d="M52.1,106.9l-2.2,6h-2.1l-2.1-6h2l1,3.7c0.1,0.3,0.2,0.7,0.2,1.1l0,0c0-0.3,0.1-0.7,0.2-1l1.1-3.7
				L52.1,106.9z"/>
			<path class="st11" d="M58.1,110.4h-3.9c0.1,0.9,0.6,1.3,1.7,1.3c0.6,0,1.2-0.2,1.7-0.5v1.3c-0.7,0.3-1.4,0.5-2.2,0.4
				c-1.5,0.2-2.9-1-3.1-2.5c0-0.2,0-0.3,0-0.5c0-0.9,0.3-1.7,0.9-2.4c0.6-0.6,1.3-0.9,2.1-0.9c0.7,0,1.5,0.2,2,0.8
				c0.5,0.6,0.8,1.3,0.7,2.1L58.1,110.4z M56.4,109.3c0-0.9-0.3-1.3-1-1.3c-0.3,0-0.6,0.1-0.8,0.4c-0.2,0.3-0.4,0.6-0.4,0.9H56.4z"
				/>
			<path class="st11" d="M63.2,108.6c-0.2-0.1-0.5-0.2-0.8-0.2c-0.4,0-0.7,0.1-0.9,0.4c-0.2,0.4-0.4,0.8-0.3,1.2v2.9h-1.9v-6h1.8
				v1.1l0,0c0.2-0.7,0.8-1.2,1.6-1.2c0.2,0,0.3,0,0.5,0.1L63.2,108.6z"/>
			<path class="st11" d="M63.8,112.7v-1.5c0.3,0.2,0.6,0.3,0.9,0.4c0.3,0.1,0.6,0.1,0.9,0.1c0.3,0,0.5,0,0.8-0.1
				c0.2-0.1,0.3-0.2,0.3-0.4c0-0.1,0-0.2-0.1-0.3c-0.1-0.1-0.2-0.2-0.3-0.2c-0.1-0.1-0.3-0.1-0.4-0.2l-0.5-0.2
				c-0.2-0.1-0.4-0.2-0.6-0.3c-0.2-0.1-0.3-0.2-0.4-0.4c-0.1-0.1-0.2-0.3-0.3-0.5c-0.1-0.2-0.1-0.4-0.1-0.6c0-0.3,0.1-0.6,0.2-0.9
				c0.1-0.2,0.3-0.4,0.6-0.6c0.3-0.2,0.5-0.3,0.8-0.3c0.3-0.1,0.7-0.1,1-0.1c0.3,0,0.5,0,0.8,0.1c0.3,0,0.5,0.1,0.8,0.2v1.4
				c-0.2-0.1-0.5-0.2-0.8-0.3c-0.3-0.1-0.5-0.1-0.8-0.1c-0.1,0-0.2,0-0.3,0c-0.1,0-0.2,0-0.3,0.1c-0.1,0-0.1,0.1-0.2,0.2
				c0,0.1-0.1,0.1-0.1,0.2c0,0.1,0,0.2,0.1,0.3c0.1,0.1,0.2,0.2,0.3,0.2c0.1,0.1,0.2,0.1,0.4,0.2l0.4,0.1c0.2,0.1,0.5,0.2,0.7,0.3
				c0.2,0.1,0.4,0.2,0.5,0.4c0.1,0.1,0.3,0.3,0.3,0.5c0.1,0.2,0.1,0.4,0.1,0.7c0,0.3-0.1,0.6-0.2,0.9c-0.2,0.3-0.4,0.5-0.6,0.6
				c-0.3,0.2-0.6,0.3-0.9,0.3c-0.3,0.1-0.7,0.1-1,0.1C65.1,113,64.4,112.9,63.8,112.7z"/>
			<path class="st11" d="M74.6,112.9h-1.8V112l0,0c-0.4,0.6-1.1,1-1.8,1c-0.5,0-1-0.2-1.4-0.5c-0.3-0.4-0.5-0.8-0.5-1.3
				c0-1.2,0.7-1.8,2.1-2l1.6-0.2c0-0.7-0.4-1-1.1-1c-0.7,0-1.4,0.2-2,0.6v-1.4c0.3-0.2,0.7-0.3,1.1-0.3c0.4-0.1,0.8-0.2,1.2-0.2
				c1.2-0.2,2.4,0.7,2.6,1.9c0,0.2,0,0.4,0,0.6L74.6,112.9z M72.9,110.5v-0.4l-1.1,0.1c-0.6,0.1-0.9,0.3-0.9,0.8
				c0,0.2,0.1,0.4,0.2,0.5c0.2,0.1,0.4,0.2,0.6,0.2c0.3,0,0.6-0.1,0.8-0.4C72.8,111.1,72.9,110.8,72.9,110.5z"/>
			<path class="st11" d="M77.9,112.9h-1.8V104h1.8V112.9z"/>
			<path class="st11" d="M30.5,124.4v2.9h-1.9v-8.4h3c2.1,0,3.2,0.9,3.2,2.7c0,0.8-0.3,1.5-0.9,2c-0.7,0.6-1.5,0.8-2.4,0.8
				L30.5,124.4z M30.5,120.4v2.6h0.7c1,0,1.5-0.4,1.5-1.3s-0.5-1.3-1.5-1.3L30.5,120.4z"/>
			<path class="st11" d="M37.6,127.3h-1.8v-8.9h1.8V127.3z"/>
			<path class="st11" d="M44.2,127.3h-1.8v-0.9l0,0c-0.4,0.6-1.1,1-1.8,1c-0.5,0-1-0.2-1.4-0.5c-0.3-0.4-0.5-0.8-0.5-1.3
				c0-1.2,0.7-1.8,2.1-2l1.6-0.2c0-0.7-0.4-1-1.1-1c-0.7,0-1.4,0.2-2,0.6v-1.4c0.3-0.2,0.7-0.3,1.1-0.3c0.4-0.1,0.8-0.2,1.2-0.2
				c1.2-0.2,2.4,0.7,2.6,1.9c0,0.2,0,0.4,0,0.6L44.2,127.3z M42.4,124.9v-0.4l-1.1,0.1c-0.6,0.1-0.9,0.4-0.9,0.8
				c0,0.2,0.1,0.4,0.2,0.5c0.2,0.1,0.4,0.2,0.6,0.2c0.3,0,0.6-0.1,0.8-0.4C42.3,125.5,42.4,125.2,42.4,124.9z"/>
			<path class="st11" d="M49.2,127.2c-0.4,0.2-0.8,0.2-1.2,0.2c-1.3,0-2-0.7-2-2v-2.7H45v-1.4h1V120l1.8-0.5v1.8h1.3v1.4h-1.4v2.4
				c0,0.6,0.2,0.9,0.7,0.9c0.2,0,0.4-0.1,0.6-0.2L49.2,127.2z"/>
			<path class="st11" d="M54.3,119.8c-0.2-0.1-0.5-0.1-0.7-0.1c-0.6,0-0.9,0.3-0.9,1v0.6h1.4v1.4h-1.4v4.6h-1.9v-4.6h-1v-1.4h1v-0.7
				c0-0.6,0.2-1.2,0.7-1.7c0.5-0.4,1.2-0.7,1.8-0.6c0.3,0,0.6,0,0.9,0.1L54.3,119.8z"/>
			<path class="st11" d="M57.9,127.4c-0.9,0-1.7-0.3-2.4-0.8c-1.2-1.3-1.2-3.3,0-4.6c0.7-0.6,1.5-0.9,2.4-0.8
				c0.9-0.1,1.7,0.3,2.3,0.8c0.6,0.6,0.9,1.4,0.8,2.2c0,0.9-0.3,1.7-0.9,2.4C59.6,127.2,58.7,127.5,57.9,127.4z M57.9,122.6
				c-0.4,0-0.8,0.2-1,0.4c-0.3,0.4-0.4,0.8-0.4,1.3c0,1.2,0.5,1.7,1.4,1.7s1.3-0.6,1.3-1.8S58.8,122.6,57.9,122.6L57.9,122.6z"/>
			<path class="st11" d="M66.2,123c-0.2-0.1-0.5-0.2-0.8-0.2c-0.4,0-0.7,0.2-0.9,0.4c-0.2,0.4-0.4,0.8-0.3,1.2v2.9h-1.8v-6h1.8v1.1
				l0,0c0.2-0.7,0.8-1.2,1.6-1.2c0.2,0,0.3,0,0.4,0.1L66.2,123z"/>
			<path class="st11" d="M76.6,127.3h-1.8v-3.4c0-0.9-0.3-1.3-1-1.3c-0.3,0-0.6,0.1-0.7,0.4c-0.2,0.3-0.3,0.6-0.3,1v3.4h-1.8v-3.5
				c0-0.8-0.3-1.3-0.9-1.3c-0.3,0-0.6,0.1-0.8,0.4c-0.2,0.3-0.3,0.6-0.3,1v3.3h-1.9v-6H69v0.9l0,0c0.2-0.3,0.5-0.6,0.8-0.8
				c0.3-0.2,0.7-0.3,1.1-0.3c0.8-0.1,1.5,0.4,1.7,1.1c0.4-0.7,1.2-1.1,2-1.1c1.3,0,2,0.8,2,2.4L76.6,127.3z"/>
		</g>
		<g>
			<path class="st11" d="M192.2,10h-1.1l-0.9-2.4h-3.6l-0.8,2.4h-1.1l3.2-8.4h1L192.2,10z M189.9,6.8l-1.3-3.6
				c-0.1-0.2-0.1-0.4-0.1-0.6l0,0c0,0.2-0.1,0.4-0.1,0.6L187,6.8H189.9z"/>
			<path class="st11" d="M197.2,9.7c-0.5,0.3-1.1,0.4-1.6,0.4c-0.8,0-1.5-0.3-2.1-0.8c-0.5-0.6-0.8-1.4-0.8-2.2
				c0-0.9,0.3-1.7,0.9-2.4c0.6-0.6,1.4-0.9,2.3-0.9c0.5,0,1,0.1,1.4,0.3v1c-0.4-0.3-0.9-0.5-1.4-0.5c-0.6,0-1.1,0.2-1.5,0.7
				c-0.4,0.5-0.6,1.1-0.6,1.7c0,0.6,0.2,1.2,0.6,1.7c0.4,0.4,0.9,0.6,1.5,0.6c0.5,0,1.1-0.2,1.5-0.5L197.2,9.7z"/>
			<path class="st11" d="M203.7,12.8h-1V9l0,0c-0.4,0.8-1.2,1.2-2.1,1.2c-0.7,0-1.4-0.3-1.8-0.8c-0.5-0.6-0.7-1.4-0.7-2.2
				c0-0.9,0.2-1.7,0.8-2.4c0.5-0.6,1.2-0.9,2-0.9c0.7,0,1.4,0.3,1.8,1l0,0V4h1L203.7,12.8z M202.7,7.3V6.4c0-0.5-0.2-0.9-0.5-1.3
				c-0.7-0.7-1.8-0.7-2.5,0c0,0-0.1,0.1-0.1,0.1c-0.4,0.5-0.5,1.2-0.5,1.8c0,0.6,0.1,1.2,0.5,1.6c0.3,0.4,0.8,0.6,1.3,0.6
				c0.5,0,1-0.2,1.4-0.6C202.5,8.4,202.7,7.8,202.7,7.3L202.7,7.3z"/>
			<path class="st11" d="M210.4,10h-1V9.1l0,0c-0.4,0.7-1.1,1.1-1.9,1.1c-1.4,0-2.1-0.9-2.1-2.6V4h0.9v3.4c0,1.3,0.5,1.9,1.5,1.9
				c0.5,0,0.9-0.2,1.2-0.5c0.3-0.4,0.5-0.9,0.4-1.3V4h1L210.4,10z"/>
			<path class="st11" d="M212.7,2.5c-0.2,0-0.3-0.1-0.4-0.2c-0.1-0.1-0.2-0.3-0.2-0.4c0-0.2,0.1-0.3,0.2-0.5
				c0.1-0.1,0.3-0.2,0.4-0.2c0.2,0,0.3,0.1,0.4,0.2c0.1,0.1,0.2,0.3,0.2,0.5c0,0.2-0.1,0.3-0.2,0.4C213.1,2.4,212.9,2.5,212.7,2.5z
				 M213.2,10h-1V4h1V10z"/>
			<path class="st11" d="M218.1,5c-0.2-0.1-0.5-0.2-0.7-0.2c-0.4,0-0.8,0.2-1,0.6c-0.3,0.5-0.4,1-0.4,1.6V10h-1V4h1v1.2l0,0
				c0.1-0.4,0.3-0.7,0.6-1c0.3-0.2,0.6-0.4,1-0.4c0.2,0,0.4,0,0.6,0.1L218.1,5z"/>
			<path class="st11" d="M224,7.2h-4.2c0,0.6,0.2,1.1,0.5,1.6c0.4,0.4,0.9,0.6,1.4,0.5c0.7,0,1.3-0.2,1.9-0.7v0.9
				c-0.6,0.4-1.4,0.6-2.1,0.6c-0.8,0-1.5-0.3-2-0.8c-0.5-0.7-0.8-1.5-0.7-2.3c0-0.8,0.2-1.6,0.8-2.3c0.5-0.6,1.2-0.9,2-0.9
				c0.7,0,1.4,0.2,1.8,0.8c0.4,0.6,0.7,1.4,0.6,2.1V7.2z M223,6.4c0-0.5-0.1-0.9-0.4-1.3c-0.3-0.3-0.7-0.5-1.1-0.5
				c-0.4,0-0.8,0.2-1.1,0.5c-0.3,0.4-0.5,0.8-0.6,1.3L223,6.4z"/>
			<path class="st11" d="M231.6,9.9c-0.3,0.1-0.6,0.2-0.9,0.2c-1.1,0-1.6-0.6-1.6-1.8V4.8h-1V4h1V2.5l1-0.3V4h1.5v0.8H230v3.4
				c0,0.3,0,0.6,0.2,0.9c0.2,0.2,0.4,0.3,0.7,0.3c0.2,0,0.4-0.1,0.6-0.2L231.6,9.9z"/>
			<path class="st11" d="M235.2,10.1c-0.8,0-1.6-0.3-2.1-0.8c-0.6-0.6-0.8-1.4-0.8-2.2c0-0.9,0.2-1.7,0.8-2.4
				c0.6-0.6,1.4-0.9,2.2-0.8c0.8,0,1.6,0.3,2.1,0.8c0.5,0.6,0.8,1.5,0.7,2.3c0,0.8-0.3,1.7-0.8,2.3C236.8,9.9,236,10.2,235.2,10.1z
				 M235.3,4.7c-0.6,0-1.1,0.2-1.5,0.6c-0.4,0.5-0.6,1.1-0.5,1.7c0,0.6,0.2,1.2,0.5,1.7c0.4,0.4,0.9,0.6,1.5,0.6
				c0.5,0,1.1-0.2,1.4-0.6c0.4-0.5,0.5-1.1,0.5-1.7c0-0.6-0.1-1.2-0.5-1.7C236.3,4.8,235.8,4.6,235.3,4.7L235.3,4.7z"/>
			<path class="st11" d="M244.7,10h-1.4l-2.6-2.9l0,0V10h-1V1.1h1v5.6l0,0l2.5-2.8h1.3l-2.8,2.9L244.7,10z"/>
			<path class="st11" d="M250.2,7.2h-4.2c0,0.6,0.2,1.1,0.5,1.6c0.4,0.4,0.9,0.6,1.4,0.5c0.7,0,1.3-0.2,1.9-0.7v0.9
				c-0.6,0.4-1.4,0.6-2.1,0.6c-0.8,0-1.5-0.3-2-0.8c-0.5-0.7-0.7-1.5-0.7-2.3c0-0.8,0.2-1.6,0.8-2.3c0.5-0.6,1.2-0.9,2-0.9
				c0.7,0,1.4,0.2,1.8,0.8c0.5,0.6,0.7,1.4,0.6,2.1L250.2,7.2z M249.2,6.4c0-0.5-0.1-0.9-0.4-1.3c-0.3-0.3-0.7-0.5-1.1-0.5
				c-0.4,0-0.8,0.2-1.1,0.5C246.2,5.5,246,6,246,6.4H249.2z"/>
			<path class="st11" d="M256.6,10h-1V6.6c0-1.3-0.5-1.9-1.4-1.9c-0.5,0-0.9,0.2-1.2,0.5c-0.3,0.4-0.5,0.9-0.5,1.4V10h-1V4h1v1l0,0
				c0.4-0.7,1.2-1.2,2-1.1c0.6,0,1.1,0.2,1.5,0.6c0.4,0.5,0.6,1.2,0.5,1.8L256.6,10z"/>
		</g>
		<g>
			<path class="st11" d="M211.4,37.7h-1.1l-0.9-2.4h-3.6l-0.8,2.4h-1.1l3.2-8.4h1L211.4,37.7z M209.1,34.5l-1.3-3.6
				c-0.1-0.2-0.1-0.4-0.1-0.6l0,0c0,0.2-0.1,0.4-0.1,0.6l-1.3,3.6H209.1z"/>
			<path class="st11" d="M216.4,37.5c-0.5,0.3-1.1,0.4-1.6,0.4c-0.8,0-1.5-0.3-2.1-0.8c-0.5-0.6-0.8-1.4-0.8-2.2
				c0-0.9,0.3-1.7,0.9-2.4c0.6-0.6,1.4-0.9,2.3-0.9c0.5,0,1,0.1,1.4,0.3v1c-0.4-0.3-0.9-0.5-1.4-0.5c-0.6,0-1.1,0.2-1.5,0.7
				c-0.4,0.5-0.6,1.1-0.6,1.7c0,0.6,0.2,1.2,0.6,1.7c0.4,0.4,0.9,0.6,1.5,0.6c0.5,0,1.1-0.2,1.5-0.5L216.4,37.5z"/>
			<path class="st11" d="M221.8,37.5c-0.5,0.3-1.1,0.4-1.6,0.4c-0.8,0-1.5-0.3-2.1-0.8c-0.5-0.6-0.8-1.4-0.8-2.2
				c0-0.9,0.3-1.7,0.9-2.4c0.6-0.6,1.4-0.9,2.3-0.9c0.5,0,1,0.1,1.4,0.3v1c-0.4-0.3-0.9-0.5-1.4-0.5c-0.6,0-1.1,0.2-1.5,0.7
				c-0.4,0.5-0.6,1.1-0.6,1.7c0,0.6,0.2,1.2,0.6,1.7c0.4,0.4,0.9,0.6,1.5,0.6c0.5,0,1.1-0.2,1.5-0.5L221.8,37.5z"/>
			<path class="st11" d="M228,35h-4.2c0,0.6,0.2,1.1,0.5,1.5c0.4,0.4,0.9,0.6,1.4,0.5c0.7,0,1.3-0.2,1.9-0.7v0.9
				c-0.6,0.4-1.3,0.6-2.1,0.6c-0.8,0-1.5-0.3-2-0.8c-0.5-0.6-0.8-1.5-0.7-2.3c0-0.8,0.3-1.6,0.8-2.3c0.5-0.6,1.2-0.9,2-0.9
				c0.7,0,1.4,0.2,1.8,0.8c0.5,0.6,0.7,1.4,0.6,2.1L228,35z M227,34.2c0-0.5-0.1-0.9-0.4-1.3c-0.3-0.3-0.7-0.5-1.1-0.5
				c-0.4,0-0.9,0.2-1.1,0.5c-0.3,0.3-0.5,0.8-0.6,1.3H227z"/>
			<path class="st11" d="M229.1,37.5v-1c0.5,0.4,1.1,0.6,1.7,0.6c0.8,0,1.3-0.3,1.3-0.8c0-0.1,0-0.3-0.1-0.4
				c-0.1-0.1-0.2-0.2-0.3-0.3c-0.1-0.1-0.3-0.2-0.4-0.2l-0.5-0.2c-0.3-0.1-0.5-0.2-0.7-0.3c-0.2-0.1-0.4-0.2-0.5-0.4
				c-0.1-0.1-0.2-0.3-0.3-0.5c-0.1-0.2-0.1-0.4-0.1-0.6c0-0.3,0.1-0.5,0.2-0.8c0.1-0.2,0.3-0.4,0.5-0.5c0.2-0.2,0.5-0.3,0.7-0.3
				c0.3-0.1,0.6-0.1,0.9-0.1c0.5,0,1,0.1,1.4,0.3v1c-0.5-0.3-1-0.4-1.5-0.4c-0.2,0-0.3,0-0.5,0.1c-0.1,0-0.3,0.1-0.4,0.2
				c-0.1,0.1-0.2,0.2-0.2,0.3c-0.1,0.1-0.1,0.2-0.1,0.3c0,0.1,0,0.3,0.1,0.4c0.1,0.1,0.1,0.2,0.3,0.3c0.1,0.1,0.3,0.2,0.4,0.2
				l0.5,0.2c0.2,0.1,0.5,0.2,0.7,0.3c0.2,0.1,0.4,0.2,0.5,0.4c0.3,0.3,0.5,0.7,0.5,1.1c0,0.3-0.1,0.5-0.2,0.8
				c-0.1,0.2-0.3,0.4-0.5,0.5c-0.2,0.2-0.5,0.3-0.8,0.3c-0.3,0.1-0.6,0.1-0.9,0.1C230.1,37.9,229.6,37.8,229.1,37.5z"/>
			<path class="st11" d="M234.2,37.5v-1c0.5,0.4,1.1,0.6,1.7,0.6c0.8,0,1.3-0.3,1.3-0.8c0-0.1,0-0.3-0.1-0.4
				c-0.1-0.1-0.2-0.2-0.3-0.3c-0.1-0.1-0.3-0.2-0.4-0.2l-0.5-0.2c-0.2-0.1-0.5-0.2-0.7-0.3c-0.2-0.1-0.4-0.2-0.5-0.4
				c-0.1-0.1-0.2-0.3-0.3-0.5c-0.1-0.2-0.1-0.4-0.1-0.6c0-0.3,0.1-0.5,0.2-0.8c0.1-0.2,0.3-0.4,0.5-0.5c0.2-0.2,0.5-0.3,0.7-0.3
				c0.3-0.1,0.6-0.1,0.9-0.1c0.5,0,1,0.1,1.4,0.3v1c-0.5-0.3-1-0.4-1.5-0.4c-0.2,0-0.3,0-0.5,0.1c-0.1,0-0.3,0.1-0.4,0.2
				c-0.2,0.1-0.3,0.4-0.3,0.6c0,0.1,0,0.3,0.1,0.4c0.1,0.1,0.1,0.2,0.3,0.3c0.1,0.1,0.3,0.2,0.4,0.2l0.5,0.2
				c0.2,0.1,0.5,0.2,0.7,0.3c0.2,0.1,0.4,0.2,0.5,0.4c0.1,0.1,0.3,0.3,0.3,0.5c0.1,0.2,0.1,0.4,0.1,0.6c0,0.3-0.1,0.5-0.2,0.8
				c-0.1,0.2-0.3,0.4-0.5,0.5c-0.2,0.2-0.5,0.3-0.8,0.3c-0.3,0.1-0.6,0.1-0.9,0.1C235.2,37.9,234.7,37.8,234.2,37.5z"/>
			<path class="st11" d="M245.7,37.7c-0.3,0.1-0.6,0.2-0.9,0.2c-1,0-1.6-0.6-1.6-1.8v-3.5h-1v-0.8h1v-1.5l1-0.3v1.8h1.5v0.8h-1.5
				v3.4c0,0.3,0,0.6,0.2,0.9c0.2,0.2,0.4,0.3,0.7,0.3c0.2,0,0.4-0.1,0.6-0.2L245.7,37.7z"/>
			<path class="st11" d="M249.4,37.9c-0.8,0-1.6-0.3-2.1-0.8c-0.5-0.6-0.8-1.4-0.8-2.2c-0.1-0.9,0.2-1.7,0.8-2.4
				c0.6-0.6,1.4-0.9,2.2-0.9c0.8,0,1.5,0.3,2.1,0.8c0.5,0.6,0.8,1.5,0.8,2.3c0,0.8-0.3,1.7-0.8,2.3C251,37.6,250.2,37.9,249.4,37.9z
				 M249.4,32.4c-0.5,0-1.1,0.2-1.4,0.6c-0.4,0.5-0.6,1.1-0.5,1.7c0,0.6,0.2,1.2,0.6,1.7c0.4,0.4,0.9,0.6,1.5,0.6
				c0.5,0,1.1-0.2,1.4-0.6c0.7-1.1,0.7-2.4,0-3.5C250.5,32.6,250,32.4,249.4,32.4L249.4,32.4z"/>
			<path class="st11" d="M258.8,37.7h-1.4l-2.6-2.9l0,0v2.9h-1v-8.9h1v5.6l0,0l2.5-2.8h1.3l-2.8,2.9L258.8,37.7z"/>
			<path class="st11" d="M264.3,35h-4.2c0,0.6,0.2,1.1,0.5,1.5c0.4,0.4,0.9,0.6,1.4,0.5c0.7,0,1.3-0.2,1.9-0.7v0.9
				c-0.6,0.4-1.3,0.6-2.1,0.6c-0.8,0-1.5-0.3-2-0.8c-1-1.4-1-3.2,0.1-4.6c0.5-0.6,1.2-0.9,2-0.9c0.7,0,1.4,0.2,1.8,0.8
				c0.5,0.6,0.7,1.4,0.6,2.1L264.3,35z M263.3,34.2c0-0.5-0.1-0.9-0.4-1.3c-0.3-0.3-0.7-0.5-1.1-0.5c-0.4,0-0.9,0.2-1.2,0.5
				c-0.3,0.4-0.5,0.8-0.6,1.3H263.3z"/>
			<path class="st11" d="M270.8,37.7h-1v-3.4c0-1.3-0.5-1.9-1.4-1.9c-0.5,0-0.9,0.2-1.2,0.5c-0.3,0.4-0.5,0.9-0.5,1.4v3.4h-1v-6h1v1
				l0,0c0.4-0.7,1.2-1.2,2-1.1c0.6,0,1.1,0.2,1.5,0.6c0.4,0.5,0.6,1.2,0.5,1.8L270.8,37.7z"/>
		</g>
		<g>
			<path class="st1" d="M406.2,33.3h-1.9v-5c0-0.5,0-1.1,0.1-1.8h0c-0.1,0.4-0.2,0.7-0.3,1.1l-2,5.7h-1.5l-2-5.6
				c-0.1-0.4-0.2-0.8-0.3-1.2l0,0c0,0.8,0.1,1.5,0.1,2.2v4.6h-1.7v-8.4h2.8l1.7,5c0.1,0.4,0.2,0.8,0.3,1.2l0,0
				c0.1-0.4,0.2-0.8,0.3-1.2l1.7-5h2.7L406.2,33.3z"/>
			<path class="st1" d="M408.8,26.3c-0.3,0-0.6-0.1-0.8-0.3c-0.2-0.2-0.3-0.4-0.3-0.7c0-0.3,0.1-0.5,0.3-0.7
				c0.2-0.2,0.5-0.3,0.8-0.3c0.3,0,0.6,0.1,0.8,0.3c0.4,0.4,0.4,1,0,1.4C409.3,26.2,409.1,26.3,408.8,26.3z M409.7,33.3h-1.9v-6h1.9
				V33.3z"/>
			<path class="st1" d="M415.8,33.1c-0.6,0.3-1.2,0.4-1.8,0.4c-0.8,0-1.6-0.3-2.2-0.8c-0.6-0.6-0.9-1.4-0.9-2.2
				c0-0.9,0.3-1.8,0.9-2.4c0.7-0.6,1.5-0.9,2.5-0.9c0.5,0,1.1,0.1,1.5,0.3V29c-0.4-0.3-0.8-0.4-1.3-0.4c-0.5,0-0.9,0.1-1.3,0.5
				c-0.3,0.3-0.5,0.8-0.5,1.3c0,0.5,0.1,0.9,0.5,1.3c0.3,0.3,0.8,0.5,1.2,0.5c0.5,0,1-0.2,1.4-0.4L415.8,33.1z"/>
			<path class="st1" d="M421,28.9c-0.2-0.1-0.5-0.2-0.8-0.2c-0.4,0-0.7,0.2-0.9,0.4c-0.2,0.4-0.4,0.8-0.3,1.2v2.9h-1.9v-6h1.9v1.1
				l0,0c0.2-0.7,0.8-1.2,1.6-1.2c0.2,0,0.3,0,0.5,0.1L421,28.9z"/>
			<path class="st1" d="M424.8,33.4c-0.9,0-1.7-0.3-2.4-0.8c-0.6-0.6-0.9-1.4-0.9-2.3c-0.1-0.9,0.3-1.7,0.9-2.3
				c0.7-0.6,1.5-0.9,2.4-0.8c0.9,0,1.7,0.3,2.3,0.8c0.6,0.6,0.9,1.4,0.9,2.2c0,0.9-0.3,1.7-0.9,2.4
				C426.6,33.2,425.7,33.5,424.8,33.4z M424.8,28.5c-0.4,0-0.8,0.2-1,0.5c-0.3,0.4-0.4,0.8-0.4,1.3c0,1.2,0.5,1.7,1.4,1.7
				s1.3-0.6,1.3-1.8S425.8,28.5,424.8,28.5L424.8,28.5z"/>
			<path class="st1" d="M428.9,33.1v-1.5c0.3,0.2,0.6,0.3,0.9,0.4c0.3,0.1,0.6,0.1,0.9,0.1c0.3,0,0.5,0,0.8-0.1
				c0.2-0.1,0.3-0.2,0.3-0.4c0-0.1,0-0.2-0.1-0.3c-0.1-0.1-0.2-0.2-0.3-0.2c-0.1-0.1-0.3-0.1-0.4-0.2l-0.5-0.2
				c-0.2-0.1-0.4-0.2-0.6-0.3c-0.2-0.1-0.3-0.2-0.5-0.4c-0.1-0.1-0.2-0.3-0.3-0.5c-0.1-0.2-0.1-0.4-0.1-0.6c0-0.3,0.1-0.6,0.2-0.9
				c0.2-0.2,0.4-0.4,0.6-0.6c0.3-0.2,0.5-0.3,0.8-0.3c0.3-0.1,0.7-0.1,1-0.1c0.3,0,0.5,0,0.8,0.1c0.3,0,0.5,0.1,0.8,0.2v1.4
				c-0.2-0.1-0.5-0.2-0.8-0.3c-0.3-0.1-0.5-0.1-0.8-0.1c-0.1,0-0.2,0-0.4,0c-0.1,0-0.2,0-0.3,0.1c-0.1,0-0.1,0.1-0.2,0.2
				c0,0.1-0.1,0.1-0.1,0.2c0,0.1,0,0.2,0.1,0.3c0.1,0.1,0.2,0.2,0.3,0.2c0.1,0.1,0.2,0.1,0.4,0.2l0.4,0.1c0.2,0.1,0.5,0.2,0.7,0.3
				c0.2,0.1,0.4,0.2,0.5,0.4c0.1,0.1,0.3,0.3,0.3,0.5c0.1,0.2,0.1,0.4,0.1,0.7c0,0.3-0.1,0.6-0.2,0.9c-0.2,0.3-0.4,0.5-0.6,0.6
				c-0.3,0.2-0.6,0.3-0.9,0.3c-0.3,0.1-0.7,0.1-1,0.1C430.2,33.4,429.5,33.3,428.9,33.1z"/>
			<path class="st1" d="M437.5,33.4c-0.9,0-1.7-0.3-2.4-0.8c-0.6-0.6-0.9-1.4-0.9-2.3c0-0.9,0.3-1.7,0.9-2.3
				c0.7-0.6,1.5-0.9,2.4-0.8c0.9-0.1,1.7,0.3,2.3,0.8c0.6,0.6,0.9,1.4,0.9,2.2c0,0.9-0.3,1.7-0.9,2.4
				C439.3,33.2,438.4,33.5,437.5,33.4z M437.5,28.5c-0.4,0-0.8,0.2-1,0.5c-0.3,0.4-0.4,0.8-0.4,1.3c0,1.2,0.5,1.7,1.4,1.7
				s1.3-0.6,1.3-1.8S438.5,28.5,437.5,28.5L437.5,28.5z"/>
			<path class="st1" d="M445.9,25.8c-0.2-0.1-0.4-0.1-0.7-0.1c-0.6,0-0.9,0.3-0.9,1v0.6h1.4v1.4h-1.4v4.6h-1.8v-4.7h-1v-1.4h1v-0.7
				c0-0.6,0.2-1.2,0.7-1.6c0.5-0.4,1.1-0.7,1.8-0.6c0.3,0,0.6,0,0.9,0.1L445.9,25.8z"/>
			<path class="st1" d="M450.4,33.2c-0.4,0.2-0.8,0.2-1.2,0.2c-1.3,0-2-0.7-2-2v-2.8h-1v-1.4h1V26l1.8-0.5v1.8h1.4v1.4h-1.4v2.4
				c0,0.6,0.3,0.9,0.8,0.9c0.2,0,0.4-0.1,0.6-0.2V33.2z"/>
			<path class="st1" d="M402.8,40.7c-0.3,0-0.6-0.1-0.8-0.3c-0.2-0.2-0.3-0.4-0.3-0.7c0-0.3,0.1-0.5,0.3-0.7
				c0.2-0.2,0.5-0.3,0.8-0.3c0.3,0,0.6,0.1,0.8,0.3c0.4,0.3,0.4,0.9,0.1,1.3c0,0,0,0-0.1,0.1C403.4,40.6,403.1,40.7,402.8,40.7z
				 M403.7,47.7h-1.9v-6h1.9V47.7z"/>
			<path class="st1" d="M411.2,47.7h-1.9v-0.8l0,0c-0.4,0.6-1.1,1-1.9,1c-0.7,0-1.4-0.3-1.8-0.8c-0.5-0.6-0.7-1.4-0.7-2.2
				c0-0.9,0.2-1.7,0.8-2.4c0.5-0.6,1.2-0.9,2-0.9c0.7-0.1,1.3,0.3,1.6,0.8l0,0v-3.6h1.9L411.2,47.7z M409.4,44.8v-0.5
				c0-0.4-0.1-0.7-0.3-1c-0.4-0.5-1.2-0.5-1.7-0.1c-0.1,0.1-0.1,0.1-0.2,0.2c-0.2,0.4-0.4,0.9-0.3,1.3c0,0.4,0.1,0.9,0.3,1.2
				c0.4,0.5,1.1,0.6,1.7,0.2c0.1-0.1,0.1-0.1,0.2-0.2C409.3,45.6,409.4,45.2,409.4,44.8L409.4,44.8z"/>
			<path class="st1" d="M418.1,45.2h-3.9c0.1,0.9,0.6,1.3,1.6,1.3c0.6,0,1.2-0.2,1.7-0.5v1.3c-0.7,0.3-1.4,0.5-2.2,0.5
				c-1.5,0.1-2.9-1-3-2.5c0-0.2,0-0.3,0-0.5c0-0.9,0.3-1.7,0.9-2.4c0.6-0.6,1.3-0.9,2.1-0.9c0.7,0,1.5,0.2,2,0.8
				c0.5,0.6,0.8,1.3,0.7,2.1L418.1,45.2z M416.4,44.1c0-0.9-0.3-1.3-1-1.3c-0.3,0-0.6,0.1-0.8,0.4c-0.2,0.3-0.4,0.6-0.4,0.9
				L416.4,44.1z"/>
			<path class="st1" d="M425.1,47.7h-1.9v-3.3c0-0.9-0.3-1.4-1-1.4c-0.3,0-0.6,0.1-0.8,0.4c-0.2,0.3-0.3,0.6-0.3,0.9v3.4h-1.8v-6
				h1.9v1l0,0c0.4-0.7,1.1-1.1,1.9-1.1c1.3,0,2,0.8,2,2.5L425.1,47.7z"/>
			<path class="st1" d="M430.1,47.6c-0.4,0.2-0.8,0.2-1.2,0.2c-1.3,0-2-0.7-2-2V43h-1v-1.3h1v-1.3l1.8-0.5v1.8h1.4V43h-1.4v2.4
				c0,0.6,0.3,0.9,0.8,0.9c0.2,0,0.4-0.1,0.6-0.2V47.6z"/>
			<path class="st1" d="M432.2,40.7c-0.3,0-0.6-0.1-0.8-0.3c-0.2-0.2-0.3-0.4-0.3-0.7c0-0.3,0.1-0.5,0.3-0.7
				c0.2-0.2,0.5-0.3,0.8-0.3c0.3,0,0.6,0.1,0.8,0.3c0.4,0.4,0.4,1,0,1.4C432.7,40.6,432.5,40.7,432.2,40.7z M433.1,47.7h-1.9v-6h1.9
				V47.7z"/>
			<path class="st1" d="M438.2,47.6c-0.4,0.2-0.8,0.2-1.2,0.2c-1.3,0-2-0.7-2-2V43h-1v-1.3h1v-1.3l1.8-0.5v1.8h1.4V43h-1.4v2.4
				c0,0.6,0.3,0.9,0.8,0.9c0.2,0,0.4-0.1,0.6-0.2V47.6z"/>
			<path class="st1" d="M445.2,41.7l-2.4,6.5c-0.6,1.6-1.5,2.3-2.6,2.3c-0.4,0-0.8,0-1.1-0.2v-1.5c0.2,0.1,0.5,0.2,0.8,0.2
				c0.4,0,0.9-0.2,1-0.7l0.3-0.8l-2.4-6h2l1.1,3.7c0.1,0.3,0.1,0.5,0.2,0.8l0,0c0-0.3,0.1-0.5,0.2-0.8l1.1-3.7L445.2,41.7z"/>
			<path class="st1" d="M400.9,61.4L400.9,61.4v3.5H399v-8.8h1.9V57l0,0c0.4-0.7,1.2-1,1.9-1c0.7,0,1.4,0.3,1.8,0.8
				c0.5,0.6,0.7,1.4,0.6,2.2c0,0.9-0.2,1.7-0.7,2.4c-0.5,0.6-1.2,0.9-2,0.9C401.8,62.3,401.2,61.9,400.9,61.4z M400.8,58.9v0.5
				c0,0.4,0.1,0.7,0.3,1c0.2,0.3,0.5,0.4,0.9,0.4c0.4,0,0.8-0.2,1-0.5c0.3-0.4,0.4-0.9,0.4-1.4c0-1.1-0.4-1.6-1.2-1.6
				c-0.4,0-0.7,0.2-0.9,0.4C401,58.1,400.8,58.5,400.8,58.9L400.8,58.9z"/>
			<path class="st1" d="M408.3,62.1h-1.9v-8.9h1.9V62.1z"/>
			<path class="st1" d="M414.9,62.1h-1.8v-0.9l0,0c-0.4,0.6-1,1-1.8,1c-0.5,0-1-0.2-1.4-0.5c-0.3-0.4-0.5-0.8-0.5-1.3
				c0-1.2,0.7-1.8,2.1-2l1.6-0.2c0-0.7-0.4-1-1.1-1c-0.7,0-1.4,0.2-2,0.6v-1.4c0.3-0.2,0.7-0.3,1.1-0.3c0.4-0.1,0.8-0.1,1.2-0.2
				c1.2-0.2,2.4,0.7,2.6,1.9c0,0.2,0,0.4,0,0.6L414.9,62.1z M413.2,59.6v-0.4l-1.1,0.1c-0.6,0.1-0.9,0.3-0.9,0.8
				c0,0.2,0.1,0.4,0.2,0.5c0.2,0.1,0.4,0.2,0.6,0.2c0.3,0,0.6-0.1,0.9-0.4C413.1,60.3,413.2,60,413.2,59.6z"/>
			<path class="st1" d="M419.9,62c-0.4,0.2-0.8,0.2-1.2,0.2c-1,0.1-1.9-0.5-2-1.5c0-0.2,0-0.3,0-0.5v-2.8h-1v-1.4h1v-1.3l1.9-0.5
				v1.8h1.3v1.4h-1.3v2.4c0,0.6,0.2,0.9,0.7,0.9c0.2,0,0.4-0.1,0.6-0.2L419.9,62z"/>
			<path class="st1" d="M425,54.6c-0.2-0.1-0.4-0.1-0.7-0.1c-0.6,0-0.9,0.3-0.9,1v0.6h1.4v1.4h-1.4v4.6h-1.9v-4.7h-1v-1.4h1v-0.7
				c0-0.6,0.2-1.2,0.7-1.7c0.5-0.4,1.2-0.7,1.8-0.6c0.3,0,0.6,0,0.9,0.1V54.6z"/>
			<path class="st1" d="M428.6,62.2c-0.9,0-1.7-0.3-2.4-0.8c-1.2-1.3-1.2-3.3,0-4.6c0.7-0.6,1.5-0.9,2.4-0.8
				c0.9-0.1,1.7,0.3,2.3,0.8c0.6,0.6,0.9,1.4,0.9,2.2c0,0.9-0.3,1.7-0.9,2.4C430.3,61.9,429.5,62.3,428.6,62.2z M428.7,57.3
				c-0.4,0-0.8,0.2-1,0.5c-0.3,0.4-0.4,0.8-0.4,1.3c0,1.2,0.5,1.7,1.4,1.7s1.3-0.6,1.3-1.8S429.6,57.3,428.7,57.3L428.7,57.3z"/>
			<path class="st1" d="M437,57.7c-0.2-0.1-0.5-0.2-0.8-0.2c-0.4,0-0.7,0.1-0.9,0.4c-0.2,0.4-0.4,0.8-0.3,1.2v2.9h-1.9v-6h1.9v1.1
				l0,0c0.2-0.7,0.9-1.2,1.6-1.2c0.2,0,0.3,0,0.5,0V57.7z"/>
			<path class="st1" d="M447.4,62.1h-1.9v-3.4c0-0.9-0.3-1.3-1-1.3c-0.3,0-0.6,0.2-0.7,0.4c-0.2,0.3-0.3,0.6-0.3,1v3.3h-1.8v-3.5
				c0-0.8-0.3-1.3-0.9-1.3c-0.3,0-0.6,0.1-0.8,0.4c-0.2,0.3-0.3,0.6-0.3,1v3.3h-1.9v-6h1.9V57l0,0c0.2-0.3,0.5-0.6,0.8-0.8
				c0.3-0.2,0.7-0.3,1.1-0.3c0.8,0,1.5,0.4,1.7,1.1c0.4-0.7,1.2-1.2,2-1.1c1.3,0,2,0.8,2,2.4L447.4,62.1z"/>
		</g>
		<g>
			<path class="st11" d="M192,135h-1v-3.8h-4.3v3.8h-1v-8.4h1v3.7h4.3v-3.7h1V135z"/>
			<path class="st11" d="M199,127.4h-2.4v7.6h-1v-7.5h-2.4v-0.9h5.8V127.4z"/>
			<path class="st11" d="M205.6,127.4h-2.4v7.6h-1v-7.5h-2.4v-0.9h5.8L205.6,127.4z"/>
			<path class="st11" d="M207.8,131.8v3.2h-1v-8.4h2.3c0.8-0.1,1.5,0.2,2.1,0.7c0.5,0.5,0.8,1.2,0.7,1.8c0,0.8-0.3,1.5-0.8,2
				c-0.6,0.5-1.4,0.8-2.2,0.8L207.8,131.8z M207.8,127.4v3.4h1c0.6,0,1.1-0.1,1.6-0.5c0.4-0.3,0.6-0.8,0.5-1.3c0-1.1-0.7-1.7-2-1.7
				H207.8z"/>
			<path class="st11" d="M219.8,129.9c-0.2-0.1-0.5-0.2-0.7-0.2c-0.4,0-0.8,0.2-1,0.6c-0.3,0.5-0.4,1-0.4,1.6v3h-1v-6h1v1.2l0,0
				c0.1-0.4,0.3-0.7,0.6-1c0.3-0.2,0.6-0.3,0.9-0.4c0.2,0,0.4,0,0.6,0.1L219.8,129.9z"/>
			<path class="st11" d="M225.7,132.2h-4.2c0,0.6,0.2,1.1,0.5,1.6c0.4,0.4,0.9,0.6,1.4,0.6c0.7,0,1.3-0.2,1.9-0.7v0.9
				c-0.6,0.4-1.3,0.6-2.1,0.6c-0.8,0-1.5-0.3-2-0.8c-0.5-0.6-0.8-1.5-0.7-2.3c0-0.8,0.3-1.7,0.8-2.3c0.5-0.6,1.2-0.9,2-0.9
				c0.7,0,1.4,0.2,1.8,0.8c0.5,0.6,0.7,1.4,0.6,2.1L225.7,132.2z M224.7,131.4c0-0.5-0.1-0.9-0.4-1.3c-0.3-0.3-0.7-0.5-1.1-0.5
				c-0.4,0-0.9,0.2-1.1,0.5c-0.3,0.3-0.5,0.8-0.6,1.3L224.7,131.4z"/>
			<path class="st11" d="M226.8,134.7v-1c0.5,0.4,1.1,0.6,1.7,0.6c0.8,0,1.3-0.3,1.3-0.9c0-0.1,0-0.3-0.1-0.4
				c-0.1-0.1-0.2-0.2-0.3-0.3c-0.1-0.1-0.3-0.2-0.4-0.2l-0.5-0.2c-0.3-0.1-0.5-0.2-0.7-0.3c-0.2-0.1-0.4-0.2-0.5-0.4
				c-0.1-0.1-0.2-0.3-0.3-0.5c-0.1-0.2-0.1-0.4-0.1-0.6c0-0.3,0.1-0.5,0.2-0.8c0.1-0.2,0.3-0.4,0.5-0.5c0.2-0.2,0.5-0.3,0.7-0.3
				c0.3-0.1,0.6-0.1,0.9-0.1c0.5,0,1,0.1,1.4,0.3v1c-0.5-0.3-1-0.4-1.5-0.4c-0.2,0-0.3,0-0.5,0.1c-0.1,0-0.3,0.1-0.4,0.2
				c-0.1,0.1-0.2,0.2-0.2,0.3c-0.1,0.1-0.1,0.2-0.1,0.4c0,0.1,0,0.3,0.1,0.4c0.1,0.1,0.1,0.2,0.3,0.3c0.1,0.1,0.3,0.2,0.4,0.2
				l0.5,0.2c0.3,0.1,0.5,0.2,0.7,0.3c0.2,0.1,0.4,0.2,0.5,0.4c0.3,0.3,0.5,0.7,0.5,1.1c0,0.3-0.1,0.5-0.2,0.8
				c-0.1,0.2-0.3,0.4-0.5,0.6c-0.2,0.1-0.5,0.3-0.8,0.3c-0.3,0.1-0.6,0.1-0.9,0.1C227.8,135.1,227.3,135,226.8,134.7z"/>
			<path class="st11" d="M233.1,134.1L233.1,134.1v3.6h-1V129h1v1l0,0c0.4-0.8,1.2-1.2,2.1-1.2c0.7,0,1.4,0.3,1.8,0.8
				c0.5,0.6,0.7,1.4,0.6,2.2c0,0.9-0.2,1.7-0.7,2.4c-0.5,0.6-1.2,0.9-2,0.9C234.2,135.1,233.5,134.7,233.1,134.1z M233.1,131.7v0.8
				c0,0.5,0.2,0.9,0.5,1.3c0.7,0.7,1.8,0.7,2.4,0c0.1-0.1,0.1-0.1,0.2-0.2c0.4-0.6,0.5-1.2,0.5-1.9c0-0.6-0.1-1.1-0.5-1.6
				c-0.3-0.4-0.8-0.6-1.3-0.6c-0.5,0-1,0.2-1.3,0.6C233.3,130.6,233.1,131.1,233.1,131.7L233.1,131.7z"/>
			<path class="st11" d="M241.7,135.1c-0.8,0-1.6-0.3-2.1-0.9c-0.5-0.6-0.8-1.4-0.8-2.2c0-0.9,0.3-1.7,0.8-2.4
				c0.6-0.6,1.4-0.9,2.2-0.9c0.8,0,1.5,0.3,2.1,0.8c1,1.4,1,3.2,0,4.6C243.3,134.8,242.5,135.2,241.7,135.1z M241.8,129.6
				c-0.6,0-1.1,0.2-1.5,0.6c-0.4,0.5-0.6,1.1-0.5,1.7c0,0.6,0.2,1.2,0.5,1.7c0.4,0.4,0.9,0.6,1.5,0.6c0.5,0,1.1-0.2,1.4-0.6
				c0.4-0.5,0.5-1.1,0.5-1.7c0-0.6-0.1-1.2-0.5-1.7C242.8,129.8,242.3,129.6,241.8,129.6L241.8,129.6z"/>
			<path class="st11" d="M251.1,135h-1v-3.4c0-1.3-0.5-1.9-1.4-1.9c-0.5,0-0.9,0.2-1.2,0.5c-0.3,0.4-0.5,0.9-0.5,1.4v3.4h-1v-6h1v1
				l0,0c0.4-0.7,1.2-1.2,2-1.1c0.6,0,1.1,0.2,1.5,0.6c0.4,0.5,0.6,1.2,0.5,1.8L251.1,135z"/>
			<path class="st11" d="M252.6,134.7v-1c0.5,0.4,1.1,0.6,1.7,0.6c0.8,0,1.3-0.3,1.3-0.9c0-0.1,0-0.3-0.1-0.4
				c-0.1-0.1-0.2-0.2-0.3-0.3c-0.1-0.1-0.3-0.2-0.4-0.2l-0.5-0.2c-0.3-0.1-0.5-0.2-0.7-0.3c-0.2-0.1-0.4-0.2-0.5-0.4
				c-0.1-0.1-0.2-0.3-0.3-0.5c-0.1-0.2-0.1-0.4-0.1-0.6c0-0.3,0.1-0.5,0.2-0.8c0.1-0.2,0.3-0.4,0.5-0.5c0.2-0.2,0.5-0.3,0.7-0.3
				c0.3-0.1,0.6-0.1,0.9-0.1c0.5,0,1,0.1,1.4,0.3v1c-0.5-0.3-1-0.4-1.5-0.4c-0.2,0-0.3,0-0.5,0.1c-0.1,0-0.3,0.1-0.4,0.2
				c-0.1,0.1-0.2,0.2-0.2,0.3c-0.1,0.1-0.1,0.2-0.1,0.4c0,0.3,0.1,0.5,0.3,0.7c0.1,0.1,0.3,0.2,0.4,0.2l0.5,0.2
				c0.3,0.1,0.5,0.2,0.7,0.3c0.2,0.1,0.4,0.2,0.5,0.4c0.3,0.3,0.5,0.7,0.5,1.1c0,0.3-0.1,0.5-0.2,0.8c-0.1,0.2-0.3,0.4-0.5,0.6
				c-0.2,0.1-0.5,0.3-0.8,0.3c-0.3,0.1-0.6,0.1-0.9,0.1C253.6,135.1,253.1,135,252.6,134.7z"/>
			<path class="st11" d="M262.8,132.2h-4.2c0,0.6,0.2,1.1,0.5,1.6c0.4,0.4,0.9,0.6,1.4,0.6c0.7,0,1.3-0.2,1.9-0.7v0.9
				c-0.6,0.4-1.4,0.6-2.1,0.6c-0.8,0-1.5-0.3-2-0.8c-0.5-0.6-0.8-1.5-0.7-2.3c0-0.8,0.2-1.6,0.8-2.3c0.5-0.6,1.2-0.9,2-0.9
				c0.7,0,1.4,0.2,1.8,0.8c0.5,0.6,0.7,1.4,0.6,2.1L262.8,132.2z M261.8,131.4c0-0.5-0.1-0.9-0.4-1.3c-0.3-0.3-0.7-0.5-1.1-0.5
				c-0.4,0-0.9,0.2-1.2,0.5c-0.3,0.3-0.5,0.8-0.6,1.3L261.8,131.4z"/>
		</g>
		<g>
			<path class="st5" d="M406.1,118.8h-1.9v-5c0-0.5,0-1.1,0.1-1.8h0c-0.1,0.4-0.2,0.7-0.3,1.1l-2,5.7h-1.5l-2-5.7
				c-0.1-0.4-0.2-0.8-0.3-1.2h0c0,0.8,0.1,1.6,0.1,2.2v4.7h-1.7v-8.4h2.8l1.7,5c0.1,0.4,0.2,0.8,0.3,1.2l0,0
				c0.1-0.5,0.2-0.9,0.3-1.2l1.7-5h2.7L406.1,118.8z"/>
			<path class="st5" d="M408.8,111.8c-0.3,0-0.6-0.1-0.8-0.3c-0.2-0.2-0.3-0.4-0.3-0.7c0-0.3,0.1-0.5,0.3-0.7c0.4-0.4,1.1-0.4,1.5,0
				c0.2,0.2,0.3,0.4,0.3,0.7c0,0.3-0.1,0.5-0.3,0.7C409.3,111.7,409,111.8,408.8,111.8z M409.7,118.8h-1.9v-6h1.9V118.8z"/>
			<path class="st5" d="M415.8,118.6c-0.6,0.3-1.2,0.4-1.8,0.4c-0.8,0-1.6-0.3-2.2-0.8c-0.6-0.6-0.9-1.4-0.9-2.2
				c0-0.9,0.3-1.8,0.9-2.4c0.7-0.6,1.5-0.9,2.5-0.9c0.5,0,1.1,0.1,1.5,0.3v1.6c-0.4-0.3-0.8-0.4-1.3-0.4c-0.5,0-0.9,0.1-1.3,0.5
				c-0.3,0.3-0.5,0.8-0.5,1.3c0,0.5,0.1,0.9,0.5,1.3c0.3,0.3,0.8,0.5,1.2,0.5c0.5,0,1-0.2,1.4-0.4L415.8,118.6z"/>
			<path class="st5" d="M421,114.4c-0.2-0.1-0.5-0.2-0.8-0.2c-0.4,0-0.7,0.2-0.9,0.4c-0.2,0.3-0.4,0.8-0.3,1.2v2.9h-1.9v-6h1.9v1.1
				l0,0c0.2-0.7,0.8-1.2,1.6-1.2c0.2,0,0.3,0,0.5,0.1L421,114.4z"/>
			<path class="st5" d="M424.8,118.9c-0.9,0-1.7-0.3-2.4-0.8c-1.2-1.3-1.2-3.3,0-4.6c0.7-0.6,1.5-0.9,2.4-0.8c0.9,0,1.7,0.3,2.4,0.8
				c0.6,0.6,0.9,1.4,0.9,2.2c0,0.9-0.3,1.7-0.9,2.4C426.5,118.6,425.6,118.9,424.8,118.9z M424.8,114c-0.4,0-0.8,0.2-1,0.4
				c-0.3,0.4-0.4,0.8-0.4,1.3c0,1.2,0.5,1.7,1.4,1.7s1.3-0.6,1.3-1.8S425.7,114,424.8,114L424.8,114z"/>
			<path class="st5" d="M428.9,118.6v-1.5c0.3,0.2,0.6,0.3,0.9,0.4c0.3,0.1,0.6,0.1,0.9,0.1c0.3,0,0.5,0,0.8-0.1
				c0.2-0.1,0.3-0.2,0.3-0.4c0-0.1,0-0.2-0.1-0.3c-0.1-0.1-0.2-0.2-0.3-0.2c-0.1-0.1-0.3-0.1-0.4-0.2c-0.2,0-0.3-0.1-0.5-0.2
				c-0.2-0.1-0.4-0.2-0.6-0.3c-0.2-0.1-0.3-0.2-0.5-0.4c-0.1-0.1-0.2-0.3-0.3-0.5c-0.1-0.2-0.1-0.4-0.1-0.6c0-0.3,0.1-0.6,0.2-0.9
				c0.1-0.2,0.3-0.4,0.6-0.6c0.3-0.2,0.5-0.3,0.8-0.3c0.3-0.1,0.7-0.1,1-0.1c0.3,0,0.5,0,0.8,0.1c0.3,0,0.5,0.1,0.8,0.2v1.4
				c-0.2-0.1-0.5-0.2-0.8-0.3c-0.3-0.1-0.5-0.1-0.8-0.1c-0.1,0-0.2,0-0.3,0c-0.1,0-0.2,0-0.3,0.1c-0.1,0-0.1,0.1-0.2,0.2
				c-0.1,0.1-0.1,0.4,0,0.5c0.1,0.1,0.2,0.1,0.3,0.2l0.4,0.2l0.4,0.1c0.2,0.1,0.5,0.2,0.7,0.3c0.2,0.1,0.4,0.2,0.5,0.4
				c0.1,0.1,0.3,0.3,0.3,0.5c0.1,0.2,0.1,0.4,0.1,0.7c0,0.3-0.1,0.6-0.2,0.9c-0.2,0.3-0.4,0.5-0.6,0.6c-0.3,0.2-0.6,0.3-0.9,0.3
				c-0.3,0.1-0.7,0.1-1,0.1C430.1,118.9,429.5,118.8,428.9,118.6z"/>
			<path class="st5" d="M437.5,118.9c-0.9,0-1.7-0.3-2.4-0.8c-1.2-1.3-1.2-3.3,0-4.6c0.7-0.6,1.5-0.9,2.4-0.8c0.9,0,1.7,0.3,2.3,0.8
				c0.6,0.6,0.9,1.4,0.9,2.2c0,0.9-0.3,1.7-0.9,2.4C439.2,118.6,438.4,119,437.5,118.9z M437.5,114c-0.4,0-0.8,0.2-1,0.4
				c-0.3,0.4-0.4,0.8-0.4,1.3c0,1.2,0.5,1.7,1.4,1.7s1.3-0.6,1.3-1.8S438.4,114,437.5,114L437.5,114z"/>
			<path class="st5" d="M445.8,111.3c-0.2-0.1-0.5-0.1-0.7-0.1c-0.6,0-0.9,0.3-0.9,1v0.6h1.4v1.4h-1.4v4.6h-1.8v-4.6h-1v-1.4h1V112
				c0-0.6,0.2-1.2,0.7-1.7c0.5-0.4,1.2-0.7,1.8-0.6c0.3,0,0.6,0,0.9,0.1V111.3z"/>
			<path class="st5" d="M450.4,118.7c-0.4,0.2-0.8,0.2-1.2,0.2c-1,0.1-1.9-0.5-2-1.5c0-0.2,0-0.3,0-0.5v-2.8h-1v-1.4h1v-1.3l1.9-0.5
				v1.8h1.4v1.4H449v2.4c0,0.6,0.3,0.9,0.7,0.9c0.2,0,0.4-0.1,0.6-0.2L450.4,118.7z"/>
			<path class="st5" d="M402.4,132.6c-0.9,0.5-2,0.7-3.1,0.7c-1.2,0.1-2.3-0.3-3.2-1.1c-0.8-0.8-1.2-1.9-1.2-3.1
				c0-1.2,0.4-2.4,1.3-3.2c0.9-0.9,2.1-1.3,3.4-1.3c0.8,0,1.6,0.1,2.4,0.4v1.8c-0.7-0.4-1.6-0.6-2.4-0.6c-0.7,0-1.4,0.2-1.9,0.8
				c-0.5,0.5-0.8,1.3-0.7,2c0,0.7,0.2,1.4,0.7,2c0.5,0.5,1.1,0.7,1.8,0.7c0.4,0,0.7-0.1,1.1-0.2v-1.6h-1.7v-1.5h3.6L402.4,132.6z"/>
			<path class="st5" d="M407.9,128.8c-0.2-0.1-0.5-0.2-0.8-0.2c-0.4,0-0.7,0.2-0.9,0.4c-0.2,0.3-0.4,0.8-0.3,1.2v2.9H404v-6h1.9v1.1
				l0,0c0.2-0.7,0.8-1.2,1.6-1.2c0.2,0,0.3,0,0.5,0.1L407.9,128.8z"/>
			<path class="st5" d="M413.6,133.2h-1.8v-0.9l0,0c-0.4,0.6-1.1,1-1.8,1c-0.5,0-1-0.1-1.4-0.5c-0.3-0.4-0.5-0.8-0.5-1.3
				c0-1.2,0.7-1.8,2.1-2l1.6-0.2c0-0.6-0.4-1-1.1-1c-0.7,0-1.4,0.2-2,0.6v-1.4c0.3-0.2,0.7-0.3,1.1-0.3c0.4-0.1,0.8-0.1,1.2-0.2
				c1.2-0.2,2.4,0.7,2.6,1.9c0,0.2,0,0.4,0,0.6L413.6,133.2z M411.9,130.7v-0.4l-1.1,0.1c-0.6,0.1-0.9,0.3-0.9,0.8
				c0,0.2,0.1,0.4,0.2,0.5c0.2,0.1,0.4,0.2,0.6,0.2c0.3,0,0.6-0.1,0.9-0.4C411.8,131.4,411.9,131.1,411.9,130.7L411.9,130.7z"/>
			<path class="st5" d="M417,132.5L417,132.5v3.5h-1.9v-8.8h1.9v0.9l0,0c0.7-1.1,2.2-1.4,3.3-0.6c0.2,0.1,0.3,0.2,0.5,0.4
				c0.5,0.6,0.7,1.4,0.6,2.2c0,0.9-0.2,1.7-0.7,2.4c-0.5,0.6-1.2,0.9-2,0.9C418,133.3,417.4,133,417,132.5z M417,130v0.5
				c0,0.4,0.1,0.7,0.3,1c0.2,0.3,0.5,0.4,0.9,0.4c0.4,0,0.8-0.2,1-0.5c0.3-0.4,0.4-0.9,0.4-1.4c0-1.1-0.4-1.6-1.2-1.6
				c-0.4,0-0.7,0.1-0.9,0.4C417.1,129.2,416.9,129.6,417,130L417,130z"/>
			<path class="st5" d="M428.3,133.2h-1.8v-3.4c0-0.9-0.3-1.3-1-1.3c-0.3,0-0.6,0.1-0.8,0.4c-0.2,0.3-0.3,0.6-0.3,0.9v3.4h-1.9v-8.9
				h1.9v3.8l0,0c0.4-0.6,1.1-1,1.9-1c1.4,0,2,0.8,2,2.5L428.3,133.2z"/>
			<path class="st5" d="M440.7,133.2h-2.1l-0.6-1.9h-3l-0.6,1.9h-2l3.1-8.4h2.2L440.7,133.2z M437.6,129.8l-0.9-2.8
				c-0.1-0.2-0.1-0.5-0.1-0.8l0,0c0,0.3-0.1,0.5-0.1,0.7l-0.9,2.8H437.6z"/>
			<path class="st5" d="M443.5,130.3v2.9h-1.9v-8.4h3c2.1,0,3.2,0.9,3.2,2.7c0,0.8-0.3,1.5-0.9,2c-0.7,0.5-1.6,0.8-2.4,0.8
				L443.5,130.3z M443.5,126.2v2.6h0.7c1,0,1.5-0.4,1.5-1.3s-0.5-1.3-1.5-1.3L443.5,126.2z"/>
			<path class="st5" d="M450.7,133.2h-1.9v-8.4h1.9V133.2z"/>
		</g>
		<g>
			<polygon class="st10" points="192.5,84.9 185,90.3 187.9,99.1 197.2,99.1 200.1,90.3 			"/>
			<g>
				<g>
					<path class="st11" d="M212.9,98.3h-1.1l-0.9-2.3h-3.6l-0.8,2.3h-1.1l3.2-8.4h1L212.9,98.3z M210.6,95.1l-1.3-3.6
						c-0.1-0.2-0.1-0.4-0.1-0.6l0,0c0,0.2-0.1,0.4-0.1,0.6l-1.3,3.6H210.6z"/>
					<path class="st11" d="M218,98c-0.5,0.3-1.1,0.4-1.6,0.4c-0.8,0-1.5-0.3-2.1-0.8c-0.5-0.6-0.8-1.4-0.8-2.2
						c0-0.9,0.3-1.7,0.9-2.4c0.6-0.6,1.4-0.9,2.3-0.9c0.5,0,1,0.1,1.4,0.3v1c-0.4-0.3-0.9-0.5-1.4-0.5c-0.6,0-1.1,0.2-1.5,0.7
						c-0.4,0.5-0.6,1.1-0.6,1.7c0,0.6,0.1,1.2,0.5,1.7c0.4,0.4,0.9,0.6,1.5,0.6c0.5,0,1.1-0.2,1.5-0.5L218,98z"/>
					<path class="st11" d="M223.4,98c-0.5,0.3-1.1,0.4-1.6,0.4c-0.8,0-1.5-0.3-2.1-0.8c-0.5-0.6-0.8-1.4-0.8-2.2
						c0-0.9,0.3-1.7,0.9-2.4c0.6-0.6,1.4-0.9,2.3-0.9c0.5,0,1,0.1,1.4,0.3v1c-0.4-0.3-0.9-0.4-1.4-0.4c-0.6,0-1.1,0.2-1.5,0.7
						c-0.4,0.5-0.6,1.1-0.6,1.7c0,0.6,0.2,1.2,0.6,1.7c0.4,0.4,0.9,0.6,1.5,0.6c0.5,0,1.1-0.2,1.5-0.5L223.4,98z"/>
					<path class="st11" d="M229.6,95.5h-4.2c0,0.6,0.2,1.1,0.5,1.6c0.4,0.4,0.9,0.6,1.4,0.5c0.7,0,1.3-0.2,1.9-0.7v0.9
						c-0.6,0.4-1.4,0.6-2.1,0.6c-0.8,0-1.5-0.3-2-0.8c-1-1.4-1-3.2,0.1-4.6c0.5-0.6,1.2-0.9,2-0.9c0.7,0,1.4,0.2,1.8,0.8
						c0.5,0.6,0.7,1.4,0.6,2.1L229.6,95.5z M228.6,94.7c0-0.5-0.1-0.9-0.4-1.3c-0.3-0.3-0.7-0.5-1.1-0.5c-0.4,0-0.9,0.2-1.1,0.5
						c-0.3,0.3-0.5,0.8-0.6,1.3L228.6,94.7z"/>
					<path class="st11" d="M230.6,98.1v-1c0.5,0.4,1.1,0.6,1.7,0.6c0.8,0,1.3-0.3,1.3-0.8c0-0.1,0-0.3-0.1-0.4
						c-0.1-0.1-0.2-0.2-0.3-0.3c-0.1-0.1-0.3-0.2-0.4-0.2l-0.5-0.2c-0.2-0.1-0.5-0.2-0.7-0.3c-0.2-0.1-0.4-0.2-0.5-0.4
						c-0.1-0.1-0.2-0.3-0.3-0.5c-0.1-0.2-0.1-0.4-0.1-0.6c0-0.3,0.1-0.5,0.2-0.7c0.1-0.2,0.3-0.4,0.5-0.6c0.2-0.1,0.5-0.3,0.7-0.3
						c0.3-0.1,0.6-0.1,0.9-0.1c0.5,0,1,0.1,1.4,0.3v1c-0.5-0.3-1-0.4-1.5-0.4c-0.2,0-0.3,0-0.5,0.1c-0.1,0-0.3,0.1-0.4,0.2
						c-0.1,0.1-0.2,0.2-0.2,0.3c-0.1,0.1-0.1,0.2-0.1,0.3c0,0.1,0,0.3,0.1,0.4c0.1,0.1,0.2,0.2,0.3,0.3c0.1,0.1,0.3,0.2,0.4,0.2
						l0.5,0.2c0.2,0.1,0.5,0.2,0.7,0.3c0.2,0.1,0.4,0.2,0.5,0.4c0.1,0.1,0.3,0.3,0.4,0.5c0.1,0.2,0.1,0.4,0.1,0.6
						c0,0.3-0.1,0.5-0.2,0.8c-0.1,0.2-0.3,0.4-0.5,0.5c-0.2,0.2-0.5,0.3-0.8,0.3c-0.3,0.1-0.6,0.1-0.9,0.1
						C231.7,98.5,231.1,98.4,230.6,98.1z"/>
					<path class="st11" d="M235.7,98.1v-1c0.5,0.4,1.1,0.6,1.7,0.6c0.8,0,1.3-0.3,1.3-0.8c0-0.1,0-0.3-0.1-0.4
						c-0.1-0.1-0.2-0.2-0.3-0.3c-0.1-0.1-0.3-0.2-0.4-0.2l-0.5-0.2c-0.2-0.1-0.5-0.2-0.7-0.3c-0.2-0.1-0.4-0.2-0.5-0.4
						c-0.1-0.1-0.2-0.3-0.3-0.5c-0.1-0.2-0.1-0.4-0.1-0.6c0-0.3,0.1-0.5,0.2-0.7c0.1-0.2,0.3-0.4,0.5-0.6c0.2-0.1,0.5-0.3,0.7-0.3
						c0.7-0.2,1.5-0.1,2.2,0.2v1c-0.4-0.3-1-0.5-1.5-0.5c-0.2,0-0.3,0-0.5,0.1c-0.1,0-0.3,0.1-0.4,0.2c-0.1,0.1-0.2,0.2-0.2,0.3
						c-0.1,0.1-0.1,0.2-0.1,0.3c0,0.1,0,0.3,0.1,0.4c0.1,0.1,0.2,0.2,0.3,0.3c0.1,0.1,0.3,0.2,0.4,0.2L238,95
						c0.2,0.1,0.5,0.2,0.7,0.3c0.2,0.1,0.4,0.2,0.5,0.4c0.1,0.1,0.3,0.3,0.3,0.5c0.1,0.2,0.1,0.4,0.1,0.6c0,0.3-0.1,0.5-0.2,0.8
						c-0.1,0.2-0.3,0.4-0.5,0.5c-0.2,0.2-0.5,0.3-0.8,0.3c-0.3,0.1-0.6,0.1-0.9,0.1C236.8,98.5,236.2,98.3,235.7,98.1z"/>
					<path class="st11" d="M247.3,98.2c-0.3,0.1-0.6,0.2-0.9,0.2c-1,0-1.6-0.6-1.6-1.8v-3.5h-1v-0.8h1v-1.5l1-0.3v1.8h1.5v0.8h-1.5
						v3.4c0,0.3,0,0.6,0.2,0.9c0.2,0.2,0.4,0.3,0.7,0.3c0.2,0,0.4-0.1,0.6-0.2L247.3,98.2z"/>
					<path class="st11" d="M250.9,98.4c-0.8,0-1.6-0.3-2.1-0.8c-0.5-0.6-0.8-1.4-0.8-2.2c-0.1-0.9,0.2-1.7,0.8-2.4
						c0.6-0.6,1.4-0.9,2.2-0.8c0.8,0,1.5,0.3,2.1,0.8c1,1.4,1,3.2-0.1,4.6C252.5,98.2,251.7,98.5,250.9,98.4z M251,93
						c-0.6,0-1.1,0.2-1.5,0.6c-0.4,0.5-0.6,1.1-0.5,1.7c0,0.6,0.2,1.2,0.6,1.7c0.4,0.4,0.9,0.6,1.5,0.6c0.5,0,1.1-0.2,1.4-0.6
						c0.7-1.1,0.7-2.4,0-3.4C252.1,93.2,251.5,93,251,93z"/>
					<path class="st11" d="M260.4,98.3H259l-2.6-2.9l0,0v2.9h-1v-8.9h1V95l0,0l2.5-2.8h1.3l-2.8,2.9L260.4,98.3z"/>
					<path class="st11" d="M265.9,95.5h-4.2c0,0.6,0.2,1.1,0.5,1.6c0.4,0.4,0.9,0.6,1.4,0.5c0.7,0,1.3-0.2,1.9-0.7v0.9
						c-0.6,0.4-1.4,0.6-2.1,0.6c-0.8,0-1.5-0.3-2-0.8c-1-1.4-1-3.2,0.1-4.6c0.5-0.6,1.2-0.9,2-0.9c0.7,0,1.4,0.2,1.8,0.8
						c0.5,0.6,0.7,1.4,0.6,2.1L265.9,95.5z M264.9,94.7c0-0.5-0.1-0.9-0.4-1.3c-0.3-0.3-0.7-0.5-1.1-0.5c-0.4,0-0.9,0.2-1.2,0.5
						c-0.3,0.3-0.5,0.8-0.6,1.3L264.9,94.7z"/>
					<path class="st11" d="M272.3,98.3h-1v-3.4c0-1.3-0.5-1.9-1.4-1.9c-0.5,0-0.9,0.2-1.2,0.5c-0.3,0.4-0.5,0.9-0.5,1.4v3.4h-1v-6h1
						v1l0,0c0.4-0.7,1.2-1.2,2-1.1c0.6,0,1.1,0.2,1.5,0.6c0.4,0.5,0.6,1.2,0.5,1.8L272.3,98.3z"/>
				</g>
				<g>
					<path class="st11" d="M212.7,84.1h-1v-3.8h-4.3v3.8h-1v-8.4h1v3.7h4.3v-3.7h1V84.1z"/>
					<path class="st11" d="M219.8,76.6h-2.4v7.5h-1v-7.5H214v-0.9h5.8L219.8,76.6z"/>
					<path class="st11" d="M226.4,76.6H224v7.5h-1v-7.5h-2.4v-0.9h5.8L226.4,76.6z"/>
					<path class="st11" d="M228.6,80.9v3.2h-1v-8.4h2.3c0.8,0,1.5,0.2,2.1,0.7c0.5,0.5,0.8,1.2,0.8,1.8c0,0.8-0.3,1.5-0.8,2
						c-0.6,0.5-1.4,0.8-2.2,0.8L228.6,80.9z M228.6,76.6V80h1c0.6,0,1.1-0.1,1.6-0.5c0.4-0.3,0.6-0.8,0.5-1.3c0-1.1-0.6-1.7-2-1.7
						L228.6,76.6z"/>
					<path class="st11" d="M243.9,83.5c-0.9,0.5-1.8,0.7-2.8,0.7c-1.1,0-2.1-0.4-2.9-1.2c-0.8-0.8-1.2-1.9-1.1-3.1
						c0-1.2,0.4-2.4,1.2-3.2c0.8-0.8,2-1.3,3.1-1.3c0.8,0,1.6,0.1,2.3,0.4v1.1c-0.7-0.4-1.6-0.7-2.4-0.7c-0.9,0-1.7,0.3-2.3,1
						c-1.2,1.5-1.2,3.5-0.1,5c0.6,0.6,1.4,1,2.3,0.9c0.6,0,1.2-0.1,1.7-0.4v-2.3H241v-0.9h2.8L243.9,83.5z"/>
					<path class="st11" d="M250.2,84.1h-4.5v-8.4h4.2v0.9h-3.3v2.8h3v0.9h-3v2.9h3.5L250.2,84.1z"/>
					<path class="st11" d="M256.9,76.6h-2.4v7.5h-1v-7.5H251v-0.9h5.8L256.9,76.6z"/>
					<path class="st11" d="M267.3,81h-2.4v2.4h-0.8V81h-2.4v-0.8h2.4v-2.4h0.8v2.4h2.4V81z"/>
				</g>
			</g>
		</g>
	</g>
</g>
<g id="bg">
	<g id="Shapes_1_">
		<rect y="0.2" class="st1" width="475.7" height="150"/>
		<rect class="st4" width="105" height="150"/>
		<rect x="371" class="st5" width="104.7" height="90"/>
		<rect x="371" y="95" class="st6" width="104.7" height="55"/>
		<g>
			<line class="st7" x1="105" y1="15" x2="365.6" y2="15"/>
			<polygon points="364.5,18.7 371,15 364.5,11.3 			"/>
		</g>
		<g>
			<line class="st7" x1="110.4" y1="44.9" x2="371" y2="44.9"/>
			<polygon points="111.5,48.6 105,44.9 111.5,41.1 			"/>
		</g>
		<g>
			<line class="st7" x1="105" y1="105.2" x2="365.6" y2="105.2"/>
			<polygon points="364.5,108.9 371,105.2 364.5,101.4 			"/>
		</g>
		<g>
			<line class="st7" x1="110.4" y1="140.5" x2="371" y2="140.5"/>
			<polygon points="111.5,144.2 105.1,140.5 111.5,136.7 			"/>
		</g>
		
			<use xlink:href="#New_Symbol_44"  width="20" height="20" x="-10" y="-10" transform="matrix(1 0 0 1 168.88 140)" style="overflow:visible;"/>
		
			<use xlink:href="#New_Symbol_43"  width="20" height="20" x="-10" y="-10" transform="matrix(1 0 0 1 168.88 105.16)" style="overflow:visible;"/>
		
			<use xlink:href="#New_Symbol_42"  width="20" height="20" x="-10" y="-10" transform="matrix(1 0 0 1 168.88 44.88)" style="overflow:visible;"/>
		
			<use xlink:href="#New_Symbol_41"  width="20" height="20" x="-10" y="-10" transform="matrix(1 0 0 1 168.88 15)" style="overflow:visible;"/>
		<g>
			<g>
				<path class="st8" d="M19.5,28.5c0-0.8,0.7-1.5,1.5-1.5c0,0,0,0,0,0h62.9c0.8,0,1.5,0.7,1.5,1.5c0,0,0,0,0,0v37.2
					c0,0.8-0.7,1.5-1.5,1.5c0,0,0,0,0,0H21.1c-0.8,0-1.5-0.7-1.5-1.5c0,0,0,0,0,0L19.5,28.5z M16.1,26.7v40.7c0,1.8,1.5,3.3,3.3,3.3
					c0,0,0,0,0,0h66.3c1.8,0,3.3-1.4,3.3-3.2c0,0,0,0,0-0.1V26.7c0-1.8-1.5-3.3-3.3-3.3c0,0,0,0,0,0H19.3
					C17.5,23.4,16,24.9,16.1,26.7C16,26.7,16,26.7,16.1,26.7z"/>
				<path class="st8" d="M13.4,74.2h78.3c0.5,0,0.9,0.4,0.9,0.9c0,0,0,0,0,0v2.6c0,0.5-0.4,0.9-0.9,0.9h0H13.4
					c-0.5,0-0.9-0.4-0.9-0.9l0,0v-2.6C12.5,74.6,12.9,74.2,13.4,74.2C13.4,74.2,13.4,74.2,13.4,74.2z"/>
				<path class="st1" d="M43.6,75.7h17.9c0.1,0,0.3,0.1,0.3,0.3v0.7c0,0.1-0.1,0.3-0.3,0.3H43.6c-0.1,0-0.3-0.1-0.3-0.3V76
					C43.3,75.9,43.4,75.7,43.6,75.7C43.5,75.7,43.6,75.7,43.6,75.7z"/>
			</g>
			<path class="st9" d="M37,36.1l12.7-1.7v12.2L37,46.6V36.1z M49.7,48v12.2L37,58.4V47.9L49.7,48z M51.2,34.2L68,31.7v14.7
				l-16.8,0.1V34.2z M68,48.1v14.6l-16.8-2.4V48L68,48.1z"/>
		</g>
		<polygon class="st10" points="192.6,26 185,31.4 187.9,40.3 197.2,40.3 200.1,31.4 		"/>
	</g>
	<g>
		<polygon class="st10" points="192.5,84.9 185,90.3 187.9,99.1 197.2,99.1 200.1,90.3 		"/>
	</g>
</g>
<g id="txt">
	<g>
		<rect x="23.3" y="89.4" class="st12" width="57.5" height="52.9"/>
		<path class="st13" d="M37.7,89.9l-2.3,8.6h-1.9L32,92.7c-0.1-0.3-0.1-0.6-0.1-0.9h0c0,0.4-0.1,0.7-0.2,0.9l-1.6,5.8h-1.9l-2.3-8.6
			h1.8l1.4,6c0.1,0.3,0.1,0.6,0.1,0.9h0c0-0.3,0.1-0.6,0.2-1l1.7-6h1.8l1.5,6c0,0.2,0.1,0.5,0.1,0.9h0c0-0.3,0.1-0.6,0.1-0.9l1.4-6
			H37.7z"/>
		<path class="st13" d="M38.5,90.3c0-0.3,0.1-0.5,0.3-0.6s0.4-0.3,0.7-0.3c0.3,0,0.5,0.1,0.7,0.2s0.3,0.4,0.3,0.6s-0.1,0.5-0.3,0.6
			s-0.4,0.3-0.7,0.3s-0.5-0.1-0.7-0.3S38.5,90.6,38.5,90.3z M38.7,98.5v-6.2h1.6v6.2H38.7z"/>
		<path class="st13" d="M47.7,98.5H46V95c0-1.1-0.4-1.6-1.1-1.6c-0.4,0-0.7,0.1-0.9,0.4s-0.4,0.7-0.4,1.1v3.5H42v-6.2h1.6v1h0
			c0.5-0.8,1.1-1.1,2-1.1c1.4,0,2.1,0.8,2.1,2.5V98.5z"/>
		<path class="st13" d="M55.1,98.5h-1.6v-0.9h0c-0.4,0.7-1.1,1.1-2,1.1c-0.8,0-1.4-0.3-1.9-0.8s-0.7-1.3-0.7-2.3
			c0-1,0.3-1.8,0.8-2.4s1.2-0.9,2-0.9c0.8,0,1.4,0.3,1.7,0.9h0v-3.7h1.6V98.5z M53.5,95c0-0.4-0.1-0.8-0.4-1.1s-0.6-0.4-1-0.4
			c-0.5,0-0.8,0.2-1.1,0.6s-0.4,0.9-0.4,1.5c0,0.6,0.1,1,0.4,1.4s0.6,0.5,1.1,0.5c0.4,0,0.8-0.2,1.1-0.5s0.4-0.8,0.4-1.3V95z"/>
		<path class="st13" d="M56.4,95.5c0-1,0.3-1.8,0.9-2.4s1.4-0.9,2.4-0.9c1,0,1.8,0.3,2.3,0.9s0.9,1.3,0.9,2.3c0,1-0.3,1.8-0.9,2.4
			s-1.4,0.9-2.4,0.9c-1,0-1.8-0.3-2.3-0.9S56.4,96.4,56.4,95.5z M58.1,95.4c0,1.3,0.5,1.9,1.6,1.9c1,0,1.6-0.7,1.6-2
			c0-1.3-0.5-1.9-1.6-1.9c-0.5,0-0.9,0.2-1.2,0.5S58.1,94.8,58.1,95.4z"/>
		<path class="st13" d="M72.8,92.3L71,98.5h-1.7l-1-3.8c-0.1-0.2-0.1-0.4-0.1-0.7h0c0,0.3-0.1,0.5-0.1,0.7l-1.1,3.9h-1.7l-1.8-6.2
			h1.7l1,4.2c0.1,0.2,0.1,0.4,0.1,0.6h0c0-0.2,0-0.4,0.1-0.7l1.2-4.2h1.5l1,4.2c0,0.1,0.1,0.3,0.1,0.7h0c0-0.2,0-0.4,0.1-0.7
			l0.9-4.2H72.8z"/>
		<path class="st13" d="M73.6,96.9c0.6,0.4,1.2,0.6,1.8,0.6c0.8,0,1.1-0.2,1.1-0.7c0-0.3-0.3-0.6-0.9-0.8c-0.9-0.3-1.4-0.6-1.7-0.9
			s-0.4-0.7-0.4-1.1c0-0.6,0.2-1.1,0.7-1.4s1.1-0.5,1.9-0.5c0.5,0,1.1,0.1,1.6,0.3v1.3c-0.5-0.3-1-0.4-1.6-0.4
			c-0.3,0-0.5,0.1-0.7,0.2s-0.3,0.3-0.3,0.5c0,0.3,0.3,0.6,0.8,0.7c0.6,0.2,1,0.4,1.3,0.5s0.5,0.3,0.6,0.6s0.2,0.5,0.2,0.9
			c0,0.6-0.2,1.1-0.7,1.5s-1.2,0.5-2,0.5c-0.7,0-1.3-0.1-1.8-0.3V96.9z"/>
		<path class="st13" d="M31.5,113.9v-3.7h-2.7V109h10.5v1.2h-2.7v3.7h-1.5v-3.7H33v3.7H31.5z M34.1,108c-1.1,0-2.1-0.3-2.7-0.8
			s-1-1.1-1-1.9c0-0.8,0.3-1.4,1-1.8s1.6-0.7,2.7-0.7c1.1,0,2.1,0.2,2.7,0.7s1,1.1,1,1.8c0,0.7-0.3,1.4-1,1.9S35.2,108,34.1,108z
			 M34.1,104c-0.7,0-1.3,0.1-1.7,0.4s-0.6,0.6-0.6,1c0,0.4,0.2,0.7,0.6,1s0.9,0.4,1.6,0.4s1.2-0.1,1.6-0.4s0.6-0.6,0.6-1
			c0-0.4-0.2-0.7-0.6-1S34.8,104,34.1,104z"/>
		<path class="st13" d="M48,110.3c-0.8,0.2-2.1,0.3-3.8,0.3l-2.5,0v-7.2h1.5v5.9c1.5,0,2.5,0,3.1,0s1.1-0.1,1.7-0.2L48,110.3z
			 M48.7,114v-11.3h1.4V114H48.7z"/>
		<path class="st13" d="M53.4,110.9v-7.4h1.4v2.6h2.7v-2.6H59v3.2h2.1v-4h1.4V114h-1.4v-6.1H59v3H53.4z M57.5,107.3h-2.7v2.4h2.7
			V107.3z"/>
		<path class="st13" d="M70.8,108.2c-1.1-0.6-2-1.3-2.5-2.1c-0.2,0.4-0.6,0.9-1.1,1.3s-1,0.8-1.5,1.1l-1-1c0.9-0.4,1.6-0.9,2.1-1.5
			s0.7-1.3,0.7-2v-1.1h1.4v1.1c0,0.7,0.3,1.3,0.8,1.9s1.2,1,1.9,1.2L70.8,108.2z M67.2,113.8v-3.1h5.9V110h-5.9v-1.2h7.3v3.1h-5.9
			v0.7h6.1v1.2H67.2z M73.1,108.3v-2.7h-2.4v-1.2h2.4v-1.8h1.4v5.7H73.1z"/>
		<path class="st13" d="M34.8,123v-1.2h10.5v1.2H34.8z M35.9,121.2V120h1.5l-0.1-1.4h1.5l0.1,1.4h2.4l0.1-1.4h1.5l-0.1,1.4h1.5v1.2
			H35.9z M36.1,118.4v-1.2h8.1v1.2H36.1z M36.4,128.2v-2.9h5.9v-0.6h-5.9v-1.2h7.4v2.9h-5.9v0.5h6.2v1.2H36.4z"/>
		<path class="st13" d="M52.5,123.3c-1,0.1-2.3,0.2-3.9,0.2h-1.4v-3.6h3.2v-1.1h-3.2v-1.2h4.6v3.5h-3.2v1.2h1.1c1,0,1.9-0.1,2.6-0.2
			L52.5,123.3z M56.3,128.4c-0.7-0.1-1.4-0.4-2.2-0.9s-1.3-1-1.6-1.5c-0.3,0.5-0.8,0.9-1.5,1.4s-1.5,0.8-2.2,0.9l-0.9-1.2
			c1.1-0.1,2.1-0.5,2.8-1.1s1.1-1.2,1.1-1.8v-0.4h1.5v0.4c0,0.6,0.4,1.2,1.1,1.8s1.7,1,2.8,1.1L56.3,128.4z M55.2,124.3v-3.1h-0.9
			v2.4h-1.4v-6.3h1.4v2.7h0.9v-2.9h1.5v7.2H55.2z"/>
		<path class="st13" d="M58.8,123.7v-1.2h4.5v-0.8h-3.4v-1.2h1.5l-0.1-1.5h1.5l0.1,1.5h2.4l0.1-1.5h1.5l-0.1,1.5h1.5v1.2h-3.4v0.8
			h4.5v1.2H58.8z M60.1,118.5v-1.2h8.1v1.2H60.1z M60.4,128.1v-3.8h7.4v3.8H60.4z M66.3,125.5h-4.5v1.4h4.5V125.5z"/>
	</g>
	<g>
		<g>
			<path class="st14" d="M212.6,84.5h-0.9v-4h-4.5v4h-0.9v-8.6h0.9v3.8h4.5v-3.8h0.9V84.5z"/>
			<path class="st14" d="M219.8,76.8h-2.5v7.8h-1v-7.8h-2.5v-0.9h5.9V76.8z"/>
			<path class="st14" d="M226.4,76.8h-2.5v7.8h-1v-7.8h-2.5v-0.9h5.9V76.8z"/>
			<path class="st14" d="M228.6,81.2v3.3h-0.9v-8.6h2.3c0.9,0,1.6,0.2,2.1,0.7s0.8,1.1,0.8,1.9c0,0.8-0.3,1.5-0.9,2
				s-1.3,0.8-2.2,0.7H228.6z M228.6,76.8v3.6h1.1c0.7,0,1.2-0.2,1.6-0.5s0.6-0.8,0.6-1.4c0-1.2-0.7-1.7-2.1-1.7H228.6z"/>
			<path class="st14" d="M245,83.9c-0.9,0.5-1.8,0.7-2.9,0.7c-1.2,0-2.2-0.4-3-1.2s-1.1-1.8-1.1-3.1c0-1.3,0.4-2.4,1.3-3.3
				s1.9-1.3,3.2-1.3c1,0,1.8,0.2,2.4,0.5v1.1c-0.7-0.4-1.5-0.7-2.5-0.7c-1,0-1.8,0.3-2.4,1s-0.9,1.5-0.9,2.6c0,1.1,0.3,2,0.9,2.6
				s1.4,0.9,2.4,0.9c0.7,0,1.3-0.1,1.8-0.4v-2.5h-1.9v-0.9h2.8V83.9z"/>
			<path class="st14" d="M251.5,84.5H247v-8.6h4.3v0.9h-3.4v2.9h3.1v0.9h-3.1v3.1h3.6V84.5z"/>
			<path class="st14" d="M258.1,76.8h-2.5v7.8h-1v-7.8h-2.5v-0.9h5.9V76.8z"/>
			<path class="st14" d="M269.5,81.3H267v2.4h-0.8v-2.4h-2.4v-0.8h2.4v-2.4h0.8v2.4h2.4V81.3z"/>
			<path class="st14" d="M208.7,94.3c-0.7,0-1.3-0.2-1.8-0.7s-0.7-1.1-0.7-2c0-0.8,0.2-1.5,0.7-2s1.1-0.7,1.8-0.7s1.3,0.2,1.8,0.7
				s0.7,1.1,0.7,2c0,0.8-0.2,1.5-0.7,2S209.4,94.3,208.7,94.3z M208.7,89.6c-0.5,0-0.9,0.2-1.2,0.5S207,91,207,91.6
				c0,0.6,0.2,1.1,0.5,1.4s0.7,0.5,1.2,0.5s0.9-0.2,1.2-0.5s0.5-0.8,0.5-1.4s-0.2-1.1-0.5-1.4S209.2,89.6,208.7,89.6z M214.5,99.8
				v-3.6H208v-0.8h7.4v4.3H214.5z M214.5,94.8v-2.6h-1.3v2.6h-0.9v-6.1h0.9v2.8h1.3v-3h0.9v6.3H214.5z"/>
			<path class="st14" d="M222.8,97.1c-1-1-1.7-2.2-2.1-3.5c-0.1,0.6-0.4,1.2-0.9,1.9s-0.9,1.3-1.4,1.8l-0.7-0.6
				c0.7-0.5,1.3-1.2,1.8-2.2s0.8-2,0.8-3v-2.2h0.9v2.2c0,0.9,0.2,1.9,0.7,2.8s1,1.7,1.6,2.2L222.8,97.1z M224.3,99.4v-6.3h-2v-0.8h2
				v-3.7h0.9v10.7H224.3z M226.4,99.8V88.5h0.9v11.3H226.4z"/>
			<path class="st14" d="M240.1,97.9h-10.5v-0.8h10.5V97.9z M234.8,91.4c-0.3,0.6-0.8,1.2-1.6,1.8s-1.7,1-2.6,1.3l-0.6-0.7
				c1.3-0.3,2.4-0.8,3.2-1.6s1.2-1.5,1.2-2.2v-0.6h0.9V90c0,0.7,0.4,1.4,1.2,2.2s1.8,1.3,3.2,1.6l-0.6,0.7c-0.9-0.3-1.8-0.7-2.6-1.3
				S235.1,92,234.8,91.4z"/>
			<path class="st14" d="M245.7,98.1v-0.8h4.8v-2.4h-3.1v-5.4h7.2v0.8h-6.4v1.5h6.2v0.8h-6.2v1.6h6.6v0.8h-3.4v2.4h4.8v0.8H245.7z"
				/>
			<path class="st14" d="M257.6,94.6v-0.8h8c0-0.3,0.1-0.9,0.1-1.9l-6.6,0.3l-0.2-0.8l6.8-0.3l0-0.8v-0.6h-6.3V89h7.2
				c0,2.2,0,3.8-0.1,4.8h1.7v0.8H257.6z M259.4,99.3v-3.6h0.9v2.8h6.3v0.8H259.4z"/>
		</g>
	</g>
	<g>
		<rect x="390.6" y="24.3" class="st12" width="64.5" height="60.7"/>
		<path class="st15" d="M404.3,33.4v-5.3c0-0.4,0-1,0.1-1.8h0c-0.1,0.5-0.2,0.8-0.3,1.1l-2.3,6.1h-1.3l-2.3-6
			c-0.1-0.2-0.1-0.5-0.3-1.1h0c0,0.6,0.1,1.3,0.1,2.1v5.1h-1.5v-8.6h2.4l2,5.4c0.2,0.4,0.3,0.8,0.3,1.2h0c0.1-0.3,0.2-0.7,0.4-1.2
			l2-5.4h2.3v8.6H404.3z"/>
		<path class="st15" d="M407.7,25.3c0-0.3,0.1-0.5,0.3-0.6s0.4-0.3,0.7-0.3c0.3,0,0.5,0.1,0.7,0.2s0.3,0.4,0.3,0.6s-0.1,0.5-0.3,0.6
			s-0.4,0.3-0.7,0.3s-0.5-0.1-0.7-0.3S407.7,25.5,407.7,25.3z M407.8,33.4v-6.2h1.6v6.2H407.8z"/>
		<path class="st15" d="M415.6,33.2c-0.4,0.3-1,0.4-1.8,0.4c-0.9,0-1.7-0.3-2.2-0.9s-0.9-1.3-0.9-2.2c0-1,0.3-1.9,0.9-2.5
			s1.4-0.9,2.5-0.9c0.7,0,1.2,0.1,1.5,0.3v1.4c-0.4-0.3-0.9-0.5-1.4-0.5c-0.6,0-1,0.2-1.4,0.5s-0.5,0.8-0.5,1.5
			c0,0.6,0.2,1.1,0.5,1.4s0.8,0.5,1.3,0.5c0.5,0,1-0.2,1.4-0.5V33.2z"/>
		<path class="st15" d="M420.7,28.8c-0.2-0.1-0.5-0.2-0.8-0.2c-0.4,0-0.7,0.2-1,0.5s-0.4,0.8-0.4,1.3v3h-1.6v-6.2h1.6v1.2h0
			c0.3-0.9,0.8-1.3,1.6-1.3c0.2,0,0.4,0,0.5,0.1V28.8z"/>
		<path class="st15" d="M421.2,30.4c0-1,0.3-1.8,0.9-2.4s1.4-0.9,2.4-0.9c1,0,1.8,0.3,2.3,0.9s0.9,1.3,0.9,2.3c0,1-0.3,1.8-0.9,2.4
			s-1.4,0.9-2.4,0.9c-1,0-1.8-0.3-2.3-0.9S421.2,31.4,421.2,30.4z M422.9,30.4c0,1.3,0.5,1.9,1.6,1.9c1,0,1.6-0.7,1.6-2
			c0-1.3-0.5-1.9-1.6-1.9c-0.5,0-0.9,0.2-1.2,0.5S422.9,29.8,422.9,30.4z"/>
		<path class="st15" d="M428.8,31.9c0.6,0.4,1.2,0.6,1.8,0.6c0.8,0,1.1-0.2,1.1-0.7c0-0.3-0.3-0.6-0.9-0.8c-0.9-0.3-1.4-0.6-1.7-0.9
			s-0.4-0.7-0.4-1.1c0-0.6,0.2-1.1,0.7-1.4s1.1-0.5,1.9-0.5c0.5,0,1.1,0.1,1.6,0.3v1.3c-0.5-0.3-1-0.4-1.6-0.4
			c-0.3,0-0.5,0.1-0.7,0.2s-0.3,0.3-0.3,0.5c0,0.3,0.3,0.6,0.8,0.7c0.6,0.2,1,0.4,1.3,0.5s0.5,0.3,0.6,0.6s0.2,0.5,0.2,0.9
			c0,0.6-0.2,1.1-0.7,1.5s-1.2,0.5-2,0.5c-0.7,0-1.3-0.1-1.8-0.3V31.9z"/>
		<path class="st15" d="M434.2,30.4c0-1,0.3-1.8,0.9-2.4s1.4-0.9,2.4-0.9c1,0,1.8,0.3,2.3,0.9s0.9,1.3,0.9,2.3c0,1-0.3,1.8-0.9,2.4
			s-1.4,0.9-2.4,0.9c-1,0-1.8-0.3-2.3-0.9S434.2,31.4,434.2,30.4z M435.9,30.4c0,1.3,0.5,1.9,1.6,1.9c1,0,1.6-0.7,1.6-2
			c0-1.3-0.5-1.9-1.6-1.9c-0.5,0-0.9,0.2-1.2,0.5S435.9,29.8,435.9,30.4z"/>
		<path class="st15" d="M445.6,25.6c-0.2-0.1-0.5-0.1-0.7-0.1c-0.6,0-0.9,0.4-0.9,1.1v0.7h1.4v1.2h-1.4v4.9h-1.6v-4.9h-1v-1.2h1
			v-0.8c0-0.7,0.2-1.2,0.7-1.7s1-0.6,1.7-0.6c0.4,0,0.7,0,0.9,0.1V25.6z"/>
		<path class="st15" d="M450,33.4c-0.3,0.1-0.7,0.2-1.2,0.2c-1.3,0-1.9-0.7-1.9-2v-3.1h-1v-1.2h1v-1.4l1.6-0.5v1.9h1.4v1.2h-1.4v2.8
			c0,0.7,0.3,1,0.8,1c0.2,0,0.4-0.1,0.6-0.2V33.4z"/>
		<path class="st15" d="M399.1,39.2v8.6h-1.7v-8.6H399.1z"/>
		<path class="st15" d="M401.1,47.8v-8.6h2.9c3.1,0,4.6,1.4,4.6,4.2c0,1.3-0.4,2.4-1.3,3.2s-2,1.2-3.3,1.2H401.1z M402.8,40.6v5.9
			h1.1c0.9,0,1.7-0.3,2.2-0.8s0.8-1.3,0.8-2.2c0-0.9-0.3-1.6-0.8-2.1s-1.2-0.7-2.2-0.7H402.8z"/>
		<path class="st15" d="M414,43.5v-1.2h10.5v1.2H414z M415.1,41.8v-1.2h1.5l-0.1-1.4h1.5l0.1,1.4h2.4l0.1-1.4h1.5l-0.1,1.4h1.5v1.2
			H415.1z M415.3,38.9v-1.2h8.1v1.2H415.3z M415.6,48.8v-2.9h5.9v-0.6h-5.9v-1.2h7.4V47H417v0.5h6.2v1.2H415.6z"/>
		<path class="st15" d="M431.7,43.8c-1,0.1-2.3,0.2-3.9,0.2h-1.4v-3.6h3.2v-1.1h-3.2v-1.2h4.6v3.5h-3.2v1.2h1.1c1,0,1.9-0.1,2.6-0.2
			L431.7,43.8z M435.4,48.9c-0.7-0.1-1.4-0.4-2.2-0.9s-1.3-1-1.6-1.5c-0.3,0.5-0.8,0.9-1.5,1.4s-1.5,0.8-2.2,0.9l-0.9-1.2
			c1.1-0.1,2.1-0.5,2.8-1.1s1.1-1.2,1.1-1.8v-0.4h1.5v0.4c0,0.6,0.4,1.2,1.1,1.8s1.7,1,2.8,1.1L435.4,48.9z M434.4,44.8v-3.1h-0.9
			v2.4h-1.4v-6.3h1.4v2.7h0.9v-2.9h1.5v7.2H434.4z"/>
		<path class="st15" d="M438,44.2V43h4.5v-0.8h-3.4v-1.2h1.5l-0.1-1.5h1.5l0.1,1.5h2.4l0.1-1.5h1.5l-0.1,1.5h1.5v1.2H444V43h4.5v1.2
			H438z M439.3,39.1v-1.2h8.1v1.2H439.3z M439.6,48.7v-3.8h7.4v3.8H439.6z M445.5,46.1h-4.5v1.4h4.5V46.1z"/>
	</g>
	<g>
		<rect x="390.6" y="109.4" class="st12" width="64.5" height="30.5"/>
		<path class="st16" d="M404.3,118.5v-5.3c0-0.4,0-1,0.1-1.8h0c-0.1,0.5-0.2,0.8-0.3,1.1l-2.3,6.1h-1.3l-2.3-6
			c-0.1-0.2-0.1-0.5-0.3-1.1h0c0,0.6,0.1,1.3,0.1,2.1v5.1h-1.5v-8.6h2.4l2,5.4c0.2,0.4,0.3,0.8,0.3,1.2h0c0.1-0.3,0.2-0.7,0.4-1.2
			l2-5.4h2.3v8.6H404.3z"/>
		<path class="st16" d="M407.7,110.3c0-0.3,0.1-0.5,0.3-0.6s0.4-0.3,0.7-0.3c0.3,0,0.5,0.1,0.7,0.2s0.3,0.4,0.3,0.6
			s-0.1,0.5-0.3,0.6s-0.4,0.3-0.7,0.3s-0.5-0.1-0.7-0.3S407.7,110.5,407.7,110.3z M407.8,118.5v-6.2h1.6v6.2H407.8z"/>
		<path class="st16" d="M415.6,118.2c-0.4,0.3-1,0.4-1.8,0.4c-0.9,0-1.7-0.3-2.2-0.9s-0.9-1.3-0.9-2.2c0-1,0.3-1.9,0.9-2.5
			s1.4-0.9,2.5-0.9c0.7,0,1.2,0.1,1.5,0.3v1.4c-0.4-0.3-0.9-0.5-1.4-0.5c-0.6,0-1,0.2-1.4,0.5s-0.5,0.8-0.5,1.5
			c0,0.6,0.2,1.1,0.5,1.4s0.8,0.5,1.3,0.5c0.5,0,1-0.2,1.4-0.5V118.2z"/>
		<path class="st16" d="M420.7,113.8c-0.2-0.1-0.5-0.2-0.8-0.2c-0.4,0-0.7,0.2-1,0.5s-0.4,0.8-0.4,1.3v3h-1.6v-6.2h1.6v1.2h0
			c0.3-0.9,0.8-1.3,1.6-1.3c0.2,0,0.4,0,0.5,0.1V113.8z"/>
		<path class="st16" d="M421.2,115.4c0-1,0.3-1.8,0.9-2.4s1.4-0.9,2.4-0.9c1,0,1.8,0.3,2.3,0.9s0.9,1.3,0.9,2.3c0,1-0.3,1.8-0.9,2.4
			s-1.4,0.9-2.4,0.9c-1,0-1.8-0.3-2.3-0.9S421.2,116.4,421.2,115.4z M422.9,115.4c0,1.3,0.5,1.9,1.6,1.9c1,0,1.6-0.7,1.6-2
			c0-1.3-0.5-1.9-1.6-1.9c-0.5,0-0.9,0.2-1.2,0.5S422.9,114.8,422.9,115.4z"/>
		<path class="st16" d="M428.8,116.9c0.6,0.4,1.2,0.6,1.8,0.6c0.8,0,1.1-0.2,1.1-0.7c0-0.3-0.3-0.6-0.9-0.8
			c-0.9-0.3-1.4-0.6-1.7-0.9s-0.4-0.7-0.4-1.1c0-0.6,0.2-1.1,0.7-1.4s1.1-0.5,1.9-0.5c0.5,0,1.1,0.1,1.6,0.3v1.3
			c-0.5-0.3-1-0.4-1.6-0.4c-0.3,0-0.5,0.1-0.7,0.2s-0.3,0.3-0.3,0.5c0,0.3,0.3,0.6,0.8,0.7c0.6,0.2,1,0.4,1.3,0.5s0.5,0.3,0.6,0.6
			s0.2,0.5,0.2,0.9c0,0.6-0.2,1.1-0.7,1.5s-1.2,0.5-2,0.5c-0.7,0-1.3-0.1-1.8-0.3V116.9z"/>
		<path class="st16" d="M434.2,115.4c0-1,0.3-1.8,0.9-2.4s1.4-0.9,2.4-0.9c1,0,1.8,0.3,2.3,0.9s0.9,1.3,0.9,2.3c0,1-0.3,1.8-0.9,2.4
			s-1.4,0.9-2.4,0.9c-1,0-1.8-0.3-2.3-0.9S434.2,116.4,434.2,115.4z M435.9,115.4c0,1.3,0.5,1.9,1.6,1.9c1,0,1.6-0.7,1.6-2
			c0-1.3-0.5-1.9-1.6-1.9c-0.5,0-0.9,0.2-1.2,0.5S435.9,114.8,435.9,115.4z"/>
		<path class="st16" d="M445.6,110.6c-0.2-0.1-0.5-0.1-0.7-0.1c-0.6,0-0.9,0.4-0.9,1.1v0.7h1.4v1.2h-1.4v4.9h-1.6v-4.9h-1v-1.2h1
			v-0.8c0-0.7,0.2-1.2,0.7-1.7s1-0.6,1.7-0.6c0.4,0,0.7,0,0.9,0.1V110.6z"/>
		<path class="st16" d="M450,118.4c-0.3,0.1-0.7,0.2-1.2,0.2c-1.3,0-1.9-0.7-1.9-2v-3.1h-1v-1.2h1v-1.4l1.6-0.5v1.9h1.4v1.2h-1.4
			v2.8c0,0.7,0.3,1,0.8,1c0.2,0,0.4-0.1,0.6-0.2V118.4z"/>
		<path class="st16" d="M401.5,132.3c-0.8,0.5-1.9,0.7-3.1,0.7c-1.3,0-2.4-0.4-3.2-1.2s-1.2-1.8-1.2-3.2c0-1.3,0.4-2.4,1.3-3.3
			s2-1.3,3.4-1.3c0.9,0,1.7,0.1,2.4,0.4v1.6c-0.7-0.4-1.5-0.6-2.4-0.6c-0.9,0-1.6,0.3-2.1,0.8s-0.8,1.3-0.8,2.2
			c0,0.9,0.2,1.7,0.7,2.2s1.1,0.8,2,0.8c0.5,0,0.9-0.1,1.3-0.3v-1.9h-1.8v-1.4h3.4V132.3z"/>
		<path class="st16" d="M406.9,128.2c-0.2-0.1-0.5-0.2-0.8-0.2c-0.4,0-0.7,0.2-1,0.5s-0.4,0.8-0.4,1.3v3h-1.6v-6.2h1.6v1.2h0
			c0.3-0.9,0.8-1.3,1.6-1.3c0.2,0,0.4,0,0.5,0.1V128.2z"/>
		<path class="st16" d="M408,127.1c0.3-0.2,0.6-0.3,1.1-0.4s0.8-0.1,1.2-0.1c1.7,0,2.5,0.8,2.5,2.5v3.8h-1.6V132h0
			c-0.4,0.7-1,1.1-1.8,1.1c-0.6,0-1.1-0.2-1.4-0.5s-0.5-0.8-0.5-1.3c0-1.2,0.7-1.9,2.1-2l1.7-0.2c0-0.8-0.4-1.2-1.1-1.2
			c-0.7,0-1.4,0.2-2.1,0.7V127.1z M410,130c-0.7,0.1-1.1,0.4-1.1,0.9c0,0.2,0.1,0.4,0.3,0.6s0.4,0.2,0.7,0.2c0.4,0,0.7-0.1,1-0.4
			s0.4-0.6,0.4-1v-0.5L410,130z"/>
		<path class="st16" d="M416,132.1v3.6h-1.6v-9h1.6v1h0c0.5-0.7,1.2-1.1,2-1.1c0.8,0,1.4,0.3,1.8,0.8s0.7,1.3,0.7,2.2
			c0,1-0.3,1.8-0.8,2.5s-1.2,0.9-2,0.9C417,133,416.4,132.7,416,132.1L416,132.1z M416,130.2c0,0.4,0.1,0.8,0.4,1.1s0.6,0.4,1,0.4
			c0.5,0,0.8-0.2,1.1-0.6s0.4-0.9,0.4-1.6c0-1.2-0.5-1.8-1.4-1.8c-0.4,0-0.8,0.2-1.1,0.5s-0.4,0.8-0.4,1.3V130.2z"/>
		<path class="st16" d="M427.6,132.9h-1.6v-3.5c0-1-0.4-1.5-1.1-1.5c-0.4,0-0.7,0.1-0.9,0.4s-0.4,0.7-0.4,1.1v3.5h-1.6v-9.1h1.6v3.9
			h0c0.5-0.7,1.1-1.1,1.9-1.1c1.4,0,2.1,0.8,2.1,2.5V132.9z"/>
		<path class="st16" d="M440.9,132.9H439l-0.7-2.1h-3.2l-0.7,2.1h-1.8l3.2-8.6h1.9L440.9,132.9z M437.9,129.5l-1.1-3.1
			c0-0.1-0.1-0.4-0.1-0.7h0c0,0.3-0.1,0.5-0.1,0.7l-1.1,3.1H437.9z"/>
		<path class="st16" d="M443.7,129.8v3.1H442v-8.6h2.8c2.1,0,3.2,0.9,3.2,2.7c0,0.9-0.3,1.6-1,2.1s-1.4,0.8-2.4,0.8H443.7z
			 M443.7,125.6v2.9h0.8c1.2,0,1.7-0.5,1.7-1.5c0-1-0.6-1.4-1.7-1.4H443.7z"/>
		<path class="st16" d="M451,124.2v8.6h-1.7v-8.6H451z"/>
	</g>
	<g>
		<path class="st14" d="M185.7,8.9V8.2h4.8V5.8h-3.1V0.4h7.2v0.8h-6.4v1.5h6.2v0.8h-6.2V5h6.6v0.8h-3.4v2.4h4.8v0.8H185.7z"/>
		<path class="st14" d="M197.6,5.4V4.7h8c0-0.3,0.1-0.9,0.1-1.9l-6.6,0.3l-0.2-0.8l6.8-0.3l0-0.8V0.6h-6.3v-0.8h7.2
			c0,2.2,0,3.8-0.1,4.8h1.7v0.8H197.6z M199.4,10.2V6.6h0.9v2.8h6.3v0.8H199.4z"/>
		<path class="st14" d="M221.2,6.4c-1.8,0.1-4.2,0.2-7.3,0.2l-0.1-0.8c1.2,0,2.2,0,3.2,0V4.9c-0.8-0.1-1.4-0.2-1.8-0.5
			s-0.6-0.7-0.6-1.1c0-0.5,0.2-0.9,0.7-1.2s1.2-0.5,2.1-0.5c0.9,0,1.5,0.2,2,0.5s0.8,0.7,0.8,1.2c0,0.5-0.2,0.9-0.6,1.2
			s-1,0.5-1.8,0.5v0.9c1.3,0,2.4-0.1,3.2-0.1L221.2,6.4z M214.2,1.2V0.4h2.9v-1.2h0.9v1.2h2.9v0.8H214.2z M222,10.6V8.3h-6.5V7.5
			h7.4v3.1H222z M217.5,2.3c-0.6,0-1.1,0.1-1.5,0.3s-0.5,0.4-0.5,0.7s0.2,0.5,0.5,0.7s0.8,0.3,1.4,0.3s1.1-0.1,1.4-0.3
			s0.5-0.4,0.5-0.7s-0.2-0.5-0.5-0.7S218.2,2.3,217.5,2.3z M222,6.9v-7.6h0.9v7.6H222z"/>
		<path class="st14" d="M225.5,5.4V4.6H236v0.8H225.5z M233.4,10.6V7.4H227V6.6h7.3v4H233.4z M227.3,3.4v-3.8h7v0.8h-6.1v2.2h6.2
			v0.8H227.3z"/>
	</g>
	<g>
		<path class="st14" d="M207.1,33c-0.7,0-1.3-0.2-1.8-0.7s-0.7-1.1-0.7-2c0-0.8,0.2-1.5,0.7-2s1.1-0.7,1.8-0.7s1.3,0.2,1.8,0.7
			s0.7,1.1,0.7,2c0,0.8-0.2,1.5-0.7,2S207.8,33,207.1,33z M207.1,28.4c-0.5,0-0.9,0.2-1.2,0.5s-0.5,0.8-0.5,1.4
			c0,0.6,0.2,1.1,0.5,1.4s0.7,0.5,1.2,0.5s0.9-0.2,1.2-0.5s0.5-0.8,0.5-1.4s-0.2-1.1-0.5-1.4S207.6,28.4,207.1,28.4z M212.9,38.5V35
			h-6.5v-0.8h7.4v4.3H212.9z M212.9,33.6V31h-1.3v2.6h-0.9v-6.1h0.9v2.8h1.3v-3h0.9v6.3H212.9z"/>
		<path class="st14" d="M221.2,35.9c-1-1-1.7-2.2-2.1-3.5c-0.1,0.6-0.4,1.2-0.9,1.9s-0.9,1.3-1.4,1.8l-0.7-0.6
			c0.7-0.5,1.3-1.2,1.8-2.2s0.8-2,0.8-3V28h0.9v2.2c0,0.9,0.2,1.9,0.7,2.8s1,1.7,1.6,2.2L221.2,35.9z M222.7,38.2v-6.3h-2v-0.8h2
			v-3.7h0.9v10.7H222.7z M224.8,38.5V27.2h0.9v11.3H224.8z"/>
		<path class="st14" d="M238.5,36.6H228v-0.8h10.5V36.6z M233.2,30.2c-0.3,0.6-0.8,1.2-1.6,1.8s-1.7,1-2.6,1.3l-0.6-0.7
			c1.3-0.3,2.4-0.8,3.2-1.6s1.2-1.5,1.2-2.2v-0.6h0.9v0.6c0,0.7,0.4,1.4,1.2,2.2s1.8,1.3,3.2,1.6l-0.6,0.7c-0.9-0.3-1.8-0.7-2.6-1.3
			S233.5,30.7,233.2,30.2z"/>
		<path class="st14" d="M244.1,36.8V36h4.8v-2.4h-3.1v-5.4h7.2V29h-6.4v1.5h6.2v0.8h-6.2v1.6h6.6v0.8h-3.4V36h4.8v0.8H244.1z"/>
		<path class="st14" d="M256,33.3v-0.8h8c0-0.3,0.1-0.9,0.1-1.9l-6.6,0.3l-0.2-0.8l6.8-0.3l0-0.8v-0.6h-6.3v-0.8h7.2
			c0,2.2,0,3.8-0.1,4.8h1.7v0.8H256z M257.8,38.1v-3.6h0.9v2.8h6.3v0.8H257.8z"/>
	</g>
	<g>
		<path class="st14" d="M192.5,135.4h-0.9v-4H187v4H186v-8.6h0.9v3.8h4.5v-3.8h0.9V135.4z"/>
		<path class="st14" d="M199.7,127.7h-2.5v7.8h-1v-7.8h-2.5v-0.9h5.9V127.7z"/>
		<path class="st14" d="M206.4,127.7h-2.5v7.8h-1v-7.8h-2.5v-0.9h5.9V127.7z"/>
		<path class="st14" d="M208.6,132.2v3.3h-0.9v-8.6h2.3c0.9,0,1.6,0.2,2.1,0.7s0.8,1.1,0.8,1.9c0,0.8-0.3,1.5-0.9,2
			s-1.3,0.8-2.2,0.7H208.6z M208.6,127.7v3.6h1.1c0.7,0,1.2-0.2,1.6-0.5s0.6-0.8,0.6-1.4c0-1.2-0.7-1.7-2.1-1.7H208.6z"/>
		<path class="st14" d="M218.3,131.3v-0.8h10.5v0.8H218.3z M223.5,136.4c-1.2,0-2.1-0.2-2.7-0.6s-0.9-0.9-0.9-1.6
			c0-0.6,0.3-1.1,0.9-1.5s1.5-0.6,2.7-0.6s2.1,0.2,2.7,0.6s0.9,0.9,0.9,1.5c0,0.7-0.3,1.2-0.9,1.6S224.7,136.4,223.5,136.4z
			 M223.5,129.5c-1.1,0-2-0.2-2.6-0.6s-0.9-0.9-0.9-1.5c0-0.7,0.3-1.2,0.9-1.6s1.5-0.6,2.6-0.6s2,0.2,2.6,0.6s0.9,0.9,0.9,1.6
			c0,0.7-0.3,1.2-0.9,1.5S224.7,129.5,223.5,129.5z M223.5,132.9c-0.9,0-1.6,0.1-2.1,0.4s-0.7,0.6-0.7,1c0,0.4,0.2,0.8,0.7,1
			s1.2,0.4,2.1,0.4c0.9,0,1.6-0.1,2.1-0.4s0.7-0.6,0.7-1s-0.2-0.8-0.7-1S224.4,132.9,223.5,132.9z M223.5,126
			c-0.8,0-1.5,0.1-1.9,0.4s-0.7,0.6-0.7,1c0,0.4,0.2,0.8,0.7,1s1.1,0.4,1.9,0.4s1.5-0.1,1.9-0.4s0.7-0.6,0.7-1c0-0.4-0.2-0.8-0.7-1
			S224.4,126,223.5,126z"/>
		<path class="st14" d="M236.8,130.4c-1.1,0.1-3,0.1-5.7,0.1v-4.8h5.3v0.8h-4.5v3.2h0.8c1.8,0,3.1,0,4.1-0.1L236.8,130.4z
			 M232.2,136.2v-4.6h0.9v1.6h5.2v-1.6h0.9v4.6H232.2z M238.2,133.9h-5.2v1.5h5.2V133.9z M239.1,128.7v2.3h-0.9v-5.8h0.9v2.7h1.7
			v0.8H239.1z"/>
	</g>
</g>
</svg>
