<?xml version="1.0" encoding="utf-8"?>
<!-- Generator: Adobe Illustrator 22.1.0, SVG Export Plug-In . SVG Version: 6.00 Build 0)  -->
<svg version="1.1" xmlns="http://www.w3.org/2000/svg" xmlns:xlink="http://www.w3.org/1999/xlink" x="0px" y="0px"
	 viewBox="0 0 104 41" style="enable-background:new 0 0 104 41;" xml:space="preserve">
<style type="text/css">
	.st0{fill:#2F2F2F;}
	.st1{fill:#F25022;}
	.st2{fill:#00A4EF;}
	.st3{fill:#7FBA00;}
	.st4{fill:#FFB900;}
	.st5{fill:#FFFFFF;}
</style>
<g id="Layer_1">
	<title>MS-SymbolLockup</title>
	<rect y="0" class="st0" width="104" height="41"/>
	<rect x="13" y="11" class="st1" width="9" height="9"/>
	<rect x="13" y="21" class="st2" width="9" height="9"/>
	<rect x="23" y="11" class="st3" width="9" height="9"/>
	<rect x="23" y="21" class="st4" width="9" height="9"/>
</g>
<g id="Layer_2">
	<g>
		<path class="st5" d="M45.9,24.9v-1.5h5.6v-2h-3.8v-4.5h7.5v-1.4h-7.5v-1.5h9.3v4.4h-7.5v1.6h7.9v1.5h-4.1v2H59v1.5H45.9z"/>
		<path class="st5" d="M74,24.4c-1.2,0-2.2,0-3,0h-1.8l-8.4,0v-1.5h8.9c0.2-1.4,0.3-3.1,0.3-4.9v-2.4h-7.4v-1.5H72v3.4
			c0,1.7-0.1,3.5-0.4,5.4H74V24.4z"/>
		<path class="st5" d="M80.2,20.7c-1.1,0-2-0.4-2.7-1.1c-0.7-0.7-1.1-1.6-1.1-2.7c0-1.1,0.4-2,1.1-2.7s1.6-1.1,2.7-1.1s2,0.3,2.7,1
			S84,15.9,84,17c0,1.1-0.4,2-1.1,2.7S81.3,20.7,80.2,20.7z M80.2,14.8c-0.6,0-1.1,0.2-1.4,0.6c-0.4,0.4-0.6,0.9-0.6,1.6
			c0,0.7,0.2,1.2,0.6,1.6c0.4,0.4,0.9,0.6,1.4,0.6c0.6,0,1.1-0.2,1.4-0.6c0.4-0.4,0.5-0.9,0.5-1.6c0-0.6-0.2-1.2-0.6-1.6
			S80.8,14.8,80.2,14.8z M78.7,26.3v-4.7h1.8v3.1h7.5v1.5H78.7z M86,22.8V12.7h1.8v10.1H86z"/>
	</g>
</g>
</svg>
