<?xml version="1.0" encoding="utf-8"?>
<!-- Generator: Adobe Illustrator 22.1.0, SVG Export Plug-In . SVG Version: 6.00 Build 0)  -->
<svg version="1.1" xmlns="http://www.w3.org/2000/svg" xmlns:xlink="http://www.w3.org/1999/xlink" x="0px" y="0px"
	 viewBox="0 0 215 41" style="enable-background:new 0 0 215 41;" xml:space="preserve">
<style type="text/css">
	.st0{fill:#FFFFFF;}
	.st1{fill:#8C8C8C;}
	.st2{fill:#F25022;}
	.st3{fill:#00A4EF;}
	.st4{fill:#7FBA00;}
	.st5{fill:#FFB900;}
	.st6{fill:#5E5E5E;}
</style>
<g id="Layer_1">
	<title>MS-SymbolLockup</title>
	<rect class="st0" width="215" height="41"/>
	<path class="st1" d="M214,1v39H1V1H214 M215,0H0v41h215V0z"/>
	<rect x="13" y="11" class="st2" width="9" height="9"/>
	<rect x="13" y="21" class="st3" width="9" height="9"/>
	<rect x="23" y="11" class="st4" width="9" height="9"/>
	<rect x="23" y="21" class="st5" width="9" height="9"/>
</g>
<g id="Layer_2">
	<g>
		<path class="st6" d="M57.7,25.5h-1.7v-6.8c0-0.6,0-1.2,0.1-2h0c-0.1,0.5-0.2,0.8-0.3,1l-3.1,7.9h-1.2l-3.1-7.8
			c-0.1-0.2-0.2-0.6-0.3-1h0c0,0.4,0.1,1.1,0.1,2.1v6.8h-1.6V15h2.5l2.8,7c0.2,0.5,0.3,0.9,0.4,1.2h0c0.2-0.6,0.3-1,0.4-1.2l2.8-7
			h2.4V25.5z"/>
		<path class="st6" d="M60.9,16.4c-0.3,0-0.5-0.1-0.7-0.3c-0.2-0.2-0.3-0.4-0.3-0.7s0.1-0.5,0.3-0.7c0.2-0.2,0.4-0.3,0.7-0.3
			c0.3,0,0.5,0.1,0.7,0.3s0.3,0.4,0.3,0.7c0,0.3-0.1,0.5-0.3,0.7S61.2,16.4,60.9,16.4z M61.7,25.5H60V18h1.7V25.5z"/>
		<path class="st6" d="M69.3,25.2c-0.6,0.3-1.3,0.5-2.1,0.5c-1.1,0-2-0.3-2.7-1c-0.7-0.7-1-1.6-1-2.7c0-1.2,0.4-2.2,1.1-3
			c0.7-0.7,1.7-1.1,2.9-1.1c0.7,0,1.3,0.1,1.8,0.4v1.6c-0.5-0.4-1.1-0.6-1.7-0.6c-0.7,0-1.3,0.2-1.8,0.7s-0.7,1.1-0.7,1.9
			c0,0.8,0.2,1.4,0.6,1.8c0.4,0.4,1,0.7,1.7,0.7c0.6,0,1.2-0.2,1.7-0.7V25.2z"/>
		<path class="st6" d="M75.3,19.6c-0.2-0.2-0.5-0.2-0.9-0.2c-0.5,0-0.9,0.2-1.3,0.7s-0.5,1.1-0.5,1.9v3.6h-1.7V18h1.7v1.5h0
			c0.2-0.5,0.4-0.9,0.8-1.2c0.3-0.3,0.7-0.4,1.2-0.4c0.3,0,0.5,0,0.7,0.1V19.6z"/>
		<path class="st6" d="M79.7,25.7c-1.2,0-2.1-0.4-2.8-1.1c-0.7-0.7-1-1.6-1-2.8c0-1.3,0.4-2.2,1.1-3c0.7-0.7,1.7-1.1,2.9-1.1
			c1.2,0,2.1,0.3,2.7,1s1,1.6,1,2.9c0,1.2-0.4,2.2-1.1,2.9C81.8,25.3,80.8,25.7,79.7,25.7z M79.7,19.2c-0.7,0-1.2,0.2-1.6,0.7
			c-0.4,0.5-0.6,1.1-0.6,1.9c0,0.8,0.2,1.4,0.6,1.9c0.4,0.5,0.9,0.7,1.6,0.7c0.7,0,1.2-0.2,1.5-0.7c0.4-0.4,0.5-1.1,0.5-1.9
			c0-0.8-0.2-1.5-0.5-1.9C80.9,19.4,80.4,19.2,79.7,19.2z"/>
		<path class="st6" d="M84.8,25.3v-1.6c0.6,0.5,1.3,0.7,2.1,0.7c1,0,1.5-0.3,1.5-0.9c0-0.2,0-0.3-0.1-0.4c-0.1-0.1-0.2-0.2-0.4-0.3
			c-0.1-0.1-0.3-0.2-0.5-0.2c-0.2-0.1-0.4-0.2-0.7-0.2c-0.3-0.1-0.6-0.3-0.8-0.4c-0.2-0.1-0.5-0.3-0.6-0.5c-0.2-0.2-0.3-0.4-0.4-0.6
			c-0.1-0.2-0.1-0.5-0.1-0.8c0-0.4,0.1-0.7,0.3-1s0.4-0.5,0.7-0.7c0.3-0.2,0.6-0.3,1-0.4c0.4-0.1,0.7-0.1,1.1-0.1
			c0.7,0,1.3,0.1,1.9,0.3v1.5c-0.5-0.4-1.1-0.5-1.8-0.5c-0.2,0-0.4,0-0.6,0.1c-0.2,0-0.3,0.1-0.4,0.2s-0.2,0.2-0.3,0.3
			c-0.1,0.1-0.1,0.2-0.1,0.4c0,0.2,0,0.3,0.1,0.4c0.1,0.1,0.2,0.2,0.3,0.3c0.1,0.1,0.3,0.2,0.5,0.2c0.2,0.1,0.4,0.1,0.6,0.2
			c0.3,0.1,0.6,0.3,0.9,0.4c0.3,0.1,0.5,0.3,0.7,0.5c0.2,0.2,0.3,0.4,0.4,0.6c0.1,0.2,0.1,0.5,0.1,0.8c0,0.4-0.1,0.7-0.3,1
			s-0.4,0.5-0.7,0.7s-0.6,0.3-1,0.4c-0.4,0.1-0.8,0.1-1.2,0.1C86.1,25.7,85.4,25.5,84.8,25.3z"/>
		<path class="st6" d="M95,25.7c-1.2,0-2.1-0.4-2.8-1.1c-0.7-0.7-1-1.6-1-2.8c0-1.3,0.4-2.2,1.1-3c0.7-0.7,1.7-1.1,2.9-1.1
			c1.2,0,2.1,0.3,2.7,1s1,1.6,1,2.9c0,1.2-0.4,2.2-1.1,2.9C97.2,25.3,96.2,25.7,95,25.7z M95.1,19.2c-0.7,0-1.2,0.2-1.6,0.7
			c-0.4,0.5-0.6,1.1-0.6,1.9c0,0.8,0.2,1.4,0.6,1.9c0.4,0.5,0.9,0.7,1.6,0.7c0.7,0,1.2-0.2,1.5-0.7c0.4-0.4,0.5-1.1,0.5-1.9
			c0-0.8-0.2-1.5-0.5-1.9C96.3,19.4,95.8,19.2,95.1,19.2z"/>
		<path class="st6" d="M104.6,15.8c-0.2-0.1-0.5-0.2-0.8-0.2c-0.8,0-1.2,0.5-1.2,1.4v1h1.7v1.3h-1.7v6.2h-1.7v-6.2h-1.3V18h1.3v-1.2
			c0-0.8,0.3-1.4,0.8-1.9c0.5-0.5,1.2-0.7,1.9-0.7c0.4,0,0.8,0,1,0.1V15.8z"/>
		<path class="st6" d="M109.7,25.4c-0.3,0.2-0.8,0.2-1.3,0.2c-1.5,0-2.2-0.7-2.2-2.1v-4.2H105V18h1.3v-1.7l1.7-0.5V18h1.8v1.3H108
			v3.8c0,0.4,0.1,0.8,0.2,1c0.2,0.2,0.4,0.3,0.8,0.3c0.3,0,0.5-0.1,0.7-0.2V25.4z"/>
		<path class="st6" d="M117.5,17.6h1.4V13h1.7v13.4h-1.7v-7.2h-1.4c-0.1,1.4-0.4,2.4-0.9,3.1c-0.5,0.7-1.3,1.1-2.2,1.1
			c-1,0-1.8-0.4-2.4-1.3c-0.5-0.8-0.8-2-0.8-3.6c0-1.6,0.3-2.8,0.8-3.6c0.6-0.8,1.3-1.3,2.4-1.3c0.9,0,1.7,0.3,2.2,1
			C117.1,15.3,117.4,16.3,117.5,17.6z M114.3,15.2c-1,0-1.4,1.1-1.4,3.3c0,2.2,0.5,3.3,1.4,3.3c0.5,0,0.8-0.3,1.1-0.9
			c0.3-0.6,0.4-1.4,0.4-2.5c0-1.1-0.1-1.9-0.4-2.5C115.2,15.5,114.8,15.2,114.3,15.2z M121.6,26.8V12.7h1.8v14.1H121.6z"/>
		<path class="st6" d="M131.2,24.9v-1.5h5.6v-2h-3.8v-4.5h7.5v-1.4h-7.5v-1.5h9.3v4.4h-7.5v1.6h7.9v1.5h-4.1v2h5.6v1.5H131.2z"/>
		<path class="st6" d="M159.3,24.4c-1.2,0-2.2,0-3,0h-1.8l-8.4,0v-1.5h8.9c0.2-1.4,0.3-3.1,0.3-4.9v-2.4H148v-1.5h9.3v3.4
			c0,1.7-0.1,3.5-0.4,5.4h2.4V24.4z"/>
		<path class="st6" d="M165.4,20.7c-1.1,0-2-0.4-2.7-1.1c-0.7-0.7-1.1-1.6-1.1-2.7c0-1.1,0.4-2,1.1-2.7s1.6-1.1,2.7-1.1s2,0.3,2.7,1
			s1.1,1.6,1.1,2.7c0,1.1-0.4,2-1.1,2.7S166.5,20.7,165.4,20.7z M165.4,14.8c-0.6,0-1.1,0.2-1.4,0.6c-0.4,0.4-0.6,0.9-0.6,1.6
			c0,0.7,0.2,1.2,0.6,1.6c0.4,0.4,0.9,0.6,1.4,0.6c0.6,0,1.1-0.2,1.4-0.6c0.4-0.4,0.5-0.9,0.5-1.6c0-0.6-0.2-1.2-0.6-1.6
			S166,14.8,165.4,14.8z M163.9,26.3v-4.7h1.8v3.1h7.5v1.5H163.9z M171.2,22.8V12.7h1.8v10.1H171.2z"/>
	</g>
</g>
</svg>
