<svg id="Layer_1" data-name="Layer 1" xmlns="http://www.w3.org/2000/svg" xmlns:xlink="http://www.w3.org/1999/xlink" viewBox="0 0 325.49 212.9"><defs><style>.cls-1,.cls-10{fill:#fff;}.cls-2{fill:#0072c6;opacity:0.12;}.cls-2,.cls-6{isolation:isolate;}.cls-3{fill:url(#linear-gradient);}.cls-4{fill:#b4ec36;}.cls-5{fill:#5ea0ef;}.cls-6{opacity:0.9;fill:url(#linear-gradient-2);}.cls-7{fill:url(#linear-gradient-3);}.cls-8{fill:#0078d4;}.cls-10,.cls-8,.cls-9{fill-rule:evenodd;}.cls-9{fill:url(#linear-gradient-4);}.cls-11{fill:none;stroke:#3c3c41;stroke-miterlimit:10;}.cls-12{fill:url(#linear-gradient-5);}.cls-13{fill:#50e6ff;}.cls-14{fill:#c3f1ff;}.cls-15{fill:#9cebff;}.cls-16{fill:url(#linear-gradient-6);}.cls-17{fill:url(#linear-gradient-7);}.cls-18{fill:url(#linear-gradient-8);}.cls-19{fill:url(#linear-gradient-9);}.cls-20{fill:url(#linear-gradient-10);}.cls-21{fill:url(#linear-gradient-11);}.cls-22{fill:#e3e3e3;}.cls-23{fill:#1e1e1e;}</style><linearGradient id="linear-gradient" x1="126.49" y1="963.39" x2="126.49" y2="926.29" gradientTransform="translate(0 -837.21)" gradientUnits="userSpaceOnUse"><stop offset="0" stop-color="#5e9624"/><stop offset="0.02" stop-color="#5f9724"/><stop offset="1" stop-color="#76bc2d"/></linearGradient><linearGradient id="linear-gradient-2" x1="26.52" y1="92.8" x2="26.52" y2="120.83" gradientTransform="matrix(1, 0, 0, -1, 0, 213)" gradientUnits="userSpaceOnUse"><stop offset="0" stop-color="#d2ebff"/><stop offset="1" stop-color="#f0fffd"/></linearGradient><linearGradient id="linear-gradient-3" x1="26.13" y1="931.16" x2="26.13" y2="955.35" gradientTransform="translate(0 -837.21)" gradientUnits="userSpaceOnUse"><stop offset="0.09" stop-color="#6cc6b9"/><stop offset="0.46" stop-color="#6ac4b7"/><stop offset="0.64" stop-color="#62bdb0"/><stop offset="0.77" stop-color="#56b1a4"/><stop offset="0.88" stop-color="#439f93"/><stop offset="0.98" stop-color="#2c897d"/><stop offset="1" stop-color="#258277"/></linearGradient><linearGradient id="linear-gradient-4" x1="26.13" y1="86.52" x2="26.13" y2="89.34" gradientTransform="matrix(1, 0, 0, -1, 0, 213)" gradientUnits="userSpaceOnUse"><stop offset="0" stop-color="#0078d4"/><stop offset="0.17" stop-color="#1c84dc"/><stop offset="0.38" stop-color="#3990e4"/><stop offset="0.59" stop-color="#4d99ea"/><stop offset="0.8" stop-color="#5a9eee"/><stop offset="1" stop-color="#5ea0ef"/></linearGradient><linearGradient id="linear-gradient-5" x1="249.56" y1="898.87" x2="249.56" y2="880.1" gradientTransform="translate(0 -837.21)" gradientUnits="userSpaceOnUse"><stop offset="0" stop-color="#0078d4"/><stop offset="0.82" stop-color="#5ea0ef"/></linearGradient><linearGradient id="linear-gradient-6" x1="249.56" y1="906.1" x2="249.56" y2="898.87" gradientTransform="translate(0 -837.21)" gradientUnits="userSpaceOnUse"><stop offset="0.15" stop-color="#ccc"/><stop offset="1" stop-color="#707070"/></linearGradient><linearGradient id="linear-gradient-7" x1="249.56" y1="952.87" x2="249.56" y2="934.1" xlink:href="#linear-gradient-5"/><linearGradient id="linear-gradient-8" x1="249.56" y1="960.1" x2="249.56" y2="952.87" xlink:href="#linear-gradient-6"/><linearGradient id="linear-gradient-9" x1="249.56" y1="1011.37" x2="249.56" y2="992.6" xlink:href="#linear-gradient-5"/><linearGradient id="linear-gradient-10" x1="249.56" y1="1018.6" x2="249.56" y2="1011.37" xlink:href="#linear-gradient-6"/><linearGradient id="linear-gradient-11" x1="220.69" y1="862.31" x2="220.69" y2="832.51" gradientTransform="translate(0 -837.21)" gradientUnits="userSpaceOnUse"><stop offset="0" stop-color="#0078d4"/><stop offset="0.16" stop-color="#1380da"/><stop offset="0.53" stop-color="#3c91e5"/><stop offset="0.82" stop-color="#559cec"/><stop offset="1" stop-color="#5ea0ef"/></linearGradient></defs><title>OJ104939024</title><g id="Shapes"><rect class="cls-1" width="325.49" height="212.9"/><path class="cls-1" d="M325.49,187.9h-105V12.9h86.4a18.59,18.59,0,0,1,18.6,18.59Z"/><path class="cls-2" d="M325.49,187.9h-105V12.9h86.4a18.59,18.59,0,0,1,18.6,18.59Z"/><path class="cls-3" d="M110.81,106.13l14.91-14.91a1.07,1.07,0,0,1,1.51,0l0,0,14.91,14.91a1.06,1.06,0,0,1,0,1.51l0,0-14.93,14.93a1.06,1.06,0,0,1-1.49,0l-14.93-14.93a1.07,1.07,0,0,1,0-1.51Z"/><path class="cls-4" d="M130.4,98l-3.77-3.75a.23.23,0,0,0-.29,0L122.58,98a.17.17,0,0,0,0,.25.18.18,0,0,0,.19.07h2.2a.2.2,0,0,1,.2.19h0v3.56a.19.19,0,0,0,.19.19h2.35a.19.19,0,0,0,.2-.19h0V98.52a.19.19,0,0,1,.19-.19h2.21a.18.18,0,0,0,.21-.13.18.18,0,0,0-.07-.19Z"/><path class="cls-4" d="M117.6,102.65l-3.73,3.78a.2.2,0,0,0,0,.27l3.73,3.75a.2.2,0,0,0,.34-.14v-2.19a.18.18,0,0,1,.19-.19h3.56a.18.18,0,0,0,.18-.18s0,0,0,0v-2.35a.16.16,0,0,0-.06-.24l-.06,0h-3.55a.18.18,0,0,1-.2-.16v-2.17a.22.22,0,0,0-.12-.27.21.21,0,0,0-.27.13Z"/><path class="cls-4" d="M135.52,110.45l3.78-3.77a.19.19,0,0,0,0-.26l-3.78-3.77a.2.2,0,0,0-.28,0,.19.19,0,0,0,0,.12V105a.18.18,0,0,1-.18.18h-3.57a.18.18,0,0,0-.18.18v2.36a.18.18,0,0,0,.16.2H135a.19.19,0,0,1,.2.19v2.21a.2.2,0,0,0,.21.17A.22.22,0,0,0,135.52,110.45Z"/><path class="cls-1" d="M131.45,106.9a5,5,0,1,0-6.3,4.74v1.69a3,3,0,1,0,2.79,0v-1.78A4.93,4.93,0,0,0,131.45,106.9Z"/><circle id="e99c3387-15c3-4f28-bd4b-cb209b430e06" class="cls-5" cx="126.5" cy="106.88" r="2.88"/><rect class="cls-6" x="4.02" y="92.17" width="45.01" height="28.04"/><path class="cls-7" d="M13.86,96.72H38.42a.75.75,0,0,1,.78.71v17.06a.75.75,0,0,1-.78.71H13.86a.76.76,0,0,1-.79-.71v-17a.76.76,0,0,1,.79-.74Z"/><path id="bd0aa3dd-0b00-4321-a08d-35d4016600a8" class="cls-1" d="M23.92,98.91H35.65a.23.23,0,0,1,.23.21v6.48a.23.23,0,0,1-.23.22H23.92a.23.23,0,0,1-.23-.22V99.11A.23.23,0,0,1,23.92,98.91Z"/><rect id="bda038fc-05f8-4c73-8191-dcc998cc8c65" class="cls-1" x="16.31" y="98.89" width="4.94" height="13.93" rx="0.22"/><path id="f698805f-4654-42cb-b2bf-38f0a925cdbf" class="cls-1" d="M31.06,107.78h4.55a.21.21,0,0,1,.21.22v4.62a.21.21,0,0,1-.21.2H31.06a.22.22,0,0,1-.22-.2V108a.22.22,0,0,1,.22-.22Z"/><path id="f83fd769-9efd-4d02-bd0d-a012d7e875a2" class="cls-1" d="M23.85,107.78h4.42a.22.22,0,0,1,.22.22h0v4.62a.2.2,0,0,1-.2.2H23.92a.21.21,0,0,1-.21-.21V108A.21.21,0,0,1,23.85,107.78Z"/><path class="cls-8" d="M4.59,93.8a1,1,0,0,1,1-1H46.68a1,1,0,0,1,1,1h0v24.3a1,1,0,0,1-1,1H5.59a1,1,0,0,1-1-1h0ZM2.32,92.63v26.59a2.15,2.15,0,0,0,2.15,2.15H47.8A2.15,2.15,0,0,0,50,119.22h0V92.63a2.15,2.15,0,0,0-2.15-2.15H4.47a2.15,2.15,0,0,0-2.15,2.15Z"/><path class="cls-9" d="M.57,123.66H51.7a.57.57,0,0,1,.57.57h0v1.68a.58.58,0,0,1-.57.57H.57a.58.58,0,0,1-.57-.57H0v-1.68a.56.56,0,0,1,.57-.57Z"/><path class="cls-10" d="M20.3,124.66H32a.16.16,0,0,1,.16.17h0v.48a.17.17,0,0,1-.16.17H20.3a.17.17,0,0,1-.16-.17h0v-.48a.16.16,0,0,1,.16-.17Z"/><line class="cls-11" x1="115.49" y1="94.07" x2="58.17" y2="94.07"/><line class="cls-11" x1="105.49" y1="105.98" x2="58.17" y2="105.98"/><line class="cls-11" x1="230.49" y1="105.98" x2="147.17" y2="105.98"/><line class="cls-11" x1="115.49" y1="117.9" x2="58.17" y2="117.9"/><rect class="cls-12" x="235.49" y="42.9" width="28.14" height="18.76" rx="0.94"/><polygon class="cls-13" points="254.25 49.54 254.25 55 249.56 57.75 249.56 52.28 254.25 49.54"/><polygon class="cls-14" points="254.25 49.54 249.56 52.29 244.87 49.54 249.56 46.8 254.25 49.54"/><polygon class="cls-15" points="249.56 52.29 249.56 57.75 244.87 55 244.87 49.54 249.56 52.29"/><polygon class="cls-14" points="244.87 55 249.56 52.28 249.56 57.75 244.87 55"/><polygon class="cls-15" points="254.25 55 249.56 52.28 249.56 57.75 254.25 55"/><path class="cls-16" d="M255.2,67.33c-2.78-.43-2.89-2.44-2.89-5.67h-5.52c0,3.23-.09,5.24-2.88,5.67a1.58,1.58,0,0,0-1.39,1.57h14.07A1.56,1.56,0,0,0,255.2,67.33Z"/><rect class="cls-17" x="235.49" y="96.9" width="28.14" height="18.76" rx="0.94"/><polygon class="cls-13" points="254.25 103.54 254.25 109 249.56 111.75 249.56 106.28 254.25 103.54"/><polygon class="cls-14" points="254.25 103.54 249.56 106.29 244.87 103.54 249.56 100.81 254.25 103.54"/><polygon class="cls-15" points="249.56 106.29 249.56 111.75 244.87 109 244.87 103.54 249.56 106.29"/><polygon class="cls-14" points="244.87 109 249.56 106.28 249.56 111.75 244.87 109"/><polygon class="cls-15" points="254.25 109 249.56 106.28 249.56 111.75 254.25 109"/><path class="cls-18" d="M255.2,121.33c-2.78-.43-2.89-2.44-2.89-5.67h-5.52c0,3.23-.09,5.24-2.88,5.67a1.58,1.58,0,0,0-1.39,1.57h14.07A1.56,1.56,0,0,0,255.2,121.33Z"/><rect class="cls-19" x="235.49" y="155.4" width="28.14" height="18.76" rx="0.94"/><polygon class="cls-13" points="254.25 162.04 254.25 167.5 249.56 170.25 249.56 164.78 254.25 162.04"/><polygon class="cls-14" points="254.25 162.04 249.56 164.79 244.87 162.04 249.56 159.31 254.25 162.04"/><polygon class="cls-15" points="249.56 164.79 249.56 170.25 244.87 167.5 244.87 162.04 249.56 164.79"/><polygon class="cls-14" points="244.87 167.5 249.56 164.78 249.56 170.25 244.87 167.5"/><polygon class="cls-15" points="254.25 167.5 249.56 164.78 249.56 170.25 254.25 167.5"/><path class="cls-20" d="M255.2,179.83c-2.78-.43-2.89-2.44-2.89-5.67h-5.52c0,3.23-.09,5.24-2.88,5.67a1.58,1.58,0,0,0-1.39,1.57h14.07A1.56,1.56,0,0,0,255.2,179.83Z"/><path class="cls-21" d="M235.69,15a6.84,6.84,0,0,0-5.85-6.66A8.56,8.56,0,0,0,221.09,0a8.76,8.76,0,0,0-8.33,5.79,8.12,8.12,0,0,0-7.07,8,8.24,8.24,0,0,0,8.45,8h14.79A6.89,6.89,0,0,0,235.69,15Z"/><circle class="cls-22" cx="214.43" cy="13.5" r="1.18"/><path class="cls-1" d="M218.59,14V13h-.13l-1-.33-.26-.65.51-1.1-.66-.67h-.14l-.95.5-.65-.26-.41-1.15h-.95v.13l-.34,1-.7.26-1.08-.51-.67.66V11l.49,1-.27.65-1.17.41v1h.14l1,.33.27.65-.52,1.1.67.67h.13l1-.49.65.27.42,1.15h1v-.13l.33-1,.65-.27,1.1.52.67-.67v-.13l-.48-1,.26-.65Zm-4.16,1.39a1.82,1.82,0,1,1,1.83-1.8,1.81,1.81,0,0,1-1.83,1.8Z"/><circle class="cls-22" cx="222.36" cy="8.4" r="1.4"/><path class="cls-1" d="M227.36,8.94V7.8h-.15L226,7.42l-.29-.85.62-1.33-.8-.8h-.15L224.21,5l-.77-.32-.5-1.38h-1.18v.17l-.4,1.21-.78.32-1.3-.62-.8.8.08.15L219,6.59l-.27.83-1.4.45V9.09h.17l1.21.4.29.75-.62,1.33.83.85.17-.08,1.13-.59.79.32.5,1.38H223v-.16l.4-1.22.78-.32,1.32.62.8-.8-.08-.15-.49-1.2.32-.78Zm-5,1.66a2.2,2.2,0,1,1,2.2-2.2h0a2.18,2.18,0,0,1-2.17,2.2Z"/><path class="cls-11" d="M230.49,52.9H210.83A8.31,8.31,0,0,0,205.71,55L169,91.94a8.24,8.24,0,0,1-5.11,2.13H138.17"/><path class="cls-11" d="M138.17,117.9h25.71a7.47,7.47,0,0,1,5,2.26l37,42.65a7.49,7.49,0,0,0,5,2.26h19.66"/><path class="cls-23" d="M93.44,152.59a1.45,1.45,0,0,1-1-.43,1.36,1.36,0,0,1-.44-1,1.5,1.5,0,0,1,1.49-1.48,1.36,1.36,0,0,1,1,.44,1.4,1.4,0,0,1,.43,1,1.46,1.46,0,0,1-1.45,1.47Z"/><path class="cls-23" d="M93.44,165.79a1.45,1.45,0,0,1-1-.43,1.36,1.36,0,0,1-.44-1,1.5,1.5,0,0,1,1.49-1.48,1.38,1.38,0,0,1,1,.43,1.44,1.44,0,0,1,.43,1,1.46,1.46,0,0,1-1.45,1.47Z"/><path class="cls-23" d="M93.44,179a1.45,1.45,0,0,1-1-.43,1.36,1.36,0,0,1-.44-1A1.5,1.5,0,0,1,93.44,176a1.38,1.38,0,0,1,1,.43,1.44,1.44,0,0,1,.43,1.05A1.46,1.46,0,0,1,93.45,179Z"/><path class="cls-23" d="M93.44,192.19a1.45,1.45,0,0,1-1-.43,1.36,1.36,0,0,1-.44-1,1.5,1.5,0,0,1,1.49-1.48,1.38,1.38,0,0,1,1,.43,1.44,1.44,0,0,1,.43,1.05,1.46,1.46,0,0,1-1.45,1.47Z"/><path class="cls-23" d="M93.44,205.39a1.45,1.45,0,0,1-1-.43,1.36,1.36,0,0,1-.44-1,1.5,1.5,0,0,1,1.49-1.48,1.38,1.38,0,0,1,1,.43,1.44,1.44,0,0,1,.43,1,1.46,1.46,0,0,1-1.45,1.47Z"/></g><g id="txt"><path class="cls-23" d="M96.62,139.15a2.64,2.64,0,0,1-.82,2,3.13,3.13,0,0,1-2.19.75,3.5,3.5,0,0,1-1.79-.36v-1a3.34,3.34,0,0,0,1.8.57,2,2,0,0,0,1.49-.53,1.82,1.82,0,0,0,.57-1.39,1.63,1.63,0,0,0-.58-1.35,2.5,2.5,0,0,0-1.65-.48,11.92,11.92,0,0,0-1.46.09l.29-4.32h4V134H93.12l-.19,2.6c.3,0,.58,0,.83,0a3,3,0,0,1,2.1.69A2.48,2.48,0,0,1,96.62,139.15Z"/><path class="cls-23" d="M105.15,142.83v-4.05h-2.71V138h10.49v.78h-2.71v4.05h-.88v-4.05H106v4.05Zm-1-6.14v-4.8h7.11v.78H105v1.23h6.08v.78H105v1.25h6.42v.76Z"/><path class="cls-23" d="M114.44,137.26v-.78h10.49v.78Zm1.14-1.79v-.76h1.69l-.1-1.76H118l.12,1.76h3.07l.12-1.76h.86l-.1,1.76h1.69v.76Zm.14-2.93v-.76h7.93v.76Zm.45,10V140h6.17v-1h-6.17v-.77h7v2.52H117v1h6.47v.78Z"/><path class="cls-23" d="M130.68,134.34v-.78h2.51v-1.75h.88v1.75h2.51v.78Zm3,5.76a2.5,2.5,0,0,1-1.79-.7,2.36,2.36,0,0,1-.73-1.79,2.41,2.41,0,0,1,.72-1.78,2.65,2.65,0,0,1,3.59,0,2.38,2.38,0,0,1,.72,1.78,2.34,2.34,0,0,1-.73,1.79A2.44,2.44,0,0,1,133.66,140.1Zm0-4.2a1.63,1.63,0,0,0-1.22.48,1.72,1.72,0,0,0-.46,1.23,1.67,1.67,0,0,0,.47,1.24,1.6,1.6,0,0,0,1.21.48,1.64,1.64,0,0,0,1.21-.48,1.86,1.86,0,0,0,0-2.47A1.62,1.62,0,0,0,133.66,135.9Zm5.84,6.93v-5.31h-1.34v5h-.86V131.75h.86v5h1.34v-5.21h.88v11.3Z"/><path class="cls-23" d="M149,140a9.41,9.41,0,0,1-1.78-1.83,6.12,6.12,0,0,1-1.05-1.89,7,7,0,0,1-1.07,2,9.08,9.08,0,0,1-1.75,1.84l-.67-.59a7,7,0,0,0,2.22-2.39,6,6,0,0,0,.82-3v-1.85h.87v1.81a5.6,5.6,0,0,0,.82,2.87,6.63,6.63,0,0,0,2.21,2.29Zm2.21,2.86v-11.3h.88v11.3Z"/><path class="cls-23" d="M111.05,150.68c-.57,0-1.62.09-3.14.16v2.43H107v-2.39c-1.51.05-2.62.08-3.33.08l-.13-.82q4.28,0,7.41-.21Zm-3.62-1.44a3.1,3.1,0,0,1-2-.62,1.91,1.91,0,0,1,0-3.07,3.67,3.67,0,0,1,4,0,1.91,1.91,0,0,1,0,3.07A3.09,3.09,0,0,1,107.43,149.24Zm-2.09,6.49v-3.38h.88V155H113v.77Zm2.09-10a2.2,2.2,0,0,0-1.4.42,1.19,1.19,0,0,0,0,2,2.49,2.49,0,0,0,2.8,0,1.18,1.18,0,0,0,0-2A2.2,2.2,0,0,0,107.43,145.68Zm4.41,8v-1.21h-2.47v-.78h2.47v-7h.89v8.94Z"/><path class="cls-23" d="M115.26,151.68v-.79h4.8v-1.45h-3v-4.38h.87v1.45h5.18v-1.45H124v4.38h-3v1.45h4.8v.79Zm1.72,4V152.4h.87v2.47h6.41v.78Zm6.12-8.36h-5.18v1.38h5.18Z"/><path class="cls-23" d="M132.82,155h-.95v-8.63h.95Z"/><path class="cls-23" d="M136.05,151.7V155h-.94v-8.63h2.32a3.07,3.07,0,0,1,2.12.68,2.39,2.39,0,0,1,.76,1.89,2.59,2.59,0,0,1-.89,2,3,3,0,0,1-2.21.74Zm0-4.47v3.59h1.09a2.45,2.45,0,0,0,1.62-.48,1.71,1.71,0,0,0,.55-1.37c0-1.16-.68-1.74-2.05-1.74Z"/><path class="cls-23" d="M111.05,163.88c-.57,0-1.62.09-3.14.16v2.43H107v-2.39c-1.51,0-2.62.08-3.33.08l-.13-.81c2.85,0,5.32-.08,7.41-.22Zm-3.62-1.44a3.1,3.1,0,0,1-2-.62,1.9,1.9,0,0,1-.78-1.54,1.92,1.92,0,0,1,.77-1.53,3.67,3.67,0,0,1,4,0,1.92,1.92,0,0,1,0,3.08A3.15,3.15,0,0,1,107.43,162.44Zm-2.09,6.5v-3.39h.88v2.61H113v.78Zm2.09-10.06a2.2,2.2,0,0,0-1.4.42,1.19,1.19,0,0,0,0,2,2.49,2.49,0,0,0,2.8,0,1.18,1.18,0,0,0,0-2A2.2,2.2,0,0,0,107.43,158.88Zm4.41,8v-1.21h-2.47v-.78h2.47v-6.95h.89v8.94Z"/><path class="cls-23" d="M115.26,164.88v-.79h4.8v-1.45h-3v-4.37h.87v1.44h5.18v-1.44H124v4.37h-3v1.45h4.8v.79Zm1.72,4V165.6h.87v2.47h6.41v.78Zm6.12-8.36h-5.18v1.38h5.18Z"/><path class="cls-23" d="M139.15,163.53H141v.79h-3.83v2.44H142v.78H131.48v-.78h4.8v-2.44h-3.83v-.79h1.85l-.14-3.17H135l.16,3.17h3.09l.16-3.17h.86ZM132.59,159h8.27v.77h-8.27Z"/><path class="cls-23" d="M143.48,167.46v-.78H154v.78Zm8.87-7.66H146v1.64h6v.77h-6v1.55h6.49v.78h-7.36V159h7.18Z"/><path class="cls-23" d="M108.86,179.22c-1.09.12-2.69.17-4.81.17v-7.26h4.34v.78h-3.47v5.7h1a24,24,0,0,0,2.85-.13Zm3.15,3.22v-5.88h-1.45v5.53h-.86V171.37h.86v4.41H112v-4.64h.88v11.3Z"/><path class="cls-23" d="M121.26,177a7.05,7.05,0,0,1-1.54-1.16,4.76,4.76,0,0,1-1.11-1.4,5.49,5.49,0,0,1-1.09,1.56,6.52,6.52,0,0,1-1.61,1.29l-.64-.6a5.73,5.73,0,0,0,2.07-1.71,3.83,3.83,0,0,0,.83-2.31v-1.19H119v1.19a3.42,3.42,0,0,0,.83,2.17,5,5,0,0,0,2,1.52Zm-.64,5.31a5,5,0,0,1-2.72-.62,1.78,1.78,0,0,1,0-3.16,6.39,6.39,0,0,1,5.45,0,1.81,1.81,0,0,1,1,1.58,1.83,1.83,0,0,1-1,1.59A5.16,5.16,0,0,1,120.62,182.35Zm0-3.64a4.2,4.2,0,0,0-2,.4,1.16,1.16,0,0,0-.71,1,1.17,1.17,0,0,0,.72,1,4.16,4.16,0,0,0,2,.4,4.23,4.23,0,0,0,2-.4,1.2,1.2,0,0,0,.72-1,1.18,1.18,0,0,0-.72-1A4.23,4.23,0,0,0,120.62,178.71Zm3.5-3.68v2.62h-.88v-6.51h.88v3.09h1.7v.8Z"/><path class="cls-23" d="M132.82,181.38h-.95v-8.62h.95Z"/><path class="cls-23" d="M136.05,178.11v3.27h-.94v-8.62h2.32a3.06,3.06,0,0,1,2.12.67,2.39,2.39,0,0,1,.76,1.9,2.59,2.59,0,0,1-.89,2,3.06,3.06,0,0,1-2.21.74Zm0-4.47v3.58h1.09a2.45,2.45,0,0,0,1.62-.48,1.7,1.7,0,0,0,.55-1.37c0-1.15-.68-1.73-2.05-1.73Z"/><path class="cls-23" d="M108.86,192.42c-1.09.11-2.69.17-4.81.17v-7.26h4.34v.78h-3.47v5.7h1a23.69,23.69,0,0,0,2.85-.14Zm3.15,3.21v-5.87h-1.45v5.53h-.86V184.56h.86V189H112v-4.65h.88v11.3Z"/><path class="cls-23" d="M121.26,190.24a7.76,7.76,0,0,1-1.54-1.16,5,5,0,0,1-1.11-1.4,5.46,5.46,0,0,1-1.09,1.55,6.52,6.52,0,0,1-1.61,1.29l-.64-.6a5.54,5.54,0,0,0,2.07-1.71,3.83,3.83,0,0,0,.83-2.31v-1.18H119v1.18a3.38,3.38,0,0,0,.83,2.17,5.12,5.12,0,0,0,2,1.53Zm-.64,5.3a5.05,5.05,0,0,1-2.72-.61,1.83,1.83,0,0,1-1-1.59,1.8,1.8,0,0,1,1-1.57,5.08,5.08,0,0,1,2.72-.61,5.17,5.17,0,0,1,2.73.6,1.79,1.79,0,0,1,0,3.17A5.07,5.07,0,0,1,120.62,195.54Zm0-3.64a4.2,4.2,0,0,0-2,.4,1.17,1.17,0,0,0-.71,1,1.2,1.2,0,0,0,.72,1.06,4.27,4.27,0,0,0,2,.4,4.22,4.22,0,0,0,2-.41,1.17,1.17,0,0,0,.72-1,1.19,1.19,0,0,0-.72-1A4.35,4.35,0,0,0,120.62,191.9Zm3.5-3.68v2.63h-.88v-6.52h.88v3.09h1.7v.8Z"/><path class="cls-23" d="M139.15,189.93H141v.79h-3.83v2.44H142v.78H131.48v-.78h4.8v-2.44h-3.83v-.79h1.85l-.14-3.17H135l.16,3.17h3.09l.16-3.17h.86Zm-6.56-4.53h8.27v.77h-8.27Z"/><path class="cls-23" d="M143.48,193.86v-.78H154v.78Zm8.87-7.66H146v1.63h6v.78h-6v1.55h6.49v.78h-7.36v-5.51h7.18Z"/><path class="cls-23" d="M103.26,207v-.78h10.49V207Zm7.61-3.88h1.91v.77h-8.55v-.77h1.89L106,200h.86l.14,3.18h3l.17-3.18H111Zm-6.49-4.55h8.26v.78h-8.26Z"/><path class="cls-23" d="M116.84,201h6.4v-1.67h-6.37v-.76h7.25v3.19h-6.39v1.87h6.71v.78H121v2h4.8v.78H115.26v-.78h4.81v-2h-3.23Z"/><path class="cls-23" d="M127.26,207.14v-.78h4.8V204h-3.14v-5.4h7.24v.78h-6.38v1.5H136v.76h-6.18v1.59h6.56V204H133v2.37h4.8v.78Z"/><path class="cls-23" d="M139.26,203.07v-.78h4.46v-1.44h.86v1.44h5.17v.78Zm1.46-2.47-.19-.81,6.86-.24v-1H141v-.76h7.24a37.54,37.54,0,0,1-.14,3.9l-.84-.06c0-.23.05-.69.07-1.37Zm.27,8V206h6.17v-1.07H141v-.76h7v2.58h-6.17v1.08h6.47v.78Z"/><path class="cls-23" d="M241.26,29.13A9.32,9.32,0,0,1,237,36.75l-.7-.6A7.63,7.63,0,0,0,239,33.57a7.35,7.35,0,0,0,1.3-3.67H237v-.77Zm3.67,10.32V33.84h-1.4V39.1h-.87V28.38h.87v4.68h1.4V28.15h.87v11.3Z"/><path class="cls-23" d="M252.06,34.32a3,3,0,0,1-2.12-.8,2.76,2.76,0,0,1-.85-2.07,2.66,2.66,0,0,1,.85-2.07,3.21,3.21,0,0,1,4.23,0,3,3,0,0,1,0,4.15A3,3,0,0,1,252.06,34.32Zm0-5a2.07,2.07,0,0,0-1.51.57,2.28,2.28,0,0,0,0,3,2.29,2.29,0,0,0,3,0,2.28,2.28,0,0,0,0-3A2.07,2.07,0,0,0,252.06,29.36ZM250.51,39V35.35h.88v2.88h6.55V39Zm6.25-2.62V28.15h.88V36.4Z"/><path class="cls-23" d="M265.8,38.4h-.95V29.77h.95Z"/><path class="cls-23" d="M269,35.12V38.4h-.94V29.77h2.32a3.11,3.11,0,0,1,2.12.67,2.39,2.39,0,0,1,.76,1.9,2.59,2.59,0,0,1-.89,2,3,3,0,0,1-2.21.74Zm0-4.47v3.59h1.09a2.39,2.39,0,0,0,1.62-.49,1.7,1.7,0,0,0,.55-1.37c0-1.15-.68-1.73-2.05-1.73Z"/><path class="cls-23" d="M273.58,37l-1,3H272l.71-3Z"/><path class="cls-23" d="M287,33.75h1.85v.78H285V37h4.8v.78H279.33V37h4.8V34.53H280.3v-.78h1.85L282,30.57h.86l.16,3.18h3.09l.16-3.18h.86Zm-6.55-4.54h8.26V30h-8.26Z"/><path class="cls-23" d="M291.33,37.67V36.9h10.49v.77ZM300.2,30h-6.31v1.63h6v.78h-6V34h6.49v.78H293V29.25h7.17Z"/><path class="cls-23" d="M275.47,49.41,272.26,58h-1l-3.14-8.62h1.06l2.43,6.9a4.19,4.19,0,0,1,.17.75h0a4.11,4.11,0,0,1,.19-.77l2.49-6.88Z"/><path class="cls-23" d="M284.5,58V52.21c0-.45,0-1,.09-1.66h0a5.05,5.05,0,0,1-.25.81l-3,6.67h-.42l-3-6.62a4,4,0,0,1-.25-.86h0a16.15,16.15,0,0,1,0,1.64V58h-.92V49.41H278l2.7,6.08a8.44,8.44,0,0,1,.4,1h0c.06-.16.2-.5.42-1l2.76-6.05h1.17V58Z"/><path class="cls-23" d="M241.26,83.13A9.32,9.32,0,0,1,237,90.75l-.7-.6A7.63,7.63,0,0,0,239,87.57a7.35,7.35,0,0,0,1.3-3.67H237v-.77Zm3.67,10.32V87.84h-1.4V93.1h-.87V82.38h.87v4.68h1.4V82.15h.87v11.3Z"/><path class="cls-23" d="M252.06,88.32a3,3,0,0,1-2.12-.8,2.76,2.76,0,0,1-.85-2.07,2.68,2.68,0,0,1,.85-2.07,3.21,3.21,0,0,1,4.23,0,3,3,0,0,1,0,4.15A3,3,0,0,1,252.06,88.32Zm0-5a2.07,2.07,0,0,0-1.51.57,2.28,2.28,0,0,0,0,3,2.29,2.29,0,0,0,3,0,2.28,2.28,0,0,0,0-3A2.07,2.07,0,0,0,252.06,83.36ZM250.51,93V89.35h.88v2.88h6.55V93Zm6.25-2.62V82.15h.88V90.4Z"/><path class="cls-23" d="M265.8,92.4h-.95V83.77h.95Z"/><path class="cls-23" d="M269,89.12V92.4h-.94V83.77h2.32a3.11,3.11,0,0,1,2.12.67,2.39,2.39,0,0,1,.76,1.9,2.59,2.59,0,0,1-.89,2,3,3,0,0,1-2.21.74Zm0-4.47v3.59h1.09a2.45,2.45,0,0,0,1.62-.48,1.72,1.72,0,0,0,.55-1.38c0-1.15-.68-1.73-2.05-1.73Z"/><path class="cls-23" d="M273.58,91l-1,2.95H272l.71-2.95Z"/><path class="cls-23" d="M287,87.75h1.85v.78H285V91h4.8v.78H279.33V91h4.8V88.53H280.3v-.78h1.85L282,84.57h.86l.16,3.18h3.09l.16-3.18h.86Zm-6.55-4.54h8.26V84h-8.26Z"/><path class="cls-23" d="M291.33,91.68V90.9h10.49v.78ZM300.2,84h-6.31v1.63h6v.78h-6V88h6.49v.78H293V83.25h7.17Z"/><path class="cls-23" d="M275.47,103.41,272.26,112h-1l-3.14-8.62h1.06l2.43,6.9a4.19,4.19,0,0,1,.17.75h0a4.11,4.11,0,0,1,.19-.77l2.49-6.88Z"/><path class="cls-23" d="M284.5,112v-5.82c0-.45,0-1,.09-1.66h0a5.05,5.05,0,0,1-.25.81l-3,6.67h-.42l-3-6.62a4,4,0,0,1-.25-.86h0a16.15,16.15,0,0,1,0,1.64V112h-.92v-8.62H278l2.7,6.08a8.44,8.44,0,0,1,.4,1h0c.06-.16.2-.5.42-1l2.76-6h1.17V112Z"/><path class="cls-23" d="M241.26,141.63a9.31,9.31,0,0,1-4.25,7.62l-.7-.6a7.55,7.55,0,0,0,2.72-2.58,7.35,7.35,0,0,0,1.3-3.67H237v-.77ZM244.93,152v-5.61h-1.4v5.27h-.87V140.88h.87v4.68h1.4v-4.91h.87V152Z"/><path class="cls-23" d="M252.06,146.82a3,3,0,0,1-2.12-.8,2.74,2.74,0,0,1-.85-2.07,2.69,2.69,0,0,1,.85-2.07,3.21,3.21,0,0,1,4.23,0,3,3,0,0,1,0,4.15A3,3,0,0,1,252.06,146.82Zm0-5a2.07,2.07,0,0,0-1.51.57,2.28,2.28,0,0,0,0,3,2.29,2.29,0,0,0,3,0,2.28,2.28,0,0,0,0-3A2.07,2.07,0,0,0,252.06,141.86Zm-1.55,9.66v-3.67h.88v2.88h6.55v.79Zm6.25-2.62v-8.25h.88v8.25Z"/><path class="cls-23" d="M265.8,150.9h-.95v-8.63h.95Z"/><path class="cls-23" d="M269,147.62v3.28h-.94v-8.63h2.32a3.07,3.07,0,0,1,2.12.68,2.37,2.37,0,0,1,.76,1.89,2.59,2.59,0,0,1-.89,2,3,3,0,0,1-2.21.74Zm0-4.47v3.59h1.09a2.45,2.45,0,0,0,1.62-.48,1.72,1.72,0,0,0,.55-1.38c0-1.15-.68-1.73-2.05-1.73Z"/><path class="cls-23" d="M273.58,149.54l-1,3H272l.71-3Z"/><path class="cls-23" d="M287,146.25h1.85V147H285v2.44h4.8v.78H279.33v-.78h4.8V147H280.3v-.79h1.85l-.14-3.18h.86l.16,3.18h3.09l.16-3.18h.86Zm-6.55-4.54h8.26v.77h-8.26Z"/><path class="cls-23" d="M291.33,150.18v-.78h10.49v.78Zm8.87-7.66h-6.31v1.63h6v.78h-6v1.55h6.49v.78H293v-5.51h7.17Z"/><path class="cls-23" d="M275.47,161.91l-3.21,8.63h-1l-3.14-8.63h1.06l2.43,6.9a4.19,4.19,0,0,1,.17.75h0a4.11,4.11,0,0,1,.19-.77l2.49-6.88Z"/><path class="cls-23" d="M284.5,170.54v-5.83c0-.45,0-1,.09-1.66h0a4.73,4.73,0,0,1-.25.81l-3,6.68h-.42l-3-6.63a4,4,0,0,1-.25-.86h0a16.15,16.15,0,0,1,0,1.64v5.85h-.92v-8.63H278l2.7,6.08a7.77,7.77,0,0,1,.4,1h0l.42-1,2.76-6.05h1.17v8.63Z"/></g></svg>