<svg xmlns="http://www.w3.org/2000/svg" xmlns:xlink="http://www.w3.org/1999/xlink" viewBox="0 0 240.5 395.47"><defs><style>.cls-1{fill:#fff;}.cls-2,.cls-3,.cls-9{fill:#3c3c41;}.cls-2{opacity:0.05;}.cls-2,.cls-9{isolation:isolate;}.cls-4{fill:url(#linear-gradient);}.cls-5{fill:url(#linear-gradient-2);}.cls-6{fill:url(#linear-gradient-3);}.cls-7{fill:#50e6ff;}.cls-8{fill:#1490df;}.cls-9{opacity:0.25;}.cls-10{fill:url(#linear-gradient-4);}.cls-11{fill:url(#linear-gradient-5);}.cls-12{fill:#b4ec36;}.cls-13{fill:#5ea0ef;}.cls-14{fill:url(#linear-gradient-6);}.cls-15{fill:#c3f1ff;}.cls-16{fill:#9cebff;}.cls-17{fill:url(#linear-gradient-7);}.cls-18{fill:url(#linear-gradient-8);}.cls-19{fill:url(#linear-gradient-9);}.cls-20{fill:url(#linear-gradient-10);}.cls-21{fill:url(#linear-gradient-11);}.cls-22{fill:none;stroke:#3c3c41;stroke-miterlimit:10;}.cls-23{fill:url(#linear-gradient-12);}.cls-24{fill:url(#linear-gradient-13);}.cls-25{fill:url(#linear-gradient-14);}.cls-26{fill:url(#linear-gradient-15);}.cls-27{fill:url(#linear-gradient-16);}.cls-28{fill:url(#linear-gradient-17);}.cls-29{fill:url(#linear-gradient-18);}.cls-30{fill:#1e1e1e;}</style><linearGradient id="linear-gradient" x1="21.67" y1="639.04" x2="24.04" y2="641.41" gradientTransform="translate(2.11 -270.55) rotate(-0.08)" gradientUnits="userSpaceOnUse"><stop offset="0" stop-color="#86d633"/><stop offset="0.24" stop-color="#83d232"/><stop offset="0.5" stop-color="#7cc52f"/><stop offset="0.76" stop-color="#6fb02a"/><stop offset="1" stop-color="#5e9624"/></linearGradient><linearGradient id="linear-gradient-2" x1="16.33" y1="639.04" x2="18.69" y2="641.41" xlink:href="#linear-gradient"/><linearGradient id="linear-gradient-3" x1="10.99" y1="639.04" x2="13.35" y2="641.4" xlink:href="#linear-gradient"/><linearGradient id="linear-gradient-4" x1="149.14" y1="265.29" x2="149.14" y2="301.06" gradientTransform="translate(0 -269.39)" gradientUnits="userSpaceOnUse"><stop offset="0.18" stop-color="#5ea0ef"/><stop offset="1" stop-color="#0078d4"/></linearGradient><linearGradient id="linear-gradient-5" x1="149.14" y1="380.98" x2="149.14" y2="343.89" gradientTransform="translate(0 -269.39)" gradientUnits="userSpaceOnUse"><stop offset="0" stop-color="#5e9624"/><stop offset="0.02" stop-color="#5f9724"/><stop offset="1" stop-color="#76bc2d"/></linearGradient><linearGradient id="linear-gradient-6" x1="148.74" y1="438.34" x2="148.74" y2="416.7" gradientTransform="translate(0 -269.39)" gradientUnits="userSpaceOnUse"><stop offset="0" stop-color="#0078d4"/><stop offset="0.82" stop-color="#5ea0ef"/></linearGradient><linearGradient id="linear-gradient-7" x1="148.74" y1="446.7" x2="148.74" y2="438.34" gradientTransform="translate(0 -269.39)" gradientUnits="userSpaceOnUse"><stop offset="0.15" stop-color="#ccc"/><stop offset="1" stop-color="#707070"/></linearGradient><linearGradient id="linear-gradient-8" x1="96.24" y1="438.34" x2="96.24" y2="416.7" xlink:href="#linear-gradient-6"/><linearGradient id="linear-gradient-9" x1="96.24" y1="446.7" x2="96.24" y2="438.34" xlink:href="#linear-gradient-7"/><linearGradient id="linear-gradient-10" x1="201.24" y1="438.34" x2="201.24" y2="416.7" xlink:href="#linear-gradient-6"/><linearGradient id="linear-gradient-11" x1="201.24" y1="446.7" x2="201.24" y2="438.34" xlink:href="#linear-gradient-7"/><linearGradient id="linear-gradient-12" x1="149.14" y1="533.3" x2="149.14" y2="496.2" xlink:href="#linear-gradient-5"/><linearGradient id="linear-gradient-13" x1="148.74" y1="588.34" x2="148.74" y2="566.7" xlink:href="#linear-gradient-6"/><linearGradient id="linear-gradient-14" x1="148.74" y1="596.7" x2="148.74" y2="588.34" xlink:href="#linear-gradient-7"/><linearGradient id="linear-gradient-15" x1="96.24" y1="588.34" x2="96.24" y2="566.7" xlink:href="#linear-gradient-6"/><linearGradient id="linear-gradient-16" x1="96.24" y1="596.7" x2="96.24" y2="588.34" xlink:href="#linear-gradient-7"/><linearGradient id="linear-gradient-17" x1="201.24" y1="588.34" x2="201.24" y2="566.7" xlink:href="#linear-gradient-6"/><linearGradient id="linear-gradient-18" x1="201.24" y1="596.7" x2="201.24" y2="588.34" xlink:href="#linear-gradient-7"/></defs><title>OJ104939016</title><g id="shapes"><rect class="cls-1" width="240.5" height="395.47"/><rect class="cls-1" x="0.5" y="64.8" width="240" height="305" rx="5"/><rect class="cls-2" x="0.5" y="64.8" width="240" height="305" rx="5"/><path class="cls-3" d="M234.34,370.3h-1v-1h1Zm-3,0h-1v-1h1Zm-3,0h-1v-1h1Zm-3,0h-1v-1h1Zm-3,0h-1v-1h1Zm-3,0h-1v-1h1Zm-3,0h-1v-1h1Zm-3,0h-1v-1h1Zm-3,0h-1v-1h1Zm-3,0h-1v-1h1Zm-3,0h-1v-1h1Zm-3,0h-1v-1h1Zm-3,0h-1v-1h1Zm-3,0h-1v-1h1Zm-3,0h-1v-1h1Zm-3,0h-1v-1h1Zm-3,0h-1v-1h1Zm-3,0h-1v-1h1Zm-3,0h-1v-1h1Zm-3,0h-1v-1h1Zm-3,0h-1v-1h1Zm-3,0h-1v-1h1Zm-3,0h-1v-1h1Zm-3,0h-1v-1h1Zm-3,0h-1v-1h1Zm-3,0h-1v-1h1Zm-3,0h-1v-1h1Zm-3,0h-1v-1h1Zm-3,0h-1v-1h1Zm-3,0h-1v-1h1Zm-3,0h-1v-1h1Zm-3,0h-1v-1h1Zm-3,0h-1v-1h1Zm-3,0h-1v-1h1Zm-3,0h-1v-1h1Zm-3,0h-1v-1h1Zm-3,0h-1v-1h1Zm-3,0h-1v-1h1Zm-3,0h-1v-1h1Zm-3,0h-1v-1h1Zm-3,0h-1v-1h1Zm-3,0h-1v-1h1Zm-3,0h-1v-1h1Zm-3,0h-1v-1h1Zm-3,0h-1v-1h1Zm-3,0h-1v-1h1Zm-3,0h-1v-1h1Zm-3,0h-1v-1h1Zm-3,0h-1v-1h1Zm-3,0h-1v-1h1Zm-3,0h-1v-1h1Zm-3,0h-1v-1h1Zm-3,0h-1v-1h1Zm-3,0h-1v-1h1Zm-3,0h-1v-1h1Zm-3,0h-1v-1h1Zm-3,0h-1v-1h1Zm-3,0h-1v-1h1Zm-3,0h-1v-1h1Zm-3,0h-1v-1h1Zm-3,0h-1v-1h1Zm-3,0h-1v-1h1Zm-3,0h-1v-1h1Zm-3,0h-1v-1h1Zm-3,0h-1v-1h1Zm-3,0h-1v-1h1Zm-3,0h-1v-1h1Zm-30,0H5.5a4,4,0,0,1-.49,0l.09-1h1Zm230.36-.07-.16-1a4.4,4.4,0,0,0,.86-.24l.36.93a5.37,5.37,0,0,1-1.06.3ZM2.91,369.65A6,6,0,0,1,2,369l.64-.77a4.26,4.26,0,0,0,.75.5Zm236.41-.9-.69-.72a4.82,4.82,0,0,0,.58-.69l.82.57a5.64,5.64,0,0,1-.71.84ZM.63,367.34a5.09,5.09,0,0,1-.42-1l1-.27a4.48,4.48,0,0,0,.33.83Zm240.26-1.44-1-.2a4.58,4.58,0,0,0,.09-.9l1-.05v.05A5.78,5.78,0,0,1,240.89,365.9ZM1,364.2H0v-1H1Zm240-1.46h-1v-1h1ZM1,361.2H0v-1H1Zm240-1.46h-1v-1h1ZM1,358.19H0v-1H1Zm240-1.45h-1v-1h1ZM1,355.19H0v-1H1Zm240-1.46h-1v-1h1ZM1,352.19H0v-1H1Zm240-1.46h-1v-1h1ZM1,349.18H0v-1H1Zm240-1.46h-1v-1h1ZM1,346.18H0v-1H1Zm240-1.46h-1v-1h1ZM1,343.17H0v-1H1Zm240-1.45h-1v-1h1ZM1,340.17H0v-1H1Zm240-1.46h-1v-1h1ZM1,337.17H0v-1H1Zm240-1.46h-1v-1h1ZM1,334.16H0v-1H1Zm240-1.46h-1v-1h1ZM1,331.16H0v-1H1Zm240-1.46h-1v-1h1ZM1,328.16H0v-1H1Zm240-1.46h-1v-1h1ZM1,325.15H0v-1H1Zm240-1.46h-1v-1h1ZM1,322.15H0v-1H1Zm240-1.46h-1v-1h1ZM1,319.14H0v-1H1Zm240-1.45h-1v-1h1ZM1,316.14H0v-1H1Zm240-1.46h-1v-1h1ZM1,313.14H0v-1H1Zm240-1.46h-1v-1h1ZM1,310.13H0v-1H1Zm240-1.46h-1v-1h1ZM1,307.13H0v-1H1Zm240-1.46h-1v-1h1ZM1,304.13H0v-1H1Zm240-1.46h-1v-1h1ZM1,301.12H0v-1H1Zm240-1.46h-1v-1h1ZM1,298.12H0v-1H1Zm240-1.46h-1v-1h1ZM1,295.11H0v-1H1Zm240-1.45h-1v-1h1ZM1,292.11H0v-1H1Zm240-1.46h-1v-1h1ZM1,289.11H0v-1H1Zm240-1.46h-1v-1h1ZM1,286.1H0v-1H1Zm240-1.46h-1v-1h1ZM1,283.1H0v-1H1Zm240-1.46h-1v-1h1ZM1,280.1H0v-1H1Zm240-1.46h-1v-1h1ZM1,277.09H0v-1H1Zm240-1.46h-1v-1h1ZM1,274.09H0v-1H1Zm240-1.46h-1v-1h1ZM1,271.08H0v-1H1Zm240-1.45h-1v-1h1ZM1,268.08H0v-1H1Zm240-1.46h-1v-1h1ZM1,265.08H0v-1H1Zm240-1.46h-1v-1h1ZM1,262.07H0v-1H1Zm240-1.45h-1v-1h1ZM1,259.07H0v-1H1Zm240-1.46h-1v-1h1ZM1,256.07H0v-1H1Zm240-1.46h-1v-1h1ZM1,253.06H0v-1H1Zm240-1.46h-1v-1h1ZM1,250.06H0v-1H1Zm240-1.46h-1v-1h1ZM1,247.05H0v-1H1Zm240-1.45h-1v-1h1ZM1,244.05H0v-1H1Zm240-1.46h-1v-1h1ZM1,241.05H0v-1H1Zm240-1.46h-1v-1h1ZM1,238H0v-1H1Zm240-1.46h-1v-1h1ZM1,235H0v-1H1Zm240-1.46h-1v-1h1ZM1,232H0v-1H1Zm240-1.46h-1v-1h1ZM1,229H0v-1H1Zm240-1.46h-1v-1h1ZM1,226H0v-1H1Zm240-1.46h-1v-1h1ZM1,223H0v-1H1Zm240-1.45h-1v-1h1ZM1,220H0v-1H1Zm240-1.46h-1v-1h1ZM1,217H0v-1H1Zm240-1.46h-1v-1h1ZM1,214H0v-1H1Zm240-1.45h-1v-1h1ZM1,211H0v-1H1Zm240-1.46h-1v-1h1ZM1,208H0v-1H1Zm240-1.46h-1v-1h1ZM1,205H0v-1H1Zm240-1.46h-1v-1h1ZM1,202H0v-1H1Zm240-1.46h-1v-1h1ZM1,199H0v-1H1Zm240-1.45h-1v-1h1ZM1,196H0v-1H1Zm240-1.46h-1v-1h1ZM1,193H0v-1H1Zm240-1.46h-1v-1h1ZM1,190H0v-1H1Zm240-1.46h-1v-1h1ZM1,187H0v-1H1Zm240-1.46h-1v-1h1ZM1,184H0v-1H1Zm240-1.46h-1v-1h1ZM1,181H0v-1H1Zm240-1.46h-1v-1h1ZM1,178H0v-1H1Zm240-1.46h-1v-1h1ZM1,175H0v-1H1Zm240-1.45h-1v-1h1ZM1,172H0v-1H1Zm240-1.46h-1v-1h1ZM1,169H0v-1H1Zm240-1.46h-1v-1h1ZM1,166H0v-1H1Zm240-1.45h-1v-1h1ZM1,163H0v-1H1Zm240-1.46h-1v-1h1ZM1,160H0v-1H1Zm240-1.46h-1v-1h1ZM1,156.94H0v-1H1Zm240-1.46h-1v-1h1ZM1,153.94H0v-1H1Zm240-1.46h-1v-1h1ZM1,150.93H0v-1H1Zm240-1.45h-1v-1h1ZM1,147.93H0v-1H1Zm240-1.46h-1v-1h1ZM1,144.93H0v-1H1Zm240-1.46h-1v-1h1ZM1,141.92H0v-1H1Zm240-1.46h-1v-1h1ZM1,138.92H0v-1H1Zm240-1.46h-1v-1h1ZM1,135.92H0v-1H1Zm240-1.46h-1v-1h1ZM1,132.91H0v-1H1Zm240-1.46h-1v-1h1ZM1,129.91H0v-1H1Zm240-1.46h-1v-1h1ZM1,126.9H0v-1H1Zm240-1.45h-1v-1h1ZM1,123.9H0v-1H1Zm240-1.46h-1v-1h1ZM1,120.9H0v-1H1Zm240-1.46h-1v-1h1ZM1,117.89H0v-1H1Zm240-1.46h-1v-1h1ZM1,114.89H0v-1H1Zm240-1.46h-1v-1h1ZM1,111.89H0v-1H1Zm240-1.46h-1v-1h1ZM1,108.88H0v-1H1Zm240-1.46h-1v-1h1ZM1,105.88H0v-1H1Zm240-1.46h-1v-1h1ZM1,102.87H0v-1H1Zm240-1.45h-1v-1h1ZM1,99.87H0v-1H1Zm240-1.46h-1v-1h1ZM1,96.87H0v-1H1Zm240-1.46h-1v-1h1ZM1,93.86H0v-1H1ZM241,92.4h-1v-1h1ZM1,90.86H0v-1H1ZM241,89.4h-1v-1h1ZM1,87.86H0v-1H1ZM241,86.4h-1v-1h1ZM1,84.85H0v-1H1Zm240-1.46h-1v-1h1ZM1,81.85H0v-1H1Zm240-1.46h-1v-1h1ZM1,78.84H0v-1H1Zm240-1.45h-1v-1h1ZM1,75.84H0v-1H1Zm240-1.46h-1v-1h1ZM1,72.84H0v-1H1Zm240-1.46h-1v-1h1ZM0,69.83v0a5.44,5.44,0,0,1,.1-1.06l1,.2A4.91,4.91,0,0,0,1,69.8Zm239.82-1.29a5.09,5.09,0,0,0-.34-.84l.88-.46a6,6,0,0,1,.42,1Zm-238-1.25L1,66.72a6.24,6.24,0,0,1,.7-.84l.7.71A5.45,5.45,0,0,0,1.78,67.29Zm236.56-1a4.26,4.26,0,0,0-.75-.5l.47-.88a5,5,0,0,1,.91.61ZM3.86,65.62l-.37-.93a4.84,4.84,0,0,1,1-.3l.18,1A4.06,4.06,0,0,0,3.86,65.62Zm232-.3-.37,0h-.59v-1h.59l.46,0Zm-3,0h-1v-1h1Zm-3,0h-1v-1h1Zm-3,0h-1v-1h1Zm-3,0h-1v-1h1Zm-3,0h-1v-1h1Zm-3,0h-1v-1h1Zm-3,0h-1v-1h1Zm-3,0h-1v-1h1Zm-3,0h-1v-1h1Zm-3,0h-1v-1h1Zm-3,0h-1v-1h1Zm-3,0h-1v-1h1Zm-3,0h-1v-1h1Zm-3,0h-1v-1h1Zm-3,0h-1v-1h1Zm-3,0h-1v-1h1Zm-3,0h-1v-1h1Zm-3,0h-1v-1h1Zm-3,0h-1v-1h1Zm-3,0h-1v-1h1Zm-3,0h-1v-1h1Zm-3,0h-1v-1h1Zm-3,0h-1v-1h1Zm-3,0h-1v-1h1Zm-3,0h-1v-1h1Zm-3,0h-1v-1h1Zm-3,0h-1v-1h1Zm-3,0h-1v-1h1Zm-3,0h-1v-1h1Zm-3,0h-1v-1h1Zm-3,0h-1v-1h1Zm-3,0h-1v-1h1Zm-3,0h-1v-1h1Zm-3,0h-1v-1h1Zm-3,0h-1v-1h1Zm-3,0h-1v-1h1Zm-3,0h-1v-1h1Zm-3,0h-1v-1h1Zm-3,0h-1v-1h1Zm-3,0h-1v-1h1Zm-3,0h-1v-1h1Zm-3,0h-1v-1h1Zm-3,0h-1v-1h1Zm-3,0h-1v-1h1Zm-3,0h-1v-1h1Zm-3,0h-1v-1h1Zm-3,0h-1v-1h1Zm-3,0h-1v-1h1Zm-3,0h-1v-1h1Zm-3,0h-1v-1h1Zm-3,0h-1v-1h1Zm-3,0h-1v-1h1Zm-3,0h-1v-1h1Zm-3,0h-1v-1h1Zm-3,0h-1v-1h1Zm-3,0h-1v-1h1Zm-3,0h-1v-1h1Zm-3,0h-1v-1h1Zm-3,0h-1v-1h1Zm-3,0h-1v-1h1Zm-3,0h-1v-1h1Zm-3,0h-1v-1h1Zm-3,0h-1v-1h1Zm-3,0h-1v-1h1Zm-3,0h-1v-1h1Zm-3,0h-1v-1h1Zm-3,0h-1v-1h1Zm-3,0h-1v-1h1Zm-3,0h-1v-1h1Zm-3,0h-1v-1h1Zm-3,0h-1v-1h1Zm-3,0h-1v-1h1Zm-3,0h-1v-1h1Zm-3,0h-1v-1h1Zm-3,0h-1v-1h1Zm-3,0h-1v-1h1Z"/><circle class="cls-4" cx="25.86" cy="369.64" r="1.67"/><circle class="cls-5" cx="20.52" cy="369.65" r="1.67"/><circle class="cls-6" cx="15.18" cy="369.65" r="1.67"/><path class="cls-7" d="M16.39,376.35l-1,1a.44.44,0,0,1-.62,0h0l-7.09-7.07a.87.87,0,0,1,0-1.23h0l.95-1h0l7.71,7.69a.43.43,0,0,1,0,.61Z"/><path class="cls-8" d="M15.29,362l1,1a.43.43,0,0,1,0,.61l-7.57,7.6h0l-1-1a.87.87,0,0,1,0-1.22h0l7-7A.43.43,0,0,1,15.29,362Z"/><path class="cls-7" d="M32.24,368l1,1a.86.86,0,0,1,0,1.22h0l-7.1,7.08a.43.43,0,0,1-.61,0h0l-1-1a.43.43,0,0,1,0-.61h0L32.24,368Z"/><path class="cls-8" d="M33.2,370.21l-1,1h0l-7.58-7.6a.43.43,0,0,1,0-.61h0l1-1a.44.44,0,0,1,.61,0h0l7,7a.86.86,0,0,1,0,1.22h0Z"/><rect class="cls-1" x="10" y="139.3" width="220" height="65"/><rect class="cls-9" x="10" y="139.3" width="220" height="65"/><path class="cls-10" d="M167,17.85a8.16,8.16,0,0,0-7-7.91A10.26,10.26,0,0,0,149.59,0a10.52,10.52,0,0,0-9.94,7,9.67,9.67,0,0,0-8.4,9.45A10,10,0,0,0,141.34,26H159A8.25,8.25,0,0,0,167,17.85Z"/><path class="cls-11" d="M133.47,91.54l14.91-14.91a1.05,1.05,0,0,1,1.51,0l0,0,14.91,14.91a1.07,1.07,0,0,1,0,1.51l0,0L149.89,108a1.08,1.08,0,0,1-1.49,0L133.47,93.07a1.06,1.06,0,0,1,0-1.51Z"/><path class="cls-12" d="M153.05,83.42l-3.76-3.75a.21.21,0,0,0-.29,0l-3.77,3.75a.18.18,0,0,0,0,.24.22.22,0,0,0,.2.08h2.2a.19.19,0,0,1,.2.19v3.56a.19.19,0,0,0,.19.19h2.35a.19.19,0,0,0,.19-.19V83.93a.19.19,0,0,1,.2-.19h2.2a.19.19,0,0,0,.22-.13.16.16,0,0,0-.08-.19Z"/><path class="cls-12" d="M140.26,88.06l-3.74,3.78a.2.2,0,0,0,0,.27l3.74,3.75a.19.19,0,0,0,.27,0,.18.18,0,0,0,.06-.15V93.53a.2.2,0,0,1,.2-.2h3.55a.17.17,0,0,0,.18-.17V90.79a.18.18,0,0,0-.06-.24l-.06,0h-3.56a.18.18,0,0,1-.19-.16V88.2a.21.21,0,0,0-.13-.27A.2.2,0,0,0,140.26,88.06Z"/><path class="cls-12" d="M158.17,95.86,162,92.09a.2.2,0,0,0,0-.27l-3.79-3.76a.19.19,0,0,0-.27,0,.22.22,0,0,0-.05.12v2.22a.18.18,0,0,1-.17.18H154.1a.18.18,0,0,0-.18.17h0v2.37a.19.19,0,0,0,.16.19h3.58a.19.19,0,0,1,.19.2h0v2.2a.19.19,0,0,0,.22.17A.18.18,0,0,0,158.17,95.86Z"/><path class="cls-1" d="M154.1,92.3a5,5,0,1,0-6.29,4.75v1.69a3.05,3.05,0,1,0,2.79,0V97A4.92,4.92,0,0,0,154.1,92.3Z"/><circle id="e99c3387-15c3-4f28-bd4b-cb209b430e06" class="cls-13" cx="149.16" cy="92.29" r="2.88"/><rect class="cls-14" x="132.5" y="147.3" width="32.47" height="21.65" rx="1.08"/><polygon class="cls-7" points="154.15 154.97 154.15 161.27 148.74 164.44 148.74 158.13 154.15 154.97"/><polygon class="cls-15" points="154.15 154.97 148.74 158.15 143.32 154.97 148.74 151.81 154.15 154.97"/><polygon class="cls-16" points="148.74 158.15 148.74 164.44 143.32 161.27 143.32 154.97 148.74 158.15"/><polygon class="cls-15" points="143.32 161.27 148.74 158.13 148.74 164.44 143.32 161.27"/><polygon class="cls-16" points="154.15 161.27 148.74 158.13 148.74 164.44 154.15 161.27"/><path class="cls-17" d="M155.25,175.5c-3.21-.51-3.34-2.81-3.34-6.55h-6.37c0,3.74-.11,6-3.32,6.55a1.8,1.8,0,0,0-1.6,1.8h16.23A1.79,1.79,0,0,0,155.25,175.5Z"/><rect class="cls-18" x="80" y="147.3" width="32.47" height="21.65" rx="1.08"/><polygon class="cls-7" points="101.65 154.97 101.65 161.27 96.24 164.44 96.24 158.13 101.65 154.97"/><polygon class="cls-15" points="101.65 154.97 96.24 158.15 90.82 154.97 96.24 151.81 101.65 154.97"/><polygon class="cls-16" points="96.24 158.15 96.24 164.44 90.82 161.27 90.82 154.97 96.24 158.15"/><polygon class="cls-15" points="90.82 161.27 96.24 158.13 96.24 164.44 90.82 161.27"/><polygon class="cls-16" points="101.65 161.27 96.24 158.13 96.24 164.44 101.65 161.27"/><path class="cls-19" d="M102.75,175.5c-3.21-.51-3.34-2.81-3.34-6.55H93c0,3.74-.11,6-3.32,6.55a1.8,1.8,0,0,0-1.6,1.8h16.23A1.79,1.79,0,0,0,102.75,175.5Z"/><rect class="cls-20" x="185" y="147.3" width="32.47" height="21.65" rx="1.08"/><polygon class="cls-7" points="206.65 154.97 206.65 161.27 201.24 164.44 201.24 158.13 206.65 154.97"/><polygon class="cls-15" points="206.65 154.97 201.24 158.15 195.82 154.97 201.24 151.81 206.65 154.97"/><polygon class="cls-16" points="201.24 158.15 201.24 164.44 195.82 161.27 195.82 154.97 201.24 158.15"/><polygon class="cls-15" points="195.82 161.27 201.24 158.13 201.24 164.44 195.82 161.27"/><polygon class="cls-16" points="206.65 161.27 201.24 158.13 201.24 164.44 206.65 161.27"/><path class="cls-21" d="M207.75,175.5c-3.21-.51-3.34-2.81-3.34-6.55H198c0,3.74-.11,6-3.32,6.55a1.8,1.8,0,0,0-1.6,1.8h16.23A1.79,1.79,0,0,0,207.75,175.5Z"/><line class="cls-22" x1="149.14" y1="29.3" x2="149.14" y2="41.8"/><line class="cls-22" x1="149.14" y1="59.3" x2="149.14" y2="73.3"/><path class="cls-23" d="M133.47,243.86l14.91-14.92a1.07,1.07,0,0,1,1.51,0l0,0,14.91,14.92a1.06,1.06,0,0,1,0,1.5l0,0-14.93,14.94a1.08,1.08,0,0,1-1.49,0l-14.93-14.94a1.05,1.05,0,0,1,0-1.5h0Z"/><path class="cls-12" d="M153.05,235.73,149.29,232a.23.23,0,0,0-.29,0l-3.77,3.75a.18.18,0,0,0,.15.32h2.2a.2.2,0,0,1,.2.2v3.55a.19.19,0,0,0,.19.2h2.35a.19.19,0,0,0,.19-.2v-3.55a.2.2,0,0,1,.2-.2h2.2a.18.18,0,0,0,.22-.13.17.17,0,0,0-.08-.19Z"/><path class="cls-12" d="M140.26,240.37l-3.74,3.79a.19.19,0,0,0,0,.26l3.74,3.76a.19.19,0,0,0,.27,0,.17.17,0,0,0,.06-.15v-2.18a.2.2,0,0,1,.2-.2h3.55a.18.18,0,0,0,.18-.18h0v-2.35a.17.17,0,0,0-.06-.24s0,0-.06,0h-3.56a.18.18,0,0,1-.19-.16v-2.17a.2.2,0,0,0-.13-.26.2.2,0,0,0-.26.12Z"/><path class="cls-12" d="M158.17,248.18l3.79-3.77a.2.2,0,0,0,0-.27l-3.79-3.77a.18.18,0,0,0-.27,0,.16.16,0,0,0-.05.11v2.23a.18.18,0,0,1-.17.17H154.1a.18.18,0,0,0-.18.18h0v2.37a.19.19,0,0,0,.16.19h3.58a.19.19,0,0,1,.19.2h0v2.2a.2.2,0,0,0,.22.17l.1,0Z"/><path class="cls-1" d="M154.1,244.62a5,5,0,1,0-6.29,4.75v1.68a3,3,0,1,0,2.79,0v-1.77A4.92,4.92,0,0,0,154.1,244.62Z"/><circle id="e99c3387-15c3-4f28-bd4b-cb209b430e06-2" class="cls-13" cx="149.16" cy="244.6" r="2.88"/><line class="cls-22" x1="149.14" y1="197.12" x2="149.14" y2="226.44"/><line class="cls-22" x1="149.14" y1="132.69" x2="149.14" y2="144.8"/><line class="cls-22" x1="149.14" y1="112.99" x2="149.14" y2="121.66"/><path class="cls-22" d="M100.91,128.09l-2.45,1a4.62,4.62,0,0,0-2.44,4V144.8"/><line class="cls-22" x1="143.96" y1="110.3" x2="115.93" y2="121.88"/><path class="cls-22" d="M144,228.79l-25.25-10.43-5.55-2.29-9.48-3.92L98.46,210A4.6,4.6,0,0,1,96,206v-8.86"/><path class="cls-22" d="M156,228.79l25.26-10.43,5.54-2.29,9.48-3.92L201.5,210a4.58,4.58,0,0,0,2.44-4v-8.86"/><path class="cls-22" d="M199.05,128.09l2.45,1a4.6,4.6,0,0,1,2.44,4V144.8"/><line class="cls-22" x1="156" y1="110.3" x2="184.03" y2="121.88"/><rect class="cls-1" x="10" y="289.3" width="220" height="65"/><rect class="cls-9" x="10" y="289.3" width="220" height="65"/><rect class="cls-24" x="132.5" y="297.3" width="32.47" height="21.65" rx="1.08"/><polygon class="cls-7" points="154.15 304.97 154.15 311.27 148.74 314.44 148.74 308.13 154.15 304.97"/><polygon class="cls-15" points="154.15 304.97 148.74 308.14 143.32 304.97 148.74 301.81 154.15 304.97"/><polygon class="cls-16" points="148.74 308.14 148.74 314.44 143.32 311.27 143.32 304.97 148.74 308.14"/><polygon class="cls-15" points="143.32 311.27 148.74 308.13 148.74 314.44 143.32 311.27"/><polygon class="cls-16" points="154.15 311.27 148.74 308.13 148.74 314.44 154.15 311.27"/><path class="cls-25" d="M155.25,325.5c-3.21-.51-3.34-2.81-3.34-6.55h-6.37c0,3.74-.11,6-3.32,6.55a1.8,1.8,0,0,0-1.6,1.8h16.23A1.79,1.79,0,0,0,155.25,325.5Z"/><rect class="cls-26" x="80" y="297.3" width="32.47" height="21.65" rx="1.08"/><polygon class="cls-7" points="101.65 304.97 101.65 311.27 96.24 314.44 96.24 308.13 101.65 304.97"/><polygon class="cls-15" points="101.65 304.97 96.24 308.14 90.82 304.97 96.24 301.81 101.65 304.97"/><polygon class="cls-16" points="96.24 308.14 96.24 314.44 90.82 311.27 90.82 304.97 96.24 308.14"/><polygon class="cls-15" points="90.82 311.27 96.24 308.13 96.24 314.44 90.82 311.27"/><polygon class="cls-16" points="101.65 311.27 96.24 308.13 96.24 314.44 101.65 311.27"/><path class="cls-27" d="M102.75,325.5c-3.21-.51-3.34-2.81-3.34-6.55H93c0,3.74-.11,6-3.32,6.55a1.8,1.8,0,0,0-1.6,1.8h16.23A1.79,1.79,0,0,0,102.75,325.5Z"/><rect class="cls-28" x="185" y="297.3" width="32.47" height="21.65" rx="1.08"/><polygon class="cls-7" points="206.65 304.97 206.65 311.27 201.24 314.44 201.24 308.13 206.65 304.97"/><polygon class="cls-15" points="206.65 304.97 201.24 308.14 195.82 304.97 201.24 301.81 206.65 304.97"/><polygon class="cls-16" points="201.24 308.14 201.24 314.44 195.82 311.27 195.82 304.97 201.24 308.14"/><polygon class="cls-15" points="195.82 311.27 201.24 308.13 201.24 314.44 195.82 311.27"/><polygon class="cls-16" points="206.65 311.27 201.24 308.13 201.24 314.44 206.65 311.27"/><path class="cls-29" d="M207.75,325.5c-3.21-.51-3.34-2.81-3.34-6.55H198c0,3.74-.11,6-3.32,6.55a1.8,1.8,0,0,0-1.6,1.8h16.23A1.79,1.79,0,0,0,207.75,325.5Z"/><line class="cls-22" x1="149.14" y1="284.6" x2="149.14" y2="296.71"/><line class="cls-22" x1="149.14" y1="262.1" x2="149.14" y2="272.71"/><path class="cls-22" d="M100.91,280l-2.45,1A4.6,4.6,0,0,0,96,285v11.69"/><line class="cls-22" x1="143.96" y1="262.21" x2="121.18" y2="271.62"/><path class="cls-22" d="M195.32,280l2.44,1a4.59,4.59,0,0,1,2.45,4v11.69"/><line class="cls-22" x1="152.27" y1="262.21" x2="175.04" y2="271.62"/></g><g id="text"><path class="cls-30" d="M15.08,382.52l-3.21,8.62h-1l-3.14-8.62H8.75l2.43,6.89a4.53,4.53,0,0,1,.17.76h0a3.45,3.45,0,0,1,.19-.77l2.48-6.88Z"/><path class="cls-30" d="M16.09,382.77a.62.62,0,0,1,.17-.44.58.58,0,0,1,.43-.18.59.59,0,0,1,.44.18.6.6,0,0,1,.18.44.59.59,0,0,1-.18.44.58.58,0,0,1-.44.17.57.57,0,0,1-.43-.17A.6.6,0,0,1,16.09,382.77Zm.13,8.37V385h.92v6.16Z"/><path class="cls-30" d="M22.34,385.94a1.31,1.31,0,0,0-1.81.42,2.83,2.83,0,0,0-.42,1.63v3.15h-.94V385h.94v1.28h0a2.12,2.12,0,0,1,.64-1,1.43,1.43,0,0,1,1-.37,2,2,0,0,1,.61.08Z"/><path class="cls-30" d="M26.6,391.08a1.8,1.8,0,0,1-.89.2c-1.06,0-1.59-.6-1.59-1.79v-3.7H23.05V385h1.07v-1.51l.93-.3V385H26.6v.81H25.05v3.53a1.48,1.48,0,0,0,.21.91.89.89,0,0,0,.71.26,1,1,0,0,0,.63-.21Z"/><path class="cls-30" d="M32.88,391.14H32v-1h0A2,2,0,0,1,30,391.29c-1.47,0-2.21-.88-2.21-2.63V385h.92v3.53c0,1.33.51,2,1.51,2a1.53,1.53,0,0,0,1.22-.55,2.09,2.09,0,0,0,.48-1.42V385h.93Z"/><path class="cls-30" d="M35.05,385.42a3.79,3.79,0,0,1,2.07-.58c1.43,0,2.15.76,2.15,2.28v4h-.93v-1h0a2.24,2.24,0,0,1-3.32.63,1.68,1.68,0,0,1-.54-1.3c0-1.14.68-1.81,2-2l1.86-.27c0-1.07-.43-1.61-1.28-1.61a3,3,0,0,0-2,.77Zm1.77,2.8a2.27,2.27,0,0,0-1.06.35,1,1,0,0,0-.35.88,1,1,0,0,0,.33.76,1.28,1.28,0,0,0,.87.28,1.56,1.56,0,0,0,1.23-.53,1.84,1.84,0,0,0,.49-1.32V388Z"/><path class="cls-30" d="M41.16,391.14V382h.93v9.11Z"/><path class="cls-30" d="M55.38,391.14H54.19l-4.5-7a3.38,3.38,0,0,1-.27-.54h0a10.8,10.8,0,0,1,0,1.18v6.32h-1v-8.62h1.26l4.38,6.86c.2.32.31.51.34.57h0a9.87,9.87,0,0,1-.06-1.27v-6.16h1Z"/><path class="cls-30" d="M62.45,388.29H58.09a2.39,2.39,0,0,0,.57,1.64,2,2,0,0,0,1.46.56,3,3,0,0,0,1.92-.7v.9a3.57,3.57,0,0,1-2.14.6,2.57,2.57,0,0,1-2-.85,3.51,3.51,0,0,1-.73-2.36,3.36,3.36,0,0,1,.81-2.32,2.56,2.56,0,0,1,2-.92,2.26,2.26,0,0,1,1.85.79,3.24,3.24,0,0,1,.66,2.16Zm-1-.82a2,2,0,0,0-.41-1.34,1.42,1.42,0,0,0-1.15-.49,1.64,1.64,0,0,0-1.2.5,2.28,2.28,0,0,0-.63,1.33Z"/><path class="cls-30" d="M66.78,391.08a1.84,1.84,0,0,1-.9.2c-1.06,0-1.59-.6-1.59-1.79v-3.7H63.23V385h1.06v-1.51l.93-.3V385h1.56v.81H65.22v3.53a1.41,1.41,0,0,0,.22.91.87.87,0,0,0,.7.26,1,1,0,0,0,.64-.21Z"/><path class="cls-30" d="M75.81,385,74,391.14H73l-1.29-4.46a2.71,2.71,0,0,1-.1-.55h0a2.32,2.32,0,0,1-.13.54l-1.39,4.47h-.93L67.27,385h1l1.3,4.67a3.14,3.14,0,0,1,.09.55h0a3.47,3.47,0,0,1,.11-.56L71.23,385h.85l1.29,4.69a4.19,4.19,0,0,1,.09.54h.05a2.21,2.21,0,0,1,.1-.54L74.89,385Z"/><path class="cls-30" d="M76.52,388.14a3.34,3.34,0,0,1,.84-2.41,3,3,0,0,1,2.28-.89,2.73,2.73,0,0,1,2.12.85,3.34,3.34,0,0,1,.78,2.36,3.27,3.27,0,0,1-.84,2.35,2.9,2.9,0,0,1-2.21.89,2.8,2.8,0,0,1-2.15-.87A3.17,3.17,0,0,1,76.52,388.14Zm1,0a2.53,2.53,0,0,0,.57,1.74,1.91,1.91,0,0,0,1.52.66,1.86,1.86,0,0,0,1.51-.63,3.35,3.35,0,0,0,0-3.6,1.82,1.82,0,0,0-1.5-.64,1.92,1.92,0,0,0-1.53.66A2.74,2.74,0,0,0,77.47,388.1Z"/><path class="cls-30" d="M87.3,385.94a1.21,1.21,0,0,0-.74-.2,1.26,1.26,0,0,0-1.06.62,2.76,2.76,0,0,0-.43,1.63v3.15h-.93V385h.93v1.28h0a2.12,2.12,0,0,1,.64-1,1.41,1.41,0,0,1,1-.37,1.84,1.84,0,0,1,.6.08Z"/><path class="cls-30" d="M93.44,391.14H92.12l-2.77-2.95h0v2.95H88.4V382h.93v5.78h0L92,385h1.23l-2.89,3Z"/><path class="cls-30" d="M147.09,332.18l-3.21,8.62h-1l-3.14-8.62h1.06l2.43,6.9a4.19,4.19,0,0,1,.17.75h0a4.11,4.11,0,0,1,.19-.77l2.49-6.88Z"/><path class="cls-30" d="M156.13,340.8V335c0-.45,0-1,.09-1.66h0a5.05,5.05,0,0,1-.25.81l-3,6.67h-.42l-3-6.62a4.74,4.74,0,0,1-.25-.86h0a16.15,16.15,0,0,1,.05,1.64v5.84h-.92v-8.62h1.23l2.7,6.07a9.08,9.08,0,0,1,.4,1h0c.06-.16.2-.51.42-1l2.76-6.05h1.17v8.62Z"/><path class="cls-30" d="M94.42,332.18l-3.21,8.62h-1L87,332.18h1.06l2.43,6.9a4.19,4.19,0,0,1,.17.75h0a3.45,3.45,0,0,1,.19-.77l2.49-6.88Z"/><path class="cls-30" d="M103.46,340.8V335c0-.45,0-1,.09-1.66h0a5.05,5.05,0,0,1-.25.81l-3,6.67h-.42l-3-6.62a4.74,4.74,0,0,1-.25-.86h0a16.15,16.15,0,0,1,0,1.64v5.84h-.92v-8.62h1.23l2.7,6.07a9.08,9.08,0,0,1,.4,1h0c.06-.16.2-.51.42-1l2.76-6.05h1.17v8.62Z"/><path class="cls-30" d="M103.46,269.51v5.7h1.13v.84h-1.13v2.09h-.92v-2.09H98.48v-.79a32.18,32.18,0,0,0,2.34-2.95,19.27,19.27,0,0,0,1.64-2.8Zm-3.9,5.7h3V271a26.87,26.87,0,0,1-2.35,3.47Z"/><path class="cls-30" d="M110.08,269.51v5.7h1.13v.84h-1.13v2.09h-.92v-2.09H105.1v-.79a32.18,32.18,0,0,0,2.34-2.95,18.4,18.4,0,0,0,1.64-2.8Zm-3.9,5.7h3V271a26.87,26.87,0,0,1-2.35,3.47Z"/><path class="cls-30" d="M112.41,276.79a3.12,3.12,0,0,0,2,.7,2.25,2.25,0,0,0,1.46-.45,1.53,1.53,0,0,0,.55-1.24c0-1.15-.81-1.73-2.43-1.73h-.72v-.79h.68c1.45,0,2.17-.54,2.17-1.62s-.55-1.49-1.65-1.49a2.8,2.8,0,0,0-1.72.62v-.93a3.81,3.81,0,0,1,2-.49,2.51,2.51,0,0,1,1.7.57,1.87,1.87,0,0,1,.67,1.48,2.14,2.14,0,0,1-1.73,2.2v0a2.23,2.23,0,0,1,1.48.65,2,2,0,0,1,.56,1.41,2.32,2.32,0,0,1-.86,1.88,3.26,3.26,0,0,1-2.16.7,3.57,3.57,0,0,1-1.94-.46Z"/><path class="cls-30" d="M144.4,274.57v5.69h1.14v.85H144.4v2.08h-.92v-2.08h-4v-.79a30.55,30.55,0,0,0,2.33-3,18,18,0,0,0,1.65-2.79Zm-3.89,5.69h3V276a25.89,25.89,0,0,1-2.35,3.47Z"/><path class="cls-30" d="M151,274.57v5.69h1.13v.85H151v2.08h-.92v-2.08h-4.06v-.79a32.3,32.3,0,0,0,2.34-3,17.87,17.87,0,0,0,1.64-2.79Zm-3.9,5.69h3V276a26.87,26.87,0,0,1-2.35,3.47Z"/><path class="cls-30" d="M153.36,281.85a3.12,3.12,0,0,0,2,.7,2.2,2.2,0,0,0,1.46-.46,1.49,1.49,0,0,0,.55-1.23c0-1.16-.81-1.73-2.43-1.73h-.72v-.79h.68c1.44,0,2.17-.54,2.17-1.62s-.55-1.49-1.65-1.49a2.74,2.74,0,0,0-1.72.62v-.93a3.72,3.72,0,0,1,1.95-.49,2.51,2.51,0,0,1,1.7.57,1.86,1.86,0,0,1,.66,1.48,2.13,2.13,0,0,1-1.72,2.2h0a2.33,2.33,0,0,1,1.48.65,2,2,0,0,1,.56,1.42,2.32,2.32,0,0,1-.86,1.88,3.28,3.28,0,0,1-2.16.7,3.57,3.57,0,0,1-1.94-.46Z"/><path class="cls-30" d="M181.36,269.51v5.7h1.14v.84h-1.14v2.09h-.92v-2.09h-4.05v-.79a33.86,33.86,0,0,0,2.33-2.95,18.53,18.53,0,0,0,1.65-2.8Zm-3.9,5.7h3V271a25.89,25.89,0,0,1-2.35,3.47Z"/><path class="cls-30" d="M188,269.51v5.7h1.14v.84H188v2.09h-.92v-2.09H183v-.79a32.06,32.06,0,0,0,2.33-2.95,18.53,18.53,0,0,0,1.65-2.8Zm-3.89,5.7h3V271a25.89,25.89,0,0,1-2.35,3.47Z"/><path class="cls-30" d="M190.32,276.79a3.1,3.1,0,0,0,2,.7,2.22,2.22,0,0,0,1.45-.45,1.54,1.54,0,0,0,.56-1.24c0-1.15-.81-1.73-2.43-1.73h-.72v-.79h.68q2.16,0,2.16-1.62c0-1-.55-1.49-1.64-1.49a2.77,2.77,0,0,0-1.72.62v-.93a3.81,3.81,0,0,1,1.95-.49,2.53,2.53,0,0,1,1.7.57,1.86,1.86,0,0,1,.66,1.48,2.13,2.13,0,0,1-1.73,2.2v0a2.26,2.26,0,0,1,1.49.65,1.94,1.94,0,0,1,.55,1.41,2.31,2.31,0,0,1-.85,1.88,3.29,3.29,0,0,1-2.17.7,3.54,3.54,0,0,1-1.93-.46Z"/><path class="cls-30" d="M143.42,128.92a2.4,2.4,0,0,1,.44-1.37,2.43,2.43,0,0,1,1.15-.91,2.27,2.27,0,0,1-.89-.79,1.87,1.87,0,0,1-.34-1.09,2.12,2.12,0,0,1,1.17-1.92,2.72,2.72,0,0,1,1.23-.29,2.44,2.44,0,0,1,1.73.63,2,2,0,0,1,.69,1.58,1.89,1.89,0,0,1-.35,1.09,2.39,2.39,0,0,1-.88.79,2.5,2.5,0,0,1,1.15.91,2.4,2.4,0,0,1,.44,1.37,2.36,2.36,0,0,1-.78,1.84,2.84,2.84,0,0,1-2,.7,2.78,2.78,0,0,1-2-.71A2.35,2.35,0,0,1,143.42,128.92Zm1-.09a1.73,1.73,0,0,0,1.82,1.84,1.75,1.75,0,0,0,1.83-1.84,1.76,1.76,0,0,0-.51-1.28,1.9,1.9,0,0,0-2.61,0A1.7,1.7,0,0,0,144.37,128.83Zm.36-4a1.47,1.47,0,0,0,1.46,1.47,1.44,1.44,0,0,0,1-.42,1.4,1.4,0,0,0,.44-1,1.44,1.44,0,0,0-1.47-1.48,1.42,1.42,0,0,0-1.46,1.48Z"/><path class="cls-30" d="M150,127.18a6.51,6.51,0,0,1,.75-3.46,2.38,2.38,0,0,1,2.14-1.17c1.79,0,2.69,1.48,2.69,4.42a6.17,6.17,0,0,1-.75,3.34,2.38,2.38,0,0,1-2.13,1.15,2.23,2.23,0,0,1-2-1.12A6,6,0,0,1,150,127.18Zm.95-.05c0,2.36.62,3.54,1.85,3.54s1.83-1.19,1.83-3.59-.59-3.73-1.79-3.73S150.94,124.61,150.94,127.13Z"/><path class="cls-30" d="M184,128.92a2.34,2.34,0,0,1,.45-1.37,2.39,2.39,0,0,1,1.15-.91,2.37,2.37,0,0,1-.9-.79,2,2,0,0,1-.34-1.09,2.1,2.1,0,0,1,1.18-1.92,2.66,2.66,0,0,1,1.23-.29,2.46,2.46,0,0,1,1.73.63,2,2,0,0,1,.68,1.58,1.87,1.87,0,0,1-.34,1.09,2.39,2.39,0,0,1-.88.79,2.42,2.42,0,0,1,1.14.91,2.33,2.33,0,0,1,.44,1.37,2.38,2.38,0,0,1-.77,1.84,2.85,2.85,0,0,1-2,.7,2.81,2.81,0,0,1-2-.71A2.35,2.35,0,0,1,184,128.92Zm1-.09a1.83,1.83,0,1,0,3.66,0,1.73,1.73,0,0,0-.52-1.28,1.76,1.76,0,0,0-1.31-.53,1.79,1.79,0,0,0-1.3.51A1.73,1.73,0,0,0,185,128.83Zm.37-4a1.4,1.4,0,0,0,.43,1,1.46,1.46,0,0,0,2.05,0,1.37,1.37,0,0,0,.44-1,1.43,1.43,0,0,0-.42-1.06,1.39,1.39,0,0,0-1-.42,1.42,1.42,0,0,0-1.46,1.48Z"/><path class="cls-30" d="M190.59,127.18a6.62,6.62,0,0,1,.74-3.46,2.4,2.4,0,0,1,2.15-1.17c1.79,0,2.69,1.48,2.69,4.42a6.17,6.17,0,0,1-.75,3.34,2.4,2.4,0,0,1-2.14,1.15,2.21,2.21,0,0,1-2-1.12A6,6,0,0,1,190.59,127.18Zm.95-.05c0,2.36.61,3.54,1.84,3.54s1.84-1.19,1.84-3.59-.6-3.73-1.79-3.73S191.54,124.61,191.54,127.13Z"/><path class="cls-30" d="M103.72,128.92a2.49,2.49,0,0,1,1.6-2.28,2.3,2.3,0,0,1-.9-.79,1.87,1.87,0,0,1-.34-1.09,2.11,2.11,0,0,1,.31-1.13,2.22,2.22,0,0,1,.87-.79,2.66,2.66,0,0,1,1.23-.29,2.47,2.47,0,0,1,1.73.63,2.05,2.05,0,0,1,.68,1.58,1.87,1.87,0,0,1-.34,1.09,2.47,2.47,0,0,1-.88.79,2.51,2.51,0,0,1,1.58,2.28,2.38,2.38,0,0,1-.77,1.84,2.87,2.87,0,0,1-2,.7,2.81,2.81,0,0,1-2-.71A2.35,2.35,0,0,1,103.72,128.92Zm1-.09a1.73,1.73,0,0,0,1.82,1.84,1.76,1.76,0,0,0,1.84-1.84,1.77,1.77,0,0,0-.52-1.28,1.9,1.9,0,0,0-2.61,0A1.73,1.73,0,0,0,104.67,128.83Zm.36-4a1.4,1.4,0,0,0,.44,1,1.46,1.46,0,0,0,2,0,1.4,1.4,0,0,0,.44-1,1.43,1.43,0,0,0-.42-1.06,1.39,1.39,0,0,0-1.05-.42,1.42,1.42,0,0,0-1.46,1.48Z"/><path class="cls-30" d="M110.3,127.18a6.52,6.52,0,0,1,.74-3.46,2.4,2.4,0,0,1,2.15-1.17c1.79,0,2.69,1.48,2.69,4.42a6.17,6.17,0,0,1-.75,3.34,2.4,2.4,0,0,1-2.14,1.15,2.21,2.21,0,0,1-2-1.12A6,6,0,0,1,110.3,127.18Zm1-.05c0,2.36.61,3.54,1.84,3.54s1.84-1.19,1.84-3.59-.6-3.73-1.79-3.73S111.25,124.61,111.25,127.13Z"/><path class="cls-30" d="M199.42,332.18l-3.21,8.62h-1L192,332.18h1.06l2.43,6.9a4.19,4.19,0,0,1,.17.75h0a3.45,3.45,0,0,1,.19-.77l2.49-6.88Z"/><path class="cls-30" d="M208.46,340.8V335c0-.45,0-1,.09-1.66h0a5.05,5.05,0,0,1-.25.81l-3,6.67h-.42l-3-6.62a4.74,4.74,0,0,1-.25-.86h0a16.15,16.15,0,0,1,.05,1.64v5.84h-.92v-8.62h1.23l2.7,6.07a9.08,9.08,0,0,1,.4,1h0c.06-.16.2-.51.42-1l2.76-6.05h1.17v8.62Z"/><path class="cls-30" d="M147.09,182.18l-3.21,8.62h-1l-3.14-8.62h1.06l2.43,6.9a4.19,4.19,0,0,1,.17.75h0a4.11,4.11,0,0,1,.19-.77l2.49-6.88Z"/><path class="cls-30" d="M156.13,190.8V185c0-.45,0-1,.09-1.66h0a5.05,5.05,0,0,1-.25.81l-3,6.67h-.42l-3-6.62a4.74,4.74,0,0,1-.25-.86h0a16.15,16.15,0,0,1,.05,1.64v5.84h-.92v-8.62h1.23l2.7,6.07a9.08,9.08,0,0,1,.4,1h0c.06-.16.2-.51.42-1l2.76-6h1.17v8.62Z"/><path class="cls-30" d="M94.42,182.18l-3.21,8.62h-1L87,182.18h1.06l2.43,6.9a4.19,4.19,0,0,1,.17.75h0a3.45,3.45,0,0,1,.19-.77l2.49-6.88Z"/><path class="cls-30" d="M103.46,190.8V185c0-.45,0-1,.09-1.66h0a5.05,5.05,0,0,1-.25.81l-3,6.67h-.42l-3-6.62a4.74,4.74,0,0,1-.25-.86h0a16.15,16.15,0,0,1,0,1.64v5.84h-.92v-8.62h1.23l2.7,6.07a9.08,9.08,0,0,1,.4,1h0c.06-.16.2-.51.42-1l2.76-6h1.17v8.62Z"/><path class="cls-30" d="M199.42,182.18l-3.21,8.62h-1L192,182.18h1.06l2.43,6.9a4.19,4.19,0,0,1,.17.75h0a3.45,3.45,0,0,1,.19-.77l2.49-6.88Z"/><path class="cls-30" d="M208.46,190.8V185c0-.45,0-1,.09-1.66h0a5.05,5.05,0,0,1-.25.81l-3,6.67h-.42l-3-6.62a4.74,4.74,0,0,1-.25-.86h0a16.15,16.15,0,0,1,.05,1.64v5.84h-.92v-8.62h1.23l2.7,6.07a9.08,9.08,0,0,1,.4,1h0c.06-.16.2-.51.42-1l2.76-6h1.17v8.62Z"/><path class="cls-30" d="M21,311.38V304h.88v2.9h3.65V304h.88v7.38Zm4.53-3.7H21.84v2.92h3.65Zm3.08,6.78v-11.3h.87v11.3Z"/><path class="cls-30" d="M42.67,312.5H32.18v-.78H42.67ZM37.87,305a3.25,3.25,0,0,0,1.29,2.18,6.64,6.64,0,0,0,3.06,1.47l-.62.75a8.13,8.13,0,0,1-2.54-1.29,5.24,5.24,0,0,1-1.65-1.76,4.83,4.83,0,0,1-1.58,1.75,8.25,8.25,0,0,1-2.58,1.3l-.63-.7a6.41,6.41,0,0,0,3-1.49A3.41,3.41,0,0,0,37,305h-3.6v-.77H41.5V305Z"/><path class="cls-30" d="M51.85,310.88a39.12,39.12,0,0,1-6.43.27v-7h.87v6.25h.77a29.4,29.4,0,0,0,4.68-.24Zm.86,3.58v-11.3h.88v11.3Z"/><path class="cls-30" d="M66.69,312.57H56.2v-.78H66.69Zm-5.25-6.47a5.32,5.32,0,0,1-1.63,1.81,7.42,7.42,0,0,1-2.56,1.28l-.6-.7a6.06,6.06,0,0,0,3.17-1.6A3.33,3.33,0,0,0,61,304.67v-.6h.9v.6a3.24,3.24,0,0,0,1.19,2.21,6.37,6.37,0,0,0,3.17,1.6l-.62.7a8.59,8.59,0,0,1-2.57-1.32A5.08,5.08,0,0,1,61.44,306.1Z"/><path class="cls-30" d="M38.81,327.29V323H36.49v-.78h2.32v-2.39h-2A9.52,9.52,0,0,1,33,325l-.7-.6A7.71,7.71,0,0,0,35,321.78a7.45,7.45,0,0,0,1.3-3.67H32.92v-.77h4.27A8.72,8.72,0,0,1,37,319h1.82v-2.46h.86v10.71Zm2.07.37v-11.3h.87v11.3Z"/><path class="cls-30" d="M44.19,322.47v-.78H54.68v.78Zm9.49-1.71a7.6,7.6,0,0,1-2.55-.74,4.32,4.32,0,0,1-1.68-1.18A4.39,4.39,0,0,1,47.76,320a7.86,7.86,0,0,1-2.51.72l-.51-.8a6.51,6.51,0,0,0,2.53-.54,2.92,2.92,0,0,0,1.64-1.31H45.42v-.78H49v-1.06h.89v1.06h3.56v.78H50a2.87,2.87,0,0,0,1.64,1.31,6.64,6.64,0,0,0,2.53.53Zm-4.24,6.78a5.29,5.29,0,0,1-2.69-.56,1.73,1.73,0,0,1,0-3.08,5.31,5.31,0,0,1,2.69-.56,5.3,5.3,0,0,1,2.68.56,1.73,1.73,0,0,1,0,3.08A5.27,5.27,0,0,1,49.44,327.54Zm0-3.46a4.54,4.54,0,0,0-2,.36,1.08,1.08,0,0,0-.68,1,1.09,1.09,0,0,0,.7,1,4.33,4.33,0,0,0,2,.37,4.34,4.34,0,0,0,2-.37,1.09,1.09,0,0,0,.7-1,1.08,1.08,0,0,0-.69-1A4.45,4.45,0,0,0,49.44,324.08Z"/><path class="cls-30" d="M32.5,338a9.07,9.07,0,0,1-1.78-1.82,5.75,5.75,0,0,1-1-1.9,6.7,6.7,0,0,1-1.08,2,8.54,8.54,0,0,1-1.74,1.84l-.68-.58a7,7,0,0,0,2.22-2.4,6,6,0,0,0,.83-3v-1.86h.87v1.82A5.65,5.65,0,0,0,30.9,335a6.84,6.84,0,0,0,2.21,2.3Zm2.19,2.87V334H32.06v-.78h2.63v-3.7h.88v11.3Z"/><path class="cls-30" d="M38.19,339v-.8H48.67v.8Zm1.75-3.16v-5.27h.88v1.81H46v-1.81h.88v5.27Zm6.1-2.67H40.82V335H46Z"/><path class="cls-30" d="M55.9,335.23a45.44,45.44,0,0,1-4.65.18v-5.12h.87v4.36a30.37,30.37,0,0,0,3.71-.17ZM60,340.61a6.57,6.57,0,0,1-2.31-1.06A5.65,5.65,0,0,1,56,337.83a4.85,4.85,0,0,1-1.56,1.69,6.54,6.54,0,0,1-2.34,1.09l-.56-.76a5.3,5.3,0,0,0,2.78-1.28,3,3,0,0,0,1.25-2.09v-.26h.87v.25a3,3,0,0,0,1.22,2.08,5.37,5.37,0,0,0,2.8,1.3Zm-3.2-4.31v-3.43h-2.6v-.77h2.6v-2.33h.86v6.53Zm2,.83v-7.57h.86v7.57Z"/><path class="cls-30" d="M122.3,46.55h-2.49V54.3h-1V46.55h-2.48v-.87h5.93Z"/><path class="cls-30" d="M128.94,53.93a4.83,4.83,0,0,1-2.37.52,3.81,3.81,0,0,1-2.93-1.2,4.38,4.38,0,0,1-1.11-3.1,4.66,4.66,0,0,1,1.23-3.31,4.13,4.13,0,0,1,3.16-1.3,4.94,4.94,0,0,1,2,.36v1a4.12,4.12,0,0,0-2-.51,3.12,3.12,0,0,0-2.46,1,3.87,3.87,0,0,0-.91,2.66,3.65,3.65,0,0,0,.86,2.52,2.91,2.91,0,0,0,2.3,1,4.21,4.21,0,0,0,2.25-.58Z"/><path class="cls-30" d="M131.67,51V54.3h-.94V45.68h2.33a3.05,3.05,0,0,1,2.11.67,2.39,2.39,0,0,1,.76,1.89,2.58,2.58,0,0,1-.89,2,3.06,3.06,0,0,1-2.21.74Zm0-4.47v3.58h1.09a2.45,2.45,0,0,0,1.62-.48,1.71,1.71,0,0,0,.56-1.37c0-1.15-.69-1.73-2.05-1.73Z"/><path class="cls-30" d="M149.11,49.66H151v.78h-3.82v2.45h4.79v.77H141.44v-.77h4.79V50.44h-3.82v-.78h1.84l-.14-3.18H145l.16,3.18h3.1l.15-3.18h.87Zm-6.56-4.54h8.26v.77h-8.26Z"/><path class="cls-30" d="M153.45,53.58V52.8h10.49v.78Zm8.86-7.66H156v1.64h6v.78h-6v1.55h6.5v.77h-7.36v-5.5h7.17Z"/><path class="cls-30" d="M169.5,51.9a2.36,2.36,0,0,1,.45-1.37,2.27,2.27,0,0,1,1.15-.9,2.46,2.46,0,0,1-.9-.79,1.91,1.91,0,0,1-.34-1.1,2.08,2.08,0,0,1,.31-1.12,2.24,2.24,0,0,1,.87-.8,2.65,2.65,0,0,1,1.23-.28,2.51,2.51,0,0,1,1.73.62,2.06,2.06,0,0,1,.68,1.58,1.88,1.88,0,0,1-.34,1.1,2.56,2.56,0,0,1-.88.79A2.51,2.51,0,0,1,175,51.9a2.41,2.41,0,0,1-.77,1.85,3.18,3.18,0,0,1-4,0A2.39,2.39,0,0,1,169.5,51.9Zm.95-.09a1.73,1.73,0,0,0,1.82,1.85,1.78,1.78,0,0,0,1.84-1.85,1.74,1.74,0,0,0-.52-1.28,1.91,1.91,0,0,0-2.61,0A1.71,1.71,0,0,0,170.45,51.81Zm.37-4a1.46,1.46,0,1,0,2.92,0,1.45,1.45,0,0,0-.42-1.07,1.39,1.39,0,0,0-1-.42,1.42,1.42,0,0,0-1,.42A1.46,1.46,0,0,0,170.82,47.82Z"/><path class="cls-30" d="M176.08,50.17a6.57,6.57,0,0,1,.74-3.46A2.4,2.4,0,0,1,179,45.54q2.68,0,2.69,4.42a6.13,6.13,0,0,1-.75,3.33,2.4,2.4,0,0,1-2.14,1.16,2.21,2.21,0,0,1-2-1.12A6,6,0,0,1,176.08,50.17Zm.95-.05c0,2.36.61,3.54,1.84,3.54s1.84-1.2,1.84-3.59-.6-3.74-1.79-3.74S177,47.6,177,50.12Z"/><path class="cls-30" d="M26.07,164.48v-1.73c-.59,0-1.53.05-2.8.07l-.1-.75c2.35,0,4.39-.06,6.1-.18l.06.72-2.4.12v1.75Zm.26-3.07a3.13,3.13,0,0,1-1.83-.47,1.58,1.58,0,0,1,0-2.56,3.14,3.14,0,0,1,1.82-.47,3,3,0,0,1,1.82.48,1.49,1.49,0,0,1,.67,1.28,1.48,1.48,0,0,1-.66,1.26A3.06,3.06,0,0,1,26.33,161.41Zm0-2.77a2.23,2.23,0,0,0-1.19.28.83.83,0,0,0,0,1.48,2.23,2.23,0,0,0,1.19.29,2.21,2.21,0,0,0,1.19-.29.85.85,0,0,0,.44-.73.87.87,0,0,0-.44-.75A2.21,2.21,0,0,0,26.33,158.64ZM25,168.74V164.9h.87v1.21h5.88V164.9h.87v3.84Zm6.75-1.87H25.89V168h5.88Zm-1.91-2.5v-.51H28v-.7h1.86v-5.27h.86v6.48Zm1.9,0v-6.71h.88v6.71Z"/><path class="cls-30" d="M46,168.6v-4.3H43.72v-.78H46v-2.39H44a9.44,9.44,0,0,1-3.86,5.13l-.69-.59a7.74,7.74,0,0,0,2.72-2.59,7.51,7.51,0,0,0,1.3-3.67H40.16v-.76h4.27a9.57,9.57,0,0,1-.2,1.7H46v-2.46h.86V168.6Zm2.08.37V157.66H49V169Z"/><path class="cls-30" d="M51.43,163.78V163H61.92v.78Zm9.49-1.71a7.86,7.86,0,0,1-2.55-.75,4.38,4.38,0,0,1-1.69-1.17A4.36,4.36,0,0,1,55,161.34a7.84,7.84,0,0,1-2.52.72l-.5-.8a6.51,6.51,0,0,0,2.53-.54,2.92,2.92,0,0,0,1.64-1.32h-3.5v-.78h3.59v-1.05h.89v1.05h3.56v.78H57.2a2.86,2.86,0,0,0,1.63,1.32,6.69,6.69,0,0,0,2.54.53Zm-4.25,6.78a5.31,5.31,0,0,1-2.69-.56,1.75,1.75,0,0,1-.93-1.56,1.7,1.7,0,0,1,.94-1.52,5.17,5.17,0,0,1,2.68-.56,5.21,5.21,0,0,1,2.69.56,1.7,1.7,0,0,1,.93,1.52,1.75,1.75,0,0,1-.93,1.56A5.31,5.31,0,0,1,56.67,168.85Zm0-3.46a4.49,4.49,0,0,0-2,.36,1.08,1.08,0,0,0-.68,1,1.11,1.11,0,0,0,.69,1,5.85,5.85,0,0,0,4,0,1.12,1.12,0,0,0,.7-1,1.07,1.07,0,0,0-.69-1A4.49,4.49,0,0,0,56.67,165.39Z"/><path class="cls-30" d="M31.61,179.3a9.64,9.64,0,0,1-1.78-1.82,6.26,6.26,0,0,1-1-1.9,7,7,0,0,1-1.07,2A9.08,9.08,0,0,1,26,179.44l-.67-.59a7,7,0,0,0,2.22-2.39,6,6,0,0,0,.83-3v-1.85h.86v1.81a5.7,5.7,0,0,0,.82,2.87,6.63,6.63,0,0,0,2.21,2.29Zm2.2,2.87v-6.82H31.17v-.78h2.64v-3.71h.88v11.31Z"/><path class="cls-30" d="M37.3,180.27v-.79H47.79v.79Zm1.75-3.16v-5.26h.88v1.81h5.23v-1.81H46v5.26Zm6.11-2.66H39.93v1.87h5.23Z"/><path class="cls-30" d="M55,176.54a45.22,45.22,0,0,1-4.64.18V171.6h.86V176a28,28,0,0,0,3.71-.18Zm4.08,5.37a6.35,6.35,0,0,1-2.3-1.06,5.56,5.56,0,0,1-1.66-1.71,4.7,4.7,0,0,1-1.55,1.68,6.33,6.33,0,0,1-2.35,1.09l-.55-.75a5.32,5.32,0,0,0,2.77-1.28,3,3,0,0,0,1.25-2.09v-.27h.88v.26a2.92,2.92,0,0,0,1.22,2.08,5.3,5.3,0,0,0,2.8,1.3Zm-3.19-4.3v-3.44H53.3v-.76h2.6v-2.33h.85v6.53Zm2,.82v-7.57h.86v7.57Z"/><path class="cls-30" d="M82.68,239.6a36.09,36.09,0,0,1-4.81.18v-7.15h.87V239a32.73,32.73,0,0,0,3.85-.16Zm3,3.41V237.4H84.2v5.27h-.87V231.94h.87v4.68h1.49v-4.91h.88V243Z"/><path class="cls-30" d="M94.67,238.92V243h-.88v-4.09H89v-.79H99.48v.79Zm-4-2.25V232h.86v1.61h5.38V232h.86v4.63Zm6.24-2.25H91.55v1.48h5.38Z"/><path class="cls-30" d="M110.91,238.92V243H110v-4.09h-4.8v-.79h10.49v.79Zm-4-2.25V232h.86v1.61h5.38V232H114v4.63Zm6.24-2.25h-5.38v1.48h5.38Z"/><path class="cls-30" d="M117.37,234.3v-.79h2.91v-1.8h.88v1.8h2.92v.79Zm3.34,5.91a2.89,2.89,0,0,1-2-.73,2.4,2.4,0,0,1,0-3.58,3.26,3.26,0,0,1,4.09,0,2.34,2.34,0,0,1,.8,1.81,2.29,2.29,0,0,1-.8,1.78A2.92,2.92,0,0,1,120.71,240.21Zm0-4.29a2,2,0,0,0-1.43.52,1.67,1.67,0,0,0-.55,1.26,1.6,1.6,0,0,0,.56,1.24,2,2,0,0,0,1.42.52,2,2,0,0,0,1.42-.52,1.64,1.64,0,0,0,.56-1.24,1.68,1.68,0,0,0-.56-1.26A2,2,0,0,0,120.73,235.92Zm5.31,1.77V243h-.87v-11.3H126v5.2H128v.78Z"/><path class="cls-30" d="M82.7,251.67v2.56h-.87v-2.56H77v-.78H87.47v.78Zm-4.06,4.21v-3.24h.87v2.46H86v.78Zm.09-6.34v-4.33h.88v1.46h5.23v-1.46h.86v4.33Zm6.11-2.09H79.61v1.32h5.23Z"/><path class="cls-30" d="M95,251.25A6.75,6.75,0,0,1,93.44,250a5.68,5.68,0,0,1-1.1-1.49,5.54,5.54,0,0,1-1.1,1.65,6.35,6.35,0,0,1-1.6,1.35l-.64-.61a5.4,5.4,0,0,0,2-1.73,4.12,4.12,0,0,0,.87-2.4v-1.46h.84v1.46a3.61,3.61,0,0,0,.85,2.24,4.94,4.94,0,0,0,2,1.57Zm-4,4.57v-3.53h.89V255h6.32v.8Zm6.84-6.6v3.91H97v-8.22h.88v3.53h1.7v.78Z"/><path class="cls-30" d="M111.23,250.82a7.2,7.2,0,0,1-1.54-1.18,4.91,4.91,0,0,1-1.11-1.41,5.75,5.75,0,0,1-1.1,1.58,6.39,6.39,0,0,1-1.6,1.29l-.63-.6a5.59,5.59,0,0,0,2.06-1.71,3.77,3.77,0,0,0,.83-2.31v-.29h-2.5v-.78h5.83v.78H109v.29a3.46,3.46,0,0,0,.83,2.17,5.19,5.19,0,0,0,2,1.53Zm-.63,5.3a5.16,5.16,0,0,1-2.73-.61,1.79,1.79,0,0,1,0-3.17,6.47,6.47,0,0,1,5.44,0,1.79,1.79,0,0,1,0,3.17A5,5,0,0,1,110.6,256.12Zm0-3.64a4.15,4.15,0,0,0-2,.4,1.17,1.17,0,0,0-.72,1,1.2,1.2,0,0,0,.72,1.06,4.3,4.3,0,0,0,2,.39,4.22,4.22,0,0,0,2-.4,1.12,1.12,0,0,0,0-2.09A4.22,4.22,0,0,0,110.6,252.48Zm3.49-3.68v2.62h-.88v-6.51h.88V248h1.7v.8Z"/><path class="cls-30" d="M123.93,253.35a7.79,7.79,0,0,1-1.82-1.52,5.27,5.27,0,0,1-1.11-1.65,6,6,0,0,1-1.1,1.82,7,7,0,0,1-1.74,1.6l-.67-.69a5.48,5.48,0,0,0,2.16-2,4.74,4.74,0,0,0,.91-2.6v-1.08h-2.8v-.78h2.78v-1.58h.88v1.58h2.81v.78h-2.79l0,1.13a4.23,4.23,0,0,0,.9,2.42,5.36,5.36,0,0,0,2.23,1.83Zm1.82,2.86v-11.3h.88v11.3Z"/><path class="cls-30" d="M77,85.08V84.3h4.45V82h.86V84.3h5.18v.78Zm5.22,5.39a5.1,5.1,0,0,1-2.72-.6,1.77,1.77,0,0,1-1-1.57,1.8,1.8,0,0,1,1-1.59,6.44,6.44,0,0,1,5.43,0,1.79,1.79,0,0,1,0,3.16A5.09,5.09,0,0,1,82.2,90.47Zm3.73-10.78c0,1.66-.05,2.92-.14,3.79L85,83.41c.07-.82.1-1.8.1-2.93H78.8v-.79ZM82.2,86.86a4.26,4.26,0,0,0-2,.39,1.2,1.2,0,0,0-.72,1,1.18,1.18,0,0,0,.71,1,5.48,5.48,0,0,0,4.06,0,1.18,1.18,0,0,0,.71-1,1.2,1.2,0,0,0-.72-1A4.26,4.26,0,0,0,82.2,86.86Z"/><path class="cls-30" d="M91.8,83.26a1.79,1.79,0,0,1-1.15-1.67A1.72,1.72,0,0,1,91.58,80a6.68,6.68,0,0,1,5.31,0,1.72,1.72,0,0,1,.93,1.55,1.76,1.76,0,0,1-1.16,1.67v1.61h2.82v.77H89v-.77H91.8Zm2.44,7.33a5.33,5.33,0,0,1-2.7-.56,1.71,1.71,0,0,1-.93-1.53A1.73,1.73,0,0,1,91.55,87a6.72,6.72,0,0,1,5.37,0,1.73,1.73,0,0,1,0,3.07A5.31,5.31,0,0,1,94.24,90.59Zm0-3.45a4.48,4.48,0,0,0-2,.37,1.06,1.06,0,0,0,0,2,5.88,5.88,0,0,0,4.05,0,1.09,1.09,0,0,0,.69-1,1.12,1.12,0,0,0-.69-1A4.48,4.48,0,0,0,94.24,87.14Zm0-6.9c-1.79,0-2.68.45-2.68,1.35a1.1,1.1,0,0,0,.66,1,4.58,4.58,0,0,0,2,.35,4.53,4.53,0,0,0,2-.35,1.1,1.1,0,0,0,.66-1Q96.91,80.24,94.24,80.24Zm-1.56,4.63h3.1V83.55a8.36,8.36,0,0,1-3.1,0Z"/><path class="cls-30" d="M110.91,86.56v4.09H110V86.56h-4.8v-.79h10.49v.79Zm-4-2.26V79.68h.86v1.61h5.38V79.68H114V84.3Zm6.24-2.24h-5.38v1.48h5.38Z"/><path class="cls-30" d="M117.37,81.94v-.8h2.91V79.35h.88v1.79h2.92v.8Zm3.34,5.9a2.88,2.88,0,0,1-2-.72,2.41,2.41,0,0,1,0-3.59,2.91,2.91,0,0,1,2-.72,2.87,2.87,0,0,1,2,.73,2.34,2.34,0,0,1,.8,1.81,2.29,2.29,0,0,1-.8,1.78A3,3,0,0,1,120.71,87.84Zm0-4.28a2,2,0,0,0-1.43.52,1.66,1.66,0,0,0-.55,1.25,1.62,1.62,0,0,0,.56,1.25,2,2,0,0,0,1.42.52,2.05,2.05,0,0,0,1.42-.52,1.68,1.68,0,0,0,0-2.5A2,2,0,0,0,120.73,83.56ZM126,85.32v5.33h-.87V79.35H126v5.19H128v.78Z"/><path class="cls-30" d="M82.7,99.3v2.57h-.87V99.3H77v-.78H87.47v.78Zm-4.06,4.21v-3.24h.87v2.47H86v.77Zm.09-6.33V92.84h.88v1.47h5.23V92.84h.86v4.34Zm6.11-2.09H79.61v1.32h5.23Z"/><path class="cls-30" d="M95,98.89a6.55,6.55,0,0,1-1.54-1.22,5.37,5.37,0,0,1-1.1-1.49,5.57,5.57,0,0,1-1.1,1.66,6.29,6.29,0,0,1-1.6,1.34l-.64-.6a5.34,5.34,0,0,0,2-1.74,4.07,4.07,0,0,0,.87-2.4V93h.84v1.45a3.57,3.57,0,0,0,.85,2.24,5,5,0,0,0,2,1.58Zm-4,4.57V99.93h.89v2.73h6.32v.8Zm6.84-6.61v3.92H97V92.55h.88v3.52h1.7v.78Z"/><path class="cls-30" d="M111.23,98.45a6.82,6.82,0,0,1-1.54-1.17,5.19,5.19,0,0,1-1.11-1.41,5.58,5.58,0,0,1-1.1,1.57,6.68,6.68,0,0,1-1.6,1.3l-.63-.6a5.71,5.71,0,0,0,2.06-1.72,3.72,3.72,0,0,0,.83-2.3v-.29h-2.5v-.78h5.83v.78H109v.29a3.43,3.43,0,0,0,.83,2.16,5,5,0,0,0,2,1.53Zm-.63,5.3a5.07,5.07,0,0,1-2.73-.61,1.78,1.78,0,0,1,0-3.16,5.12,5.12,0,0,1,2.72-.61,5.05,5.05,0,0,1,2.72.61,1.81,1.81,0,0,1,1,1.58,1.83,1.83,0,0,1-1,1.59A5.13,5.13,0,0,1,110.6,103.75Zm0-3.63a4.28,4.28,0,0,0-2,.39,1.2,1.2,0,0,0-.72,1,1.17,1.17,0,0,0,.72,1,4.17,4.17,0,0,0,2,.4,4.22,4.22,0,0,0,2-.4,1.2,1.2,0,0,0,.72-1,1.18,1.18,0,0,0-.72-1A4.22,4.22,0,0,0,110.6,100.12Zm3.49-3.68v2.62h-.88V92.55h.88v3.09h1.7v.8Z"/><path class="cls-30" d="M123.93,101a7.5,7.5,0,0,1-1.82-1.51A5.29,5.29,0,0,1,121,97.81a5.75,5.75,0,0,1-1.1,1.82,7.1,7.1,0,0,1-1.74,1.61l-.67-.69a5.56,5.56,0,0,0,2.16-2,4.74,4.74,0,0,0,.91-2.6V94.91h-2.8v-.78h2.78V92.55h.88v1.58h2.81v.78h-2.79l0,1.13a4.26,4.26,0,0,0,.9,2.42,5.36,5.36,0,0,0,2.23,1.83Zm1.82,2.87V92.55h.88v11.3Z"/></g></svg>