<svg xmlns="http://www.w3.org/2000/svg" xmlns:xlink="http://www.w3.org/1999/xlink" viewBox="0 0 668 155"><defs><symbol id="a" viewBox="0 0 49.9 49.9"><path d="M19.5,39.9a12,12,0,0,0,13.7,9.9,11.9,11.9,0,0,0,10-11.9,16.4,16.4,0,0,0-.2-2.2,8.2,8.2,0,0,0,6.9-8.3c0-4.6-3.5-8.4-7.7-8.4H20.3A10.5,10.5,0,0,0,10.1,29.6,10.3,10.3,0,0,0,19.5,39.9Z" fill="#59b4d9"/><path d="M15,22a.9.9,0,0,0-1,1v5a.9.9,0,0,0,1,1H26a.9.9,0,0,0,1-1V23a.9.9,0,0,0-1-1Z" fill="#dd5900"/><path d="M26,28V23H15v5H26m0,2H15a2,2,0,0,1-2-2V23a2,2,0,0,1,2-2H26a2,2,0,0,1,2,2v5A2,2,0,0,1,26,30Z" fill="#a0a1a2"/><path d="M28,22a.9.9,0,0,0-1,1v5a.9.9,0,0,0,1,1H39a.9.9,0,0,0,1-1V23a.9.9,0,0,0-1-1Z" fill="#ba141a"/><path d="M39,28V23H28v5H39m0,2H28a2,2,0,0,1-2-2V23a2,2,0,0,1,2-2H39a2,2,0,0,1,2,2v5A2,2,0,0,1,39,30Z" fill="#a0a1a2"/><path d="M2,22a.9.9,0,0,0-1,1v5a.9.9,0,0,0,1,1H13a.9.9,0,0,0,1-1V23a.9.9,0,0,0-1-1Z" fill="#ba141a"/><path d="M13,28V23H2v5H13m0,2H2a2,2,0,0,1-2-2V23a2,2,0,0,1,2-2H13a2,2,0,0,1,2,2v5A2,2,0,0,1,13,30Z" fill="#a0a1a2"/><path d="M15,15a.9.9,0,0,0-1,1v5a.9.9,0,0,0,1,1H26a.9.9,0,0,0,1-1V16a.9.9,0,0,0-1-1Z" fill="#ba141a"/><path d="M26,21V16H15v5H26m0,2H15a2,2,0,0,1-2-2V16a2,2,0,0,1,2-2H26a2,2,0,0,1,2,2v5A2,2,0,0,1,26,23Z" fill="#a0a1a2"/><path d="M2,8A.9.9,0,0,0,1,9v5a.9.9,0,0,0,1,1H13a.9.9,0,0,0,1-1V9a.9.9,0,0,0-1-1Z" fill="#dd5900"/><path d="M13,14V9H2v5H13m0,2H2a2,2,0,0,1-2-2V9A2,2,0,0,1,2,7H13a2,2,0,0,1,2,2v5A2,2,0,0,1,13,16Z" fill="#a0a1a2"/><path d="M2,15a.9.9,0,0,0-1,1v5a.9.9,0,0,0,1,1H13a.9.9,0,0,0,1-1V16a.9.9,0,0,0-1-1Z" fill="#ba141a"/><path d="M13,21V16H2v5H13m0,2H2a2,2,0,0,1-2-2V16a2,2,0,0,1,2-2H13a2,2,0,0,1,2,2v5A2,2,0,0,1,13,23Z" fill="#a0a1a2"/><path d="M15,1a.9.9,0,0,0-1,1V7a.9.9,0,0,0,1,1H26a.9.9,0,0,0,1-1V2a.9.9,0,0,0-1-1Z" fill="#ba141a"/><path d="M26,7V2H15V7H26m0,2H15a2,2,0,0,1-2-2V2a2,2,0,0,1,2-2H26a2,2,0,0,1,2,2V7A2,2,0,0,1,26,9Z" fill="#a0a1a2"/><path d="M28,8a.9.9,0,0,0-1,1v5a.9.9,0,0,0,1,1H39a.9.9,0,0,0,1-1V9a.9.9,0,0,0-1-1Z" fill="#ba141a"/><path d="M39,14V9H28v5H39m0,2H28a2,2,0,0,1-2-2V9a2,2,0,0,1,2-2H39a2,2,0,0,1,2,2v5A2,2,0,0,1,39,16Z" fill="#a0a1a2"/><path d="M28,15a.9.9,0,0,0-1,1v5a.9.9,0,0,0,1,1H39a.9.9,0,0,0,1-1V16a.9.9,0,0,0-1-1Z" fill="#ba141a"/><path d="M39,21V16H28v5H39m0,2H28a2,2,0,0,1-2-2V16a2,2,0,0,1,2-2H39a2,2,0,0,1,2,2v5A2,2,0,0,1,39,23Z" fill="#a0a1a2"/><path d="M15,8a.9.9,0,0,0-1,1v5a.9.9,0,0,0,1,1H26a.9.9,0,0,0,1-1V9a.9.9,0,0,0-1-1Z" fill="#ba141a"/><path d="M26,14V9H15v5H26m0,2H15a2,2,0,0,1-2-2V9a2,2,0,0,1,2-2H26a2,2,0,0,1,2,2v5A2,2,0,0,1,26,16Z" fill="#a0a1a2"/><path d="M28,1a.9.9,0,0,0-1,1V7a.9.9,0,0,0,1,1H39a.9.9,0,0,0,1-1V2a.9.9,0,0,0-1-1Z" fill="#dd5900"/><path d="M39,7V2H28V7H39m0,2H28a2,2,0,0,1-2-2V2a2,2,0,0,1,2-2H39a2,2,0,0,1,2,2V7A2,2,0,0,1,39,9Z" fill="#a0a1a2"/><path d="M2,1A.9.9,0,0,0,1,2V7A.9.9,0,0,0,2,8H13a.9.9,0,0,0,1-1V2a.9.9,0,0,0-1-1Z" fill="#ba141a"/><path d="M13,7V2H2V7H13m0,2H2A2,2,0,0,1,0,7V2A2,2,0,0,1,2,0H13a2,2,0,0,1,2,2V7A2,2,0,0,1,13,9Z" fill="#a0a1a2"/></symbol></defs><title>OJ104467218</title><rect width="668" height="155" fill="#fff"/><rect x="128" y="15" width="230" height="120" fill="#fff"/><rect x="128" y="15" width="230" height="120" fill="#0072c6" opacity="0.25" style="isolation:isolate"/><rect x="468" y="15" width="200" height="140" fill="#fff"/><rect x="468" y="15" width="200" height="140" fill="#3c3c41" opacity="0.15" style="isolation:isolate"/><rect y="15" width="105" height="120" fill="#fff"/><rect y="15" width="105" height="120" fill="#3c3c41" opacity="0.15" style="isolation:isolate"/><rect x="143" y="65" width="95" height="55" fill="#fff"/><rect x="143" y="65" width="95" height="55" fill="#50e6ff" opacity="0.05" style="isolation:isolate"/><rect x="263" y="65" width="80" height="55" fill="#fff"/><rect x="263" y="65" width="80" height="55" fill="#50e6ff" opacity="0.05" style="isolation:isolate"/><path d="M147.3,7.9a8,8,0,0,1,9.1-6.8,7.8,7.8,0,0,1,6.8,6.6,5.4,5.4,0,0,1,7.7.6h.1a5.3,5.3,0,0,1,1.1,2.1,4.8,4.8,0,0,1,5.8,3.5,4.8,4.8,0,0,1-3.5,5.9H146.2a6.1,6.1,0,0,1,1.1-12.1Z" fill="#fff"/><path d="M147.3,7.9a8,8,0,0,1,9.1-6.8,7.8,7.8,0,0,1,6.8,6.6,5.4,5.4,0,0,1,7.7.6h.1a5.3,5.3,0,0,1,1.1,2.1,4.8,4.8,0,0,1,5.8,3.5,4.8,4.8,0,0,1-3.5,5.9H146.2a6.1,6.1,0,0,1,1.1-12.1Z" fill="#0078d4"/><path d="M147.3,7.9a8,8,0,0,1,9.1-6.8,7.8,7.8,0,0,1,6.8,6.6,5.4,5.4,0,0,1,7.7.6h.1a5.3,5.3,0,0,1,1.1,2.1,4.8,4.8,0,0,1,5.8,3.5,4.8,4.8,0,0,1-3.5,5.9H146.2a6.1,6.1,0,0,1,1.1-12.1Z" fill="none" stroke="#fff" stroke-miterlimit="10"/><path d="M146.4,7.9a8.2,8.2,0,0,0-9.2-6.8,8.3,8.3,0,0,0-6.8,6.6,5.3,5.3,0,0,0-7.7.7h0a5.3,5.3,0,0,0-1.1,2.1,4.8,4.8,0,0,0-5.8,3.5,4.9,4.9,0,0,0,3.5,5.9h28.2a6.1,6.1,0,0,0-1.1-12.1Z" fill="#fff"/><path d="M146.4,7.9a8.2,8.2,0,0,0-9.2-6.8,8.3,8.3,0,0,0-6.8,6.6,5.3,5.3,0,0,0-7.7.7h0a5.3,5.3,0,0,0-1.1,2.1,4.8,4.8,0,0,0-5.8,3.5,4.9,4.9,0,0,0,3.5,5.9h28.2a6.1,6.1,0,0,0-1.1-12.1Z" fill="#0078d4"/><path d="M146.4,7.9a8.2,8.2,0,0,0-9.2-6.8,8.3,8.3,0,0,0-6.8,6.6,5.3,5.3,0,0,0-7.7.7h0a5.3,5.3,0,0,0-1.1,2.1,4.8,4.8,0,0,0-5.8,3.5,4.9,4.9,0,0,0,3.5,5.9h28.2a6.1,6.1,0,0,0-1.1-12.1Z" fill="none" stroke="#fff" stroke-miterlimit="10"/><path d="M138.5,9.7a6.9,6.9,0,0,1,13.6-.2,4.6,4.6,0,0,1,6.6.6h0a4,4,0,0,1,1,1.8,4.1,4.1,0,0,1,5,3,4.2,4.2,0,0,1-3,5H137.5a5.3,5.3,0,0,1-4.1-5.2A5.1,5.1,0,0,1,138.5,9.7Z" fill="#fff"/><path d="M138.5,9.7a6.9,6.9,0,0,1,13.6-.2,4.6,4.6,0,0,1,6.6.6h0a4,4,0,0,1,1,1.8,4.1,4.1,0,0,1,5,3,4.2,4.2,0,0,1-3,5H137.5a5.3,5.3,0,0,1-4.1-5.2A5.1,5.1,0,0,1,138.5,9.7Z" fill="#0078d4"/><path d="M138.5,9.7a6.9,6.9,0,0,1,13.6-.2,4.6,4.6,0,0,1,6.6.6h0a4,4,0,0,1,1,1.8,4.1,4.1,0,0,1,5,3,4.2,4.2,0,0,1-3,5H137.5a5.3,5.3,0,0,1-4.1-5.2A5.1,5.1,0,0,1,138.5,9.7Z" fill="none" stroke="#fff" stroke-miterlimit="10"/><line x1="468" y1="55" x2="363.4" y2="55" fill="none" stroke="#3c3c41" stroke-miterlimit="10"/><polygon points="364.5 51.3 358 55 364.5 58.7 364.5 51.3" fill="#3c3c41"/><line x1="462.6" y1="90.5" x2="358" y2="90.5" fill="none" stroke="#3c3c41" stroke-miterlimit="10"/><polygon points="461.5 86.8 468 90.5 461.5 94.3 461.5 86.8" fill="#3c3c41"/><line x1="137.6" y1="90.5" x2="105.1" y2="90.5" fill="none" stroke="#3c3c41" stroke-miterlimit="10"/><polygon points="136.5 86.8 143 90.5 136.5 94.3 136.5 86.8" fill="#3c3c41"/><line x1="257.6" y1="90.5" x2="238" y2="90.5" fill="none" stroke="#3c3c41" stroke-miterlimit="10"/><polygon points="256.5 86.8 263 90.5 256.5 94.3 256.5 86.8" fill="#3c3c41"/><path d="M21.5,73.9a.6.6,0,0,0,.2.5l.4.5.6.4.5.2a8.6,8.6,0,0,0,.6,2.3l-1.4-.5a6.7,6.7,0,0,1-1.4-.9,5.2,5.2,0,0,1-1-1.1,2.3,2.3,0,0,1-.4-1.4V56.2a3.2,3.2,0,0,1,.3-1.4,4.7,4.7,0,0,1,1-1,3.8,3.8,0,0,1,1.3-.9l1.5-.6,1.5-.4,1.3-.3a26.2,26.2,0,0,1,7.9,0l1.3.3,1.5.4,1.6.6a5.1,5.1,0,0,1,1.3.9,2.8,2.8,0,0,1,.9,1,2.3,2.3,0,0,1,.4,1.4v9.6a7,7,0,0,0-2-.8V59.1a8.8,8.8,0,0,1-2,.9l-2.3.7-2.4.3H28.2l-2.3-.3L23.6,60a7.2,7.2,0,0,1-2-.9Zm8.9-20.7h-2l-2.3.3-2.2.6a7.7,7.7,0,0,0-1.8,1l-.4.5a.8.8,0,0,0,0,1.1l.4.4a7.7,7.7,0,0,0,1.8,1l2.2.6,2.3.3h4l2.3-.3,2.2-.6,1.8-1c.1-.2.3-.3.4-.4a.8.8,0,0,0,0-1.1l-.4-.5-1.8-1-2.2-.6-2.3-.3ZM43,71a4.9,4.9,0,0,1,1.7.6,4.1,4.1,0,0,1,1.3,1,3.8,3.8,0,0,1,.9,1.5,4.7,4.7,0,0,1,.3,1.7,4.1,4.1,0,0,1-.4,1.9,4.4,4.4,0,0,1-1,1.6,5.4,5.4,0,0,1-1.6,1,4.3,4.3,0,0,1-1.9.4H31.4A5.9,5.9,0,0,1,27.2,79a5,5,0,0,1-1.3-1.9,6.1,6.1,0,0,1,0-4.6,5.7,5.7,0,0,1,3.2-3.1,5.9,5.9,0,0,1,2.3-.4l1.4.2a5.3,5.3,0,0,1,2-1.6,6.4,6.4,0,0,1,4.3-.3A5.6,5.6,0,0,1,42,69.4,3.9,3.9,0,0,1,43,71Zm-.7,7.8,1.2-.2.9-.6a3,3,0,0,0,.1-4.2h-.1a1.8,1.8,0,0,0-.9-.6,2.7,2.7,0,0,0-1.2-.3h-1a3.7,3.7,0,0,0-.3-1.5,5.7,5.7,0,0,0-.8-1.3,3.5,3.5,0,0,0-1.3-.8,2.2,2.2,0,0,0-1.6-.3,2.5,2.5,0,0,0-1.2.1,3.3,3.3,0,0,0-1,.6,3.6,3.6,0,0,0-1.5,1.9,3.8,3.8,0,0,0-5,.5,2.7,2.7,0,0,0-.9,1.2,4.2,4.2,0,0,0,0,3.1,4.2,4.2,0,0,0,3.7,2.4Z"/><use width="49.9" height="49.94" transform="matrix(0.64, 0, 0, -0.64, 58.02, 81.94)" xlink:href="#a"/><rect x="625.4" y="24" width="30.5" height="16.45" fill="#fff"/><path d="M657.2,20.3a.6.6,0,0,0-.5-.6H624.8a.6.6,0,0,0-.6.6h0V40.2a.6.6,0,0,0,.6.6h31.9a.6.6,0,0,0,.5-.6Zm-28.5,3.1h-1.6V21.8h1.6Zm3.3,0h-1.6V21.8H632Zm3.3,0h-1.6V21.8h1.6Zm-9.9,1.3H656V39.5H625.4Z"/><path d="M146.3,64.3l-.6-1.4,1.5-.7a3.7,3.7,0,0,1,0-2.1l-1.5-.6.6-1.5,1.5.6a5.4,5.4,0,0,1,1.5-1.5l-.6-1.5,1.4-.6.7,1.5h2.1l.6-1.5,1.5.6-.6,1.5a5.4,5.4,0,0,1,1.5,1.5l1.5-.6.6,1.5-1.5.6a7.4,7.4,0,0,1,0,2.1l1.5.7-.6,1.4-1.5-.6a5.4,5.4,0,0,1-1.5,1.5l.6,1.5-1.5.6-.6-1.5h-2.1l-.7,1.5-1.4-.6.6-1.5a8,8,0,0,1-1.5-1.5Zm6.8-.2,1-.7a2.1,2.1,0,0,0,.6-1,2.7,2.7,0,0,0,.3-1.2,2.4,2.4,0,0,0-.3-1.2,1.7,1.7,0,0,0-.6-1,3,3,0,0,0-1-.7,2.8,2.8,0,0,0-1.3-.3,2.7,2.7,0,0,0-1.2.3,2.3,2.3,0,0,0-1,.7,2.6,2.6,0,0,0-.7,1,2.3,2.3,0,0,0-.2,1.2,2.5,2.5,0,0,0,.2,1.2,3.6,3.6,0,0,0,.7,1l1,.7a2.7,2.7,0,0,0,1.2.3,2.8,2.8,0,0,0,1.3-.3Zm-18.6,4.4-1.7-.7.6-1.4,1.7.7a6.4,6.4,0,0,1,2-2l-.7-1.7,1.4-.6.7,1.7h2.8l.7-1.7,1.5.6-.7,1.7a6.1,6.1,0,0,1,1.9,2l1.7-.7.6,1.4-1.7.7a5,5,0,0,1,0,2.8l1.7.7-.6,1.5-1.7-.7a5.2,5.2,0,0,1-2,1.9l.8,1.7L142,77l-.7-1.7-1.4.2-1.4-.2-.6,1.7-1.5-.6.7-1.7a7.3,7.3,0,0,1-2-1.9l-1.7.7-.6-1.5,1.7-.7a6.1,6.1,0,0,1-.1-1.4A7.1,7.1,0,0,1,134.5,68.5Zm7,5a5,5,0,0,0,1.2-.8,3.8,3.8,0,0,0,.9-1.3,4,4,0,0,0,.3-1.5,4.1,4.1,0,0,0-.3-1.6,5.3,5.3,0,0,0-2.1-2.1,4.1,4.1,0,0,0-1.6-.3,4,4,0,0,0-1.5.3,3.8,3.8,0,0,0-1.3.9,5,5,0,0,0-.8,1.2,3.2,3.2,0,0,0,0,3.1,5.7,5.7,0,0,0,.8,1.3,5.7,5.7,0,0,0,1.3.8,4,4,0,0,0,1.5.3,3,3,0,0,0,1.6-.2Z" fill="#0078d7"/><path d="M273,55H262V77h11Z" fill="#50e6ff"/><path d="M262,60.8h-5.2V71.2H262Z" fill="#0078d4"/><path d="M267.2,60.8H262V71.2h5.2Z" fill="#0078d4"/><path d="M255.6,72.4H251V77h4.6Z" fill="#0078d4"/><path d="M504.3,144.9a.6.6,0,0,1-.6-.6h0c0-.2,0-.4.2-.5l.4-.2.5.2a.8.8,0,0,1,.2.5.7.7,0,0,1-.7.6Z" fill="#1e1e1e"/><path d="M510.2,144.9a.6.6,0,0,1-.5-.2l-.2-.4a.8.8,0,0,1,.2-.5c.3-.2.7-.3.9,0h.1a.6.6,0,0,1,0,.9A.6.6,0,0,1,510.2,144.9Z" fill="#1e1e1e"/><path d="M516.1,144.9c-.2,0-.4,0-.5-.2l-.2-.4a.8.8,0,0,1,.2-.5l.5-.2a.8.8,0,0,1,.7.7.5.5,0,0,1-.3.4C516.4,144.9,516.3,144.9,516.1,144.9Z" fill="#1e1e1e"/><path d="M40.5,32.8a40.6,40.6,0,0,1-4.8.2V25.7H40V27H37.1v4.7h3.3Zm-1.4-2.9V28.6h2.2V25h1.4V35.8H41.3V29.9Zm4.5,6.2V24.8h1.5V36.1Z"/><path d="M50.7,33.4a2.7,2.7,0,0,1-2.2-1.1,4.3,4.3,0,0,1-.8-2.9,4.3,4.3,0,0,1,.8-2.9,2.6,2.6,0,0,1,2.2-1,2.4,2.4,0,0,1,2.1,1,4.3,4.3,0,0,1,.8,2.9,4.3,4.3,0,0,1-.8,2.9A2.5,2.5,0,0,1,50.7,33.4Zm0-6.7a1.4,1.4,0,0,0-1.2.8,4.5,4.5,0,0,0-.4,1.9,3.9,3.9,0,0,0,.5,2,1.2,1.2,0,0,0,1.1.7,1.3,1.3,0,0,0,1.1-.7,3.7,3.7,0,0,0,.4-2,3.4,3.4,0,0,0-.4-1.9A1.4,1.4,0,0,0,50.7,26.7Zm4.6,9.4V24.8h1.5V36.1Z"/><path d="M61.3,29.7v2h4.8v1.2H59.9V25.7h5.7V27H61.3v1.5h3.4v1.2Zm6.3,6.4v-6H65.5V28.9h2.1V24.8h1.5V36.1Z"/><path d="M185.8,35h-2.1l-.6-1.9h-3l-.6,1.9h-2.1l3.1-8.4h2.3Zm-3.2-3.3-.9-2.9c0-.2-.1-.4-.1-.7h-.1a1.7,1.7,0,0,1-.1.7l-.9,2.9Z"/><path d="M191.4,35H186v-.8l3-3.9h-2.7V29h5.1v.9l-2.9,3.7h2.9Z"/><path d="M198.1,35h-1.8v-.9h0a2.2,2.2,0,0,1-1.9,1c-1.4,0-2.1-.8-2.1-2.5V29h1.9v3.4c0,.9.3,1.3,1,1.3a1.1,1.1,0,0,0,.8-.3,1.7,1.7,0,0,0,.3-1V29h1.8Z"/><path d="M203.6,30.6h-.7a1.2,1.2,0,0,0-1,.4,2.1,2.1,0,0,0-.3,1.2V35h-1.9V29h1.9v1.1h0a1.6,1.6,0,0,1,1.6-1.2h.4Z"/><path d="M209.9,32.5h-4c.1.9.7,1.3,1.7,1.3a3.7,3.7,0,0,0,1.8-.4v1.3a4.8,4.8,0,0,1-2.2.4,2.8,2.8,0,0,1-2.3-.8,3.1,3.1,0,0,1-.8-2.2,3.2,3.2,0,0,1,.9-2.4,3,3,0,0,1,4.2-.1,3.3,3.3,0,0,1,.7,2.1Zm-1.7-1.1c0-.9-.4-1.3-1.1-1.3a1.3,1.3,0,0,0-.8.3,3,3,0,0,0-.4,1Z"/><path d="M220.6,34.7a6.2,6.2,0,0,1-2.5.4,3.7,3.7,0,0,1-3-1.1,4,4,0,0,1-1.1-3,4.5,4.5,0,0,1,1.2-3.3,4.3,4.3,0,0,1,3.3-1.3,6.6,6.6,0,0,1,2.1.3v1.9a3.6,3.6,0,0,0-2-.6,2.6,2.6,0,0,0-1.9.8,2.7,2.7,0,0,0-.7,2,2.7,2.7,0,0,0,.7,2,2.1,2.1,0,0,0,1.8.7,5,5,0,0,0,2.1-.5Z"/><path d="M224.7,35.1a2.8,2.8,0,0,1-2.3-.8,3,3,0,0,1-.9-2.3,2.9,2.9,0,0,1,.9-2.3,3.6,3.6,0,0,1,4.8,0,3.1,3.1,0,0,1,.8,2.2,3.2,3.2,0,0,1-.9,2.4A3.2,3.2,0,0,1,224.7,35.1Zm.1-4.9a1.4,1.4,0,0,0-1.1.5,2.3,2.3,0,0,0-.3,1.3c0,1.1.4,1.7,1.4,1.7s1.3-.6,1.3-1.8S225.7,30.2,224.8,30.2Z"/><path d="M235.1,34.3a3.6,3.6,0,0,1-.9,2.6,4.1,4.1,0,0,1-2.8.9,5.3,5.3,0,0,1-2-.3V35.9a3.5,3.5,0,0,0,1.9.6,2.5,2.5,0,0,0,1.5-.5,2.2,2.2,0,0,0,.5-1.4v-.5h0a2.2,2.2,0,0,1-1.9,1,2.2,2.2,0,0,1-1.9-.8,3.3,3.3,0,0,1-.6-2.1,3.7,3.7,0,0,1,.7-2.5,2.5,2.5,0,0,1,2-.9,2,2,0,0,1,1.7.9h0V29h1.8Zm-1.8-2.2v-.5a1.7,1.7,0,0,0-.3-1,1.8,1.8,0,0,0-.9-.4,1.2,1.2,0,0,0-1,.5,2.9,2.9,0,0,0-.3,1.4,2.1,2.1,0,0,0,.3,1.2,1.2,1.2,0,0,0,1.8,0A1.6,1.6,0,0,0,233.3,32.1Z"/><path d="M242.5,35h-1.8V31.6c0-.9-.4-1.4-1-1.4a1,1,0,0,0-.8.4,1.7,1.7,0,0,0-.3,1V35h-1.9V29h1.9v.9h0a2.1,2.1,0,0,1,1.9-1.1c1.4,0,2,.8,2,2.5Z"/><path d="M244.9,28a1,1,0,0,1-1-1,.7.7,0,0,1,.3-.6.9.9,0,0,1,.7-.3,1,1,0,0,1,.8.3.7.7,0,0,1,.3.6.8.8,0,0,1-.3.7A1,1,0,0,1,244.9,28Zm1,7H244V29h1.9Z"/><path d="M251.1,34.9a2.4,2.4,0,0,1-1.3.2c-1.3,0-1.9-.6-1.9-2V30.3h-1V29h1V27.7l1.8-.6V29h1.4v1.3h-1.4v2.5c0,.6.3.9.8.9h.6Z"/><path d="M253.1,28a1,1,0,0,1-.8-.3.9.9,0,0,1-.3-.7.7.7,0,0,1,.3-.6,1,1,0,0,1,.8-.3.9.9,0,0,1,.7.3.7.7,0,0,1,.3.6.8.8,0,0,1-.3.7A.9.9,0,0,1,253.1,28Zm.9,7h-1.9V29H254Z"/><path d="M261.3,29,259,35h-2.1l-2.1-6h2l1,3.7a5.2,5.2,0,0,1,.2,1.1h.1a5.2,5.2,0,0,1,.2-1.1l1.1-3.7Z"/><path d="M267.4,32.5h-3.9c0,.9.6,1.3,1.6,1.3a3.4,3.4,0,0,0,1.8-.4v1.3a4.8,4.8,0,0,1-2.2.4,3,3,0,0,1-2.3-.8,3.1,3.1,0,0,1-.8-2.2,3.2,3.2,0,0,1,.9-2.4,3,3,0,0,1,4.2-.1,2.8,2.8,0,0,1,.7,2.1Zm-1.7-1.1c0-.9-.4-1.3-1.1-1.3a1.3,1.3,0,0,0-.8.3,3,3,0,0,0-.4,1Z"/><path d="M271.6,34.7V32.8a3,3,0,0,0,1.1.6l1.2.3h.7l.4-.2.3-.3a.4.4,0,0,0,.1-.3.5.5,0,0,0-.2-.4l-.3-.4-.6-.3-.8-.3a3.9,3.9,0,0,1-1.4-1,2,2,0,0,1-.5-1.5,2,2,0,0,1,.3-1.1,1.8,1.8,0,0,1,.7-.8l1-.4,1.3-.2h1.2l.9.2v1.8l-.4-.3H276l-.5-.2H274l-.3.3c-.1.1-.1.2-.1.4a.4.4,0,0,0,.1.3l.3.4.5.3.7.3.9.4.7.5a2.5,2.5,0,0,1,.4.7,2.9,2.9,0,0,1,.2.9,2.1,2.1,0,0,1-.3,1.2,2.7,2.7,0,0,1-.7.8l-1.1.4h-2.6A3.5,3.5,0,0,1,271.6,34.7Z"/><path d="M284,32.5h-3.9c0,.9.6,1.3,1.6,1.3a3.4,3.4,0,0,0,1.8-.4v1.3a4.8,4.8,0,0,1-2.2.4,3,3,0,0,1-2.3-.8,3.1,3.1,0,0,1-.8-2.2,3.2,3.2,0,0,1,.9-2.4,3,3,0,0,1,4.2-.1,2.8,2.8,0,0,1,.7,2.1Zm-1.7-1.1c0-.9-.4-1.3-1.1-1.3a.9.9,0,0,0-.7.3,1.3,1.3,0,0,0-.4,1Z"/><path d="M290.1,35h-1.7v-.9h0a1.9,1.9,0,0,1-1.8,1,1.6,1.6,0,0,1-1.4-.5,1.4,1.4,0,0,1-.5-1.3c0-1.1.7-1.8,2.1-2l1.6-.2c0-.7-.4-1-1.1-1a3.6,3.6,0,0,0-2,.6V29.3l1-.3,1.3-.2c1.7,0,2.5.9,2.5,2.6Zm-1.7-2.5v-.4l-1.1.2c-.6.1-.9.3-.9.8a.8.8,0,0,0,.2.5.7.7,0,0,0,.6.2,1.4,1.4,0,0,0,.9-.3A1.7,1.7,0,0,0,288.4,32.5Z"/><path d="M295.5,30.6h-.7a1.2,1.2,0,0,0-1,.4,2.1,2.1,0,0,0-.3,1.2V35h-1.9V29h1.9v1.1h0a1.6,1.6,0,0,1,1.6-1.2h.4Z"/><path d="M300.9,34.8a4.2,4.2,0,0,1-1.8.3,2.7,2.7,0,0,1-2.2-.8,2.9,2.9,0,0,1-.9-2.2,3.2,3.2,0,0,1,.9-2.4,3.5,3.5,0,0,1,2.5-.9,2.8,2.8,0,0,1,1.5.3v1.6a1.9,1.9,0,0,0-1.3-.5,1.7,1.7,0,0,0-1.2.5,1.9,1.9,0,0,0-.5,1.3,1.5,1.5,0,0,0,1.7,1.7,2.2,2.2,0,0,0,1.3-.4Z"/><path d="M308,35h-1.9V31.6c0-.9-.3-1.4-1-1.4a1.2,1.2,0,0,0-.8.4,1.7,1.7,0,0,0-.3,1V35h-1.8V26.1H304v3.8h0a2.3,2.3,0,0,1,1.9-1.1c1.4,0,2.1.8,2.1,2.5Z"/><path d="M175.8,77.5a2.9,2.9,0,0,1-2.2-.9,2.9,2.9,0,0,1-.8-2.2,2.5,2.5,0,0,1,.8-2.1,3.1,3.1,0,0,1,4.4,0,2.9,2.9,0,0,1,.8,2.1,3.3,3.3,0,0,1-.8,2.2A2.9,2.9,0,0,1,175.8,77.5Zm0-4.8a1.6,1.6,0,0,0-1.2.4,2,2,0,0,0-.4,1.3,1.7,1.7,0,0,0,.4,1.3,1.7,1.7,0,0,0,2.4,0,2.2,2.2,0,0,0,.4-1.3,1.7,1.7,0,0,0-.5-1.2A1.2,1.2,0,0,0,175.8,72.7ZM174.6,82V78.2h1.5v2.5h6V82Zm5.8-2.9V71h1.5v8.1Z"/><path d="M189.6,76.7l-4.8.2V71.5h4.4v1.2h-3v2.9h3.3Zm3.1,5.7V79.3h-6V78h7.5v4.4Zm-2.2-4.9V74.7h-2.2V73.5h2.2V71.2h1.4v6.3Zm2.2,0V71h1.5v6.5Z"/><path d="M202.5,77.1a6.2,6.2,0,0,1-2.6-2.1,5.3,5.3,0,0,1-1.1,1.3l-1.4,1.2-1.1-1.1a5.6,5.6,0,0,0,2.1-1.6,3.3,3.3,0,0,0,.7-2.1V71.3h1.5v1.4a3.2,3.2,0,0,0,.8,2,4.1,4.1,0,0,0,2,1.2Zm-.1,5.2a5.5,5.5,0,0,1-2.8-.6,2.2,2.2,0,0,1-1-1.7,2.2,2.2,0,0,1,1-1.8,5.5,5.5,0,0,1,2.8-.6,5.4,5.4,0,0,1,2.7.6,2.1,2.1,0,0,1,1,1.8,2,2,0,0,1-1,1.7A5.4,5.4,0,0,1,202.4,82.3Zm0-3.5a3.7,3.7,0,0,0-1.7.3,1,1,0,0,0-.6.9.9.9,0,0,0,.6.8,3.7,3.7,0,0,0,1.7.3,3.2,3.2,0,0,0,1.6-.3.9.9,0,0,0,.6-.8,1,1,0,0,0-.6-.9A3.2,3.2,0,0,0,202.4,78.8Zm2.1-1.3V71h1.4v6.5Z"/><path d="M193,46.1a3.3,3.3,0,0,1-2.2-.8,3.2,3.2,0,0,1-.8-2.1,2.9,2.9,0,0,1,.8-2.1,3.3,3.3,0,0,1,2.2-.8,3.2,3.2,0,0,1,2.1.8,2.5,2.5,0,0,1,.8,2.1,2.8,2.8,0,0,1-.8,2.1A3.2,3.2,0,0,1,193,46.1Zm0-5a2.1,2.1,0,0,0-2.1,2.1,2,2,0,0,0,.6,1.5,1.8,1.8,0,0,0,1.5.6,2.1,2.1,0,0,0,2.1-2.1,1.8,1.8,0,0,0-.6-1.5A2,2,0,0,0,193,41.1Zm-1.6,9.7V47.1h.9V50h6.6v.8Zm6.3-2.6V39.9h.9v8.3Z"/><path d="M206.8,45.5h-4.5V40.4h4.3v.8h-3.5v3.6h3.7Zm3.2,5.7V47.8h-6.6V47h7.4v4.2Zm-2.1-4.8v-3h-2.5v-.8h2.5V40.1h.9v6.3Zm2.1,0V39.9h.8v6.5Z"/><path d="M223.8,49.3H213.3v-.8h10.5Zm-5.3-6.5a5.2,5.2,0,0,1-1.6,1.8,5.8,5.8,0,0,1-2.6,1.3l-.6-.7a5.7,5.7,0,0,0,3.2-1.6,3.3,3.3,0,0,0,1.2-2.2v-.6h.9v.6a3.3,3.3,0,0,0,1.2,2.2,6.1,6.1,0,0,0,3.2,1.6l-.7.7a8.5,8.5,0,0,1-2.5-1.3A5.6,5.6,0,0,1,218.5,42.8Z"/><path d="M230.8,45.1V40.3H236v4.8Zm8.7,5.9a6.1,6.1,0,0,1-4-2.4,6.5,6.5,0,0,1-1.7,1.5,10.2,10.2,0,0,1-2.2.9l-.6-.7a7.4,7.4,0,0,0,2.6-1,3.5,3.5,0,0,0,1.4-1.6h-3.4v-.8h3.5V45.7h.8v1.2h3.5v.8H236a2.9,2.9,0,0,0,1.4,1.6,4.9,4.9,0,0,0,2.6,1Zm-4.3-9.9h-3.6v3.2h3.6Zm3,5.1V39.9h.8v6.3Z"/><path d="M249.3,50.8v-5H246v-.8h5.7a15.3,15.3,0,0,1,.1-1.8l-4.8.3-.2-.8,5-.2V41.2h-4.6v-.8h5.5c0,1.4-.1,2.9-.2,4.6h1.3v.7l-3.6.2v5Zm2.4-3.1V47h2.8V39.9h.9V51.2h-.9V47.7Z"/><path d="M258.8,48.8V44.3h4.3V41.7h-4.3v-.8H264V45h-4.3v3a51.7,51.7,0,0,0,5.4-.2v.7A40.5,40.5,0,0,1,258.8,48.8Zm7.6,2.4V39.9h.9V51.2Z"/><path d="M279.8,43.7a2.5,2.5,0,0,1-.8,1.7,2.8,2.8,0,0,1-1.8.6,2.6,2.6,0,0,1-1.9-.7,2.8,2.8,0,0,1-.7-2.1,2.6,2.6,0,0,1,2.6-2.8,2.4,2.4,0,0,1,1.8.7,2.2,2.2,0,0,1,.8,1.8h1.3V40.1h.8v7.6h-.8v-4Zm-2.6-2.5a2.1,2.1,0,0,0-1.3.5,3,3,0,0,0,0,3,1.8,1.8,0,0,0,1.3.6,1.5,1.5,0,0,0,1.3-.6,2.5,2.5,0,0,0,0-3A1.7,1.7,0,0,0,277.2,41.2Zm-.5,9.6V47.1h.9V50h6.6v.8ZM283,48V39.9h.9V48Z"/><path d="M292.8,46.3l-1.6-1.4a4.8,4.8,0,0,1-1.1-1.5,7.3,7.3,0,0,1-1.1,1.8,7,7,0,0,1-1.7,1.4l-.6-.6a7.6,7.6,0,0,0,2.1-1.9,4,4,0,0,0,.9-2.4v-.4h-2.6v-.8h6v.8h-2.6v.4a4,4,0,0,0,.9,2.3,5.9,5.9,0,0,0,2,1.6Zm-4.1,4.6V47.1h.9v3H296v.8Zm6.1-3v-8h.9v8Z"/><path d="M399.1,29.4V28.2h2.7V25.6a2.4,2.4,0,0,1-1.3-2.2,2.8,2.8,0,0,1,1.1-2.2,4.9,4.9,0,0,1,2.8-.7,5.2,5.2,0,0,1,2.9.7,2.8,2.8,0,0,1,1.1,2.2,2.6,2.6,0,0,1-1.3,2.2v2.6h2.6v1.2Zm5.3-7.7a2.9,2.9,0,0,0-1.7.4,1.4,1.4,0,0,0-.7,1.3,1.3,1.3,0,0,0,.7,1.2,2.9,2.9,0,0,0,1.7.5,3,3,0,0,0,1.8-.5,1.5,1.5,0,0,0,.7-1.2,1.6,1.6,0,0,0-.7-1.3A3,3,0,0,0,404.4,21.7Zm-1.1,6.5h2.3v-2h-2.3Z"/><path d="M417.7,26a7,7,0,0,1-2.7-1.9,5.8,5.8,0,0,1-1.1,1.3,6.5,6.5,0,0,1-1.5,1l-1-1a5.4,5.4,0,0,0,2.1-1.3,2.8,2.8,0,0,0,.7-1.9V22h-2.5V20.8h2.5V19.5h1.5v1.3h2.6V22h-2.6v.2a2.5,2.5,0,0,0,.8,1.7,5.3,5.3,0,0,0,2.1,1.1Zm-.2,4.9a5.3,5.3,0,0,1-2.8-.6,1.8,1.8,0,0,1-1-1.6,1.9,1.9,0,0,1,1-1.7,6.8,6.8,0,0,1,5.6,0,2,2,0,0,1,.9,1.7,1.8,1.8,0,0,1-.9,1.6A5.5,5.5,0,0,1,417.5,30.9Zm0-3.3a3.4,3.4,0,0,0-1.7.3c-.4.2-.6.4-.6.8s.2.5.6.7a3.4,3.4,0,0,0,1.7.3,4,4,0,0,0,1.7-.3c.4-.2.5-.4.5-.7a.7.7,0,0,0-.5-.8A4,4,0,0,0,417.5,27.6Zm2.1-1.3V23.8h-2.1V22.6h2.1V19.7h1.5v6.6Z"/><path d="M398.9,101.6v-1.3h10.6v1.3Zm5.3,4.9a6,6,0,0,1-2.9-.6,1.8,1.8,0,0,1,0-3.2,6,6,0,0,1,2.9-.5,5.6,5.6,0,0,1,2.9.5,1.8,1.8,0,0,1,0,3.2A5.7,5.7,0,0,1,404.2,106.5Zm0-6.8a5.3,5.3,0,0,1-2.8-.6,1.7,1.7,0,0,1-1-1.6,1.6,1.6,0,0,1,1-1.5,5.3,5.3,0,0,1,2.8-.6,5.7,5.7,0,0,1,2.9.6,1.6,1.6,0,0,1,1,1.5,1.7,1.7,0,0,1-1,1.6A5.7,5.7,0,0,1,404.2,99.7Zm0,3.7c-1.6,0-2.3.3-2.3.9a.7.7,0,0,0,.6.7,3.7,3.7,0,0,0,1.7.3,4.2,4.2,0,0,0,1.8-.3.7.7,0,0,0,.6-.7Q406.6,103.4,404.2,103.4Zm0-6.9a4,4,0,0,0-1.7.3c-.4.2-.6.4-.6.7s.2.6.6.8a4,4,0,0,0,1.7.3c1.6,0,2.4-.4,2.4-1.1s-.2-.5-.6-.7A4.2,4.2,0,0,0,404.2,96.5Z"/><path d="M417.7,100.5h-6.1V95.7h5.6v1.2h-4.1v2.5l4.5-.2Zm-4.6,5.8v-4.6h1.5v1.2h4.2v-1.2h1.5v4.6Zm5.7-2.2h-4.2v.9h4.2Zm1.5-4.9v2h-1.5v-6h1.5v2.7H422v1.3Z"/><path d="M565.4,30.8a2.7,2.7,0,0,1-1.9-.8,2.3,2.3,0,0,1-.8-2,2.4,2.4,0,0,1,.8-2,2.7,2.7,0,0,1,3.8,0,2.5,2.5,0,0,1,.9,2,2.4,2.4,0,0,1-.9,2A2.6,2.6,0,0,1,565.4,30.8Zm0-4.4a1.1,1.1,0,0,0-.9.5,1.2,1.2,0,0,0-.4,1.1,1.6,1.6,0,0,0,.4,1.2,1.2,1.2,0,0,0,1.8,0,1.6,1.6,0,0,0,.4-1.2,1.2,1.2,0,0,0-.4-1.1A1.1,1.1,0,0,0,565.4,26.4Zm-.1,9.6V31.7h1.4v1h4.4v-1h1.5V36Zm5.8-2.1h-4.4v.9h4.4Zm0-2.7V29h-.9v2.2h-1.4v-6h1.4v2.6h.9V24.9h1.5v6.3Z"/><path d="M368,46.5a7.9,7.9,0,0,1-1.8-5.3,7.9,7.9,0,0,1,1.8-5.3h.8a8.7,8.7,0,0,0,0,10.6Z"/><path d="M376.1,44.5H375l-1.4-2.4c-.3-.5-.5-.9-.8-1a1.1,1.1,0,0,0-.8-.3h-.9v3.7h-.9V35.9h2.5a2.8,2.8,0,0,1,1.8.6,2.4,2.4,0,0,1,.7,1.7,2.2,2.2,0,0,1-1.9,2.3h0a1,1,0,0,1,.6.5c.2.1.4.5.7.9Zm-5-7.7v3.1h1.4a1.6,1.6,0,0,0,1.2-.4,1.3,1.3,0,0,0,.5-1.2,1.2,1.2,0,0,0-.4-1.1,1.7,1.7,0,0,0-1.3-.4Z"/><path d="M381.8,44.5h-4.3V35.9h4.1v.9h-3.2v2.9h3v.9h-3v3.1h3.4Z"/><path d="M383.3,43c.2.3.6.4,1,.6l1.2.2c1.2,0,1.8-.5,1.8-1.4a1.9,1.9,0,0,0-.2-.7l-.5-.5-1.3-.7-1.6-1.1a2.1,2.1,0,0,1-.4-1.4,1.7,1.7,0,0,1,.8-1.6,2.7,2.7,0,0,1,2-.7,3.9,3.9,0,0,1,1.8.3v1.1a3.6,3.6,0,0,0-1.9-.5,2,2,0,0,0-1.3.4,1.1,1.1,0,0,0-.5.9,1.3,1.3,0,0,0,.4,1l1.4.9a4.6,4.6,0,0,1,1.8,1.3,2,2,0,0,1,.4,1.3,2.1,2.1,0,0,1-.7,1.7,3.8,3.8,0,0,1-2.2.6l-1.1-.2-.9-.3Z"/><path d="M395,36.8h-2.4v7.7h-1V36.8h-2.3v-.9H395Z"/><path d="M400.4,43.8V43H405V40.8h.8V43h4.7v.8Zm.9-8.5h3.6v.8h-2.7v3.3h2.9v.7h-3.8Zm4.3,0h3.7v.8h-2.9v3.3h3.1v.7h-3.9Z"/><path d="M412.1,40.8V40h10.1v.8Zm1.8,4.4V41.8h.8v2.6h6v.8Zm0-6.7V34.7h.9v3h5.9v.8Z"/><path d="M428,44c0-.2.1-.3.2-.5h.9c.1.2.2.3.2.5s-.1.3-.2.5l-.5.2-.4-.2C428.1,44.3,428,44.2,428,44Z"/><path d="M437.8,44.5h-1.1l-4.3-7-.3-.5h0v7.5h-.9V35.9h1.2l4.2,6.9c.2.3.3.5.4.5h0a3.8,3.8,0,0,1-.1-1.2V35.9h.9Z"/><path d="M444.6,44.5h-4.4V35.9h4.2v.9h-3.3v2.9h3.1v.9h-3.1v3.1h3.5Z"/><path d="M451.3,36.8h-2.4v7.7H448V36.8h-2.4v-.9h5.7Z"/><path d="M451.8,46.5a8.7,8.7,0,0,0,0-10.6h.8a7.9,7.9,0,0,1,1.8,5.3,7.9,7.9,0,0,1-1.8,5.3Z"/><path d="M485,58.7h-.9V51.3l-.9.6-1,.4v-1l1.3-.6,1.1-.8h.4Z"/><path d="M488.2,58.2c0-.2,0-.3.1-.4a.6.6,0,0,1,.5-.2.4.4,0,0,1,.4.2.5.5,0,0,1,.2.4c0,.2-.1.3-.2.5l-.4.2-.5-.2A.7.7,0,0,1,488.2,58.2Z"/><path d="M501.3,56.9a10.2,10.2,0,0,1-1.8-1.8,8.8,8.8,0,0,1-1-1.9,5.3,5.3,0,0,1-1,2,10.5,10.5,0,0,1-1.7,1.9l-.6-.6a6.1,6.1,0,0,0,2.1-2.4,6.7,6.7,0,0,0,.8-3V49.2h.8v1.9a6,6,0,0,0,.8,2.8,7.8,7.8,0,0,0,2.1,2.3Zm2.4-3v5.9h-.9V48.5h.9v4.6h1.9v.8Z"/><path d="M509.7,52.4a1.7,1.7,0,0,1-1.1-1.7,1.6,1.6,0,0,1,.9-1.5,4.4,4.4,0,0,1,2.5-.6,4.8,4.8,0,0,1,2.6.6,1.6,1.6,0,0,1,.9,1.5,1.8,1.8,0,0,1-1.1,1.7V54h2.7v.8H507V54h2.7Zm2.3,7.3a4.8,4.8,0,0,1-2.6-.5,1.8,1.8,0,0,1-.9-1.6,1.8,1.8,0,0,1,.9-1.5,5.9,5.9,0,0,1,5.2,0,1.8,1.8,0,0,1,.9,1.5,1.8,1.8,0,0,1-.9,1.6A4.8,4.8,0,0,1,512,59.7Zm0-3.4a4.7,4.7,0,0,0-1.9.3c-.5.3-.7.6-.7,1a1,1,0,0,0,.7,1,3.4,3.4,0,0,0,1.9.4,3.7,3.7,0,0,0,2-.4,1,1,0,0,0,.6-1,1.2,1.2,0,0,0-.6-1A5.3,5.3,0,0,0,512,56.3Zm0-6.9c-1.7,0-2.6.4-2.6,1.3a1.2,1.2,0,0,0,.7,1,3.4,3.4,0,0,0,1.9.4,3.7,3.7,0,0,0,2-.4,1.1,1.1,0,0,0,.6-1C514.6,49.8,513.7,49.4,512,49.4ZM510.5,54h3V52.7h-3Z"/><path d="M524.6,57a8.6,8.6,0,0,1-1.5-1.7,7.7,7.7,0,0,1-1.1-1.9,4.6,4.6,0,0,1-.9,1.9,7.9,7.9,0,0,1-1.7,1.9l-.6-.6a6.5,6.5,0,0,0,2-2.3,6.7,6.7,0,0,0,.8-2.9V50.2h-2.4v-.7h5.6v.7h-2.4v1.2a5.4,5.4,0,0,0,.9,2.8,6.7,6.7,0,0,0,1.9,2.2Zm2.6-3.1v5.9h-.9V48.5h.9v4.6h1.9v.8Z"/><path d="M538.3,53.9a2.9,2.9,0,0,1-2-.7,2.6,2.6,0,0,1-.7-1.9,2.5,2.5,0,0,1,.7-1.9,3,3,0,0,1,2-.8,2.8,2.8,0,0,1,2,.8,2.6,2.6,0,0,1,.8,1.9,2.6,2.6,0,0,1-2.8,2.6Zm0-4.5a2.4,2.4,0,0,0-1.4.5,2.2,2.2,0,0,0-.5,1.4,1.9,1.9,0,0,0,.5,1.3,1.8,1.8,0,0,0,1.4.6,1.7,1.7,0,0,0,1.4-.6,1.6,1.6,0,0,0,.6-1.3,1.8,1.8,0,0,0-.6-1.4A2,2,0,0,0,538.3,49.4Zm-1.2,10.1V54.9h.8v1.6h5V54.9h.9v4.6Zm5.8-2.3h-5v1.5h5Zm0-3V48.5h.9v5.7Z"/><path d="M552.6,54.4l-1.7.2h-3.4V51.3h3.7V49.7h-3.7V49H552v3.1h-3.6v1.8h1.3l2.8-.2Zm2.1,5.4V56.6h-6.3v-.8h7.1v4Zm-2-6.7v-.8h2V51h-2v-.8h2V48.5h.8v6.7h-.8V53.1Z"/><path d="M567.9,55.3v4.5h-.8V55.3h-4.6v-.8h10.1v.8Zm3.8-2.2a6.2,6.2,0,0,1-2.6-.9,4.7,4.7,0,0,1-1.6-1.5,3.9,3.9,0,0,1-1.6,1.5,7.7,7.7,0,0,1-2.5,1l-.5-.8a5.7,5.7,0,0,0,2.9-1.1,2.5,2.5,0,0,0,1.3-2v-.5h.8v.5a2.7,2.7,0,0,0,1.3,2,5.7,5.7,0,0,0,3,1.1Z"/><path d="M580.5,54.3a7.9,7.9,0,0,1-1.5-1.2,6,6,0,0,1-1.1-1.4,4.8,4.8,0,0,1-1.1,1.5,4.5,4.5,0,0,1-1.5,1.3l-.7-.5a6.1,6.1,0,0,0,2.1-1.8,4,4,0,0,0,.8-2.3H575V49h5.7v.8h-2.4a3.7,3.7,0,0,0,.8,2.2,5.3,5.3,0,0,0,1.9,1.5Zm-4,5.2V55h.8v1.5h5.1V55h.9v4.5Zm5.9-2.2h-5.1v1.4h5.1Zm0-2.9V48.5h.9v5.9Z"/><path d="M485.5,73.3a1.6,1.6,0,0,0-.4-1.2,1.7,1.7,0,0,0-1.2-.5,1.9,1.9,0,0,0-1,.3,3.9,3.9,0,0,0-1,.8v-1a2.8,2.8,0,0,1,2.1-.8,2.4,2.4,0,0,1,1.7.6,2.1,2.1,0,0,1,.7,1.7,3.3,3.3,0,0,1-.4,1.7,6.9,6.9,0,0,1-1.5,1.4l-1.3,1.1-.5.6a1.9,1.9,0,0,0-.1.8h4v.8h-5v-.4a3.7,3.7,0,0,1,.2-1.2,2.7,2.7,0,0,1,.6-1l1.5-1.2a4.5,4.5,0,0,0,1.2-1.2A2,2,0,0,0,485.5,73.3Z"/><path d="M488.2,79.1c0-.2,0-.3.2-.4s.2-.2.4-.2.3,0,.4.2a.5.5,0,0,1,.2.4c0,.2-.1.3-.2.5a.5.5,0,0,1-.4.2l-.4-.2C488.2,79.5,488.2,79.3,488.2,79.1Z"/><path d="M495.2,78.9v-.8h2.6V75.2a2.7,2.7,0,0,1-.2-4.3,5.4,5.4,0,0,1,2.7-.7,4.7,4.7,0,0,1,2.6.7,2.7,2.7,0,0,1-.2,4.3v2.9h2.6v.8Zm2.3-5.9a1.7,1.7,0,0,0,.8,1.5,3,3,0,0,0,2,.5,3.1,3.1,0,0,0,2-.5,1.8,1.8,0,0,0,0-3,3.9,3.9,0,0,0-2-.5,3.7,3.7,0,0,0-2,.5A1.7,1.7,0,0,0,497.5,73Zm1.2,2.6v2.5h3.2V75.6l-1.6.2Z"/><path d="M513.1,75.6a5.8,5.8,0,0,1-2.7-2.4,4.8,4.8,0,0,1-1.1,1.5l-1.5,1.2-.7-.7a4.8,4.8,0,0,0,2-1.4,3,3,0,0,0,.9-1.9v-.5h-2.5v-.8H510V69.3h.8v1.3h2.5v.8h-2.5v.5a2.6,2.6,0,0,0,.9,1.8,4.4,4.4,0,0,0,1.9,1.2Zm-.5,4.9a5.1,5.1,0,0,1-2.7-.6,1.8,1.8,0,0,1-.9-1.6,2.1,2.1,0,0,1,.9-1.6,5.1,5.1,0,0,1,2.7-.6,4.8,4.8,0,0,1,2.6.6,2.1,2.1,0,0,1,.9,1.6,1.8,1.8,0,0,1-.9,1.6A4.8,4.8,0,0,1,512.6,80.5Zm0-3.6a3.7,3.7,0,0,0-2,.4c-.5.3-.7.6-.7,1a1.2,1.2,0,0,0,.7,1.1,5,5,0,0,0,2,.4,4.5,4.5,0,0,0,1.9-.4,1.2,1.2,0,0,0,.7-1.1c0-.4-.2-.7-.7-1A3.4,3.4,0,0,0,512.6,76.9Zm2.5-1V73.2h-2.2v-.8h2.2v-3h.8v6.5Z"/><path d="M528.7,75.2a6,6,0,0,1-2.5-2.5,5.6,5.6,0,0,1-1,1.5,4.8,4.8,0,0,1-1.6,1.3l-.6-.6a5.5,5.5,0,0,0,2-1.7,3.7,3.7,0,0,0,.8-2.2v-.3h-2.4v-.8H529v.8h-2.4V71a3.7,3.7,0,0,0,.8,2.1,5.8,5.8,0,0,0,1.9,1.5Zm2,5.5V77.3h-6.2v-.8h7v4.2Zm.8-7.4v2.6h-.8V69.4h.8v3.1h1.6v.8Z"/><path d="M540.6,75.3a7.9,7.9,0,0,1-1.5-1.2,5.3,5.3,0,0,1-1-1.4,6.6,6.6,0,0,1-1.1,1.6,8.7,8.7,0,0,1-1.5,1.3l-.6-.7a4.2,4.2,0,0,0,1.9-1.6,3.8,3.8,0,0,0,.8-2.4V69.7h.9v1.2a3.2,3.2,0,0,0,.8,2.2,4,4,0,0,0,1.9,1.5Zm-.2,5.2a4.8,4.8,0,0,1-2.6-.6,1.8,1.8,0,0,1-.9-1.6,2.1,2.1,0,0,1,.9-1.6,4.8,4.8,0,0,1,2.6-.6,4.9,4.9,0,0,1,2.7.6,2.1,2.1,0,0,1,.9,1.6,1.8,1.8,0,0,1-.9,1.6A4.9,4.9,0,0,1,540.4,80.5Zm0-3.6a3.4,3.4,0,0,0-1.9.4c-.5.3-.7.6-.7,1a1.2,1.2,0,0,0,.7,1.1,4.5,4.5,0,0,0,1.9.4,4.6,4.6,0,0,0,2-.4,1.2,1.2,0,0,0,.7-1.1c0-.4-.2-.7-.7-1A3.5,3.5,0,0,0,540.4,76.9Zm2.5-1V72.5h-2.5v-.8h2.5V69.4h.9v6.5Z"/><path d="M551.9,74.6V69.8h5v4.8Zm8.3,5.8a6.5,6.5,0,0,1-2.2-.8,4.7,4.7,0,0,1-1.6-1.5,4.5,4.5,0,0,1-1.6,1.4,4.8,4.8,0,0,1-2.1.9l-.6-.7a5.4,5.4,0,0,0,2.5-.9,3.2,3.2,0,0,0,1.3-1.6h-3.2v-.8H556V75.2h.8v1.2h3.3v.8h-3.2a3.1,3.1,0,0,0,1.3,1.6,5.8,5.8,0,0,0,2.5.9Zm-4.1-9.8h-3.4v3.2h3.4Zm2.9,5.1V69.4h.8v6.3Z"/><path d="M572.6,75.8a9.6,9.6,0,0,1-1.5-1.4,4.4,4.4,0,0,1-1-1.5,7.3,7.3,0,0,1-1.1,1.8,4.4,4.4,0,0,1-1.5,1.3l-.6-.6a5.7,5.7,0,0,0,2-1.8,4.6,4.6,0,0,0,.8-2.4v-.4h-2.4V70h5.6v.8h-2.4v.4a4.6,4.6,0,0,0,.8,2.3,5.6,5.6,0,0,0,1.9,1.6ZM569,80.3V76.6h.8v3h6.1v.7Zm5.8-2.9V73h-2.5v-.8h2.5V69.4h.9v8Z"/><path d="M578.5,75.4v-.8h4.6V73h.9v1.6h4.6v.8Zm9.1-2a5,5,0,0,1-2.4-.9,4.9,4.9,0,0,1-1.7-1.4,3.4,3.4,0,0,1-1.5,1.4,5.8,5.8,0,0,1-2.5.9l-.5-.7a5.3,5.3,0,0,0,2.9-1c.8-.6,1.2-1.2,1.2-1.7v-.4h.9V70a2.6,2.6,0,0,0,1.1,1.7,5.6,5.6,0,0,0,3,1Zm-4.1,7.2a4.8,4.8,0,0,1-2.6-.6,1.9,1.9,0,0,1-.8-1.5,1.8,1.8,0,0,1,.9-1.6,5.5,5.5,0,0,1,2.5-.5,5.7,5.7,0,0,1,2.6.5,1.8,1.8,0,0,1,.9,1.6,1.8,1.8,0,0,1-.9,1.5A4.5,4.5,0,0,1,583.5,80.6Zm0-3.5a3.4,3.4,0,0,0-1.9.4,1,1,0,0,0-.7,1c0,.4.2.7.7,1a4.7,4.7,0,0,0,1.9.3,5.3,5.3,0,0,0,2-.3,1.2,1.2,0,0,0,.6-1,1,1,0,0,0-.6-1A3.7,3.7,0,0,0,583.5,77.1Z"/><path d="M482.1,98.6a2.9,2.9,0,0,0,1.9.8,2,2,0,0,0,1.4-.5,1.4,1.4,0,0,0,.6-1.2q0-1.8-2.4-1.8h-.7v-.8h.7c1.4,0,2.1-.5,2.1-1.6a1.4,1.4,0,0,0-1.6-1.5,2.7,2.7,0,0,0-1.7.6v-.9a4.1,4.1,0,0,1,1.9-.5,2.1,2.1,0,0,1,1.6.6,1.8,1.8,0,0,1,.7,1.5,2.2,2.2,0,0,1-1.7,2.2h0a2.1,2.1,0,0,1,2,2.1,2.3,2.3,0,0,1-.8,1.8,3.1,3.1,0,0,1-2.1.7,3.6,3.6,0,0,1-1.9-.4Z"/><path d="M488.6,99.5a.7.7,0,0,1,.1-.5l.5-.2.4.2a.8.8,0,0,1,.2.5.5.5,0,0,1-.2.4.4.4,0,0,1-.4.2.6.6,0,0,1-.5-.2C488.6,99.8,488.6,99.7,488.6,99.5Z"/><path d="M495.6,95.8V95h10.1v.8Zm5.1,5.2a5.1,5.1,0,0,1-2.7-.6,1.8,1.8,0,0,1-.9-1.6,1.8,1.8,0,0,1,.9-1.5,5.1,5.1,0,0,1,2.7-.6,4.8,4.8,0,0,1,2.6.6,1.8,1.8,0,0,1,.9,1.5,1.8,1.8,0,0,1-.9,1.6A4.8,4.8,0,0,1,500.7,101Zm0-6.9a4.2,4.2,0,0,1-2.5-.6,1.8,1.8,0,0,1-.9-1.5,1.8,1.8,0,0,1,.9-1.6,4.2,4.2,0,0,1,2.5-.6,4.4,4.4,0,0,1,2.5.6,1.8,1.8,0,0,1,.9,1.6,1.8,1.8,0,0,1-.9,1.5A4.4,4.4,0,0,1,500.7,94.1Zm0,3.3a4.6,4.6,0,0,0-2,.4c-.5.3-.7.6-.7,1a1,1,0,0,0,.7,1,3.5,3.5,0,0,0,2,.4,3.4,3.4,0,0,0,1.9-.4,1,1,0,0,0,.7-1c0-.4-.2-.7-.7-1A4.5,4.5,0,0,0,500.7,97.4Zm0-6.8a4.7,4.7,0,0,0-1.9.3,1.3,1.3,0,0,0-.6,1.1,1.2,1.2,0,0,0,.6,1,4.7,4.7,0,0,0,1.9.3,4.2,4.2,0,0,0,1.8-.3c.5-.3.7-.6.7-1a1.2,1.2,0,0,0-.7-1.1A4.2,4.2,0,0,0,500.7,90.6Z"/><path d="M513.7,94.9l-5.6.2V90.3h5.2v.8H509v3.2h4.6Zm-4.4,5.8V96.2h.8v1.5h5V96.2h.8v4.5Zm5.8-2.2h-5V100h5Zm.8-5.3v2.3H515V89.7h.9v2.8h1.6v.7Z"/><path d="M529.6,98.2a11.4,11.4,0,0,1-1.7-1.5,6.9,6.9,0,0,1-1.1-1.7,5.5,5.5,0,0,1-1,1.8,5,5,0,0,1-1.7,1.6l-.6-.7a4.1,4.1,0,0,0,2-1.9,4.8,4.8,0,0,0,.9-2.6V92.1h-2.6v-.8h2.6V89.7h.8v1.6h2.7v.8h-2.7v1.1a4.5,4.5,0,0,0,.9,2.5,6,6,0,0,0,2.1,1.8Zm2,2.9V94.7h-2.4v-.8h2.4V89.7h.8v11.4Z"/><path d="M535.9,98.6V94.1h4.2V91.5h-4.2v-.8h5v4.2h-4.1v2.9a30.7,30.7,0,0,0,5.2-.2v.7A38.2,38.2,0,0,1,535.9,98.6Zm7.3,2.5V89.7h.8v11.4Z"/><path d="M502.2,113.1l-.6-.7a6.9,6.9,0,0,0,3-1.8,5.4,5.4,0,0,0,1.5-2.6h-3.8v-.8h4.8a5.8,5.8,0,0,1-1.5,3.5A8.7,8.7,0,0,1,502.2,113.1Zm1.5,4.8v-2.8h5.8V114h-5.8v-.8h6.7v2.7h-5.9v1.3h6.2v.7Zm3.5-6.4v-.8h2.3v-1.5h-2.2v-.8h2.2v-1.7h.9v5.9h-.9v-1.1Z"/><path d="M520.1,115.7c-1.9.2-4.4.2-7.3.2v-.8h2.7v-3.9h.8v3.9h3.8Zm-.9-7.9a51.5,51.5,0,0,1-.2,5.8h-.8a14.2,14.2,0,0,0,.1-2.4c.1-1.1.1-2,.1-2.6h-4.6v-.8Zm4.3,4.2h-1.8v6.1h-.8V106.7h.8v4.5h1.8Z"/><path d="M534,115.4a8.4,8.4,0,0,1-2.1-3.5,8.3,8.3,0,0,1-2.2,3.7l-.6-.6a6.7,6.7,0,0,0,1.7-2.2,6.6,6.6,0,0,0,.7-3v-2.2h.8v2.2a7.2,7.2,0,0,0,.7,2.8,6.6,6.6,0,0,0,1.6,2.2Zm1.5,2.3v-6.3h-1.9v-.8h1.9V107h.8v10.7Zm1.9.4V106.7h.9v11.4Z"/><path d="M540.8,116.3v-.8h10.1v.8Zm8.5-7.7h-6v1.6H549v.8h-5.7v1.6h6.2v.8h-7.1v-5.6h6.9Z"/><path d="M507.9,126.1a49.7,49.7,0,0,1-5.5.2V121h5.1v.8h-4.2v3.7h4.6Zm-4.4,5.2v-3.7h.9v2.9h6v.8Zm6.6-6.7v4h-.8v-8.3h.8v3.5h1.7v.8Z"/><path d="M517,125.7a2.7,2.7,0,0,1-2-.7,2.6,2.6,0,0,1-.8-1.9,2.3,2.3,0,0,1,.8-1.8,2.9,2.9,0,0,1,4,0,2.3,2.3,0,0,1,.8,1.8,2.6,2.6,0,0,1-.8,1.9A2.7,2.7,0,0,1,517,125.7Zm0-4.4a1.6,1.6,0,0,0-1.4.5,1.9,1.9,0,0,0-.5,1.3,2.2,2.2,0,0,0,.5,1.4,2.2,2.2,0,0,0,2.8,0,2.2,2.2,0,0,0,.5-1.4,1.9,1.9,0,0,0-.5-1.3A1.6,1.6,0,0,0,517,121.3Zm-1.3,10.1v-2.8h5.9v-1.1h-5.9v-.7h6.7v2.6h-5.9v1.2h6.2v.8Zm5.9-5.3v-5.8h.8v5.8Z"/><path d="M534.1,129.2v-2.3h-4.7v-.8h10.1v.8h-4.6v2.3Zm-3.1,2.1v-3.4h.8v2.6H538v.8Zm.1-6.5v-4.1h6.7v4.1Zm5.8-3.3h-5V124h5Z"/><path d="M547.2,128.8a7.9,7.9,0,0,1-1.7-1.9,5,5,0,0,1-1-1.9,7.1,7.1,0,0,1-1.1,2.1,9.3,9.3,0,0,1-1.6,1.8l-.7-.6a7.3,7.3,0,0,0,2.2-2.4,6.3,6.3,0,0,0,.7-3v-1.8h.9v1.8a5.3,5.3,0,0,0,.8,2.9,6.6,6.6,0,0,0,2.1,2.3Zm2.1,2.8v-6.8h-2.5V124h2.5v-3.7h.9v11.3Z"/><path d="M368,122a8.1,8.1,0,0,1-1.8-5.3,7.9,7.9,0,0,1,1.8-5.3h.8a8.7,8.7,0,0,0,0,10.6Z"/><path d="M376.1,120H375l-1.4-2.4a3.5,3.5,0,0,0-.8-1.1l-.8-.2h-.9V120h-.9v-8.6h2.5a2.8,2.8,0,0,1,1.8.6,2.2,2.2,0,0,1,.7,1.7,2.3,2.3,0,0,1-1.9,2.3h0a1.5,1.5,0,0,1,.6.4l.7,1Zm-5-7.8v3.2h1.4a1.7,1.7,0,0,0,1.7-1.7,1.5,1.5,0,0,0-.4-1.1,2.2,2.2,0,0,0-1.3-.4Z"/><path d="M381.8,120h-4.3v-8.6h4.1v.8h-3.2v3h3v.8h-3v3.1h3.4Z"/><path d="M383.3,118.5l1,.6,1.2.2c1.2,0,1.8-.5,1.8-1.4a1.4,1.4,0,0,0-.2-.7l-.5-.5-1.3-.7a5.5,5.5,0,0,1-1.6-1.2,1.8,1.8,0,0,1-.4-1.3,1.9,1.9,0,0,1,.8-1.7,3.2,3.2,0,0,1,2-.6,3.9,3.9,0,0,1,1.8.3v1.1a3.6,3.6,0,0,0-1.9-.5,2.8,2.8,0,0,0-1.3.3,1.4,1.4,0,0,0-.5,1,1,1,0,0,0,.4.9,4.6,4.6,0,0,0,1.4,1,4.6,4.6,0,0,1,1.8,1.2,2.2,2.2,0,0,1,.4,1.3,2.1,2.1,0,0,1-.7,1.8,4.8,4.8,0,0,1-2.2.5h-1.1a1.9,1.9,0,0,1-.9-.4Z"/><path d="M395,112.2h-2.4V120h-1v-7.8h-2.3v-.8H395Z"/><path d="M400.4,119.3v-.8H405v-2.3h.8v2.3h4.7v.8Zm.9-8.5h3.6v.8h-2.7v3.2h2.9v.8h-3.8Zm4.3,0h3.7v.8h-2.9v3.2h3.1v.8h-3.9Z"/><path d="M412.1,116.3v-.8h10.1v.8Zm1.8,4.3v-3.3h.8v2.5h6v.8Zm0-6.7v-3.8h.9v3.1h5.9v.7Z"/><path d="M428,119.5a.8.8,0,0,1,.2-.5l.4-.2.5.2a.8.8,0,0,1,.2.5.5.5,0,0,1-.2.4c-.1.2-.3.2-.5.2a.4.4,0,0,1-.4-.2A.5.5,0,0,1,428,119.5Z"/><path d="M437.8,120h-1.1l-4.3-7-.3-.5h0V120h-.9v-8.6h1.2l4.2,6.8.4.6h0a4.5,4.5,0,0,1-.1-1.3v-6.1h.9Z"/><path d="M444.6,120h-4.4v-8.6h4.2v.8h-3.3v3h3.1v.8h-3.1v3.1h3.5Z"/><path d="M451.3,112.2h-2.4V120H448v-7.8h-2.4v-.8h5.7Z"/><path d="M451.8,122a8.7,8.7,0,0,0,0-10.6h.8a7.9,7.9,0,0,1,1.8,5.3,8.1,8.1,0,0,1-1.8,5.3Z"/><path d="M15.2,102.4a7.8,7.8,0,0,1-1.8-5.2,8.4,8.4,0,0,1,1.8-5.4h.9a7.8,7.8,0,0,0-1.9,5.3,8.3,8.3,0,0,0,1.8,5.3Z"/><path d="M16.9,95.4v-.7h8c0-.1,0-.6.1-1.6l-6.6.4-.2-.8,6.8-.3V91.2H18.7v-.7h7.2a41.9,41.9,0,0,1-.2,4.2h1.7v.7Zm1.8,5.8V98.4h6.2V97.3H18.7v-.8h7v2.7H19.5v1.2H26v.8Z"/><path d="M29.7,99V94.5h4.1V92H29.7v-.8h5v4.1H30.6v2.9a27.9,27.9,0,0,0,5.2-.3v.8A40,40,0,0,1,29.7,99Zm8-3.3v5.8h-.9V90.2h.9V95h2v.7Z"/><path d="M46.6,97.2v4.3h-.9V97.2H40.9v-.7H51.4v.7Zm-.4-2a4.9,4.9,0,0,1-2.7-.6,2.1,2.1,0,0,1,0-3.6,4.9,4.9,0,0,1,2.7-.6,5.4,5.4,0,0,1,2.7.6,2.2,2.2,0,0,1,0,3.6A5.4,5.4,0,0,1,46.2,95.2Zm0-4.1a3.4,3.4,0,0,0-2,.5,1.3,1.3,0,0,0,0,2.4,3.4,3.4,0,0,0,2,.5,3.9,3.9,0,0,0,2-.5,1.4,1.4,0,0,0,0-2.4A3.9,3.9,0,0,0,46.2,91.1Z"/><path d="M52.9,99.5v-.7H63.4v.7ZM61.6,92h-6v3.5h6.2v.8H54.7V91.2h6.9Z"/><path d="M74.8,98.1a38,38,0,0,1-4.8.2V91.1h.9v6.4l3.9-.2Zm3.1,3.4V95.9H76.4v5.2h-.9V90.4h.9v4.7h1.5V90.2h.8v11.3Z"/><path d="M86.8,97.4v4.1h-.9V97.4H81.1v-.8H91.6v.8Zm-4-2.3V90.5h.9v1.6h5.4V90.5h.8v4.6Zm6.3-2.2H83.7v1.5h5.4Z"/><path d="M11.2,114.1v-.8H16v-2.2h.9v2.2h4.7v.8Zm1-8.5h3.7v.8H13.1v3.3H16v.8H12.2Zm4.4,0h3.9v.8H17.4v3.3h3.2v.8h-4Z"/><path d="M23.2,111.1v-.7H33.6v.7Zm1.8,4.4v-3.4h.9v2.6h6.2v.8Zm0-6.7V105h.9v3h6.2v.8Z"/><path d="M40,110.4v-5.3h.9v2h3.5v-2h.8v5.3Zm4.4-2.6H40.9v1.9h3.5Zm.3,7.9a5.4,5.4,0,0,1-2.7-.5,1.8,1.8,0,0,1-.9-1.6,1.8,1.8,0,0,1,.9-1.5,6.5,6.5,0,0,1,2.7-.5,7,7,0,0,1,2.8.5,1.8,1.8,0,0,1,.9,1.5,1.8,1.8,0,0,1-.9,1.6A5.6,5.6,0,0,1,44.7,115.7Zm0-3.4a3.7,3.7,0,0,0-2,.4.9.9,0,0,0-.7.9,1,1,0,0,0,.7,1,4,4,0,0,0,2,.4,4.1,4.1,0,0,0,2.1-.4,1,1,0,0,0,.7-1,.9.9,0,0,0-.7-.9A4.1,4.1,0,0,0,44.7,112.3Zm3.5-3.8v2.8h-.8v-6.7h.8v3.1h1.7v.8Z"/><path d="M55.5,111.6v1.6h3.4v.7l-7.7.2v-.8h3.4v-1.6a3,3,0,0,1-1.8-.7,1.8,1.8,0,0,1-.6-1.4A1.9,1.9,0,0,1,53,108a4.1,4.1,0,0,1,2.1-.5,3.1,3.1,0,0,1,2,.5,1.9,1.9,0,0,1,.8,1.5,1.8,1.8,0,0,1-.6,1.4A3.6,3.6,0,0,1,55.5,111.6Zm-.9-7h.9v1.5h2.9v.8H51.7v-.8h2.9Zm.5,3.6a2.2,2.2,0,0,0-1.5.4,1.1,1.1,0,0,0-.5.9,1.4,1.4,0,0,0,.5,1,3,3,0,0,0,1.5.4,2.9,2.9,0,0,0,1.4-.4,1.4,1.4,0,0,0,.5-1,1.1,1.1,0,0,0-.5-.9A2.1,2.1,0,0,0,55.1,108.2Zm5.3,2.2v5.5h-.8V104.6h.8v5h1.8v.8Z"/><path d="M64.6,110.5V105h.8v2h3.5v-2h.9v1.3h2.1v-1.7h.9v6.6h-.9v-1.8H69.8v1.1Zm4.3-2.7H65.4v1.9h3.5Zm3,8.1v-3.3H65.5v-.8h7.3v4.1Zm-2.1-7.3h2.1v-1.5H69.8Z"/><path d="M83.1,115.6v-4.3H79.8v-.8h4.1l3.6-.2v.8H84v4.3Zm-2.2-6.5v-4h5.2v.8H81.8v2.5h4.5v.7Zm7.3,6.8V104.6h.9v11.3Z"/><path d="M91,116.8a8.2,8.2,0,0,0,1.9-5.3,8.4,8.4,0,0,0-1.9-5.3h.8a7.9,7.9,0,0,1,1.9,5.4,7.4,7.4,0,0,1-1.9,5.2Z"/><path d="M156.7,97.7a7.9,7.9,0,0,1-1.8-5.3,8.1,8.1,0,0,1,1.8-5.3h.9a7.8,7.8,0,0,0-1.9,5.3,8.3,8.3,0,0,0,1.8,5.3Z"/><path d="M166.1,90.9h1.8v.8h-1.8v2.6h2.8v.8H158.4v-.8h2.9V91.7h-1.9v-.8h1.9l-.2-3h.9v3h3.1l.2-3h.8Zm-6.6-4.4h8.3v.8h-8.3Zm2.6,7.8h3.1V91.7h-3.1Z"/><path d="M176.1,91.8v2.8h-.9V91.8h-4.8V91h10.5v.8Zm3.8-1.8a9.2,9.2,0,0,1-2.5-.9,4.1,4.1,0,0,1-1.7-1.4,4.6,4.6,0,0,1-1.6,1.4,8.7,8.7,0,0,1-2.6.8l-.5-.7a6.5,6.5,0,0,0,2.8-.8c.8-.6,1.3-1.1,1.4-1.7h-3.6v-.8h8.2v.8h-3.7a2.8,2.8,0,0,0,1.4,1.7,5.5,5.5,0,0,0,2.9.8Zm-7.7,6.4V93h.8v2.6h6.4v.8Z"/><path d="M186.7,95v-.8h4.8V92h.8v2.2h4.8V95Zm1-8.5h3.7v.8h-2.8v3.3h2.9v.7h-3.8Zm4.4,0H196v.8h-3.1v3.3h3.2v.7h-4Z"/><path d="M198.7,92v-.8h10.4V92Zm1.8,4.3V93h.9v2.6h6.2v.7Zm0-6.6V85.9h.9v3h6.2v.8Z"/><path d="M221.9,95.7h-1.1l-.9-2.4h-3.7l-.9,2.4h-1l3.3-8.6h.9Zm-2.3-3.3-1.4-3.7a1.1,1.1,0,0,1-.1-.6H218a3.5,3.5,0,0,1-.1.6l-1.4,3.7Z"/><path d="M224.1,95.7h-.9V87.1h.9Z"/><path d="M168.8,108.4a7.7,7.7,0,0,1-1.8-1.8,8.5,8.5,0,0,1-1-1.8,5.8,5.8,0,0,1-1,1.9,6.6,6.6,0,0,1-1.8,1.9l-.6-.6a6.1,6.1,0,0,0,2.1-2.4,5.8,5.8,0,0,0,.9-3v-1H163v-.7h6v.7h-2.6v1a5.5,5.5,0,0,0,.9,2.9,5,5,0,0,0,2.1,2.2Zm2.1,2.8V99.9h.8v11.3Z"/><path d="M182.2,105.8l-3.1.2v2.4h-.9V106h-3.3v-.8l7.4-.2Zm-3.6-1.4a3.2,3.2,0,0,1-2-.6,2.1,2.1,0,0,1-.8-1.6,1.9,1.9,0,0,1,.8-1.5,3.6,3.6,0,0,1,4,0,1.7,1.7,0,0,1,.8,1.5,1.8,1.8,0,0,1-.8,1.6A3.2,3.2,0,0,1,178.6,104.4Zm-2.1,6.5v-3.4h.9v2.6h6.8v.8Zm2.1-10.1a2.2,2.2,0,0,0-1.4.5,1.2,1.2,0,0,0-.5.9,1.4,1.4,0,0,0,.5,1,2.1,2.1,0,0,0,1.4.4,2,2,0,0,0,1.4-.4,1.1,1.1,0,0,0,.5-1,1,1,0,0,0-.5-.9A2,2,0,0,0,178.6,100.8Zm4.4,8v-1.2h-2.4v-.8H183V99.9h.9v8.9Z"/><path d="M196.4,107v4.2h-.9V107h-4.8v-.8h10.5v.8Zm3.7-2-2.5-.9a6.7,6.7,0,0,1-1.7-1.3,3.2,3.2,0,0,1-1.5,1.2,8.2,8.2,0,0,1-2.6,1l-.6-.7a8.5,8.5,0,0,0,2.8-1,2.6,2.6,0,0,0,1.5-1.7h-3.7v-.7h3.7V99.7h.9v1.2H200v.7h-3.6a2.4,2.4,0,0,0,1.3,1.6,8.1,8.1,0,0,0,3,1Z"/><path d="M208.7,100.9c-.1,3.2-1.8,5.7-5.1,7.6l-.7-.7a8.2,8.2,0,0,0,3.2-2.4,6.5,6.5,0,0,0,1.6-3.7h-4.3v-.8Zm2.8,4.4v5.9h-.9V99.9h.9v4.6h2v.8Z"/><path d="M214.1,112.1a8.7,8.7,0,0,0,0-10.6h.8a8.2,8.2,0,0,1,1.9,5.3,8,8,0,0,1-1.9,5.3Z"/><path d="M281.5,76.2a2.7,2.7,0,0,1-2.9-2.8,2.9,2.9,0,0,1,.8-2.1,3.2,3.2,0,0,1,2.1-.8,3.3,3.3,0,0,1,2.2.8,2.9,2.9,0,0,1,.8,2.1,2.8,2.8,0,0,1-.8,2A2.9,2.9,0,0,1,281.5,76.2Zm0-4.9a2,2,0,0,0-1.5.6,1.7,1.7,0,0,0-.5,1.5,2,2,0,0,0,.5,1.5,2,2,0,0,0,1.5.6,2.1,2.1,0,0,0,1.6-.6,2.5,2.5,0,0,0,.5-1.5,2.1,2.1,0,0,0-.5-1.5A2.1,2.1,0,0,0,281.5,71.3ZM280,80.9V77.3h.9v2.9h6.5v.7Zm6.2-2.6V70.1h.9v8.2Z"/><path d="M295.3,75.6l-4.5.2V70.6h4.3v.8h-3.4V75h3.6Zm3.2,5.8V77.9h-6.6v-.7h7.4v4.2Zm-2.1-4.9V73.6h-2.5v-.8h2.5V70.3h.9v6.2Zm2.1,0V70.1h.8v6.4Z"/><path d="M312.2,79.5H301.7v-.8h10.5ZM307,73a5.6,5.6,0,0,1-1.7,1.8,6.7,6.7,0,0,1-2.5,1.3l-.6-.7a5.8,5.8,0,0,0,3.1-1.6,3.3,3.3,0,0,0,1.2-2.2V71h.9v.6a3.3,3.3,0,0,0,1.2,2.2,6.5,6.5,0,0,0,3.2,1.6l-.7.7a8.5,8.5,0,0,1-2.5-1.3A4.3,4.3,0,0,1,307,73Z"/><path d="M319.1,75.3V70.5h5.3v4.8Zm8.7,5.8a5,5,0,0,1-2.3-.9,4.9,4.9,0,0,1-1.7-1.4,4.5,4.5,0,0,1-1.6,1.4,5.5,5.5,0,0,1-2.3.9l-.5-.7a5.4,5.4,0,0,0,2.5-.9,3.4,3.4,0,0,0,1.4-1.6h-3.4v-.8h3.5V75.9h.9v1.2h3.4v.8h-3.3a2.9,2.9,0,0,0,1.3,1.6,5.8,5.8,0,0,0,2.6.9Zm-4.3-9.8H320v3.2h3.5Zm3,5.1V70.1h.9v6.3Z"/><path d="M298,85.5a8.1,8.1,0,0,1-1.4,4.3,10,10,0,0,1-3.7,3.3l-.7-.7a9,9,0,0,0,3.2-2.3,7.6,7.6,0,0,0,1.6-3.8h-4.3v-.8Zm2.2,10.3V84.5h.9V95.8Z"/><path d="M305.5,89.4V92h.6a36.8,36.8,0,0,0,4.5-.2v.8h-6V85.5h5.2v.7h-4.4v2.5h4.1v.7Zm7.1.3v6.1h-.8V84.5h.8v4.4h1.9v.8Z"/><path d="M290.5,110.2v-5.3h-4.7v-.7h7.9c.1-1,.1-2.3.1-4.1h-6.3v-.7h7.2c0,1.9-.1,3.5-.2,4.8h1.8v.7h-4.9v5.3Z"/><path d="M297.8,108.4v-.8h4.8v-2.8h.9v2.8h4.8v.8Zm5.7-7.7h0a3.3,3.3,0,0,0,1.2,2.2,7.4,7.4,0,0,0,3.2,1.6l-.6.7a7.9,7.9,0,0,1-2.6-1.3,4.3,4.3,0,0,1-1.6-1.8,5.1,5.1,0,0,1-1.6,1.7,9.4,9.4,0,0,1-2.6,1.4l-.6-.7a6.1,6.1,0,0,0,3.1-1.6,3.3,3.3,0,0,0,1.2-2.2H299v-.8h8.2v.8Z"/><path d="M315,107.4l-1.3-1.4-.9-1.5a4.4,4.4,0,0,1-.9,1.6,3.9,3.9,0,0,1-1.3,1.5l-.7-.5a6.9,6.9,0,0,0,1.7-2,5.6,5.6,0,0,0,.8-2.7v-1h-2.2v-.8h2.1V99.1h.9v1.5h2.2v.8h-2.2v1.1a4.6,4.6,0,0,0,.8,2.4,5.3,5.3,0,0,0,1.7,1.9Zm1.6,2.4v-5.9h-2v-.8h2v-4h.8v10.7Zm2,.4V98.9h.9v11.3Z"/></svg>