<?xml version="1.0" encoding="utf-8"?>
<!-- Generator: Adobe Illustrator 22.1.0, SVG Export Plug-In . SVG Version: 6.00 Build 0)  -->
<svg version="1.1" xmlns="http://www.w3.org/2000/svg" xmlns:xlink="http://www.w3.org/1999/xlink" x="0px" y="0px"
	 viewBox="0 0 492.8 180.1" style="enable-background:new 0 0 492.8 180.1;" xml:space="preserve">
<style type="text/css">
	.st0{fill:#505050;}
	.st1{fill:#FFFFFF;}
	.st2{display:none;}
	.st3{display:inline;}
	.st4{fill:#EBEBEB;}
	.st5{fill:#0072C6;}
	.st6{fill:#008575;}
	.st7{fill:none;stroke:#000000;stroke-miterlimit:10;}
	.st8{fill:#EBEBEB;stroke:#000000;stroke-width:0.75;stroke-miterlimit:10;}
	.st9{fill:#1E1E1E;}
	.st10{fill:none;}
	.st11{stroke:#000000;stroke-width:5.000000e-02;stroke-miterlimit:10;}
	.st12{fill:#1E1E1E;stroke:#1E1E1E;stroke-width:6.000000e-02;stroke-miterlimit:10;}
	.st13{fill:#FFFFFF;stroke:#FFFFFF;stroke-width:5.000000e-02;stroke-miterlimit:10;}
</style>
<symbol  id="New_Symbol_41" viewBox="-10 -10 20 20">
	<circle class="st0" cx="0" cy="0" r="10"/>
	<path class="st1" d="M1.2-4.2v8.6h-1.4v-6.9C-0.4-2.3-0.7-2.1-1-2c-0.3,0.1-0.7,0.2-1,0.3v-1.2l0.6-0.2l0.6-0.3l0.6-0.3
		C0.1-3.9,0.4-4,0.6-4.2H1.2z"/>
</symbol>
<symbol  id="New_Symbol_42" viewBox="-10 -10 20 20">
	<circle class="st0" cx="0" cy="0" r="10"/>
	<path class="st1" d="M2.5,4.4h-5.3V3.8c0-0.3,0-0.5,0.1-0.8c0.1-0.2,0.2-0.4,0.3-0.7c0.1-0.2,0.3-0.4,0.4-0.6
		c0.2-0.2,0.4-0.4,0.5-0.5l0.6-0.5c0.2-0.1,0.4-0.3,0.6-0.5S0.1,0,0.3-0.2c0.1-0.1,0.3-0.3,0.4-0.4C0.8-0.8,0.9-1,0.9-1.1
		C1-1.3,1-1.5,1-1.7c0-0.2,0-0.4-0.1-0.6C0.8-2.4,0.7-2.6,0.6-2.7C0.5-2.8,0.3-2.9,0.2-2.9C0-3-0.2-3-0.4-3c-0.4,0-0.7,0.1-1.1,0.2
		c-0.4,0.2-0.7,0.4-1,0.7v-1.3c0.2-0.1,0.3-0.2,0.5-0.3c0.2-0.1,0.4-0.2,0.6-0.2C-1.2-4-1-4-0.8-4.1c0.2,0,0.4,0,0.7,0
		c0.3,0,0.7,0,1,0.1c0.3,0.1,0.6,0.2,0.8,0.4C1.9-3.3,2.1-3,2.2-2.8c0.1,0.3,0.2,0.7,0.2,1c0,0.3,0,0.6-0.1,0.9
		C2.2-0.6,2-0.3,1.9-0.1C1.7,0.2,1.5,0.4,1.3,0.6C1.1,0.8,0.9,1,0.6,1.2l-0.7,0.5c-0.2,0.2-0.4,0.4-0.6,0.5C-0.8,2.4-1,2.6-1.1,2.8
		c-0.1,0.1-0.2,0.3-0.2,0.5l0,0h3.8V4.4z"/>
</symbol>
<symbol  id="New_Symbol_43" viewBox="-10 -10 20 20">
	<circle class="st0" cx="0" cy="0" r="10"/>
	<path class="st1" d="M-2.6,4.1V2.8c0.5,0.4,1.2,0.7,1.8,0.6c0.5,0,0.9-0.1,1.3-0.4c0.3-0.2,0.5-0.6,0.5-1c0-0.9-0.7-1.4-2.2-1.4
		h-0.7v-1.1h0.6c1.3,0,1.9-0.4,1.9-1.4S0.3-3-0.7-3c-0.6,0-1.1,0.2-1.6,0.6v-1.2C-1.7-4-1-4.1-0.3-4.1c0.6,0,1.3,0.2,1.8,0.6
		c0.4,0.3,0.7,0.9,0.7,1.4c0.1,1-0.7,1.9-1.7,2.1l0,0c0.5,0,1,0.3,1.4,0.6C2.3,1,2.5,1.5,2.5,2.1c0,0.7-0.3,1.4-0.9,1.8
		C1,4.4,0.2,4.6-0.6,4.6C-1.3,4.6-2,4.5-2.6,4.1z"/>
</symbol>
<symbol  id="New_Symbol_44" viewBox="-10 -10 20 20">
	<circle class="st0" cx="0" cy="0" r="10"/>
	<path class="st1" d="M2-4v5.4h1.3v1.1H2v1.9H0.6V2.6h-3.8V1.4c0.3-0.4,0.7-0.8,1-1.3c0.4-0.4,0.7-0.9,1-1.4s0.6-0.9,0.9-1.4
		S0.4-3.5,0.6-4L2-4z M0.7,1.4v-3.5c-0.4,0.7-0.8,1.4-1.3,2C-1,0.5-1.4,1-1.8,1.4L0.7,1.4z"/>
</symbol>
<symbol  id="New_Symbol_45" viewBox="-10 -10 20 20">
	<circle class="st0" cx="0" cy="0" r="10"/>
	<path class="st1" d="M-2.4,4.2V2.9c0.5,0.3,1.1,0.5,1.7,0.6c0.5,0,1-0.1,1.4-0.4C1,2.8,1.2,2.3,1.1,1.9C1.2,1.5,1,1,0.6,0.8
		c-0.5-0.3-1-0.4-1.5-0.4c-0.2,0-0.7,0-1.4,0.1L-2-4h4.1v1.2h-3L-1-0.7c0.3,0,0.5,0,0.7,0C0.5-0.8,1.2-0.5,1.8,0
		c0.5,0.5,0.7,1.2,0.7,1.9c0,0.8-0.3,1.5-0.8,2C1,4.4,0.2,4.6-0.6,4.6C-1.2,4.6-1.9,4.5-2.4,4.2z"/>
</symbol>
<g id="src" class="st2">
	<g id="Shapes" class="st3">
		<rect class="st1" width="492.8" height="180.1"/>
		<rect y="0.2" class="st4" width="105" height="155"/>
		<rect x="369.7" y="59.8" class="st5" width="105" height="95"/>
		<rect x="369.7" y="-0.2" class="st6" width="105" height="55"/>
		<g>
			<line class="st7" x1="104.6" y1="14.8" x2="364.2" y2="14.8"/>
			<polygon points="363.1,18.5 369.5,14.8 363.1,11 			"/>
		</g>
		<g>
			<line class="st7" x1="110" y1="44.7" x2="369.5" y2="44.7"/>
			<polygon points="111.1,48.4 104.6,44.7 111.1,40.9 			"/>
		</g>
		<g>
			<line class="st7" x1="104.6" y1="85.2" x2="364.2" y2="85.2"/>
			<polygon points="363.1,89 369.5,85.2 363.1,81.5 			"/>
		</g>
		<g>
			<line class="st7" x1="110" y1="135.9" x2="369.5" y2="135.9"/>
			<polygon points="111.1,139.6 104.6,135.9 111.1,132.1 			"/>
		</g>
		<g>
			<path class="st7" d="M50.5,155.2v7.3c0,4,4.5,7.3,10,7.3l419.1,0.8c5.5,0,10-4.5,10-10V30.3c-0.1-1.5-1.3-2.6-2.8-2.5H480"/>
			<polygon points="481.1,24 474.6,27.8 481.1,31.5 			"/>
		</g>
		<path d="M80.2,38.1c-6.6-8.6-16.9-13.7-27.7-13.7c-7.7,0-15.2,2.6-21.3,7.2c-15.3,11.7-18.2,33.7-6.5,49
			c6.6,8.6,16.9,13.7,27.7,13.7c7.7,0,15.2-2.6,21.3-7.2C89.1,75.4,92,53.5,80.4,38.2C80.3,38.2,80.3,38.1,80.2,38.1z M81.9,67.3
			c-1.2-0.9-3-2.3-5.3-4.1c0.8-2.1,0.5-4.5-0.8-6.4c-2.1-2.6-5.7-3.2-8.6-1.5c-3.1-2.7-6.4-5.9-10-9.4c10.7-5.9,18.6-5.2,19.1-5.1
			l0.3,0.4C82.4,48.5,84.3,58.2,81.9,67.3z M62.7,75.5c-0.2-0.9-0.6-1.7-1.1-2.4c-1.9-2.5-5.4-3.1-8-1.4c-2.9-1.6-5.6-3.4-8.2-5.4
			l-0.7-0.6c1.2-3,0.7-6.4-1.3-9c0-0.1-0.1-0.1-0.2-0.2c0.6-0.6,1.2-1.3,1.9-1.9c2.5-2.4,5.1-4.5,8-6.5l0,0h0.1l-0.1,0.1
			c3.7,3.5,7.8,6.8,11.6,9.8c-1,2.2-0.8,4.7,0.6,6.7c2.2,2.9,6.3,3.4,9.2,1.3c0.1-0.1,0.3-0.2,0.4-0.4c2.7,1.9,4.9,3.4,6.1,4.2
			c-0.9,2.4-2,4.6-3.4,6.7C75.6,76.9,70.1,77.6,62.7,75.5z M72.1,36.2c-7-1-14.1,0.4-20.3,3.8c-2.8-2.9-5.7-6.2-8.6-9.5
			C53.1,27.2,64.1,29.4,72.1,36.2z M34,35.3c1.6-1.2,3.3-2.3,5.1-3.2c2.4,3.7,5.1,7.2,8.2,10.4c-3.1,2.1-5.9,4.6-8.4,7.3
			c-1,1.1-1.9,2.2-2.8,3.3c-1.5,0-3,0.3-4.3,1c-2.4-4-3.6-8.7-3.4-13.4C30.1,38.7,31.9,36.8,34,35.3z M24.9,46.5c0,4,1,8,3.1,11.5
			c-1.7,3.2-1.4,7.1,0.8,10l0,0c-0.7,2.8-1.2,5.7-1.4,8.7C21.3,67.8,20.3,56.3,24.9,46.5z M52.5,89.8c-7.1,0-14-2.5-19.5-7.1
			c0-3.8,0.5-7.6,1.5-11.3c2.4,0.4,4.9-0.1,6.9-1.5l0.8,0.6c2.7,2.1,5.6,4,8.6,5.5c-0.2,1.6,0.2,3.2,1.2,4.5c2,2.7,5.8,3.2,8.5,1.2
			c0.6-0.5,1.1-1,1.5-1.7c3.9,0.8,7.8,1.2,11.7,1.2c-0.9,0.8-1.8,1.6-2.7,2.3C65.7,87.7,59.2,89.9,52.5,89.8z"/>
		
			<use xlink:href="#New_Symbol_44"  width="20" height="20" x="-10" y="-10" transform="matrix(1 0 0 1 168.55 135.79)" style="overflow:visible;"/>
		
			<use xlink:href="#New_Symbol_43"  width="20" height="20" x="-10" y="-10" transform="matrix(1 0 0 1 168.55 87.2)" style="overflow:visible;"/>
		
			<use xlink:href="#New_Symbol_41"  width="20" height="20" x="-10" y="-10" transform="matrix(1 0 0 1 168.55 14.2)" style="overflow:visible;"/>
		
			<use xlink:href="#New_Symbol_42"  width="20" height="20" x="-10" y="-10" transform="matrix(1 0 0 1 168.55 44.09)" style="overflow:visible;"/>
	</g>
	<g id="Text" class="st3">
		<g>
			<polygon class="st8" points="192.2,105.7 184.6,111.2 187.5,120 196.9,120 199.8,111.2 			"/>
			<g>
				<path class="st9" d="M211,116.9h-1l-0.9-2.4h-3.6l-0.8,2.4h-1.1l3.2-8.4h1L211,116.9z M208.7,113.7l-1.3-3.6
					c-0.1-0.2-0.1-0.4-0.1-0.6l0,0c0,0.2-0.1,0.4-0.1,0.6l-1.3,3.6H208.7z"/>
				<path class="st9" d="M216.1,116.6c-0.5,0.3-1.1,0.4-1.6,0.4c-0.8,0-1.5-0.3-2.1-0.8c-0.5-0.6-0.8-1.4-0.8-2.2
					c0-0.9,0.3-1.7,0.9-2.4c0.6-0.6,1.4-0.9,2.3-0.9c0.5,0,1,0.1,1.4,0.3v1c-0.4-0.3-0.9-0.5-1.4-0.5c-0.6,0-1.1,0.2-1.5,0.7
					c-0.4,0.5-0.6,1.1-0.6,1.7c0,0.6,0.2,1.2,0.6,1.7c0.4,0.4,0.9,0.6,1.5,0.6c0.5,0,1.1-0.2,1.5-0.5L216.1,116.6z"/>
				<path class="st9" d="M221.5,116.6c-0.5,0.3-1.1,0.4-1.6,0.4c-0.8,0-1.5-0.3-2.1-0.8c-0.6-0.6-0.8-1.4-0.8-2.2
					c0-0.9,0.3-1.7,0.9-2.4c0.6-0.6,1.4-0.9,2.3-0.9c0.5,0,1,0.1,1.4,0.3v1c-0.4-0.3-0.9-0.5-1.4-0.5c-0.6,0-1.1,0.2-1.5,0.7
					c-0.4,0.5-0.6,1.1-0.6,1.8c0,0.6,0.2,1.2,0.6,1.7c0.4,0.4,0.9,0.6,1.5,0.6c0.5,0,1.1-0.2,1.5-0.5L221.5,116.6z"/>
				<path class="st9" d="M227.7,114.1h-4.2c0,0.6,0.2,1.1,0.5,1.5c0.4,0.4,0.9,0.6,1.4,0.6c0.7,0,1.3-0.2,1.9-0.7v0.9
					c-0.6,0.4-1.3,0.6-2.1,0.6c-0.8,0-1.5-0.3-2-0.8c-1-1.4-1-3.2,0.1-4.6c0.5-0.6,1.2-0.9,2-0.9c0.7,0,1.4,0.2,1.8,0.8
					c0.5,0.6,0.7,1.4,0.6,2.1L227.7,114.1z M226.7,113.3c0-0.5-0.1-0.9-0.4-1.3c-0.3-0.3-0.7-0.5-1.1-0.5c-0.4,0-0.9,0.1-1.2,0.4
					c-0.3,0.3-0.5,0.8-0.6,1.3L226.7,113.3z"/>
				<path class="st9" d="M228.7,116.7v-1c0.5,0.4,1.1,0.6,1.7,0.6c0.8,0,1.3-0.3,1.3-0.8c0-0.1,0-0.3-0.1-0.4
					c-0.1-0.1-0.2-0.2-0.3-0.3c-0.1-0.1-0.3-0.2-0.4-0.2l-0.5-0.2c-0.3-0.1-0.5-0.2-0.7-0.3c-0.2-0.1-0.4-0.2-0.5-0.4
					c-0.1-0.1-0.2-0.3-0.3-0.5c-0.1-0.2-0.1-0.4-0.1-0.6c0-0.3,0.1-0.5,0.2-0.8c0.1-0.2,0.3-0.4,0.5-0.5c0.2-0.2,0.5-0.3,0.7-0.3
					c0.3-0.1,0.6-0.1,0.9-0.1c0.5,0,1,0.1,1.4,0.3v1c-0.5-0.3-1-0.4-1.5-0.4c-0.2,0-0.3,0-0.5,0.1c-0.1,0-0.3,0.1-0.4,0.2
					c-0.1,0.1-0.2,0.2-0.2,0.3c-0.1,0.1-0.1,0.2-0.1,0.3c0,0.1,0,0.3,0.1,0.4c0.1,0.1,0.1,0.2,0.3,0.3c0.1,0.1,0.3,0.2,0.4,0.2
					l0.5,0.2c0.2,0.1,0.5,0.2,0.7,0.3c0.2,0.1,0.4,0.2,0.5,0.4c0.1,0.1,0.3,0.3,0.4,0.5c0.1,0.2,0.1,0.4,0.1,0.6
					c0,0.3-0.1,0.5-0.2,0.8c-0.1,0.2-0.3,0.4-0.5,0.5c-0.2,0.1-0.5,0.3-0.8,0.3c-0.3,0.1-0.6,0.1-0.9,0.1
					C229.8,117.1,229.2,116.9,228.7,116.7z"/>
				<path class="st9" d="M233.8,116.7v-1c0.5,0.4,1.1,0.6,1.7,0.6c0.8,0,1.3-0.3,1.3-0.8c0-0.1,0-0.3-0.1-0.4
					c-0.1-0.1-0.2-0.2-0.3-0.3c-0.1-0.1-0.3-0.2-0.4-0.2l-0.5-0.2c-0.3-0.1-0.5-0.2-0.7-0.3c-0.2-0.1-0.4-0.2-0.5-0.4
					c-0.1-0.1-0.2-0.3-0.3-0.5c-0.1-0.2-0.1-0.4-0.1-0.6c0-0.3,0.1-0.5,0.2-0.8c0.1-0.2,0.3-0.4,0.5-0.5c0.2-0.2,0.5-0.3,0.7-0.3
					c0.3-0.1,0.6-0.1,0.9-0.1c0.5,0,1,0.1,1.4,0.3v1c-0.5-0.3-1-0.4-1.5-0.4c-0.2,0-0.3,0-0.5,0.1c-0.1,0-0.3,0.1-0.4,0.2
					c-0.1,0.1-0.2,0.2-0.2,0.3c-0.1,0.1-0.1,0.2-0.1,0.3c0,0.1,0,0.3,0.1,0.4c0.1,0.1,0.1,0.2,0.3,0.3c0.1,0.1,0.3,0.2,0.4,0.2
					l0.5,0.2c0.2,0.1,0.5,0.2,0.7,0.3c0.2,0.1,0.4,0.2,0.5,0.4c0.3,0.3,0.5,0.7,0.5,1.1c0,0.3-0.1,0.5-0.2,0.8
					c-0.1,0.2-0.3,0.4-0.5,0.5c-0.2,0.1-0.5,0.3-0.8,0.3c-0.3,0.1-0.6,0.1-0.9,0.1C234.9,117.1,234.3,116.9,233.8,116.7z"/>
				<path class="st9" d="M245.4,116.8c-0.3,0.1-0.6,0.2-0.9,0.2c-1.1,0-1.6-0.6-1.6-1.8v-3.6h-1v-0.8h1v-1.5l1-0.3v1.8h1.5v0.8h-1.5
					v3.4c0,0.3,0,0.6,0.2,0.9c0.2,0.2,0.4,0.3,0.7,0.3c0.2,0,0.4-0.1,0.6-0.2L245.4,116.8z"/>
				<path class="st9" d="M249,117c-0.8,0-1.6-0.3-2.1-0.8c-0.5-0.6-0.8-1.4-0.8-2.2c-0.1-0.9,0.2-1.7,0.8-2.4
					c0.6-0.6,1.4-0.9,2.2-0.8c0.8,0,1.6,0.3,2.1,0.8c0.5,0.6,0.8,1.5,0.8,2.3c0,0.8-0.2,1.7-0.8,2.3C250.6,116.7,249.8,117,249,117z
					 M249.1,111.5c-0.6,0-1.1,0.2-1.5,0.6c-0.4,0.5-0.6,1.1-0.5,1.7c0,0.6,0.2,1.2,0.6,1.7c0.4,0.4,0.9,0.6,1.4,0.6
					c0.5,0,1.1-0.2,1.4-0.6c0.4-0.5,0.5-1.1,0.5-1.7c0-0.6-0.1-1.2-0.5-1.7C250.1,111.7,249.6,111.5,249.1,111.5L249.1,111.5z"/>
				<path class="st9" d="M258.5,116.9h-1.3l-2.6-2.9l0,0v2.9h-1V108h1v5.6l0,0l2.5-2.8h1.3l-2.8,2.9L258.5,116.9z"/>
				<path class="st9" d="M264,114.1h-4.2c0,0.6,0.2,1.1,0.5,1.5c0.4,0.4,0.9,0.6,1.4,0.6c0.7,0,1.3-0.2,1.9-0.7v0.9
					c-0.6,0.4-1.4,0.6-2.1,0.6c-0.8,0-1.5-0.3-2-0.8c-1-1.4-1-3.2,0.1-4.6c0.5-0.6,1.2-0.9,2-0.9c0.7,0,1.4,0.2,1.8,0.8
					c0.5,0.6,0.7,1.4,0.6,2.1L264,114.1z M263,113.3c0-0.5-0.1-0.9-0.4-1.3c-0.3-0.3-0.7-0.5-1.1-0.5c-0.4,0-0.9,0.2-1.2,0.5
					c-0.3,0.4-0.5,0.8-0.6,1.3H263z"/>
				<path class="st9" d="M270.4,116.9h-1v-3.4c0-1.3-0.5-1.9-1.4-1.9c-0.5,0-0.9,0.2-1.2,0.5c-0.3,0.4-0.5,0.9-0.5,1.4v3.4h-1v-6h1
					v1l0,0c0.4-0.7,1.2-1.2,2-1.1c0.6,0,1.1,0.2,1.5,0.6c0.4,0.5,0.6,1.2,0.5,1.8L270.4,116.9z"/>
			</g>
			<g>
				<path class="st9" d="M210.3,127.1h-2.4v2.4h-0.8v-2.4h-2.4v-0.8h2.4v-2.4h0.8v2.4h2.4V127.1z"/>
				<path class="st9" d="M219,125.2c-0.2-0.1-0.5-0.2-0.7-0.2c-0.4,0-0.8,0.2-1,0.6c-0.3,0.5-0.4,1-0.4,1.6v3.1h-1v-6h1v1.2l0,0
					c0.1-0.4,0.3-0.7,0.6-1c0.3-0.2,0.6-0.4,0.9-0.4c0.2,0,0.4,0,0.6,0.1L219,125.2z"/>
				<path class="st9" d="M224.9,127.4h-4.2c0,0.6,0.2,1.1,0.5,1.6c0.4,0.4,0.9,0.6,1.4,0.5c0.7,0,1.3-0.2,1.9-0.7v0.9
					c-0.6,0.4-1.3,0.6-2.1,0.6c-0.8,0-1.5-0.3-2-0.8c-0.5-0.6-0.8-1.5-0.7-2.3c0-0.8,0.3-1.6,0.8-2.3c0.5-0.6,1.2-0.9,2-0.9
					c0.7,0,1.4,0.2,1.8,0.8c0.5,0.6,0.7,1.4,0.6,2.1L224.9,127.4z M223.9,126.6c0-0.5-0.1-0.9-0.4-1.3c-0.3-0.3-0.7-0.5-1.1-0.5
					c-0.4,0-0.9,0.2-1.1,0.5c-0.3,0.3-0.5,0.8-0.6,1.3H223.9z"/>
				<path class="st9" d="M231.5,130.2h-1v-1l0,0c-0.7,1.1-2.2,1.5-3.3,0.8c-0.2-0.1-0.4-0.3-0.5-0.5c-0.5-0.6-0.7-1.4-0.7-2.2
					c0-0.9,0.2-1.7,0.8-2.4c0.5-0.6,1.2-0.9,2-0.9c0.7,0,1.4,0.3,1.8,1l0,0v-3.8h1L231.5,130.2z M230.5,127.5v-0.9
					c0-0.5-0.2-0.9-0.5-1.2c-0.3-0.3-0.8-0.5-1.2-0.5c-0.5,0-1.1,0.2-1.4,0.6c-0.4,0.5-0.5,1.1-0.5,1.8c0,0.6,0.1,1.2,0.5,1.6
					c0.3,0.4,0.8,0.6,1.3,0.6c0.5,0,1-0.2,1.3-0.6C230.4,128.5,230.6,128,230.5,127.5L230.5,127.5z"/>
				<path class="st9" d="M233.9,122.7c-0.2,0-0.3-0.1-0.4-0.2c-0.1-0.1-0.2-0.3-0.2-0.4c0-0.2,0.1-0.3,0.2-0.4
					c0.1-0.1,0.3-0.2,0.4-0.2c0.2,0,0.3,0.1,0.4,0.2c0.1,0.1,0.2,0.3,0.2,0.4c0,0.2-0.1,0.3-0.2,0.4
					C234.2,122.6,234,122.7,233.9,122.7z M234.3,130.2h-1v-6h1V130.2z"/>
				<path class="st9" d="M239.3,125.2c-0.2-0.1-0.5-0.2-0.7-0.2c-0.4,0-0.8,0.2-1,0.6c-0.3,0.5-0.4,1-0.4,1.6v3.1h-1v-6h1v1.2l0,0
					c0.1-0.4,0.3-0.7,0.6-1c0.3-0.2,0.6-0.4,0.9-0.4c0.2,0,0.4,0,0.6,0.1L239.3,125.2z"/>
				<path class="st9" d="M245.1,127.4h-4.2c0,0.6,0.2,1.1,0.5,1.6c0.4,0.4,0.9,0.6,1.4,0.5c0.7,0,1.3-0.2,1.9-0.7v0.9
					c-0.6,0.4-1.3,0.6-2.1,0.6c-0.8,0-1.5-0.3-2-0.8c-1-1.4-1-3.2,0.1-4.6c0.5-0.6,1.2-0.9,2-0.9c0.7,0,1.4,0.2,1.8,0.8
					c0.5,0.6,0.7,1.4,0.6,2.1L245.1,127.4z M244.1,126.6c0-0.5-0.1-0.9-0.4-1.3c-0.3-0.3-0.7-0.5-1.1-0.5c-0.4,0-0.9,0.2-1.1,0.5
					c-0.3,0.3-0.5,0.8-0.6,1.3H244.1z"/>
				<path class="st9" d="M250.7,129.9c-0.5,0.3-1.1,0.4-1.6,0.4c-0.8,0-1.5-0.3-2.1-0.8c-0.5-0.6-0.8-1.4-0.8-2.2
					c0-0.9,0.3-1.7,0.9-2.4c0.6-0.6,1.4-0.9,2.3-0.9c0.5,0,1,0.1,1.4,0.3v1c-0.4-0.3-0.9-0.5-1.4-0.5c-0.6,0-1.1,0.2-1.5,0.7
					c-0.4,0.5-0.6,1.1-0.6,1.7c0,0.6,0.2,1.2,0.6,1.7c0.4,0.4,0.9,0.6,1.5,0.6c0.5,0,1.1-0.2,1.5-0.5L250.7,129.9z"/>
				<path class="st9" d="M255.2,130.1c-0.3,0.1-0.6,0.2-0.9,0.2c-1.1,0-1.6-0.6-1.6-1.8V125h-1v-0.8h1v-1.5l1-0.3v1.8h1.5v0.8h-1.5
					v3.4c0,0.3,0,0.6,0.2,0.9c0.2,0.2,0.4,0.3,0.7,0.3c0.2,0,0.4-0.1,0.6-0.2L255.2,130.1z"/>
				<path class="st9" d="M266,126.8c0,2.4-1.1,3.5-3.2,3.5s-3.1-1.1-3.1-3.4v-5.1h1v5.1c0,1.7,0.7,2.6,2.2,2.6s2.1-0.8,2.1-2.5v-5.2
					h1L266,126.8z"/>
				<path class="st9" d="M274,130.2h-1.2l-1.4-2.4c-0.1-0.2-0.2-0.4-0.4-0.6c-0.1-0.1-0.2-0.3-0.4-0.4c-0.1-0.1-0.3-0.2-0.4-0.2
					c-0.2,0-0.3-0.1-0.5-0.1H269v3.6h-1v-8.4h2.5c0.3,0,0.7,0,1,0.1c0.3,0.1,0.6,0.2,0.8,0.4c0.2,0.2,0.4,0.4,0.5,0.7
					c0.2,0.6,0.3,1.2,0.1,1.8c-0.1,0.2-0.2,0.5-0.4,0.7c-0.2,0.2-0.4,0.4-0.6,0.5c-0.2,0.1-0.5,0.2-0.8,0.3l0,0
					c0.1,0.1,0.3,0.1,0.4,0.2c0.1,0.1,0.2,0.2,0.3,0.3c0.1,0.1,0.2,0.2,0.3,0.4l0.3,0.5L274,130.2z M269,122.7v3h1.3
					c0.2,0,0.5,0,0.7-0.1c0.2-0.1,0.4-0.2,0.5-0.3c0.2-0.1,0.3-0.3,0.4-0.5c0.1-0.2,0.1-0.4,0.1-0.7c0-0.4-0.1-0.8-0.4-1.1
					c-0.4-0.3-0.8-0.4-1.3-0.4L269,122.7z"/>
				<path class="st9" d="M279.5,130.2h-4.4v-8.4h1v7.5h3.4L279.5,130.2z"/>
			</g>
		</g>
		<g>
			<path class="st9" d="M190.6,10.2h-1V6.8c0-1.3-0.5-1.9-1.4-1.9c-0.5,0-0.9,0.2-1.2,0.6c-0.3,0.4-0.5,0.9-0.5,1.4v3.4h-1V1.4h1
				v3.9l0,0c0.4-0.7,1.2-1.2,2-1.1c1.4,0,2,0.8,2,2.4L190.6,10.2z"/>
			<path class="st9" d="M195.1,10.2c-0.3,0.1-0.6,0.2-0.9,0.2c-1,0-1.6-0.6-1.6-1.8V5.1h-1V4.2h1V2.8l1-0.3v1.8h1.5v0.8h-1.5v3.4
				c0,0.3,0,0.6,0.2,0.9c0.2,0.2,0.4,0.3,0.7,0.3c0.2,0,0.4-0.1,0.6-0.2L195.1,10.2z"/>
			<path class="st9" d="M199.4,10.2c-0.3,0.1-0.6,0.2-0.9,0.2c-1,0-1.6-0.6-1.6-1.8V5.1h-1V4.2h1V2.8l1-0.3v1.8h1.5v0.8H198v3.4
				c0,0.3,0,0.6,0.2,0.9c0.2,0.2,0.4,0.3,0.7,0.3c0.2,0,0.4-0.1,0.6-0.2L199.4,10.2z"/>
			<path class="st9" d="M201.6,9.4L201.6,9.4V13h-1V4.2h1v1l0,0c0.4-0.8,1.2-1.2,2.1-1.2c0.7,0,1.4,0.3,1.8,0.8
				c0.5,0.6,0.7,1.4,0.6,2.2c0,0.9-0.2,1.7-0.7,2.4c-0.5,0.6-1.2,0.9-2,0.9C202.7,10.4,202,10,201.6,9.4z M201.6,6.9v0.8
				c0,0.5,0.2,0.9,0.5,1.3c0.3,0.3,0.8,0.5,1.2,0.5c0.5,0,1.1-0.2,1.4-0.7c0.4-0.6,0.5-1.2,0.5-1.9c0-0.6-0.1-1.1-0.5-1.6
				c-0.3-0.4-0.8-0.6-1.3-0.6c-0.5,0-1,0.2-1.4,0.6C201.8,5.9,201.6,6.4,201.6,6.9L201.6,6.9z"/>
			<path class="st9" d="M207.3,10V9c0.5,0.4,1.1,0.6,1.7,0.6c0.8,0,1.3-0.3,1.3-0.9c0-0.1,0-0.3-0.1-0.4c-0.1-0.1-0.2-0.2-0.3-0.3
				c-0.1-0.1-0.3-0.2-0.4-0.2l-0.5-0.2c-0.3-0.1-0.5-0.2-0.7-0.3c-0.2-0.1-0.4-0.2-0.5-0.4c-0.1-0.1-0.2-0.3-0.3-0.5
				c-0.1-0.2-0.1-0.4-0.1-0.6c0-0.3,0.1-0.5,0.2-0.8c0.1-0.2,0.3-0.4,0.5-0.5c0.2-0.2,0.5-0.3,0.7-0.3c0.3-0.1,0.6-0.1,0.9-0.1
				c0.5,0,1,0.1,1.4,0.3v1c-0.5-0.3-1-0.4-1.5-0.4c-0.1,0-0.3,0-0.4,0.1c-0.1,0-0.3,0.1-0.4,0.2c-0.1,0.1-0.2,0.2-0.2,0.3
				c-0.1,0.1-0.1,0.2-0.1,0.3c0,0.1,0,0.3,0.1,0.4c0.1,0.1,0.1,0.2,0.3,0.3c0.1,0.1,0.3,0.2,0.4,0.2l0.5,0.2
				c0.3,0.1,0.5,0.2,0.7,0.3c0.2,0.1,0.4,0.2,0.5,0.4c0.1,0.1,0.3,0.3,0.3,0.5c0.1,0.2,0.1,0.4,0.1,0.6c0,0.3-0.1,0.5-0.2,0.8
				c-0.1,0.2-0.3,0.4-0.5,0.6c-0.2,0.1-0.5,0.3-0.8,0.3c-0.3,0.1-0.6,0.1-0.9,0.1C208.3,10.4,207.8,10.3,207.3,10z"/>
			<path class="st9" d="M212.9,5.4c-0.2,0-0.3-0.1-0.5-0.2c-0.3-0.3-0.3-0.7,0-0.9c0,0,0,0,0,0c0.1-0.1,0.3-0.2,0.5-0.2
				c0.2,0,0.3,0.1,0.5,0.2c0.3,0.3,0.3,0.7,0,0.9c0,0,0,0,0,0C213.3,5.3,213.1,5.4,212.9,5.4z M212.9,10.4c-0.4,0-0.6-0.3-0.6-0.6
				c0-0.2,0.1-0.3,0.2-0.5c0.1-0.1,0.3-0.2,0.5-0.2c0.4,0,0.7,0.3,0.7,0.6c0,0,0,0,0,0c0,0.2-0.1,0.3-0.2,0.5
				C213.3,10.3,213.1,10.4,212.9,10.4z"/>
			<path class="st9" d="M219,1.8l-4,9.8h-0.9l4-9.8L219,1.8z"/>
			<path class="st9" d="M222.7,1.8l-4,9.8h-0.9l4-9.8L222.7,1.8z"/>
			<path class="st9" d="M228.4,4.2l-2.8,7c-0.5,1.2-1.2,1.9-2.1,1.9c-0.2,0-0.4,0-0.6-0.1v-0.9c0.2,0.1,0.4,0.1,0.6,0.1
				c0.5,0,1-0.4,1.1-0.9l0.5-1.1l-2.3-6h1.1l1.6,4.6c0,0.1,0.1,0.2,0.1,0.5l0,0c0-0.1,0-0.2,0.1-0.4l1.7-4.6L228.4,4.2z"/>
			<path class="st9" d="M231.8,10.4c-0.8,0-1.6-0.3-2.1-0.8c-0.5-0.6-0.8-1.4-0.8-2.2c0-0.9,0.2-1.7,0.8-2.4
				c0.6-0.6,1.4-0.9,2.2-0.8c0.8,0,1.6,0.3,2.1,0.8c0.5,0.6,0.8,1.5,0.8,2.3c0,0.8-0.2,1.7-0.8,2.3
				C233.4,10.1,232.6,10.4,231.8,10.4z M231.9,4.9c-0.6,0-1.1,0.2-1.5,0.6c-0.4,0.5-0.6,1.1-0.5,1.7c0,0.6,0.1,1.2,0.5,1.7
				c0.4,0.4,0.9,0.6,1.5,0.6c0.6,0,1.1-0.2,1.4-0.6c0.4-0.5,0.5-1.1,0.5-1.7c0-0.6-0.1-1.2-0.5-1.7C232.9,5.1,232.4,4.9,231.9,4.9z"
				/>
			<path class="st9" d="M241.1,10.2h-1v-1l0,0c-0.4,0.7-1.1,1.1-1.9,1.1c-1.4,0-2.1-0.9-2.1-2.6V4.2h1v3.4c0,1.3,0.5,1.9,1.4,1.9
				c0.4,0,0.9-0.2,1.2-0.5c0.3-0.4,0.5-0.9,0.4-1.4V4.2h1L241.1,10.2z"/>
			<path class="st9" d="M246.1,5.2c-0.2-0.1-0.5-0.2-0.7-0.2c-0.4,0-0.8,0.2-1,0.6c-0.3,0.5-0.4,1-0.4,1.6v3.1h-1v-6h1v1.2l0,0
				c0.1-0.4,0.3-0.7,0.6-1c0.3-0.2,0.6-0.3,0.9-0.3c0.2,0,0.4,0,0.6,0.1L246.1,5.2z"/>
			<path class="st9" d="M246.9,10V9c0.5,0.4,1.1,0.6,1.7,0.6c0.9,0,1.3-0.3,1.3-0.9c0-0.1,0-0.3-0.1-0.4c-0.1-0.1-0.2-0.2-0.3-0.3
				c-0.1-0.1-0.3-0.2-0.4-0.2l-0.5-0.2c-0.3-0.1-0.5-0.2-0.7-0.3c-0.2-0.1-0.4-0.2-0.5-0.4c-0.1-0.1-0.2-0.3-0.3-0.5
				C247,6.2,246.9,6,247,5.8c0-0.3,0.1-0.5,0.2-0.8c0.1-0.2,0.3-0.4,0.5-0.5c0.2-0.2,0.5-0.3,0.7-0.3c0.3-0.1,0.6-0.1,0.9-0.1
				c0.5,0,1,0.1,1.4,0.3v1c-0.5-0.3-1-0.4-1.5-0.4c-0.2,0-0.3,0-0.5,0.1c-0.1,0-0.3,0.1-0.4,0.2c-0.1,0.1-0.2,0.2-0.2,0.3
				c-0.1,0.1-0.1,0.2-0.1,0.3c0,0.1,0,0.3,0.1,0.4c0.1,0.1,0.1,0.2,0.3,0.3c0.1,0.1,0.3,0.2,0.4,0.2l0.5,0.2
				c0.3,0.1,0.5,0.2,0.7,0.3c0.2,0.1,0.4,0.2,0.5,0.4c0.1,0.1,0.3,0.3,0.3,0.5c0.1,0.2,0.1,0.4,0.1,0.6c0,0.3-0.1,0.5-0.2,0.8
				c-0.1,0.2-0.3,0.4-0.5,0.6c-0.2,0.1-0.5,0.3-0.8,0.3c-0.3,0.1-0.6,0.1-0.9,0.1C248,10.4,247.4,10.3,246.9,10z"/>
			<path class="st9" d="M252.8,2.7c-0.2,0-0.3-0.1-0.4-0.2c-0.1-0.1-0.2-0.3-0.2-0.5c0-0.2,0.1-0.3,0.2-0.5c0.1-0.1,0.3-0.2,0.4-0.2
				c0.2,0,0.3,0.1,0.4,0.2c0.1,0.1,0.2,0.3,0.2,0.5c0,0.2-0.1,0.3-0.2,0.4C253.1,2.6,252.9,2.7,252.8,2.7z M253.2,10.2h-1v-6h1V10.2
				z"/>
			<path class="st9" d="M257.9,10.2c-0.3,0.1-0.6,0.2-0.9,0.2c-1.1,0-1.6-0.6-1.6-1.8V5.1h-1V4.2h1V2.8l1-0.3v1.8h1.5v0.8h-1.5v3.4
				c0,0.3,0,0.6,0.2,0.9c0.2,0.2,0.4,0.3,0.7,0.3c0.2,0,0.4-0.1,0.6-0.2L257.9,10.2z"/>
			<path class="st9" d="M263.9,7.5h-4.2c0,0.6,0.2,1.1,0.5,1.5c0.4,0.4,0.9,0.6,1.4,0.6c0.7,0,1.3-0.2,1.9-0.7v0.9
				c-0.6,0.4-1.3,0.6-2.1,0.6c-0.8,0-1.5-0.3-2-0.8c-0.5-0.7-0.8-1.5-0.7-2.3c0-0.8,0.3-1.7,0.8-2.3c0.5-0.6,1.2-0.9,2-0.9
				c0.7,0,1.4,0.2,1.8,0.8c0.5,0.6,0.7,1.4,0.6,2.2V7.5z M262.9,6.7c0-0.5-0.1-0.9-0.4-1.3c-0.3-0.3-0.7-0.5-1.1-0.5
				c-0.4,0-0.9,0.2-1.1,0.5c-0.3,0.3-0.5,0.8-0.6,1.3L262.9,6.7z"/>
			<path class="st9" d="M265.6,10.4c-0.4,0-0.6-0.3-0.6-0.6c0-0.2,0.1-0.3,0.2-0.5c0.1-0.1,0.3-0.2,0.5-0.2c0.4,0,0.7,0.3,0.7,0.6
				c0,0,0,0,0,0c0,0.2-0.1,0.3-0.2,0.5C266,10.3,265.8,10.4,265.6,10.4z"/>
			<path class="st9" d="M271.8,10c-0.5,0.3-1.1,0.4-1.6,0.4c-0.8,0-1.5-0.3-2.1-0.8c-0.5-0.6-0.8-1.4-0.8-2.2
				c-0.1-0.9,0.3-1.8,0.9-2.4c0.6-0.6,1.4-0.9,2.3-0.9c0.5,0,1,0.1,1.4,0.3v1c-0.4-0.3-0.9-0.5-1.4-0.5c-0.6,0-1.1,0.2-1.5,0.7
				c-0.4,0.5-0.6,1.1-0.6,1.7c0,0.6,0.2,1.2,0.6,1.7c0.4,0.4,0.9,0.6,1.5,0.6c0.5,0,1.1-0.2,1.5-0.5L271.8,10z"/>
			<path class="st9" d="M275.6,10.4c-0.8,0-1.6-0.3-2.1-0.8c-0.5-0.6-0.8-1.4-0.8-2.2c-0.1-0.9,0.2-1.7,0.8-2.4
				c0.6-0.6,1.4-0.9,2.2-0.8c0.8,0,1.5,0.3,2.1,0.8c0.5,0.6,0.8,1.5,0.8,2.3c0,0.8-0.2,1.7-0.8,2.3
				C277.3,10.1,276.5,10.4,275.6,10.4z M275.7,4.9c-0.6,0-1.1,0.2-1.5,0.6c-0.4,0.5-0.6,1.1-0.5,1.7c0,0.6,0.1,1.2,0.6,1.7
				c0.4,0.4,0.9,0.6,1.5,0.6c0.5,0,1.1-0.2,1.4-0.6c0.4-0.5,0.5-1.1,0.5-1.7c0-0.6-0.1-1.2-0.5-1.7C276.8,5.1,276.3,4.9,275.7,4.9
				L275.7,4.9z"/>
			<path class="st9" d="M288.6,10.2h-1V6.8c0-0.5-0.1-1-0.3-1.4c-0.2-0.3-0.6-0.5-1-0.4c-0.4,0-0.8,0.2-1,0.6
				c-0.3,0.4-0.5,0.9-0.4,1.3v3.4h-1V6.7c0-1.2-0.5-1.8-1.4-1.8c-0.4,0-0.8,0.2-1,0.5c-0.3,0.4-0.4,0.9-0.4,1.4v3.4h-1v-6h1v0.9l0,0
				c0.4-0.7,1.1-1.1,1.9-1.1c0.4,0,0.8,0.1,1.1,0.3c0.3,0.2,0.5,0.5,0.6,0.9c0.4-0.8,1.1-1.3,2-1.3c1.3,0,2,0.8,2,2.4L288.6,10.2z"
				/>
		</g>
		<g>
			<path class="st9" d="M191.8,40.2h-1.2l-1.4-2.4c-0.1-0.2-0.2-0.4-0.4-0.6c-0.1-0.1-0.2-0.3-0.4-0.4c-0.1-0.1-0.3-0.2-0.4-0.2
				c-0.2-0.1-0.3-0.1-0.5-0.1h-0.8v3.6h-1v-8.4h2.5c0.3,0,0.7,0,1,0.1c0.3,0.1,0.6,0.2,0.8,0.4c0.2,0.2,0.4,0.4,0.5,0.7
				c0.1,0.3,0.2,0.7,0.2,1c0,0.3,0,0.5-0.1,0.8c-0.1,0.2-0.2,0.5-0.4,0.7c-0.2,0.2-0.4,0.4-0.6,0.5c-0.2,0.1-0.5,0.2-0.8,0.3l0,0
				c0.1,0.1,0.3,0.1,0.4,0.2c0.1,0.1,0.2,0.2,0.3,0.3c0.1,0.1,0.2,0.2,0.3,0.4l0.3,0.5L191.8,40.2z M186.8,32.7v3h1.3
				c0.2,0,0.5,0,0.7-0.1c0.2-0.1,0.4-0.2,0.5-0.3c0.2-0.1,0.3-0.3,0.4-0.5c0.1-0.2,0.1-0.4,0.1-0.7c0-0.4-0.2-0.7-0.4-1
				c-0.4-0.3-0.8-0.4-1.3-0.4L186.8,32.7z"/>
			<path class="st9" d="M197.4,37.5h-4.2c0,0.6,0.2,1.1,0.5,1.5c0.4,0.4,0.9,0.6,1.4,0.5c0.7,0,1.3-0.2,1.8-0.7v0.9
				c-0.6,0.4-1.3,0.6-2.1,0.6c-0.8,0-1.5-0.3-2-0.8c-0.5-0.7-0.8-1.5-0.7-2.3c0-0.8,0.3-1.6,0.8-2.3c0.5-0.6,1.2-0.9,2-0.9
				c0.7,0,1.4,0.2,1.8,0.8c0.5,0.6,0.7,1.4,0.6,2.1L197.4,37.5z M196.4,36.7c0-0.5-0.1-0.9-0.4-1.3c-0.3-0.3-0.7-0.5-1.1-0.5
				c-0.4,0-0.9,0.2-1.1,0.5c-0.3,0.3-0.5,0.8-0.6,1.3H196.4z"/>
			<path class="st9" d="M204.1,40.2h-1v-1l0,0c-0.7,1.1-2.2,1.5-3.3,0.8c-0.2-0.1-0.4-0.3-0.5-0.5c-0.5-0.6-0.7-1.4-0.7-2.2
				c0-0.9,0.2-1.7,0.8-2.4c0.5-0.6,1.2-0.9,2-0.9c0.7,0,1.4,0.3,1.8,1l0,0v-3.7h1L204.1,40.2z M203.1,37.5v-0.9
				c0-0.5-0.2-0.9-0.5-1.2c-0.3-0.3-0.8-0.5-1.2-0.5c-0.5,0-1.1,0.2-1.4,0.7c-0.4,0.5-0.5,1.1-0.5,1.8c0,0.6,0.1,1.2,0.5,1.7
				c0.3,0.4,0.8,0.6,1.3,0.6c0.5,0,1-0.2,1.3-0.6C203,38.6,203.1,38.1,203.1,37.5L203.1,37.5z"/>
			<path class="st9" d="M206.4,32.7c-0.2,0-0.3-0.1-0.4-0.2c-0.2-0.3-0.2-0.6,0-0.9c0.1-0.1,0.3-0.2,0.4-0.2c0.2,0,0.3,0.1,0.4,0.2
				c0.1,0.1,0.2,0.3,0.2,0.4c0,0.2-0.1,0.3-0.2,0.4C206.7,32.6,206.6,32.7,206.4,32.7z M206.9,40.2h-1v-6h1V40.2z"/>
			<path class="st9" d="M211.8,35.2c-0.2-0.1-0.5-0.2-0.7-0.2c-0.4,0-0.8,0.2-1,0.6c-0.3,0.5-0.4,1-0.4,1.6v3.1h-1v-6h1v1.2l0,0
				c0.1-0.4,0.3-0.7,0.6-1c0.3-0.2,0.6-0.3,0.9-0.3c0.2,0,0.4,0,0.6,0.1L211.8,35.2z"/>
			<path class="st9" d="M217.7,37.5h-4.2c0,0.6,0.2,1.1,0.5,1.5c0.4,0.4,0.9,0.6,1.4,0.5c0.7,0,1.3-0.2,1.9-0.7v0.9
				c-0.6,0.4-1.3,0.6-2.1,0.6c-0.8,0-1.5-0.3-2-0.8c-0.5-0.6-0.8-1.5-0.7-2.3c0-0.8,0.3-1.7,0.8-2.3c0.5-0.6,1.2-0.9,2-0.9
				c0.7,0,1.4,0.2,1.8,0.8c0.5,0.6,0.7,1.4,0.6,2.2V37.5z M216.7,36.7c0-0.5-0.1-0.9-0.4-1.3c-0.3-0.3-0.7-0.5-1.1-0.5
				c-0.4,0-0.9,0.2-1.1,0.5c-0.3,0.3-0.5,0.8-0.6,1.3H216.7z"/>
			<path class="st9" d="M223.3,40c-0.5,0.3-1.1,0.4-1.6,0.4c-0.8,0-1.5-0.3-2.1-0.8c-0.5-0.6-0.8-1.4-0.8-2.2c0-0.9,0.3-1.7,0.9-2.4
				c0.6-0.6,1.4-0.9,2.3-0.9c0.5,0,1,0.1,1.4,0.3v1c-0.4-0.3-0.9-0.5-1.4-0.5c-0.6,0-1.1,0.2-1.5,0.7c-0.4,0.5-0.6,1.1-0.6,1.7
				c0,0.6,0.2,1.2,0.6,1.7c0.4,0.4,0.9,0.6,1.5,0.6c0.5,0,1.1-0.2,1.5-0.5L223.3,40z"/>
			<path class="st9" d="M227.7,40.2c-0.3,0.1-0.6,0.2-0.9,0.2c-1.1,0-1.6-0.6-1.6-1.8v-3.5h-1v-0.8h1v-1.5l1-0.3v1.8h1.5v0.8h-1.6
				v3.4c0,0.3,0,0.6,0.2,0.9c0.2,0.2,0.4,0.3,0.7,0.3c0.2,0,0.4-0.1,0.6-0.2L227.7,40.2z"/>
		</g>
		<g>
			<path class="st9" d="M186.7,64.1v3.2h-1v-8.4h2.3c0.8-0.1,1.5,0.2,2.1,0.7c0.5,0.5,0.8,1.2,0.7,1.8c0,0.8-0.3,1.5-0.8,2
				c-0.6,0.5-1.4,0.8-2.2,0.8L186.7,64.1z M186.7,59.7v3.5h1c0.6,0,1.1-0.1,1.6-0.5c0.4-0.3,0.6-0.8,0.5-1.3c0-1.1-0.6-1.7-2-1.7
				H186.7z"/>
			<path class="st9" d="M195.3,62.2c-0.2-0.1-0.5-0.2-0.7-0.2c-0.4,0-0.8,0.2-1,0.6c-0.3,0.5-0.5,1-0.4,1.6v3h-1v-6h1v1.2l0,0
				c0.1-0.4,0.3-0.7,0.6-1c0.3-0.2,0.6-0.3,0.9-0.3c0.2,0,0.4,0,0.6,0.1V62.2z"/>
			<path class="st9" d="M198.9,67.4c-0.8,0-1.6-0.3-2.1-0.8c-0.5-0.6-0.8-1.4-0.8-2.2c-0.1-0.9,0.2-1.7,0.8-2.4
				c0.6-0.6,1.4-0.9,2.2-0.8c0.8,0,1.5,0.3,2.1,0.8c0.5,0.6,0.8,1.5,0.8,2.3c0,0.8-0.2,1.7-0.8,2.3
				C200.5,67.1,199.7,67.4,198.9,67.4z M198.9,61.9c-0.6,0-1.1,0.2-1.5,0.6c-0.4,0.5-0.6,1.1-0.5,1.7c0,0.6,0.2,1.2,0.6,1.7
				c0.4,0.4,0.9,0.6,1.5,0.6c0.5,0,1.1-0.2,1.4-0.6c0.4-0.5,0.5-1.1,0.5-1.7c0-0.6-0.1-1.2-0.5-1.7C200,62.1,199.5,61.9,198.9,61.9
				L198.9,61.9z"/>
			<path class="st9" d="M211.8,67.2h-1v-3.4c0-0.5-0.1-1-0.3-1.4c-0.2-0.3-0.6-0.5-1-0.5c-0.4,0-0.8,0.2-1,0.6
				c-0.3,0.4-0.4,0.9-0.4,1.3v3.4h-1v-3.6c0-1.2-0.4-1.8-1.4-1.8c-0.4,0-0.8,0.2-1,0.5c-0.3,0.4-0.4,0.9-0.4,1.4v3.4h-1v-6h1v1l0,0
				c0.4-0.7,1.1-1.1,1.9-1.1c0.4,0,0.8,0.1,1.1,0.3c0.3,0.2,0.5,0.5,0.6,0.9c0.4-0.8,1.1-1.3,2-1.3c1.3,0,2,0.8,2,2.5L211.8,67.2z"
				/>
			<path class="st9" d="M214.6,66.4L214.6,66.4V70h-1v-8.8h1v1.1l0,0c0.4-0.8,1.2-1.2,2.1-1.2c0.7,0,1.4,0.3,1.8,0.8
				c0.5,0.6,0.7,1.4,0.6,2.2c0,0.9-0.2,1.7-0.7,2.4c-0.5,0.6-1.2,0.9-2,0.9C215.6,67.4,214.9,67,214.6,66.4z M214.6,64v0.8
				c0,0.5,0.2,0.9,0.5,1.3c0.7,0.7,1.7,0.7,2.4,0c0.1-0.1,0.1-0.1,0.2-0.2c0.4-0.6,0.5-1.2,0.5-1.9c0-0.6-0.1-1.1-0.5-1.6
				c-0.3-0.4-0.8-0.6-1.3-0.6c-0.5,0-1,0.2-1.4,0.6C214.7,62.9,214.5,63.4,214.6,64L214.6,64z"/>
			<path class="st9" d="M223.4,67.2c-0.3,0.1-0.6,0.2-0.9,0.2c-1.1,0-1.6-0.6-1.6-1.8v-3.5h-1v-0.8h1v-1.5l1-0.3v1.8h1.5v0.8h-1.5
				v3.4c0,0.3,0,0.6,0.2,0.9c0.2,0.2,0.4,0.3,0.7,0.3c0.2,0,0.4-0.1,0.6-0.2L223.4,67.2z"/>
			<path class="st9" d="M189.7,80c-0.5,0.3-1.1,0.4-1.6,0.4c-0.8,0-1.5-0.3-2.1-0.8c-0.5-0.6-0.8-1.4-0.8-2.2c0-0.9,0.3-1.7,0.9-2.4
				c0.6-0.6,1.4-0.9,2.3-0.9c0.5,0,1,0.1,1.4,0.3v1c-0.4-0.3-0.9-0.5-1.4-0.5c-0.6,0-1.1,0.2-1.5,0.7c-0.4,0.5-0.6,1.1-0.6,1.7
				c0,0.6,0.2,1.2,0.6,1.7c0.4,0.4,0.9,0.6,1.5,0.6c0.5,0,1.1-0.2,1.5-0.5L189.7,80z"/>
			<path class="st9" d="M194.1,75.2c-0.2-0.1-0.5-0.2-0.7-0.2c-0.4,0-0.8,0.2-1,0.6c-0.3,0.5-0.5,1-0.4,1.6v3h-1v-6h1v1.2l0,0
				c0.1-0.4,0.3-0.7,0.6-1c0.3-0.2,0.6-0.4,1-0.3c0.2,0,0.4,0,0.6,0.1L194.1,75.2z"/>
			<path class="st9" d="M200,77.5h-4.2c0,0.6,0.2,1.1,0.5,1.5c0.4,0.4,0.9,0.6,1.4,0.6c0.7,0,1.3-0.2,1.9-0.7v0.9
				c-0.6,0.4-1.3,0.6-2.1,0.6c-0.8,0-1.5-0.3-2-0.8c-0.5-0.7-0.8-1.5-0.7-2.3c0-0.8,0.2-1.6,0.8-2.3c0.5-0.6,1.2-0.9,2-0.9
				c0.7,0,1.4,0.2,1.8,0.8c0.5,0.6,0.7,1.4,0.6,2.2V77.5z M199,76.7c0-0.5-0.1-0.9-0.4-1.3c-0.3-0.3-0.7-0.5-1.1-0.5
				c-0.4,0-0.9,0.2-1.2,0.5c-0.3,0.3-0.5,0.8-0.6,1.3L199,76.7z"/>
			<path class="st9" d="M206.6,80.2h-1v-1l0,0c-0.4,0.8-1.2,1.2-2.1,1.2c-0.7,0-1.4-0.3-1.8-0.8c-0.5-0.6-0.7-1.4-0.7-2.2
				c0-0.9,0.2-1.7,0.8-2.4c0.5-0.6,1.2-0.9,2-0.9c0.7,0,1.4,0.3,1.8,1l0,0v-3.8h1L206.6,80.2z M205.6,77.5v-0.9
				c0-0.5-0.2-0.9-0.5-1.2c-0.3-0.3-0.7-0.5-1.2-0.5c-0.5,0-1.1,0.2-1.4,0.7c-0.4,0.5-0.5,1.1-0.5,1.8c0,0.6,0.1,1.2,0.5,1.6
				c0.3,0.4,0.8,0.6,1.3,0.6c0.5,0,1-0.2,1.3-0.6C205.5,78.6,205.7,78.1,205.6,77.5L205.6,77.5z"/>
			<path class="st9" d="M213.4,77.5h-4.2c0,0.6,0.2,1.1,0.5,1.5c0.4,0.4,0.9,0.6,1.4,0.6c0.7,0,1.3-0.2,1.9-0.7v0.9
				c-0.6,0.4-1.3,0.6-2.1,0.6c-0.8,0-1.5-0.3-2-0.8c-0.5-0.7-0.8-1.5-0.7-2.3c0-0.8,0.2-1.6,0.8-2.3c0.5-0.6,1.2-0.9,2-0.9
				c0.7,0,1.4,0.2,1.8,0.8c0.5,0.6,0.7,1.4,0.6,2.1L213.4,77.5z M212.4,76.7c0-0.5-0.1-0.9-0.4-1.3c-0.3-0.3-0.7-0.5-1.1-0.5
				c-0.4,0-0.9,0.2-1.1,0.5c-0.3,0.3-0.5,0.8-0.6,1.3L212.4,76.7z"/>
			<path class="st9" d="M219.8,80.2h-1v-3.4c0-1.3-0.5-1.9-1.4-1.9c-0.5,0-0.9,0.2-1.2,0.5c-0.3,0.4-0.5,0.9-0.5,1.4v3.4h-1v-6h1v1
				l0,0c0.4-0.7,1.2-1.2,2-1.1c0.6,0,1.1,0.2,1.5,0.6c0.4,0.5,0.6,1.2,0.5,1.8L219.8,80.2z"/>
			<path class="st9" d="M224.3,80.2c-0.3,0.1-0.6,0.2-0.9,0.2c-1,0-1.6-0.6-1.6-1.8v-3.6h-1v-0.8h1v-1.5l1-0.3v1.8h1.5v0.8h-1.5v3.4
				c0,0.3,0,0.6,0.2,0.9c0.2,0.2,0.4,0.3,0.7,0.3c0.2,0,0.4-0.1,0.6-0.2L224.3,80.2z"/>
			<path class="st9" d="M226,72.7c-0.2,0-0.3-0.1-0.4-0.2c-0.2-0.3-0.2-0.6,0-0.9c0.1-0.1,0.3-0.2,0.4-0.2c0.3,0,0.6,0.3,0.6,0.6
				c0,0,0,0,0,0c0,0.2-0.1,0.3-0.2,0.4C226.3,72.6,226.2,72.7,226,72.7z M226.5,80.2h-1v-6h1V80.2z"/>
			<path class="st9" d="M232.6,80.2h-1v-0.9l0,0c-0.4,0.7-1.1,1.1-1.9,1.1c-0.5,0-1-0.1-1.4-0.5c-0.3-0.3-0.5-0.8-0.5-1.3
				c0-1.1,0.7-1.8,2-2l1.8-0.3c0-1-0.4-1.5-1.2-1.5c-0.7,0-1.4,0.3-2,0.7v-1c0.6-0.4,1.3-0.6,2-0.6c1.4,0,2.1,0.8,2.1,2.2
				L232.6,80.2z M231.6,77.2l-1.4,0.2c-0.4,0-0.7,0.1-1,0.3c-0.2,0.2-0.4,0.5-0.3,0.8c0,0.3,0.1,0.5,0.3,0.7
				c0.2,0.2,0.5,0.3,0.8,0.3c0.4,0,0.9-0.2,1.2-0.5c0.3-0.3,0.5-0.8,0.5-1.3L231.6,77.2z"/>
			<path class="st9" d="M235.3,80.2h-1v-8.9h1V80.2z"/>
			<path class="st9" d="M236.8,80v-1c0.5,0.4,1.1,0.6,1.7,0.6c0.8,0,1.3-0.3,1.3-0.8c0-0.1,0-0.3-0.1-0.4c-0.1-0.1-0.2-0.2-0.3-0.3
				c-0.1-0.1-0.3-0.2-0.4-0.2l-0.5-0.2c-0.3-0.1-0.5-0.2-0.7-0.3c-0.2-0.1-0.4-0.2-0.5-0.4c-0.1-0.1-0.2-0.3-0.3-0.5
				c-0.1-0.2-0.1-0.4-0.1-0.6c0-0.3,0.1-0.5,0.2-0.8c0.1-0.2,0.3-0.4,0.5-0.5c0.2-0.2,0.5-0.3,0.7-0.3c0.3-0.1,0.6-0.1,0.9-0.1
				c0.5,0,1,0.1,1.4,0.3v1c-0.4-0.3-1-0.5-1.5-0.5c-0.2,0-0.3,0-0.5,0.1c-0.1,0-0.3,0.1-0.4,0.2c-0.1,0.1-0.2,0.2-0.2,0.3
				c-0.1,0.1-0.1,0.2-0.1,0.3c0,0.1,0,0.3,0.1,0.4c0.1,0.1,0.1,0.2,0.3,0.3c0.1,0.1,0.3,0.2,0.4,0.2l0.5,0.2
				c0.3,0.1,0.5,0.2,0.7,0.3c0.2,0.1,0.4,0.2,0.5,0.4c0.3,0.3,0.5,0.7,0.5,1.1c0,0.3-0.1,0.5-0.2,0.8c-0.1,0.2-0.3,0.4-0.5,0.6
				c-0.2,0.1-0.5,0.3-0.8,0.3c-0.3,0.1-0.6,0.1-0.9,0.1C237.9,80.4,237.3,80.3,236.8,80z"/>
		</g>
		<g>
			<path class="st1" d="M405.2,96.1h-1.9V91c0-0.5,0-1.1,0.1-1.8h0c-0.1,0.4-0.1,0.7-0.3,1.1l-2,5.7h-1.5l-2-5.7
				c-0.1-0.4-0.2-0.8-0.3-1.2l0,0c0,0.8,0.1,1.6,0.1,2.2V96h-1.7v-8.4h2.8l1.7,5c0.1,0.4,0.2,0.8,0.3,1.2l0,0
				c0.1-0.4,0.2-0.8,0.3-1.2l1.7-5h2.7L405.2,96.1z"/>
			<path class="st1" d="M407.8,89.1c-0.3,0-0.6-0.1-0.8-0.3c-0.2-0.2-0.3-0.4-0.3-0.7c0-0.3,0.1-0.5,0.3-0.7
				c0.2-0.2,0.5-0.3,0.8-0.3c0.3,0,0.6,0.1,0.8,0.3c0.2,0.2,0.3,0.4,0.3,0.7c0,0.3-0.1,0.5-0.3,0.7C408.3,89,408.1,89.1,407.8,89.1z
				 M408.7,96.1h-1.9v-6h1.9V96.1z"/>
			<path class="st1" d="M414.8,95.8c-0.6,0.3-1.2,0.4-1.8,0.4c-0.8,0-1.6-0.3-2.2-0.8c-0.6-0.6-0.9-1.4-0.9-2.2
				c0-0.9,0.3-1.8,0.9-2.4c0.7-0.6,1.5-0.9,2.5-0.9c0.5,0,1.1,0.1,1.5,0.3v1.6c-0.4-0.3-0.8-0.4-1.3-0.4c-0.5,0-0.9,0.1-1.3,0.5
				c-0.3,0.3-0.5,0.8-0.5,1.3c0,0.5,0.1,0.9,0.5,1.3c0.3,0.3,0.8,0.5,1.2,0.4c0.5,0,1-0.2,1.4-0.4L414.8,95.8z"/>
			<path class="st1" d="M420,91.7c-0.2-0.1-0.5-0.2-0.8-0.2c-0.4,0-0.7,0.2-0.9,0.4c-0.2,0.3-0.4,0.8-0.3,1.2V96h-1.9v-6h1.9v1.1
				l0,0c0.2-0.7,0.8-1.2,1.6-1.2c0.2,0,0.3,0,0.5,0.1V91.7z"/>
			<path class="st1" d="M423.8,96.2c-0.9,0-1.7-0.3-2.4-0.8c-1.2-1.3-1.2-3.3,0-4.6c0.7-0.6,1.5-0.9,2.4-0.8c0.9,0,1.7,0.3,2.3,0.8
				c0.6,0.6,0.9,1.4,0.9,2.2c0.1,0.9-0.3,1.7-0.9,2.4C425.5,95.9,424.7,96.2,423.8,96.2z M423.8,91.3c-0.4,0-0.8,0.2-1,0.4
				c-0.3,0.4-0.4,0.8-0.4,1.3c0,1.2,0.5,1.7,1.4,1.7s1.3-0.6,1.3-1.8S424.8,91.3,423.8,91.3L423.8,91.3z"/>
			<path class="st1" d="M427.9,95.9v-1.5c0.3,0.2,0.6,0.3,0.9,0.4c0.3,0.1,0.6,0.1,0.9,0.1c0.3,0,0.5,0,0.8-0.1
				c0.2-0.1,0.3-0.2,0.3-0.4c0-0.1,0-0.2-0.1-0.3c-0.1-0.1-0.2-0.1-0.3-0.2c-0.1-0.1-0.3-0.1-0.5-0.2l-0.5-0.2
				c-0.2-0.1-0.4-0.2-0.6-0.3c-0.2-0.1-0.3-0.2-0.5-0.4c-0.1-0.1-0.2-0.3-0.3-0.5c-0.1-0.2-0.1-0.4-0.1-0.6c0-0.3,0.1-0.6,0.2-0.9
				c0.1-0.2,0.4-0.4,0.6-0.6c0.3-0.2,0.5-0.3,0.8-0.3c0.3-0.1,0.7-0.1,1-0.1c0.3,0,0.5,0,0.8,0.1c0.3,0,0.5,0.1,0.8,0.2v1.4
				c-0.2-0.1-0.5-0.2-0.8-0.3c-0.3-0.1-0.5-0.1-0.8-0.1c-0.1,0-0.2,0-0.4,0c-0.1,0-0.2,0-0.3,0.1c-0.1,0-0.1,0.1-0.2,0.2
				c0,0.1-0.1,0.1-0.1,0.2c0,0.1,0,0.2,0.1,0.3c0.1,0.1,0.2,0.2,0.3,0.2l0.4,0.2l0.4,0.1c0.2,0.1,0.5,0.2,0.7,0.3
				c0.2,0.1,0.4,0.2,0.5,0.3c0.1,0.1,0.3,0.3,0.3,0.5c0.1,0.2,0.1,0.4,0.1,0.7c0,0.3-0.1,0.6-0.2,0.9c-0.2,0.3-0.4,0.5-0.6,0.6
				c-0.3,0.2-0.6,0.3-0.9,0.3c-0.3,0.1-0.7,0.1-1,0.1C429.2,96.2,428.5,96.1,427.9,95.9z"/>
			<path class="st1" d="M436.5,96.2c-0.9,0-1.7-0.3-2.4-0.8c-1.2-1.3-1.2-3.3,0-4.6c0.7-0.6,1.5-0.9,2.4-0.8
				c0.9-0.1,1.7,0.3,2.3,0.8c0.6,0.6,0.9,1.4,0.9,2.2c0,0.9-0.3,1.7-0.9,2.4C438.2,95.9,437.4,96.2,436.5,96.2z M436.5,91.3
				c-0.4,0-0.8,0.2-1,0.4c-0.3,0.4-0.4,0.8-0.4,1.3c0,1.2,0.5,1.7,1.4,1.7s1.3-0.6,1.3-1.8S437.5,91.3,436.5,91.3L436.5,91.3z"/>
			<path class="st1" d="M444.9,88.6c-0.2-0.1-0.4-0.1-0.7-0.1c-0.6,0-0.9,0.3-0.9,1v0.6h1.4v1.4h-1.4v4.6h-1.9v-4.7h-1v-1.4h1v-0.8
				c0-0.6,0.2-1.2,0.7-1.7c0.5-0.4,1.1-0.7,1.8-0.6c0.3,0,0.6,0,0.9,0.1V88.6z"/>
			<path class="st1" d="M449.4,96c-0.4,0.2-0.8,0.2-1.2,0.2c-1.3,0-2-0.7-2-2v-2.8h-1v-1.4h1v-1.3l1.8-0.5v1.8h1.4v1.4h-1.4v2.4
				c0,0.6,0.2,0.9,0.8,0.9c0.2,0,0.4-0.1,0.6-0.2V96z"/>
			<path class="st1" d="M401.8,103.5c-0.3,0-0.6-0.1-0.8-0.3c-0.2-0.2-0.3-0.4-0.3-0.7c0-0.3,0.1-0.5,0.3-0.7
				c0.2-0.2,0.5-0.3,0.8-0.3c0.3,0,0.6,0.1,0.8,0.3c0.2,0.2,0.3,0.4,0.3,0.7c0,0.3-0.1,0.5-0.3,0.7
				C402.4,103.4,402.1,103.5,401.8,103.5z M402.7,110.5h-1.9v-6h1.9V110.5z"/>
			<path class="st1" d="M410.2,110.4h-1.9v-0.8l0,0c-0.4,0.6-1.1,1-1.9,1c-0.7,0-1.4-0.3-1.8-0.8c-0.5-0.6-0.7-1.4-0.7-2.2
				c0-0.9,0.2-1.7,0.8-2.4c0.5-0.6,1.2-0.9,2-0.9c0.7-0.1,1.3,0.3,1.6,0.8l0,0v-3.6h1.9L410.2,110.4z M408.4,107.5v-0.4
				c0-0.4-0.1-0.7-0.3-1c-0.2-0.3-0.6-0.4-0.9-0.4c-0.4,0-0.8,0.2-1,0.5c-0.2,0.4-0.4,0.9-0.3,1.3c0,0.4,0.1,0.9,0.3,1.2
				c0.2,0.3,0.6,0.4,0.9,0.4c0.4,0,0.7-0.2,0.9-0.4C408.2,108.4,408.4,108,408.4,107.5L408.4,107.5z"/>
			<path class="st1" d="M417.1,108h-3.9c0.1,0.9,0.6,1.3,1.6,1.3c0.6,0,1.2-0.2,1.7-0.5v1.3c-0.7,0.3-1.4,0.5-2.2,0.4
				c-1.5,0.2-2.9-1-3-2.5c0-0.2,0-0.3,0-0.5c0-0.9,0.3-1.7,0.9-2.4c0.6-0.6,1.3-0.9,2.1-0.9c0.7,0,1.5,0.2,2,0.8
				c0.5,0.6,0.8,1.3,0.7,2.1L417.1,108z M415.4,106.9c0-0.9-0.3-1.3-1-1.3c-0.3,0-0.6,0.1-0.8,0.4c-0.2,0.3-0.4,0.6-0.4,0.9H415.4z"
				/>
			<path class="st1" d="M424.1,110.4h-1.9v-3.3c0-0.9-0.3-1.4-1-1.4c-0.3,0-0.6,0.1-0.8,0.4c-0.2,0.3-0.3,0.6-0.3,0.9v3.4h-1.8v-6
				h1.9v0.9l0,0c0.4-0.7,1.1-1.1,1.9-1.1c1.3,0,2,0.8,2,2.5L424.1,110.4z"/>
			<path class="st1" d="M429.1,110.4c-0.4,0.2-0.8,0.2-1.2,0.2c-1.3,0-2-0.7-2-2v-2.8h-1v-1.4h1v-1.3l1.8-0.5v1.8h1.4v1.4h-1.4v2.4
				c0,0.6,0.3,0.9,0.8,0.9c0.2,0,0.4-0.1,0.6-0.2V110.4z"/>
			<path class="st1" d="M431.2,103.5c-0.3,0-0.6-0.1-0.8-0.3c-0.2-0.2-0.3-0.4-0.3-0.7c0-0.3,0.1-0.5,0.3-0.7c0.4-0.4,1.1-0.4,1.5,0
				c0.2,0.2,0.3,0.4,0.3,0.7c0,0.3-0.1,0.5-0.3,0.7C431.7,103.4,431.5,103.5,431.2,103.5z M432.1,110.5h-1.9v-6h1.9V110.5z"/>
			<path class="st1" d="M437.2,110.4c-0.4,0.2-0.8,0.2-1.2,0.2c-1.3,0-2-0.7-2-2v-2.8h-1v-1.4h1v-1.3l1.8-0.5v1.8h1.4v1.4h-1.4v2.4
				c0,0.6,0.3,0.9,0.8,0.9c0.2,0,0.4-0.1,0.6-0.2V110.4z"/>
			<path class="st1" d="M444.2,104.4l-2.4,6.5c-0.6,1.6-1.5,2.3-2.6,2.3c-0.4,0-0.8,0-1.1-0.2v-1.5c0.2,0.1,0.5,0.2,0.8,0.2
				c0.4,0,0.9-0.2,1-0.7l0.3-0.8l-2.4-6h2l1.1,3.7c0.1,0.3,0.1,0.5,0.2,0.8l0,0c0-0.3,0.1-0.5,0.2-0.8l1.1-3.7L444.2,104.4z"/>
			<path class="st1" d="M399.9,124.2L399.9,124.2v3.4H398v-8.8h1.9v0.9l0,0c0.7-1.1,2.2-1.4,3.3-0.7c0.2,0.1,0.3,0.2,0.5,0.4
				c0.5,0.6,0.7,1.4,0.6,2.2c0,0.9-0.2,1.7-0.7,2.4c-0.5,0.6-1.2,0.9-2,0.9C400.8,125,400.2,124.7,399.9,124.2z M399.8,121.7v0.5
				c0,0.4,0.1,0.7,0.3,1c0.2,0.3,0.5,0.4,0.9,0.4c0.4,0,0.8-0.2,1-0.5c0.3-0.4,0.4-0.9,0.4-1.4c0-1.1-0.4-1.6-1.2-1.6
				c-0.4,0-0.7,0.1-0.9,0.4C400,120.9,399.8,121.3,399.8,121.7z"/>
			<path class="st1" d="M407.4,124.8h-1.9V116h1.9V124.8z"/>
			<path class="st1" d="M413.9,124.8h-1.8V124l0,0c-0.4,0.6-1,1-1.8,1c-0.5,0-1-0.1-1.4-0.5c-0.3-0.4-0.5-0.8-0.5-1.3
				c0-1.2,0.7-1.8,2.1-2l1.6-0.2c0-0.7-0.4-1-1.1-1c-0.7,0-1.4,0.2-2,0.6v-1.4c0.3-0.2,0.7-0.3,1.1-0.3c0.4-0.1,0.8-0.1,1.2-0.2
				c1.2-0.2,2.4,0.7,2.6,1.9c0,0.2,0,0.4,0,0.6L413.9,124.8z M412.2,122.4V122l-1.1,0.1c-0.6,0.1-0.9,0.3-0.9,0.8
				c0,0.2,0.1,0.4,0.2,0.5c0.2,0.1,0.4,0.2,0.6,0.2c0.3,0,0.6-0.1,0.9-0.4C412.1,123.1,412.2,122.7,412.2,122.4z"/>
			<path class="st1" d="M418.9,124.8c-0.4,0.2-0.8,0.2-1.2,0.2c-1,0.1-1.9-0.5-2-1.5c0-0.2,0-0.3,0-0.5v-2.8h-1v-1.4h1v-1.3l1.9-0.5
				v1.8h1.3v1.4h-1.3v2.4c0,0.6,0.2,0.9,0.7,0.9c0.2,0,0.4-0.1,0.6-0.2L418.9,124.8z"/>
			<path class="st1" d="M424,117.4c-0.2-0.1-0.4-0.1-0.7-0.1c-0.6,0-0.9,0.3-0.9,1v0.6h1.4v1.4h-1.4v4.6h-1.9v-4.6h-1v-1.4h1v-0.8
				c0-0.6,0.2-1.2,0.7-1.7c0.5-0.4,1.2-0.7,1.8-0.6c0.3,0,0.6,0,0.9,0.1V117.4z"/>
			<path class="st1" d="M427.6,125c-0.9,0-1.7-0.3-2.4-0.8c-1.2-1.3-1.2-3.3,0-4.6c0.7-0.6,1.5-0.9,2.4-0.8c0.9-0.1,1.7,0.3,2.3,0.8
				c0.6,0.6,0.9,1.4,0.9,2.2c0,0.9-0.3,1.7-0.9,2.4C429.3,124.7,428.5,125,427.6,125z M427.7,120.1c-0.4,0-0.8,0.2-1,0.4
				c-0.3,0.4-0.4,0.8-0.4,1.3c0,1.2,0.5,1.7,1.4,1.7s1.3-0.6,1.3-1.8S428.6,120.1,427.7,120.1L427.7,120.1z"/>
			<path class="st1" d="M436,120.5c-0.2-0.1-0.5-0.2-0.8-0.2c-0.4,0-0.7,0.2-0.9,0.4c-0.2,0.3-0.4,0.8-0.3,1.2v2.9h-1.9v-6h1.9v1.2
				l0,0c0.2-0.7,0.8-1.2,1.6-1.2c0.2,0,0.3,0,0.5,0.1L436,120.5z"/>
			<path class="st1" d="M446.4,124.8h-1.9v-3.4c0-0.9-0.3-1.3-1-1.3c-0.3,0-0.6,0.1-0.7,0.4c-0.2,0.3-0.3,0.6-0.3,1v3.4h-1.8v-3.5
				c0-0.8-0.3-1.3-0.9-1.3c-0.3,0-0.6,0.1-0.8,0.4c-0.2,0.3-0.3,0.6-0.3,1v3.3h-1.9v-6h1.9v0.9l0,0c0.2-0.3,0.5-0.6,0.8-0.8
				c0.3-0.2,0.7-0.3,1.1-0.3c0.8,0,1.5,0.4,1.7,1.1c0.4-0.7,1.2-1.2,2-1.1c1.3,0,2,0.8,2,2.4L446.4,124.8z"/>
		</g>
		<g>
			<path class="st1" d="M406.7,18h-2.1l-0.6-1.9h-3l-0.6,1.9h-2l3.1-8.4h2.3L406.7,18z M403.6,14.7l-0.9-2.8
				c-0.1-0.2-0.1-0.5-0.1-0.8h0c0,0.2-0.1,0.5-0.1,0.7l-0.9,2.9H403.6z"/>
			<path class="st1" d="M407.5,17.7v-1.9c0.6,0.5,1.5,0.9,2.3,0.8c0.2,0,0.4,0,0.6-0.1c0.2,0,0.3-0.1,0.5-0.2
				c0.1-0.1,0.2-0.2,0.3-0.3c0.1-0.1,0.1-0.2,0.1-0.3c0-0.2,0-0.3-0.1-0.4c-0.1-0.1-0.2-0.3-0.4-0.4c-0.2-0.1-0.4-0.2-0.6-0.3
				l-0.7-0.3c-0.6-0.2-1.1-0.6-1.5-1c-0.3-0.4-0.5-0.9-0.5-1.4c0-0.4,0.1-0.8,0.3-1.1c0.2-0.3,0.4-0.6,0.7-0.8
				c0.3-0.2,0.7-0.4,1-0.4c0.4-0.1,0.8-0.2,1.3-0.1c0.4,0,0.8,0,1.2,0.1c0.3,0,0.6,0.1,0.9,0.2v1.8c-0.1-0.1-0.3-0.2-0.5-0.3
				c-0.2-0.1-0.3-0.1-0.5-0.2c-0.2,0-0.3-0.1-0.5-0.1c-0.2,0-0.3,0-0.5,0c-0.2,0-0.4,0-0.6,0.1c-0.2,0-0.3,0.1-0.5,0.2
				c-0.1,0.1-0.2,0.2-0.3,0.3c-0.1,0.1-0.1,0.2-0.1,0.4c0,0.1,0,0.3,0.1,0.4c0.1,0.1,0.2,0.2,0.3,0.3c0.2,0.1,0.3,0.2,0.5,0.3
				l0.7,0.3c0.3,0.1,0.6,0.3,0.9,0.4c0.3,0.1,0.5,0.3,0.7,0.5c0.2,0.2,0.3,0.4,0.4,0.7c0.2,0.7,0.2,1.4-0.1,2
				c-0.2,0.3-0.4,0.6-0.7,0.8c-0.3,0.2-0.7,0.3-1.1,0.4c-0.4,0.1-0.8,0.1-1.3,0.1c-0.4,0-0.9,0-1.3-0.1
				C408.2,18,407.8,17.8,407.5,17.7z"/>
			<path class="st1" d="M416.5,15.1V18h-1.9V9.6h3c2.1,0,3.2,0.9,3.2,2.7c0,0.8-0.3,1.5-0.9,2.1c-0.7,0.5-1.6,0.8-2.4,0.8H416.5z
				 M416.5,11v2.6h0.7c1,0,1.5-0.4,1.5-1.3s-0.5-1.3-1.5-1.3H416.5z"/>
			<path class="st1" d="M421.4,18.1c-0.3,0-0.6-0.1-0.8-0.3c-0.2-0.2-0.3-0.4-0.3-0.7c0-0.3,0.1-0.5,0.3-0.7
				c0.2-0.2,0.5-0.3,0.8-0.3c0.3,0,0.6,0.1,0.8,0.3c0.2,0.2,0.3,0.4,0.3,0.7c0,0.3-0.1,0.5-0.3,0.7C422,18,421.7,18.1,421.4,18.1z"
				/>
			<path class="st1" d="M431.6,18h-1.9l-3.5-5.3c-0.2-0.3-0.3-0.6-0.4-0.7l0,0c0,0.3,0,0.8,0,1.4V18H424V9.6h2l3.3,5.1
				c0.1,0.2,0.3,0.5,0.4,0.7l0,0c0-0.4-0.1-0.8,0-1.1V9.6h1.8L431.6,18z"/>
			<path class="st1" d="M438.5,18h-5V9.6h4.9v1.5h-3V13h2.8v1.5h-2.8v1.9h3.1L438.5,18z"/>
			<path class="st1" d="M445.8,11.1h-2.4V18h-1.9v-6.9h-2.4V9.6h6.7L445.8,11.1z"/>
			<path class="st1" d="M401.6,32.1c-0.8,0.3-1.6,0.5-2.4,0.4c-1.1,0.1-2.2-0.4-3-1.1c-0.8-0.8-1.2-1.9-1.1-3
				c-0.1-1.2,0.4-2.4,1.2-3.3c0.9-0.9,2-1.3,3.2-1.3c0.7,0,1.4,0.1,2.1,0.3V26c-0.6-0.3-1.2-0.5-1.9-0.5c-0.7,0-1.4,0.2-1.9,0.8
				c-0.5,0.5-0.8,1.3-0.7,2c0,0.7,0.2,1.4,0.7,1.9c0.5,0.5,1.1,0.8,1.8,0.7c0.7,0,1.4-0.2,2-0.5L401.6,32.1z"/>
			<path class="st1" d="M405.6,32.5c-0.9,0-1.7-0.3-2.4-0.8c-0.6-0.6-0.9-1.4-0.9-2.3c-0.1-0.9,0.3-1.7,0.9-2.3
				c0.7-0.6,1.5-0.9,2.4-0.8c0.9,0,1.7,0.3,2.3,0.8c0.6,0.6,0.9,1.4,0.9,2.2c0.1,0.9-0.3,1.7-0.9,2.4
				C407.4,32.3,406.5,32.6,405.6,32.5z M405.7,27.7c-0.4,0-0.8,0.2-1,0.5c-0.3,0.4-0.4,0.8-0.4,1.3c0,1.1,0.5,1.7,1.4,1.7
				s1.3-0.6,1.3-1.8S406.6,27.7,405.7,27.7z"/>
			<path class="st1" d="M414,28.1c-0.2-0.1-0.5-0.2-0.8-0.2c-0.4,0-0.7,0.2-1,0.5c-0.2,0.4-0.4,0.8-0.3,1.2v2.9h-1.9v-6h1.9v1.1l0,0
				c0.2-0.7,0.8-1.2,1.6-1.2c0.2,0,0.3,0,0.5,0.1L414,28.1z"/>
			<path class="st1" d="M420.4,29.9h-3.9c0.1,0.9,0.6,1.3,1.6,1.3c0.6,0,1.2-0.2,1.7-0.5v1.3c-0.7,0.3-1.4,0.5-2.2,0.4
				c-1.5,0.2-2.9-1-3-2.5c0-0.2,0-0.4,0-0.6c0-0.9,0.3-1.7,0.9-2.4c0.6-0.6,1.3-0.9,2.1-0.9c0.7,0,1.5,0.2,2,0.8
				c0.5,0.6,0.8,1.3,0.7,2.1L420.4,29.9z M418.6,28.8c0-0.9-0.3-1.3-1-1.3c-0.3,0-0.6,0.1-0.8,0.4c-0.2,0.3-0.4,0.6-0.4,0.9
				L418.6,28.8z"/>
			<path class="st1" d="M435.9,24l-2.2,8.4h-2.1l-1.4-5.4c-0.1-0.3-0.1-0.6-0.1-0.9l0,0c0,0.3-0.1,0.6-0.1,0.9l-1.4,5.4h-2.2
				l-2.2-8.4h2.1l1.2,5.6c0.1,0.3,0.1,0.7,0.1,1l0,0c0-0.3,0.1-0.7,0.2-1l1.6-5.6h2l1.4,5.6c0.1,0.3,0.1,0.6,0.1,0.9l0,0
				c0-0.3,0.1-0.6,0.1-0.9L434,24H435.9z"/>
			<path class="st1" d="M441.9,29.9H438c0.1,0.9,0.6,1.3,1.6,1.3c0.6,0,1.2-0.2,1.7-0.5v1.3c-0.7,0.3-1.4,0.5-2.2,0.4
				c-1.5,0.2-2.9-1-3.1-2.5c0-0.2,0-0.4,0-0.6c0-0.9,0.3-1.7,0.9-2.4c0.6-0.6,1.3-0.9,2.1-0.9c0.7,0,1.5,0.2,2,0.8
				c0.5,0.6,0.8,1.3,0.7,2.1L441.9,29.9z M440.2,28.8c0-0.9-0.3-1.3-1-1.3c-0.3,0-0.6,0.1-0.8,0.4c-0.2,0.3-0.4,0.6-0.4,0.9
				L440.2,28.8z"/>
			<path class="st1" d="M444.9,31.7L444.9,31.7v0.7h-1.9v-8.9h1.9v3.8l0,0c0.4-0.7,1.2-1.1,2-1c0.7,0,1.4,0.3,1.8,0.8
				c0.5,0.6,0.7,1.4,0.6,2.2c0,0.9-0.2,1.7-0.7,2.4c-0.5,0.6-1.2,1-2,0.9C445.9,32.6,445.3,32.2,444.9,31.7z M444.9,29.2v0.6
				c0,0.4,0.1,0.7,0.3,1c0.2,0.3,0.5,0.4,0.9,0.4c0.4,0,0.8-0.2,1-0.5c0.3-0.4,0.4-0.9,0.4-1.4c0-0.4-0.1-0.8-0.3-1.2
				c-0.2-0.3-0.6-0.4-0.9-0.4c-0.4,0-0.7,0.1-0.9,0.4C445,28.4,444.9,28.8,444.9,29.2z"/>
			<path class="st1" d="M418.8,46.8h-2.1l-0.6-1.9h-3l-0.6,1.9h-2.1l3.1-8.4h2.3L418.8,46.8z M415.7,43.5l-0.9-2.8
				c-0.1-0.2-0.1-0.5-0.1-0.8h0c0,0.2-0.1,0.5-0.1,0.7l-0.9,2.8H415.7z"/>
			<path class="st1" d="M421.6,46.1L421.6,46.1v3.5h-1.9v-8.8h1.9v0.9l0,0c0.7-1.1,2.2-1.4,3.3-0.6c0.2,0.1,0.3,0.2,0.5,0.4
				c0.4,0.6,0.7,1.4,0.6,2.2c0.1,0.9-0.2,1.7-0.7,2.4c-0.5,0.6-1.2,0.9-2,0.9C422.6,46.9,421.9,46.6,421.6,46.1z M421.5,43.6v0.5
				c0,0.4,0.1,0.7,0.3,1c0.2,0.3,0.5,0.4,0.9,0.4c0.4,0,0.8-0.2,1-0.5c0.3-0.4,0.4-0.9,0.3-1.4c0-1.1-0.4-1.6-1.2-1.6
				c-0.4,0-0.7,0.2-0.9,0.4C421.6,42.8,421.5,43.2,421.5,43.6z"/>
			<path class="st1" d="M429,46.1L429,46.1v3.5h-1.9v-8.8h1.9v0.9l0,0c0.4-0.7,1.2-1,1.9-1c0.7,0,1.4,0.3,1.8,0.8
				c0.5,0.6,0.7,1.4,0.6,2.2c0,0.9-0.2,1.7-0.7,2.4c-0.5,0.6-1.2,0.9-2,0.9C430,47,429.3,46.7,429,46.1z M429,43.6v0.5
				c0,0.4,0.1,0.7,0.3,1c0.2,0.3,0.5,0.4,0.9,0.4c0.4,0,0.8-0.2,1-0.5c0.3-0.4,0.4-0.9,0.4-1.4c0-1.1-0.4-1.6-1.2-1.6
				c-0.4,0-0.7,0.1-0.9,0.4C429.1,42.8,429,43.2,429,43.6z"/>
		</g>
		<g>
			<path class="st9" d="M51.6,106.1l-2.2,8.4h-2.1l-1.4-5.4c-0.1-0.3-0.1-0.7-0.1-1l0,0c0,0.3-0.1,0.7-0.2,1l-1.4,5.4h-2.2l-2.2-8.4
				h2.1l1.2,5.6c0.1,0.3,0.1,0.7,0.1,1l0,0c0-0.3,0.1-0.7,0.2-1l1.5-5.6h2l1.4,5.6c0.1,0.3,0.1,0.6,0.1,0.9l0,0
				c0-0.3,0.1-0.6,0.1-0.9l1.2-5.6L51.6,106.1z"/>
			<path class="st9" d="M57.5,112h-3.9c0.1,0.9,0.6,1.3,1.6,1.3c0.6,0,1.2-0.1,1.7-0.5v1.3c-0.7,0.3-1.4,0.5-2.2,0.4
				c-0.8,0.1-1.6-0.2-2.3-0.8c-0.6-0.6-0.9-1.4-0.8-2.3c0-0.9,0.3-1.7,0.9-2.4c0.6-0.6,1.3-0.9,2.1-0.9c0.7,0,1.5,0.2,2,0.8
				c0.5,0.6,0.8,1.3,0.7,2.1L57.5,112z M55.8,110.9c0-0.9-0.3-1.3-1-1.3c-0.3,0-0.6,0.2-0.8,0.4c-0.2,0.3-0.4,0.6-0.4,0.9
				L55.8,110.9z"/>
			<path class="st9" d="M60.6,113.8L60.6,113.8v0.7h-1.9v-8.9h1.8v3.8l0,0c0.4-0.7,1.2-1.1,2-1.1c0.7,0,1.4,0.3,1.8,0.8
				c0.5,0.6,0.7,1.4,0.6,2.2c0,0.9-0.2,1.7-0.7,2.4c-0.5,0.6-1.2,0.9-2,0.9C61.5,114.7,60.9,114.3,60.6,113.8z M60.5,111.3v0.6
				c0,0.4,0.1,0.7,0.3,1c0.2,0.2,0.5,0.4,0.8,0.4c0.4,0,0.8-0.2,1-0.5c0.3-0.4,0.4-0.9,0.3-1.4c0-0.4-0.1-0.8-0.3-1.2
				c-0.2-0.3-0.6-0.4-0.9-0.4c-0.4,0-0.7,0.1-0.9,0.4C60.7,110.5,60.5,110.9,60.5,111.3z"/>
			<path class="st9" d="M32.3,128.2L32.3,128.2v0.7h-1.9V120h1.9v3.8l0,0c0.4-0.7,1.2-1,2-1c0.7,0,1.4,0.3,1.8,0.8
				c0.5,0.6,0.7,1.4,0.6,2.2c0,0.9-0.2,1.7-0.7,2.4c-0.5,0.5-1.2,0.9-1.9,0.8C33.3,129.1,32.7,128.8,32.3,128.2z M32.2,125.7v0.6
				c0,0.4,0.1,0.7,0.3,1c0.2,0.2,0.5,0.4,0.9,0.4c0.4,0,0.8-0.2,1-0.5c0.3-0.4,0.4-0.9,0.3-1.4c0-0.4-0.1-0.8-0.3-1.2
				c-0.2-0.3-0.6-0.4-0.9-0.4c-0.4,0-0.7,0.1-0.9,0.4C32.4,124.9,32.2,125.3,32.2,125.7z"/>
			<path class="st9" d="M41.8,124.6c-0.2-0.1-0.5-0.2-0.8-0.2c-0.4,0-0.7,0.1-0.9,0.4c-0.2,0.4-0.4,0.8-0.3,1.2v2.9h-1.9v-6h1.8v1.1
				l0,0c0.2-0.7,0.8-1.2,1.6-1.2c0.2,0,0.3,0,0.5,0.1L41.8,124.6z"/>
			<path class="st9" d="M45.6,129c-0.9,0-1.7-0.3-2.4-0.8c-1.2-1.3-1.2-3.3,0-4.6c0.7-0.6,1.5-0.9,2.4-0.8c0.9,0,1.7,0.3,2.3,0.8
				c0.6,0.6,0.9,1.4,0.8,2.2c0,0.9-0.3,1.7-0.9,2.4C47.3,128.7,46.5,129,45.6,129z M45.6,124.1c-0.4,0-0.8,0.2-1,0.4
				c-0.3,0.4-0.4,0.8-0.4,1.3c0,1.2,0.5,1.7,1.4,1.7s1.4-0.6,1.4-1.7S46.5,124.2,45.6,124.1L45.6,124.1z"/>
			<path class="st9" d="M58.6,122.9l-1.7,6h-2l-0.9-3.5c-0.1-0.2-0.1-0.5-0.1-0.8l0,0c0,0.2-0.1,0.5-0.1,0.7l-1,3.5h-1.9l-1.7-6h1.9
				l0.8,3.9c0,0.2,0.1,0.4,0.1,0.7l0,0c0-0.2,0.1-0.5,0.1-0.7l1-3.9H55l0.9,3.9c0,0.1,0,0.3,0.1,0.7l0,0c0-0.2,0.1-0.5,0.1-0.7
				l0.8-3.9L58.6,122.9z"/>
			<path class="st9" d="M59.1,128.7v-1.5c0.3,0.2,0.6,0.3,0.9,0.4c0.3,0.1,0.6,0.1,0.9,0.1c0.3,0,0.5,0,0.8-0.1
				c0.2-0.1,0.3-0.2,0.3-0.4c0-0.1,0-0.2-0.1-0.3c-0.1-0.1-0.2-0.2-0.3-0.2c-0.1-0.1-0.3-0.1-0.4-0.2c-0.2,0-0.3-0.1-0.5-0.2
				c-0.2-0.1-0.4-0.2-0.6-0.3c-0.2-0.1-0.3-0.2-0.5-0.4c-0.1-0.1-0.2-0.3-0.3-0.5c-0.1-0.2-0.1-0.4-0.1-0.6c0-0.3,0.1-0.6,0.2-0.9
				c0.1-0.2,0.3-0.4,0.6-0.6c0.3-0.2,0.5-0.3,0.8-0.3c0.3-0.1,0.7-0.1,1-0.1c0.3,0,0.5,0,0.8,0.1c0.3,0,0.5,0.1,0.8,0.2v1.4
				c-0.2-0.1-0.5-0.2-0.8-0.3c-0.3-0.1-0.5-0.1-0.8-0.1c-0.1,0-0.2,0-0.3,0l-0.3,0.1c-0.1,0-0.1,0.1-0.2,0.2c0,0.1-0.1,0.1-0.1,0.2
				c0,0.1,0,0.2,0.1,0.3c0.1,0.1,0.2,0.1,0.3,0.2c0.1,0.1,0.2,0.1,0.4,0.2l0.4,0.1c0.2,0.1,0.5,0.2,0.7,0.3c0.2,0.1,0.4,0.2,0.5,0.4
				c0.1,0.1,0.3,0.3,0.3,0.5c0.1,0.2,0.1,0.4,0.1,0.7c0,0.3-0.1,0.6-0.2,0.9c-0.2,0.2-0.4,0.5-0.6,0.6c-0.3,0.2-0.6,0.3-0.9,0.4
				c-0.3,0.1-0.7,0.1-1,0.1C60.3,129,59.7,128.9,59.1,128.7z"/>
			<path class="st9" d="M70.2,126.4h-3.9c0.1,0.9,0.6,1.3,1.7,1.3c0.6,0,1.2-0.1,1.7-0.5v1.3c-0.7,0.3-1.4,0.5-2.2,0.4
				c-0.8,0.1-1.7-0.2-2.3-0.8c-0.6-0.6-0.8-1.4-0.8-2.3c0-0.9,0.3-1.7,0.9-2.4c0.6-0.6,1.3-0.9,2.1-0.9c0.7,0,1.5,0.2,2,0.8
				c0.5,0.6,0.8,1.3,0.7,2.1L70.2,126.4z M68.5,125.3c0-0.9-0.3-1.3-1-1.3c-0.3,0-0.6,0.1-0.8,0.4c-0.2,0.3-0.4,0.6-0.4,0.9H68.5z"
				/>
			<path class="st9" d="M75.3,124.6c-0.2-0.1-0.5-0.2-0.8-0.2c-0.4,0-0.7,0.1-0.9,0.4c-0.2,0.4-0.4,0.8-0.3,1.2v2.9h-1.9v-6h1.8v1.1
				l0,0c0.2-0.7,0.8-1.2,1.6-1.2c0.2,0,0.3,0,0.5,0.1L75.3,124.6z"/>
		</g>
		<g>
			<polygon class="st8" points="191.2,150.2 183.7,155.7 186.6,164.5 195.9,164.5 198.8,155.7 			"/>
			<g>
				<path class="st9" d="M211.1,161.8H210l-0.9-2.4h-3.6l-0.8,2.4h-1.1l3.2-8.4h1L211.1,161.8z M208.8,158.6l-1.3-3.6
					c-0.1-0.2-0.1-0.4-0.1-0.6l0,0c0,0.2-0.1,0.4-0.1,0.6l-1.3,3.6L208.8,158.6z"/>
				<path class="st9" d="M216.1,161.5c-0.5,0.3-1.1,0.4-1.6,0.4c-0.8,0-1.5-0.3-2.1-0.8c-0.5-0.6-0.8-1.4-0.8-2.2
					c0-0.9,0.3-1.7,0.9-2.4c0.6-0.6,1.4-0.9,2.3-0.9c0.5,0,1,0.1,1.4,0.3v1c-0.4-0.3-0.9-0.5-1.4-0.5c-0.6,0-1.1,0.2-1.5,0.7
					c-0.4,0.5-0.6,1.1-0.6,1.7c0,0.6,0.2,1.2,0.6,1.7c0.4,0.4,0.9,0.6,1.5,0.6c0.5,0,1.1-0.2,1.5-0.5V161.5z"/>
				<path class="st9" d="M221.6,161.5c-0.5,0.3-1.1,0.4-1.6,0.4c-0.8,0-1.5-0.3-2.1-0.8c-0.5-0.6-0.8-1.4-0.8-2.2
					c0-0.9,0.3-1.7,0.9-2.4c0.6-0.6,1.4-0.9,2.3-0.9c0.5,0,1,0.1,1.4,0.3v1c-0.4-0.3-0.9-0.5-1.4-0.5c-0.6,0-1.1,0.2-1.5,0.7
					c-0.4,0.5-0.6,1.1-0.6,1.7c0,0.6,0.2,1.2,0.6,1.7c0.4,0.4,0.9,0.6,1.5,0.6c0.5,0,1.1-0.2,1.5-0.5L221.6,161.5z"/>
				<path class="st9" d="M227.7,159.1h-4.2c0,0.6,0.2,1.1,0.5,1.6c0.4,0.4,0.9,0.6,1.4,0.6c0.7,0,1.3-0.2,1.9-0.7v0.9
					c-0.6,0.4-1.4,0.6-2.1,0.6c-0.8,0-1.5-0.3-2-0.8c-0.5-0.7-0.8-1.5-0.7-2.3c0-0.8,0.2-1.7,0.8-2.3c0.5-0.6,1.2-0.9,2-0.9
					c0.7,0,1.4,0.2,1.8,0.8c0.5,0.6,0.7,1.4,0.6,2.1L227.7,159.1z M226.7,158.2c0-0.5-0.1-0.9-0.4-1.3c-0.3-0.3-0.7-0.5-1.1-0.5
					c-0.4,0-0.9,0.2-1.1,0.5c-0.3,0.3-0.5,0.8-0.6,1.3H226.7z"/>
				<path class="st9" d="M228.8,161.6v-1c0.5,0.4,1.1,0.6,1.7,0.6c0.8,0,1.3-0.3,1.3-0.9c0-0.1,0-0.3-0.1-0.4
					c-0.1-0.1-0.2-0.2-0.3-0.3c-0.1-0.1-0.3-0.2-0.4-0.2l-0.5-0.2c-0.2-0.1-0.5-0.2-0.7-0.3c-0.2-0.1-0.4-0.2-0.5-0.4
					c-0.1-0.1-0.2-0.3-0.3-0.5c-0.1-0.2-0.1-0.4-0.1-0.6c0-0.3,0.1-0.5,0.2-0.8c0.1-0.2,0.3-0.4,0.5-0.6c0.2-0.1,0.5-0.3,0.7-0.3
					c0.3-0.1,0.6-0.1,0.9-0.1c0.5,0,1,0.1,1.4,0.3v1c-0.5-0.3-1-0.4-1.5-0.4c-0.2,0-0.3,0-0.5,0.1c-0.1,0-0.3,0.1-0.4,0.2
					c-0.1,0.1-0.2,0.2-0.2,0.3c-0.1,0.1-0.1,0.2-0.1,0.3c0,0.1,0,0.3,0.1,0.4c0.1,0.1,0.1,0.2,0.3,0.3c0.1,0.1,0.3,0.2,0.4,0.2
					l0.5,0.2c0.2,0.1,0.5,0.2,0.7,0.3c0.2,0.1,0.4,0.2,0.5,0.4c0.1,0.1,0.3,0.3,0.3,0.5c0.1,0.2,0.1,0.4,0.1,0.6
					c0,0.3-0.1,0.5-0.2,0.8c-0.1,0.2-0.3,0.4-0.5,0.6c-0.2,0.1-0.5,0.3-0.8,0.3c-0.3,0.1-0.6,0.1-0.9,0.1
					C229.8,162,229.3,161.9,228.8,161.6z"/>
				<path class="st9" d="M233.9,161.6v-1c0.5,0.4,1.1,0.6,1.7,0.6c0.9,0,1.3-0.3,1.3-0.9c0-0.1,0-0.3-0.1-0.4
					c-0.1-0.1-0.2-0.2-0.3-0.3c-0.1-0.1-0.3-0.2-0.4-0.2l-0.5-0.2c-0.2-0.1-0.5-0.2-0.7-0.3c-0.2-0.1-0.4-0.2-0.5-0.4
					c-0.1-0.1-0.2-0.3-0.3-0.5c-0.1-0.2-0.1-0.4-0.1-0.6c0-0.3,0.1-0.5,0.2-0.8c0.1-0.2,0.3-0.4,0.5-0.6c0.2-0.1,0.5-0.3,0.7-0.3
					c0.7-0.2,1.5-0.1,2.3,0.2v1c-0.5-0.3-1-0.4-1.5-0.4c-0.2,0-0.3,0-0.5,0.1c-0.1,0-0.3,0.1-0.4,0.2c-0.1,0.1-0.2,0.2-0.3,0.3
					c-0.1,0.1-0.1,0.2-0.1,0.3c0,0.1,0,0.3,0.1,0.4c0.1,0.1,0.1,0.2,0.3,0.3c0.1,0.1,0.3,0.2,0.4,0.2l0.5,0.2
					c0.2,0.1,0.5,0.2,0.7,0.3c0.2,0.1,0.4,0.2,0.5,0.4c0.1,0.1,0.3,0.3,0.3,0.5c0.1,0.2,0.1,0.4,0.1,0.6c0,0.3-0.1,0.5-0.2,0.8
					c-0.1,0.2-0.3,0.4-0.5,0.6c-0.2,0.1-0.5,0.3-0.8,0.3c-0.3,0.1-0.6,0.1-0.9,0.1C234.9,162,234.4,161.9,233.9,161.6z"/>
				<path class="st9" d="M245.4,161.8c-0.3,0.1-0.6,0.2-0.9,0.2c-1.1,0-1.6-0.6-1.6-1.8v-3.6h-1v-0.8h1v-1.5l1-0.3v1.8h1.5v0.8h-1.5
					v3.4c0,0.3,0,0.6,0.2,0.9c0.2,0.2,0.4,0.3,0.7,0.3c0.2,0,0.4-0.1,0.6-0.2L245.4,161.8z"/>
				<path class="st9" d="M249.1,162c-0.8,0-1.6-0.3-2.1-0.8c-0.5-0.6-0.8-1.4-0.8-2.2c0-0.9,0.3-1.7,0.8-2.4
					c0.6-0.6,1.4-0.9,2.2-0.9c0.8,0,1.5,0.3,2.1,0.8c0.5,0.6,0.8,1.5,0.8,2.3c0,0.8-0.3,1.7-0.8,2.3
					C250.7,161.7,249.9,162,249.1,162z M249.1,156.5c-0.6,0-1.1,0.2-1.5,0.6c-0.4,0.5-0.6,1.1-0.5,1.7c0,0.6,0.2,1.2,0.6,1.7
					c0.4,0.4,0.9,0.6,1.5,0.6c0.5,0,1.1-0.2,1.4-0.6c0.4-0.5,0.5-1.1,0.5-1.7c0-0.6-0.1-1.2-0.5-1.7
					C250.2,156.7,249.7,156.5,249.1,156.5L249.1,156.5z"/>
				<path class="st9" d="M258.5,161.8h-1.4l-2.6-2.9l0,0v2.9h-1v-8.9h1v5.6l0,0l2.5-2.8h1.3l-2.8,2.9L258.5,161.8z"/>
				<path class="st9" d="M264,159.1h-4.2c0,0.6,0.2,1.1,0.5,1.6c0.4,0.4,0.9,0.6,1.4,0.6c0.7,0,1.3-0.2,1.9-0.7v0.9
					c-0.6,0.4-1.4,0.6-2.1,0.6c-0.8,0-1.5-0.3-2-0.8c-0.5-0.6-0.8-1.5-0.7-2.3c0-0.8,0.3-1.7,0.8-2.3c0.5-0.6,1.2-0.9,2-0.9
					c0.7,0,1.4,0.2,1.8,0.8c0.5,0.6,0.7,1.4,0.6,2.1L264,159.1z M263,158.2c0-0.5-0.1-0.9-0.4-1.3c-0.3-0.3-0.7-0.5-1.1-0.5
					c-0.4,0-0.9,0.2-1.1,0.5c-0.3,0.3-0.5,0.8-0.6,1.3H263z"/>
				<path class="st9" d="M270.5,161.8h-1v-3.4c0-1.3-0.5-1.9-1.4-1.9c-0.5,0-0.9,0.2-1.2,0.5c-0.3,0.4-0.5,0.9-0.5,1.4v3.4h-1v-6h1
					v1l0,0c0.4-0.7,1.2-1.2,2-1.1c0.6,0,1.1,0.2,1.5,0.6c0.4,0.5,0.6,1.2,0.5,1.8L270.5,161.8z"/>
			</g>
		</g>
		
			<use xlink:href="#New_Symbol_45"  width="20" height="20" x="-10" y="-10" transform="matrix(1 0 0 1 168.55 169.2)" style="overflow:visible;"/>
	</g>
</g>
<g id="bg">
	<g id="Shapes_1_">
		<rect class="st1" width="492.8" height="180.1"/>
		<rect y="0.2" class="st4" width="105" height="155"/>
		<rect x="369.7" y="59.8" class="st5" width="105" height="95"/>
		<rect x="369.7" y="-0.2" class="st6" width="105" height="55"/>
		<g>
			<line class="st7" x1="104.6" y1="14.8" x2="364.2" y2="14.8"/>
			<polygon points="363.1,18.5 369.5,14.8 363.1,11 			"/>
		</g>
		<g>
			<line class="st7" x1="110" y1="44.7" x2="369.5" y2="44.7"/>
			<polygon points="111.1,48.4 104.6,44.7 111.1,40.9 			"/>
		</g>
		<g>
			<line class="st7" x1="104.6" y1="85.2" x2="364.2" y2="85.2"/>
			<polygon points="363.1,89 369.5,85.2 363.1,81.5 			"/>
		</g>
		<g>
			<line class="st7" x1="110" y1="135.9" x2="369.5" y2="135.9"/>
			<polygon points="111.1,139.6 104.6,135.9 111.1,132.1 			"/>
		</g>
		<g>
			<path class="st7" d="M50.5,155.2v7.3c0,4,4.5,7.3,10,7.3l419.1,0.8c5.5,0,10-4.5,10-10V30.3c-0.1-1.5-1.3-2.6-2.8-2.5H480"/>
			<polygon points="481.1,24 474.6,27.8 481.1,31.5 			"/>
		</g>
		<path d="M80.2,38.1c-6.6-8.6-16.9-13.7-27.7-13.7c-7.7,0-15.2,2.6-21.3,7.2c-15.3,11.7-18.2,33.7-6.5,49
			c6.6,8.6,16.9,13.7,27.7,13.7c7.7,0,15.2-2.6,21.3-7.2C89.1,75.4,92,53.5,80.4,38.2C80.3,38.2,80.3,38.1,80.2,38.1z M81.9,67.3
			c-1.2-0.9-3-2.3-5.3-4.1c0.8-2.1,0.5-4.5-0.8-6.4c-2.1-2.6-5.7-3.2-8.6-1.5c-3.1-2.7-6.4-5.9-10-9.4c10.7-5.9,18.6-5.2,19.1-5.1
			l0.3,0.4C82.4,48.5,84.3,58.2,81.9,67.3z M62.7,75.5c-0.2-0.9-0.6-1.7-1.1-2.4c-1.9-2.5-5.4-3.1-8-1.4c-2.9-1.6-5.6-3.4-8.2-5.4
			l-0.7-0.6c1.2-3,0.7-6.4-1.3-9c0-0.1-0.1-0.1-0.2-0.2c0.6-0.6,1.2-1.3,1.9-1.9c2.5-2.4,5.1-4.5,8-6.5l0,0h0.1l-0.1,0.1
			c3.7,3.5,7.8,6.8,11.6,9.8c-1,2.2-0.8,4.7,0.6,6.7c2.2,2.9,6.3,3.4,9.2,1.3c0.1-0.1,0.3-0.2,0.4-0.4c2.7,1.9,4.9,3.4,6.1,4.2
			c-0.9,2.4-2,4.6-3.4,6.7C75.6,76.9,70.1,77.6,62.7,75.5z M72.1,36.2c-7-1-14.1,0.4-20.3,3.8c-2.8-2.9-5.7-6.2-8.6-9.5
			C53.1,27.2,64.1,29.4,72.1,36.2z M34,35.3c1.6-1.2,3.3-2.3,5.1-3.2c2.4,3.7,5.1,7.2,8.2,10.4c-3.1,2.1-5.9,4.6-8.4,7.3
			c-1,1.1-1.9,2.2-2.8,3.3c-1.5,0-3,0.3-4.3,1c-2.4-4-3.6-8.7-3.4-13.4C30.1,38.7,31.9,36.8,34,35.3z M24.9,46.5c0,4,1,8,3.1,11.5
			c-1.7,3.2-1.4,7.1,0.8,10l0,0c-0.7,2.8-1.2,5.7-1.4,8.7C21.3,67.8,20.3,56.3,24.9,46.5z M52.5,89.8c-7.1,0-14-2.5-19.5-7.1
			c0-3.8,0.5-7.6,1.5-11.3c2.4,0.4,4.9-0.1,6.9-1.5l0.8,0.6c2.7,2.1,5.6,4,8.6,5.5c-0.2,1.6,0.2,3.2,1.2,4.5c2,2.7,5.8,3.2,8.5,1.2
			c0.6-0.5,1.1-1,1.5-1.7c3.9,0.8,7.8,1.2,11.7,1.2c-0.9,0.8-1.8,1.6-2.7,2.3C65.7,87.7,59.2,89.9,52.5,89.8z"/>
		
			<use xlink:href="#New_Symbol_44"  width="20" height="20" x="-10" y="-10" transform="matrix(1 0 0 1 168.55 135.79)" style="overflow:visible;"/>
		
			<use xlink:href="#New_Symbol_43"  width="20" height="20" x="-10" y="-10" transform="matrix(1 0 0 1 168.55 87.2)" style="overflow:visible;"/>
		
			<use xlink:href="#New_Symbol_41"  width="20" height="20" x="-10" y="-10" transform="matrix(1 0 0 1 168.55 14.2)" style="overflow:visible;"/>
		
			<use xlink:href="#New_Symbol_42"  width="20" height="20" x="-10" y="-10" transform="matrix(1 0 0 1 168.55 44.09)" style="overflow:visible;"/>
	</g>
	<g id="Text_1_">
		<polygon class="st8" points="192.2,105.7 184.6,111.2 187.5,120 196.9,120 199.8,111.2 		"/>
		<polygon class="st8" points="191.2,150.2 183.7,155.7 186.6,164.5 195.9,164.5 198.8,155.7 		"/>
		
			<use xlink:href="#New_Symbol_45"  width="20" height="20" x="-10" y="-10" transform="matrix(1 0 0 1 168.55 169.2)" style="overflow:visible;"/>
	</g>
</g>
<g id="txt">
	<g>
		<rect x="20.1" y="105.8" class="st10" width="64.5" height="30.5"/>
		<path class="st11" d="M23.1,111.8V110L21,110l-0.2-1.1c2.8,0,4.7-0.1,5.8-0.2l0.1,1.1l-2.2,0.1v1.8H23.1z M23.8,108.4
			c-0.7,0-1.3-0.2-1.8-0.5s-0.7-0.7-0.7-1.3c0-0.5,0.2-0.9,0.7-1.2s1-0.5,1.7-0.5c0.7,0,1.3,0.2,1.8,0.5s0.7,0.7,0.7,1.3
			c0,0.5-0.2,0.9-0.7,1.2S24.5,108.4,23.8,108.4z M23.8,106c-0.3,0-0.6,0.1-0.8,0.2s-0.3,0.3-0.3,0.5c0,0.2,0.1,0.4,0.3,0.5
			s0.5,0.2,0.8,0.2s0.6-0.1,0.8-0.2s0.3-0.3,0.3-0.5C24.9,106.2,24.5,106,23.8,106z M23.1,115.8v-3.7h1.5v0.7h4.7v-0.7h1.5v3.7H23.1
			z M29.3,114h-4.7v0.6h4.7V114z M27.1,111.8v-0.4h-1.7v-1h1.7v-5.5h1.4v6.9H27.1z M29.3,111.8v-7.1h1.5v7.1H29.3z"/>
		<path class="st11" d="M37.2,114.3v-1.2h10.5v1.2H37.2z M38.8,111.1v-5.6h1.5v1.7h4.4v-1.7h1.5v5.6H38.8z M44.7,108.5h-4.4v1.5h4.4
			V108.5z"/>
		<path class="st11" d="M56.3,113.1c-1.1,0.2-3.3,0.3-6.5,0.3v-4.7h3.9v-1.9h-3.9v-1.2h5.3v4.4h-3.9v2.3c2.3,0,3.9-0.1,4.8-0.3
			L56.3,113.1z M58.3,110.2v5.7h-1.5v-11.3h1.5v4.3h1.8v1.2H58.3z"/>
		<path class="st11" d="M67.2,112.1v3.8h-1.5v-3.8h-4.5v-1.2h10.5v1.2H67.2z M66.5,110c-1.2,0-2.1-0.2-2.8-0.7s-1-1.1-1-1.9
			c0-0.8,0.3-1.4,1-1.8s1.6-0.7,2.7-0.7c1.2,0,2.1,0.2,2.8,0.7s1,1.1,1,1.9c0,0.8-0.3,1.4-1,1.9S67.6,110,66.5,110z M66.5,106
			c-0.7,0-1.3,0.1-1.7,0.4s-0.6,0.6-0.6,1c0,0.4,0.2,0.8,0.6,1s0.9,0.4,1.7,0.4c0.7,0,1.3-0.1,1.7-0.4s0.6-0.6,0.6-1s-0.2-0.8-0.6-1
			S67.2,106,66.5,106z"/>
		<path class="st11" d="M79.2,113.2c-1.1-0.8-2-1.7-2.5-2.7c-0.8,1.3-1.6,2.3-2.5,2.9l-1.1-0.9c0.7-0.4,1.4-1,2-1.8s0.9-1.7,0.9-2.5
			v-1.2h-2.4v-1.2h6.3v1.2h-2.4v1.2c0,0.8,0.3,1.6,0.9,2.4s1.2,1.3,1.9,1.7L79.2,113.2z M81.5,116v-6.3h-2.3v-1.2h2.3v-3.8h1.4V116
			H81.5z"/>
	</g>
	<g>
		<g>
			<path class="st12" d="M191.7,65.7c-0.6-0.4-1.1-1-1.6-1.7s-0.9-1.3-1.1-1.9c-0.2,0.5-0.5,1.2-1,1.9s-1.1,1.3-1.7,1.8l-0.7-0.6
				c0.8-0.5,1.5-1.3,2.1-2.3s0.8-1.9,0.8-2.9V59h-2.5v-0.8h5.8V59h-2.5v1.1c0,0.9,0.3,1.8,0.8,2.8s1.2,1.7,2,2.2L191.7,65.7z
				 M194.4,62.6v5.9h-0.9V57.2h0.9v4.6h2v0.8H194.4z"/>
			<path class="st12" d="M203.5,57.8c0,1.2-0.5,2.4-1.4,3.5s-2.2,2-3.7,2.6l-0.6-0.7c1.3-0.4,2.3-1,3.2-1.9s1.4-1.8,1.5-2.7h-4v-0.8
				H203.5z M206,68.5v-3.6h-6.4v-0.8h7.3v4.4H206z M206,63.5v-1.3h-2.4v-0.8h2.4v-1.6h-2.3V59h2.3v-1.8h0.9v6.3H206z"/>
			<path class="st12" d="M213.6,63.1v-0.8h10.5v0.8H213.6z M223.1,61.3c-0.9-0.1-1.8-0.4-2.6-0.8s-1.4-0.9-1.7-1.3
				c-0.3,0.4-0.9,0.9-1.7,1.3s-1.6,0.7-2.5,0.8l-0.5-0.7c1-0.1,1.9-0.3,2.7-0.8s1.3-1,1.5-1.5h-3.6v-0.8h8.2v0.8h-3.6
				c0.2,0.5,0.7,1,1.5,1.5s1.7,0.7,2.7,0.8L223.1,61.3z M218.8,68.4c-1.2,0-2.1-0.2-2.7-0.6s-0.9-0.9-0.9-1.6c0-0.6,0.3-1.2,0.9-1.5
				s1.5-0.6,2.7-0.6s2.1,0.2,2.7,0.6s0.9,0.9,0.9,1.5c0,0.7-0.3,1.2-0.9,1.6S220,68.4,218.8,68.4z M218.8,64.9c-0.9,0-1.6,0.1-2,0.4
				s-0.7,0.6-0.7,1c0,0.4,0.2,0.8,0.7,1s1.1,0.4,2,0.4c0.9,0,1.6-0.1,2-0.4s0.7-0.6,0.7-1c0-0.4-0.2-0.8-0.7-1
				S219.7,64.9,218.8,64.9z"/>
			<path class="st12" d="M226.6,63.1v-5.4h5.2v1.1h2.2v-1.6h0.9v6.9H234V62h-2.2v1.1H226.6z M230.9,58.5h-3.5v3.8h3.5V58.5z
				 M231.3,68.4c-1.2,0-2.1-0.2-2.7-0.6s-1-0.9-1-1.6s0.3-1.2,1-1.6s1.6-0.6,2.7-0.6s2.1,0.2,2.7,0.6s1,0.9,1,1.6s-0.3,1.2-1,1.6
				S232.5,68.4,231.3,68.4z M231.3,64.7c-0.9,0-1.6,0.1-2.1,0.4s-0.7,0.6-0.7,1s0.2,0.8,0.7,1s1.2,0.4,2,0.4c0.9,0,1.6-0.1,2-0.4
				s0.7-0.6,0.7-1s-0.2-0.8-0.7-1S232.2,64.7,231.3,64.7z M231.8,61.2h2.2v-1.6h-2.2V61.2z"/>
			<path class="st12" d="M185.6,79.7v-0.8h10.5v0.8H185.6z M193.2,75.8h1.9v0.8h-8.5v-0.8h1.9l-0.1-3.2h0.9l0.1,3.2h3l0.2-3.2h0.9
				L193.2,75.8z M186.7,71.3h8.3v0.8h-8.3V71.3z"/>
			<path class="st12" d="M197.5,76.9v-0.8h4.8v-1.2h-3v-2.7h6.1v-1.1h-6.1v-0.8h7V73h-6.1v1.1h6.4v0.8h-3.3v1.2h4.8v0.8H197.5z
				 M199.2,81.3v-3.5h7v3.5H199.2z M205.4,78.6h-5.3v1.9h5.3V78.6z"/>
			<path class="st12" d="M209.4,79.7v-0.8h10.5v0.8H209.4z M217,75.8h1.9v0.8h-8.5v-0.8h1.9l-0.1-3.2h0.9l0.1,3.2h3l0.2-3.2h0.9
				L217,75.8z M210.6,71.3h8.3v0.8h-8.3V71.3z"/>
			<path class="st12" d="M221.4,79.7v-0.8h10.5v0.8H221.4z M230.2,72.1h-6.3v1.6h6v0.8h-6V76h6.5v0.8h-7.4v-5.5h7.2V72.1z"/>
		</g>
	</g>
	<g>
		<g>
			<path class="st12" d="M206.7,112.4c-0.7,0-1.3-0.2-1.8-0.7s-0.7-1.1-0.7-2c0-0.8,0.2-1.5,0.7-2s1.1-0.7,1.8-0.7s1.3,0.2,1.8,0.7
				s0.7,1.1,0.7,2c0,0.8-0.2,1.5-0.7,2S207.5,112.4,206.7,112.4z M206.7,107.7c-0.5,0-0.9,0.2-1.2,0.5s-0.5,0.8-0.5,1.4
				c0,0.6,0.2,1.1,0.5,1.4s0.7,0.5,1.2,0.5s0.9-0.2,1.2-0.5s0.5-0.8,0.5-1.4s-0.2-1.1-0.5-1.4S207.2,107.7,206.7,107.7z
				 M212.5,117.9v-3.6H206v-0.8h7.4v4.3H212.5z M212.5,112.9v-2.6h-1.3v2.6h-0.9v-6.1h0.9v2.8h1.3v-3h0.9v6.3H212.5z"/>
			<path class="st12" d="M220.9,115.2c-1-1-1.7-2.2-2.1-3.5c-0.1,0.6-0.4,1.2-0.9,1.9s-0.9,1.3-1.4,1.8l-0.7-0.6
				c0.7-0.5,1.3-1.2,1.8-2.2s0.8-2,0.8-3v-2.2h0.9v2.2c0,0.9,0.2,1.9,0.7,2.8s1,1.7,1.6,2.2L220.9,115.2z M222.4,117.5v-6.3h-2v-0.8
				h2v-3.7h0.9v10.7H222.4z M224.5,117.9v-11.3h0.9v11.3H224.5z"/>
			<path class="st12" d="M238.2,116h-10.5v-0.8h10.5V116z M233,109.5c-0.3,0.6-0.8,1.2-1.6,1.8s-1.7,1-2.6,1.3l-0.6-0.7
				c1.3-0.3,2.4-0.8,3.2-1.6s1.2-1.5,1.2-2.2v-0.6h0.9v0.6c0,0.7,0.4,1.4,1.2,2.2s1.8,1.3,3.2,1.6l-0.6,0.7
				c-0.9-0.3-1.8-0.7-2.6-1.3S233.3,110.1,233,109.5z"/>
			<path class="st12" d="M243.9,116.2v-0.8h4.8V113h-3.1v-5.4h7.2v0.8h-6.4v1.5h6.2v0.8h-6.2v1.6h6.6v0.8h-3.4v2.4h4.8v0.8H243.9z"
				/>
			<path class="st12" d="M255.9,112.7v-0.8h8c0-0.3,0.1-0.9,0.1-1.9l-6.6,0.3l-0.2-0.8l6.8-0.3l0-0.8v-0.6h-6.3v-0.8h7.2
				c0,2.2,0,3.8-0.1,4.8h1.7v0.8H255.9z M257.7,117.5v-3.6h0.9v2.8h6.3v0.8H257.7z"/>
			<path class="st12" d="M210.1,127.1h-2.4v2.4h-0.8v-2.4h-2.4v-0.8h2.4v-2.4h0.8v2.4h2.4V127.1z"/>
			<path class="st12" d="M217.2,129v-4.5h4.3v-2.6h-4.3v-0.8h5.2v4.1h-4.3v2.9c2.8,0,4.6-0.1,5.4-0.2l0.1,0.8
				C222.7,128.9,220.5,129,217.2,129z M224.8,131.4v-11.3h0.9v11.3H224.8z"/>
			<path class="st12" d="M235.6,128.2c-0.6,0.1-1.3,0.1-2.1,0.1s-2.1,0-4,0v-7.2h5.4v0.8h-4.6v5.7c2.8,0,4.5,0,5.1-0.1L235.6,128.2z
				 M236.9,131.4v-11.3h0.9v11.3H236.9z"/>
			<path class="st12" d="M245.7,126c-0.6,0.1-1.2,0.1-1.6,0.1s-1.4,0-2.9,0v-3.2h3.1v-1.6h-3.1v-0.8h3.9v3.1H242v1.7h0.9
				c1.2,0,2.1,0,2.7-0.1L245.7,126z M249.1,131.4v-3.3h-6.6v-0.8h7.4v4.1H249.1z M247.1,126.7v-2.9h-1.5V123h1.5v-2.7h0.9v6.4H247.1
				z M249.1,126.7v-6.6h0.9v6.6H249.1z"/>
			<path class="st12" d="M258.4,126.5c-0.6-0.3-1.1-0.8-1.6-1.3s-0.9-1-1.1-1.5c-0.2,0.5-0.6,1.1-1.1,1.7s-1.1,1.1-1.6,1.4l-0.6-0.6
				c0.8-0.4,1.5-1,2-1.8s0.8-1.6,0.8-2.4v-1.5h0.9v1.5c0,0.8,0.3,1.5,0.9,2.3s1.2,1.3,2,1.6L258.4,126.5z M254.6,131v-3.6h0.9v2.8
				h6.4v0.8H254.6z M258.5,124.6v-0.8h2.2v-1.3h-2.2v-0.8h2.2v-1.7h0.9v8.3h-0.9v-3.8H258.5z"/>
			<path class="st12" d="M275.1,126.9c0,2.4-1.1,3.6-3.3,3.6c-2.1,0-3.1-1.2-3.1-3.5v-5.3h0.9v5.2c0,1.8,0.8,2.7,2.3,2.7
				c1.5,0,2.2-0.9,2.2-2.6v-5.3h0.9V126.9z"/>
			<path class="st12" d="M283.4,130.3h-1.1l-1.4-2.4c-0.3-0.5-0.6-0.9-0.8-1s-0.5-0.2-0.9-0.2h-0.9v3.7h-0.9v-8.6h2.5
				c0.8,0,1.4,0.2,1.9,0.6s0.7,1,0.7,1.7c0,1.2-0.6,2-1.9,2.3v0c0.2,0.1,0.4,0.2,0.6,0.4s0.4,0.5,0.7,1L283.4,130.3z M278.2,122.6
				v3.2h1.4c0.5,0,1-0.2,1.3-0.5s0.5-0.7,0.5-1.2c0-0.5-0.2-0.8-0.5-1.1s-0.7-0.4-1.3-0.4H278.2z"/>
			<path class="st12" d="M289,130.3h-4.4v-8.6h0.9v7.8h3.5V130.3z"/>
		</g>
	</g>
	<g>
		<rect x="390.2" y="87.6" class="st10" width="64.5" height="60.7"/>
		<path class="st13" d="M403.9,96.7v-5.3c0-0.4,0-1,0.1-1.8h0c-0.1,0.5-0.2,0.8-0.3,1.1l-2.3,6.1h-1.3l-2.3-6
			c-0.1-0.2-0.1-0.5-0.3-1.1h0c0,0.6,0.1,1.3,0.1,2.1v5.1h-1.5v-8.6h2.4l2,5.4c0.2,0.4,0.3,0.8,0.3,1.2h0c0.1-0.3,0.2-0.7,0.4-1.2
			l2-5.4h2.3v8.6H403.9z"/>
		<path class="st13" d="M407.3,88.5c0-0.3,0.1-0.5,0.3-0.6s0.4-0.3,0.7-0.3c0.3,0,0.5,0.1,0.7,0.2s0.3,0.4,0.3,0.6s-0.1,0.5-0.3,0.6
			s-0.4,0.3-0.7,0.3s-0.5-0.1-0.7-0.3S407.3,88.8,407.3,88.5z M407.4,96.7v-6.2h1.6v6.2H407.4z"/>
		<path class="st13" d="M415.3,96.5c-0.4,0.3-1,0.4-1.8,0.4c-0.9,0-1.7-0.3-2.2-0.9s-0.9-1.3-0.9-2.2c0-1,0.3-1.9,0.9-2.5
			s1.4-0.9,2.5-0.9c0.7,0,1.2,0.1,1.5,0.3v1.4c-0.4-0.3-0.9-0.5-1.4-0.5c-0.6,0-1,0.2-1.4,0.5s-0.5,0.8-0.5,1.5
			c0,0.6,0.2,1.1,0.5,1.4s0.8,0.5,1.3,0.5c0.5,0,1-0.2,1.4-0.5V96.5z"/>
		<path class="st13" d="M420.4,92.1c-0.2-0.1-0.5-0.2-0.8-0.2c-0.4,0-0.7,0.2-1,0.5s-0.4,0.8-0.4,1.3v3h-1.6v-6.2h1.6v1.2h0
			c0.3-0.9,0.8-1.3,1.6-1.3c0.2,0,0.4,0,0.5,0.1V92.1z"/>
		<path class="st13" d="M420.9,93.7c0-1,0.3-1.8,0.9-2.4s1.4-0.9,2.4-0.9c1,0,1.8,0.3,2.3,0.9s0.9,1.3,0.9,2.3c0,1-0.3,1.8-0.9,2.4
			s-1.4,0.9-2.4,0.9c-1,0-1.8-0.3-2.3-0.9S420.9,94.7,420.9,93.7z M422.5,93.7c0,1.3,0.5,1.9,1.6,1.9c1,0,1.6-0.7,1.6-2
			c0-1.3-0.5-1.9-1.6-1.9c-0.5,0-0.9,0.2-1.2,0.5S422.5,93.1,422.5,93.7z"/>
		<path class="st13" d="M428.5,95.1c0.6,0.4,1.2,0.6,1.8,0.6c0.8,0,1.1-0.2,1.1-0.7c0-0.3-0.3-0.6-0.9-0.8c-0.9-0.3-1.4-0.6-1.7-0.9
			s-0.4-0.7-0.4-1.1c0-0.6,0.2-1.1,0.7-1.4s1.1-0.5,1.9-0.5c0.5,0,1.1,0.1,1.6,0.3V92c-0.5-0.3-1-0.4-1.6-0.4
			c-0.3,0-0.5,0.1-0.7,0.2s-0.3,0.3-0.3,0.5c0,0.3,0.3,0.6,0.8,0.7c0.6,0.2,1,0.4,1.3,0.5s0.5,0.3,0.6,0.6s0.2,0.5,0.2,0.9
			c0,0.6-0.2,1.1-0.7,1.5s-1.2,0.5-2,0.5c-0.7,0-1.3-0.1-1.8-0.3V95.1z"/>
		<path class="st13" d="M433.9,93.7c0-1,0.3-1.8,0.9-2.4s1.4-0.9,2.4-0.9c1,0,1.8,0.3,2.3,0.9s0.9,1.3,0.9,2.3c0,1-0.3,1.8-0.9,2.4
			s-1.4,0.9-2.4,0.9c-1,0-1.8-0.3-2.3-0.9S433.9,94.7,433.9,93.7z M435.5,93.7c0,1.3,0.5,1.9,1.6,1.9c1,0,1.6-0.7,1.6-2
			c0-1.3-0.5-1.9-1.6-1.9c-0.5,0-0.9,0.2-1.2,0.5S435.5,93.1,435.5,93.7z"/>
		<path class="st13" d="M445.2,88.9c-0.2-0.1-0.5-0.1-0.7-0.1c-0.6,0-0.9,0.4-0.9,1.1v0.7h1.4v1.2h-1.4v4.9h-1.6v-4.9h-1v-1.2h1
			v-0.8c0-0.7,0.2-1.2,0.7-1.7s1-0.6,1.7-0.6c0.4,0,0.7,0,0.9,0.1V88.9z"/>
		<path class="st13" d="M449.7,96.7c-0.3,0.1-0.7,0.2-1.2,0.2c-1.3,0-1.9-0.7-1.9-2v-3.1h-1v-1.2h1v-1.4l1.6-0.5v1.9h1.4v1.2h-1.4
			v2.8c0,0.7,0.3,1,0.8,1c0.2,0,0.4-0.1,0.6-0.2V96.7z"/>
		<path class="st13" d="M398.7,102.6v8.6h-1.7v-8.6H398.7z"/>
		<path class="st13" d="M400.8,111.2v-8.6h2.9c3.1,0,4.6,1.4,4.6,4.2c0,1.3-0.4,2.4-1.3,3.2s-2,1.2-3.3,1.2H400.8z M402.5,104v5.9
			h1.1c0.9,0,1.7-0.3,2.2-0.8s0.8-1.3,0.8-2.2c0-0.9-0.3-1.6-0.8-2.1s-1.2-0.7-2.2-0.7H402.5z"/>
		<path class="st13" d="M413.7,106.9v-1.2h10.5v1.2H413.7z M414.8,105.2V104h1.5l-0.1-1.4h1.5l0.1,1.4h2.4l0.1-1.4h1.5l-0.1,1.4h1.5
			v1.2H414.8z M414.9,102.3v-1.2h8.1v1.2H414.9z M415.2,112.2v-2.9h5.9v-0.6h-5.9v-1.2h7.4v2.9h-5.9v0.5h6.2v1.2H415.2z"/>
		<path class="st13" d="M431.3,107.2c-1,0.1-2.3,0.2-3.9,0.2H426v-3.6h3.2v-1.1H426v-1.2h4.6v3.5h-3.2v1.2h1.1c1,0,1.9-0.1,2.6-0.2
			L431.3,107.2z M435.1,112.3c-0.7-0.1-1.4-0.4-2.2-0.9s-1.3-1-1.6-1.5c-0.3,0.5-0.8,0.9-1.5,1.4s-1.5,0.8-2.2,0.9l-0.9-1.2
			c1.1-0.1,2.1-0.5,2.8-1.1s1.1-1.2,1.1-1.8v-0.4h1.5v0.4c0,0.6,0.4,1.2,1.1,1.8s1.7,1,2.8,1.1L435.1,112.3z M434,108.2v-3.1h-0.9
			v2.4h-1.4v-6.3h1.4v2.7h0.9V101h1.5v7.2H434z"/>
		<path class="st13" d="M437.7,107.6v-1.2h4.5v-0.8h-3.4v-1.2h1.5l-0.1-1.5h1.5l0.1,1.5h2.4l0.1-1.5h1.5l-0.1,1.5h1.5v1.2h-3.4v0.8
			h4.5v1.2H437.7z M438.9,102.5v-1.2h8.1v1.2H438.9z M439.2,112v-3.8h7.4v3.8H439.2z M445.2,109.4h-4.5v1.4h4.5V109.4z"/>
	</g>
	<g>
		<g>
			<path class="st13" d="M406.6,18.6h-1.8l-0.7-2.1h-3.2l-0.7,2.1h-1.8l3.2-8.6h1.9L406.6,18.6z M403.7,15.2l-1.1-3.1
				c0-0.1-0.1-0.4-0.1-0.7h0c0,0.3-0.1,0.5-0.1,0.7l-1.1,3.1H403.7z"/>
			<path class="st13" d="M407.4,16.5c0.7,0.6,1.5,0.8,2.3,0.8c0.5,0,0.9-0.1,1.2-0.3s0.4-0.4,0.4-0.7c0-0.3-0.1-0.5-0.3-0.7
				s-0.7-0.5-1.6-0.9c-0.7-0.3-1.2-0.7-1.6-1.1s-0.5-0.9-0.5-1.4c0-0.8,0.3-1.4,0.9-1.8s1.4-0.7,2.4-0.7c0.9,0,1.6,0.1,2.1,0.3v1.6
				c-0.6-0.4-1.2-0.6-2-0.6c-0.5,0-0.8,0.1-1.1,0.3s-0.4,0.4-0.4,0.7c0,0.2,0.1,0.5,0.3,0.7s0.7,0.5,1.4,0.8
				c0.8,0.4,1.4,0.8,1.8,1.2s0.5,0.9,0.5,1.5c0,0.8-0.3,1.4-0.9,1.9s-1.4,0.6-2.4,0.6c-1,0-1.8-0.2-2.4-0.5V16.5z"/>
			<path class="st13" d="M416.2,15.5v3.1h-1.7V9.9h2.8c2.1,0,3.2,0.9,3.2,2.7c0,0.9-0.3,1.6-1,2.1s-1.4,0.8-2.4,0.8H416.2z
				 M416.2,11.3v2.9h0.8c1.2,0,1.7-0.5,1.7-1.5c0-1-0.6-1.4-1.7-1.4H416.2z"/>
			<path class="st13" d="M419.5,17.8c0-0.3,0.1-0.5,0.3-0.6s0.4-0.3,0.7-0.3s0.5,0.1,0.7,0.3s0.3,0.4,0.3,0.6c0,0.3-0.1,0.5-0.3,0.6
				s-0.4,0.2-0.7,0.2c-0.3,0-0.5-0.1-0.7-0.3S419.5,18.1,419.5,17.8z"/>
			<path class="st13" d="M430.6,18.6h-1.7l-3.8-5.8c-0.2-0.2-0.3-0.5-0.4-0.7h0c0,0.3,0,0.7,0,1.3v5.2h-1.6V9.9h1.9l3.7,5.7
				c0.2,0.3,0.3,0.5,0.4,0.7h0c0-0.2,0-0.6,0-1.2V9.9h1.6V18.6z"/>
			<path class="st13" d="M437.7,18.6h-5V9.9h4.8v1.4h-3.1v2.2h2.9v1.4h-2.9v2.3h3.3V18.6z"/>
			<path class="st13" d="M445,11.3h-2.5v7.2h-1.7v-7.2h-2.5V9.9h6.6V11.3z"/>
			<path class="st13" d="M415.7,32.6c-0.6,0.3-1.4,0.5-2.4,0.5c-1.3,0-2.3-0.4-3.1-1.2s-1.1-1.8-1.1-3.1c0-1.4,0.4-2.5,1.3-3.3
				s1.9-1.3,3.3-1.3c0.8,0,1.5,0.1,2.1,0.3v1.6c-0.6-0.3-1.3-0.5-2-0.5c-0.9,0-1.6,0.3-2.1,0.8s-0.8,1.3-0.8,2.2
				c0,0.9,0.3,1.6,0.8,2.1s1.2,0.8,2,0.8c0.8,0,1.5-0.2,2.1-0.6V32.6z"/>
			<path class="st13" d="M416.7,29.9c0-1,0.3-1.8,0.9-2.4s1.4-0.9,2.4-0.9c1,0,1.8,0.3,2.3,0.9s0.9,1.3,0.9,2.3c0,1-0.3,1.8-0.9,2.4
				s-1.4,0.9-2.4,0.9c-1,0-1.8-0.3-2.3-0.9S416.7,30.9,416.7,29.9z M418.4,29.9c0,1.3,0.5,1.9,1.6,1.9c1,0,1.6-0.7,1.6-2
				c0-1.3-0.5-1.9-1.6-1.9c-0.5,0-0.9,0.2-1.2,0.5S418.4,29.3,418.4,29.9z"/>
			<path class="st13" d="M428.3,28.3c-0.2-0.1-0.5-0.2-0.8-0.2c-0.4,0-0.7,0.2-1,0.5s-0.4,0.8-0.4,1.3v3h-1.6v-6.2h1.6V28h0
				c0.3-0.9,0.8-1.3,1.6-1.3c0.2,0,0.4,0,0.5,0.1V28.3z"/>
			<path class="st13" d="M434.6,30.4h-4.1c0.1,1,0.7,1.6,1.8,1.6c0.7,0,1.3-0.2,1.8-0.5v1.2c-0.6,0.3-1.3,0.5-2.2,0.5
				c-1,0-1.7-0.3-2.2-0.8s-0.8-1.3-0.8-2.3c0-1,0.3-1.8,0.9-2.4s1.3-0.9,2.1-0.9s1.5,0.3,2,0.8s0.7,1.3,0.7,2.2V30.4z M433,29.3
				c0-1-0.4-1.5-1.2-1.5c-0.3,0-0.6,0.1-0.9,0.4s-0.4,0.6-0.5,1.1H433z"/>
			<path class="st13" d="M412.6,44.2v-1.8l-2.2,0.1l-0.2-1.1c2.8,0,4.7-0.1,5.8-0.2l0.1,1.1l-2.2,0.1v1.8H412.6z M413.3,40.9
				c-0.7,0-1.3-0.2-1.8-0.5s-0.7-0.7-0.7-1.3c0-0.5,0.2-0.9,0.7-1.2s1-0.5,1.7-0.5c0.7,0,1.3,0.2,1.8,0.5s0.7,0.7,0.7,1.3
				c0,0.5-0.2,0.9-0.7,1.2S414,40.9,413.3,40.9z M413.3,38.5c-0.3,0-0.6,0.1-0.8,0.2s-0.3,0.3-0.3,0.5c0,0.2,0.1,0.4,0.3,0.5
				s0.5,0.2,0.8,0.2s0.6-0.1,0.8-0.2s0.3-0.3,0.3-0.5C414.4,38.7,414,38.5,413.3,38.5z M412.6,48.3v-3.7h1.5v0.7h4.7v-0.7h1.5v3.7
				H412.6z M418.8,46.4H414v0.6h4.7V46.4z M416.6,44.2v-0.4h-1.7v-1h1.7v-5.5h1.4v6.9H416.6z M418.8,44.2v-7.1h1.5v7.1H418.8z"/>
			<path class="st13" d="M425.2,43c-0.7,0-1.4-0.3-1.9-0.8s-0.8-1.2-0.8-2c0-0.8,0.3-1.5,0.8-2s1.2-0.8,1.9-0.8s1.4,0.3,1.9,0.8
				s0.8,1.2,0.8,2c0,0.8-0.3,1.5-0.8,2S426,43,425.2,43z M425.2,38.6c-0.4,0-0.7,0.1-0.9,0.4s-0.4,0.7-0.4,1.2
				c0,0.5,0.1,0.9,0.4,1.2s0.6,0.4,0.9,0.4c0.4,0,0.7-0.1,0.9-0.4s0.4-0.7,0.4-1.2s-0.1-0.9-0.4-1.2S425.6,38.6,425.2,38.6z
				 M425.1,48.2v-4.3h1.5v1h4.3v-1h1.5v4.3H425.1z M430.9,46.1h-4.3V47h4.3V46.1z M430.9,43.4v-2.2H430v2.2h-1.4v-6.1h1.4V40h0.9
				v-2.9h1.5v6.3H430.9z"/>
		</g>
	</g>
	<g>
		<path class="st12" d="M190.5,10.4h-0.9V6.9c0-1.3-0.5-2-1.5-2c-0.5,0-0.9,0.2-1.2,0.6s-0.5,0.9-0.5,1.5v3.5h-0.9V1.3h0.9v4h0
			c0.5-0.8,1.1-1.2,2-1.2c1.4,0,2.1,0.8,2.1,2.5V10.4z"/>
		<path class="st12" d="M195.1,10.4c-0.2,0.1-0.5,0.2-0.9,0.2c-1.1,0-1.6-0.6-1.6-1.8V5.1h-1.1V4.3h1.1V2.7l0.9-0.3v1.8h1.6v0.8
			h-1.6v3.5c0,0.4,0.1,0.7,0.2,0.9s0.4,0.3,0.7,0.3c0.2,0,0.5-0.1,0.6-0.2V10.4z"/>
		<path class="st12" d="M199.1,10.4c-0.2,0.1-0.5,0.2-0.9,0.2c-1.1,0-1.6-0.6-1.6-1.8V5.1h-1.1V4.3h1.1V2.7l0.9-0.3v1.8h1.6v0.8
			h-1.6v3.5c0,0.4,0.1,0.7,0.2,0.9s0.4,0.3,0.7,0.3c0.2,0,0.5-0.1,0.6-0.2V10.4z"/>
		<path class="st12" d="M201.3,9.5v3.7h-0.9v-9h0.9v1.1h0c0.5-0.8,1.2-1.2,2.1-1.2c0.8,0,1.4,0.3,1.9,0.8s0.7,1.3,0.7,2.2
			c0,1-0.3,1.9-0.8,2.5s-1.2,0.9-2,0.9C202.4,10.6,201.8,10.2,201.3,9.5L201.3,9.5z M201.3,7.9c0,0.5,0.2,0.9,0.5,1.3
			s0.8,0.5,1.3,0.5c0.6,0,1.1-0.2,1.4-0.7s0.5-1.1,0.5-1.9c0-0.7-0.2-1.2-0.5-1.6s-0.8-0.6-1.3-0.6c-0.6,0-1,0.2-1.4,0.6
			s-0.5,0.9-0.5,1.5V7.9z"/>
		<path class="st12" d="M207.1,9.2c0.5,0.4,1.1,0.6,1.8,0.6c0.9,0,1.3-0.3,1.3-0.9c0-0.3-0.1-0.5-0.3-0.6s-0.6-0.4-1.1-0.6
			c-0.6-0.3-1.1-0.5-1.3-0.8s-0.3-0.6-0.3-1c0-0.5,0.2-0.9,0.7-1.3s1-0.5,1.7-0.5c0.5,0,1,0.1,1.4,0.3v1c-0.5-0.3-1-0.4-1.6-0.4
			c-0.4,0-0.7,0.1-0.9,0.3s-0.3,0.4-0.3,0.6c0,0.3,0.1,0.5,0.2,0.6s0.5,0.3,1.1,0.5c0.7,0.3,1.2,0.6,1.4,0.8s0.3,0.6,0.3,1
			c0,0.5-0.2,1-0.7,1.3s-1,0.5-1.7,0.5c-0.6,0-1.2-0.1-1.6-0.4V9.2z"/>
		<path class="st12" d="M212.3,4.8c0-0.2,0.1-0.3,0.2-0.5s0.3-0.2,0.5-0.2s0.3,0.1,0.5,0.2s0.2,0.3,0.2,0.5c0,0.2-0.1,0.3-0.2,0.5
			s-0.3,0.2-0.5,0.2s-0.3-0.1-0.5-0.2S212.3,5,212.3,4.8z M212.3,9.9c0-0.2,0.1-0.3,0.2-0.5s0.3-0.2,0.5-0.2s0.3,0.1,0.5,0.2
			s0.2,0.3,0.2,0.5c0,0.2-0.1,0.3-0.2,0.5s-0.3,0.2-0.5,0.2s-0.3-0.1-0.5-0.2S212.3,10.1,212.3,9.9z"/>
		<path class="st12" d="M219,1.8l-4.1,10.1H214l4.1-10.1H219z"/>
		<path class="st12" d="M223.7,1.8l-4.1,10.1h-0.9l4.1-10.1H223.7z"/>
		<path class="st12" d="M229.3,4.3l-2.9,7.2c-0.5,1.3-1.2,1.9-2.1,1.9c-0.2,0-0.4,0-0.6-0.1v-0.8c0.2,0.1,0.4,0.1,0.6,0.1
			c0.5,0,0.9-0.3,1.1-0.9l0.5-1.2l-2.4-6.1h1l1.7,4.8c0,0,0.1,0.2,0.1,0.4h0l0.1-0.4l1.8-4.8H229.3z"/>
		<path class="st12" d="M229.9,7.4c0-1,0.3-1.8,0.8-2.4s1.3-0.9,2.3-0.9c0.9,0,1.6,0.3,2.1,0.8s0.8,1.4,0.8,2.4c0,1-0.3,1.8-0.8,2.4
			s-1.3,0.9-2.2,0.9c-0.9,0-1.6-0.3-2.2-0.9S229.9,8.4,229.9,7.4z M230.8,7.4c0,0.7,0.2,1.3,0.6,1.7s0.9,0.7,1.5,0.7
			c0.7,0,1.2-0.2,1.5-0.6s0.5-1,0.5-1.8c0-0.8-0.2-1.4-0.5-1.8s-0.9-0.6-1.5-0.6c-0.6,0-1.1,0.2-1.5,0.7S230.8,6.6,230.8,7.4z"/>
		<path class="st12" d="M242.3,10.4h-0.9v-1h0c-0.4,0.7-1,1.1-1.9,1.1c-1.5,0-2.2-0.9-2.2-2.6V4.3h0.9v3.5c0,1.3,0.5,2,1.5,2
			c0.5,0,0.9-0.2,1.2-0.5s0.5-0.8,0.5-1.4V4.3h0.9V10.4z"/>
		<path class="st12" d="M247.4,5.2C247.2,5.1,247,5,246.6,5c-0.4,0-0.8,0.2-1.1,0.6s-0.4,1-0.4,1.6v3.2h-0.9V4.3h0.9v1.3h0
			c0.1-0.4,0.4-0.8,0.6-1c0.3-0.2,0.6-0.4,1-0.4c0.3,0,0.5,0,0.6,0.1V5.2z"/>
		<path class="st12" d="M248.1,9.2c0.5,0.4,1.1,0.6,1.8,0.6c0.9,0,1.3-0.3,1.3-0.9c0-0.3-0.1-0.5-0.3-0.6s-0.6-0.4-1.1-0.6
			c-0.6-0.3-1.1-0.5-1.3-0.8s-0.3-0.6-0.3-1c0-0.5,0.2-0.9,0.7-1.3s1-0.5,1.7-0.5c0.5,0,1,0.1,1.4,0.3v1c-0.5-0.3-1-0.4-1.6-0.4
			c-0.4,0-0.7,0.1-0.9,0.3s-0.3,0.4-0.3,0.6c0,0.3,0.1,0.5,0.2,0.6s0.5,0.3,1.1,0.5c0.7,0.3,1.2,0.6,1.4,0.8s0.3,0.6,0.3,1
			c0,0.5-0.2,1-0.7,1.3s-1,0.5-1.7,0.5c-0.6,0-1.2-0.1-1.6-0.4V9.2z"/>
		<path class="st12" d="M253.5,2c0-0.2,0.1-0.3,0.2-0.4s0.3-0.2,0.4-0.2c0.2,0,0.3,0.1,0.4,0.2s0.2,0.3,0.2,0.4
			c0,0.2-0.1,0.3-0.2,0.4s-0.3,0.2-0.4,0.2c-0.2,0-0.3-0.1-0.4-0.2S253.5,2.2,253.5,2z M253.6,10.4V4.3h0.9v6.2H253.6z"/>
		<path class="st12" d="M259.3,10.4c-0.2,0.1-0.5,0.2-0.9,0.2c-1.1,0-1.6-0.6-1.6-1.8V5.1h-1.1V4.3h1.1V2.7l0.9-0.3v1.8h1.6v0.8
			h-1.6v3.5c0,0.4,0.1,0.7,0.2,0.9s0.4,0.3,0.7,0.3c0.2,0,0.5-0.1,0.6-0.2V10.4z"/>
		<path class="st12" d="M265.3,7.6H261c0,0.7,0.2,1.3,0.6,1.6s0.8,0.6,1.5,0.6c0.7,0,1.3-0.2,1.9-0.7V10c-0.6,0.4-1.3,0.6-2.1,0.6
			c-0.9,0-1.5-0.3-2-0.9S260,8.3,260,7.3c0-0.9,0.3-1.7,0.8-2.3s1.2-0.9,2-0.9s1.4,0.3,1.9,0.8s0.7,1.2,0.7,2.2V7.6z M264.4,6.7
			c0-0.6-0.1-1-0.4-1.3s-0.7-0.5-1.2-0.5c-0.5,0-0.9,0.2-1.2,0.5S261,6.2,261,6.7H264.4z"/>
		<path class="st12" d="M266.4,9.9c0-0.2,0.1-0.3,0.2-0.5s0.3-0.2,0.5-0.2s0.3,0.1,0.5,0.2s0.2,0.3,0.2,0.5c0,0.2-0.1,0.3-0.2,0.5
			s-0.3,0.2-0.5,0.2s-0.3-0.1-0.5-0.2S266.4,10.1,266.4,9.9z"/>
		<path class="st12" d="M273.5,10.1c-0.5,0.3-1,0.4-1.7,0.4c-0.9,0-1.6-0.3-2.1-0.8s-0.8-1.3-0.8-2.2c0-1,0.3-1.8,0.9-2.4
			s1.3-0.9,2.3-0.9c0.5,0,1,0.1,1.4,0.3v1c-0.5-0.3-1-0.5-1.5-0.5c-0.6,0-1.1,0.2-1.6,0.7s-0.6,1.1-0.6,1.8c0,0.7,0.2,1.3,0.6,1.7
			s0.9,0.6,1.5,0.6c0.5,0,1.1-0.2,1.5-0.5V10.1z"/>
		<path class="st12" d="M274.5,7.4c0-1,0.3-1.8,0.8-2.4s1.3-0.9,2.3-0.9c0.9,0,1.6,0.3,2.1,0.8s0.8,1.4,0.8,2.4c0,1-0.3,1.8-0.8,2.4
			s-1.3,0.9-2.2,0.9c-0.9,0-1.6-0.3-2.2-0.9S274.5,8.4,274.5,7.4z M275.4,7.4c0,0.7,0.2,1.3,0.6,1.7s0.9,0.7,1.5,0.7
			c0.7,0,1.2-0.2,1.5-0.6s0.5-1,0.5-1.8c0-0.8-0.2-1.4-0.5-1.8s-0.9-0.6-1.5-0.6c-0.6,0-1.1,0.2-1.5,0.7S275.4,6.6,275.4,7.4z"/>
		<path class="st12" d="M290.7,10.4h-0.9V6.9c0-0.7-0.1-1.2-0.3-1.5s-0.6-0.4-1.1-0.4c-0.4,0-0.8,0.2-1.1,0.6s-0.5,0.9-0.5,1.4v3.5
			h-0.9V6.7c0-1.2-0.5-1.9-1.4-1.9c-0.4,0-0.8,0.2-1.1,0.6s-0.4,0.9-0.4,1.4v3.5H282V4.3h0.9v1h0c0.4-0.7,1.1-1.1,1.9-1.1
			c0.4,0,0.8,0.1,1.1,0.3s0.5,0.5,0.7,0.9c0.5-0.9,1.1-1.3,2-1.3c1.4,0,2,0.8,2,2.5V10.4z"/>
	</g>
	<g>
		<path class="st12" d="M188.2,35.6c-0.7,0-1.3-0.2-1.8-0.7s-0.8-1.1-0.8-1.9c0-0.8,0.3-1.5,0.8-1.9s1.1-0.7,1.8-0.7
			s1.3,0.2,1.8,0.7s0.8,1.1,0.8,1.9c0,0.8-0.3,1.4-0.8,1.9S188.9,35.6,188.2,35.6z M188.2,31c-0.5,0-0.9,0.2-1.2,0.5
			s-0.5,0.8-0.5,1.4c0,0.6,0.2,1.1,0.5,1.4s0.8,0.5,1.2,0.5s0.9-0.2,1.2-0.5s0.5-0.8,0.5-1.4c0-0.6-0.2-1.1-0.5-1.4
			S188.7,31,188.2,31z M187.8,41v-4.5h0.9v1.6h5.3v-1.6h0.9V41H187.8z M194,38.9h-5.3v1.3h5.3V38.9z M194,35.8v-2.3h-1.3v2.3h-0.9
			v-5.6h0.9v2.5h1.3V30h0.9v5.9H194z"/>
		<path class="st12" d="M197.3,39.5v-0.8h10.5v0.8H197.3z M198.7,33.5c0-0.9,0.3-1.5,1-2s1.6-0.7,2.7-0.7c1.1,0,2,0.2,2.7,0.7
			s1,1.2,1,2c0,0.9-0.3,1.5-1,2s-1.6,0.8-2.7,0.8c-1.1,0-2.1-0.3-2.7-0.8S198.7,34.4,198.7,33.5z M199.6,33.5c0,0.6,0.3,1.1,0.8,1.5
			s1.2,0.5,2.1,0.5c0.9,0,1.6-0.2,2.1-0.5s0.8-0.9,0.8-1.5c0-0.6-0.3-1.1-0.8-1.5s-1.2-0.5-2.1-0.5c-0.9,0-1.6,0.2-2.1,0.5
			S199.6,32.9,199.6,33.5z"/>
		<path class="st12" d="M210.9,33.4h6.4v-1.7h-6.4v-0.8h7.2v3.2h-6.4V36h6.7v0.8H215v2.1h4.8v0.8h-10.5v-0.8h4.8v-2.1h-3.2V33.4z"/>
	</g>
	<g>
		<path class="st12" d="M206.8,158c-0.7,0-1.3-0.2-1.8-0.7s-0.7-1.1-0.7-2c0-0.8,0.2-1.5,0.7-2s1.1-0.7,1.8-0.7s1.3,0.2,1.8,0.7
			s0.7,1.1,0.7,2c0,0.8-0.2,1.5-0.7,2S207.5,158,206.8,158z M206.8,153.3c-0.5,0-0.9,0.2-1.2,0.5s-0.5,0.8-0.5,1.4
			c0,0.6,0.2,1.1,0.5,1.4s0.7,0.5,1.2,0.5s0.9-0.2,1.2-0.5s0.5-0.8,0.5-1.4s-0.2-1.1-0.5-1.4S207.3,153.3,206.8,153.3z M212.6,163.5
			v-3.6h-6.5v-0.8h7.4v4.3H212.6z M212.6,158.5V156h-1.3v2.6h-0.9v-6.1h0.9v2.8h1.3v-3h0.9v6.3H212.6z"/>
		<path class="st12" d="M220.9,160.8c-1-1-1.7-2.2-2.1-3.5c-0.1,0.6-0.4,1.2-0.9,1.9s-0.9,1.3-1.4,1.8l-0.7-0.6
			c0.7-0.5,1.3-1.2,1.8-2.2s0.8-2,0.8-3V153h0.9v2.2c0,0.9,0.2,1.9,0.7,2.8s1,1.7,1.6,2.2L220.9,160.8z M222.4,163.1v-6.3h-2v-0.8h2
			v-3.7h0.9v10.7H222.4z M224.5,163.5v-11.3h0.9v11.3H224.5z"/>
		<path class="st12" d="M238.2,161.6h-10.5v-0.8h10.5V161.6z M233,155.1c-0.3,0.6-0.8,1.2-1.6,1.8s-1.7,1-2.6,1.3l-0.6-0.7
			c1.3-0.3,2.4-0.8,3.2-1.6s1.2-1.5,1.2-2.2v-0.6h0.9v0.6c0,0.7,0.4,1.4,1.2,2.2s1.8,1.3,3.2,1.6l-0.6,0.7c-0.9-0.3-1.8-0.7-2.6-1.3
			S233.2,155.7,233,155.1z"/>
		<path class="st12" d="M243.8,161.8V161h4.8v-2.4h-3.1v-5.4h7.2v0.8h-6.4v1.5h6.2v0.8h-6.2v1.6h6.6v0.8h-3.4v2.4h4.8v0.8H243.8z"/>
		<path class="st12" d="M255.7,158.3v-0.8h8c0-0.3,0.1-0.9,0.1-1.9l-6.6,0.3l-0.2-0.8l6.8-0.3l0-0.8v-0.6h-6.3v-0.8h7.2
			c0,2.2,0,3.8-0.1,4.8h1.7v0.8H255.7z M257.5,163.1v-3.6h0.9v2.8h6.3v0.8H257.5z"/>
	</g>
</g>
</svg>
