<?xml version="1.0" encoding="utf-8"?>
<!-- Generator: Adobe Illustrator 22.1.0, SVG Export Plug-In . SVG Version: 6.00 Build 0)  -->
<svg version="1.1" xmlns="http://www.w3.org/2000/svg" xmlns:xlink="http://www.w3.org/1999/xlink" x="0px" y="0px"
	 viewBox="0 0 474.7 206.7" style="enable-background:new 0 0 474.7 206.7;" xml:space="preserve">
<style type="text/css">
	.st0{fill:#505050;}
	.st1{fill:#FFFFFF;}
	.st2{display:none;}
	.st3{display:inline;}
	.st4{fill:#EBEBEB;}
	.st5{fill:#0072C6;}
	.st6{fill:#D2D2D2;}
	.st7{fill:none;stroke:#000000;stroke-miterlimit:10;}
	.st8{fill:#EBEBEB;stroke:#000000;stroke-width:0.75;stroke-miterlimit:10;}
	.st9{fill:#80BCEB;}
	.st10{fill:#414042;}
	.st11{fill:#AAD2F2;}
	.st12{fill:#054B16;}
	.st13{fill:#FFFFFF;fill-opacity:0.15;}
	.st14{fill:#1E1E1E;}
	.st15{fill:none;}
	.st16{stroke:#000000;stroke-width:5.000000e-02;stroke-miterlimit:10;}
	.st17{fill:#1E1E1E;stroke:#1E1E1E;stroke-width:6.000000e-02;stroke-miterlimit:10;}
	.st18{fill:#FFFFFF;stroke:#FFFFFF;stroke-width:5.000000e-02;stroke-miterlimit:10;}
	.st19{fill:#0072C6;stroke:#0072C6;stroke-width:5.000000e-02;stroke-miterlimit:10;}
</style>
<symbol  id="New_Symbol_41" viewBox="-10 -10 20 20">
	<circle class="st0" cx="0" cy="0" r="10"/>
	<path class="st1" d="M1.2-4.2v8.6h-1.4v-6.9C-0.4-2.3-0.7-2.1-1-2c-0.3,0.1-0.7,0.2-1,0.3v-1.2l0.6-0.2l0.6-0.3l0.6-0.3
		C0.1-3.9,0.4-4,0.6-4.2H1.2z"/>
</symbol>
<symbol  id="New_Symbol_42" viewBox="-10 -10 20 20">
	<circle class="st0" cx="0" cy="0" r="10"/>
	<path class="st1" d="M2.5,4.4h-5.3V3.8c0-0.3,0-0.5,0.1-0.8c0.1-0.2,0.2-0.4,0.3-0.7c0.1-0.2,0.3-0.4,0.4-0.6
		c0.2-0.2,0.4-0.4,0.5-0.5l0.6-0.5c0.2-0.1,0.4-0.3,0.6-0.5S0.1,0,0.3-0.2c0.1-0.1,0.3-0.3,0.4-0.4C0.8-0.8,0.9-1,0.9-1.1
		C1-1.3,1-1.5,1-1.7c0-0.2,0-0.4-0.1-0.6C0.8-2.4,0.7-2.6,0.6-2.7C0.5-2.8,0.3-2.9,0.2-2.9C0-3-0.2-3-0.4-3c-0.4,0-0.7,0.1-1.1,0.2
		c-0.4,0.2-0.7,0.4-1,0.7v-1.3c0.2-0.1,0.3-0.2,0.5-0.3c0.2-0.1,0.4-0.2,0.6-0.2C-1.2-4-1-4-0.8-4.1c0.2,0,0.4,0,0.7,0
		c0.3,0,0.7,0,1,0.1c0.3,0.1,0.6,0.2,0.8,0.4C1.9-3.3,2.1-3,2.2-2.8c0.1,0.3,0.2,0.7,0.2,1c0,0.3,0,0.6-0.1,0.9
		C2.2-0.6,2-0.3,1.9-0.1C1.7,0.2,1.5,0.4,1.3,0.6C1.1,0.8,0.9,1,0.6,1.2l-0.7,0.5c-0.2,0.2-0.4,0.4-0.6,0.5C-0.8,2.4-1,2.6-1.1,2.8
		c-0.1,0.1-0.2,0.3-0.2,0.5l0,0h3.8V4.4z"/>
</symbol>
<symbol  id="New_Symbol_43" viewBox="-10 -10 20 20">
	<circle class="st0" cx="0" cy="0" r="10"/>
	<path class="st1" d="M-2.6,4.1V2.8c0.5,0.4,1.2,0.7,1.8,0.6c0.5,0,0.9-0.1,1.3-0.4c0.3-0.2,0.5-0.6,0.5-1c0-0.9-0.7-1.4-2.2-1.4
		h-0.7v-1.1h0.6c1.3,0,1.9-0.4,1.9-1.4S0.3-3-0.7-3c-0.6,0-1.1,0.2-1.6,0.6v-1.2C-1.7-4-1-4.1-0.3-4.1c0.6,0,1.3,0.2,1.8,0.6
		c0.4,0.3,0.7,0.9,0.7,1.4c0.1,1-0.7,1.9-1.7,2.1l0,0c0.5,0,1,0.3,1.4,0.6C2.3,1,2.5,1.5,2.5,2.1c0,0.7-0.3,1.4-0.9,1.8
		C1,4.4,0.2,4.6-0.6,4.6C-1.3,4.6-2,4.5-2.6,4.1z"/>
</symbol>
<symbol  id="New_Symbol_44" viewBox="-10 -10 20 20">
	<circle class="st0" cx="0" cy="0" r="10"/>
	<path class="st1" d="M2-4v5.4h1.3v1.1H2v1.9H0.6V2.6h-3.8V1.4c0.3-0.4,0.7-0.8,1-1.3c0.4-0.4,0.7-0.9,1-1.4s0.6-0.9,0.9-1.4
		S0.4-3.5,0.6-4L2-4z M0.7,1.4v-3.5c-0.4,0.7-0.8,1.4-1.3,2C-1,0.5-1.4,1-1.8,1.4L0.7,1.4z"/>
</symbol>
<symbol  id="New_Symbol_45" viewBox="-10 -10 20 20">
	<circle class="st0" cx="0" cy="0" r="10"/>
	<path class="st1" d="M-2.4,4.2V2.9c0.5,0.3,1.1,0.5,1.7,0.6c0.5,0,1-0.1,1.4-0.4C1,2.8,1.2,2.3,1.1,1.9C1.2,1.5,1,1,0.6,0.8
		c-0.5-0.3-1-0.4-1.5-0.4c-0.2,0-0.7,0-1.4,0.1L-2-4h4.1v1.2h-3L-1-0.7c0.3,0,0.5,0,0.7,0C0.5-0.8,1.2-0.5,1.8,0
		c0.5,0.5,0.7,1.2,0.7,1.9c0,0.8-0.3,1.5-0.8,2C1,4.4,0.2,4.6-0.6,4.6C-1.2,4.6-1.9,4.5-2.4,4.2z"/>
</symbol>
<symbol  id="New_Symbol_46" viewBox="-10 -10 20 20">
	<circle class="st0" cx="0" cy="0" r="10"/>
	<path class="st1" d="M2.9,1.7c0,0.4-0.1,0.8-0.2,1.1C2.6,3.2,2.4,3.5,2.1,3.8C1.9,4,1.6,4.2,1.2,4.4C0.9,4.5,0.5,4.6,0.1,4.6
		c-0.4,0-0.8-0.1-1.2-0.2c-0.4-0.2-0.7-0.4-0.9-0.7c-0.3-0.4-0.4-0.8-0.6-1.2c-0.1-0.5-0.2-1.1-0.2-1.7c0-0.7,0-1.4,0.2-2.1
		c0.2-0.5,0.4-1.1,0.8-1.5C-1.4-3.3-1-3.6-0.6-3.8C-0.1-4,0.4-4.1,0.9-4.1c0.3,0,0.6,0,0.9,0.1C1.9-4,2.1-4,2.3-3.9v1.2
		C2.1-2.8,1.9-2.8,1.7-2.9C1.4-3,1.2-3,0.9-3C0.6-3,0.3-2.9,0-2.8c-0.3,0.1-0.5,0.3-0.7,0.6c-0.2,0.3-0.4,0.6-0.5,1
		C-1.3-0.8-1.4-0.4-1.4,0l0,0c0.2-0.3,0.4-0.5,0.7-0.6c0.4-0.2,0.7-0.2,1.1-0.2c0.3,0,0.7,0.1,1,0.2C1.8-0.6,2-0.4,2.3-0.2
		c0.2,0.2,0.4,0.5,0.5,0.8C2.9,1,2.9,1.4,2.9,1.7z M1.5,1.8c0-0.2,0-0.4-0.1-0.7C1.4,1,1.3,0.8,1.2,0.7C1,0.5,0.9,0.4,0.7,0.3
		C0.5,0.2,0.3,0.2,0.1,0.2c-0.2,0-0.4,0-0.6,0.1C-0.7,0.4-0.8,0.5-1,0.7C-1.1,0.8-1.2,1-1.2,1.1c-0.1,0.2-0.1,0.4-0.1,0.5
		c0,0.2,0,0.4,0.1,0.6c0,0.2,0.1,0.4,0.3,0.6C-0.9,3-0.7,3.2-0.5,3.3c0.2,0.1,0.4,0.2,0.6,0.2c0.2,0,0.4,0,0.6-0.1
		C0.9,3.3,1,3.1,1.2,3c0.1-0.2,0.2-0.3,0.3-0.5C1.5,2.3,1.5,2.1,1.5,1.8z"/>
</symbol>
<g id="src" class="st2">
	<g id="Shapes" class="st3">
		<rect class="st1" width="474.7" height="206.7"/>
		<rect y="10.4" class="st4" width="105" height="155"/>
		<rect x="369.7" y="10.4" class="st5" width="105" height="115"/>
		<rect x="369.7" y="130.4" class="st6" width="105" height="70"/>
		<g>
			<line class="st7" x1="105" y1="15.4" x2="364.2" y2="15.4"/>
			<polygon points="363.1,19.1 369.5,15.4 363.1,11.7 			"/>
		</g>
		<g>
			<line class="st7" x1="110.4" y1="45.3" x2="369.5" y2="45.3"/>
			<polygon points="111.5,49 105,45.3 111.5,41.5 			"/>
		</g>
		<g>
			<line class="st7" x1="105" y1="74.9" x2="364.2" y2="74.9"/>
			<polygon points="363.1,78.7 369.5,74.9 363.1,71.2 			"/>
		</g>
		<g>
			<line class="st7" x1="110.4" y1="105.2" x2="369.5" y2="105.2"/>
			<polygon points="111.5,108.9 105,105.2 111.5,101.4 			"/>
		</g>
		<g>
			<line class="st7" x1="105" y1="154.5" x2="364.2" y2="154.5"/>
			<polygon points="363.1,158.2 369.5,154.5 363.1,150.7 			"/>
		</g>
		<g>
			<path class="st7" d="M369.5,195.4l-308.4-0.8c-5.5,0-10-4.5-10-10v-13.9"/>
			<polygon points="54.8,171.9 51.1,165.4 47.4,171.9 			"/>
		</g>
		<polygon class="st8" points="192.6,25.8 185,31.3 187.9,40.1 197.2,40.1 200.1,31.3 		"/>
		<polygon class="st8" points="192.6,86 185,91.4 187.9,100.2 197.2,100.2 200.1,91.4 		"/>
		
			<use xlink:href="#New_Symbol_46"  width="20" height="20" x="-10" y="-10" transform="matrix(1 0 0 1 168.91 195.41)" style="overflow:visible;"/>
		<g>
			<g>
				<path class="st9" d="M87.9,44.9v50.3h-70V44.9c0-2.4,1.9-4.4,4.4-4.4c0,0,0,0,0,0h61.3C85.9,40.6,87.9,42.5,87.9,44.9z"/>
				<circle cx="24.4" cy="46" r="2.2"/>
				<circle class="st10" cx="31" cy="46" r="2.2"/>
				<circle class="st10" cx="37.5" cy="46" r="2.2"/>
				<path class="st11" d="M87.9,44.9v42.7l-4.4-4.4l-2.2-27.3L55,54.8L40.8,40.6h42.7C85.9,40.6,87.9,42.5,87.9,44.9z"/>
				<rect x="21.1" y="50.4" class="st12" width="63.4" height="41.6"/>
				<path class="st1" d="M69.1,57.7H26.4v-2.1h42.7V57.7z"/>
				<polygon class="st13" points="84.6,50.4 84.6,84.3 50.7,50.4 				"/>
				<path class="st1" d="M78,58.5l-0.6-1.4c0-0.1-0.1-0.2-0.1-0.3c0-0.1,0-0.2,0-0.2l0,0c0,0.1,0,0.1,0,0.2c0,0.1,0,0.2-0.1,0.3
					l-0.6,1.3h-1.9l1.5-2.5l-1.4-2.5h1.8l0.5,1.3c0,0.2,0.1,0.3,0.1,0.5l0,0c0-0.2,0.1-0.3,0.1-0.5l0.6-1.3h1.7L78.3,56l1.5,2.5
					L78,58.5z"/>
			</g>
			<g>
				<path class="st1" d="M49.2,76.1c0.1,2.1-0.5,4.1-1.8,5.7c-1.2,1.4-3,2.1-4.8,2c-0.8,0-1.6-0.1-2.3-0.3v-3.2
					c0.6,0.4,1.4,0.6,2.1,0.6c2.3,0,3.4-1.8,3.4-5.3V62.8h3.4L49.2,76.1z"/>
				<path class="st1" d="M52.3,82.6v-3.5c0.3,0.3,0.7,0.6,1.1,0.8c0.4,0.2,0.9,0.4,1.4,0.6c0.5,0.2,1,0.3,1.5,0.4
					c0.4,0.1,0.9,0.1,1.3,0.1c1.1,0.1,2.2-0.2,3.2-0.7c0.7-0.5,1.1-1.3,1.1-2.1c0-0.4-0.1-0.9-0.3-1.3c-0.3-0.4-0.6-0.7-1-1
					c-0.5-0.3-1-0.6-1.5-0.9c-0.6-0.3-1.2-0.6-1.8-0.9s-1.3-0.8-2-1.1c-0.6-0.4-1.1-0.8-1.6-1.3c-0.4-0.5-0.8-1-1-1.6
					c-0.3-0.6-0.4-1.3-0.4-2c0-0.9,0.2-1.8,0.7-2.5c0.4-0.7,1-1.3,1.7-1.8c0.8-0.5,1.6-0.8,2.4-1c0.9-0.2,1.8-0.3,2.8-0.3
					c1.6-0.1,3.2,0.2,4.7,0.7v3.4c-1.3-0.9-2.9-1.3-4.5-1.3c-0.5,0-1,0.1-1.5,0.2c-0.5,0.1-0.9,0.2-1.4,0.5c-0.4,0.2-0.7,0.5-1,0.8
					c-0.2,0.3-0.4,0.7-0.4,1.2c0,0.4,0.1,0.8,0.3,1.2c0.2,0.4,0.5,0.7,0.8,0.9c0.4,0.3,0.9,0.6,1.3,0.8c0.5,0.3,1.2,0.6,1.8,0.9
					s1.4,0.8,2,1.2c0.6,0.4,1.2,0.9,1.7,1.4c0.5,0.5,0.9,1,1.2,1.7c0.3,0.7,0.4,1.4,0.4,2.1c0.1,1.8-0.8,3.5-2.3,4.4
					c-0.8,0.5-1.6,0.8-2.5,1c-1,0.2-2,0.3-3,0.3c-0.3,0-0.8,0-1.3-0.1s-1-0.1-1.5-0.2s-1-0.2-1.5-0.4C53,83,52.6,82.8,52.3,82.6z"/>
			</g>
		</g>
	</g>
	<g id="Text" class="st3">
		<g>
			<path class="st14" d="M28.3,111.7c0.1,0.9-0.2,1.8-0.8,2.6c-0.6,0.6-1.4,1-2.3,0.9c-0.4,0-0.9-0.1-1.3-0.2v-1.8
				c0.3,0.2,0.7,0.4,1.1,0.4c0.9,0,1.3-0.6,1.3-1.9v-5h1.9L28.3,111.7z"/>
			<path class="st14" d="M34.9,115.1h-1.8v-0.9l0,0c-0.4,0.6-1,1-1.8,1c-0.5,0-1-0.2-1.4-0.5c-0.3-0.4-0.5-0.8-0.5-1.3
				c0-1.2,0.7-1.8,2.1-2l1.6-0.2c0-0.7-0.4-1-1.1-1c-0.7,0-1.4,0.2-2,0.6v-1.4c0.3-0.2,0.7-0.3,1.1-0.3c0.4-0.1,0.8-0.2,1.2-0.2
				c1.2-0.2,2.4,0.7,2.6,1.9c0,0.2,0,0.4,0,0.6L34.9,115.1z M33.1,112.6v-0.4l-1.1,0.1c-0.6,0.1-0.9,0.4-0.9,0.8
				c0,0.2,0.1,0.4,0.2,0.5c0.2,0.1,0.4,0.2,0.6,0.2c0.3,0,0.6-0.1,0.8-0.4C33,113.3,33.1,112.9,33.1,112.6z"/>
			<path class="st14" d="M41.9,109.1l-2.2,6h-2.1l-2.1-6h2l1,3.7c0.1,0.3,0.2,0.7,0.2,1.1l0,0c0-0.3,0.1-0.7,0.2-1l1.2-3.8H41.9z"/>
			<path class="st14" d="M47.6,115.1h-1.8v-0.9l0,0c-0.4,0.6-1.1,1-1.8,1c-0.5,0-1-0.2-1.4-0.5c-0.3-0.4-0.5-0.8-0.5-1.3
				c0-1.2,0.7-1.8,2.1-2l1.6-0.2c0-0.7-0.4-1-1.1-1c-0.7,0-1.4,0.2-2,0.6v-1.4c0.3-0.2,0.7-0.3,1.1-0.3c0.4-0.1,0.7-0.1,1.1-0.2
				c1.2-0.2,2.4,0.7,2.6,1.9c0,0.2,0,0.4,0,0.6L47.6,115.1z M45.9,112.6v-0.4l-1.1,0.1c-0.6,0.1-0.9,0.3-0.9,0.8
				c0,0.2,0.1,0.4,0.2,0.5c0.2,0.1,0.4,0.2,0.6,0.2c0.3,0,0.6-0.1,0.8-0.4C45.8,113.3,45.9,112.9,45.9,112.6z"/>
			<path class="st14" d="M48.9,114.7v-1.9c0.3,0.3,0.7,0.5,1.1,0.7c0.4,0.1,0.8,0.2,1.2,0.2c0.2,0,0.4,0,0.6-0.1
				c0.2,0,0.3-0.1,0.4-0.2c0.1-0.1,0.2-0.2,0.3-0.3c0.1-0.1,0.1-0.2,0.1-0.3c0-0.2-0.1-0.3-0.2-0.4c-0.1-0.1-0.2-0.3-0.4-0.4
				c-0.2-0.1-0.4-0.2-0.6-0.3c-0.2-0.1-0.5-0.2-0.7-0.3c-0.6-0.2-1.1-0.6-1.5-1c-0.3-0.4-0.5-0.9-0.5-1.4c0-0.4,0.1-0.8,0.3-1.1
				c0.2-0.3,0.4-0.6,0.7-0.8c0.3-0.2,0.7-0.4,1.1-0.4c0.4-0.1,0.8-0.1,1.3-0.1c0.4,0,0.8,0,1.2,0.1c0.3,0,0.6,0.1,0.9,0.2v1.8
				c-0.1-0.1-0.3-0.2-0.5-0.3c-0.2-0.1-0.3-0.1-0.5-0.2c-0.2,0-0.4-0.1-0.5-0.1h-0.5c-0.2,0-0.4,0-0.6,0.1c-0.2,0-0.3,0.1-0.4,0.2
				c-0.1,0.1-0.2,0.2-0.3,0.3c-0.1,0.1-0.1,0.2-0.1,0.3c0,0.1,0,0.3,0.1,0.4c0.1,0.1,0.2,0.2,0.3,0.3c0.2,0.1,0.3,0.2,0.5,0.3
				l0.7,0.3c0.3,0.1,0.6,0.3,0.9,0.4c0.3,0.1,0.5,0.3,0.7,0.5c0.2,0.2,0.3,0.4,0.4,0.7c0.1,0.3,0.2,0.6,0.2,0.9
				c0,0.4-0.1,0.8-0.3,1.2c-0.2,0.3-0.4,0.6-0.7,0.8c-0.3,0.2-0.7,0.4-1.1,0.4c-0.4,0.1-0.9,0.1-1.3,0.1c-0.4,0-0.9,0-1.3-0.1
				C49.6,115,49.2,114.9,48.9,114.7z"/>
			<path class="st14" d="M60.4,114.8c-0.6,0.3-1.2,0.4-1.8,0.4c-0.8,0-1.6-0.3-2.2-0.8c-0.6-0.6-0.9-1.4-0.9-2.2
				c0-0.9,0.3-1.8,0.9-2.4c0.7-0.6,1.5-0.9,2.5-0.9c0.5,0,1.1,0.1,1.5,0.3v1.6c-0.4-0.3-0.8-0.4-1.3-0.4c-0.5,0-0.9,0.1-1.3,0.5
				c-0.3,0.3-0.5,0.8-0.5,1.3c0,0.5,0.1,0.9,0.5,1.3c0.3,0.3,0.8,0.5,1.2,0.4c0.5,0,1-0.2,1.3-0.4L60.4,114.8z"/>
			<path class="st14" d="M65.6,110.7c-0.2-0.1-0.5-0.2-0.8-0.2c-0.4,0-0.7,0.1-0.9,0.4c-0.2,0.4-0.4,0.8-0.3,1.2v2.9h-1.9v-6h1.9
				v1.1l0,0c0.2-0.7,0.9-1.2,1.6-1.2c0.2,0,0.3,0,0.5,0.1V110.7z"/>
			<path class="st14" d="M67.4,108.1c-0.3,0-0.6-0.1-0.8-0.3c-0.2-0.2-0.3-0.4-0.3-0.7c0-0.3,0.1-0.5,0.3-0.7
				c0.2-0.2,0.5-0.3,0.8-0.3c0.3,0,0.6,0.1,0.8,0.3c0.2,0.2,0.3,0.4,0.3,0.7c0,0.3-0.1,0.5-0.3,0.7C67.9,108,67.7,108.1,67.4,108.1z
				 M68.3,115.1h-1.9v-6h1.9V115.1z"/>
			<path class="st14" d="M71.7,114.3L71.7,114.3v3.5h-1.9V109h1.8v0.9l0,0c0.7-1.1,2.2-1.4,3.3-0.6c0.2,0.1,0.3,0.2,0.5,0.4
				c0.5,0.6,0.7,1.4,0.6,2.2c0,0.9-0.2,1.7-0.7,2.4c-0.5,0.6-1.2,0.9-2,0.9C72.7,115.2,72.1,114.9,71.7,114.3z M71.7,111.9v0.5
				c0,0.4,0.1,0.7,0.3,1c0.2,0.3,0.5,0.4,0.9,0.4c0.4,0,0.8-0.2,1-0.5c0.3-0.4,0.4-0.9,0.3-1.4c0-1.1-0.4-1.6-1.2-1.6
				c-0.4,0-0.7,0.2-0.9,0.4C71.8,111.1,71.7,111.5,71.7,111.9L71.7,111.9z"/>
			<path class="st14" d="M80.9,115c-0.4,0.2-0.8,0.2-1.2,0.2c-1.3,0-2-0.7-2-2v-2.7h-1v-1.4h1v-1.3l1.8-0.5v1.8h1.3v1.4h-1.3v2.4
				c0,0.6,0.3,0.9,0.7,0.9c0.2,0,0.4-0.1,0.6-0.2L80.9,115z"/>
			<path class="st14" d="M42.1,129.1v-1.9c0.3,0.3,0.7,0.5,1.1,0.7c0.4,0.1,0.8,0.2,1.2,0.2c0.2,0,0.4,0,0.6-0.1
				c0.2,0,0.3-0.1,0.5-0.2c0.1-0.1,0.2-0.2,0.3-0.3c0.1-0.1,0.1-0.2,0.1-0.3c0-0.2,0-0.3-0.1-0.4c-0.1-0.1-0.2-0.3-0.4-0.4
				c-0.2-0.1-0.4-0.2-0.6-0.3c-0.2-0.1-0.5-0.2-0.7-0.3c-0.6-0.2-1.1-0.6-1.5-1c-0.3-0.4-0.5-0.9-0.5-1.4c0-0.4,0.1-0.8,0.3-1.1
				c0.2-0.3,0.4-0.6,0.7-0.8c0.3-0.2,0.6-0.4,1-0.4c0.4-0.1,0.8-0.1,1.3-0.1c0.4,0,0.8,0,1.2,0.1c0.3,0,0.6,0.1,0.9,0.2v1.8
				c-0.1-0.1-0.3-0.2-0.5-0.3c-0.2-0.1-0.3-0.1-0.5-0.2c-0.2,0-0.3-0.1-0.5-0.1h-0.5c-0.2,0-0.4,0-0.6,0.1c-0.2,0-0.3,0.1-0.5,0.2
				c-0.1,0.1-0.2,0.2-0.3,0.3c-0.1,0.1-0.1,0.2-0.1,0.3c0,0.1,0,0.3,0.1,0.4c0.1,0.1,0.2,0.2,0.3,0.3c0.2,0.1,0.3,0.2,0.5,0.3
				c0.2,0.1,0.4,0.2,0.7,0.3c0.3,0.1,0.6,0.3,0.9,0.4c0.3,0.1,0.5,0.3,0.7,0.5c0.2,0.2,0.3,0.4,0.4,0.7c0.1,0.3,0.2,0.6,0.2,0.9
				c0,0.4-0.1,0.8-0.3,1.2c-0.2,0.3-0.4,0.6-0.7,0.8c-0.3,0.2-0.7,0.4-1.1,0.4c-0.4,0.1-0.8,0.1-1.3,0.1c-0.4,0-0.9,0-1.3-0.1
				C42.8,129.4,42.4,129.3,42.1,129.1z"/>
			<path class="st14" d="M51.1,126.6v2.9h-1.9V121h3c2.1,0,3.2,0.9,3.2,2.7c0,0.8-0.3,1.5-0.9,2c-0.7,0.6-1.6,0.8-2.4,0.8
				L51.1,126.6z M51.1,122.5v2.6h0.8c1,0,1.5-0.4,1.5-1.3s-0.5-1.3-1.5-1.3H51.1z"/>
			<path class="st14" d="M63.4,129.4h-2.1l-0.6-1.9h-3l-0.6,1.9h-2l3.1-8.4h2.3L63.4,129.4z M60.3,126.1l-0.9-2.8
				c-0.1-0.2-0.1-0.5-0.1-0.8l0,0c0,0.2-0.1,0.5-0.2,0.7l-0.9,2.8H60.3z"/>
		</g>
		<g>
			<path class="st14" d="M185.1,10.1V8.9c0.1,0.1,0.3,0.2,0.5,0.3c0.4,0.2,0.8,0.3,1.2,0.4c0.2,0,0.4,0.1,0.6,0.1
				c0.5,0,0.9-0.1,1.4-0.3c0.3-0.2,0.5-0.6,0.4-1c0-0.2,0-0.4-0.1-0.6c-0.1-0.2-0.2-0.3-0.4-0.5c-0.2-0.2-0.4-0.3-0.6-0.4l-0.8-0.4
				c-0.3-0.2-0.6-0.3-0.8-0.4c-0.2-0.1-0.5-0.3-0.7-0.5c-0.2-0.2-0.3-0.4-0.4-0.6c-0.1-0.3-0.2-0.5-0.2-0.8c0-0.4,0.1-0.7,0.3-1
				c0.2-0.3,0.4-0.5,0.7-0.7c0.3-0.2,0.6-0.3,0.9-0.4c1-0.2,2-0.2,2.9,0.2v1.1c-0.6-0.4-1.2-0.5-1.9-0.5c-0.2,0-0.4,0-0.6,0.1
				c-0.2,0-0.4,0.1-0.6,0.2c-0.2,0.1-0.3,0.2-0.4,0.4c-0.1,0.2-0.2,0.4-0.2,0.6c0,0.2,0,0.4,0.1,0.6c0.1,0.2,0.2,0.3,0.4,0.4
				c0.2,0.1,0.4,0.3,0.6,0.4c0.2,0.1,0.5,0.3,0.8,0.4s0.6,0.3,0.9,0.5c0.3,0.1,0.5,0.3,0.7,0.5c0.2,0.2,0.4,0.4,0.5,0.7
				c0.1,0.3,0.2,0.5,0.2,0.8c0,0.4-0.1,0.7-0.2,1.1c-0.2,0.3-0.4,0.5-0.7,0.7c-0.3,0.2-0.6,0.3-1,0.4c-0.4,0.1-0.8,0.1-1.1,0.1h-0.5
				c-0.2,0-0.4-0.1-0.6-0.1c-0.2,0-0.4-0.1-0.6-0.1C185.3,10.2,185.2,10.2,185.1,10.1z"/>
			<path class="st14" d="M192,2.9c-0.2,0-0.3-0.1-0.4-0.2c-0.1-0.1-0.2-0.3-0.2-0.5c0-0.2,0.1-0.3,0.2-0.4c0.1-0.1,0.3-0.2,0.4-0.2
				c0.2,0,0.3,0.1,0.4,0.2c0.1,0.1,0.2,0.3,0.2,0.4c0,0.2-0.1,0.3-0.2,0.4C192.3,2.8,192.2,2.9,192,2.9z M192.5,10.4h-1v-6h1V10.4z"
				/>
			<path class="st14" d="M199.5,9.9c0,2.2-1.1,3.3-3.2,3.3c-0.7,0-1.4-0.1-2-0.4v-1c0.6,0.3,1.2,0.5,1.9,0.6c1.5,0,2.2-0.8,2.2-2.4
				V9.4l0,0c-0.7,1.1-2.2,1.5-3.3,0.8c-0.2-0.1-0.4-0.3-0.5-0.4c-0.5-0.6-0.7-1.4-0.6-2.2c0-0.9,0.2-1.7,0.7-2.4
				c0.5-0.6,1.2-0.9,2-0.9c0.7,0,1.4,0.4,1.8,1l0,0V4.4h1L199.5,9.9z M198.5,7.7V6.8c0-0.5-0.2-0.9-0.5-1.2
				c-0.3-0.3-0.8-0.5-1.2-0.5c-0.5,0-1.1,0.2-1.4,0.6c-0.3,0.5-0.5,1.2-0.4,1.8c0,0.6,0.1,1.1,0.5,1.6c0.3,0.4,0.8,0.6,1.3,0.6
				c0.5,0,0.9-0.2,1.2-0.6C198.4,8.8,198.6,8.2,198.5,7.7L198.5,7.7z"/>
			<path class="st14" d="M206.3,10.4h-1V7c0-1.3-0.5-1.9-1.4-1.9c-0.5,0-0.9,0.2-1.2,0.5c-0.3,0.4-0.5,0.9-0.4,1.4v3.4h-1v-6h1v1
				l0,0c0.4-0.7,1.2-1.2,2-1.1c0.6,0,1.1,0.2,1.5,0.6c0.4,0.5,0.6,1.2,0.5,1.8L206.3,10.4z"/>
			<path class="st14" d="M211.9,2.9c-0.2,0-0.3-0.1-0.4-0.2c-0.1-0.1-0.2-0.3-0.2-0.5c0-0.2,0.1-0.3,0.2-0.4
				c0.1-0.1,0.3-0.2,0.4-0.2c0.2,0,0.3,0.1,0.4,0.2c0.1,0.1,0.2,0.3,0.2,0.4c0,0.2-0.1,0.3-0.2,0.4C212.2,2.8,212.1,2.9,211.9,2.9z
				 M212.4,10.4h-1v-6h1V10.4z"/>
			<path class="st14" d="M219.2,10.4h-1V7c0-1.3-0.5-1.9-1.4-1.9c-0.5,0-0.9,0.2-1.2,0.5c-0.3,0.4-0.5,0.9-0.4,1.4v3.4h-1v-6h1v1
				l0,0c0.4-0.7,1.2-1.2,2-1.1c0.6,0,1.1,0.2,1.5,0.6c0.4,0.5,0.6,1.2,0.5,1.8L219.2,10.4z"/>
		</g>
		<g>
			<path class="st14" d="M207.1,38.2h-1v-8.4h1V38.2z"/>
			<path class="st14" d="M209.2,38.2v-8.4h2.3c3,0,4.4,1.4,4.4,4.1c0.1,1.2-0.4,2.3-1.2,3.2c-0.9,0.8-2.1,1.2-3.3,1.2L209.2,38.2z
				 M210.2,30.6v6.6h1.3c0.9,0.1,1.9-0.3,2.6-0.9c0.6-0.7,1-1.6,0.9-2.5c0-2.1-1.1-3.2-3.4-3.2L210.2,30.6z"/>
			<path class="st14" d="M225.8,30.6h-2.4v7.5h-1v-7.5H220v-0.9h5.8L225.8,30.6z"/>
			<path class="st14" d="M228.7,38.3c-0.8,0-1.6-0.3-2.1-0.8c-0.5-0.6-0.8-1.4-0.8-2.2c-0.1-0.9,0.2-1.7,0.8-2.4
				c0.6-0.6,1.4-0.9,2.2-0.8c0.8,0,1.6,0.3,2.1,0.8c0.5,0.6,0.8,1.5,0.8,2.3c0,0.8-0.2,1.7-0.8,2.3C230.3,38,229.5,38.3,228.7,38.3z
				 M228.8,32.8c-0.6,0-1.1,0.2-1.5,0.6c-0.4,0.5-0.6,1.1-0.5,1.7c0,0.6,0.2,1.2,0.5,1.7c0.4,0.4,0.9,0.6,1.5,0.6
				c0.5,0,1.1-0.2,1.4-0.6c0.4-0.5,0.5-1.1,0.5-1.7c0-0.6-0.1-1.2-0.5-1.7C229.8,33,229.3,32.8,228.8,32.8z"/>
			<path class="st14" d="M238.1,38.2h-1.4l-2.6-2.9l0,0v2.9h-1v-8.9h1v5.6l0,0l2.5-2.7h1.3l-2.8,2.9L238.1,38.2z"/>
			<path class="st14" d="M243.6,35.4h-4.2c0,0.6,0.2,1.1,0.5,1.5c0.4,0.4,0.9,0.6,1.4,0.5c0.7,0,1.3-0.2,1.9-0.7v0.9
				c-0.6,0.4-1.3,0.6-2.1,0.6c-0.8,0-1.5-0.3-2-0.8c-0.5-0.7-0.8-1.5-0.7-2.3c0-0.8,0.2-1.6,0.8-2.3c0.5-0.6,1.2-0.9,2-0.9
				c0.7,0,1.4,0.2,1.8,0.8c0.5,0.6,0.7,1.4,0.6,2.1L243.6,35.4z M242.6,34.6c0-0.5-0.1-0.9-0.4-1.3c-0.3-0.3-0.7-0.5-1.1-0.5
				c-0.4,0-0.9,0.2-1.1,0.5c-0.3,0.3-0.5,0.8-0.6,1.3H242.6z"/>
			<path class="st14" d="M250.1,38.2h-1v-3.4c0-1.3-0.5-1.9-1.4-1.9c-0.5,0-0.9,0.2-1.2,0.5c-0.3,0.4-0.5,0.9-0.5,1.4v3.4h-1v-6h1v1
				l0,0c0.4-0.7,1.2-1.2,2-1.1c0.6,0,1.1,0.2,1.5,0.6c0.4,0.5,0.6,1.2,0.5,1.8L250.1,38.2z"/>
		</g>
		<g>
			<path class="st1" d="M405.2,56.7h-1.9v-5c0-0.5,0-1.1,0.1-1.8h0c-0.1,0.4-0.2,0.8-0.3,1.1l-2,5.7h-1.5l-2-5.7
				c-0.1-0.4-0.2-0.8-0.3-1.2l0,0c0,0.8,0.1,1.6,0.1,2.2v4.7h-1.7v-8.4h2.8l1.7,5c0.1,0.4,0.2,0.8,0.3,1.2l0,0
				c0.1-0.4,0.2-0.8,0.3-1.2l1.7-5h2.7L405.2,56.7z"/>
			<path class="st1" d="M407.8,49.7c-0.3,0-0.6-0.1-0.8-0.3c-0.2-0.2-0.3-0.4-0.3-0.7c0-0.3,0.1-0.5,0.3-0.7
				c0.2-0.2,0.5-0.3,0.8-0.3c0.3,0,0.6,0.1,0.8,0.3c0.2,0.2,0.3,0.4,0.3,0.7c0,0.3-0.1,0.5-0.3,0.7
				C408.3,49.7,408.1,49.8,407.8,49.7z M408.7,56.7h-1.9v-6h1.9V56.7z"/>
			<path class="st1" d="M414.8,56.5c-0.6,0.3-1.2,0.4-1.8,0.4c-0.8,0-1.6-0.3-2.2-0.8c-0.6-0.6-0.9-1.4-0.9-2.2
				c0-0.9,0.3-1.8,0.9-2.4c0.7-0.6,1.5-0.9,2.5-0.9c0.5,0,1.1,0.1,1.5,0.3v1.6c-0.4-0.3-0.8-0.4-1.3-0.4c-0.5,0-0.9,0.1-1.3,0.5
				c-0.3,0.3-0.5,0.8-0.5,1.3c0,0.5,0.1,0.9,0.4,1.3c0.3,0.3,0.8,0.5,1.2,0.5c0.5,0,1-0.2,1.4-0.4V56.5z"/>
			<path class="st1" d="M420,52.4c-0.2-0.1-0.5-0.2-0.8-0.2c-0.4,0-0.7,0.1-0.9,0.4c-0.2,0.4-0.4,0.8-0.3,1.2v2.9h-1.9v-6h1.9v1.1
				l0,0c0.2-0.7,0.8-1.2,1.6-1.2c0.2,0,0.3,0,0.5,0.1L420,52.4z"/>
			<path class="st1" d="M423.8,56.8c-0.9,0.1-1.7-0.3-2.4-0.8c-1.2-1.3-1.2-3.3,0-4.6c0.7-0.6,1.5-0.9,2.4-0.8
				c0.9,0,1.7,0.3,2.3,0.8c0.6,0.6,0.9,1.4,0.9,2.2c0.1,0.9-0.2,1.7-0.8,2.4C425.5,56.6,424.7,56.9,423.8,56.8z M423.8,52
				c-0.4,0-0.8,0.2-1,0.5c-0.3,0.4-0.4,0.8-0.4,1.3c0,1.2,0.5,1.7,1.4,1.7s1.3-0.6,1.3-1.8S424.8,52,423.8,52L423.8,52z"/>
			<path class="st1" d="M427.9,56.5V55c0.3,0.2,0.6,0.3,0.9,0.4c0.3,0.1,0.6,0.1,0.9,0.1c0.3,0,0.5,0,0.8-0.1
				c0.2-0.1,0.3-0.2,0.3-0.4c0-0.1,0-0.2-0.1-0.3c-0.1-0.1-0.2-0.2-0.3-0.2c-0.1-0.1-0.3-0.1-0.5-0.2c-0.2,0-0.3-0.1-0.5-0.2
				c-0.2-0.1-0.4-0.2-0.6-0.3c-0.2-0.1-0.3-0.2-0.5-0.4c-0.1-0.1-0.2-0.3-0.3-0.5c-0.1-0.2-0.1-0.4-0.1-0.6c0-0.3,0.1-0.6,0.2-0.9
				c0.1-0.2,0.3-0.5,0.6-0.6c0.3-0.2,0.5-0.3,0.8-0.3c0.3-0.1,0.7-0.1,1-0.1c0.3,0,0.5,0,0.8,0.1c0.3,0,0.5,0.1,0.8,0.2v1.4
				c-0.2-0.1-0.5-0.2-0.8-0.3c-0.3-0.1-0.5-0.1-0.8-0.1c-0.1,0-0.2,0-0.4,0c-0.1,0-0.2,0.1-0.3,0.1c-0.1,0-0.1,0.1-0.2,0.2
				c0,0.1-0.1,0.1-0.1,0.2c0,0.1,0,0.2,0.1,0.3c0.1,0.1,0.2,0.2,0.3,0.2c0.1,0.1,0.2,0.1,0.4,0.2l0.4,0.1c0.2,0.1,0.5,0.2,0.7,0.3
				c0.2,0.1,0.4,0.2,0.5,0.4c0.1,0.1,0.3,0.3,0.3,0.5c0.3,0.8,0,1.7-0.7,2.2c-0.3,0.2-0.6,0.3-0.9,0.3c-0.3,0.1-0.7,0.1-1,0.1
				C429.2,56.8,428.6,56.7,427.9,56.5z"/>
			<path class="st1" d="M436.5,56.8c-0.9,0.1-1.7-0.3-2.4-0.8c-1.2-1.3-1.2-3.3,0-4.6c0.7-0.6,1.5-0.9,2.4-0.8
				c0.9-0.1,1.7,0.3,2.3,0.8c0.6,0.6,0.9,1.4,0.9,2.2c0,0.9-0.3,1.7-0.9,2.4C438.2,56.6,437.4,56.9,436.5,56.8z M436.5,52
				c-0.4,0-0.8,0.2-1,0.5c-0.3,0.4-0.4,0.8-0.4,1.3c0,1.2,0.5,1.7,1.4,1.7s1.3-0.6,1.3-1.8S437.5,52,436.5,52L436.5,52z"/>
			<path class="st1" d="M444.9,49.2c-0.2-0.1-0.4-0.1-0.7-0.1c-0.6,0-0.9,0.3-0.9,1v0.6h1.4v1.4h-1.4v4.6h-1.9V52h-1v-1.4h1v-0.8
				c0-0.6,0.2-1.2,0.7-1.7c0.5-0.4,1.1-0.7,1.8-0.6c0.3,0,0.6,0,0.9,0.1V49.2z"/>
			<path class="st1" d="M449.4,56.6c-0.4,0.2-0.8,0.2-1.2,0.2c-1.3,0-2-0.7-2-2V52h-1v-1.4h1v-1.3l1.8-0.5v1.8h1.4V52h-1.4v2.4
				c0,0.6,0.3,0.9,0.8,0.9c0.2,0,0.4-0.1,0.6-0.2V56.6z"/>
			<path class="st1" d="M401.8,64.1c-0.3,0-0.6-0.1-0.8-0.3c-0.2-0.2-0.3-0.4-0.3-0.7c0-0.3,0.1-0.5,0.3-0.7
				c0.2-0.2,0.5-0.3,0.8-0.3c0.3,0,0.6,0.1,0.8,0.3c0.2,0.2,0.3,0.4,0.3,0.7c0,0.3-0.1,0.5-0.3,0.7
				C402.4,64.1,402.1,64.2,401.8,64.1z M402.7,71.1h-1.9v-6h1.9V71.1z"/>
			<path class="st1" d="M410.2,71.1h-1.9v-0.8l0,0c-0.4,0.6-1.1,1-1.9,1c-0.7,0-1.4-0.3-1.8-0.8c-0.5-0.6-0.7-1.4-0.7-2.2
				c0-0.9,0.2-1.7,0.8-2.4c0.5-0.6,1.2-0.9,2-0.9c0.7-0.1,1.3,0.3,1.6,0.8l0,0v-3.6h1.9L410.2,71.1z M408.4,68.2v-0.4
				c0-0.4-0.1-0.7-0.3-1c-0.4-0.5-1.2-0.5-1.7-0.1c-0.1,0.1-0.1,0.1-0.2,0.2c-0.2,0.4-0.4,0.9-0.3,1.3c0,0.4,0.1,0.9,0.3,1.2
				c0.2,0.3,0.6,0.4,0.9,0.4c0.4,0,0.7-0.2,0.9-0.4C408.2,69,408.4,68.6,408.4,68.2L408.4,68.2z"/>
			<path class="st1" d="M417.1,68.6h-3.9c0.1,0.9,0.6,1.3,1.6,1.3c0.6,0,1.2-0.1,1.7-0.5v1.3c-0.7,0.3-1.4,0.5-2.2,0.4
				c-1.5,0.2-2.9-1-3.1-2.5c0-0.2,0-0.4,0-0.6c0-0.9,0.3-1.7,0.9-2.4c0.6-0.6,1.3-0.9,2.1-0.9c0.7,0,1.5,0.2,2,0.8
				c0.5,0.6,0.8,1.3,0.7,2.1L417.1,68.6z M415.4,67.5c0-0.9-0.3-1.3-1-1.3c-0.3,0-0.6,0.1-0.8,0.4c-0.2,0.3-0.4,0.6-0.4,0.9H415.4z"
				/>
			<path class="st1" d="M424.1,71.1h-1.9v-3.3c0-0.9-0.3-1.4-1-1.4c-0.3,0-0.6,0.1-0.8,0.4c-0.2,0.3-0.3,0.6-0.3,0.9v3.4h-1.8v-6
				h1.9v1l0,0c0.4-0.7,1.1-1.1,1.9-1.1c1.3,0,2,0.8,2,2.5L424.1,71.1z"/>
			<path class="st1" d="M429.1,71c-0.4,0.2-0.8,0.2-1.2,0.2c-1.3,0-2-0.7-2-2v-2.8h-1v-1.4h1v-1.3l1.8-0.5v1.8h1.4v1.4h-1.4v2.4
				c0,0.6,0.3,0.9,0.8,0.9c0.2,0,0.4-0.1,0.6-0.2V71z"/>
			<path class="st1" d="M431.2,64.1c-0.3,0-0.6-0.1-0.8-0.3c-0.2-0.2-0.3-0.4-0.3-0.7c0-0.3,0.1-0.5,0.3-0.7c0.5-0.3,1.1-0.3,1.5,0
				c0.2,0.2,0.3,0.4,0.3,0.7c0,0.3-0.1,0.5-0.3,0.7C431.7,64.1,431.5,64.2,431.2,64.1z M432.1,71.1h-1.9v-6h1.9V71.1z"/>
			<path class="st1" d="M437.2,71c-0.4,0.2-0.8,0.2-1.2,0.2c-1.3,0-2-0.7-2-2v-2.8h-1v-1.4h1v-1.3l1.8-0.5v1.8h1.4v1.4h-1.4v2.4
				c0,0.6,0.3,0.9,0.8,0.9c0.2,0,0.4-0.1,0.6-0.2V71z"/>
			<path class="st1" d="M444.2,65.1l-2.4,6.5c-0.6,1.6-1.5,2.3-2.6,2.3c-0.4,0-0.8,0-1.1-0.2v-1.5c0.2,0.1,0.5,0.2,0.8,0.2
				c0.4,0,0.9-0.3,1-0.7l0.3-0.7l-2.4-6h2l1.1,3.7c0.1,0.3,0.1,0.5,0.2,0.8l0,0c0-0.3,0.1-0.5,0.2-0.8l1.1-3.7L444.2,65.1z"/>
			<path class="st1" d="M399.9,84.8L399.9,84.8v3.5H398v-8.8h1.9v0.9l0,0c0.7-1.1,2.2-1.4,3.3-0.7c0.2,0.1,0.3,0.2,0.5,0.4
				c0.5,0.6,0.7,1.4,0.6,2.2c0,0.9-0.2,1.7-0.7,2.4c-0.5,0.6-1.2,0.9-2,0.9C400.8,85.6,400.2,85.3,399.9,84.8z M399.8,82.3v0.5
				c0,0.4,0.1,0.7,0.3,1c0.2,0.3,0.5,0.4,0.9,0.4c0.4,0,0.8-0.2,1-0.5c0.3-0.4,0.4-0.9,0.4-1.4c0-1-0.4-1.6-1.2-1.6
				c-0.4,0-0.7,0.1-0.9,0.4C400,81.5,399.8,81.9,399.8,82.3z"/>
			<path class="st1" d="M407.4,85.5h-1.9v-8.9h1.9V85.5z"/>
			<path class="st1" d="M413.9,85.5h-1.8v-0.9l0,0c-0.4,0.6-1,1-1.8,1c-0.5,0-1-0.2-1.4-0.5c-0.3-0.4-0.5-0.8-0.5-1.3
				c0-1.2,0.7-1.8,2.1-2l1.6-0.2c0-0.7-0.4-1-1.1-1c-0.7,0-1.4,0.2-2,0.6v-1.4c0.3-0.2,0.7-0.3,1.1-0.4c0.4-0.1,0.8-0.1,1.2-0.2
				c1.2-0.2,2.4,0.7,2.6,1.9c0,0.2,0,0.4,0,0.6L413.9,85.5z M412.2,83v-0.4l-1.1,0.1c-0.6,0.1-0.9,0.3-0.9,0.8
				c0,0.2,0.1,0.4,0.2,0.5c0.2,0.1,0.4,0.2,0.6,0.2c0.3,0,0.6-0.1,0.9-0.4C412.1,83.7,412.2,83.4,412.2,83z"/>
			<path class="st1" d="M418.9,85.4c-0.4,0.2-0.8,0.2-1.2,0.2c-1.3,0-2-0.7-2-2v-2.8h-1v-1.4h1v-1.3l1.9-0.5v1.8h1.3v1.4h-1.3v2.4
				c0,0.6,0.2,0.9,0.7,0.9c0.2,0,0.4-0.1,0.6-0.2L418.9,85.4z"/>
			<path class="st1" d="M424,78c-0.2-0.1-0.4-0.1-0.7-0.1c-0.6,0-0.9,0.3-0.9,1v0.6h1.4v1.4h-1.4v4.6h-1.9v-4.7h-1v-1.4h1v-0.8
				c0-0.6,0.2-1.2,0.7-1.7c0.5-0.4,1.2-0.7,1.8-0.6c0.3,0,0.6,0,0.9,0.1V78z"/>
			<path class="st1" d="M427.6,85.6c-0.9,0-1.7-0.3-2.4-0.8c-1.2-1.3-1.2-3.3,0-4.6c0.7-0.6,1.5-0.9,2.4-0.8
				c0.9-0.1,1.7,0.3,2.3,0.8c0.6,0.6,0.9,1.4,0.9,2.2c0,0.9-0.3,1.7-0.9,2.4C429.3,85.4,428.5,85.7,427.6,85.6z M427.7,80.8
				c-0.4,0-0.8,0.2-1,0.4c-0.3,0.4-0.4,0.8-0.4,1.3c0,1.2,0.5,1.7,1.4,1.7s1.3-0.6,1.3-1.8S428.6,80.8,427.7,80.8L427.7,80.8z"/>
			<path class="st1" d="M436,81.2c-0.2-0.1-0.5-0.2-0.8-0.2c-0.4,0-0.7,0.1-0.9,0.4c-0.2,0.4-0.4,0.8-0.3,1.2v2.9h-1.9v-6h1.9v1.1
				l0,0c0.2-0.7,0.8-1.2,1.6-1.2c0.2,0,0.3,0,0.5,0.1L436,81.2z"/>
			<path class="st1" d="M446.4,85.5h-1.9v-3.4c0-0.9-0.3-1.3-1-1.3c-0.3,0-0.6,0.1-0.7,0.4c-0.2,0.3-0.3,0.6-0.3,1v3.4h-1.8V82
				c0-0.8-0.3-1.3-0.9-1.3c-0.3,0-0.6,0.1-0.8,0.4c-0.2,0.3-0.3,0.6-0.3,1v3.3h-1.9v-6h1.9v0.9l0,0c0.2-0.3,0.5-0.6,0.8-0.8
				c0.3-0.2,0.7-0.3,1.1-0.3c0.8,0,1.5,0.4,1.7,1.1c0.4-0.7,1.2-1.1,2-1.1c1.3,0,2,0.8,2,2.4L446.4,85.5z"/>
		</g>
		<g>
			<path class="st5" d="M405.2,161.6h-1.9v-5c0-0.5,0-1.1,0.1-1.8h0c-0.1,0.4-0.2,0.7-0.3,1.1l-2,5.7h-1.5l-2-5.6
				c-0.1-0.2-0.1-0.6-0.3-1.2l0,0c0,0.8,0.1,1.6,0.1,2.2v4.6h-1.7v-8.4h2.8l1.7,5c0.1,0.4,0.2,0.8,0.3,1.2l0,0
				c0.1-0.4,0.2-0.8,0.3-1.2l1.7-5h2.7L405.2,161.6z"/>
			<path class="st5" d="M407.8,154.6c-0.3,0-0.6-0.1-0.8-0.3c-0.2-0.2-0.3-0.4-0.3-0.7c0-0.3,0.1-0.5,0.3-0.7
				c0.2-0.2,0.5-0.3,0.8-0.3c0.3,0,0.6,0.1,0.8,0.3c0.2,0.2,0.3,0.4,0.3,0.7c0,0.3-0.1,0.5-0.3,0.7
				C408.3,154.6,408.1,154.7,407.8,154.6z M408.7,161.6h-1.9v-6h1.9V161.6z"/>
			<path class="st5" d="M414.8,161.4c-0.6,0.3-1.2,0.4-1.8,0.4c-0.8,0-1.6-0.3-2.2-0.8c-0.6-0.6-0.9-1.4-0.9-2.2
				c0-0.9,0.3-1.8,0.9-2.4c0.7-0.6,1.5-0.9,2.5-0.9c0.5,0,1.1,0.1,1.5,0.3v1.6c-0.4-0.3-0.8-0.4-1.3-0.4c-0.5,0-0.9,0.1-1.3,0.5
				c-0.3,0.3-0.5,0.8-0.5,1.3c0,0.5,0.1,0.9,0.5,1.3c0.3,0.3,0.8,0.5,1.2,0.4c0.5,0,1-0.2,1.4-0.4L414.8,161.4z"/>
			<path class="st5" d="M420,157.3c-0.2-0.1-0.5-0.2-0.8-0.2c-0.4,0-0.7,0.2-0.9,0.4c-0.2,0.4-0.4,0.8-0.3,1.2v2.9h-1.9v-6h1.9v1.1
				l0,0c0.2-0.7,0.8-1.2,1.6-1.2c0.2,0,0.3,0,0.5,0.1L420,157.3z"/>
			<path class="st5" d="M423.8,161.8c-0.9,0-1.7-0.3-2.4-0.8c-1.2-1.3-1.2-3.3,0-4.6c0.7-0.6,1.5-0.9,2.4-0.8c0.9,0,1.7,0.3,2.3,0.8
				c0.6,0.6,0.9,1.4,0.9,2.2c0,0.9-0.3,1.7-0.9,2.4C425.5,161.5,424.7,161.8,423.8,161.8z M423.8,156.9c-0.4,0-0.8,0.2-1,0.4
				c-0.3,0.4-0.4,0.8-0.4,1.3c0,1.1,0.5,1.7,1.4,1.7s1.3-0.6,1.3-1.8S424.8,156.9,423.8,156.9L423.8,156.9z"/>
			<path class="st5" d="M427.9,161.4v-1.5c0.3,0.2,0.6,0.3,0.9,0.4c0.3,0.1,0.6,0.1,0.9,0.1c0.3,0,0.5,0,0.8-0.1
				c0.2-0.1,0.3-0.2,0.3-0.4c0-0.1,0-0.2-0.1-0.3c-0.1-0.1-0.2-0.2-0.3-0.2c-0.1-0.1-0.3-0.1-0.5-0.2l-0.5-0.2
				c-0.2-0.1-0.4-0.2-0.6-0.3c-0.2-0.1-0.3-0.2-0.5-0.4c-0.1-0.1-0.2-0.3-0.3-0.5c-0.1-0.2-0.1-0.4-0.1-0.6c0-0.3,0.1-0.6,0.2-0.9
				c0.1-0.2,0.3-0.4,0.6-0.6c0.3-0.2,0.5-0.3,0.8-0.3c0.3-0.1,0.7-0.1,1-0.1c0.3,0,0.5,0,0.8,0.1c0.3,0,0.5,0.1,0.8,0.2v1.4
				c-0.2-0.1-0.5-0.2-0.8-0.3c-0.3-0.1-0.5-0.1-0.8-0.1c-0.1,0-0.2,0-0.4,0c-0.1,0-0.2,0-0.3,0.1c-0.1,0-0.1,0.1-0.2,0.2
				c0,0.1-0.1,0.1-0.1,0.2c0,0.1,0,0.2,0.1,0.3c0.1,0.1,0.2,0.2,0.3,0.2c0.1,0.1,0.2,0.1,0.4,0.1l0.4,0.1c0.2,0.1,0.5,0.2,0.7,0.3
				c0.2,0.1,0.4,0.2,0.5,0.4c0.1,0.1,0.3,0.3,0.3,0.5c0.1,0.2,0.1,0.4,0.1,0.7c0,0.3-0.1,0.6-0.2,0.9c-0.2,0.3-0.4,0.5-0.6,0.6
				c-0.3,0.2-0.6,0.3-0.9,0.4c-0.3,0.1-0.7,0.1-1,0.1C429.2,161.7,428.5,161.6,427.9,161.4z"/>
			<path class="st5" d="M436.5,161.8c-0.9,0-1.7-0.3-2.4-0.8c-1.2-1.3-1.2-3.3,0-4.6c0.7-0.6,1.5-0.9,2.4-0.8
				c0.9-0.1,1.7,0.3,2.3,0.8c0.6,0.6,0.9,1.4,0.9,2.2c0,0.9-0.3,1.7-0.9,2.4C438.2,161.5,437.4,161.8,436.5,161.8z M436.5,156.9
				c-0.4,0-0.8,0.2-1,0.4c-0.3,0.4-0.4,0.8-0.4,1.3c0,1.1,0.5,1.7,1.4,1.7s1.3-0.6,1.3-1.8S437.5,156.9,436.5,156.9L436.5,156.9z"/>
			<path class="st5" d="M444.9,154.1c-0.2-0.1-0.4-0.1-0.7-0.1c-0.6,0-0.9,0.3-0.9,1v0.6h1.4v1.4h-1.4v4.6h-1.9V157h-1v-1.4h1v-0.7
				c0-0.6,0.2-1.2,0.7-1.6c0.5-0.4,1.1-0.7,1.8-0.6c0.3,0,0.6,0,0.9,0.1V154.1z"/>
			<path class="st5" d="M449.4,161.5c-0.4,0.2-0.8,0.2-1.2,0.2c-1.3,0-2-0.7-2-2V157h-1v-1.4h1v-1.3l1.8-0.5v1.8h1.4v1.4h-1.4v2.4
				c0,0.6,0.3,0.9,0.8,0.9c0.2,0,0.4-0.1,0.6-0.2V161.5z"/>
			<path class="st5" d="M401.5,175.4c-0.9,0.5-2,0.7-3.1,0.7c-1.2,0.1-2.3-0.3-3.2-1.1c-0.8-0.8-1.2-1.9-1.2-3.1
				c0-1.2,0.4-2.4,1.3-3.2c0.9-0.9,2.1-1.3,3.4-1.3c0.8,0,1.6,0.1,2.4,0.4v1.8c-0.7-0.4-1.6-0.6-2.4-0.6c-0.7,0-1.4,0.3-1.9,0.8
				c-0.5,0.5-0.8,1.3-0.7,2c0,0.7,0.2,1.4,0.7,2c0.5,0.5,1.1,0.7,1.8,0.7c0.4,0,0.7,0,1.1-0.2v-1.6h-1.7v-1.5h3.6V175.4z"/>
			<path class="st5" d="M406.9,171.7c-0.2-0.1-0.5-0.2-0.8-0.2c-0.4,0-0.7,0.1-1,0.4c-0.2,0.4-0.4,0.8-0.3,1.2v2.9H403v-6h1.9v1.1
				l0,0c0.2-0.7,0.8-1.2,1.6-1.2c0.2,0,0.3,0,0.5,0.1L406.9,171.7z"/>
			<path class="st5" d="M412.7,176h-1.8v-0.9l0,0c-0.4,0.6-1,1-1.8,1c-0.5,0-1-0.2-1.4-0.5c-0.3-0.4-0.5-0.8-0.5-1.3
				c0-1.2,0.7-1.8,2.1-2l1.6-0.2c0-0.7-0.4-1-1.1-1c-0.7,0-1.4,0.2-2,0.6v-1.4c0.3-0.2,0.7-0.3,1.1-0.4c0.4-0.1,0.8-0.1,1.2-0.1
				c1.2-0.2,2.4,0.7,2.6,1.9c0,0.2,0,0.4,0,0.6L412.7,176z M410.9,173.6v-0.4l-1.1,0.1c-0.6,0.1-0.9,0.4-0.9,0.8
				c0,0.2,0.1,0.4,0.2,0.5c0.2,0.1,0.4,0.2,0.6,0.2c0.3,0,0.6-0.1,0.9-0.4C410.8,174.2,410.9,173.9,410.9,173.6L410.9,173.6z"/>
			<path class="st5" d="M416,175.3L416,175.3v3.5h-1.9V170h1.9v0.9l0,0c0.7-1.1,2.2-1.4,3.3-0.6c0.2,0.1,0.3,0.2,0.5,0.4
				c0.5,0.6,0.7,1.4,0.6,2.2c0,0.9-0.2,1.7-0.7,2.4c-0.5,0.6-1.2,0.9-2,0.9C417,176.2,416.4,175.8,416,175.3z M415.9,172.8v0.5
				c0,0.4,0.1,0.7,0.3,1c0.2,0.3,0.5,0.4,0.9,0.4c0.4,0,0.8-0.2,1-0.5c0.3-0.4,0.4-0.9,0.3-1.4c0-1.1-0.4-1.6-1.2-1.6
				c-0.4,0-0.7,0.2-0.9,0.4C416.1,172,416,172.4,415.9,172.8L415.9,172.8z"/>
			<path class="st5" d="M427.4,176h-1.9v-3.4c0-0.9-0.3-1.3-1-1.3c-0.3,0-0.6,0.1-0.8,0.4c-0.2,0.3-0.3,0.6-0.3,0.9v3.4h-1.8v-8.9
				h1.9v3.8l0,0c0.4-0.6,1.1-1,1.9-1c1.3,0,2,0.8,2,2.5L427.4,176z"/>
			<path class="st5" d="M439.7,176h-2.1l-0.6-1.9h-3l-0.6,1.9h-2l3.1-8.4h2.2L439.7,176z M436.6,172.7l-0.9-2.8
				c-0.1-0.2-0.1-0.5-0.1-0.8h0c0,0.2-0.1,0.5-0.1,0.7l-0.9,2.9H436.6z"/>
			<path class="st5" d="M442.5,173.1v2.9h-1.9v-8.4h3c2.1,0,3.2,0.9,3.2,2.7c0,0.8-0.3,1.5-0.9,2.1c-0.7,0.5-1.6,0.8-2.4,0.8H442.5z
				 M442.5,169.1v2.6h0.7c1,0,1.5-0.4,1.5-1.3s-0.5-1.3-1.5-1.3L442.5,169.1z"/>
			<path class="st5" d="M449.8,176h-1.9v-8.4h1.9V176z"/>
		</g>
		
			<use xlink:href="#New_Symbol_41"  width="20" height="20" x="-10" y="-10" transform="matrix(1 0 0 1 168.91 15.41)" style="overflow:visible;"/>
		
			<use xlink:href="#New_Symbol_42"  width="20" height="20" x="-10" y="-10" transform="matrix(1 0 0 1 168.91 45.29)" style="overflow:visible;"/>
		<g>
			<path class="st14" d="M192,69.3h-1.1L190,67h-3.6l-0.8,2.4h-1.1l3.2-8.4h1L192,69.3z M189.7,66.1l-1.3-3.6
				c-0.1-0.2-0.1-0.4-0.1-0.6l0,0c0,0.2-0.1,0.4-0.1,0.6l-1.3,3.6H189.7z"/>
			<path class="st14" d="M197.1,69c-0.5,0.3-1.1,0.4-1.6,0.4c-0.8,0-1.5-0.3-2.1-0.8c-0.5-0.6-0.8-1.4-0.8-2.2
				c0-0.9,0.3-1.7,0.9-2.4c0.6-0.6,1.4-0.9,2.3-0.9c0.5,0,1,0.1,1.4,0.3v1c-0.4-0.3-0.9-0.5-1.4-0.5c-0.6,0-1.1,0.2-1.5,0.7
				c-0.4,0.5-0.6,1.1-0.6,1.7c0,0.6,0.2,1.2,0.6,1.7c0.4,0.4,0.9,0.6,1.5,0.6c0.5,0,1.1-0.2,1.5-0.5L197.1,69z"/>
			<path class="st14" d="M203.5,72.1h-1v-3.8l0,0c-0.4,0.8-1.2,1.2-2.1,1.2c-0.7,0-1.4-0.3-1.8-0.8c-0.5-0.6-0.7-1.4-0.7-2.2
				c0-0.9,0.2-1.7,0.8-2.4c0.5-0.6,1.2-0.9,2-0.9c0.7,0,1.4,0.3,1.8,1l0,0v-0.8h1L203.5,72.1z M202.5,66.6v-0.9
				c0-0.5-0.2-0.9-0.5-1.3c-0.3-0.3-0.8-0.5-1.2-0.5c-0.5,0-1,0.2-1.4,0.6c-0.4,0.5-0.5,1.2-0.5,1.8c0,0.6,0.1,1.2,0.5,1.6
				c0.3,0.4,0.8,0.6,1.3,0.6c0.5,0,1-0.2,1.3-0.6C202.4,67.7,202.6,67.2,202.5,66.6L202.5,66.6z"/>
			<path class="st14" d="M210.2,69.3h-1v-0.9l0,0c-0.4,0.7-1.1,1.1-1.9,1.1c-1.4,0-2.1-0.8-2.1-2.6v-3.6h1v3.4
				c0,1.3,0.5,1.9,1.4,1.9c0.4,0,0.9-0.2,1.2-0.5c0.3-0.4,0.5-0.9,0.4-1.4v-3.5h1L210.2,69.3z"/>
			<path class="st14" d="M212.6,61.8c-0.3,0-0.6-0.3-0.6-0.6c0-0.2,0.1-0.3,0.2-0.5c0.1-0.1,0.3-0.2,0.4-0.2c0.2,0,0.3,0.1,0.4,0.2
				c0.1,0.1,0.2,0.3,0.2,0.5c0,0.2-0.1,0.3-0.2,0.4C212.9,61.7,212.7,61.8,212.6,61.8z M213,69.3h-1v-6h1V69.3z"/>
			<path class="st14" d="M218,64.3c-0.2-0.1-0.5-0.2-0.7-0.2c-0.4,0-0.8,0.2-1,0.6c-0.3,0.5-0.5,1-0.4,1.6v3.1h-1v-6h1v1.2l0,0
				c0.1-0.4,0.3-0.7,0.6-1c0.3-0.2,0.6-0.4,1-0.4c0.2,0,0.4,0,0.6,0.1L218,64.3z"/>
			<path class="st14" d="M223.9,66.6h-4.2c0,0.6,0.2,1.1,0.5,1.5c0.4,0.4,0.9,0.6,1.4,0.6c0.7,0,1.3-0.2,1.9-0.7v0.9
				c-0.6,0.4-1.3,0.6-2.1,0.6c-0.8,0-1.5-0.3-2-0.8c-0.5-0.7-0.8-1.5-0.7-2.3c0-0.8,0.2-1.6,0.8-2.3c0.5-0.6,1.2-0.9,2-0.9
				c0.7,0,1.4,0.2,1.8,0.8c0.5,0.6,0.7,1.4,0.6,2.1L223.9,66.6z M222.9,65.7c0-0.5-0.1-0.9-0.4-1.3c-0.3-0.3-0.7-0.5-1.1-0.5
				c-0.4,0-0.9,0.2-1.2,0.5c-0.3,0.3-0.5,0.8-0.6,1.3L222.9,65.7z"/>
			<path class="st14" d="M231.4,69.3c-0.3,0.1-0.6,0.2-0.9,0.2c-1,0-1.6-0.6-1.6-1.8v-3.6h-1v-0.8h1v-1.5l1-0.3v1.8h1.5v0.8h-1.5
				v3.4c0,0.3,0,0.6,0.2,0.9c0.2,0.2,0.4,0.3,0.7,0.3c0.2,0,0.4-0.1,0.6-0.2L231.4,69.3z"/>
			<path class="st14" d="M235,69.5c-0.8,0-1.6-0.3-2.1-0.8c-0.5-0.6-0.8-1.4-0.8-2.2c-0.1-0.9,0.2-1.7,0.8-2.4
				c0.6-0.6,1.4-0.9,2.2-0.8c0.8,0,1.6,0.3,2.1,0.8c0.5,0.6,0.8,1.5,0.8,2.3c0,0.8-0.2,1.7-0.8,2.3C236.6,69.2,235.8,69.5,235,69.5z
				 M235.1,64c-0.6,0-1.1,0.2-1.5,0.6c-0.4,0.5-0.6,1.1-0.5,1.7c0,0.6,0.2,1.2,0.5,1.7c0.4,0.4,0.9,0.6,1.5,0.6
				c0.5,0,1.1-0.2,1.4-0.6c0.4-0.5,0.5-1.1,0.5-1.7c0-0.6-0.1-1.2-0.5-1.7C236.2,64.2,235.6,64,235.1,64z"/>
			<path class="st14" d="M244.5,69.3h-1.4l-2.6-2.9l0,0v2.9h-1v-8.9h1v5.6l0,0l2.5-2.7h1.3l-2.8,2.9L244.5,69.3z"/>
			<path class="st14" d="M250,66.6h-4.2c0,0.6,0.2,1.1,0.5,1.5c0.4,0.4,0.9,0.6,1.4,0.6c0.7,0,1.3-0.2,1.9-0.7v0.9
				c-0.6,0.4-1.3,0.6-2.1,0.6c-0.8,0-1.5-0.3-2-0.8c-0.5-0.7-0.8-1.5-0.7-2.3c0-0.8,0.2-1.6,0.8-2.3c0.5-0.6,1.2-0.9,2-0.9
				c0.7,0,1.4,0.2,1.8,0.8c0.5,0.6,0.7,1.4,0.6,2.1L250,66.6z M249,65.7c0-0.5-0.1-0.9-0.4-1.3c-0.3-0.3-0.7-0.5-1.1-0.5
				c-0.4,0-0.9,0.2-1.2,0.5c-0.3,0.3-0.5,0.8-0.6,1.3L249,65.7z"/>
			<path class="st14" d="M256.4,69.3h-1v-3.4c0-1.3-0.5-1.9-1.4-1.9c-0.5,0-0.9,0.2-1.2,0.5c-0.3,0.4-0.5,0.9-0.5,1.4v3.4h-1v-6h1v1
				l0,0c0.4-0.7,1.2-1.2,2-1.1c0.6,0,1.1,0.2,1.5,0.6c0.4,0.5,0.6,1.2,0.5,1.8L256.4,69.3z"/>
		</g>
		<g>
			<path class="st14" d="M212.6,98.2h-1.1l-0.9-2.4h-3.6l-0.8,2.4h-1.1l3.2-8.4h1L212.6,98.2z M210.3,95l-1.3-3.6
				c-0.1-0.2-0.1-0.4-0.1-0.6l0,0c0,0.2-0.1,0.4-0.1,0.6l-1.4,3.6H210.3z"/>
			<path class="st14" d="M217.7,97.9c-0.5,0.3-1.1,0.4-1.6,0.4c-0.8,0-1.5-0.3-2.1-0.8c-0.5-0.6-0.8-1.4-0.8-2.2
				c0-0.9,0.3-1.7,0.8-2.3c0.6-0.6,1.4-0.9,2.3-0.9c0.5,0,1,0.1,1.4,0.3v1c-0.4-0.3-0.9-0.5-1.4-0.5c-0.6,0-1.1,0.2-1.5,0.7
				c-0.4,0.5-0.6,1.1-0.6,1.7c0,0.6,0.2,1.2,0.6,1.7c0.4,0.4,0.9,0.6,1.5,0.6c0.5,0,1.1-0.2,1.5-0.5L217.7,97.9z"/>
			<path class="st14" d="M223.1,97.9c-0.5,0.3-1.1,0.4-1.6,0.4c-0.8,0-1.5-0.3-2.1-0.8c-0.5-0.6-0.8-1.4-0.8-2.2
				c0-0.9,0.3-1.7,0.9-2.4c0.6-0.6,1.4-0.9,2.3-0.9c0.5,0,1,0.1,1.4,0.3v1c-0.4-0.3-0.9-0.5-1.4-0.5c-0.6,0-1.1,0.2-1.5,0.7
				c-0.4,0.5-0.6,1.1-0.6,1.7c0,0.6,0.2,1.2,0.6,1.7c0.4,0.4,0.9,0.6,1.5,0.6c0.5,0,1.1-0.2,1.5-0.5L223.1,97.9z"/>
			<path class="st14" d="M229.2,95.4H225c0,0.6,0.2,1.1,0.5,1.5c0.4,0.4,0.9,0.6,1.4,0.6c0.7,0,1.3-0.2,1.9-0.7v0.9
				c-0.6,0.4-1.3,0.6-2.1,0.6c-0.8,0-1.5-0.3-2-0.8c-1-1.4-0.9-3.2,0.1-4.5c0.5-0.6,1.2-0.9,2-0.9c0.7,0,1.4,0.2,1.8,0.8
				c0.5,0.6,0.7,1.4,0.6,2.1L229.2,95.4z M228.2,94.6c0-0.5-0.1-0.9-0.4-1.3c-0.3-0.3-0.7-0.5-1.1-0.5c-0.4,0-0.9,0.2-1.1,0.5
				c-0.3,0.3-0.5,0.8-0.6,1.3H228.2z"/>
			<path class="st14" d="M230.3,98v-1c0.5,0.4,1.1,0.6,1.7,0.6c0.8,0,1.3-0.3,1.3-0.8c0-0.1,0-0.3-0.1-0.4c-0.1-0.1-0.2-0.2-0.3-0.3
				c-0.1-0.1-0.3-0.2-0.4-0.2l-0.5-0.2c-0.3-0.1-0.5-0.2-0.7-0.3c-0.2-0.1-0.4-0.2-0.5-0.4c-0.1-0.1-0.2-0.3-0.3-0.5
				c-0.1-0.2-0.1-0.4-0.1-0.6c0-0.3,0.1-0.5,0.2-0.8c0.1-0.2,0.3-0.4,0.5-0.5c0.2-0.2,0.5-0.3,0.7-0.3c0.3-0.1,0.6-0.1,0.9-0.1
				c0.5,0,1,0.1,1.4,0.3v1c-0.5-0.3-1-0.4-1.5-0.4c-0.2,0-0.3,0-0.5,0.1c-0.1,0-0.3,0.1-0.4,0.2c-0.1,0.1-0.2,0.2-0.2,0.3
				c-0.1,0.1-0.1,0.2-0.1,0.3c0,0.1,0,0.3,0.1,0.4c0.1,0.1,0.1,0.2,0.3,0.3c0.1,0.1,0.3,0.2,0.4,0.2l0.5,0.2
				c0.2,0.1,0.5,0.2,0.7,0.3c0.2,0.1,0.4,0.2,0.5,0.4c0.1,0.1,0.3,0.3,0.4,0.5c0.1,0.2,0.1,0.4,0.1,0.6c0,0.3-0.1,0.5-0.2,0.8
				c-0.1,0.2-0.3,0.4-0.5,0.5c-0.2,0.1-0.5,0.3-0.8,0.3c-0.3,0.1-0.6,0.1-0.9,0.1C231.4,98.4,230.8,98.3,230.3,98z"/>
			<path class="st14" d="M235.4,98v-1c0.5,0.4,1.1,0.6,1.7,0.6c0.8,0,1.3-0.3,1.3-0.8c0-0.1,0-0.3-0.1-0.4c-0.1-0.1-0.2-0.2-0.3-0.3
				c-0.1-0.1-0.3-0.2-0.4-0.2l-0.5-0.2c-0.3-0.1-0.5-0.2-0.7-0.3c-0.2-0.1-0.4-0.2-0.5-0.4c-0.1-0.1-0.2-0.3-0.3-0.5
				c-0.1-0.2-0.1-0.4-0.1-0.6c0-0.3,0.1-0.5,0.2-0.8c0.1-0.2,0.3-0.4,0.5-0.5c0.2-0.2,0.5-0.3,0.7-0.3c0.3-0.1,0.6-0.1,0.9-0.1
				c0.5,0,1,0.1,1.4,0.3v1c-0.5-0.3-1-0.4-1.5-0.4c-0.2,0-0.3,0-0.5,0.1c-0.1,0-0.3,0.1-0.4,0.2c-0.1,0.1-0.2,0.2-0.2,0.3
				c-0.1,0.1-0.1,0.2-0.1,0.3c0,0.1,0,0.3,0.1,0.4c0.1,0.1,0.1,0.2,0.3,0.3c0.1,0.1,0.3,0.2,0.4,0.2l0.5,0.2
				c0.2,0.1,0.5,0.2,0.7,0.3c0.2,0.1,0.4,0.2,0.5,0.4c0.3,0.3,0.5,0.7,0.5,1.1c0,0.3-0.1,0.5-0.2,0.8c-0.1,0.2-0.3,0.4-0.5,0.5
				c-0.2,0.1-0.5,0.3-0.8,0.3c-0.3,0.1-0.6,0.1-0.9,0.1C236.4,98.4,235.9,98.3,235.4,98z"/>
			<path class="st14" d="M246.9,98.2c-0.3,0.1-0.6,0.2-0.9,0.2c-1.1,0-1.6-0.6-1.6-1.8V93h-1v-0.8h1v-1.4l1-0.3v1.8h1.5V93h-1.5v3.4
				c0,0.3,0,0.6,0.2,0.9c0.2,0.2,0.4,0.3,0.7,0.3c0.2,0,0.4-0.1,0.6-0.2L246.9,98.2z"/>
			<path class="st14" d="M250.6,98.3c-0.8,0-1.6-0.3-2.1-0.8c-0.5-0.6-0.8-1.4-0.8-2.2c-0.1-0.9,0.2-1.7,0.8-2.4
				c0.6-0.6,1.4-0.9,2.2-0.8c0.8,0,1.5,0.3,2.1,0.8c0.5,0.6,0.8,1.5,0.8,2.3c0,0.8-0.2,1.7-0.8,2.3
				C252.2,98.1,251.4,98.4,250.6,98.3z M250.7,92.9c-0.6,0-1.1,0.2-1.5,0.6c-0.4,0.5-0.6,1.1-0.5,1.7c0,0.6,0.2,1.2,0.6,1.7
				c0.4,0.4,0.9,0.6,1.5,0.6c0.5,0,1.1-0.2,1.4-0.6c0.4-0.5,0.5-1.1,0.5-1.7c0-0.6-0.1-1.2-0.5-1.7
				C251.7,93.1,251.2,92.8,250.7,92.9z"/>
			<path class="st14" d="M260,98.2h-1.3l-2.7-2.9l0,0v2.9h-1v-8.9h1V95l0,0l2.5-2.8h1.3l-2.8,2.8L260,98.2z"/>
			<path class="st14" d="M265.5,95.4h-4.2c0,0.6,0.2,1.1,0.5,1.5c0.4,0.4,0.9,0.6,1.4,0.6c0.7,0,1.3-0.2,1.9-0.7v0.9
				c-0.6,0.4-1.4,0.6-2.1,0.6c-0.8,0-1.5-0.3-2-0.8c-1-1.4-1-3.2,0.1-4.6c0.5-0.6,1.2-0.9,2-0.9c0.7,0,1.4,0.2,1.8,0.8
				c0.5,0.6,0.7,1.4,0.6,2.1L265.5,95.4z M264.5,94.6c0-0.5-0.1-0.9-0.4-1.3c-0.3-0.3-0.7-0.5-1.1-0.5c-0.4,0-0.9,0.2-1.2,0.5
				c-0.3,0.4-0.5,0.8-0.6,1.3H264.5z"/>
			<path class="st14" d="M272,98.2h-1v-3.4c0-1.3-0.5-1.9-1.4-1.9c-0.5,0-0.9,0.2-1.2,0.5c-0.3,0.4-0.5,0.9-0.5,1.4v3.4h-1v-6h1v1
				l0,0c0.4-0.7,1.2-1.2,2-1.1c0.6,0,1.1,0.2,1.5,0.6c0.4,0.5,0.6,1.2,0.5,1.8L272,98.2z"/>
		</g>
		<g>
			<polygon class="st8" points="192.6,133.8 185,139.2 187.9,148 197.2,148 200.1,139.2 			"/>
			<g>
				<g>
					<path class="st14" d="M213,147.2h-1.1l-0.9-2.4h-3.6l-0.8,2.4h-1.1l3.2-8.4h1L213,147.2z M210.7,144l-1.3-3.6
						c-0.1-0.2-0.1-0.4-0.1-0.6l0,0c0,0.2-0.1,0.4-0.1,0.6l-1.4,3.6L210.7,144z"/>
					<path class="st14" d="M218,147c-0.5,0.3-1.1,0.4-1.6,0.4c-0.8,0-1.5-0.3-2.1-0.8c-0.5-0.6-0.8-1.4-0.8-2.2
						c0-0.9,0.3-1.7,0.9-2.4c0.6-0.6,1.4-0.9,2.3-0.9c0.5,0,1,0.1,1.4,0.3v1c-0.4-0.3-0.9-0.5-1.4-0.5c-0.6,0-1.1,0.2-1.5,0.7
						c-0.4,0.5-0.6,1.1-0.6,1.7c0,0.6,0.2,1.2,0.6,1.7c0.4,0.4,0.9,0.6,1.5,0.6c0.5,0,1.1-0.2,1.5-0.6V147z"/>
					<path class="st14" d="M223.4,147c-0.5,0.3-1.1,0.4-1.6,0.4c-0.8,0-1.5-0.3-2.1-0.8c-0.5-0.6-0.8-1.4-0.8-2.2
						c0-0.9,0.3-1.7,0.9-2.4c0.6-0.6,1.4-0.9,2.3-0.9c0.5,0,1,0.1,1.4,0.3v1c-0.4-0.3-0.9-0.5-1.4-0.5c-0.6,0-1.1,0.2-1.5,0.7
						c-0.4,0.5-0.6,1.1-0.6,1.7c0,0.6,0.2,1.2,0.6,1.7c0.4,0.4,0.9,0.6,1.5,0.6c0.5,0,1.1-0.2,1.5-0.5L223.4,147z"/>
					<path class="st14" d="M229.6,144.5h-4.2c0,0.6,0.2,1.1,0.5,1.6c0.4,0.4,0.9,0.6,1.4,0.5c0.7,0,1.3-0.2,1.9-0.7v0.9
						c-0.6,0.4-1.4,0.6-2.1,0.6c-0.8,0-1.5-0.3-2-0.8c-0.5-0.7-0.8-1.5-0.7-2.3c0-0.8,0.2-1.6,0.8-2.3c0.5-0.6,1.2-0.9,2-0.9
						c0.7,0,1.4,0.2,1.8,0.8c0.5,0.6,0.7,1.4,0.6,2.1L229.6,144.5z M228.6,143.7c0-0.5-0.1-0.9-0.4-1.3c-0.3-0.3-0.7-0.5-1.1-0.5
						c-0.4,0-0.8,0.2-1.1,0.5c-0.3,0.4-0.5,0.8-0.6,1.3L228.6,143.7z"/>
					<path class="st14" d="M230.6,147v-1c0.5,0.4,1.1,0.6,1.7,0.6c0.8,0,1.3-0.3,1.3-0.8c0-0.1,0-0.3-0.1-0.4
						c-0.1-0.1-0.2-0.2-0.3-0.3c-0.1-0.1-0.3-0.2-0.4-0.2l-0.5-0.2c-0.2-0.1-0.5-0.2-0.7-0.3c-0.2-0.1-0.4-0.2-0.5-0.4
						c-0.1-0.1-0.2-0.3-0.3-0.5c-0.1-0.2-0.1-0.4-0.1-0.6c0-0.3,0.1-0.5,0.2-0.7c0.1-0.2,0.3-0.4,0.5-0.6c0.2-0.1,0.5-0.3,0.7-0.3
						c0.3-0.1,0.6-0.1,0.9-0.1c0.5,0,1,0.1,1.4,0.3v1c-0.5-0.3-1-0.4-1.5-0.4c-0.2,0-0.3,0-0.5,0.1c-0.1,0-0.3,0.1-0.4,0.2
						c-0.1,0.1-0.2,0.2-0.2,0.3c-0.1,0.1-0.1,0.2-0.1,0.3c0,0.1,0,0.3,0.1,0.4c0.1,0.1,0.1,0.2,0.3,0.3c0.1,0.1,0.3,0.2,0.4,0.2
						l0.5,0.2c0.2,0.1,0.5,0.2,0.7,0.3c0.2,0.1,0.4,0.2,0.5,0.4c0.1,0.1,0.3,0.3,0.3,0.5c0.1,0.2,0.1,0.4,0.1,0.6
						c0,0.3-0.1,0.5-0.2,0.8c-0.1,0.2-0.3,0.4-0.5,0.5c-0.2,0.2-0.5,0.3-0.8,0.3c-0.3,0.1-0.6,0.1-0.9,0.1
						C231.7,147.4,231.1,147.3,230.6,147z"/>
					<path class="st14" d="M235.7,147v-1c0.5,0.4,1.1,0.6,1.7,0.6c0.9,0,1.3-0.3,1.3-0.8c0-0.1,0-0.3-0.1-0.4
						c-0.1-0.1-0.2-0.2-0.3-0.3c-0.1-0.1-0.3-0.2-0.4-0.2l-0.5-0.2c-0.2-0.1-0.5-0.2-0.7-0.3c-0.2-0.1-0.4-0.2-0.5-0.4
						c-0.1-0.1-0.2-0.3-0.3-0.5c-0.1-0.2-0.1-0.4-0.1-0.6c0-0.3,0.1-0.5,0.2-0.7c0.1-0.2,0.3-0.4,0.5-0.6c0.2-0.1,0.5-0.3,0.7-0.3
						c0.7-0.2,1.5-0.1,2.3,0.2v1c-0.5-0.3-1-0.4-1.5-0.4c-0.2,0-0.3,0-0.5,0.1c-0.1,0-0.3,0.1-0.4,0.2c-0.1,0.1-0.2,0.2-0.2,0.3
						c-0.1,0.1-0.1,0.2-0.1,0.3c0,0.1,0,0.3,0.1,0.4c0.1,0.1,0.1,0.2,0.2,0.3c0.1,0.1,0.3,0.2,0.4,0.2l0.5,0.2
						c0.2,0.1,0.5,0.2,0.7,0.3c0.2,0.1,0.4,0.2,0.5,0.4c0.1,0.1,0.3,0.3,0.3,0.5c0.1,0.2,0.1,0.4,0.1,0.6c0,0.3-0.1,0.5-0.2,0.8
						c-0.1,0.2-0.3,0.4-0.5,0.5c-0.2,0.2-0.5,0.3-0.8,0.3c-0.3,0.1-0.6,0.1-0.9,0.1C236.8,147.4,236.2,147.3,235.7,147z"/>
					<path class="st14" d="M247.3,147.2c-0.3,0.1-0.6,0.2-0.9,0.2c-1.1,0-1.6-0.6-1.6-1.8V142h-1v-0.8h1v-1.5l1-0.3v1.8h1.5v0.8
						h-1.5v3.4c0,0.3,0,0.6,0.2,0.9c0.2,0.2,0.4,0.3,0.7,0.3c0.2,0,0.4-0.1,0.6-0.2L247.3,147.2z"/>
					<path class="st14" d="M250.9,147.4c-0.8,0-1.6-0.3-2.1-0.8c-0.5-0.6-0.8-1.4-0.8-2.2c0-0.9,0.2-1.7,0.8-2.4
						c0.6-0.6,1.4-0.9,2.2-0.9c0.8,0,1.5,0.3,2.1,0.8c0.5,0.6,0.8,1.5,0.8,2.3c0,0.8-0.3,1.7-0.8,2.3
						C252.5,147.1,251.7,147.4,250.9,147.4z M251,141.9c-0.6,0-1.1,0.2-1.5,0.6c-0.4,0.5-0.6,1.1-0.5,1.7c0,0.6,0.2,1.2,0.6,1.7
						c0.4,0.4,0.9,0.6,1.5,0.6c0.5,0,1.1-0.2,1.4-0.6c0.7-1.1,0.7-2.4,0-3.4C252.1,142.1,251.5,141.9,251,141.9z"/>
					<path class="st14" d="M260.4,147.2H259l-2.6-2.9l0,0v2.9h-1v-8.9h1v5.7l0,0l2.5-2.8h1.3l-2.8,2.9L260.4,147.2z"/>
					<path class="st14" d="M265.9,144.5h-4.2c0,0.6,0.2,1.1,0.5,1.6c0.4,0.4,0.9,0.6,1.4,0.5c0.7,0,1.3-0.2,1.9-0.7v0.9
						c-0.6,0.4-1.4,0.6-2.1,0.6c-0.8,0-1.5-0.3-2-0.8c-0.5-0.6-0.8-1.5-0.7-2.3c0-0.8,0.3-1.6,0.8-2.3c0.5-0.6,1.2-0.9,2-0.9
						c0.7,0,1.4,0.2,1.8,0.8c0.5,0.6,0.7,1.4,0.6,2.1L265.9,144.5z M264.9,143.7c0-0.5-0.1-0.9-0.4-1.3c-0.3-0.3-0.7-0.5-1.1-0.5
						c-0.4,0-0.9,0.2-1.1,0.5c-0.3,0.3-0.5,0.8-0.6,1.3L264.9,143.7z"/>
					<path class="st14" d="M272.3,147.2h-1v-3.4c0-1.3-0.5-1.9-1.4-1.9c-0.5,0-0.9,0.2-1.2,0.5c-0.3,0.4-0.5,0.9-0.5,1.4v3.4h-1v-6
						h1v1l0,0c0.4-0.7,1.2-1.2,2-1.1c0.6,0,1.1,0.2,1.5,0.6c0.4,0.5,0.6,1.2,0.5,1.8L272.3,147.2z"/>
				</g>
				<g>
					<path class="st14" d="M212.8,133h-1v-3.8h-4.4v3.8h-1v-8.4h1v3.7h4.4v-3.7h1V133z"/>
					<path class="st14" d="M219.8,125.5h-2.4v7.5h-1v-7.5H214v-0.9h5.8L219.8,125.5z"/>
					<path class="st14" d="M226.4,125.5H224v7.5h-1v-7.5h-2.4v-0.9h5.8V125.5z"/>
					<path class="st14" d="M228.6,129.8v3.2h-1v-8.4h2.3c0.8-0.1,1.5,0.2,2.1,0.7c0.5,0.5,0.8,1.2,0.7,1.8c0,0.8-0.3,1.5-0.8,2
						c-0.6,0.5-1.4,0.8-2.2,0.8L228.6,129.8z M228.6,125.5v3.5h1c0.6,0,1.1-0.1,1.6-0.5c0.4-0.3,0.6-0.8,0.5-1.3
						c0-1.1-0.7-1.7-2-1.7L228.6,125.5z"/>
					<path class="st14" d="M243.9,132.4c-0.9,0.5-1.8,0.7-2.8,0.7c-1.1,0-2.1-0.4-2.9-1.2c-0.8-0.8-1.2-1.9-1.1-3.1
						c0-1.2,0.4-2.3,1.2-3.2c0.8-0.8,2-1.3,3.1-1.3c0.8,0,1.6,0.1,2.3,0.4v1.1c-0.7-0.4-1.6-0.7-2.4-0.7c-0.9,0-1.7,0.3-2.3,1
						c-1.2,1.5-1.2,3.5-0.1,5c0.6,0.6,1.4,1,2.3,0.9c0.6,0,1.2-0.1,1.7-0.4v-2.4h-1.8v-0.9h2.8L243.9,132.4z"/>
					<path class="st14" d="M250.2,133h-4.4v-8.4h4.3v0.9h-3.3v2.8h3v0.9h-3v2.9h3.5V133z"/>
					<path class="st14" d="M256.9,125.5h-2.4v7.5h-1v-7.5h-2.4v-0.9h5.8L256.9,125.5z"/>
					<path class="st14" d="M267.3,129.9h-2.4v2.4h-0.8v-2.4h-2.4v-0.8h2.4v-2.4h0.8v2.4h2.4V129.9z"/>
				</g>
			</g>
		</g>
		
			<use xlink:href="#New_Symbol_45"  width="20" height="20" x="-10" y="-10" transform="matrix(1 0 0 1 168.91 155.21)" style="overflow:visible;"/>
		
			<use xlink:href="#New_Symbol_44"  width="20" height="20" x="-10" y="-10" transform="matrix(1 0 0 1 168.91 105.67)" style="overflow:visible;"/>
		
			<use xlink:href="#New_Symbol_43"  width="20" height="20" x="-10" y="-10" transform="matrix(1 0 0 1 168.91 74.93)" style="overflow:visible;"/>
		<g>
			<path class="st14" d="M191.8,190.2h-1v-3.8h-4.4v3.8h-1v-8.4h1v3.7h4.4v-3.7h1V190.2z"/>
			<path class="st14" d="M198.8,182.7h-2.4v7.5h-1v-7.5H193v-0.9h5.8L198.8,182.7z"/>
			<path class="st14" d="M205.4,182.7H203v7.5h-1v-7.5h-2.4v-0.9h5.8L205.4,182.7z"/>
			<path class="st14" d="M207.6,187v3.2h-1v-8.4h2.4c0.8-0.1,1.5,0.2,2.1,0.7c0.5,0.5,0.8,1.2,0.7,1.9c0,0.8-0.3,1.5-0.8,2
				c-0.6,0.5-1.4,0.8-2.2,0.8L207.6,187z M207.6,182.7v3.4h1c0.6,0,1.1-0.1,1.6-0.5c0.4-0.3,0.6-0.8,0.5-1.3c0-1.1-0.7-1.7-2-1.7
				H207.6z"/>
			<path class="st14" d="M219.6,185.2c-0.2-0.1-0.5-0.2-0.7-0.2c-0.4,0-0.8,0.2-1,0.6c-0.3,0.5-0.4,1-0.4,1.6v3.1h-1v-6h1v1.2l0,0
				c0.1-0.4,0.3-0.7,0.6-1c0.3-0.2,0.6-0.4,0.9-0.4c0.2,0,0.4,0,0.6,0.1L219.6,185.2z"/>
			<path class="st14" d="M225.5,187.4h-4.2c0,0.6,0.2,1.1,0.5,1.5c0.4,0.4,0.9,0.6,1.4,0.6c0.7,0,1.3-0.2,1.9-0.7v0.9
				c-0.6,0.4-1.3,0.6-2.1,0.6c-0.8,0-1.5-0.3-2-0.8c-0.5-0.6-0.8-1.5-0.7-2.3c0-0.8,0.3-1.6,0.8-2.3c0.5-0.6,1.2-0.9,2-0.9
				c0.7,0,1.4,0.2,1.8,0.8c0.5,0.6,0.7,1.4,0.6,2.1L225.5,187.4z M224.5,186.6c0-0.5-0.1-0.9-0.4-1.3c-0.3-0.3-0.7-0.5-1.1-0.5
				c-0.4,0-0.9,0.2-1.1,0.5c-0.3,0.3-0.5,0.8-0.6,1.3L224.5,186.6z"/>
			<path class="st14" d="M226.6,190v-1c0.5,0.4,1.1,0.6,1.7,0.6c0.8,0,1.3-0.3,1.3-0.8c0-0.1,0-0.3-0.1-0.4
				c-0.1-0.1-0.2-0.2-0.3-0.3c-0.1-0.1-0.3-0.2-0.4-0.2l-0.5-0.2l-0.7-0.3c-0.2-0.1-0.4-0.2-0.5-0.4c-0.1-0.1-0.2-0.3-0.3-0.5
				c-0.1-0.2-0.1-0.4-0.1-0.6c0-0.3,0.1-0.5,0.2-0.8c0.1-0.2,0.3-0.4,0.5-0.5c0.2-0.2,0.5-0.3,0.7-0.3c0.3-0.1,0.6-0.1,0.9-0.1
				c0.5,0,1,0.1,1.4,0.3v1c-0.5-0.3-1-0.4-1.5-0.4c-0.2,0-0.3,0-0.5,0.1c-0.1,0-0.3,0.1-0.4,0.2c-0.1,0.1-0.2,0.2-0.2,0.3
				c-0.1,0.1-0.1,0.2-0.1,0.3c0,0.1,0,0.3,0.1,0.4c0.1,0.1,0.1,0.2,0.3,0.3c0.1,0.1,0.3,0.2,0.4,0.2l0.5,0.2
				c0.2,0.1,0.5,0.2,0.7,0.3c0.2,0.1,0.4,0.2,0.5,0.4c0.3,0.3,0.5,0.7,0.5,1.1c0,0.3-0.1,0.5-0.2,0.8c-0.1,0.2-0.3,0.4-0.5,0.6
				c-0.2,0.1-0.5,0.3-0.8,0.3c-0.3,0.1-0.6,0.1-0.9,0.1C227.6,190.4,227.1,190.3,226.6,190z"/>
			<path class="st14" d="M232.9,189.3L232.9,189.3v3.7h-1v-8.8h1v1l0,0c0.4-0.8,1.2-1.2,2.1-1.2c0.7,0,1.4,0.3,1.8,0.8
				c0.5,0.6,0.7,1.4,0.6,2.2c0,0.9-0.2,1.7-0.7,2.4c-0.5,0.6-1.2,0.9-2,0.9C234,190.4,233.3,190,232.9,189.3z M232.9,186.9v0.8
				c0,0.5,0.2,0.9,0.5,1.3c0.3,0.3,0.8,0.5,1.2,0.5c0.5,0,1.1-0.2,1.4-0.7c0.4-0.5,0.5-1.2,0.5-1.9c0-0.6-0.1-1.1-0.5-1.6
				c-0.3-0.4-0.8-0.6-1.3-0.6c-0.5,0-1,0.2-1.4,0.6C233.1,185.9,232.9,186.4,232.9,186.9L232.9,186.9z"/>
			<path class="st14" d="M241.5,190.4c-0.8,0-1.6-0.3-2.1-0.8c-0.5-0.6-0.8-1.4-0.8-2.2c-0.1-0.9,0.2-1.7,0.8-2.4
				c0.6-0.6,1.4-0.9,2.2-0.9c0.8,0,1.5,0.3,2.1,0.8c0.5,0.6,0.8,1.5,0.8,2.3c0,0.8-0.2,1.7-0.8,2.3
				C243.1,190.1,242.3,190.4,241.5,190.4z M241.6,184.9c-0.6,0-1.1,0.2-1.5,0.6c-0.4,0.5-0.6,1.1-0.5,1.7c0,0.6,0.2,1.2,0.5,1.7
				c0.4,0.4,0.9,0.6,1.5,0.6c0.5,0,1.1-0.2,1.4-0.6c0.4-0.5,0.5-1.1,0.5-1.7c0-0.6-0.1-1.2-0.5-1.7
				C242.7,185.1,242.1,184.8,241.6,184.9L241.6,184.9z"/>
			<path class="st14" d="M251,190.2h-1v-3.4c0-1.3-0.5-1.9-1.4-1.9c-0.5,0-0.9,0.2-1.2,0.6c-0.3,0.4-0.5,0.9-0.5,1.4v3.4h-1v-6h1v1
				l0,0c0.4-0.7,1.2-1.2,2-1.1c0.6,0,1.1,0.2,1.5,0.6c0.4,0.5,0.6,1.2,0.5,1.8L251,190.2z"/>
			<path class="st14" d="M252.4,190v-1c0.5,0.4,1.1,0.6,1.7,0.6c0.8,0,1.3-0.3,1.3-0.8c0-0.1,0-0.3-0.1-0.4
				c-0.1-0.1-0.2-0.2-0.3-0.3c-0.1-0.1-0.3-0.2-0.4-0.2l-0.5-0.2l-0.7-0.3c-0.2-0.1-0.4-0.2-0.5-0.4c-0.1-0.1-0.2-0.3-0.3-0.5
				c-0.1-0.2-0.1-0.4-0.1-0.6c0-0.3,0.1-0.5,0.2-0.8c0.1-0.2,0.3-0.4,0.5-0.5c0.2-0.2,0.5-0.3,0.7-0.3c0.3-0.1,0.6-0.1,0.9-0.1
				c0.5,0,1,0.1,1.4,0.3v1c-0.5-0.3-1-0.4-1.5-0.4c-0.2,0-0.3,0-0.5,0.1c-0.1,0-0.3,0.1-0.4,0.2c-0.1,0.1-0.2,0.2-0.2,0.3
				c-0.1,0.1-0.1,0.2-0.1,0.3c0,0.1,0,0.3,0.1,0.4c0.1,0.1,0.1,0.2,0.3,0.3c0.1,0.1,0.3,0.2,0.4,0.2l0.5,0.2
				c0.2,0.1,0.5,0.2,0.7,0.3c0.2,0.1,0.4,0.2,0.5,0.4c0.1,0.1,0.3,0.3,0.3,0.5c0.1,0.2,0.1,0.4,0.1,0.6c0,0.3-0.1,0.5-0.2,0.8
				c-0.1,0.2-0.3,0.4-0.5,0.6c-0.2,0.1-0.5,0.3-0.8,0.3c-0.3,0.1-0.6,0.1-0.9,0.1C253.4,190.4,252.9,190.3,252.4,190z"/>
			<path class="st14" d="M262.6,187.4h-4.2c0,0.6,0.2,1.1,0.5,1.5c0.4,0.4,0.9,0.6,1.4,0.6c0.7,0,1.3-0.2,1.9-0.7v0.9
				c-0.6,0.4-1.3,0.6-2.1,0.6c-0.8,0-1.5-0.3-2-0.8c-1-1.4-1-3.2,0.1-4.6c0.5-0.6,1.2-0.9,2-0.9c0.7,0,1.4,0.2,1.8,0.8
				c0.5,0.6,0.7,1.4,0.6,2.1L262.6,187.4z M261.6,186.6c0-0.5-0.1-0.9-0.4-1.3c-0.3-0.3-0.7-0.5-1.1-0.5c-0.4,0-0.9,0.2-1.2,0.5
				c-0.3,0.4-0.5,0.8-0.6,1.3L261.6,186.6z"/>
		</g>
	</g>
</g>
<g id="bg">
	<g id="Shapes_1_">
		<rect class="st1" width="474.7" height="206.7"/>
		<rect y="10.4" class="st4" width="105" height="155"/>
		<rect x="369.7" y="10.4" class="st5" width="105" height="115"/>
		<rect x="369.7" y="130.4" class="st6" width="105" height="70"/>
		<g>
			<line class="st7" x1="105" y1="15.4" x2="364.2" y2="15.4"/>
			<polygon points="363.1,19.1 369.5,15.4 363.1,11.7 			"/>
		</g>
		<g>
			<line class="st7" x1="110.4" y1="45.3" x2="369.5" y2="45.3"/>
			<polygon points="111.5,49 105,45.3 111.5,41.5 			"/>
		</g>
		<g>
			<line class="st7" x1="105" y1="74.9" x2="364.2" y2="74.9"/>
			<polygon points="363.1,78.7 369.5,74.9 363.1,71.2 			"/>
		</g>
		<g>
			<line class="st7" x1="110.4" y1="105.2" x2="369.5" y2="105.2"/>
			<polygon points="111.5,108.9 105,105.2 111.5,101.4 			"/>
		</g>
		<g>
			<line class="st7" x1="105" y1="154.5" x2="364.2" y2="154.5"/>
			<polygon points="363.1,158.2 369.5,154.5 363.1,150.7 			"/>
		</g>
		<g>
			<path class="st7" d="M369.5,195.4l-308.4-0.8c-5.5,0-10-4.5-10-10v-13.9"/>
			<polygon points="54.8,171.9 51.1,165.4 47.4,171.9 			"/>
		</g>
		<polygon class="st8" points="192.6,25.8 185,31.3 187.9,40.1 197.2,40.1 200.1,31.3 		"/>
		<polygon class="st8" points="192.6,86 185,91.4 187.9,100.2 197.2,100.2 200.1,91.4 		"/>
		
			<use xlink:href="#New_Symbol_46"  width="20" height="20" x="-10" y="-10" transform="matrix(1 0 0 1 168.91 195.41)" style="overflow:visible;"/>
		<g>
			<g>
				<path class="st9" d="M87.9,44.9v50.3h-70V44.9c0-2.4,1.9-4.4,4.4-4.4c0,0,0,0,0,0h61.3C85.9,40.6,87.9,42.5,87.9,44.9z"/>
				<circle cx="24.4" cy="46" r="2.2"/>
				<circle class="st10" cx="31" cy="46" r="2.2"/>
				<circle class="st10" cx="37.5" cy="46" r="2.2"/>
				<path class="st11" d="M87.9,44.9v42.7l-4.4-4.4l-2.2-27.3L55,54.8L40.8,40.6h42.7C85.9,40.6,87.9,42.5,87.9,44.9z"/>
				<rect x="21.1" y="50.4" class="st12" width="63.4" height="41.6"/>
				<path class="st1" d="M69.1,57.7H26.4v-2.1h42.7V57.7z"/>
				<polygon class="st13" points="84.6,50.4 84.6,84.3 50.7,50.4 				"/>
				<path class="st1" d="M78,58.5l-0.6-1.4c0-0.1-0.1-0.2-0.1-0.3c0-0.1,0-0.2,0-0.2l0,0c0,0.1,0,0.1,0,0.2c0,0.1,0,0.2-0.1,0.3
					l-0.6,1.3h-1.9l1.5-2.5l-1.4-2.5h1.8l0.5,1.3c0,0.2,0.1,0.3,0.1,0.5l0,0c0-0.2,0.1-0.3,0.1-0.5l0.6-1.3h1.7L78.3,56l1.5,2.5
					L78,58.5z"/>
			</g>
			<g>
				<path class="st1" d="M49.2,76.1c0.1,2.1-0.5,4.1-1.8,5.7c-1.2,1.4-3,2.1-4.8,2c-0.8,0-1.6-0.1-2.3-0.3v-3.2
					c0.6,0.4,1.4,0.6,2.1,0.6c2.3,0,3.4-1.8,3.4-5.3V62.8h3.4L49.2,76.1z"/>
				<path class="st1" d="M52.3,82.6v-3.5c0.3,0.3,0.7,0.6,1.1,0.8c0.4,0.2,0.9,0.4,1.4,0.6c0.5,0.2,1,0.3,1.5,0.4
					c0.4,0.1,0.9,0.1,1.3,0.1c1.1,0.1,2.2-0.2,3.2-0.7c0.7-0.5,1.1-1.3,1.1-2.1c0-0.4-0.1-0.9-0.3-1.3c-0.3-0.4-0.6-0.7-1-1
					c-0.5-0.3-1-0.6-1.5-0.9c-0.6-0.3-1.2-0.6-1.8-0.9s-1.3-0.8-2-1.1c-0.6-0.4-1.1-0.8-1.6-1.3c-0.4-0.5-0.8-1-1-1.6
					c-0.3-0.6-0.4-1.3-0.4-2c0-0.9,0.2-1.8,0.7-2.5c0.4-0.7,1-1.3,1.7-1.8c0.8-0.5,1.6-0.8,2.4-1c0.9-0.2,1.8-0.3,2.8-0.3
					c1.6-0.1,3.2,0.2,4.7,0.7v3.4c-1.3-0.9-2.9-1.3-4.5-1.3c-0.5,0-1,0.1-1.5,0.2c-0.5,0.1-0.9,0.2-1.4,0.5c-0.4,0.2-0.7,0.5-1,0.8
					c-0.2,0.3-0.4,0.7-0.4,1.2c0,0.4,0.1,0.8,0.3,1.2c0.2,0.4,0.5,0.7,0.8,0.9c0.4,0.3,0.9,0.6,1.3,0.8c0.5,0.3,1.2,0.6,1.8,0.9
					s1.4,0.8,2,1.2c0.6,0.4,1.2,0.9,1.7,1.4c0.5,0.5,0.9,1,1.2,1.7c0.3,0.7,0.4,1.4,0.4,2.1c0.1,1.8-0.8,3.5-2.3,4.4
					c-0.8,0.5-1.6,0.8-2.5,1c-1,0.2-2,0.3-3,0.3c-0.3,0-0.8,0-1.3-0.1s-1-0.1-1.5-0.2s-1-0.2-1.5-0.4C53,83,52.6,82.8,52.3,82.6z"/>
			</g>
		</g>
	</g>
	<g id="Text_1_">
		
			<use xlink:href="#New_Symbol_41"  width="20" height="20" x="-10" y="-10" transform="matrix(1 0 0 1 168.91 15.41)" style="overflow:visible;"/>
		
			<use xlink:href="#New_Symbol_42"  width="20" height="20" x="-10" y="-10" transform="matrix(1 0 0 1 168.91 45.29)" style="overflow:visible;"/>
		
			<use xlink:href="#New_Symbol_45"  width="20" height="20" x="-10" y="-10" transform="matrix(1 0 0 1 168.91 155.21)" style="overflow:visible;"/>
		
			<use xlink:href="#New_Symbol_44"  width="20" height="20" x="-10" y="-10" transform="matrix(1 0 0 1 168.91 105.67)" style="overflow:visible;"/>
		
			<use xlink:href="#New_Symbol_43"  width="20" height="20" x="-10" y="-10" transform="matrix(1 0 0 1 168.91 74.93)" style="overflow:visible;"/>
	</g>
	<polygon class="st8" points="192.6,133.8 185,139.2 187.9,148 197.2,148 200.1,139.2 	"/>
</g>
<g id="txt">
	<g>
		<rect x="20.1" y="105.8" class="st15" width="64.5" height="30.5"/>
		<path class="st16" d="M28,111.6c0,1.1-0.3,2-0.8,2.6s-1.2,0.9-2.1,0.9c-0.4,0-0.8-0.1-1.1-0.2v-1.6c0.3,0.2,0.6,0.3,1,0.3
			c0.9,0,1.3-0.7,1.3-2.1v-5.2H28V111.6z"/>
		<path class="st16" d="M29.8,109.1c0.3-0.2,0.6-0.3,1.1-0.4s0.8-0.1,1.2-0.1c1.7,0,2.5,0.8,2.5,2.5v3.8H33V114h0
			c-0.4,0.7-1,1.1-1.8,1.1c-0.6,0-1.1-0.2-1.4-0.5s-0.5-0.8-0.5-1.3c0-1.2,0.7-1.9,2.1-2l1.7-0.2c0-0.8-0.4-1.2-1.1-1.2
			c-0.7,0-1.4,0.2-2.1,0.7V109.1z M31.8,112.1c-0.7,0.1-1.1,0.4-1.1,0.9c0,0.2,0.1,0.4,0.3,0.6s0.4,0.2,0.7,0.2c0.4,0,0.7-0.1,1-0.4
			s0.4-0.6,0.4-1v-0.5L31.8,112.1z"/>
		<path class="st16" d="M41.8,108.8l-2.3,6.2h-1.8l-2.2-6.2h1.8l1.2,4c0.1,0.4,0.2,0.7,0.2,1h0c0-0.3,0.1-0.6,0.2-1l1.2-4H41.8z"/>
		<path class="st16" d="M42.6,109.1c0.3-0.2,0.6-0.3,1.1-0.4s0.8-0.1,1.2-0.1c1.7,0,2.5,0.8,2.5,2.5v3.8h-1.6V114h0
			c-0.4,0.7-1,1.1-1.8,1.1c-0.6,0-1.1-0.2-1.4-0.5s-0.5-0.8-0.5-1.3c0-1.2,0.7-1.9,2.1-2l1.7-0.2c0-0.8-0.4-1.2-1.1-1.2
			c-0.7,0-1.4,0.2-2.1,0.7V109.1z M44.6,112.1c-0.7,0.1-1.1,0.4-1.1,0.9c0,0.2,0.1,0.4,0.3,0.6s0.4,0.2,0.7,0.2c0.4,0,0.7-0.1,1-0.4
			s0.4-0.6,0.4-1v-0.5L44.6,112.1z"/>
		<path class="st16" d="M48.7,112.9c0.7,0.6,1.5,0.8,2.3,0.8c0.5,0,0.9-0.1,1.2-0.3s0.4-0.4,0.4-0.7c0-0.3-0.1-0.5-0.3-0.7
			s-0.7-0.5-1.6-0.9c-0.7-0.3-1.2-0.7-1.6-1.1s-0.5-0.9-0.5-1.4c0-0.8,0.3-1.4,0.9-1.8s1.4-0.7,2.4-0.7c0.9,0,1.6,0.1,2.1,0.3v1.6
			c-0.6-0.4-1.2-0.6-2-0.6c-0.5,0-0.8,0.1-1.1,0.3s-0.4,0.4-0.4,0.7c0,0.2,0.1,0.5,0.3,0.7s0.7,0.5,1.4,0.8c0.8,0.4,1.4,0.8,1.8,1.2
			s0.5,0.9,0.5,1.5c0,0.8-0.3,1.4-0.9,1.9s-1.4,0.6-2.4,0.6c-1,0-1.8-0.2-2.4-0.5V112.9z"/>
		<path class="st16" d="M60.3,114.7c-0.4,0.3-1,0.4-1.8,0.4c-0.9,0-1.7-0.3-2.2-0.9s-0.9-1.3-0.9-2.2c0-1,0.3-1.9,0.9-2.5
			s1.4-0.9,2.5-0.9c0.7,0,1.2,0.1,1.5,0.3v1.4c-0.4-0.3-0.9-0.5-1.4-0.5c-0.6,0-1,0.2-1.4,0.5s-0.5,0.8-0.5,1.5
			c0,0.6,0.2,1.1,0.5,1.4s0.8,0.5,1.3,0.5c0.5,0,1-0.2,1.4-0.5V114.7z"/>
		<path class="st16" d="M65.4,110.3c-0.2-0.1-0.5-0.2-0.8-0.2c-0.4,0-0.7,0.2-1,0.5s-0.4,0.8-0.4,1.3v3h-1.6v-6.2h1.6v1.2h0
			c0.3-0.9,0.8-1.3,1.6-1.3c0.2,0,0.4,0,0.5,0.1V110.3z"/>
		<path class="st16" d="M66.2,106.7c0-0.3,0.1-0.5,0.3-0.6s0.4-0.3,0.7-0.3c0.3,0,0.5,0.1,0.7,0.2s0.3,0.4,0.3,0.6s-0.1,0.5-0.3,0.6
			s-0.4,0.3-0.7,0.3s-0.5-0.1-0.7-0.3S66.2,107,66.2,106.7z M66.3,114.9v-6.2H68v6.2H66.3z"/>
		<path class="st16" d="M71.3,114.1v3.6h-1.6v-9h1.6v1h0c0.5-0.7,1.2-1.1,2-1.1c0.8,0,1.4,0.3,1.8,0.8s0.7,1.3,0.7,2.2
			c0,1-0.3,1.8-0.8,2.5s-1.2,0.9-2,0.9C72.3,115.1,71.7,114.8,71.3,114.1L71.3,114.1z M71.3,112.2c0,0.4,0.1,0.8,0.4,1.1
			s0.6,0.4,1,0.4c0.5,0,0.8-0.2,1.1-0.6s0.4-0.9,0.4-1.6c0-1.2-0.5-1.8-1.4-1.8c-0.4,0-0.8,0.2-1.1,0.5s-0.4,0.8-0.4,1.3V112.2z"/>
		<path class="st16" d="M80.6,114.8c-0.3,0.1-0.7,0.2-1.2,0.2c-1.3,0-1.9-0.7-1.9-2V110h-1v-1.2h1v-1.4l1.6-0.5v1.9h1.4v1.2h-1.4
			v2.8c0,0.7,0.3,1,0.8,1c0.2,0,0.4-0.1,0.6-0.2V114.8z"/>
		<path class="st16" d="M42.1,127.3c0.7,0.6,1.5,0.8,2.3,0.8c0.5,0,0.9-0.1,1.2-0.3s0.4-0.4,0.4-0.7c0-0.3-0.1-0.5-0.3-0.7
			s-0.7-0.5-1.6-0.9c-0.7-0.3-1.2-0.7-1.6-1.1s-0.5-0.9-0.5-1.4c0-0.8,0.3-1.4,0.9-1.8s1.4-0.7,2.4-0.7c0.9,0,1.6,0.1,2.1,0.3v1.6
			c-0.6-0.4-1.2-0.6-2-0.6c-0.5,0-0.8,0.1-1.1,0.3s-0.4,0.4-0.4,0.7c0,0.2,0.1,0.5,0.3,0.7s0.7,0.5,1.4,0.8c0.8,0.4,1.4,0.8,1.8,1.2
			s0.5,0.9,0.5,1.5c0,0.8-0.3,1.4-0.9,1.9s-1.4,0.6-2.4,0.6c-1,0-1.8-0.2-2.4-0.5V127.3z"/>
		<path class="st16" d="M50.9,126.3v3.1h-1.7v-8.6h2.8c2.1,0,3.2,0.9,3.2,2.7c0,0.9-0.3,1.6-1,2.1s-1.4,0.8-2.4,0.8H50.9z M50.9,122
			v2.9h0.8c1.2,0,1.7-0.5,1.7-1.5c0-1-0.6-1.4-1.7-1.4H50.9z"/>
		<path class="st16" d="M63.2,129.3h-1.8l-0.7-2.1h-3.2l-0.7,2.1h-1.8l3.2-8.6H60L63.2,129.3z M60.2,125.9l-1.1-3.1
			c0-0.1-0.1-0.4-0.1-0.7h0c0,0.3-0.1,0.5-0.1,0.7l-1.1,3.1H60.2z"/>
	</g>
	<g>
		<g>
			<path class="st17" d="M213.1,133.3h-0.9v-4h-4.5v4h-0.9v-8.6h0.9v3.8h4.5v-3.8h0.9V133.3z"/>
			<path class="st17" d="M220.3,125.5h-2.5v7.8h-1v-7.8h-2.5v-0.9h5.9V125.5z"/>
			<path class="st17" d="M226.9,125.5h-2.5v7.8h-1v-7.8H221v-0.9h5.9V125.5z"/>
			<path class="st17" d="M229.1,130v3.3h-0.9v-8.6h2.3c0.9,0,1.6,0.2,2.1,0.7s0.8,1.1,0.8,1.9c0,0.8-0.3,1.5-0.9,2s-1.3,0.8-2.2,0.7
				H229.1z M229.1,125.5v3.6h1.1c0.7,0,1.2-0.2,1.6-0.5s0.6-0.8,0.6-1.4c0-1.2-0.7-1.7-2.1-1.7H229.1z"/>
			<path class="st17" d="M245.5,132.7c-0.9,0.5-1.8,0.7-2.9,0.7c-1.2,0-2.2-0.4-3-1.2s-1.1-1.8-1.1-3.1c0-1.3,0.4-2.4,1.3-3.3
				s1.9-1.3,3.2-1.3c1,0,1.8,0.2,2.4,0.5v1.1c-0.7-0.4-1.5-0.7-2.5-0.7c-1,0-1.8,0.3-2.4,1s-0.9,1.5-0.9,2.6c0,1.1,0.3,2,0.9,2.6
				s1.4,0.9,2.4,0.9c0.7,0,1.3-0.1,1.8-0.4v-2.5h-1.9v-0.9h2.8V132.7z"/>
			<path class="st17" d="M252,133.3h-4.5v-8.6h4.3v0.9h-3.4v2.9h3.1v0.9h-3.1v3.1h3.6V133.3z"/>
			<path class="st17" d="M258.7,125.5h-2.5v7.8h-1v-7.8h-2.5v-0.9h5.9V125.5z"/>
			<path class="st17" d="M270,130.1h-2.4v2.4h-0.8v-2.4h-2.4v-0.8h2.4v-2.4h0.8v2.4h2.4V130.1z"/>
			<path class="st17" d="M209.2,143c-0.7,0-1.3-0.2-1.8-0.7s-0.7-1.1-0.7-2c0-0.8,0.2-1.5,0.7-2s1.1-0.7,1.8-0.7s1.3,0.2,1.8,0.7
				s0.7,1.1,0.7,2c0,0.8-0.2,1.5-0.7,2S209.9,143,209.2,143z M209.2,138.4c-0.5,0-0.9,0.2-1.2,0.5s-0.5,0.8-0.5,1.4
				c0,0.6,0.2,1.1,0.5,1.4s0.7,0.5,1.2,0.5s0.9-0.2,1.2-0.5s0.5-0.8,0.5-1.4s-0.2-1.1-0.5-1.4S209.7,138.4,209.2,138.4z M215,148.5
				V145h-6.5v-0.8h7.4v4.3H215z M215,143.6V141h-1.3v2.6h-0.9v-6.1h0.9v2.8h1.3v-3h0.9v6.3H215z"/>
			<path class="st17" d="M223.3,145.9c-1-1-1.7-2.2-2.1-3.5c-0.1,0.6-0.4,1.2-0.9,1.9s-0.9,1.3-1.4,1.8l-0.7-0.6
				c0.7-0.5,1.3-1.2,1.8-2.2s0.8-2,0.8-3V138h0.9v2.2c0,0.9,0.2,1.9,0.7,2.8s1,1.7,1.6,2.2L223.3,145.9z M224.8,148.2v-6.3h-2v-0.8
				h2v-3.7h0.9v10.7H224.8z M226.9,148.5v-11.3h0.9v11.3H226.9z"/>
			<path class="st17" d="M240.6,146.6h-10.5v-0.8h10.5V146.6z M235.4,140.2c-0.3,0.6-0.8,1.2-1.6,1.8s-1.7,1-2.6,1.3l-0.6-0.7
				c1.3-0.3,2.4-0.8,3.2-1.6s1.2-1.5,1.2-2.2v-0.6h0.9v0.6c0,0.7,0.4,1.4,1.2,2.2s1.8,1.3,3.2,1.6l-0.6,0.7
				c-0.9-0.3-1.8-0.7-2.6-1.3S235.6,140.7,235.4,140.2z"/>
			<path class="st17" d="M246.2,146.8v-0.8h4.8v-2.4h-3.1v-5.4h7.2v0.8h-6.4v1.5h6.2v0.8h-6.2v1.6h6.6v0.8h-3.4v2.4h4.8v0.8H246.2z"
				/>
			<path class="st17" d="M258.1,143.3v-0.8h8c0-0.3,0.1-0.9,0.1-1.9l-6.6,0.3l-0.2-0.8l6.8-0.3l0-0.8v-0.6h-6.3v-0.8h7.2
				c0,2.2,0,3.8-0.1,4.8h1.7v0.8H258.1z M259.9,148.1v-3.6h0.9v2.8h6.3v0.8H259.9z"/>
		</g>
	</g>
	<g>
		<rect x="389.6" y="55.4" class="st15" width="64.5" height="25"/>
		<path class="st18" d="M403.3,64.5v-5.3c0-0.4,0-1,0.1-1.8h0c-0.1,0.5-0.2,0.8-0.3,1.1l-2.3,6.1h-1.3l-2.3-6
			c-0.1-0.2-0.1-0.5-0.3-1.1h0c0,0.6,0.1,1.3,0.1,2.1v5.1h-1.5v-8.6h2.4l2,5.4c0.2,0.4,0.3,0.8,0.3,1.2h0c0.1-0.3,0.2-0.7,0.4-1.2
			l2-5.4h2.3v8.6H403.3z"/>
		<path class="st18" d="M406.7,56.4c0-0.3,0.1-0.5,0.3-0.6s0.4-0.3,0.7-0.3c0.3,0,0.5,0.1,0.7,0.2s0.3,0.4,0.3,0.6s-0.1,0.5-0.3,0.6
			s-0.4,0.3-0.7,0.3s-0.5-0.1-0.7-0.3S406.7,56.6,406.7,56.4z M406.8,64.5v-6.2h1.6v6.2H406.8z"/>
		<path class="st18" d="M414.6,64.3c-0.4,0.3-1,0.4-1.8,0.4c-0.9,0-1.7-0.3-2.2-0.9s-0.9-1.3-0.9-2.2c0-1,0.3-1.9,0.9-2.5
			s1.4-0.9,2.5-0.9c0.7,0,1.2,0.1,1.5,0.3V60c-0.4-0.3-0.9-0.5-1.4-0.5c-0.6,0-1,0.2-1.4,0.5s-0.5,0.8-0.5,1.5
			c0,0.6,0.2,1.1,0.5,1.4s0.8,0.5,1.3,0.5c0.5,0,1-0.2,1.4-0.5V64.3z"/>
		<path class="st18" d="M419.7,59.9c-0.2-0.1-0.5-0.2-0.8-0.2c-0.4,0-0.7,0.2-1,0.5s-0.4,0.8-0.4,1.3v3h-1.6v-6.2h1.6v1.2h0
			c0.3-0.9,0.8-1.3,1.6-1.3c0.2,0,0.4,0,0.5,0.1V59.9z"/>
		<path class="st18" d="M420.2,61.5c0-1,0.3-1.8,0.9-2.4s1.4-0.9,2.4-0.9c1,0,1.8,0.3,2.3,0.9s0.9,1.3,0.9,2.3c0,1-0.3,1.8-0.9,2.4
			s-1.4,0.9-2.4,0.9c-1,0-1.8-0.3-2.3-0.9S420.2,62.5,420.2,61.5z M421.9,61.5c0,1.3,0.5,1.9,1.6,1.9c1,0,1.6-0.7,1.6-2
			c0-1.3-0.5-1.9-1.6-1.9c-0.5,0-0.9,0.2-1.2,0.5S421.9,60.9,421.9,61.5z"/>
		<path class="st18" d="M427.8,63c0.6,0.4,1.2,0.6,1.8,0.6c0.8,0,1.1-0.2,1.1-0.7c0-0.3-0.3-0.6-0.9-0.8c-0.9-0.3-1.4-0.6-1.7-0.9
			s-0.4-0.7-0.4-1.1c0-0.6,0.2-1.1,0.7-1.4s1.1-0.5,1.9-0.5c0.5,0,1.1,0.1,1.6,0.3v1.3c-0.5-0.3-1-0.4-1.6-0.4
			c-0.3,0-0.5,0.1-0.7,0.2s-0.3,0.3-0.3,0.5c0,0.3,0.3,0.6,0.8,0.7c0.6,0.2,1,0.4,1.3,0.5s0.5,0.3,0.6,0.6s0.2,0.5,0.2,0.9
			c0,0.6-0.2,1.1-0.7,1.5s-1.2,0.5-2,0.5c-0.7,0-1.3-0.1-1.8-0.3V63z"/>
		<path class="st18" d="M433.2,61.5c0-1,0.3-1.8,0.9-2.4s1.4-0.9,2.4-0.9c1,0,1.8,0.3,2.3,0.9s0.9,1.3,0.9,2.3c0,1-0.3,1.8-0.9,2.4
			s-1.4,0.9-2.4,0.9c-1,0-1.8-0.3-2.3-0.9S433.2,62.5,433.2,61.5z M434.9,61.5c0,1.3,0.5,1.9,1.6,1.9c1,0,1.6-0.7,1.6-2
			c0-1.3-0.5-1.9-1.6-1.9c-0.5,0-0.9,0.2-1.2,0.5S434.9,60.9,434.9,61.5z"/>
		<path class="st18" d="M444.6,56.7c-0.2-0.1-0.5-0.1-0.7-0.1c-0.6,0-0.9,0.4-0.9,1.1v0.7h1.4v1.2h-1.4v4.9h-1.6v-4.9h-1v-1.2h1
			v-0.8c0-0.7,0.2-1.2,0.7-1.7s1-0.6,1.7-0.6c0.4,0,0.7,0,0.9,0.1V56.7z"/>
		<path class="st18" d="M449,64.5c-0.3,0.1-0.7,0.2-1.2,0.2c-1.3,0-1.9-0.7-1.9-2v-3.1h-1v-1.2h1V57l1.6-0.5v1.9h1.4v1.2h-1.4v2.8
			c0,0.7,0.3,1,0.8,1c0.2,0,0.4-0.1,0.6-0.2V64.5z"/>
		<path class="st18" d="M398.1,70.3v8.6h-1.7v-8.6H398.1z"/>
		<path class="st18" d="M400.1,78.9v-8.6h2.9c3.1,0,4.6,1.4,4.6,4.2c0,1.3-0.4,2.4-1.3,3.2s-2,1.2-3.3,1.2H400.1z M401.8,71.7v5.9
			h1.1c0.9,0,1.7-0.3,2.2-0.8s0.8-1.3,0.8-2.2c0-0.9-0.3-1.6-0.8-2.1s-1.2-0.7-2.2-0.7H401.8z"/>
		<path class="st18" d="M413,74.6v-1.2h10.5v1.2H413z M414.1,72.9v-1.2h1.5l-0.1-1.4h1.5l0.1,1.4h2.4l0.1-1.4h1.5l-0.1,1.4h1.5v1.2
			H414.1z M414.3,70v-1.2h8.1V70H414.3z M414.6,79.9V77h5.9v-0.6h-5.9v-1.2h7.4v2.9H416v0.5h6.2v1.2H414.6z"/>
		<path class="st18" d="M430.7,74.9c-1,0.1-2.3,0.2-3.9,0.2h-1.4v-3.6h3.2v-1.1h-3.2v-1.2h4.6v3.5h-3.2v1.2h1.1c1,0,1.9-0.1,2.6-0.2
			L430.7,74.9z M434.4,80c-0.7-0.1-1.4-0.4-2.2-0.9s-1.3-1-1.6-1.5c-0.3,0.5-0.8,0.9-1.5,1.4s-1.5,0.8-2.2,0.9l-0.9-1.2
			c1.1-0.1,2.1-0.5,2.8-1.1s1.1-1.2,1.1-1.8v-0.4h1.5v0.4c0,0.6,0.4,1.2,1.1,1.8s1.7,1,2.8,1.1L434.4,80z M433.4,75.9v-3.1h-0.9v2.4
			h-1.4v-6.3h1.4v2.7h0.9v-2.9h1.5v7.2H433.4z"/>
		<path class="st18" d="M437,75.3v-1.2h4.5v-0.8h-3.4V72h1.5l-0.1-1.5h1.5l0.1,1.5h2.4l0.1-1.5h1.5l-0.1,1.5h1.5v1.2H443v0.8h4.5
			v1.2H437z M438.3,70.2v-1.2h8.1v1.2H438.3z M438.6,79.8v-3.8h7.4v3.8H438.6z M444.5,77.2h-4.5v1.4h4.5V77.2z"/>
	</g>
	<g>
		<rect x="389.6" y="152.4" class="st15" width="64.5" height="30.5"/>
		<path class="st19" d="M403.3,161.5v-5.3c0-0.4,0-1,0.1-1.8h0c-0.1,0.5-0.2,0.8-0.3,1.1l-2.3,6.1h-1.3l-2.3-6
			c-0.1-0.2-0.1-0.5-0.3-1.1h0c0,0.6,0.1,1.3,0.1,2.1v5.1h-1.5v-8.6h2.4l2,5.4c0.2,0.4,0.3,0.8,0.3,1.2h0c0.1-0.3,0.2-0.7,0.4-1.2
			l2-5.4h2.3v8.6H403.3z"/>
		<path class="st19" d="M406.7,153.3c0-0.3,0.1-0.5,0.3-0.6s0.4-0.3,0.7-0.3c0.3,0,0.5,0.1,0.7,0.2s0.3,0.4,0.3,0.6
			s-0.1,0.5-0.3,0.6s-0.4,0.3-0.7,0.3s-0.5-0.1-0.7-0.3S406.7,153.5,406.7,153.3z M406.8,161.5v-6.2h1.6v6.2H406.8z"/>
		<path class="st19" d="M414.6,161.2c-0.4,0.3-1,0.4-1.8,0.4c-0.9,0-1.7-0.3-2.2-0.9s-0.9-1.3-0.9-2.2c0-1,0.3-1.9,0.9-2.5
			s1.4-0.9,2.5-0.9c0.7,0,1.2,0.1,1.5,0.3v1.4c-0.4-0.3-0.9-0.5-1.4-0.5c-0.6,0-1,0.2-1.4,0.5s-0.5,0.8-0.5,1.5
			c0,0.6,0.2,1.1,0.5,1.4s0.8,0.5,1.3,0.5c0.5,0,1-0.2,1.4-0.5V161.2z"/>
		<path class="st19" d="M419.7,156.8c-0.2-0.1-0.5-0.2-0.8-0.2c-0.4,0-0.7,0.2-1,0.5s-0.4,0.8-0.4,1.3v3h-1.6v-6.2h1.6v1.2h0
			c0.3-0.9,0.8-1.3,1.6-1.3c0.2,0,0.4,0,0.5,0.1V156.8z"/>
		<path class="st19" d="M420.2,158.4c0-1,0.3-1.8,0.9-2.4s1.4-0.9,2.4-0.9c1,0,1.8,0.3,2.3,0.9s0.9,1.3,0.9,2.3c0,1-0.3,1.8-0.9,2.4
			s-1.4,0.9-2.4,0.9c-1,0-1.8-0.3-2.3-0.9S420.2,159.4,420.2,158.4z M421.9,158.4c0,1.3,0.5,1.9,1.6,1.9c1,0,1.6-0.7,1.6-2
			c0-1.3-0.5-1.9-1.6-1.9c-0.5,0-0.9,0.2-1.2,0.5S421.9,157.8,421.9,158.4z"/>
		<path class="st19" d="M427.8,159.9c0.6,0.4,1.2,0.6,1.8,0.6c0.8,0,1.1-0.2,1.1-0.7c0-0.3-0.3-0.6-0.9-0.8
			c-0.9-0.3-1.4-0.6-1.7-0.9s-0.4-0.7-0.4-1.1c0-0.6,0.2-1.1,0.7-1.4s1.1-0.5,1.9-0.5c0.5,0,1.1,0.1,1.6,0.3v1.3
			c-0.5-0.3-1-0.4-1.6-0.4c-0.3,0-0.5,0.1-0.7,0.2s-0.3,0.3-0.3,0.5c0,0.3,0.3,0.6,0.8,0.7c0.6,0.2,1,0.4,1.3,0.5s0.5,0.3,0.6,0.6
			s0.2,0.5,0.2,0.9c0,0.6-0.2,1.1-0.7,1.5s-1.2,0.5-2,0.5c-0.7,0-1.3-0.1-1.8-0.3V159.9z"/>
		<path class="st19" d="M433.2,158.4c0-1,0.3-1.8,0.9-2.4s1.4-0.9,2.4-0.9c1,0,1.8,0.3,2.3,0.9s0.9,1.3,0.9,2.3c0,1-0.3,1.8-0.9,2.4
			s-1.4,0.9-2.4,0.9c-1,0-1.8-0.3-2.3-0.9S433.2,159.4,433.2,158.4z M434.9,158.4c0,1.3,0.5,1.9,1.6,1.9c1,0,1.6-0.7,1.6-2
			c0-1.3-0.5-1.9-1.6-1.9c-0.5,0-0.9,0.2-1.2,0.5S434.9,157.8,434.9,158.4z"/>
		<path class="st19" d="M444.6,153.6c-0.2-0.1-0.5-0.1-0.7-0.1c-0.6,0-0.9,0.4-0.9,1.1v0.7h1.4v1.2h-1.4v4.9h-1.6v-4.9h-1v-1.2h1
			v-0.8c0-0.7,0.2-1.2,0.7-1.7s1-0.6,1.7-0.6c0.4,0,0.7,0,0.9,0.1V153.6z"/>
		<path class="st19" d="M449,161.4c-0.3,0.1-0.7,0.2-1.2,0.2c-1.3,0-1.9-0.7-1.9-2v-3.1h-1v-1.2h1v-1.4l1.6-0.5v1.9h1.4v1.2h-1.4
			v2.8c0,0.7,0.3,1,0.8,1c0.2,0,0.4-0.1,0.6-0.2V161.4z"/>
		<path class="st19" d="M400.5,175.3c-0.8,0.5-1.9,0.7-3.1,0.7c-1.3,0-2.4-0.4-3.2-1.2s-1.2-1.8-1.2-3.2c0-1.3,0.4-2.4,1.3-3.3
			s2-1.3,3.4-1.3c0.9,0,1.7,0.1,2.4,0.4v1.6c-0.7-0.4-1.5-0.6-2.4-0.6c-0.9,0-1.6,0.3-2.1,0.8s-0.8,1.3-0.8,2.2
			c0,0.9,0.2,1.7,0.7,2.2s1.1,0.8,2,0.8c0.5,0,0.9-0.1,1.3-0.3v-1.9h-1.8v-1.4h3.4V175.3z"/>
		<path class="st19" d="M405.9,171.2c-0.2-0.1-0.5-0.2-0.8-0.2c-0.4,0-0.7,0.2-1,0.5s-0.4,0.8-0.4,1.3v3h-1.6v-6.2h1.6v1.2h0
			c0.3-0.9,0.8-1.3,1.6-1.3c0.2,0,0.4,0,0.5,0.1V171.2z"/>
		<path class="st19" d="M407,170.1c0.3-0.2,0.6-0.3,1.1-0.4s0.8-0.1,1.2-0.1c1.7,0,2.5,0.8,2.5,2.5v3.8h-1.6V175h0
			c-0.4,0.7-1,1.1-1.8,1.1c-0.6,0-1.1-0.2-1.4-0.5s-0.5-0.8-0.5-1.3c0-1.2,0.7-1.9,2.1-2l1.7-0.2c0-0.8-0.4-1.2-1.1-1.2
			c-0.7,0-1.4,0.2-2.1,0.7V170.1z M409,173c-0.7,0.1-1.1,0.4-1.1,0.9c0,0.2,0.1,0.4,0.3,0.6s0.4,0.2,0.7,0.2c0.4,0,0.7-0.1,1-0.4
			s0.4-0.6,0.4-1v-0.5L409,173z"/>
		<path class="st19" d="M415,175.1v3.6h-1.6v-9h1.6v1h0c0.5-0.7,1.2-1.1,2-1.1c0.8,0,1.4,0.3,1.8,0.8s0.7,1.3,0.7,2.2
			c0,1-0.3,1.8-0.8,2.5s-1.2,0.9-2,0.9C416,176,415.4,175.7,415,175.1L415,175.1z M415,173.2c0,0.4,0.1,0.8,0.4,1.1s0.6,0.4,1,0.4
			c0.5,0,0.8-0.2,1.1-0.6s0.4-0.9,0.4-1.6c0-1.2-0.5-1.8-1.4-1.8c-0.4,0-0.8,0.2-1.1,0.5s-0.4,0.8-0.4,1.3V173.2z"/>
		<path class="st19" d="M426.6,175.9h-1.6v-3.5c0-1-0.4-1.5-1.1-1.5c-0.4,0-0.7,0.1-0.9,0.4s-0.4,0.7-0.4,1.1v3.5h-1.6v-9.1h1.6v3.9
			h0c0.5-0.7,1.1-1.1,1.9-1.1c1.4,0,2.1,0.8,2.1,2.5V175.9z"/>
		<path class="st19" d="M439.9,175.9H438l-0.7-2.1h-3.2l-0.7,2.1h-1.8l3.2-8.6h1.9L439.9,175.9z M436.9,172.5l-1.1-3.1
			c0-0.1-0.1-0.4-0.1-0.7h0c0,0.3-0.1,0.5-0.1,0.7l-1.1,3.1H436.9z"/>
		<path class="st19" d="M442.7,172.8v3.1H441v-8.6h2.8c2.1,0,3.2,0.9,3.2,2.7c0,0.9-0.3,1.6-1,2.1s-1.4,0.8-2.4,0.8H442.7z
			 M442.7,168.6v2.9h0.8c1.2,0,1.7-0.5,1.7-1.5c0-1-0.6-1.4-1.7-1.4H442.7z"/>
		<path class="st19" d="M450,167.2v8.6h-1.7v-8.6H450z"/>
	</g>
	<g>
		<path class="st17" d="M186.8,3.6h6.4V1.9h-6.4V1.1h7.2v3.2h-6.4v1.9h6.7V7h-3.5V9h4.8v0.8h-10.5V9h4.8V7h-3.2V3.6z"/>
		<path class="st17" d="M197.1,9.2V8.5h7.6c0.2-1.2,0.2-2.4,0.2-3.8V2h-6.2V1.2h7.1v3.1c0,1.1-0.1,2.5-0.3,4.1h2.1v0.8H197.1z"/>
		<path class="st17" d="M212.8,6.3c-0.8,0-1.5-0.3-2.1-0.8s-0.8-1.2-0.8-2.1c0-0.9,0.3-1.5,0.8-2.1s1.3-0.8,2.1-0.8s1.6,0.3,2.1,0.8
			s0.8,1.2,0.8,2.1c0,0.8-0.3,1.5-0.8,2.1S213.7,6.3,212.8,6.3z M212.8,1.4c-0.6,0-1.1,0.2-1.5,0.6s-0.6,0.9-0.6,1.5
			s0.2,1.1,0.6,1.5s0.9,0.6,1.5,0.6s1.1-0.2,1.5-0.6s0.6-0.9,0.6-1.5s-0.2-1.1-0.6-1.5S213.4,1.4,212.8,1.4z M211.3,11V7.4h0.9v2.9
			h6.6V11H211.3z M217.5,8.4V0.2h0.9v8.3H217.5z"/>
	</g>
	<g>
		<path class="st17" d="M207,38.1h-0.9v-8.6h0.9V38.1z"/>
		<path class="st17" d="M209.3,38.1v-8.6h2.3c3,0,4.5,1.4,4.5,4.2c0,1.3-0.4,2.4-1.3,3.2s-2,1.2-3.4,1.2H209.3z M210.2,30.4v6.9h1.3
			c1.2,0,2-0.3,2.7-0.9s1-1.5,1-2.6c0-2.2-1.2-3.4-3.6-3.4H210.2z"/>
		<path class="st17" d="M221.7,37.5v-0.8h4.8v-2.4h-3.1V29h7.2v0.8h-6.4v1.5h6.2V32h-6.2v1.6h6.6v0.8h-3.4v2.4h4.8v0.8H221.7z"/>
		<path class="st17" d="M233.7,34v-0.8h8c0-0.3,0.1-0.9,0.1-1.9l-6.6,0.3l-0.2-0.8l6.8-0.3l0-0.8v-0.6h-6.3v-0.8h7.2
			c0,2.2,0,3.8-0.1,4.8h1.7V34H233.7z M235.6,38.8v-3.6h0.9V38h6.3v0.8H235.6z"/>
	</g>
	<g>
		<path class="st17" d="M185.2,68.7v-0.8h4.8v-2.4h-3.1v-5.4h7.2v0.8h-6.4v1.5h6.2v0.8h-6.2v1.6h6.6v0.8h-3.4v2.4h4.8v0.8H185.2z"/>
		<path class="st17" d="M197.1,65.2v-0.8h8c0-0.3,0.1-0.9,0.1-1.9l-6.6,0.3l-0.2-0.8l6.8-0.3l0-0.8v-0.6h-6.3v-0.8h7.2
			c0,2.2,0,3.8-0.1,4.8h1.7v0.8H197.1z M198.9,69.9v-3.6h0.9v2.8h6.3v0.8H198.9z"/>
		<path class="st17" d="M220.7,66.2c-1.8,0.1-4.2,0.2-7.3,0.2l-0.1-0.8c1.2,0,2.2,0,3.2,0v-0.9c-0.8-0.1-1.4-0.2-1.8-0.5
			s-0.6-0.7-0.6-1.1c0-0.5,0.2-0.9,0.7-1.2s1.2-0.5,2.1-0.5c0.9,0,1.5,0.2,2,0.5s0.8,0.7,0.8,1.2c0,0.5-0.2,0.9-0.6,1.2
			s-1,0.5-1.8,0.5v0.9c1.3,0,2.4-0.1,3.2-0.1L220.7,66.2z M213.7,60.9v-0.8h2.9V59h0.9v1.2h2.9v0.8H213.7z M221.6,70.4V68H215v-0.8
			h7.4v3.1H221.6z M217,62c-0.6,0-1.1,0.1-1.5,0.3s-0.5,0.4-0.5,0.7s0.2,0.5,0.5,0.7s0.8,0.3,1.4,0.3s1.1-0.1,1.4-0.3
			s0.5-0.4,0.5-0.7s-0.2-0.5-0.5-0.7S217.7,62,217,62z M221.6,66.6v-7.6h0.9v7.6H221.6z"/>
		<path class="st17" d="M225,65.2v-0.8h10.5v0.8H225z M232.9,70.4v-3.2h-6.4v-0.8h7.3v4H232.9z M226.8,63.2v-3.8h7v0.8h-6.1v2.2h6.2
			v0.8H226.8z"/>
	</g>
	<g>
		<path class="st17" d="M208.6,93.8c-0.7,0-1.3-0.2-1.8-0.7s-0.7-1.1-0.7-2c0-0.8,0.2-1.5,0.7-2s1.1-0.7,1.8-0.7s1.3,0.2,1.8,0.7
			s0.7,1.1,0.7,2c0,0.8-0.2,1.5-0.7,2S209.3,93.8,208.6,93.8z M208.6,89.1c-0.5,0-0.9,0.2-1.2,0.5s-0.5,0.8-0.5,1.4
			c0,0.6,0.2,1.1,0.5,1.4s0.7,0.5,1.2,0.5s0.9-0.2,1.2-0.5s0.5-0.8,0.5-1.4s-0.2-1.1-0.5-1.4S209.1,89.1,208.6,89.1z M214.4,99.3
			v-3.6h-6.5v-0.8h7.4v4.3H214.4z M214.4,94.3v-2.6h-1.3v2.6h-0.9v-6.1h0.9V91h1.3v-3h0.9v6.3H214.4z"/>
		<path class="st17" d="M222.7,96.6c-1-1-1.7-2.2-2.1-3.5c-0.1,0.6-0.4,1.2-0.9,1.9s-0.9,1.3-1.4,1.8l-0.7-0.6
			c0.7-0.5,1.3-1.2,1.8-2.2s0.8-2,0.8-3v-2.2h0.9V91c0,0.9,0.2,1.9,0.7,2.8s1,1.7,1.6,2.2L222.7,96.6z M224.2,98.9v-6.3h-2v-0.8h2
			v-3.7h0.9v10.7H224.2z M226.3,99.3V88h0.9v11.3H226.3z"/>
		<path class="st17" d="M240,97.4h-10.5v-0.8H240V97.4z M234.8,90.9c-0.3,0.6-0.8,1.2-1.6,1.8s-1.7,1-2.6,1.3l-0.6-0.7
			c1.3-0.3,2.4-0.8,3.2-1.6s1.2-1.5,1.2-2.2v-0.6h0.9v0.6c0,0.7,0.4,1.4,1.2,2.2s1.8,1.3,3.2,1.6L239,94c-0.9-0.3-1.8-0.7-2.6-1.3
			S235,91.5,234.8,90.9z"/>
		<path class="st17" d="M245.6,97.6v-0.8h4.8v-2.4h-3.1V89h7.2v0.8h-6.4v1.5h6.2v0.8h-6.2v1.6h6.6v0.8h-3.4v2.4h4.8v0.8H245.6z"/>
		<path class="st17" d="M257.5,94.1v-0.8h8c0-0.3,0.1-0.9,0.1-1.9l-6.6,0.3l-0.2-0.8l6.8-0.3l0-0.8v-0.6h-6.3v-0.8h7.2
			c0,2.2,0,3.8-0.1,4.8h1.7v0.8H257.5z M259.3,98.8v-3.6h0.9V98h6.3v0.8H259.3z"/>
	</g>
	<g>
		<path class="st17" d="M192,190.2H191v-4h-4.5v4h-0.9v-8.6h0.9v3.8h4.5v-3.8h0.9V190.2z"/>
		<path class="st17" d="M199.3,182.4h-2.5v7.8h-1v-7.8h-2.5v-0.9h5.9V182.4z"/>
		<path class="st17" d="M205.9,182.4h-2.5v7.8h-1v-7.8h-2.5v-0.9h5.9V182.4z"/>
		<path class="st17" d="M208.1,186.9v3.3h-0.9v-8.6h2.3c0.9,0,1.6,0.2,2.1,0.7s0.8,1.1,0.8,1.9c0,0.8-0.3,1.5-0.9,2
			s-1.3,0.8-2.2,0.7H208.1z M208.1,182.4v3.6h1.1c0.7,0,1.2-0.2,1.6-0.5s0.6-0.8,0.6-1.4c0-1.2-0.7-1.7-2.1-1.7H208.1z"/>
		<path class="st17" d="M217.8,186v-0.8h10.5v0.8H217.8z M223.1,191.2c-1.2,0-2.1-0.2-2.7-0.6s-0.9-0.9-0.9-1.6
			c0-0.6,0.3-1.1,0.9-1.5s1.5-0.6,2.7-0.6s2.1,0.2,2.7,0.6s0.9,0.9,0.9,1.5c0,0.7-0.3,1.2-0.9,1.6S224.2,191.2,223.1,191.2z
			 M223.1,184.3c-1.1,0-2-0.2-2.6-0.6s-0.9-0.9-0.9-1.5c0-0.7,0.3-1.2,0.9-1.6s1.5-0.6,2.6-0.6s2,0.2,2.6,0.6s0.9,0.9,0.9,1.6
			c0,0.7-0.3,1.2-0.9,1.5S224.2,184.3,223.1,184.3z M223.1,187.6c-0.9,0-1.6,0.1-2.1,0.4s-0.7,0.6-0.7,1c0,0.4,0.2,0.8,0.7,1
			s1.2,0.4,2.1,0.4c0.9,0,1.6-0.1,2.1-0.4s0.7-0.6,0.7-1s-0.2-0.8-0.7-1S224,187.6,223.1,187.6z M223.1,180.8
			c-0.8,0-1.5,0.1-1.9,0.4s-0.7,0.6-0.7,1c0,0.4,0.2,0.8,0.7,1s1.1,0.4,1.9,0.4s1.5-0.1,1.9-0.4s0.7-0.6,0.7-1c0-0.4-0.2-0.8-0.7-1
			S223.9,180.8,223.1,180.8z"/>
		<path class="st17" d="M236.3,185.1c-1.1,0.1-3,0.1-5.7,0.1v-4.8h5.3v0.8h-4.5v3.2h0.8c1.8,0,3.1,0,4.1-0.1L236.3,185.1z
			 M231.7,190.9v-4.6h0.9v1.6h5.2v-1.6h0.9v4.6H231.7z M237.8,188.7h-5.2v1.5h5.2V188.7z M238.6,183.4v2.3h-0.9v-5.8h0.9v2.7h1.7
			v0.8H238.6z"/>
	</g>
</g>
</svg>
