<svg xmlns="http://www.w3.org/2000/svg" xmlns:xlink="http://www.w3.org/1999/xlink" viewBox="0 0 433 302.1"><defs><symbol id="a" viewBox="0 0 21 20"><circle cx="10.5" cy="10" r="10" fill="#505050"/><path d="M13,14.4H7.7v-.7a2.2,2.2,0,0,1,.1-.8l.3-.7c.1-.2.3-.2.5-.4l.5-.5.6-.5.6-.5.5-.5.4-.5.3-.5c.1-.2,0-.3,0-.5a1.3,1.3,0,0,0-.1-.6l-.3-.4c-.2-.2-.2-.2-.4-.2h-.6l-1,.2a3,3,0,0,0-1,.7V6.6l.5-.3.5-.2.6-.2h.7l1,.2a2,2,0,0,1,.8.4,1.8,1.8,0,0,1,.5.7,3,3,0,0,1,.2,1,2.8,2.8,0,0,1-.1.9,3.6,3.6,0,0,1-.4.9l-.6.6c-.3.2-.4.5-.7.7l-.7.5-.6.5-.4.5a.8.8,0,0,0-.2.5H13v1.2Z" fill="#fff"/></symbol><symbol id="b" viewBox="0 0 21 20"><circle cx="10.5" cy="10" r="10" fill="#505050"/><path d="M11.7,5.8v8.6H10.3V7.5L9.5,8a2.9,2.9,0,0,1-1,.3V7.1l.7-.2.6-.3.7-.3.6-.5Z" fill="#fff"/></symbol><symbol id="c" viewBox="0 0 21 20"><circle cx="10.5" cy="10" r="10" fill="#505050"/><path d="M7.9,14.1V12.8a3.1,3.1,0,0,0,1.9.6,1.7,1.7,0,0,0,1.3-.4,1.4,1.4,0,0,0,.5-1c0-1-.7-1.4-2.2-1.4H8.8V9.5h.6c1.3,0,1.9-.4,1.9-1.4S10.8,7,9.8,7a2.5,2.5,0,0,0-1.6.6V6.4a4.2,4.2,0,0,1,2-.5,2.6,2.6,0,0,1,1.8.6A1.8,1.8,0,0,1,12.7,8,2,2,0,0,1,11,10h0a2.6,2.6,0,0,1,1.4.6A2.2,2.2,0,0,1,13,12a2,2,0,0,1-.9,1.8,3.9,3.9,0,0,1-2.2.8A3.7,3.7,0,0,1,7.9,14.1Z" fill="#fff"/></symbol><symbol id="d" viewBox="0 0 21 20"><circle cx="10.5" cy="10" r="10" fill="#505050"/><path d="M8.1,14.2V12.9a2.7,2.7,0,0,0,1.7.6,2.9,2.9,0,0,0,1.4-.4,1.2,1.2,0,0,0,.5-1.2,1.1,1.1,0,0,0-.6-1.1,3.3,3.3,0,0,0-1.5-.4H8.2L8.5,6h4.1V7.2h-3V9.3h.7a2.8,2.8,0,0,1,2.1.7,2.3,2.3,0,0,1,.7,1.8,2.8,2.8,0,0,1-.8,2,3.2,3.2,0,0,1-2.3.8A3,3,0,0,1,8.1,14.2Z" fill="#fff"/></symbol><symbol id="e" viewBox="0 0 21 20"><circle cx="10.5" cy="10" r="10" fill="#505050"/><path d="M12.5,6v5.4h1.3v1.1H12.5v1.8H11.1V12.5H7.3V11.4l1.1-1.3,1-1.4.9-1.4A9.1,9.1,0,0,0,11.1,6Zm-1.4,5.5V8a17.4,17.4,0,0,1-1.3,2,8.5,8.5,0,0,1-1.1,1.4Z" fill="#fff"/></symbol></defs><title>OJ104327284</title><rect width="433" height="299.7" fill="#fff"/><rect x="149.4" y="41" width="220.7" height="17.5" fill="#ebebeb"/><rect x="251.9" y="37.5" width="46.3" height="24.9" fill="#fff"/><path d="M300,31.8a.8.8,0,0,0-.8-.8H250.9a.8.8,0,0,0-.8.8V62a.8.8,0,0,0,.8.8h48.3a.8.8,0,0,0,.8-.8Zm-43.1,4.8h-2.5V34.1h2.5Zm5,0h-2.5V34.1h2.5Zm5,0h-2.5V34.1h2.5Zm-15,1.8h46.3V60.9H251.9V38.4Z" fill="#0072c6"/><circle cx="239" cy="46.9" r="18.5" fill="#ebebeb"/><path d="M239,66.3a19.5,19.5,0,1,1,19.5-19.5A19.5,19.5,0,0,1,239,66.3Zm0-36.9a17.5,17.5,0,1,0,17.5,17.5A17.5,17.5,0,0,0,239,29.4Z" fill="#3c3c41"/><path d="M244,38a5,5,0,0,1-10,0,5.1,5.1,0,0,1,5-5,5,5,0,0,1,5,5" fill="#75757a"/><polygon points="242.6 44.8 238.9 49.9 235.3 44.8 230 44.8 230 57.4 248 57.4 248 44.8 242.6 44.8" fill="#75757a"/><path d="M234,38a5,5,0,0,0,4.9,5l1.3-9.9a2.5,2.5,0,0,0-1.2-.2,5,5,0,0,0-5,5.1" fill="#fff" opacity="0.2" style="isolation:isolate"/><polygon points="235.3 44.8 230 44.8 230 57.4 237 57.4 238.1 48.7 235.3 44.8" fill="#fff" opacity="0.2" style="isolation:isolate"/><rect y="217.8" width="96" height="55" fill="#fff"/><rect y="217.8" width="96" height="55" fill="#50e6ff" opacity="0.65" style="isolation:isolate"/><rect x="210.3" y="217.8" width="95" height="55" fill="#fff"/><rect x="210.3" y="217.8" width="95" height="55" fill="#50e6ff" opacity="0.65" style="isolation:isolate"/><rect x="221" y="227.8" width="75" height="35" fill="#3c3c41"/><circle cx="273.5" cy="197.4" r="4.6" fill="#50e6ff" stroke="#0072c6" stroke-miterlimit="10" stroke-width="0.75"/><line x1="273.5" y1="202.3" x2="273.5" y2="217.8" fill="none" stroke="#000"/><path d="M165.3,64.2v87.6a7.8,7.8,0,0,0,4.7,6.8l89.7,34.3" fill="none" stroke="#000" stroke-miterlimit="10"/><polygon points="161.5 65.3 165.3 58.8 169 65.3 161.5 65.3"/><polygon points="257.2 196 264.6 194.8 259.9 189 257.2 196"/><path d="M351.4,58.8v93a9,9,0,0,1-4.5,7.3l-62,31.3" fill="none" stroke="#000" stroke-miterlimit="10"/><polygon points="284.3 186.5 280.2 192.8 287.6 193.2 284.3 186.5"/><path d="M220.9,64.2v86.1a11.1,11.1,0,0,0,4,8l39.1,29.2" fill="none" stroke="#000" stroke-miterlimit="10"/><polygon points="217.2 65.3 220.9 58.8 224.7 65.3 217.2 65.3"/><polygon points="261 189.8 268.4 190.6 265.4 183.8 261 189.8"/><line x1="273.5" y1="68.7" x2="273.5" y2="184.3" fill="none" stroke="#000" stroke-miterlimit="10"/><polygon points="269.8 69.8 273.5 63.3 277.2 69.8 269.8 69.8"/><polygon points="269.8 183.2 273.5 189.7 277.2 183.2 269.8 183.2"/><use width="21" height="20" transform="translate(210.5 91.2)" xlink:href="#a"/><use width="21" height="20" transform="translate(154.8 91.2)" xlink:href="#b"/><use width="21" height="20" transform="translate(263 91.2)" xlink:href="#c"/><use width="21" height="20" transform="translate(340.9 91.2)" xlink:href="#d"/><rect x="217.7" y="117.6" width="6.8" height="15.7" fill="#fff"/><polygon points="319.4 163.8 310.8 170 314.1 180 324.7 180 328 170 319.4 163.8" fill="#50e6ff" stroke="#0072c6" stroke-miterlimit="10" stroke-width="0.75"/><path d="M221,231.7H77.5c-7.2,0-13,4.1-13,9.1s5.8,9.1,13,9.1H215.7" fill="none" stroke="#000" stroke-miterlimit="10"/><polygon points="214.5 253.7 221 250 214.5 246.2 214.5 253.7"/><rect x="29.5" y="233" width="37" height="19.9" fill="#fff"/><path d="M68,228.4a.7.7,0,0,0-.7-.7H28.7a.7.7,0,0,0-.7.7v24.2a.7.7,0,0,0,.7.7H67.4a.7.7,0,0,0,.7-.7V228.4Zm-34.5,3.9h-2v-2h2Zm4,0h-2v-2h2Zm4,0h-2v-2h2Zm-12,1.5h37v18h-37Z" fill="#001f50"/><use width="21" height="20" transform="translate(142.8 224.9)" xlink:href="#e"/><rect x="73.6" y="88.6" width="80.4" height="43.5" fill="none"/><rect x="231.1" y="0.9" width="80.4" height="43.5" fill="none"/><rect x="115.8" y="258.6" width="75" height="43.5" fill="none"/><rect x="221" y="233.1" width="75" height="43.5" fill="none"/><path d="M2.7,207.5v2.7H6.4v.7a35.1,35.1,0,0,1-4.6.2v-7.5H6v.7H2.7v2.5H5v.8Zm4.9,6v-5.4H5.8v-.8H7.6v-4.5h.8v10.7Zm2.1.3V202.5h.9v11.3Z"/><path d="M20.4,208.3a38.4,38.4,0,0,1-6.1.2v-5.3h.9v4.6a32.1,32.1,0,0,0,5.1-.3Zm-5,5.2v-3.8h.9v3h6.4v.8Zm6-2.5v-5.2H18.1V205h3.3v-2.5h.9V211Z"/><path d="M25,212.1v-.8H35.5v.8Zm8.9-7.7H27.6V206h5.9v.8H27.6v1.6h6.5v.7H26.7v-5.5h7.2Z"/><path d="M48.2,212.8h-1l-1-2.5H42.5l-.8,2.5H40.6l3.3-8.6h1Zm-2.3-3.3-1.4-3.8a4.3,4.3,0,0,1-.1-.5h0c-.1.2-.1.4-.2.5l-1.3,3.8Z"/><path d="M212.6,207.5v2.7h3.7v.7a37.6,37.6,0,0,1-4.6.2v-7.5h4.1v.7h-3.3v2.5h2.3v.8Zm4.9,6v-5.4h-1.8v-.8h1.8v-4.5h.8v10.7Zm2.1.3V202.5h.9v11.3Z"/><path d="M230.3,208.3a38.4,38.4,0,0,1-6.1.2v-5.3h.9v4.6a31.3,31.3,0,0,0,5.1-.3Zm-5,5.2v-3.8h.9v3h6.4v.8Zm6-2.5v-5.2h-3.2V205h3.2v-2.5h.9V211Z"/><path d="M234.9,212.1v-.8h10.5v.8Zm8.9-7.7h-6.3V206h6v.8h-6v1.6H244v.7h-7.4v-5.5h7.2Z"/><path d="M251.5,212.8v-8.6h2.4a2.6,2.6,0,0,1,1.8.5,1.8,1.8,0,0,1,.6,1.4,2,2,0,0,1-.4,1.3,1.9,1.9,0,0,1-1.1.8h0a2.1,2.1,0,0,1,1.4.7,1.7,1.7,0,0,1,.6,1.4,2.5,2.5,0,0,1-.8,1.8,2.9,2.9,0,0,1-2,.7Zm1-7.8v2.9h1a2.9,2.9,0,0,0,1.4-.4,1.6,1.6,0,0,0,.4-1.2c0-.8-.5-1.3-1.6-1.3Zm0,3.7v3.2h1.4a2.1,2.1,0,0,0,1.4-.4,1.7,1.7,0,0,0,.5-1.2c0-1-.7-1.6-2.2-1.6Z"/><path d="M294.6,203.9l-3.2.2v3h-.8v-3h-3.3v-.8h5.4a26.3,26.3,0,0,0,.1-3h-4.5v-.8h5.4c0,1.6-.1,2.8-.1,3.7h1.1Zm-5.7,6v-3.4h.9v2.6h6.8v.8Zm6.6-2.2v-1.8H293v-.8h2.5v-6.2h.9v8.8Z"/><path d="M299,201.2v-.8h2.9V199h.9v1.4h2.9v.8Zm3.3,4.9a2.7,2.7,0,0,1-2-.7,2,2,0,0,1,0-3,3.2,3.2,0,0,1,2-.6,3.3,3.3,0,0,1,2.1.6,2,2,0,0,1,0,3A2.8,2.8,0,0,1,302.3,206.1Zm0-3.5a2.9,2.9,0,0,0-1.4.3,1.4,1.4,0,0,0-.5,1,1.2,1.2,0,0,0,.5,1,2.3,2.3,0,0,0,1.4.4,2,2,0,0,0,1.4-.4,1.1,1.1,0,0,0,.6-1,1.2,1.2,0,0,0-.6-1A2.6,2.6,0,0,0,302.3,202.6Zm-1.4,7.4v-3.1h.8v2.3h6.4v.8Zm6.8-5.9v3.2h-.8v-8.4h.8v4.4h1.7v.8Z"/><path d="M320.8,206.1v4.1h-.9v-4.1h-4.8v-.8h10.5v.8Zm-4-2.2v-4.7h.9v1.7H323v-1.7h.9v4.7Zm6.2-2.3h-5.3v1.5H323Z"/><path d="M333.1,205.8a2.5,2.5,0,0,1-2.4,1.5,2.4,2.4,0,0,1-2.1-1,5.3,5.3,0,0,1,0-5.6,2.4,2.4,0,0,1,2.1-1,2.5,2.5,0,0,1,2.4,1.5h2.4v-2.3h.9v11.3h-.9v-4.4Zm-2.4-5.4a1.8,1.8,0,0,0-1.5.9,5.1,5.1,0,0,0,0,4.4,1.8,1.8,0,0,0,1.5.9,1.5,1.5,0,0,0,1.4-.9,4.3,4.3,0,0,0,0-4.4A1.5,1.5,0,0,0,330.7,200.4Zm2.7,4.6h2.1v-3h-2.1a5.7,5.7,0,0,1,0,3Z"/><path d="M348.9,202.7a2.6,2.6,0,0,1-.9,1.7,2.2,2.2,0,0,1-1.7.7,2.6,2.6,0,0,1-1.9-.8,2.8,2.8,0,0,1-.7-2.1,2.7,2.7,0,0,1,.7-2,2.6,2.6,0,0,1,1.9-.8,2.9,2.9,0,0,1,1.8.7,3,3,0,0,1,.8,1.8h1.2v-2.8h.9v7.6h-.9v-4Zm-2.6-2.5a1.6,1.6,0,0,0-1.3.6,2,2,0,0,0-.5,1.4,2.1,2.1,0,0,0,.5,1.5,1.6,1.6,0,0,0,1.3.6,1.8,1.8,0,0,0,1.3-.6,2.1,2.1,0,0,0,.5-1.5,2,2,0,0,0-.5-1.4A1.8,1.8,0,0,0,346.3,200.2Zm-.6,9.6v-3.7h.9V209h6.7v.8ZM352,207v-8.1h.9V207Z"/><path d="M355.3,208.3v-.8h10.5v.8Zm8.7-7.6h-6v3.6h6.2v.7h-7.1v-5H364Z"/><path d="M375,204.5h1.8v.8H373v2.4h4.8v.8H367.3v-.8h4.8v-2.4h-3.8v-.8h1.8v-3.2h.9v3.2h3.1l.2-3.2h.8Zm-6.6-4.5h8.3v.7h-8.3Z"/><path d="M383.1,205.1a3.2,3.2,0,0,1-2.1-.8,3,3,0,0,1-.8-2.1,2.7,2.7,0,0,1,2.9-2.9,3.3,3.3,0,0,1,2.2.8,3.2,3.2,0,0,1,.8,2.1,2.7,2.7,0,0,1-.9,2.1A2.9,2.9,0,0,1,383.1,205.1Zm0-5a2,2,0,0,0-1.5.6,2,2,0,0,0-.5,1.5,1.8,1.8,0,0,0,.5,1.5,2,2,0,0,0,1.5.6,1.8,1.8,0,0,0,1.5-.6,1.9,1.9,0,0,0,.6-1.5,2,2,0,0,0-.6-1.5A1.8,1.8,0,0,0,383.1,200.1Zm-1.5,9.7v-3.7h.9V209H389v.8Zm6.2-2.6v-8.3h.9v8.3Z"/><path d="M391.3,208.4v-.7h10.5v.7Zm8.9-7.6h-6.3v1.6h6v.8h-6v1.5h6.5v.8H393V200h7.2Z"/><path d="M286.9,102.1v-.8h4.8V99.9h-3.1V96.1h7.1v.8h-6.2v2.2h6.3v.8h-3.2v1.4h4.8v.8Zm5.2,5a4.9,4.9,0,0,1-2.7-.6,1.7,1.7,0,0,1,0-3.1,6.2,6.2,0,0,1,2.7-.5,7,7,0,0,1,2.8.5,1.8,1.8,0,0,1,.9,1.6,1.8,1.8,0,0,1-.9,1.5A5.5,5.5,0,0,1,292.1,107.1Zm0-3.5a3.5,3.5,0,0,0-2,.4,1,1,0,0,0-.7,1c0,.4.2.7.7,1a4.9,4.9,0,0,0,2,.3,5.8,5.8,0,0,0,2.1-.3c.5-.3.7-.6.7-1a1,1,0,0,0-.7-1A4.1,4.1,0,0,0,292.1,103.6Z"/><path d="M299,105.1v-.8h7.8v.7H299Zm3.7-3a3.2,3.2,0,0,1-2.1-.8,2.5,2.5,0,0,1,0-3.8,3.2,3.2,0,0,1,2.1-.8,3.3,3.3,0,0,1,2.2.8,2.7,2.7,0,0,1,0,3.8A3.3,3.3,0,0,1,302.7,102.1Zm0-4.6a2.5,2.5,0,0,0-1.5.5,1.8,1.8,0,0,0-.6,1.4,1.6,1.6,0,0,0,.7,1.4,2.2,2.2,0,0,0,1.4.5,2.5,2.5,0,0,0,1.5-.5,1.9,1.9,0,0,0,0-2.8A2.5,2.5,0,0,0,302.7,97.5Zm4.8,9.7V95.9h.9v11.3Z"/><path d="M365.9,102.3V96.5h.8v2.2h3.5V96.5h.8v5.8Zm4.3-2.8h-3.5v2h3.5Zm-3,7.4v-3.4h.8v2.6h6.4v.8Zm6.9-6.6v3.9h-.9V96h.9v3.5h1.7v.8Z"/><path d="M384.6,103.4c-2.4.2-4.8.2-7.3.2v-.7h3.3V102a3.8,3.8,0,0,1-1.8-.6,1.4,1.4,0,0,1-.6-1.2,1.7,1.7,0,0,1,.8-1.3,3.7,3.7,0,0,1,2-.4,3.3,3.3,0,0,1,2.1.5,1.3,1.3,0,0,1,.7,1.2,1.4,1.4,0,0,1-.6,1.2,3.8,3.8,0,0,1-1.8.6v.8h3.2Zm-7-5.4v-.8h2.9V96h.9v1.2h2.8V98Zm3.3,1.2a2.6,2.6,0,0,0-1.4.3c-.4.2-.5.4-.5.7a.8.8,0,0,0,.5.8,3.4,3.4,0,0,0,2.8,0,.9.9,0,0,0,.6-.8c0-.3-.2-.5-.6-.7A2.6,2.6,0,0,0,380.9,99.2Zm-1.8,7.9v-2.9h.8v2.2h6.6v.7Zm7.1-5.9v3.5h-.8V96h.8v4.5h1.7v.7Z"/><path d="M393.4,105.6v-.8h4.8v-2.4h-3.1V97h7.2v.8h-6.4v1.5h6.2v.8h-6.2v1.6h6.6v.7h-3.4v2.4h4.8v.8Z"/><path d="M405.4,102.1v-.8h8c0-.2.1-.9.1-1.9l-6.6.3-.2-.8,6.8-.2V97.2h-6.3v-.7h7.2c0,2.2-.1,3.8-.1,4.8h1.6v.8Zm1.8,4.7v-3.5h.9v2.8h6.3v.7Z"/><path d="M213.1,124.9a2.9,2.9,0,0,1-2.1-.8,2.6,2.6,0,0,1-.9-2.1,2.9,2.9,0,0,1,.9-2.1,2.8,2.8,0,0,1,2.1-.7,3.1,3.1,0,0,1,2.1.7,3.2,3.2,0,0,1,.8,2.1,2.9,2.9,0,0,1-.8,2.1A3.2,3.2,0,0,1,213.1,124.9Zm0-5A2.1,2.1,0,0,0,211,122a2.1,2.1,0,0,0,2.1,2.1,2,2,0,0,0,1.5-.6,1.8,1.8,0,0,0,.6-1.5,2.1,2.1,0,0,0-2.1-2.1Zm-1.6,9.7v-3.7h.9v2.9H219v.8Zm6.3-2.6v-8.3h.9V127Z"/><path d="M221.3,124.6v-.8h10.4v.8Zm9.4-1.8a7.3,7.3,0,0,1-2.5-.8,5,5,0,0,1-1.7-1.3,5,5,0,0,1-1.7,1.3,7.3,7.3,0,0,1-2.5.8l-.5-.7a6.1,6.1,0,0,0,2.7-.8c.9-.5,1.4-.9,1.5-1.5h-3.6V119h8.2v.8H227a3.5,3.5,0,0,0,1.5,1.5,5,5,0,0,0,2.7.8Zm-4.2,7.1a4.9,4.9,0,0,1-2.7-.6,1.7,1.7,0,0,1,0-3,6.4,6.4,0,0,1,5.4,0,1.7,1.7,0,0,1,0,3A4.9,4.9,0,0,1,226.5,129.9Zm0-3.4a4.9,4.9,0,0,0-2,.3,1.1,1.1,0,0,0,0,2,5.2,5.2,0,0,0,4,0,1.1,1.1,0,0,0,0-2A4.9,4.9,0,0,0,226.5,126.5Z"/><path d="M15.7,266a1.9,1.9,0,0,1-1.8-1,5.5,5.5,0,0,1-.6-2.9,5.3,5.3,0,0,1,.6-2.8,1.9,1.9,0,0,1,1.8-1,1.9,1.9,0,0,1,1.8,1,5.3,5.3,0,0,1,.6,2.8,5.5,5.5,0,0,1-.6,2.9A1.9,1.9,0,0,1,15.7,266Zm0-6.9c-1.1,0-1.6,1-1.6,3s.5,3.1,1.6,3.1,1.6-1,1.6-3.1S16.7,259.1,15.7,259.1Zm5.9,9.7V263H20.1v5.5h-.8V257.8h.8v4.4h1.5v-4.7h.8v11.3Z" fill="#001f50" stroke="#001f50" stroke-miterlimit="10" stroke-width="0.05"/><path d="M24.8,263.3v-.8H35.3v.8Zm1.1-1.8v-.8h1.7V259h.9v1.7h3.1V259h.9v1.7h1.7v.8Zm.2-3v-.7H34v.7Zm.4,10.1V266h6.2v-1H26.5v-.8h7.1v2.6H27.4v1h6.5v.8Z" fill="#001f50" stroke="#001f50" stroke-miterlimit="10" stroke-width="0.05"/><path d="M37.7,266.4v-4.5H42v-2.6H37.7v-.8h5.1v4.2H38.5v2.9a48.7,48.7,0,0,0,5.4-.2v.7A38.9,38.9,0,0,1,37.7,266.4Zm7.5,2.4V257.5h.9v11.3Z" fill="#001f50" stroke="#001f50" stroke-miterlimit="10" stroke-width="0.05"/><path d="M53.8,258.5a9.2,9.2,0,0,1-4.2,7.6l-.7-.6a7.9,7.9,0,0,0,2-1.7,8.5,8.5,0,0,0,1.4-2.1l-2.9.4-.3-.8,3.5-.3a8.6,8.6,0,0,0,.3-1.7H49.5v-.8Zm1.6,10v-5.8H53.3v-.8h2.1v-4.1h.9v10.7Zm2.1.3V257.5h.9v11.3Z" fill="#001f50" stroke="#001f50" stroke-miterlimit="10" stroke-width="0.05"/><path d="M64.3,266a2.4,2.4,0,0,1-2-1.1,4.1,4.1,0,0,1-.8-2.8,4.7,4.7,0,0,1,.7-2.8,2.6,2.6,0,0,1,2.1-1,2.4,2.4,0,0,1,2.1,1,4.1,4.1,0,0,1,.8,2.8,3.9,3.9,0,0,1-.8,2.8A2.5,2.5,0,0,1,64.3,266Zm0-6.9a1.4,1.4,0,0,0-1.4.8,3.8,3.8,0,0,0-.6,2.2,4.1,4.1,0,0,0,.6,2.3,1.7,1.7,0,0,0,1.4.8,1.9,1.9,0,0,0,1.5-.8,4.1,4.1,0,0,0,.6-2.3,3.8,3.8,0,0,0-.6-2.2A1.7,1.7,0,0,0,64.3,259.1Zm5,9.7V257.5h.9v11.3Z" fill="#001f50" stroke="#001f50" stroke-miterlimit="10" stroke-width="0.05"/><path d="M78.9,263.9a8.7,8.7,0,0,1-1.5-1.3,9.2,9.2,0,0,1-1.1-1.5,6.9,6.9,0,0,1-1.1,1.7,9.4,9.4,0,0,1-1.6,1.4l-.6-.6a5.7,5.7,0,0,0,2-1.8,3.8,3.8,0,0,0,.8-2.4v-1.5h.9v1.5a3.5,3.5,0,0,0,.9,2.2,6,6,0,0,0,1.9,1.7Zm-3.8,4.6v-3.6H76v2.8h6.4v.8ZM79,262v-.7h2.2V260H79v-.8h2.2v-1.7h.9v8.3h-.9V262Z" fill="#001f50" stroke="#001f50" stroke-miterlimit="10" stroke-width="0.05"/><path d="M115,265.9a1.9,1.9,0,0,1-1.8-1,5.3,5.3,0,0,1-.6-2.8,5.5,5.5,0,0,1,.6-2.9,1.9,1.9,0,0,1,1.8-1,1.9,1.9,0,0,1,1.7,1,4.6,4.6,0,0,1,.7,2.9,4.5,4.5,0,0,1-.7,2.8A1.9,1.9,0,0,1,115,265.9Zm0-6.9c-1.1,0-1.6,1-1.6,3.1s.5,3,1.6,3,1.5-1,1.5-3S116,259,115,259Zm5.8,9.8v-5.9h-1.4v5.5h-.9V257.7h.9v4.4h1.4v-4.6h.9v11.3Z" fill="#1e1e1e"/><path d="M124.1,263.2v-.8h10.5v.8Zm1.1-1.8v-.8h1.7v-1.7h.9v1.7h3.1v-1.7h.8v1.7h1.7v.8Zm.2-2.9v-.8h7.9v.8Zm.4,10v-2.6H132v-1h-6.2v-.7h7v2.5h-6.1v1h6.4v.8Z" fill="#1e1e1e"/><path d="M136.9,266.3v-4.5h4.3v-2.6h-4.3v-.7h5.2v4.1h-4.3v2.9a32.9,32.9,0,0,0,5.4-.2v.8C142.3,266.2,140.2,266.3,136.9,266.3Zm7.6,2.5V257.5h.8v11.3Z" fill="#1e1e1e"/><path d="M153.1,258.4a9.5,9.5,0,0,1-4.3,7.7l-.7-.6a8.7,8.7,0,0,0,2.1-1.7,8.6,8.6,0,0,0,1.3-2.1l-2.8.3-.3-.8,3.4-.3a8.5,8.5,0,0,0,.4-1.7h-3.4v-.8Zm1.6,10v-5.8h-2.1v-.7h2.1v-4.2h.9v10.7Zm2.1.4V257.5h.8v11.3Z" fill="#1e1e1e"/><path d="M163.6,265.9a2.4,2.4,0,0,1-2.1-1,4.9,4.9,0,0,1-.8-2.8,5,5,0,0,1,.8-2.9,2.7,2.7,0,0,1,4.2,0,5,5,0,0,1,.8,2.9,4.9,4.9,0,0,1-.8,2.8A2.4,2.4,0,0,1,163.6,265.9Zm0-6.9a1.9,1.9,0,0,0-1.5.8,4.9,4.9,0,0,0-.5,2.3,4.8,4.8,0,0,0,.5,2.2,1.8,1.8,0,0,0,3,0,4.8,4.8,0,0,0,.5-2.2,4.9,4.9,0,0,0-.5-2.3A1.9,1.9,0,0,0,163.6,259Zm5,9.8V257.5h.9v11.3Z" fill="#1e1e1e"/><path d="M178.2,263.8a6.5,6.5,0,0,1-1.6-1.3,4.4,4.4,0,0,1-1-1.5,7.7,7.7,0,0,1-1.2,1.7,4.8,4.8,0,0,1-1.5,1.4l-.7-.6a6,6,0,0,0,2.1-1.8,4.6,4.6,0,0,0,.8-2.4v-1.5h.9v1.5a4.6,4.6,0,0,0,.8,2.3,5.9,5.9,0,0,0,2,1.6Zm-3.8,4.6v-3.6h.9v2.8h6.3v.8Zm3.9-6.4v-.8h2.2v-1.3h-2.2v-.7h2.2v-1.7h.8v8.2h-.8V262Z" fill="#1e1e1e"/><path d="M189.5,262.4a5.8,5.8,0,0,1-.7,2.6,2.3,2.3,0,0,1-1.8.9,1.9,1.9,0,0,1-1.8-1,4.7,4.7,0,0,1-.7-2.8,4.8,4.8,0,0,1,.7-2.9,1.9,1.9,0,0,1,1.8-1,2,2,0,0,1,1.7.9,3.7,3.7,0,0,1,.7,2.5h1.4v-3.9h.9v10.7h-.9v-6ZM187,259a1.4,1.4,0,0,0-1.2.8,4.7,4.7,0,0,0-.4,2.3,4.6,4.6,0,0,0,.4,2.2,1.3,1.3,0,0,0,2.4,0,4.6,4.6,0,0,0,.4-2.2,4.7,4.7,0,0,0-.4-2.3A1.4,1.4,0,0,0,187,259Zm5.8,9.8V257.5h.9v11.3Z" fill="#1e1e1e"/><path d="M134.3,279.3a15.3,15.3,0,0,1-1.8-1.8,7,7,0,0,1-1-1.9,8.1,8.1,0,0,1-1.1,2,7.7,7.7,0,0,1-1.8,1.8l-.6-.5a10,10,0,0,0,2.2-2.4,6.7,6.7,0,0,0,.8-3v-1.9h.9v1.9a5,5,0,0,0,.8,2.8,6.1,6.1,0,0,0,2.2,2.3Zm2.2,2.9v-6.8h-2.7v-.8h2.7v-3.7h.9v11.3Z" fill="#1e1e1e"/><path d="M150.5,279.3l-1.8-1.8a7,7,0,0,1-1-1.9,8.1,8.1,0,0,1-1.1,2,7.4,7.4,0,0,1-1.7,1.8l-.7-.5a8.3,8.3,0,0,0,2.2-2.4,5.6,5.6,0,0,0,.8-3v-1.9h.9v1.9a6,6,0,0,0,.8,2.8,6.9,6.9,0,0,0,2.2,2.3Zm2.2,2.9v-6.8h-2.6v-.8h2.6v-3.7h.9v11.3Z" fill="#1e1e1e"/><path d="M157,279.1v-7.4h.9v2.9h3.6v-2.9h.9v7.4Zm4.5-3.7h-3.6v2.9h3.6Zm3.1,6.8V270.9h.9v11.3Z" fill="#1e1e1e"/><path d="M178.7,280.3H168.2v-.8h10.5Zm-5.3-6.5a5.2,5.2,0,0,1-1.6,1.8,7.1,7.1,0,0,1-2.6,1.3l-.6-.7a6.1,6.1,0,0,0,3.2-1.6,3.3,3.3,0,0,0,1.2-2.2v-.6h.9v.6a3.3,3.3,0,0,0,1.2,2.2,6.1,6.1,0,0,0,3.1,1.6l-.6.7a9.1,9.1,0,0,1-2.6-1.3A5.2,5.2,0,0,1,173.4,273.8Z" fill="#1e1e1e"/><path d="M122.2,292.7a9.8,9.8,0,0,1-1.7-1.8,6.5,6.5,0,0,1-1.1-1.9,6.8,6.8,0,0,1-1.1,2,9.8,9.8,0,0,1-1.7,1.8l-.7-.5a8.3,8.3,0,0,0,2.2-2.4,5.6,5.6,0,0,0,.8-3V285h.9v1.9a6,6,0,0,0,.8,2.8,6.9,6.9,0,0,0,2.2,2.3Zm2.6-3.1v6h-.9V284.3h.9v4.6h1.9v.7Z" fill="#1e1e1e"/><path d="M130.8,288.2a1.9,1.9,0,0,1-1.2-1.7,1.5,1.5,0,0,1,1-1.5,4.8,4.8,0,0,1,2.6-.6,5.1,5.1,0,0,1,2.7.6,1.6,1.6,0,0,1,.9,1.5,1.8,1.8,0,0,1-1.2,1.7v1.6h2.8v.8H128v-.8h2.8Zm2.4,7.3a6.2,6.2,0,0,1-2.7-.5,1.8,1.8,0,0,1-.9-1.6,1.8,1.8,0,0,1,.9-1.5,6.4,6.4,0,0,1,5.4,0,1.8,1.8,0,0,1,.9,1.5,1.8,1.8,0,0,1-.9,1.6A6.2,6.2,0,0,1,133.2,295.5Zm0-3.4a4.9,4.9,0,0,0-2,.3c-.5.3-.7.6-.7,1a1,1,0,0,0,.7,1,5.2,5.2,0,0,0,4,0,1,1,0,0,0,.7-1c0-.4-.2-.7-.7-1A4.9,4.9,0,0,0,133.2,292.1Zm0-6.9c-1.8,0-2.7.4-2.7,1.3a1,1,0,0,0,.7,1,5.2,5.2,0,0,0,4,0,1,1,0,0,0,.7-1C135.9,285.6,135,285.2,133.2,285.2Zm-1.6,4.6h3.2v-1.3h-3.2Z" fill="#1e1e1e"/><path d="M146.1,292.8a6.6,6.6,0,0,1-1.6-1.7,5.4,5.4,0,0,1-1.1-1.9,5,5,0,0,1-1,1.9,10.5,10.5,0,0,1-1.7,1.9l-.7-.6a5.8,5.8,0,0,0,2.1-2.3,5.7,5.7,0,0,0,.9-2.9V286h-2.5v-.8h5.8v.8h-2.5v1.2a4.8,4.8,0,0,0,.9,2.7,6.4,6.4,0,0,0,2,2.3Zm2.7-3.2v6h-.9V284.3h.9v4.6h1.9v.7Z" fill="#1e1e1e"/><path d="M156.9,290.3v-5.4H162v5.4Zm4.2-4.6h-3.4v3.8h3.4Zm-2.9,9.4v-3.6h.8v2.8h6.4v.8Zm6.8-6.5v3.9h-.8v-8.2h.8v3.5h1.7v.8Z" fill="#1e1e1e"/><path d="M168.2,289.9v-.8h10.5v.8Zm1.7,5.5v-2.5h6.2v-1.1h-6.2V291h7v2.6h-6.2v1.1h6.5v.7Zm0-7.5v-3.4H177v.8h-6.2v1.9h6.3v.7Z" fill="#1e1e1e"/><path d="M186.3,285.3a8,8,0,0,1-1.3,4.3,11.2,11.2,0,0,1-3.8,3.3l-.6-.7a8.7,8.7,0,0,0,3.1-2.3,7.7,7.7,0,0,0,1.7-3.8H181v-.8Zm2.3,10.3V284.3h.9v11.3Z" fill="#1e1e1e"/><path d="M244.2,6.7V9.5l3.6-.2v.8h-4.6V2.7h4.2v.8h-3.3V5.9h2.2v.8Zm4.8,6V7.3h-1.8V6.5H249V2h.9V12.7Zm2.1.4V1.8h.9V13.1Z" fill="#1e1e1e"/><path d="M261.8,7.5a32.8,32.8,0,0,1-6,.3V2.4h.8V7l5.1-.2Zm-4.9,5.2V9h.8v2.9h6.4v.8Zm5.9-2.5V5h-3.2V4.2h3.2V1.8h.9v8.4Z" fill="#1e1e1e"/><path d="M266.4,11.3v-.8h10.5v.8Zm8.9-7.7H269V5.3h6V6h-6V7.6h6.5v.8h-7.4V2.9h7.2Z" fill="#1e1e1e"/><path d="M283.1,12V3.4h2.4a2.9,2.9,0,0,1,1.7.5,2.1,2.1,0,0,1,.7,1.5,2.5,2.5,0,0,1-.4,1.2,2.1,2.1,0,0,1-1.1.8h0a2.3,2.3,0,0,1,1.4.7,2.4,2.4,0,0,1,.5,1.4,2.2,2.2,0,0,1-.8,1.8,2.7,2.7,0,0,1-2,.7Zm.9-7.7V7.1h1a2,2,0,0,0,1.4-.4,1.7,1.7,0,0,0,.5-1.2c0-.8-.6-1.2-1.7-1.2ZM284,8v3.1h1.4a2,2,0,0,0,1.4-.4,1.7,1.7,0,0,0,.5-1.2q0-1.5-2.1-1.5Z" fill="#1e1e1e"/><path d="M289.8,11v-.7h7.8v.7l-3.7.2Zm3.7-3a2.8,2.8,0,0,1-2.1-.8,2.3,2.3,0,0,1-.9-1.9,2.5,2.5,0,0,1,.9-1.9,3,3,0,0,1,2.1-.8,2.9,2.9,0,0,1,2.1.8,2.5,2.5,0,0,1,.9,1.9,2.7,2.7,0,0,1-.9,2A2.8,2.8,0,0,1,293.5,8Zm0-4.6a2.5,2.5,0,0,0-1.5.5,2,2,0,0,0-.6,1.4,1.8,1.8,0,0,0,.6,1.4,2.5,2.5,0,0,0,3,0,1.8,1.8,0,0,0,.6-1.4,1.8,1.8,0,0,0-.6-1.4A2.5,2.5,0,0,0,293.5,3.4Zm4.8,9.7V1.8h.9V13.1Z" fill="#1e1e1e"/><path d="M260.3,23.6a9.8,9.8,0,0,1-1.7-1.8,6.5,6.5,0,0,1-1.1-1.9,6.8,6.8,0,0,1-1.1,2,9.8,9.8,0,0,1-1.7,1.8l-.7-.5a8.3,8.3,0,0,0,2.2-2.4,5.6,5.6,0,0,0,.8-3V15.9h.9v1.9a6,6,0,0,0,.8,2.8,6.9,6.9,0,0,0,2.2,2.3Zm2.6-3.1v6H262V15.2h.9v4.6h1.9v.7Z" fill="#1e1e1e"/><path d="M268.9,19.1a1.9,1.9,0,0,1-1.2-1.7,1.6,1.6,0,0,1,.9-1.5,6.4,6.4,0,0,1,5.4,0,1.6,1.6,0,0,1,.9,1.5,1.8,1.8,0,0,1-1.2,1.7v1.6h2.8v.8H266.1v-.8h2.8Zm2.4,7.3a6.2,6.2,0,0,1-2.7-.5,1.8,1.8,0,0,1-.9-1.6,1.8,1.8,0,0,1,.9-1.5,6.4,6.4,0,0,1,5.4,0,1.8,1.8,0,0,1,.9,1.5,1.8,1.8,0,0,1-.9,1.6A6.2,6.2,0,0,1,271.3,26.4Zm0-3.4a4.9,4.9,0,0,0-2,.3c-.5.3-.7.6-.7,1a1,1,0,0,0,.7,1,5.2,5.2,0,0,0,4,0,1,1,0,0,0,.7-1c0-.4-.2-.7-.7-1A4.9,4.9,0,0,0,271.3,23Zm0-6.9c-1.8,0-2.7.4-2.7,1.3a1,1,0,0,0,.7,1,5.2,5.2,0,0,0,4,0,1,1,0,0,0,.7-1C274,16.5,273.1,16.1,271.3,16.1Zm-1.6,4.6h3.1V19.4h-3.1Z" fill="#1e1e1e"/><path d="M284.2,23.7a6.6,6.6,0,0,1-1.6-1.7,5.4,5.4,0,0,1-1.1-1.9,5,5,0,0,1-1,1.9,7.9,7.9,0,0,1-1.7,1.9l-.7-.6a6.7,6.7,0,0,0,2.1-2.3,5.7,5.7,0,0,0,.9-2.9V16.9h-2.6v-.8h5.9v.8h-2.5v1.2a4.8,4.8,0,0,0,.9,2.7,6.4,6.4,0,0,0,2,2.3Zm2.7-3.2v6H286V15.2h.9v4.6h1.9v.7Z" fill="#1e1e1e"/><path d="M69.9,95.9a1.9,1.9,0,0,1-1.8-1,5.2,5.2,0,0,1-.7-2.8,5.4,5.4,0,0,1,.7-2.9,1.9,1.9,0,0,1,1.8-1,1.9,1.9,0,0,1,1.7,1,4.6,4.6,0,0,1,.7,2.9,4.5,4.5,0,0,1-.7,2.8A1.9,1.9,0,0,1,69.9,95.9Zm0-6.9c-1.1,0-1.6,1-1.6,3.1s.5,3,1.6,3,1.5-1,1.5-3S70.9,89,69.9,89Zm5.8,9.8V92.9H74.3v5.5h-.9V87.7h.9v4.4h1.4V87.5h.9V98.8Z" fill="#1e1e1e"/><path d="M78.9,93.2v-.8H89.4v.8Zm1.2-1.8v-.8h1.7V88.9h.8v1.7h3.1V88.9h.9v1.7h1.7v.8Zm.1-2.9v-.8h7.9v.8Zm.5,10V95.9h6.1v-1H80.7v-.7h7v2.5H81.5v1H88v.8Z" fill="#1e1e1e"/><path d="M91.8,96.3V91.8h4.3V89.2H91.8v-.7h5.1v4.1H92.6v2.9a31.5,31.5,0,0,0,5.4-.2v.8C97.2,96.2,95.1,96.3,91.8,96.3Zm7.5,2.5V87.5h.9V98.8Z" fill="#1e1e1e"/><path d="M107.9,88.4a9.4,9.4,0,0,1-4.2,7.7l-.7-.6a10.6,10.6,0,0,0,2-1.7,15.2,15.2,0,0,0,1.4-2.1l-2.9.3-.3-.8,3.4-.3a8.5,8.5,0,0,0,.4-1.7h-3.4v-.8Zm1.6,10V92.6h-2.1v-.7h2.1V87.7h.9V98.4Zm2.1.4V87.5h.9V98.8Z" fill="#1e1e1e"/><path d="M118.4,95.9a2.4,2.4,0,0,1-2.1-1,4.9,4.9,0,0,1-.8-2.8,5,5,0,0,1,.8-2.9,2.7,2.7,0,0,1,4.2,0,5,5,0,0,1,.8,2.9,4.9,4.9,0,0,1-.8,2.8A2.4,2.4,0,0,1,118.4,95.9Zm0-6.9a1.9,1.9,0,0,0-1.5.8,4.9,4.9,0,0,0-.5,2.3,4.8,4.8,0,0,0,.5,2.2,1.7,1.7,0,0,0,1.5.8,1.4,1.4,0,0,0,1.4-.8,3.8,3.8,0,0,0,.6-2.2,4.9,4.9,0,0,0-.5-2.3A1.9,1.9,0,0,0,118.4,89Zm5,9.8V87.5h.9V98.8Z" fill="#1e1e1e"/><path d="M133,93.8a6.5,6.5,0,0,1-1.6-1.3,4.8,4.8,0,0,1-1.1-1.5,6.9,6.9,0,0,1-1.1,1.7,5,5,0,0,1-1.6,1.4l-.6-.6a4.9,4.9,0,0,0,2-1.8,4,4,0,0,0,.9-2.4V87.8h.8v1.5a4,4,0,0,0,.9,2.3,5.1,5.1,0,0,0,2,1.6Zm-3.9,4.6V94.8h.9v2.8h6.4v.8ZM133,92v-.8h2.2V89.9H133v-.7h2.2V87.5h.9v8.2h-.9V92Z" fill="#1e1e1e"/><path d="M144.2,92.4a4.7,4.7,0,0,1-.7,2.6,2,2,0,0,1-1.8.9,1.9,1.9,0,0,1-1.8-1,5.5,5.5,0,0,1-.6-2.8,5.7,5.7,0,0,1,.6-2.9,2.2,2.2,0,0,1,3.6-.1,4.4,4.4,0,0,1,.7,2.5h1.4V87.7h.8V98.4h-.8v-6ZM141.7,89a1.4,1.4,0,0,0-1.2.8,6.3,6.3,0,0,0-.4,2.3,6.2,6.2,0,0,0,.4,2.2,1.4,1.4,0,0,0,1.2.8,1.2,1.2,0,0,0,1.2-.8,4.5,4.5,0,0,0,.5-2.2,4.6,4.6,0,0,0-.5-2.3A1.2,1.2,0,0,0,141.7,89Zm5.9,9.8V87.5h.9V98.8Z" fill="#1e1e1e"/><path d="M72.6,108.9a31.1,31.1,0,0,1-4.8.2v-7.2h4.3v.7H68.6v5.7h3.9Zm3.1,3.3v-5.9H74.3v5.5h-.9V101.1h.9v4.4h1.4v-4.6h.9v11.3Z" fill="#1e1e1e"/><path d="M79,103.2v-.8h2.9v-1.5h.9v1.5h2.9v.8Zm3.4,4.8a3,3,0,0,1-2-.6,1.8,1.8,0,0,1,0-3,3.6,3.6,0,0,1,4,0,1.8,1.8,0,0,1,0,3A3.2,3.2,0,0,1,82.4,108Zm0-3.5a2,2,0,0,0-1.4.4,1,1,0,0,0-.5,1,1.1,1.1,0,0,0,.5,1,2.7,2.7,0,0,0,2.8,0,1.4,1.4,0,0,0,.5-1,1.2,1.2,0,0,0-.5-1A2,2,0,0,0,82.4,104.5ZM80.9,112v-3.2h.9v2.4h6.3v.8Zm6.9-6v3.3h-.9v-8.4h.9v4.3h1.7v.8Z" fill="#1e1e1e"/><path d="M95.1,110.5v-.8h4.8v-2.4H96.8v-5.4H104v.8H97.6v1.5h6.2v.8H97.6v1.6h6.6v.7h-3.4v2.4h4.8v.8Z" fill="#1e1e1e"/><path d="M107.1,107v-.8h8v-1.9l-6.5.3-.2-.8,6.7-.2v-1.5h-6.4v-.7H116c0,2.1,0,3.8-.1,4.8h1.7v.8Zm1.8,4.7v-3.5h.9v2.7h6.3v.8Z" fill="#1e1e1e"/><path d="M123.3,110.4v-.8H126v-2.9a2.3,2.3,0,0,1-1.3-2.2,2.4,2.4,0,0,1,1-2.1,6,6,0,0,1,5.6,0,2.4,2.4,0,0,1,1,2.1,2.3,2.3,0,0,1-1.3,2.2v2.9h2.7v.8Zm2.3-5.9a1.9,1.9,0,0,0,.8,1.5,4.7,4.7,0,0,0,4.2,0,1.8,1.8,0,0,0,0-3,4.7,4.7,0,0,0-4.2,0A1.9,1.9,0,0,0,125.6,104.5Zm1.2,2.6v2.5h3.4v-2.5l-1.7.2Z" fill="#1e1e1e"/><path d="M141.5,107.1a6.4,6.4,0,0,1-2.7-2.4,4.8,4.8,0,0,1-1.1,1.5,6.6,6.6,0,0,1-1.7,1.2l-.6-.7a6,6,0,0,0,2.1-1.4,3,3,0,0,0,.9-1.9v-.6h-2.6v-.7h2.6v-1.3h.8v1.3h2.6v.7h-2.6v.6a2.6,2.6,0,0,0,.9,1.8,4.7,4.7,0,0,0,2,1.2ZM141,112a5.1,5.1,0,0,1-2.7-.6,1.9,1.9,0,0,1-1-1.6,2,2,0,0,1,1-1.6,5.1,5.1,0,0,1,2.7-.6,5.5,5.5,0,0,1,2.8.6,1.9,1.9,0,0,1,.9,1.6,1.8,1.8,0,0,1-.9,1.6A5.5,5.5,0,0,1,141,112Zm0-3.6a3.7,3.7,0,0,0-2,.4,1.1,1.1,0,0,0,0,2,3.7,3.7,0,0,0,2,.4,4.1,4.1,0,0,0,2.1-.4,1.1,1.1,0,0,0,0-2A4.1,4.1,0,0,0,141,108.4Zm2.6-1v-2.7h-2.2v-.8h2.2v-3h.9v6.5Z" fill="#1e1e1e"/><path d="M247.6,240.4a10.2,10.2,0,0,1-1.8-1.8,8,8,0,0,1-1.1-1.9,5.3,5.3,0,0,1-1,2,7.7,7.7,0,0,1-1.8,1.8l-.6-.5a10,10,0,0,0,2.2-2.4,6.7,6.7,0,0,0,.8-3v-1.9h.9v1.9a5,5,0,0,0,.8,2.8,6.1,6.1,0,0,0,2.2,2.3Zm2.2,2.9v-6.8h-2.7v-.8h2.7V232h.9v11.3Z" fill="#fff" stroke="#fff" stroke-miterlimit="10" stroke-width="0.05"/><path d="M254,240.2v-7.4h.9v2.9h3.7v-2.9h.9v7.4Zm4.6-3.7h-3.7v2.9h3.7Zm3.1,6.8V232h.8v11.3Z" fill="#fff" stroke="#fff" stroke-miterlimit="10" stroke-width="0.05"/><path d="M275.7,241.4H265.3v-.8h10.4Zm-5.2-6.5a5.2,5.2,0,0,1-1.6,1.8,7.1,7.1,0,0,1-2.6,1.3l-.6-.7a6.5,6.5,0,0,0,3.2-1.6,3.1,3.1,0,0,0,1.1-2.2v-.6h.9v.6a3.3,3.3,0,0,0,1.2,2.2,6.5,6.5,0,0,0,3.2,1.6l-.6.7a9.1,9.1,0,0,1-2.6-1.3A5.2,5.2,0,0,1,270.5,234.9Z" fill="#fff" stroke="#fff" stroke-miterlimit="10" stroke-width="0.05"/><path d="M247.5,253.8a9.8,9.8,0,0,1-1.7-1.8,6.5,6.5,0,0,1-1.1-1.9,6.8,6.8,0,0,1-1.1,2,9.8,9.8,0,0,1-1.7,1.8l-.7-.5a8.3,8.3,0,0,0,2.2-2.4,5.6,5.6,0,0,0,.8-3v-1.9h.9V248a6,6,0,0,0,.8,2.8,6.9,6.9,0,0,0,2.2,2.3Zm2.6-3.1v6h-.9V245.4h.9V250H252v.7Z" fill="#fff" stroke="#fff" stroke-miterlimit="10" stroke-width="0.05"/><path d="M256.1,249.3a1.9,1.9,0,0,1-1.2-1.7,1.6,1.6,0,0,1,.9-1.5,6.4,6.4,0,0,1,5.4,0,1.6,1.6,0,0,1,.9,1.5,1.8,1.8,0,0,1-1.2,1.7v1.6h2.8v.8H253.3v-.8h2.8Zm2.4,7.3a6.2,6.2,0,0,1-2.7-.5,1.8,1.8,0,0,1-.9-1.6,1.8,1.8,0,0,1,.9-1.5,6.4,6.4,0,0,1,5.4,0,1.8,1.8,0,0,1,.9,1.5,1.8,1.8,0,0,1-.9,1.6A6.2,6.2,0,0,1,258.5,256.6Zm0-3.4a4.9,4.9,0,0,0-2,.3c-.5.3-.7.6-.7,1a1,1,0,0,0,.7,1,5.2,5.2,0,0,0,4,0,1,1,0,0,0,.7-1c0-.4-.2-.7-.7-1A4.9,4.9,0,0,0,258.5,253.2Zm0-6.9c-1.8,0-2.7.4-2.7,1.3a1,1,0,0,0,.7,1,5.2,5.2,0,0,0,4,0,1,1,0,0,0,.7-1C261.2,246.7,260.3,246.3,258.5,246.3Zm-1.6,4.6H260v-1.3h-3.1Z" fill="#fff" stroke="#fff" stroke-miterlimit="10" stroke-width="0.05"/><path d="M271.4,253.9a6.6,6.6,0,0,1-1.6-1.7,5.4,5.4,0,0,1-1.1-1.9,5,5,0,0,1-1,1.9,10.5,10.5,0,0,1-1.7,1.9l-.7-.6a6.7,6.7,0,0,0,2.1-2.3,5.7,5.7,0,0,0,.9-2.9v-1.2h-2.6v-.8h5.9v.8h-2.5v1.2a4.8,4.8,0,0,0,.9,2.7,6.4,6.4,0,0,0,2,2.3Zm2.7-3.2v6h-.9V245.4h.9V250H276v.7Z" fill="#fff" stroke="#fff" stroke-miterlimit="10" stroke-width="0.05"/></svg>